<svg width="16" height="16" viewBox="0 0 16 16" fill="none" xmlns="http://www.w3.org/2000/svg">
<path d="M13.5258 2.47494C12.9015 1.85069 12.0549 1.5 11.1721 1.5C10.2892 1.5 9.44256 1.85069 8.81831 2.47494L2.47455 8.81806C1.86336 9.44499 1.52377 10.2875 1.52936 11.163C1.53496 12.0385 1.88527 12.8766 2.50442 13.4957C3.12357 14.1148 3.9617 14.465 4.83723 14.4704C5.71277 14.4759 6.55521 14.1362 7.18205 13.5249L13.5264 7.18181C14.1496 6.55709 14.4996 5.71066 14.4994 4.82824C14.4993 3.94583 14.1492 3.09949 13.5258 2.47494ZM6.47518 12.8181C6.03848 13.2548 5.44616 13.5003 4.82853 13.5003C4.21089 13.5004 3.61852 13.2551 3.18174 12.8184C2.74496 12.3817 2.49955 11.7894 2.49949 11.1717C2.49943 10.5541 2.74473 9.96171 3.18143 9.52494L5.99955 6.70681L9.2933 9.99994L6.47518 12.8181ZM12.8189 6.47494L9.99955 9.29306L6.70705 5.99994L9.5258 3.18181C9.96423 2.75351 10.5538 2.51532 11.1667 2.5189C11.7796 2.52249 12.3664 2.76755 12.7998 3.20094C13.2332 3.63433 13.4783 4.22111 13.4818 4.83401C13.4854 5.44691 13.2472 6.03651 12.8189 6.47494ZM11.8546 5.14619C11.901 5.19262 11.9379 5.24777 11.9631 5.30847C11.9882 5.36917 12.0012 5.43423 12.0012 5.49994C12.0012 5.56564 11.9882 5.63071 11.9631 5.69141C11.9379 5.75211 11.901 5.80725 11.8546 5.85369L10.3546 7.35369C10.3081 7.4001 10.253 7.43691 10.1923 7.46201C10.1316 7.48712 10.0666 7.50002 10.0009 7.49999C9.93523 7.49996 9.87021 7.487 9.80955 7.46184C9.74889 7.43669 9.69378 7.39983 9.64737 7.35337C9.60095 7.30692 9.56414 7.25178 9.53904 7.1911C9.51394 7.13041 9.50103 7.06538 9.50106 6.99972C9.50109 6.93405 9.51405 6.86903 9.53921 6.80837C9.56437 6.74771 9.60122 6.6926 9.64768 6.64619L11.1477 5.14619C11.2414 5.05249 11.3686 4.99986 11.5011 4.99986C11.6337 4.99986 11.7608 5.05249 11.8546 5.14619Z" fill="white"/>
</svg>
