<svg width="13" height="13" viewBox="0 0 13 13" fill="none" xmlns="http://www.w3.org/2000/svg">
<path d="M9 5.5C9 5.00554 8.85338 4.5222 8.57867 4.11107C8.30397 3.69995 7.91352 3.37952 7.45671 3.1903C6.99989 3.00108 6.49723 2.95157 6.01227 3.04803C5.52732 3.1445 5.08186 3.3826 4.73223 3.73223C4.3826 4.08186 4.1445 4.52732 4.04804 5.01227C3.95157 5.49722 4.00108 5.99989 4.1903 6.45671C4.37952 6.91352 4.69995 7.30397 5.11107 7.57867C5.5222 7.85338 6.00555 8 6.5 8C7.16304 8 7.79893 7.73661 8.26777 7.26777C8.73661 6.79892 9 6.16304 9 5.5ZM5 5.5C5 5.20333 5.08797 4.91332 5.2528 4.66664C5.41762 4.41997 5.65189 4.22771 5.92597 4.11418C6.20006 4.00065 6.50166 3.97094 6.79264 4.02882C7.08361 4.0867 7.35088 4.22956 7.56066 4.43934C7.77044 4.64912 7.9133 4.91639 7.97118 5.20736C8.02906 5.49833 7.99935 5.79993 7.88582 6.07402C7.77229 6.34811 7.58003 6.58238 7.33335 6.7472C7.08668 6.91202 6.79667 7 6.5 7C6.10218 7 5.72064 6.84196 5.43934 6.56066C5.15804 6.27935 5 5.89782 5 5.5ZM12.5 11.5H7V10.475C8.27632 10.3467 9.45452 9.73282 10.2909 8.76026C11.1273 7.7877 11.5579 6.53089 11.4937 5.24975C11.4295 3.96861 10.8754 2.76115 9.9459 1.87711C9.01643 0.993065 7.78275 0.500061 6.5 0.500061C5.21725 0.500061 3.98357 0.993065 3.0541 1.87711C2.12463 2.76115 1.57049 3.96861 1.50627 5.24975C1.44205 6.53089 1.87268 7.7877 2.70908 8.76026C3.54548 9.73282 4.72368 10.3467 6 10.475V11.5H0.5C0.367392 11.5 0.240215 11.5527 0.146447 11.6464C0.0526784 11.7402 0 11.8674 0 12C0 12.1326 0.0526784 12.2598 0.146447 12.3536C0.240215 12.4473 0.367392 12.5 0.5 12.5H12.5C12.6326 12.5 12.7598 12.4473 12.8536 12.3536C12.9473 12.2598 13 12.1326 13 12C13 11.8674 12.9473 11.7402 12.8536 11.6464C12.7598 11.5527 12.6326 11.5 12.5 11.5ZM2.5 5.5C2.5 4.70887 2.7346 3.93551 3.17412 3.27772C3.61365 2.61992 4.23836 2.10723 4.96927 1.80448C5.70017 1.50173 6.50444 1.42252 7.28036 1.57686C8.05628 1.7312 8.76902 2.11216 9.32843 2.67157C9.88784 3.23098 10.2688 3.94371 10.4231 4.71964C10.5775 5.49556 10.4983 6.29983 10.1955 7.03073C9.89277 7.76164 9.38008 8.38635 8.72228 8.82588C8.06448 9.2654 7.29113 9.5 6.5 9.5C5.43949 9.49884 4.42275 9.07704 3.67285 8.32715C2.92296 7.57725 2.50116 6.56051 2.5 5.5Z" fill="#343330"/>
</svg>
