<svg width="430" height="81" viewBox="0 0 430 81" fill="none" xmlns="http://www.w3.org/2000/svg">
<path d="M555.593 0.481445H0V161.632H555.593V0.481445Z" fill="#569AFE"/>
<g opacity="0.66">
<g style="mix-blend-mode:soft-light">
<path d="M139.904 23.9881C119.612 23.2826 98.1043 22.8514 78.3998 20.2642C65.9604 18.6309 61.191 16.2658 75.8518 14.1621C97.072 11.1045 120.605 12.5157 142.426 10.2551C130.719 7.78555 117.587 8.30822 104.729 9.31435C98.2088 9.82394 91.767 10.4511 85.6256 10.8823C64.118 12.3588 43.7471 14.9983 21.7821 13.5348C18.8552 13.3388 10.5186 13.0514 0 12.8815V22.3156C15.301 22.4463 30.6282 22.3156 45.89 22.969C63.6084 23.7268 81.4051 23.962 99.1235 24.6546C117.547 25.3863 135.984 27.4508 154.552 26.6015C169.644 25.9089 184.997 26.4839 199.998 25.3994C179.914 26.3663 159.87 24.6938 139.878 24.0012L139.904 23.9881Z" fill="white"/>
</g>
<g style="mix-blend-mode:soft-light">
<path d="M145.798 10.3726C154.252 11.1958 162.863 11.1958 171.604 10.2289C162.575 8.09901 153.964 9.15743 145.798 10.3726Z" fill="white"/>
</g>
<g style="mix-blend-mode:soft-light">
<path d="M171.605 10.229C172.506 10.4381 173.408 10.6864 174.31 10.9608C176.074 10.5819 177.864 10.2813 179.654 10.02C178.844 9.87628 178.034 9.70638 177.224 9.49731C175.342 9.79785 173.46 10.02 171.592 10.229H171.605Z" fill="white"/>
</g>
<g style="mix-blend-mode:soft-light">
<path d="M260.667 25.0858C266.508 25.321 272.427 25.517 278.425 25.5301C272.571 20.6693 266.652 23.1127 260.667 25.0858Z" fill="white"/>
</g>
<g style="mix-blend-mode:soft-light">
<path d="M215.873 25.7261C226.614 25.7261 237.224 29.254 247.651 25.6738C252.016 27.6599 256.354 26.497 260.666 25.0727C247.9 24.5631 235.512 23.949 223.557 24.9943C218.055 24.7461 212.646 24.7983 207.341 24.929C210.176 24.8636 213.025 25.0597 215.873 25.713V25.7261Z" fill="white"/>
</g>
<g style="mix-blend-mode:soft-light">
<path d="M262.561 9.66705C257.635 9.54945 252.67 9.39265 247.665 9.47105C247.574 9.52332 247.469 9.54946 247.378 9.60173C252.382 9.60173 257.452 9.64091 262.574 9.66705H262.561Z" fill="white"/>
</g>
<g style="mix-blend-mode:soft-light">
<path d="M278.424 9.61499C273.08 9.69339 267.801 9.68036 262.562 9.65423C267.906 9.78489 273.185 9.87632 278.424 9.61499Z" fill="white"/>
</g>
<g style="mix-blend-mode:soft-light">
<path d="M179.653 10.02C186.709 11.2352 193.844 9.82401 201.056 9.05308C193.713 8.87015 186.579 9.02697 179.653 10.02Z" fill="white"/>
</g>
<g style="mix-blend-mode:soft-light">
<path d="M215.874 9.41888C210.909 8.30822 205.957 8.53035 201.057 9.05302C208.361 9.23595 215.874 9.75864 223.557 10.1376C226.132 9.98077 228.719 9.88929 231.332 9.79783C226.223 8.72636 221.062 7.62878 215.874 9.40584V9.41888Z" fill="white"/>
</g>
<g style="mix-blend-mode:soft-light">
<path d="M330.415 13.365C313.102 13.1429 295.828 13.2343 278.75 13.7831C279.887 13.8615 280.997 13.9399 282.069 13.966C298.232 14.5279 314.317 13.9661 330.415 13.365Z" fill="white"/>
</g>
<g style="mix-blend-mode:soft-light">
<path d="M271.891 13.1035C273.694 13.3126 275.445 13.5086 277.156 13.6523C275.406 13.4563 273.655 13.2734 271.891 13.1035Z" fill="white"/>
</g>
<g style="mix-blend-mode:soft-light">
<path d="M306.111 10.3074C331.853 10.033 357.581 9.70635 383.322 9.32742C392.351 9.19676 401.38 9.02686 410.396 8.84392C375.6 8.37352 341.339 9.52341 306.111 10.2943V10.3074Z" fill="white"/>
</g>
<g style="mix-blend-mode:soft-light">
<path d="M181.77 13.6917C177.641 13.4303 173.512 13.2082 169.357 13.2213C168.05 13.2213 166.561 13.3781 165.006 13.6002C167.41 13.6525 169.618 13.6786 171.552 13.6786C174.936 13.6786 178.347 13.6786 181.77 13.7047V13.6917Z" fill="white"/>
</g>
<g style="mix-blend-mode:soft-light">
<path d="M234.154 11.9669C246.789 11.5619 259.49 11.9277 271.89 13.1037C259.177 11.588 244.686 8.79175 233.971 10.0069C234.298 10.2552 234.677 10.4643 235.121 10.6603C232.56 9.53655 217.507 12.4635 214.332 12.764C203.67 13.744 192.667 13.7309 181.757 13.6917C186.631 13.9923 191.505 14.332 196.418 14.3451C209.105 14.3843 221.492 12.3589 234.141 11.9539L234.154 11.9669Z" fill="white"/>
</g>
<g style="mix-blend-mode:soft-light">
<path d="M555.593 8.56962C542.003 7.22376 527.917 7.23681 514.093 7.24988C479.453 7.30214 444.957 8.16454 410.409 8.84401C420.993 8.98774 431.642 9.27521 442.37 9.78481C454.391 10.3467 478.918 10.2422 487.489 15.3251C501.183 23.4264 457.632 24.6938 450.053 24.929C418.942 25.896 387.582 24.2757 356.653 22.8906C382.63 23.9229 418.249 25.7784 441.194 18.5525C423.868 16.5795 408.122 13.1691 390.143 12.3851C371.902 11.588 353.53 12.4765 335.341 13.1821C333.708 13.2475 332.062 13.3128 330.428 13.3651C353.687 13.6656 376.985 14.5019 399.864 15.4819C406.777 15.7824 417.008 16.3965 421.908 18.5003C411.337 22.76 393.462 20.8523 380.761 20.9829C360.612 21.2051 340.529 21.5971 320.354 21.5971C306.373 21.5971 292.417 21.8976 278.449 22.1328C277.182 22.1589 275.901 22.172 274.634 22.1981C283.48 22.7208 292.3 23.5179 301.159 23.6485C299.434 24.2496 296.324 24.9029 294.051 25.5824C299.016 24.1189 313.808 25.713 319.296 25.8045C330.468 26.0005 341.653 26.0528 352.838 26.0659C376.005 26.1051 399.185 25.9352 422.352 26.2749C465.472 26.9152 513.035 29.816 555.619 25.0205V8.55654L555.593 8.56962Z" fill="white"/>
</g>
<g style="mix-blend-mode:soft-light">
<path d="M255.505 21.8452C250.461 22.0412 245.431 22.2242 240.374 22.381C241.537 22.4071 242.713 22.4202 243.876 22.4333C254.12 22.4986 264.364 22.381 274.609 22.2111C268.245 21.8322 261.882 21.597 255.492 21.8452H255.505Z" fill="white"/>
</g>
<g style="mix-blend-mode:soft-light">
<path d="M130.654 17.7293C135.528 15.3642 144.413 15.4818 150.829 15.7431C153.9 15.8738 159.845 14.332 165.006 13.6002C145.864 13.2213 114.007 11.7186 102.169 17.5986C109.931 21.401 123.193 20.1858 133.215 20.1597C153.586 20.1205 173.421 22.7991 193.74 23.0343C209.289 23.2173 224.852 22.8906 240.375 22.381C218.567 21.9498 197.007 19.0359 175.381 19.1405C160.185 19.2058 145.223 20.6301 130.654 17.7293Z" fill="white"/>
</g>
<g style="mix-blend-mode:soft-light">
<path d="M295.607 9.91554C294.901 9.811 294.196 9.71952 293.49 9.61499C294.196 9.74566 294.901 9.83714 295.607 9.91554Z" fill="white"/>
</g>
</g>
<g opacity="0.66">
<g style="mix-blend-mode:soft-light">
<path d="M28.8246 38.401C48.2286 36.1012 68.0768 34.886 85.769 40.5439C57.8064 44.9604 27.9884 43.327 0.0126953 46.9857V41.9681C9.29 41.0012 18.9985 39.5508 28.8377 38.3879L28.8246 38.401Z" fill="white"/>
</g>
<g style="mix-blend-mode:soft-light">
<path d="M172.78 75.2226C150.123 77.7052 126.929 76.3986 104.115 77.9927C76.0609 79.9396 48.2028 75.2095 20.3709 73.5501C13.5893 73.145 6.79465 72.8052 0 72.5047V65.4487C26.6821 69.6693 55.0236 70.61 81.9539 72.0212C112.151 73.6023 142.426 77.4439 172.767 75.2226H172.78Z" fill="white"/>
</g>
<g style="mix-blend-mode:soft-light">
<path d="M90.8652 40.8311C103.2 38.061 116.214 35.6175 129.856 40.5044C116.646 42.7127 103.644 42.7388 90.8652 40.8311Z" fill="white"/>
</g>
<g style="mix-blend-mode:soft-light">
<path d="M129.857 40.5045C132.679 40.0341 135.515 39.4983 138.35 38.8188C139.565 39.3023 140.794 39.7074 142.009 40.021C139.291 40.609 136.599 41.3146 133.934 42.177C132.562 41.5367 131.203 40.9879 129.844 40.5045H129.857Z" fill="white"/>
</g>
<g style="mix-blend-mode:soft-light">
<path d="M291.228 75.5493C282.173 75.5232 273.235 75.0528 264.402 74.517C273.444 70.0091 282.382 64.4035 291.228 75.5493Z" fill="white"/>
</g>
<g style="mix-blend-mode:soft-light">
<path d="M208.348 74.3471C226.406 71.9429 245.131 73.3671 264.404 74.517C257.897 77.7575 251.35 80.4362 244.752 75.8759C228.993 84.0818 212.974 75.9805 196.732 75.9935C192.42 74.4909 188.121 74.0466 183.835 74.1903C191.858 73.9029 200.025 73.7591 208.335 74.3341L208.348 74.3471Z" fill="white"/>
</g>
<g style="mix-blend-mode:soft-light">
<path d="M244.751 38.7668C252.316 38.5839 259.817 38.9236 267.265 39.198C259.516 39.1458 251.872 39.0674 244.307 39.0543C244.45 38.9498 244.607 38.8714 244.751 38.7668Z" fill="white"/>
</g>
<g style="mix-blend-mode:soft-light">
<path d="M267.265 39.1979C275.17 39.2502 283.141 39.2763 291.229 39.1064C283.324 39.7206 275.34 39.4985 267.265 39.1979Z" fill="white"/>
</g>
<g style="mix-blend-mode:soft-light">
<path d="M142.021 40.0211C152.475 37.7475 163.255 37.3816 174.348 37.8128C163.464 39.5637 152.684 42.8043 142.021 40.0211Z" fill="white"/>
</g>
<g style="mix-blend-mode:soft-light">
<path d="M174.348 37.8128C181.77 36.6106 189.231 36.101 196.744 38.649C204.584 34.5592 212.359 37.0941 220.094 39.5376C216.148 39.7205 212.241 39.9557 208.347 40.3085C196.731 39.4461 185.389 38.244 174.348 37.8128Z" fill="white"/>
</g>
<g style="mix-blend-mode:soft-light">
<path d="M296.73 49.0763C295.11 48.9849 293.425 48.8411 291.713 48.6451C317.506 47.3777 343.627 47.1817 369.773 47.6913C345.456 49.1025 321.152 50.3569 296.73 49.0763Z" fill="white"/>
</g>
<g style="mix-blend-mode:soft-light">
<path d="M281.364 47.0901C284.03 47.469 286.682 47.9002 289.322 48.3576C286.735 48.0178 284.082 47.5866 281.364 47.0901Z" fill="white"/>
</g>
<g style="mix-blend-mode:soft-light">
<path d="M333.042 40.6877C386.263 38.8975 438.02 36.258 490.587 37.3556C476.958 37.7607 463.33 38.1396 449.675 38.4532C410.802 39.3156 371.916 40.0735 333.029 40.7007L333.042 40.6877Z" fill="white"/>
</g>
<g style="mix-blend-mode:soft-light">
<path d="M145.21 48.449C140.049 48.4228 134.9 48.3706 129.778 48.3967C126.851 48.3967 123.506 48.3314 119.887 48.2269C122.239 47.7173 124.486 47.3775 126.472 47.3645C132.744 47.3383 138.977 47.861 145.21 48.449Z" fill="white"/>
</g>
<g style="mix-blend-mode:soft-light">
<path d="M194.405 46.3192C199.213 45.6528 221.936 38.9365 225.817 41.5107C225.151 41.0664 224.563 40.5568 224.079 40.008C240.256 37.2248 262.142 43.6144 281.363 47.0901C262.626 44.3984 243.431 43.5622 224.354 44.4768C205.237 45.4045 186.526 50.0432 167.357 49.9517C159.935 49.9125 152.579 49.1416 145.209 48.449C161.686 48.5536 178.294 48.5667 194.418 46.3192H194.405Z" fill="white"/>
</g>
<g style="mix-blend-mode:soft-light">
<path d="M354.55 66.5725C385.035 66.5725 415.362 65.684 445.808 65.1613C464.989 64.8346 491.985 69.225 507.966 59.4643C500.557 54.6296 485.099 53.2315 474.659 52.552C440.085 50.2915 404.896 48.3576 369.76 47.6912C372.229 47.5475 374.712 47.4038 377.182 47.26C404.648 45.6528 432.401 43.6144 459.959 45.4307C487.124 47.2208 510.906 55.0477 537.091 59.5688C502.412 76.1373 448.617 71.8645 409.378 69.4994C456.117 72.6746 503.497 76.3986 550.484 74.1773C551.386 74.1381 553.15 74.0727 555.594 73.9943V78.9074C539.691 78.2802 523.972 77.653 508.619 77.3002C473.627 76.5031 438.608 76.9082 403.616 76.8167C386.72 76.7645 369.825 76.6469 352.943 76.2026C344.646 75.9805 322.315 72.3349 314.815 75.693C318.251 74.1511 322.955 72.6616 325.555 71.2634C312.175 70.9498 298.847 69.1335 285.493 67.9445C287.414 67.8922 289.335 67.853 291.256 67.8008C312.358 67.2389 333.448 66.5594 354.563 66.5594L354.55 66.5725Z" fill="white"/>
</g>
<g style="mix-blend-mode:soft-light">
<path d="M285.479 67.9575C270.008 68.3364 254.537 68.6238 239.053 68.467C237.289 68.454 235.525 68.4017 233.748 68.3494C241.366 67.9705 248.984 67.5524 256.602 67.1081C266.245 66.5462 275.875 67.1081 285.479 67.9575Z" fill="white"/>
</g>
<g style="mix-blend-mode:soft-light">
<path d="M71.8662 63.2534C56.722 63.3057 36.6778 66.0758 24.957 57.3735C42.8452 43.9018 90.9827 47.3383 119.886 48.2137C112.098 49.8863 103.109 53.4273 98.4699 53.1268C88.7875 52.4996 75.3681 52.2383 67.9985 57.6609C90.0158 64.3118 112.608 61.0713 135.579 60.9014C168.246 60.6662 200.808 67.3433 233.762 68.3363C210.307 69.4993 186.813 70.231 163.307 69.826C132.613 69.2902 102.638 63.1489 71.8662 63.2404V63.2534Z" fill="white"/>
</g>
<g style="mix-blend-mode:soft-light">
<path d="M317.179 39.799C316.108 39.6291 315.05 39.407 313.991 39.1064C315.063 39.3547 316.121 39.5638 317.179 39.799Z" fill="white"/>
</g>
</g>
<g opacity="0.66">
<g style="mix-blend-mode:soft-light">
<path d="M106.062 85.4405C70.7035 83.6896 35.3975 81.5858 0 80.6711V91.9607C28.237 89.8178 56.7223 89.4389 64.4446 88.5242C78.4129 86.8647 92.2635 85.924 106.062 85.4405Z" fill="white"/>
</g>
</g>
</svg>
