<svg width="20" height="18" viewBox="0 0 20 18" fill="none" xmlns="http://www.w3.org/2000/svg">
<path d="M17.75 3.75H2.75C2.55109 3.75 2.36032 3.67098 2.21967 3.53033C2.07902 3.38968 2 3.19891 2 3C2 2.80109 2.07902 2.61032 2.21967 2.46967C2.36032 2.32902 2.55109 2.25 2.75 2.25H15.5C15.6989 2.25 15.8897 2.17098 16.0303 2.03033C16.171 1.88968 16.25 1.69891 16.25 1.5C16.25 1.30109 16.171 1.11032 16.0303 0.96967C15.8897 0.829018 15.6989 0.75 15.5 0.75H2.75C2.15326 0.75 1.58097 0.987053 1.15901 1.40901C0.737053 1.83097 0.5 2.40326 0.5 3V15C0.5 15.5967 0.737053 16.169 1.15901 16.591C1.58097 17.0129 2.15326 17.25 2.75 17.25H17.75C18.1478 17.25 18.5294 17.092 18.8107 16.8107C19.092 16.5294 19.25 16.1478 19.25 15.75V5.25C19.25 4.85218 19.092 4.47064 18.8107 4.18934C18.5294 3.90804 18.1478 3.75 17.75 3.75ZM14.375 11.25C14.1525 11.25 13.935 11.184 13.75 11.0604C13.565 10.9368 13.4208 10.7611 13.3356 10.5555C13.2505 10.35 13.2282 10.1238 13.2716 9.90552C13.315 9.68729 13.4222 9.48684 13.5795 9.32951C13.7368 9.17217 13.9373 9.06502 14.1555 9.02162C14.3738 8.97821 14.6 9.00049 14.8055 9.08564C15.0111 9.17078 15.1868 9.31498 15.3104 9.49998C15.434 9.68499 15.5 9.9025 15.5 10.125C15.5 10.4234 15.3815 10.7095 15.1705 10.9205C14.9595 11.1315 14.6734 11.25 14.375 11.25Z" fill="#0D6EFD"/>
</svg>
