<svg width="13" height="14" viewBox="0 0 13 14" fill="none" xmlns="http://www.w3.org/2000/svg">
<path d="M6.50032 4C6.89588 4 7.28256 3.8827 7.61146 3.66294C7.94036 3.44318 8.19671 3.13082 8.34808 2.76537C8.49946 2.39992 8.53906 1.99778 8.46189 1.60982C8.38472 1.22186 8.19424 0.865492 7.91453 0.585787C7.63483 0.306082 7.27846 0.115601 6.8905 0.0384303C6.50254 -0.0387401 6.10041 0.000866562 5.73495 0.152242C5.3695 0.303617 5.05715 0.559962 4.83738 0.88886C4.61762 1.21776 4.50032 1.60444 4.50032 2C4.50032 2.53043 4.71103 3.03914 5.08611 3.41421C5.46118 3.78929 5.96989 4 6.50032 4ZM6.50032 1C6.6981 1 6.89144 1.05865 7.05589 1.16853C7.22034 1.27841 7.34851 1.43459 7.4242 1.61732C7.49989 1.80004 7.51969 2.00111 7.48111 2.19509C7.44252 2.38907 7.34728 2.56726 7.20743 2.70711C7.06758 2.84696 6.88939 2.9422 6.69541 2.98079C6.50143 3.01937 6.30036 2.99957 6.11764 2.92388C5.93491 2.84819 5.77873 2.72002 5.66885 2.55557C5.55897 2.39112 5.50032 2.19778 5.50032 2C5.50032 1.73478 5.60568 1.48043 5.79321 1.29289C5.98075 1.10536 6.23511 1 6.50032 1ZM12.9291 7.2575C12.8953 7.31399 12.8506 7.36324 12.7978 7.40244C12.7449 7.44163 12.6848 7.47 12.6209 7.48591C12.557 7.50182 12.4906 7.50496 12.4255 7.49515C12.3604 7.48535 12.2979 7.46278 12.2416 7.42875C12.2197 7.41563 10.0472 6.14188 6.99907 6.01188V8.3125L10.8741 12.6706C10.9177 12.7199 10.9511 12.7772 10.9725 12.8394C10.9939 12.9016 11.0029 12.9674 10.9989 13.033C10.9949 13.0986 10.978 13.1628 10.9492 13.222C10.9204 13.2811 10.8802 13.3339 10.8309 13.3775C10.7817 13.4211 10.7244 13.4545 10.6622 13.476C10.6 13.4974 10.5342 13.5063 10.4686 13.5023C10.4029 13.4983 10.3387 13.4814 10.2796 13.4526C10.2205 13.4238 10.1677 13.3836 10.1241 13.3344L6.50032 9.25L2.87532 13.3319C2.83174 13.3811 2.77888 13.4213 2.71977 13.4501C2.66066 13.4789 2.59645 13.4958 2.53082 13.4998C2.46518 13.5038 2.39939 13.4949 2.33721 13.4735C2.27504 13.452 2.21769 13.4186 2.16845 13.375C2.1192 13.3314 2.07902 13.2786 2.0502 13.2195C2.02138 13.1603 2.00449 13.0961 2.00048 13.0305C1.99648 12.9649 2.00544 12.8991 2.02686 12.8369C2.04828 12.7747 2.08174 12.7174 2.12532 12.6681L6.00032 8.3125V6.01125C2.93782 6.14125 0.780321 7.415 0.757821 7.42875C0.701495 7.46335 0.638866 7.48645 0.573558 7.49669C0.508249 7.50693 0.441559 7.50412 0.377344 7.48842C0.313129 7.47272 0.252664 7.44444 0.199449 7.40522C0.146234 7.366 0.101325 7.31662 0.0673197 7.25993C0.0333143 7.20324 0.010888 7.14037 0.00133838 7.07495C-0.00821128 7.00954 -0.00469477 6.94288 0.0116846 6.87884C0.0280639 6.81479 0.0569808 6.75463 0.0967622 6.70184C0.136544 6.64904 0.1864 6.60465 0.243446 6.57125C0.350321 6.50688 2.90345 5 6.50032 5C10.0972 5 12.6503 6.50688 12.7578 6.57125C12.8141 6.60505 12.8632 6.64962 12.9023 6.70241C12.9414 6.7552 12.9697 6.81517 12.9856 6.8789C13.0015 6.94262 13.0047 7.00886 12.995 7.07382C12.9853 7.13879 12.9629 7.2012 12.9291 7.2575Z" fill="#343330"/>
</svg>
