<svg width="34" height="35" viewBox="0 0 34 35" fill="none" xmlns="http://www.w3.org/2000/svg">
<path opacity="0.15" d="M6.99609 31.7679C6.99609 31.906 7.25892 32.0427 7.76955 32.1702C8.28019 32.2977 9.02864 32.4136 9.97218 32.5112C10.9157 32.6088 12.0359 32.6862 13.2686 32.7391C14.5014 32.7919 15.8227 32.8191 17.1571 32.8191C18.4914 32.8191 19.8127 32.7919 21.0455 32.7391C22.2783 32.6862 23.3984 32.6088 24.342 32.5112C25.2855 32.4136 26.034 32.2977 26.5446 32.1702C27.0552 32.0427 27.3181 31.906 27.3181 31.7679C27.3181 31.6299 27.0552 31.4932 26.5446 31.3657C26.034 31.2382 25.2855 31.1223 24.342 31.0247C23.3984 30.9271 22.2783 30.8496 21.0455 30.7968C19.8127 30.744 18.4914 30.7168 17.1571 30.7168C15.8227 30.7168 14.5014 30.744 13.2686 30.7968C12.0359 30.8496 10.9157 30.9271 9.97218 31.0247C9.02864 31.1223 8.28019 31.2382 7.76955 31.3657C7.25892 31.4932 6.99609 31.6299 6.99609 31.7679V31.7679Z" fill="#45413C"/>
<path d="M12.8052 32.04L2.06963 21.3114C2.00343 21.2588 1.95215 21.1898 1.92092 21.1113C1.8897 21.0327 1.87961 20.9474 1.89166 20.8637C1.90371 20.78 1.93749 20.701 1.98962 20.6344C2.04175 20.5679 2.11041 20.5162 2.18876 20.4845L2.84747 20.2042C3.02775 20.1481 3.2208 20.1481 3.40107 20.2042L8.74785 21.3044L12.8263 25.3828L13.9405 30.7155C13.9772 30.9033 13.9602 31.0976 13.8914 31.2761L13.6251 31.9278C13.5937 32.0058 13.5423 32.074 13.476 32.1256C13.4097 32.1773 13.331 32.2104 13.2477 32.2218C13.1645 32.2332 13.0797 32.2224 13.002 32.1904C12.9243 32.1585 12.8564 32.1066 12.8052 32.04Z" fill="#4ACFFF"/>
<path d="M10.5979 24.93L11.4037 23.984L8.74785 21.3071L3.40107 20.2069C3.21585 20.1666 3.02272 20.1837 2.84747 20.2559L2.18876 20.5152C2.11041 20.5469 2.04175 20.5987 1.98962 20.6652C1.93749 20.7317 1.90371 20.8108 1.89166 20.8944C1.87961 20.9781 1.8897 21.0635 1.92092 21.142C1.95215 21.2206 2.00343 21.2896 2.06963 21.3421L2.77039 22.0429H2.85448C3.02973 21.9706 3.22285 21.9535 3.40808 21.9938L8.74785 23.059L10.5979 24.93Z" fill="#80DDFF"/>
<path d="M12.8059 25.3808L12.4486 25.0234L8.08984 27.3359L10.3323 29.5714C10.6764 29.5731 11.0189 29.5235 11.3484 29.4242C12.1174 29.1785 12.8313 28.7858 13.4506 28.2679L12.8059 25.3808Z" fill="#00B8F0"/>
<path d="M12.8052 32.04L2.06963 21.3114C2.00343 21.2588 1.95215 21.1898 1.92092 21.1113C1.8897 21.0327 1.87961 20.9474 1.89166 20.8637C1.90371 20.78 1.93749 20.701 1.98962 20.6344C2.04175 20.5679 2.11041 20.5162 2.18876 20.4845L2.84747 20.2042C3.02775 20.1481 3.2208 20.1481 3.40107 20.2042L8.74785 21.3044L12.8263 25.3828L13.9405 30.7155C13.9772 30.9033 13.9602 31.0976 13.8914 31.2761L13.6251 31.9278C13.5937 32.0058 13.5423 32.074 13.476 32.1256C13.4097 32.1773 13.331 32.2104 13.2477 32.2218C13.1645 32.2332 13.0797 32.2224 13.002 32.1904C12.9243 32.1585 12.8564 32.1066 12.8052 32.04Z" stroke="#45413C" stroke-width="1.2013" stroke-linecap="round" stroke-linejoin="round"/>
<path d="M28.6097 19.3832L29.9972 20.7706C30.1811 20.9546 30.2845 21.2041 30.2845 21.4643C30.2845 21.7245 30.1811 21.974 29.9972 22.158L26.1768 25.9784L23.4019 23.2036L27.2223 19.3832C27.3134 19.2921 27.4216 19.2198 27.5406 19.1705C27.6596 19.1212 27.7872 19.0958 27.916 19.0958C28.0448 19.0958 28.1724 19.1212 28.2915 19.1705C28.4105 19.2198 28.5186 19.2921 28.6097 19.3832V19.3832Z" fill="#C0DCEB" stroke="#45413C" stroke-width="1.2013" stroke-linecap="round" stroke-linejoin="round"/>
<path d="M13.3363 4.11754L14.7237 5.50497C14.9077 5.68896 15.0111 5.93849 15.0111 6.19869C15.0111 6.45888 14.9077 6.70842 14.7237 6.8924L10.9083 10.7078L8.13343 7.93297L11.9489 4.11754C12.1328 3.93356 12.3824 3.8302 12.6426 3.8302C12.9028 3.8302 13.1523 3.93356 13.3363 4.11754V4.11754Z" fill="#C0DCEB" stroke="#45413C" stroke-width="1.2013" stroke-linecap="round" stroke-linejoin="round"/>
<path d="M26.8622 29.1669L20.275 20.7578L13.3375 13.8133L4.92844 7.22617C4.79301 7.11998 4.68789 6.98002 4.62365 6.82036C4.5594 6.6607 4.53829 6.48694 4.56243 6.31654C4.58657 6.14614 4.65512 5.98508 4.76118 5.84954C4.86724 5.71401 5.0071 5.60876 5.1667 5.54436L6.50515 5.01178C6.86481 4.86453 7.26078 4.83031 7.64037 4.91367L18.5582 7.2472L26.8762 15.5792L29.1817 26.448C29.2538 26.8293 29.2149 27.2233 29.0695 27.5832L28.53 28.9216C28.4652 29.0787 28.3607 29.2163 28.2267 29.3209C28.0927 29.4255 27.9339 29.4935 27.7657 29.5182C27.5976 29.5429 27.4259 29.5235 27.2675 29.462C27.1091 29.4004 26.9694 29.2987 26.8622 29.1669Z" fill="#4ACFFF"/>
<path d="M26.2476 14.9492L26.8783 15.5729L27.6702 19.3079L22.2603 23.2952L20.2842 20.7795L19.7656 20.268L26.2476 14.9492Z" fill="#00B8F0"/>
<path d="M18.985 7.68205L17.6956 9.23072L7.67472 7.12845C7.29284 7.04452 6.89446 7.07873 6.53249 7.22655L5.44631 7.66102L4.95578 7.27561C4.82035 7.16941 4.71524 7.02946 4.65099 6.86979C4.58675 6.71013 4.56564 6.53637 4.58978 6.36597C4.61392 6.19557 4.68246 6.03451 4.78852 5.89898C4.89459 5.76344 5.03444 5.65819 5.19404 5.59379L6.53249 5.05421C6.89611 4.91333 7.29241 4.87929 7.67472 4.9561L18.5575 7.24057L18.985 7.68205Z" fill="#80DDFF"/>
<path d="M26.8622 29.1669L20.275 20.7578L13.3375 13.8133L4.92844 7.22617C4.79301 7.11998 4.68789 6.98002 4.62365 6.82036C4.5594 6.6607 4.53829 6.48694 4.56243 6.31654C4.58657 6.14614 4.65512 5.98508 4.76118 5.84954C4.86724 5.71401 5.0071 5.60876 5.1667 5.54436L6.50515 5.01178C6.86481 4.86453 7.26078 4.83031 7.64037 4.91367L18.5582 7.2472L26.8762 15.5792L29.1817 26.448C29.2538 26.8293 29.2149 27.2233 29.0695 27.5832L28.53 28.9216C28.4652 29.0787 28.3607 29.2163 28.2267 29.3209C28.0927 29.4255 27.9339 29.4935 27.7657 29.5182C27.5976 29.5429 27.4259 29.5235 27.2675 29.462C27.1091 29.4004 26.9694 29.2987 26.8622 29.1669Z" stroke="#45413C" stroke-width="1.2013" stroke-linecap="round" stroke-linejoin="round"/>
<path d="M6.6461 25.1117L19.3578 9.82115C19.6699 9.4467 20.0251 9.11035 20.416 8.81907C23.5274 6.12816 28.2224 4.22911 30.3457 6.3524C30.7108 6.72577 30.9738 7.18664 31.1095 7.69085C31.4319 6.12115 31.2707 4.69161 30.3457 3.76661C28.2434 1.66434 23.5274 3.54937 20.416 6.24028C20.0236 6.52707 19.6682 6.8613 19.3578 7.23536L6.6461 22.5469C6.21525 23.0497 5.92692 23.6587 5.81108 24.3106C5.69524 24.9625 5.75612 25.6335 5.98739 26.2539C6.14157 25.839 6.36423 25.4529 6.6461 25.1117V25.1117Z" fill="white"/>
<path d="M27.8792 13.702C30.5701 10.5907 32.4762 5.8956 30.3459 3.7653C28.2156 1.63499 23.5275 3.54806 20.4161 6.23897C20.0237 6.52576 19.6683 6.85999 19.358 7.23405L6.64624 22.5456C6.05445 23.2149 5.73424 24.0813 5.7485 24.9747C5.76277 25.868 6.11046 26.7237 6.72333 27.3738C7.37331 27.9862 8.2283 28.3342 9.12117 28.3497C10.014 28.3653 10.8806 28.0473 11.5515 27.4579L26.8841 14.7532C27.2562 14.4434 27.5903 14.0906 27.8792 13.702Z" fill="#E8F4FA"/>
<path d="M27.8792 13.702C30.5701 10.5907 32.4762 5.8956 30.3459 3.7653C28.2156 1.63499 23.5275 3.54806 20.4161 6.23897C20.0237 6.52576 19.6683 6.85999 19.358 7.23405L6.64624 22.5456C6.05445 23.2149 5.73424 24.0813 5.7485 24.9747C5.76277 25.868 6.11046 26.7237 6.72333 27.3738C7.37331 27.9862 8.2283 28.3342 9.12117 28.3497C10.014 28.3653 10.8806 28.0473 11.5515 27.4579L26.8841 14.7532C27.2562 14.4434 27.5903 14.0906 27.8792 13.702Z" stroke="#45413C" stroke-width="1.2013" stroke-linecap="round" stroke-linejoin="round"/>
<path d="M27.5478 6.56089C26.9612 5.98954 26.248 5.5648 25.4662 5.32125C24.6845 5.07771 23.8562 5.02224 23.0489 5.15937L22.8107 7.26165C22.8009 7.33761 22.809 7.41482 22.8344 7.48709C22.8598 7.55935 22.9017 7.62467 22.9569 7.6778C23.0121 7.73093 23.0789 7.7704 23.1521 7.79305C23.2253 7.8157 23.3028 7.8209 23.3783 7.80824C24.0791 7.68911 25.2213 7.69612 25.8099 8.28475C26.3986 8.87339 26.4126 10.0437 26.2864 10.7234C26.2738 10.7989 26.279 10.8764 26.3016 10.9496C26.3243 11.0227 26.3637 11.0896 26.4169 11.1448C26.47 11.1999 26.5353 11.2419 26.6076 11.2673C26.6799 11.2927 26.7571 11.3008 26.833 11.291L28.9353 11.0527C29.0703 10.2477 29.0151 9.42222 28.7742 8.64229C28.5333 7.86236 28.1133 7.14958 27.5478 6.56089V6.56089Z" fill="#00B8F0"/>
<path d="M23.0489 5.14494L22.8107 7.24721C22.8009 7.32318 22.809 7.40039 22.8344 7.47265C22.8598 7.54492 22.9017 7.61023 22.9569 7.66337C23.0121 7.7165 23.0789 7.75597 23.1521 7.77862C23.2253 7.80127 23.3028 7.80647 23.3783 7.7938C23.779 7.72797 24.1868 7.71618 24.5906 7.75877L27.4777 6.46236C26.8901 5.91763 26.185 5.51547 25.417 5.28701C24.649 5.05856 23.8387 5.00995 23.0489 5.14494Z" fill="#4ACFFF"/>
<path d="M27.5478 6.56089C26.9612 5.98954 26.248 5.5648 25.4662 5.32125C24.6845 5.07771 23.8562 5.02224 23.0489 5.15937L22.8107 7.26165C22.8009 7.33761 22.809 7.41482 22.8344 7.48709C22.8598 7.55935 22.9017 7.62467 22.9569 7.6778C23.0121 7.73093 23.0789 7.7704 23.1521 7.79305C23.2253 7.8157 23.3028 7.8209 23.3783 7.80824C24.0791 7.68911 25.2213 7.69612 25.8099 8.28475C26.3986 8.87339 26.4126 10.0437 26.2864 10.7234C26.2738 10.7989 26.279 10.8764 26.3016 10.9496C26.3243 11.0227 26.3637 11.0896 26.4169 11.1448C26.47 11.1999 26.5353 11.2419 26.6076 11.2673C26.6799 11.2927 26.7571 11.3008 26.833 11.291L28.9353 11.0527C29.0703 10.2477 29.0151 9.42222 28.7742 8.64229C28.5333 7.86236 28.1133 7.14958 27.5478 6.56089V6.56089Z" stroke="#45413C" stroke-width="1.2013" stroke-linecap="round" stroke-linejoin="round"/>
<path d="M27.881 13.703C28.6844 12.668 29.0925 11.3806 29.0321 10.0719C28.9717 8.76319 28.4469 7.51883 27.5517 6.56224C26.5967 5.666 25.3527 5.14089 24.0444 5.08177C22.7361 5.02265 21.4498 5.43343 20.418 6.23989" stroke="#45413C" stroke-width="1.2013" stroke-linecap="round" stroke-linejoin="round"/>
<path d="M6.73485 27.3722C6.64247 27.2804 6.56916 27.1712 6.51914 27.051C6.46911 26.9307 6.44336 26.8017 6.44336 26.6715C6.44336 26.5412 6.46911 26.4123 6.51914 26.292C6.56916 26.1717 6.64247 26.0625 6.73485 25.9707L10.554 22.1516C10.646 22.0596 10.7553 21.9866 10.8755 21.9368C10.9957 21.887 11.1246 21.8613 11.2547 21.8613C11.3849 21.8613 11.5137 21.887 11.634 21.9368C11.7542 21.9866 11.8635 22.0596 11.9555 22.1516C12.0475 22.2436 12.1205 22.3529 12.1703 22.4731C12.2201 22.5933 12.2458 22.7222 12.2458 22.8523C12.2458 22.9825 12.2201 23.1114 12.1703 23.2316C12.1205 23.3518 12.0475 23.4611 11.9555 23.5531L8.13637 27.3722C8.04454 27.4646 7.93536 27.5379 7.81509 27.5879C7.69483 27.638 7.56586 27.6637 7.43561 27.6637C7.30536 27.6637 7.17639 27.638 7.05613 27.5879C6.93586 27.5379 6.82668 27.4646 6.73485 27.3722V27.3722Z" fill="#4ACFFF" stroke="#45413C" stroke-width="1.2013" stroke-linecap="round" stroke-linejoin="round"/>
</svg>
