<svg width="20" height="21" viewBox="0 0 20 21" fill="none" xmlns="http://www.w3.org/2000/svg">
<path d="M10.625 3.35742H3.75C3.41848 3.35742 3.10053 3.48912 2.86611 3.72354C2.63169 3.95796 2.5 4.2759 2.5 4.60742V17.1074C2.5 17.4389 2.63169 17.7569 2.86611 17.9913C3.10053 18.2257 3.41848 18.3574 3.75 18.3574H16.25C16.5815 18.3574 16.8995 18.2257 17.1339 17.9913C17.3683 17.7569 17.5 17.4389 17.5 17.1074V10.2324C17.5 10.0667 17.4341 9.90769 17.3169 9.79048C17.1997 9.67327 17.0408 9.60742 16.875 9.60742C16.7092 9.60742 16.5503 9.67327 16.4331 9.79048C16.3158 9.90769 16.25 10.0667 16.25 10.2324V17.1074H3.75V4.60742H10.625C10.7908 4.60742 10.9497 4.54157 11.0669 4.42436C11.1841 4.30715 11.25 4.14818 11.25 3.98242C11.25 3.81666 11.1841 3.65769 11.0669 3.54048C10.9497 3.42327 10.7908 3.35742 10.625 3.35742ZM14.5578 2.91523L7.05781 10.4152C6.99979 10.4733 6.95378 10.5423 6.92241 10.6181C6.89104 10.694 6.87493 10.7753 6.875 10.8574V13.3574C6.875 13.5232 6.94084 13.6822 7.05805 13.7994C7.17526 13.9166 7.33424 13.9824 7.5 13.9824H10C10.0821 13.9825 10.1634 13.9664 10.2393 13.935C10.3151 13.9036 10.3841 13.8576 10.4422 13.7996L17.9422 6.29961C18.0003 6.24156 18.0464 6.17263 18.0778 6.09676C18.1093 6.02088 18.1255 5.93956 18.1255 5.85742C18.1255 5.77529 18.1093 5.69396 18.0778 5.61808C18.0464 5.54221 18.0003 5.47328 17.9422 5.41523L15.4422 2.91523C15.3841 2.85712 15.3152 2.81102 15.2393 2.77957C15.1635 2.74812 15.0821 2.73193 15 2.73193C14.9179 2.73193 14.8365 2.74812 14.7607 2.77957C14.6848 2.81102 14.6159 2.85712 14.5578 2.91523ZM15 4.24336L16.6164 5.85742L15.625 6.84883L14.0086 5.23242L15 4.24336Z" fill="#0D6EFD"/>
</svg>
