<svg width="16" height="16" viewBox="0 0 16 16" fill="none" xmlns="http://www.w3.org/2000/svg">
<path d="M6.5 5.5V11.5C6.5 11.6326 6.44732 11.7598 6.35355 11.8536C6.25979 11.9473 6.13261 12 6 12C5.86739 12 5.74021 11.9473 5.64645 11.8536C5.55268 11.7598 5.5 11.6326 5.5 11.5V5.5C5.5 5.36739 5.55268 5.24021 5.64645 5.14645C5.74021 5.05268 5.86739 5 6 5C6.13261 5 6.25979 5.05268 6.35355 5.14645C6.44732 5.24021 6.5 5.36739 6.5 5.5ZM8 5C7.86739 5 7.74021 5.05268 7.64645 5.14645C7.55268 5.24021 7.5 5.36739 7.5 5.5V11.5C7.5 11.6326 7.55268 11.7598 7.64645 11.8536C7.74021 11.9473 7.86739 12 8 12C8.13261 12 8.25979 11.9473 8.35355 11.8536C8.44732 11.7598 8.5 11.6326 8.5 11.5V5.5C8.5 5.36739 8.44732 5.24021 8.35355 5.14645C8.25979 5.05268 8.13261 5 8 5ZM10 5C9.86739 5 9.74021 5.05268 9.64645 5.14645C9.55268 5.24021 9.5 5.36739 9.5 5.5V11.5C9.5 11.6326 9.55268 11.7598 9.64645 11.8536C9.74021 11.9473 9.86739 12 10 12C10.1326 12 10.2598 11.9473 10.3536 11.8536C10.4473 11.7598 10.5 11.6326 10.5 11.5V5.5C10.5 5.36739 10.4473 5.24021 10.3536 5.14645C10.2598 5.05268 10.1326 5 10 5ZM13 4V13C13 13.2652 12.8946 13.5196 12.7071 13.7071C12.5196 13.8946 12.2652 14 12 14H11V15C11 15.1326 10.9473 15.2598 10.8536 15.3536C10.7598 15.4473 10.6326 15.5 10.5 15.5C10.3674 15.5 10.2402 15.4473 10.1464 15.3536C10.0527 15.2598 10 15.1326 10 15V14H6V15C6 15.1326 5.94732 15.2598 5.85355 15.3536C5.75979 15.4473 5.63261 15.5 5.5 15.5C5.36739 15.5 5.24021 15.4473 5.14645 15.3536C5.05268 15.2598 5 15.1326 5 15V14H4C3.73478 14 3.48043 13.8946 3.29289 13.7071C3.10536 13.5196 3 13.2652 3 13V4C3 3.73478 3.10536 3.48043 3.29289 3.29289C3.48043 3.10536 3.73478 3 4 3H5.5V1.5C5.5 1.10218 5.65804 0.720644 5.93934 0.43934C6.22064 0.158035 6.60218 0 7 0L9 0C9.39782 0 9.77936 0.158035 10.0607 0.43934C10.342 0.720644 10.5 1.10218 10.5 1.5V3H12C12.2652 3 12.5196 3.10536 12.7071 3.29289C12.8946 3.48043 13 3.73478 13 4ZM6.5 3H9.5V1.5C9.5 1.36739 9.44732 1.24021 9.35355 1.14645C9.25979 1.05268 9.13261 1 9 1H7C6.86739 1 6.74021 1.05268 6.64645 1.14645C6.55268 1.24021 6.5 1.36739 6.5 1.5V3ZM12 13V4H4V13H12Z" fill="#343330"/>
</svg>
