<svg width="30" height="30" viewBox="0 0 30 30" fill="none" xmlns="http://www.w3.org/2000/svg">
<rect width="30" height="30" rx="4" fill="#F0F2F5"/>
<path d="M19.2473 18.6282C19.2879 18.6689 19.3202 18.7171 19.3422 18.7702C19.3642 18.8233 19.3755 18.8803 19.3755 18.9377C19.3755 18.9952 19.3642 19.0522 19.3422 19.1053C19.3202 19.1584 19.2879 19.2066 19.2473 19.2473C19.2066 19.2879 19.1584 19.3202 19.1053 19.3422C19.0522 19.3642 18.9952 19.3755 18.9377 19.3755C18.8803 19.3755 18.8233 19.3642 18.7702 19.3422C18.7171 19.3202 18.6689 19.2879 18.6282 19.2473L15.0002 15.6188L11.3723 19.2473C11.2902 19.3294 11.1788 19.3755 11.0627 19.3755C10.9466 19.3755 10.8353 19.3294 10.7532 19.2473C10.6711 19.1652 10.625 19.0538 10.625 18.9377C10.625 18.8216 10.6711 18.7103 10.7532 18.6282L14.3817 15.0002L10.7532 11.3723C10.6711 11.2902 10.625 11.1788 10.625 11.0627C10.625 10.9466 10.6711 10.8353 10.7532 10.7532C10.8353 10.6711 10.9466 10.625 11.0627 10.625C11.1788 10.625 11.2902 10.6711 11.3723 10.7532L15.0002 14.3817L18.6282 10.7532C18.7103 10.6711 18.8216 10.625 18.9377 10.625C19.0538 10.625 19.1652 10.6711 19.2473 10.7532C19.3294 10.8353 19.3755 10.9466 19.3755 11.0627C19.3755 11.1788 19.3294 11.2902 19.2473 11.3723L15.6188 15.0002L19.2473 18.6282Z" fill="#1D2433"/>
</svg>
