<svg width="17" height="16" viewBox="0 0 17 16" fill="none" xmlns="http://www.w3.org/2000/svg">
<path d="M11 6.5C11 6.00554 10.8534 5.5222 10.5787 5.11107C10.304 4.69995 9.91352 4.37952 9.45671 4.1903C8.99989 4.00108 8.49723 3.95157 8.01227 4.04803C7.52732 4.1445 7.08186 4.3826 6.73223 4.73223C6.3826 5.08186 6.1445 5.52732 6.04804 6.01227C5.95157 6.49722 6.00108 6.99989 6.1903 7.45671C6.37952 7.91352 6.69995 8.30397 7.11107 8.57867C7.5222 8.85338 8.00555 9 8.5 9C9.16304 9 9.79893 8.73661 10.2678 8.26777C10.7366 7.79892 11 7.16304 11 6.5ZM7 6.5C7 6.20333 7.08797 5.91332 7.2528 5.66664C7.41762 5.41997 7.65189 5.22771 7.92597 5.11418C8.20006 5.00065 8.50166 4.97094 8.79264 5.02882C9.08361 5.0867 9.35088 5.22956 9.56066 5.43934C9.77044 5.64912 9.9133 5.91639 9.97118 6.20736C10.0291 6.49833 9.99935 6.79993 9.88582 7.07402C9.77229 7.34811 9.58003 7.58238 9.33335 7.7472C9.08668 7.91202 8.79667 8 8.5 8C8.10218 8 7.72064 7.84196 7.43934 7.56066C7.15804 7.27935 7 6.89782 7 6.5ZM14.5 12.5H9V11.475C10.2763 11.3467 11.4545 10.7328 12.2909 9.76026C13.1273 8.7877 13.5579 7.53089 13.4937 6.24975C13.4295 4.96861 12.8754 3.76115 11.9459 2.87711C11.0164 1.99306 9.78275 1.50006 8.5 1.50006C7.21725 1.50006 5.98357 1.99306 5.0541 2.87711C4.12463 3.76115 3.57049 4.96861 3.50627 6.24975C3.44205 7.53089 3.87268 8.7877 4.70908 9.76026C5.54548 10.7328 6.72368 11.3467 8 11.475V12.5H2.5C2.36739 12.5 2.24021 12.5527 2.14645 12.6464C2.05268 12.7402 2 12.8674 2 13C2 13.1326 2.05268 13.2598 2.14645 13.3536C2.24021 13.4473 2.36739 13.5 2.5 13.5H14.5C14.6326 13.5 14.7598 13.4473 14.8536 13.3536C14.9473 13.2598 15 13.1326 15 13C15 12.8674 14.9473 12.7402 14.8536 12.6464C14.7598 12.5527 14.6326 12.5 14.5 12.5ZM4.5 6.5C4.5 5.70887 4.7346 4.93551 5.17412 4.27772C5.61365 3.61992 6.23836 3.10723 6.96927 2.80448C7.70017 2.50173 8.50444 2.42252 9.28036 2.57686C10.0563 2.7312 10.769 3.11216 11.3284 3.67157C11.8878 4.23098 12.2688 4.94371 12.4231 5.71964C12.5775 6.49556 12.4983 7.29983 12.1955 8.03073C11.8928 8.76164 11.3801 9.38635 10.7223 9.82588C10.0645 10.2654 9.29113 10.5 8.5 10.5C7.43949 10.4988 6.42275 10.077 5.67285 9.32715C4.92296 8.57725 4.50116 7.56051 4.5 6.5Z" fill="white"/>
</svg>
