<svg width="20" height="20" viewBox="0 0 20 20" fill="none" xmlns="http://www.w3.org/2000/svg">
<path d="M13.1247 4.37501C13.1247 4.20925 13.1906 4.05028 13.3078 3.93307C13.425 3.81586 13.584 3.75001 13.7497 3.75001H14.9997V2.50001C14.9997 2.33425 15.0656 2.17528 15.1828 2.05807C15.3 1.94086 15.459 1.87501 15.6247 1.87501C15.7905 1.87501 15.9494 1.94086 16.0667 2.05807C16.1839 2.17528 16.2497 2.33425 16.2497 2.50001V3.75001H17.4997C17.6655 3.75001 17.8244 3.81586 17.9417 3.93307C18.0589 4.05028 18.1247 4.20925 18.1247 4.37501C18.1247 4.54077 18.0589 4.69974 17.9417 4.81695C17.8244 4.93416 17.6655 5.00001 17.4997 5.00001H16.2497V6.25001C16.2497 6.41577 16.1839 6.57474 16.0667 6.69195C15.9494 6.80916 15.7905 6.87501 15.6247 6.87501C15.459 6.87501 15.3 6.80916 15.1828 6.69195C15.0656 6.57474 14.9997 6.41577 14.9997 6.25001V5.00001H13.7497C13.584 5.00001 13.425 4.93416 13.3078 4.81695C13.1906 4.69974 13.1247 4.54077 13.1247 4.37501ZM18.0122 8.64688C18.2978 10.3442 18.0365 12.0883 17.2661 13.6275C16.4958 15.1666 15.2562 16.4211 13.7264 17.2099C12.1966 17.9986 10.4557 18.2807 8.75514 18.0156C7.05453 17.7504 5.48219 16.9516 4.26514 15.7346C3.0481 14.5175 2.24932 12.9452 1.98415 11.2446C1.71898 9.54397 2.00113 7.80309 2.78986 6.27329C3.57859 4.74348 4.8331 3.50393 6.37224 2.73358C7.91139 1.96324 9.65553 1.70197 11.3528 1.98751C11.5151 2.0162 11.6594 2.10779 11.7545 2.24236C11.8495 2.37693 11.8876 2.54359 11.8604 2.70609C11.8332 2.86859 11.743 3.01378 11.6093 3.11008C11.4756 3.20638 11.3093 3.246 11.1466 3.22032C10.1608 3.05448 9.15063 3.10546 8.1865 3.3697C7.22237 3.63394 6.3274 4.10511 5.56387 4.7504C4.80035 5.39569 4.18661 6.19961 3.76537 7.10622C3.34413 8.01282 3.12551 9.00032 3.12472 10C3.12323 11.683 3.74178 13.3075 4.86222 14.5633C5.55927 13.5532 6.53942 12.7717 7.6794 12.3172C7.06705 11.8349 6.62021 11.1737 6.40102 10.4257C6.18184 9.67767 6.2012 8.87992 6.45642 8.1434C6.71165 7.40688 7.19004 6.7682 7.82508 6.31617C8.46011 5.86415 9.22023 5.62124 9.99972 5.62124C10.7792 5.62124 11.5393 5.86415 12.1744 6.31617C12.8094 6.7682 13.2878 7.40688 13.543 8.1434C13.7982 8.87992 13.8176 9.67767 13.5984 10.4257C13.3792 11.1737 12.9324 11.8349 12.32 12.3172C13.46 12.7717 14.4402 13.5532 15.1372 14.5633C16.2576 13.3075 16.8762 11.683 16.8747 10C16.8747 9.61574 16.8429 9.23213 16.7794 8.85313C16.765 8.77183 16.7669 8.68849 16.7849 8.60791C16.8029 8.52734 16.8367 8.45113 16.8844 8.3837C16.932 8.31626 16.9925 8.25893 17.0624 8.21502C17.1324 8.17111 17.2103 8.14149 17.2917 8.12786C17.3732 8.11424 17.4565 8.11688 17.5369 8.13565C17.6173 8.15441 17.6932 8.18892 17.7602 8.23717C17.8272 8.28543 17.8839 8.34649 17.9272 8.41681C17.9704 8.48713 17.9993 8.56533 18.0122 8.64688ZM9.99972 11.875C10.4942 11.875 10.9775 11.7284 11.3886 11.4537C11.7998 11.179 12.1202 10.7885 12.3094 10.3317C12.4986 9.8749 12.5481 9.37224 12.4517 8.88728C12.3552 8.40233 12.1171 7.95687 11.7675 7.60724C11.4179 7.25761 10.9724 7.01951 10.4874 6.92305C10.0025 6.82658 9.49982 6.87609 9.04301 7.06531C8.58619 7.25453 8.19575 7.57496 7.92104 7.98608C7.64634 8.39721 7.49972 8.88056 7.49972 9.37501C7.49972 10.0381 7.76311 10.6739 8.23195 11.1428C8.70079 11.6116 9.33667 11.875 9.99972 11.875ZM9.99972 16.875C11.5258 16.8765 13.0085 16.3678 14.2122 15.4297C13.7601 14.7226 13.1372 14.1406 12.401 13.7376C11.6648 13.3345 10.839 13.1232 9.99972 13.1232C9.1604 13.1232 8.33459 13.3345 7.5984 13.7376C6.86222 14.1406 6.23935 14.7226 5.78722 15.4297C6.99088 16.3678 8.47365 16.8765 9.99972 16.875Z" fill="#343330"/>
</svg>
