<?xml version="1.0" encoding="UTF-8"?>
<svg xmlns="http://www.w3.org/2000/svg" xmlns:xlink="http://www.w3.org/1999/xlink" width="29px" height="29px" viewBox="0 0 29 28" version="1.1">
<g id="surface1">
<path style=" stroke:none;fill-rule:nonzero;fill:rgb(0%,0%,0%);fill-opacity:1;" d="M 20.785156 25.199219 L 19.9375 25.199219 L 20.300781 23.617188 C 20.621094 22.222656 20.785156 20.792969 20.785156 19.367188 C 20.785156 18.253906 20.671875 17.132812 20.457031 16.042969 C 19.535156 11.351562 17.113281 7.339844 13.640625 4.75 C 12.640625 4 11.464844 3.398438 10.148438 2.945312 L 10.148438 0.464844 C 10.148438 0.210938 9.933594 0 9.667969 0 C 9.398438 0 9.183594 0.210938 9.183594 0.464844 L 9.183594 25.199219 L 8.214844 25.199219 C 7.949219 25.199219 7.734375 25.410156 7.734375 25.667969 L 7.734375 27.535156 C 7.734375 27.789062 7.949219 28 8.214844 28 L 20.785156 28 C 21.050781 28 21.265625 27.789062 21.265625 27.535156 L 21.265625 25.667969 C 21.265625 25.410156 21.050781 25.199219 20.785156 25.199219 Z M 11.601562 9.332031 C 11.601562 9.074219 11.816406 8.867188 12.082031 8.867188 L 14.300781 8.867188 C 14.449219 8.867188 14.589844 8.933594 14.679688 9.046875 C 15.289062 9.792969 15.832031 10.609375 16.300781 11.480469 C 16.300781 11.480469 16.304688 11.484375 16.304688 11.488281 C 16.703125 12.226562 17.046875 13.003906 17.335938 13.8125 C 17.339844 13.820312 17.34375 13.828125 17.347656 13.835938 C 17.628906 14.613281 17.863281 15.417969 18.035156 16.246094 C 18.21875 17.109375 18.367188 18.613281 18.367188 19.597656 C 18.367188 20.558594 18.265625 21.523438 18.070312 22.464844 L 17.507812 25.199219 L 16.519531 25.199219 L 16.808594 23.800781 L 12.566406 23.800781 L 12.566406 25.199219 L 11.601562 25.199219 Z M 20.300781 27.066406 L 8.699219 27.066406 L 8.699219 26.132812 L 20.300781 26.132812 Z M 20.300781 27.066406 "/>
<path style=" stroke:none;fill-rule:nonzero;fill:rgb(0%,0%,0%);fill-opacity:1;" d="M 12.566406 22.867188 L 17.003906 22.867188 L 17.125 22.285156 C 17.179688 22.011719 17.226562 21.742188 17.265625 21.46875 L 12.566406 21.46875 Z M 12.566406 22.867188 "/>
<path style=" stroke:none;fill-rule:nonzero;fill:rgb(0%,0%,0%);fill-opacity:1;" d="M 17.160156 16.804688 L 12.566406 16.800781 L 12.566406 18.199219 L 17.328125 18.199219 C 17.285156 17.707031 17.226562 17.214844 17.160156 16.804688 Z M 17.160156 16.804688 "/>
<path style=" stroke:none;fill-rule:nonzero;fill:rgb(0%,0%,0%);fill-opacity:1;" d="M 12.566406 20.53125 L 17.363281 20.53125 C 17.386719 20.222656 17.398438 19.910156 17.398438 19.597656 C 17.398438 19.453125 17.394531 19.296875 17.390625 19.132812 L 12.566406 19.132812 Z M 12.566406 20.53125 "/>
<path style=" stroke:none;fill-rule:nonzero;fill:rgb(0%,0%,0%);fill-opacity:1;" d="M 16.550781 14.464844 L 12.566406 14.464844 L 12.566406 15.867188 L 16.957031 15.871094 C 16.839844 15.394531 16.707031 14.925781 16.550781 14.464844 Z M 16.550781 14.464844 "/>
<path style=" stroke:none;fill-rule:nonzero;fill:rgb(0%,0%,0%);fill-opacity:1;" d="M 14.0625 9.800781 L 12.566406 9.800781 L 12.566406 11.199219 L 15.03125 11.199219 C 14.734375 10.710938 14.410156 10.242188 14.0625 9.800781 Z M 14.0625 9.800781 "/>
<path style=" stroke:none;fill-rule:nonzero;fill:rgb(0%,0%,0%);fill-opacity:1;" d="M 15.558594 12.132812 L 12.566406 12.132812 L 12.566406 13.535156 L 16.203125 13.535156 C 16.007812 13.054688 15.796875 12.585938 15.558594 12.132812 Z M 15.558594 12.132812 "/>
</g>
</svg>
