<?xml version="1.0" encoding="iso-8859-1"?>
<!-- Uploaded to: SVG Repo, www.svgrepo.com, Generator: SVG Repo Mixer Tools -->
<svg fill="#000000" height="800px" width="800px" version="1.1" id="Layer_1" xmlns="http://www.w3.org/2000/svg" xmlns:xlink="http://www.w3.org/1999/xlink" 
	 viewBox="0 0 512 512" xml:space="preserve">
<g>
	<g>
		<g>
			<path d="M366.933,460.8h-14.967l6.434-28.945c5.666-25.464,8.533-51.61,8.533-77.713c0-20.361-1.937-40.832-5.743-60.817
				c-16.324-85.751-59.076-159.087-120.371-206.498c-17.655-13.653-38.434-24.653-61.619-32.998V8.533
				c0-4.71-3.823-8.533-8.533-8.533c-4.71,0-8.533,3.823-8.533,8.533v51.2V460.8h-17.067c-4.71,0-8.533,3.823-8.533,8.533v34.133
				c0,4.71,3.823,8.533,8.533,8.533h221.867c4.71,0,8.533-3.823,8.533-8.533v-34.133C375.467,464.623,371.644,460.8,366.933,460.8z
				 M204.8,170.667c0-4.71,3.823-8.533,8.533-8.533h39.142c2.628,0,5.103,1.212,6.724,3.277
				c10.718,13.696,20.284,28.621,28.595,44.51c0.017,0.043,0.051,0.077,0.068,0.119c7.049,13.5,13.073,27.759,18.227,42.496
				c0.068,0.145,0.102,0.299,0.162,0.444c4.966,14.259,9.122,28.971,12.194,44.1c3.208,15.812,5.82,43.307,5.82,61.278
				c0,17.587-1.749,35.234-5.197,52.463l-9.993,49.98h-17.408l5.12-25.6h-74.923v25.6H204.8V170.667z M358.4,494.933H153.6v-17.067
				h17.067h42.667h85.333h42.667H358.4V494.933z"/>
			<path d="M221.868,418.138h78.336l2.133-10.667c0.99-4.941,1.775-9.933,2.466-14.933h-82.935V418.138z"/>
			<path d="M302.938,307.301l-81.075-0.094v25.591h84.087C305.19,323.813,304.149,314.819,302.938,307.301z"/>
			<path d="M221.867,375.463h84.676c0.393-5.7,0.657-11.401,0.657-17.109c0-2.628-0.077-5.513-0.188-8.491h-85.146V375.463z"/>
			<path d="M292.204,264.533h-70.34v25.609l77.5,0.085C297.299,281.515,294.944,272.93,292.204,264.533z"/>
			<path d="M248.279,179.2h-26.411v25.6h43.52C260.106,195.874,254.415,187.298,248.279,179.2z"/>
			<path d="M274.712,221.867h-52.847v25.6h64.205C282.639,238.694,278.876,230.135,274.712,221.867z"/>
		</g>
	</g>
</g>
</svg>