<svg width="16" height="16" viewBox="0 0 16 16" fill="none" xmlns="http://www.w3.org/2000/svg">
<path d="M12.8331 5.97937L11.4724 1.35875C11.4419 1.25523 11.3788 1.16435 11.2924 1.09969C11.206 1.03503 11.101 1.00006 10.9931 1H5.00681C4.89889 1.00006 4.79389 1.03503 4.70749 1.09969C4.62108 1.16435 4.55792 1.25523 4.52744 1.35875L3.16681 5.97937C2.95334 6.6876 2.94216 7.4414 3.13456 8.15564C3.32695 8.86987 3.71524 9.51608 4.25556 10.0212C5.14437 10.8548 6.28638 11.3671 7.49994 11.4769V14H5.49994C5.36733 14 5.24015 14.0527 5.14638 14.1464C5.05261 14.2402 4.99994 14.3674 4.99994 14.5C4.99994 14.6326 5.05261 14.7598 5.14638 14.8536C5.24015 14.9473 5.36733 15 5.49994 15H10.4999C10.6325 15 10.7597 14.9473 10.8535 14.8536C10.9473 14.7598 10.9999 14.6326 10.9999 14.5C10.9999 14.3674 10.9473 14.2402 10.8535 14.1464C10.7597 14.0527 10.6325 14 10.4999 14H8.49994V11.4769C9.71346 11.3671 10.8554 10.8547 11.7443 10.0212C12.2846 9.51608 12.6729 8.86987 12.8653 8.15564C13.0577 7.4414 13.0465 6.6876 12.8331 5.97937ZM5.38056 2H10.6193L11.8749 6.26188C11.8806 6.28063 11.8856 6.29937 11.8906 6.31812C10.5518 6.79812 9.04431 6.21812 8.22618 5.80375C6.65181 5.00688 5.40181 4.90563 4.47994 5.05813L5.38056 2ZM11.0624 9.29062C10.2322 10.068 9.13734 10.5006 7.99994 10.5006C6.86253 10.5006 5.76769 10.068 4.93744 9.29062C4.53311 8.91172 4.24277 8.42733 4.0992 7.89214C3.95562 7.35694 3.96454 6.79227 4.12494 6.26188L4.15306 6.16687C4.90306 5.91313 6.09493 5.84562 7.77368 6.69625C8.47056 7.04938 9.59618 7.49937 10.8006 7.49937C11.2031 7.50134 11.6039 7.44663 11.9912 7.33687C11.9402 8.08223 11.6082 8.78048 11.0624 9.29062Z" fill="#343330"/>
</svg>
