<svg width="19" height="19" viewBox="0 0 19 19" fill="none" xmlns="http://www.w3.org/2000/svg">
<path d="M18.5 8.83317V17.5004C18.5 17.8982 18.342 18.2797 18.0607 18.561C17.7794 18.8423 17.3978 19.0004 17 19.0004H13.25C12.8522 19.0004 12.4706 18.8423 12.1893 18.561C11.908 18.2797 11.75 17.8982 11.75 17.5004V13.7504C11.75 13.5514 11.671 13.3607 11.5303 13.22C11.3897 13.0794 11.1989 13.0004 11 13.0004H8C7.80109 13.0004 7.61032 13.0794 7.46967 13.22C7.32902 13.3607 7.25 13.5514 7.25 13.7504V17.5004C7.25 17.8982 7.09196 18.2797 6.81066 18.561C6.52936 18.8423 6.14782 19.0004 5.75 19.0004H2C1.60218 19.0004 1.22064 18.8423 0.93934 18.561C0.658035 18.2797 0.5 17.8982 0.5 17.5004V8.83317C0.499968 8.62557 0.543031 8.42022 0.626461 8.23013C0.709891 8.04003 0.831873 7.86932 0.984687 7.7288L8.48469 0.652546L8.495 0.642234C8.77113 0.391109 9.13097 0.251953 9.50422 0.251953C9.87747 0.251953 10.2373 0.391109 10.5134 0.642234C10.5166 0.645902 10.5201 0.649348 10.5238 0.652546L18.0238 7.7288C18.175 7.87006 18.2954 8.0411 18.3774 8.23116C18.4594 8.42122 18.5011 8.62619 18.5 8.83317Z" fill="#0D6EFD"/>
</svg>
