<svg width="158" height="40" viewBox="0 0 158 40" fill="none" xmlns="http://www.w3.org/2000/svg">
<rect width="158" height="40" rx="8" fill="white"/>
<g clip-path="url(#clip0_202_6914)">
<path d="M51 26H57V24H51V26ZM51 14V16H69V14H51ZM51 21H63V19H51V21Z" fill="black" fill-opacity="0.32"/>
</g>
<path d="M84.47 25.105C83.78 25.105 83.16 24.985 82.61 24.745C82.07 24.495 81.645 24.155 81.335 23.725C81.025 23.285 80.865 22.78 80.855 22.21H82.31C82.36 22.7 82.56 23.115 82.91 23.455C83.27 23.785 83.79 23.95 84.47 23.95C85.12 23.95 85.63 23.79 86 23.47C86.38 23.14 86.57 22.72 86.57 22.21C86.57 21.81 86.46 21.485 86.24 21.235C86.02 20.985 85.745 20.795 85.415 20.665C85.085 20.535 84.64 20.395 84.08 20.245C83.39 20.065 82.835 19.885 82.415 19.705C82.005 19.525 81.65 19.245 81.35 18.865C81.06 18.475 80.915 17.955 80.915 17.305C80.915 16.735 81.06 16.23 81.35 15.79C81.64 15.35 82.045 15.01 82.565 14.77C83.095 14.53 83.7 14.41 84.38 14.41C85.36 14.41 86.16 14.655 86.78 15.145C87.41 15.635 87.765 16.285 87.845 17.095H86.345C86.295 16.695 86.085 16.345 85.715 16.045C85.345 15.735 84.855 15.58 84.245 15.58C83.675 15.58 83.21 15.73 82.85 16.03C82.49 16.32 82.31 16.73 82.31 17.26C82.31 17.64 82.415 17.95 82.625 18.19C82.845 18.43 83.11 18.615 83.42 18.745C83.74 18.865 84.185 19.005 84.755 19.165C85.445 19.355 86 19.545 86.42 19.735C86.84 19.915 87.2 20.2 87.5 20.59C87.8 20.97 87.95 21.49 87.95 22.15C87.95 22.66 87.815 23.14 87.545 23.59C87.275 24.04 86.875 24.405 86.345 24.685C85.815 24.965 85.19 25.105 84.47 25.105ZM93.6937 25.135C92.9237 25.135 92.2237 24.96 91.5937 24.61C90.9737 24.26 90.4837 23.765 90.1237 23.125C89.7737 22.475 89.5987 21.725 89.5987 20.875C89.5987 20.035 89.7787 19.295 90.1387 18.655C90.5087 18.005 91.0087 17.51 91.6387 17.17C92.2687 16.82 92.9737 16.645 93.7537 16.645C94.5337 16.645 95.2387 16.82 95.8687 17.17C96.4987 17.51 96.9937 18 97.3537 18.64C97.7237 19.28 97.9087 20.025 97.9087 20.875C97.9087 21.725 97.7187 22.475 97.3387 23.125C96.9687 23.765 96.4637 24.26 95.8237 24.61C95.1837 24.96 94.4737 25.135 93.6937 25.135ZM93.6937 23.935C94.1837 23.935 94.6437 23.82 95.0737 23.59C95.5037 23.36 95.8487 23.015 96.1087 22.555C96.3787 22.095 96.5137 21.535 96.5137 20.875C96.5137 20.215 96.3837 19.655 96.1237 19.195C95.8637 18.735 95.5237 18.395 95.1037 18.175C94.6837 17.945 94.2287 17.83 93.7387 17.83C93.2387 17.83 92.7787 17.945 92.3587 18.175C91.9487 18.395 91.6187 18.735 91.3687 19.195C91.1187 19.655 90.9937 20.215 90.9937 20.875C90.9937 21.545 91.1137 22.11 91.3537 22.57C91.6037 23.03 91.9337 23.375 92.3437 23.605C92.7537 23.825 93.2037 23.935 93.6937 23.935ZM101.218 18.115C101.458 17.645 101.798 17.28 102.238 17.02C102.688 16.76 103.233 16.63 103.873 16.63V18.04H103.513C101.983 18.04 101.218 18.87 101.218 20.53V25H99.8534V16.78H101.218V18.115ZM107.264 17.905V22.75C107.264 23.15 107.349 23.435 107.519 23.605C107.689 23.765 107.984 23.845 108.404 23.845H109.409V25H108.179C107.419 25 106.849 24.825 106.469 24.475C106.089 24.125 105.899 23.55 105.899 22.75V17.905H104.834V16.78H105.899V14.71H107.264V16.78H109.409V17.905H107.264Z" fill="black" fill-opacity="0.32"/>
<rect x="0.5" y="0.5" width="157" height="39" rx="7.5" stroke="black" stroke-opacity="0.2"/>
<defs>
<clipPath id="clip0_202_6914">
<rect width="24" height="24" fill="white" transform="translate(48 8)"/>
</clipPath>
</defs>
</svg>
