<svg width="16" height="16" viewBox="0 0 16 16" fill="none" xmlns="http://www.w3.org/2000/svg">
<path d="M13.9999 13.5C13.9999 13.6326 13.9473 13.7598 13.8535 13.8536C13.7597 13.9473 13.6326 14 13.4999 14H4.49995C4.36734 14 4.24016 13.9473 4.1464 13.8536C4.05263 13.7598 3.99995 13.6326 3.99995 13.5C3.99995 13.3674 4.05263 13.2402 4.1464 13.1464C4.24016 13.0527 4.36734 13 4.49995 13H13.4999C13.6326 13 13.7597 13.0527 13.8535 13.1464C13.9473 13.2402 13.9999 13.3674 13.9999 13.5ZM15.4999 8.5V10C15.4999 10.1326 15.4473 10.2598 15.3535 10.3536C15.2597 10.4473 15.1326 10.5 14.9999 10.5H3.81682C3.27856 10.5025 2.75405 10.33 2.32223 10.0087C1.89042 9.68734 1.57465 9.23443 1.42245 8.71813L0.543074 5.7875C0.498273 5.63825 0.488972 5.4806 0.515913 5.32711C0.542854 5.17363 0.605291 5.02857 0.698244 4.9035C0.791197 4.77843 0.912092 4.67681 1.05129 4.60675C1.19048 4.5367 1.34412 4.50014 1.49995 4.5H1.99995C2.13238 4.50006 2.25938 4.55266 2.35307 4.64625L3.70745 6H5.11307L4.55057 4.31625C4.50044 4.16587 4.48678 4.00573 4.51071 3.84904C4.53464 3.69234 4.59548 3.54358 4.68821 3.41502C4.78093 3.28645 4.90289 3.18178 5.04403 3.10962C5.18517 3.03746 5.34144 2.99989 5.49995 3H5.99995C6.06563 2.99995 6.13068 3.01284 6.19137 3.03793C6.25207 3.06303 6.30723 3.09983 6.3537 3.14625L9.20745 6H12.9999C13.663 6 14.2989 6.26339 14.7677 6.73223C15.2366 7.20107 15.4999 7.83696 15.4999 8.5ZM14.4999 8.5C14.4999 8.10218 14.3419 7.72064 14.0606 7.43934C13.7793 7.15804 13.3978 7 12.9999 7H8.99995C8.86752 6.99994 8.74052 6.94734 8.64682 6.85375L5.79307 4H5.49995L6.28057 6.34188C6.30561 6.41699 6.31246 6.49698 6.30054 6.57525C6.28862 6.65353 6.25829 6.72785 6.21203 6.79211C6.16578 6.85637 6.10492 6.90873 6.03447 6.94487C5.96402 6.98101 5.886 6.99991 5.80682 7H3.49995C3.43427 7.00005 3.36922 6.98716 3.30852 6.96207C3.24783 6.93697 3.19267 6.90017 3.1462 6.85375L1.79307 5.5H1.49995L2.37932 8.43125C2.47075 8.74111 2.66037 9.01287 2.91964 9.20563C3.1789 9.39839 3.49376 9.50169 3.81682 9.5H14.4999V8.5Z" fill="white"/>
</svg>
