<svg width="26" height="22" viewBox="0 0 26 22" fill="none" xmlns="http://www.w3.org/2000/svg">
<path d="M24 0H6C5.46957 0 4.96086 0.210714 4.58579 0.585786C4.21071 0.960859 4 1.46957 4 2V4H2C1.46957 4 0.960859 4.21071 0.585786 4.58579C0.210714 4.96086 0 5.46957 0 6V20C0 20.5304 0.210714 21.0391 0.585786 21.4142C0.960859 21.7893 1.46957 22 2 22H20C20.5304 22 21.0391 21.7893 21.4142 21.4142C21.7893 21.0391 22 20.5304 22 20V18H24C24.5304 18 25.0391 17.7893 25.4142 17.4142C25.7893 17.0391 26 16.5304 26 16V2C26 1.46957 25.7893 0.960859 25.4142 0.585786C25.0391 0.210714 24.5304 0 24 0ZM6 2H24V9.84375L22.7412 8.58625C22.5555 8.40049 22.335 8.25313 22.0923 8.15259C21.8497 8.05205 21.5896 8.0003 21.3269 8.0003C21.0642 8.0003 20.8041 8.05205 20.5614 8.15259C20.3187 8.25313 20.0982 8.40049 19.9125 8.58625L17.4125 11.0863L11.9125 5.58625C11.5375 5.21146 11.029 5.00093 10.4987 5.00093C9.96854 5.00093 9.46004 5.21146 9.085 5.58625L6 8.67125V2ZM20 20H2V6H4V16C4 16.5304 4.21071 17.0391 4.58579 17.4142C4.96086 17.7893 5.46957 18 6 18H20V20ZM24 16H6V11.5L10.5 7L16.7075 13.2075C16.895 13.3949 17.1493 13.5002 17.4144 13.5002C17.6795 13.5002 17.9337 13.3949 18.1213 13.2075L21.3288 10L24 12.6725V16ZM17 5.5C17 5.20333 17.088 4.91332 17.2528 4.66665C17.4176 4.41997 17.6519 4.22771 17.926 4.11418C18.2001 4.00065 18.5017 3.97094 18.7926 4.02882C19.0836 4.0867 19.3509 4.22956 19.5607 4.43934C19.7704 4.64912 19.9133 4.91639 19.9712 5.20736C20.0291 5.49834 19.9993 5.79994 19.8858 6.07403C19.7723 6.34811 19.58 6.58238 19.3334 6.7472C19.0867 6.91203 18.7967 7 18.5 7C18.1022 7 17.7206 6.84196 17.4393 6.56066C17.158 6.27936 17 5.89782 17 5.5Z" fill="#344054"/>
</svg>
