<?xml version="1.0" encoding="UTF-8"?>
<svg xmlns="http://www.w3.org/2000/svg" xmlns:xlink="http://www.w3.org/1999/xlink" width="29px" height="29px" viewBox="0 0 29 29" version="1.1">
<g id="surface1">
<path style=" stroke:none;fill-rule:nonzero;fill:rgb(0%,0%,0%);fill-opacity:1;" d="M 27.238281 8.382812 L 26.902344 6.484375 C 26.652344 5.082031 25.339844 4.0625 23.777344 4.0625 C 23.566406 4.0625 23.355469 4.078125 23.148438 4.117188 L 2.761719 7.710938 C 0.976562 8.023438 -0.242188 9.601562 0.0429688 11.222656 L 0.0625 11.347656 L 0.0625 21.816406 C 0.0625 23.539062 1.609375 24.9375 3.507812 24.9375 L 25.558594 24.9375 C 27.457031 24.9375 29 23.539062 29 21.816406 L 29 11.105469 C 29 9.9375 28.289062 8.917969 27.238281 8.382812 Z M 23.453125 5.859375 C 23.5625 5.839844 23.671875 5.832031 23.777344 5.832031 C 24.480469 5.832031 25.0625 6.234375 25.160156 6.792969 L 25.371094 7.984375 L 11.402344 7.984375 Z M 27.230469 21.816406 C 27.230469 22.5625 26.480469 23.167969 25.558594 23.167969 L 3.507812 23.167969 C 2.585938 23.167969 1.835938 22.5625 1.835938 21.816406 L 1.835938 11.105469 C 1.835938 10.359375 2.585938 9.753906 3.507812 9.753906 L 25.558594 9.753906 C 26.480469 9.753906 27.230469 10.359375 27.230469 11.105469 Z M 27.230469 21.816406 "/>
<path style=" stroke:none;fill-rule:nonzero;fill:rgb(0%,0%,0%);fill-opacity:1;" d="M 7.929688 17.222656 L 9.699219 17.222656 L 9.699219 18.746094 L 7.929688 18.746094 Z M 7.929688 17.222656 "/>
<path style=" stroke:none;fill-rule:nonzero;fill:rgb(0%,0%,0%);fill-opacity:1;" d="M 7.929688 20.269531 L 9.699219 20.269531 L 9.699219 21.792969 L 7.929688 21.792969 Z M 7.929688 20.269531 "/>
<path style=" stroke:none;fill-rule:nonzero;fill:rgb(0%,0%,0%);fill-opacity:1;" d="M 7.929688 11.128906 L 9.699219 11.128906 L 9.699219 12.652344 L 7.929688 12.652344 Z M 7.929688 11.128906 "/>
<path style=" stroke:none;fill-rule:nonzero;fill:rgb(0%,0%,0%);fill-opacity:1;" d="M 7.929688 14.175781 L 9.699219 14.175781 L 9.699219 15.699219 L 7.929688 15.699219 Z M 7.929688 14.175781 "/>
<path style=" stroke:none;fill-rule:nonzero;fill:rgb(0%,0%,0%);fill-opacity:1;" d="M 21.421875 13.203125 L 20.136719 14.574219 L 16.066406 13.355469 L 15.378906 14.042969 C 15.300781 14.121094 15.300781 14.242188 15.378906 14.316406 L 18.679688 16.132812 L 17.019531 17.824219 L 15.734375 17.5625 L 15.308594 17.988281 C 15.25 18.046875 15.25 18.136719 15.308594 18.195312 L 17.730469 20.617188 C 17.785156 20.675781 17.878906 20.675781 17.9375 20.617188 L 18.363281 20.191406 L 18.097656 18.882812 L 19.777344 17.222656 L 21.609375 20.546875 C 21.683594 20.621094 21.804688 20.621094 21.878906 20.546875 L 22.566406 19.859375 L 21.339844 15.761719 L 22.703125 14.488281 C 23.078125 14.113281 23.09375 13.519531 22.738281 13.167969 C 22.386719 12.8125 21.796875 12.828125 21.421875 13.203125 Z M 21.421875 13.203125 "/>
</g>
</svg>
