<svg width="27" height="28" viewBox="0 0 27 28" fill="none" xmlns="http://www.w3.org/2000/svg">
<path d="M13.5083 27.8583C20.939 27.8583 26.9628 21.8345 26.9628 14.4038C26.9628 6.97302 20.939 0.949219 13.5083 0.949219C6.07752 0.949219 0.0537109 6.97302 0.0537109 14.4038C0.0537109 21.8345 6.07752 27.8583 13.5083 27.8583Z" fill="url(#paint0_radial_1316_6537)"/>
<path opacity="0.5" d="M13.5083 27.8583C20.939 27.8583 26.9628 21.8345 26.9628 14.4038C26.9628 6.97302 20.939 0.949219 13.5083 0.949219C6.07752 0.949219 0.0537109 6.97302 0.0537109 14.4038C0.0537109 21.8345 6.07752 27.8583 13.5083 27.8583Z" fill="url(#paint1_radial_1316_6537)"/>
<path d="M10.5105 8.25967C10.3979 7.62136 9.75334 7.32724 8.76459 7.4962C7.92603 7.64639 6.18006 8.5225 5.25389 10.7065C5.08493 11.107 5.47918 11.2447 5.66691 10.9694C6.30522 10.0369 8.22015 8.64766 9.89101 8.57257C10.5606 8.54128 10.5105 8.25967 10.5105 8.25967Z" fill="url(#paint2_linear_1316_6537)"/>
<path d="M16.4183 8.63432C16.4558 7.98975 17.0566 7.61427 18.0578 7.67059C18.9089 7.7144 20.7488 8.384 21.9252 10.4366C22.1443 10.8183 21.7688 10.9998 21.5435 10.7495C20.7988 9.89842 18.7337 8.74696 17.0691 8.87212C16.3995 8.92218 16.4183 8.63432 16.4183 8.63432Z" fill="url(#paint3_linear_1316_6537)"/>
<path d="M9.56563 12.0381C7.88225 12.0381 6.27396 13.3084 5.77958 13.9092C5.70449 13.9968 5.7921 14.1282 5.90474 14.0969C6.86221 13.7966 8.01367 13.734 8.75836 13.8279C8.78339 14.6226 9.41544 15.4737 9.99743 15.4737C10.8861 15.4737 11.2428 14.4849 11.2428 13.6276C11.2428 12.5825 10.5231 12.0381 9.56563 12.0381Z" fill="url(#paint4_radial_1316_6537)"/>
<path d="M12.4506 23.6515C11.4868 23.6515 10.5732 23.5326 9.5594 23.2823C9.2465 23.2072 9.05251 22.888 9.1276 22.5689C9.20895 22.256 9.52811 22.062 9.84101 22.1371C10.9737 22.4187 11.9687 22.5126 13.0701 22.4563C16.4869 22.2685 18.8837 20.5976 19.741 19.0269C19.8975 18.739 20.2542 18.6389 20.5421 18.7891C20.8299 18.9456 20.9301 19.3023 20.7799 19.5901C19.8412 21.311 17.2754 23.4012 13.1452 23.6327C12.9074 23.6453 12.6758 23.6515 12.4506 23.6515Z" fill="url(#paint5_radial_1316_6537)"/>
<path d="M19.3156 12.0381C17.6323 12.0381 16.024 13.3084 15.5296 13.9092C15.4545 13.9968 15.5421 14.1282 15.6547 14.0969C16.6122 13.7966 17.7637 13.734 18.5084 13.8279C18.5334 14.6226 19.1654 15.4737 19.7474 15.4737C20.6361 15.4737 20.9928 14.4849 20.9928 13.6276C20.9928 12.5825 20.2731 12.0381 19.3156 12.0381Z" fill="url(#paint6_radial_1316_6537)"/>
<path d="M11.199 13.2271C11.0362 12.4449 10.3917 12.0381 9.56563 12.0381C7.88225 12.0381 6.27396 13.3084 5.77958 13.9092C5.70449 13.9968 5.7921 14.1282 5.90474 14.0969C7.76961 12.57 10.1226 12.0068 11.199 13.2271Z" fill="url(#paint7_linear_1316_6537)"/>
<path d="M20.949 13.2271C20.7863 12.4449 20.1417 12.0381 19.3156 12.0381C17.6323 12.0381 16.024 13.3084 15.5296 13.9092C15.4545 13.9968 15.5421 14.1282 15.6547 14.0969C17.5196 12.57 19.8726 12.0068 20.949 13.2271Z" fill="url(#paint8_linear_1316_6537)"/>
<path d="M20.5419 18.7968C20.2603 18.6403 19.8974 18.7467 19.7409 19.0346C18.8836 20.6053 16.4868 22.2762 13.07 22.4639C11.9686 22.5265 10.9736 22.4264 9.84089 22.1448C9.52799 22.0634 9.20884 22.2574 9.12749 22.5765C9.08368 22.7393 9.12123 22.9082 9.20884 23.0396C9.24639 22.8394 9.43412 22.7205 9.6156 22.7643C9.62186 22.7643 9.63438 22.7643 9.64689 22.7643C10.5105 22.952 11.3115 23.0459 12.1501 23.0459C12.3754 23.0459 12.6006 23.0396 12.8322 23.0271C16.6433 22.8206 19.1151 21.0246 20.2165 19.3975C20.2165 19.3913 20.229 19.3913 20.229 19.385C20.4168 19.0846 20.7297 19.2223 20.7359 19.6541C20.7485 19.6353 20.761 19.6165 20.7672 19.5978C20.9299 19.3099 20.8236 18.9532 20.5419 18.7968Z" fill="url(#paint9_linear_1316_6537)"/>
<defs>
<radialGradient id="paint0_radial_1316_6537" cx="0" cy="0" r="1" gradientUnits="userSpaceOnUse" gradientTransform="translate(10.861 8.95109) scale(16.2312)">
<stop stop-color="#FFDF30"/>
<stop offset="1" stop-color="#FFB82E"/>
</radialGradient>
<radialGradient id="paint1_radial_1316_6537" cx="0" cy="0" r="1" gradientUnits="userSpaceOnUse" gradientTransform="translate(10.861 8.95109) scale(12.7698)">
<stop stop-color="#FFE95F"/>
<stop offset="1" stop-color="#FFBB47" stop-opacity="0"/>
</radialGradient>
<linearGradient id="paint2_linear_1316_6537" x1="7.8998" y1="9.81467" x2="7.60519" y2="8.13938" gradientUnits="userSpaceOnUse">
<stop offset="0.00132565" stop-color="#3C2200"/>
<stop offset="1" stop-color="#7A4400"/>
</linearGradient>
<linearGradient id="paint3_linear_1316_6537" x1="19.1933" y1="9.87009" x2="19.2868" y2="8.17179" gradientUnits="userSpaceOnUse">
<stop offset="0.00132565" stop-color="#3C2200"/>
<stop offset="1" stop-color="#7A4400"/>
</linearGradient>
<radialGradient id="paint4_radial_1316_6537" cx="0" cy="0" r="1" gradientUnits="userSpaceOnUse" gradientTransform="translate(10.0172 13.7703) rotate(-78.9069) scale(1.61119 1.17772)">
<stop offset="0.00132565" stop-color="#7A4400"/>
<stop offset="1" stop-color="#643800"/>
</radialGradient>
<radialGradient id="paint5_radial_1316_6537" cx="0" cy="0" r="1" gradientUnits="userSpaceOnUse" gradientTransform="translate(14.9957 21.2708) rotate(-3.13857) scale(4.50055 4.49841)">
<stop offset="0.00132565" stop-color="#7A4400"/>
<stop offset="1" stop-color="#643800"/>
</radialGradient>
<radialGradient id="paint6_radial_1316_6537" cx="0" cy="0" r="1" gradientUnits="userSpaceOnUse" gradientTransform="translate(19.7665 13.7705) rotate(-78.9069) scale(1.61119 1.17772)">
<stop offset="0.00132565" stop-color="#7A4400"/>
<stop offset="1" stop-color="#643800"/>
</radialGradient>
<linearGradient id="paint7_linear_1316_6537" x1="8.47569" y1="11.9044" x2="8.47569" y2="14.3337" gradientUnits="userSpaceOnUse">
<stop offset="0.00132565" stop-color="#3C2200"/>
<stop offset="1" stop-color="#512D00"/>
</linearGradient>
<linearGradient id="paint8_linear_1316_6537" x1="18.2251" y1="11.9044" x2="18.2251" y2="14.3337" gradientUnits="userSpaceOnUse">
<stop offset="0.00132565" stop-color="#3C2200"/>
<stop offset="1" stop-color="#512D00"/>
</linearGradient>
<linearGradient id="paint9_linear_1316_6537" x1="9.11553" y1="20.8816" x2="20.8472" y2="20.8816" gradientUnits="userSpaceOnUse">
<stop offset="0.00132565" stop-color="#3C2200"/>
<stop offset="1" stop-color="#512D00"/>
</linearGradient>
</defs>
</svg>
