<svg width="20" height="19" viewBox="0 0 20 19" fill="none" xmlns="http://www.w3.org/2000/svg">
<path d="M19.75 2V14C19.75 14.3978 19.592 14.7794 19.3107 15.0607C19.0294 15.342 18.6479 15.5 18.25 15.5H5.7344L2.7269 18.1353C2.72328 18.1392 2.71919 18.1427 2.71471 18.1456C2.44537 18.3744 2.10344 18.5 1.75003 18.5C1.52997 18.4996 1.31268 18.451 1.11346 18.3575C0.854343 18.2381 0.635109 18.0465 0.481985 17.8058C0.328861 17.5651 0.24833 17.2853 0.250026 17V2C0.250026 1.60218 0.408061 1.22064 0.689366 0.93934C0.970671 0.658035 1.3522 0.5 1.75003 0.5H18.25C18.6479 0.5 19.0294 0.658035 19.3107 0.93934C19.592 1.22064 19.75 1.60218 19.75 2Z" fill="#0D6EFD"/>
</svg>
