<svg width="22" height="20" viewBox="0 0 22 20" fill="none" xmlns="http://www.w3.org/2000/svg">
<path d="M11.0002 5.49974C10.1102 5.49974 9.24013 5.76366 8.50011 6.25813C7.76009 6.75259 7.18331 7.4554 6.84272 8.27766C6.50213 9.09993 6.41301 10.0047 6.58664 10.8776C6.76028 11.7506 7.18886 12.5524 7.8182 13.1817C8.44753 13.8111 9.24936 14.2396 10.1223 14.4133C10.9952 14.5869 11.9 14.4978 12.7223 14.1572C13.5445 13.8166 14.2473 13.2398 14.7418 12.4998C15.2363 11.7598 15.5002 10.8898 15.5002 9.99974C15.4989 8.80664 15.0244 7.66277 14.1808 6.81913C13.3371 5.97548 12.1933 5.50098 11.0002 5.49974ZM11.0002 12.9997C10.4068 12.9997 9.82682 12.8238 9.33347 12.4941C8.84012 12.1645 8.4556 11.696 8.22854 11.1478C8.00148 10.5996 7.94207 9.99641 8.05782 9.41447C8.17358 8.83252 8.4593 8.29798 8.87886 7.87842C9.29842 7.45886 9.83296 7.17314 10.4149 7.05738C10.9969 6.94163 11.6 7.00104 12.1482 7.2281C12.6964 7.45516 13.1649 7.83968 13.4946 8.33303C13.8242 8.82638 14.0002 9.40639 14.0002 9.99974C14.0002 10.7954 13.6841 11.5584 13.1215 12.1211C12.5589 12.6837 11.7958 12.9997 11.0002 12.9997ZM21.3071 8.05068C21.2862 7.94506 21.2428 7.84518 21.1799 7.75783C21.1169 7.67047 21.0359 7.59769 20.9424 7.54443L18.1458 5.95068L18.1346 2.7988C18.1342 2.69025 18.1103 2.58307 18.0645 2.48466C18.0187 2.38625 17.9521 2.29895 17.8692 2.2288C16.8548 1.3707 15.6866 0.713112 14.4267 0.290988C14.3275 0.257407 14.2224 0.244979 14.1181 0.254506C14.0138 0.264032 13.9126 0.295302 13.8211 0.3463L11.0002 1.92318L8.17643 0.343488C8.08488 0.292202 7.9836 0.260696 7.87911 0.251007C7.77463 0.241318 7.66928 0.253661 7.56987 0.287238C6.31094 0.712448 5.14408 1.37255 4.13112 2.23255C4.0484 2.3026 3.98185 2.38974 3.93604 2.48798C3.89024 2.58622 3.86628 2.69322 3.8658 2.80161L3.85174 5.9563L1.05518 7.55005C0.961617 7.60332 0.88062 7.6761 0.817692 7.76345C0.754765 7.85081 0.711381 7.95069 0.690491 8.0563C0.43455 9.34244 0.43455 10.6664 0.690491 11.9526C0.711381 12.0582 0.754765 12.158 0.817692 12.2454C0.88062 12.3328 0.961617 12.4055 1.05518 12.4588L3.85174 14.0526L3.86299 17.2044C3.86333 17.313 3.88723 17.4202 3.93304 17.5186C3.97884 17.617 4.04547 17.7043 4.1283 17.7744C5.14275 18.6325 6.31095 19.2901 7.5708 19.7122C7.67002 19.7458 7.77517 19.7582 7.87947 19.7487C7.98378 19.7392 8.08494 19.7079 8.17643 19.6569L11.0002 18.0763L13.8239 19.656C13.9357 19.7183 14.0616 19.7505 14.1896 19.7497C14.2715 19.7497 14.3528 19.7364 14.4305 19.7104C15.6893 19.2857 16.8561 18.6263 17.8692 17.7669C17.952 17.6969 18.0185 17.6097 18.0643 17.5115C18.1101 17.4133 18.1341 17.3063 18.1346 17.1979L18.1486 14.0432L20.9452 12.4494C21.0387 12.3962 21.1197 12.3234 21.1827 12.236C21.2456 12.1487 21.289 12.0488 21.3099 11.9432C21.5644 10.6581 21.5634 9.33542 21.3071 8.05068ZM19.9008 11.3235L17.2224 12.8469C17.105 12.9137 17.0078 13.0108 16.9411 13.1282C16.8867 13.2219 16.8296 13.3213 16.7714 13.4151C16.697 13.5333 16.6574 13.67 16.6571 13.8097L16.643 16.8332C15.9231 17.3985 15.121 17.8506 14.2646 18.1738L11.5627 16.6682C11.4505 16.6061 11.3243 16.5738 11.1961 16.5744H11.1783C11.0649 16.5744 10.9505 16.5744 10.8371 16.5744C10.7029 16.5711 10.5702 16.6034 10.4527 16.6682L7.74893 18.1776C6.89066 17.8569 6.08639 17.407 5.36393 16.8435L5.35362 13.8247C5.35315 13.6848 5.31354 13.5477 5.23924 13.4291C5.18112 13.3354 5.12393 13.2416 5.07049 13.1422C5.00423 13.0231 4.90707 12.924 4.78924 12.8554L2.10799 11.3282C1.96924 10.4505 1.96924 9.55648 2.10799 8.6788L4.78174 7.15255C4.89909 7.08582 4.99626 6.98865 5.06299 6.8713C5.11737 6.77755 5.17455 6.67818 5.23268 6.58443C5.30708 6.4662 5.34672 6.32943 5.34705 6.18974L5.36112 3.1663C6.08105 2.60094 6.88311 2.14885 7.73955 1.82568L10.4377 3.3313C10.5551 3.39639 10.6878 3.42877 10.8221 3.42505C10.9355 3.42505 11.0499 3.42505 11.1633 3.42505C11.2975 3.4284 11.4301 3.39605 11.5477 3.3313L14.2514 1.82193C15.1097 2.14262 15.914 2.59249 16.6364 3.15599L16.6467 6.17474C16.6472 6.3147 16.6868 6.45174 16.7611 6.57036C16.8192 6.66411 16.8764 6.75786 16.9299 6.85724C16.9961 6.97641 17.0933 7.07551 17.2111 7.14411L19.8924 8.6713C20.033 9.54965 20.0345 10.4446 19.8971 11.3235H19.9008Z" fill="#343330"/>
</svg>
