<svg width="12" height="7" viewBox="0 0 12 7" fill="none" xmlns="http://www.w3.org/2000/svg">
<path d="M11.4946 1.47884L11.4936 1.47937L11.4864 1.48654L6.4864 6.48654L6.48633 6.48662C6.42246 6.55071 6.34656 6.60156 6.26299 6.63626C6.17943 6.67096 6.08983 6.68883 5.99935 6.68883C5.90886 6.68883 5.81927 6.67096 5.7357 6.63626C5.65213 6.60156 5.57624 6.55071 5.51237 6.48662L5.51229 6.48654L0.512292 1.48654C0.383117 1.35737 0.310547 1.18217 0.310547 0.999484C0.310547 0.816803 0.383117 0.641604 0.512292 0.512429C0.641467 0.383253 0.816667 0.310684 0.999348 0.310684C1.18203 0.310684 1.35723 0.383253 1.4864 0.512429L5.95578 4.9818L5.99998 5.026L6.04417 4.9818L10.5135 0.511801C10.6427 0.382629 10.8179 0.310059 11.0006 0.310059C11.1833 0.310059 11.3585 0.382629 11.4877 0.511804C11.6168 0.64098 11.6894 0.816179 11.6894 0.99886C11.6894 1.17823 11.6194 1.35039 11.4946 1.47884Z" fill="#344054" stroke="#98A2B3" stroke-width="0.125"/>
</svg>
