<svg width="25" height="28" viewBox="0 0 25 28" fill="none" xmlns="http://www.w3.org/2000/svg">
<path d="M12.408 0.949219C11.3663 0.949219 10.9702 1.78303 11.0509 3.39838C11.1044 4.46323 11.463 7.4319 9.9601 8.93625C8.55843 10.3386 8.15077 10.2141 6.55366 12.025C4.95719 13.8352 3.62647 13.4628 1.76361 13.3028C-0.576593 13.1021 0.220674 26.0945 1.87004 25.8693C3.04078 25.7093 5.70221 25.3898 6.12793 25.3898C6.55366 25.3898 9.4731 27.6524 12.0358 27.6796C16.1867 27.7228 18.4759 26.9871 18.4759 26.9871L19.6924 24.2262L20.0995 15.8081L18.156 11.7584C18.156 11.7584 15.5481 12.1844 14.803 11.013C14.058 9.84169 15.3887 8.40382 15.3887 5.04922C15.3887 1.69461 12.9402 0.949219 12.408 0.949219Z" fill="url(#paint0_linear_1316_4598)"/>
<path d="M18.6211 26.964L18.463 26.3876C17.9954 26.338 17.3936 26.5509 16.5718 26.5445C12.6467 26.5141 8.89454 25.3867 7.28453 24.1115C6.22989 23.2764 5.7674 22.165 5.02238 22.4845C4.1032 22.8788 1.49531 23.4919 0.536133 22.2773C0.804469 24.3554 1.28309 25.9507 1.87007 25.8707C3.04082 25.7107 5.70225 25.3912 6.12797 25.3912C6.5537 25.3912 9.39187 27.5945 12.0359 27.681C15.4565 27.7926 18.4947 27.2034 18.4947 27.2034L18.6211 26.964Z" fill="url(#paint1_linear_1316_4598)"/>
<path d="M3.42584 14.1231C4.96942 14.549 5.94987 13.8443 6.73876 12.8852C7.52248 11.9327 8.20235 11.0879 10.1716 9.81008C12.1409 8.53226 11.8881 5.0176 11.7281 3.84626C11.5682 2.67492 11.6746 0.949219 12.408 0.949219C11.3663 0.949219 10.9702 1.78303 11.0508 3.39838C11.1044 4.46323 11.463 7.43191 9.96007 8.93626C8.55841 10.3386 8.15074 10.2141 6.55363 12.025C4.95716 13.8352 3.62645 13.4628 1.76358 13.3028C1.76423 13.7068 1.88227 13.6971 3.42584 14.1231Z" fill="url(#paint2_linear_1316_4598)"/>
<path d="M14.8031 11.013C14.058 9.84169 15.3888 8.40382 15.3888 5.04922C15.3888 1.69461 12.9408 0.949219 12.408 0.949219C12.2681 0.949219 12.1436 0.964707 12.032 0.994394C14.2032 1.13057 15.5107 3.87014 14.7624 6.6949C14.1554 8.98723 13.8529 10.8252 14.8443 11.903C15.4855 12.6006 16.7608 12.4819 18.1566 11.7584C18.156 11.7584 15.5481 12.1844 14.8031 11.013Z" fill="url(#paint3_linear_1316_4598)"/>
<path d="M14.9494 12.209C13.6723 12.6349 10.4464 13.6372 8.00302 15.854C1.81066 21.4719 12.3828 22.176 14.5663 26.9807C14.9836 27.8991 17.4232 22.1644 17.4232 22.1644L18.212 20.8362L15.9325 14.7627L14.9494 12.209Z" fill="url(#paint4_linear_1316_4598)"/>
<path d="M15.1371 12.6953C13.86 13.1213 8.64224 16.4655 8.64224 18.117C8.64224 22.8831 12.2557 20.5307 14.2089 26.1544C14.4792 26.9334 15.4345 27.5884 15.4345 27.5884C16.226 26.9424 17.4238 22.1641 17.4238 22.1641L18.2127 20.836L15.9331 14.7624L15.1371 12.6953Z" fill="url(#paint5_linear_1316_4598)"/>
<path d="M18.085 27.3021L20.5297 24.5058L21.0683 12.824L14.9489 12.207C13.544 12.9634 13.3814 13.9979 13.9032 15.6591C14.1226 16.358 13.2305 16.5581 13.1731 18.5942C13.1331 20.0056 14.0568 20.0121 14.0568 20.4316C14.0568 20.8511 13.5969 20.8136 13.444 22.0289C13.226 23.7675 14.6812 23.801 14.6812 24.1728C14.6812 24.5445 13.8729 24.7652 13.9226 26.1824C13.9858 27.9798 10.6497 27.6164 8.39398 25.9811C7.4677 25.3092 6.65947 25.2402 6.02863 25.3925C6.06797 25.3906 6.10151 25.3893 6.12667 25.3893C6.5524 25.3893 9.41185 27.679 12.0346 27.679C15.1017 27.679 17.2226 27.4996 18.085 27.3021Z" fill="url(#paint6_linear_1316_4598)"/>
<path d="M18.6475 12.9785C16.7582 12.9785 15.7203 14.8256 16.4389 16.2447C17.1574 17.6639 15.1081 19.5425 15.321 20.4673C15.5339 21.3921 15.9067 23.7329 16.1989 24.1201C16.4918 24.5073 15.7196 25.3857 15.7196 25.3857L18.1147 25.6787L20.3497 24.6925L20.2697 17.931L20.509 13.6975L18.6475 12.9785Z" fill="url(#paint7_linear_1316_4598)"/>
<path d="M6.55365 12.0248C5.51643 13.2007 4.59144 13.4556 3.56003 13.4459C3.85739 13.9261 4.06445 14.4508 4.04316 14.9638C3.98704 16.3088 4.28312 17.9667 4.50952 16.2423C4.68175 14.929 5.5719 13.3059 6.64266 11.9248C6.61364 11.9577 6.58461 11.99 6.55365 12.0248Z" fill="url(#paint8_linear_1316_4598)"/>
<path d="M20.0788 11.7059C17.8451 11.6207 13.829 11.4942 13.7394 13.8356C13.6749 15.5336 14.8785 16.0906 16.7401 16.1615C18.6017 16.2325 19.5325 16.268 20.3033 16.2971C21.0741 16.3261 23.4995 16.3119 23.5233 14.2616C23.553 11.7001 20.0788 11.7059 20.0788 11.7059Z" fill="url(#paint9_linear_1316_4598)"/>
<path d="M16.4047 20.1704C15.8061 20.153 14.0277 20.6015 13.8613 21.7316C13.7303 22.6202 14.1838 23.7683 15.7312 24.0394C17.6915 24.3827 20.958 24.5628 22.1784 24.1059C22.7234 23.9019 23.1988 23.3308 23.224 22.4653C23.2492 21.5999 22.6067 20.4337 21.2102 20.3931C19.8137 20.353 19.0861 20.3743 18.2901 20.2801C17.3329 20.1678 16.8833 20.1846 16.4047 20.1704Z" fill="url(#paint10_linear_1316_4598)"/>
<path d="M15.7809 24.1191C15.1023 24.1191 14.2638 24.718 14.2638 25.7164C14.2638 26.7148 14.5231 27.4538 15.9802 27.7332C17.4374 28.0126 19.7724 27.7732 20.6503 27.4938C21.3347 27.2756 21.5882 26.6354 21.5882 25.577C21.5882 24.5186 20.9303 24.3334 20.2117 24.3334C19.4931 24.3334 18.621 24.4644 18.1231 24.4386C16.7324 24.365 16.4595 24.1191 15.7809 24.1191Z" fill="url(#paint11_linear_1316_4598)"/>
<path d="M19.8885 12.1789C17.9379 12.1046 14.4308 11.9917 14.3605 13.8426C14.3096 15.1849 15.3623 15.629 16.9878 15.6909C18.6133 15.7529 22.8899 15.8309 22.9041 14.2104C22.9215 12.1853 19.8885 12.1789 19.8885 12.1789Z" fill="url(#paint12_linear_1316_4598)"/>
<path d="M16.5846 20.6476C16.0635 20.6327 14.6044 20.7566 14.4644 21.8363C14.3696 22.5669 14.7482 23.5053 16.0957 23.7292C17.8031 24.0132 20.6465 24.1655 21.7088 23.7931C22.1829 23.6266 22.5964 23.16 22.6164 22.4507C22.637 21.7415 21.9836 20.8722 20.7684 20.8367C19.5531 20.8012 18.9061 20.9141 18.2127 20.8354C17.3793 20.7418 17.0013 20.6592 16.5846 20.6476Z" fill="url(#paint13_linear_1316_4598)"/>
<path d="M16.0712 24.4824C15.4842 24.4824 14.7592 24.9645 14.7592 25.7686C14.7592 26.5728 14.9836 27.1678 16.244 27.3924C17.5044 27.617 19.5241 27.4247 20.2839 27.1994C20.8754 27.0239 21.0954 26.5082 21.0954 25.6557C21.0954 24.8032 20.5258 24.6547 19.904 24.6547C19.2822 24.6547 18.5281 24.7606 18.0972 24.7393C16.8936 24.6805 16.6575 24.4824 16.0712 24.4824Z" fill="url(#paint14_linear_1316_4598)"/>
<path d="M15.7132 13.8416C15.7616 12.5664 16.7782 11.9552 18.0624 11.6738C16.0125 11.7216 13.8052 12.1049 13.7387 13.8339C13.6742 15.5318 14.8779 16.0888 16.7395 16.1598C16.9446 16.1675 17.1374 16.1753 17.3206 16.1817C16.2757 15.8758 15.6622 15.1859 15.7132 13.8416Z" fill="url(#paint15_linear_1316_4598)"/>
<path d="M15.8886 11.9062C14.696 12.167 13.7813 12.731 13.7394 13.8353C13.6858 15.2467 14.5095 15.8695 15.8583 16.0805C13.1221 14.9879 14.1038 12.2967 15.8886 11.9062Z" fill="url(#paint16_linear_1316_4598)"/>
<path d="M12.7125 25.3218C12.397 26.0465 10.896 26.0923 9.35954 25.4231C7.82306 24.7545 6.83357 23.6245 7.14899 22.8991C7.46441 22.1743 8.96542 22.1285 10.5019 22.7978C12.0377 23.467 13.0279 24.597 12.7125 25.3218Z" fill="url(#paint17_radial_1316_4598)"/>
<path d="M21.752 14.1847C21.7365 15.1644 20.4271 15.629 18.9945 15.7162C17.8231 15.7872 16.5227 14.9579 16.5562 14.0008C16.5898 13.0437 16.7601 12.1957 19.1944 12.2802C20.629 12.3299 21.7669 13.2276 21.752 14.1847Z" fill="url(#paint18_radial_1316_4598)"/>
<path d="M22.012 22.798C22.0036 24.1546 20.5129 23.8945 19.0803 23.9887C17.2639 24.1087 16.0596 23.5428 16.0589 22.585C16.0576 21.6273 16.7485 20.9297 19.1848 20.9258C20.62 20.9239 22.0223 21.0555 22.012 22.798Z" fill="url(#paint19_radial_1316_4598)"/>
<path d="M20.6987 26.2171C20.6916 27.3736 19.337 27.5311 18.0534 27.5317C16.7698 27.533 15.3765 26.8522 15.3759 26.0358C15.3752 25.2194 15.9925 24.6243 18.1708 24.6211C19.4538 24.6192 20.7077 24.7315 20.6987 26.2171Z" fill="url(#paint20_radial_1316_4598)"/>
<path d="M15.5267 22.0053C15.7306 20.4609 16.9149 20.5513 18.2727 20.3912C16.7097 20.2744 16.0537 20.2576 16.0537 20.2576C15.908 20.2435 15.7448 20.2428 15.5751 20.2602C15.0675 20.3719 14.4921 20.6029 14.1502 21.0366C14.0341 21.2018 13.9399 21.3967 13.878 21.6278C13.8716 21.6613 13.8651 21.6955 13.8612 21.7304C13.7509 22.6223 14.1838 23.7672 15.7312 24.0382C15.9544 24.0776 16.195 24.1144 16.4472 24.1486C16.5678 24.1641 16.6994 24.1802 16.8407 24.1983C16.8787 24.2028 16.9168 24.2073 16.9555 24.2118C16.1015 23.8085 15.3764 23.1405 15.5267 22.0053Z" fill="url(#paint21_linear_1316_4598)"/>
<path d="M15.9048 20.2482C15.7996 20.2449 15.688 20.2488 15.5739 20.2604C15.0617 20.3734 14.4812 20.6076 14.1412 21.0484C14.029 21.2111 13.9387 21.4034 13.878 21.6286C13.8716 21.6622 13.8671 21.6957 13.8613 21.7306C13.7045 22.6089 14.1393 23.6441 15.4913 23.9868C13.1846 22.7141 14.169 20.2495 15.9048 20.2482Z" fill="url(#paint22_linear_1316_4598)"/>
<path d="M17.2478 24.3553C16.566 24.2553 16.286 24.1191 15.7816 24.1191C15.103 24.1191 14.2645 24.718 14.2645 25.7164C14.2645 26.0791 14.2993 26.407 14.4122 26.6916C14.527 26.9265 14.6941 27.1465 14.9231 27.3324C15.1746 27.508 15.5165 27.6441 15.9803 27.7332C16.2918 27.7932 16.644 27.8287 17.013 27.8461C16.3009 27.4324 15.0946 27.2098 15.3475 25.8248C15.6268 24.2953 16.5395 24.5018 17.2478 24.3553Z" fill="url(#paint23_linear_1316_4598)"/>
<path d="M15.7513 24.1191C15.0785 24.1366 14.2645 24.7322 14.2645 25.7158C14.2645 26.6302 14.4831 27.3272 15.6403 27.6525C13.8329 26.4909 14.4128 24.5309 15.7513 24.1191Z" fill="url(#paint24_linear_1316_4598)"/>
<path d="M23.5233 14.2624C23.5259 14.0326 23.5001 13.8242 23.4517 13.6338C23.6317 14.434 22.9189 15.2291 21.0296 15.6151C19.7776 15.8706 16.4524 16.1901 14.1516 15.2763C14.6482 15.8764 15.5623 16.1165 16.7401 16.1617C18.6017 16.2327 19.5325 16.2682 20.3033 16.2972C21.0741 16.3276 23.4988 16.3127 23.5233 14.2624Z" fill="url(#paint25_linear_1316_4598)"/>
<path d="M23.224 22.4107C23.2214 21.551 22.577 20.4326 21.2096 20.3932C19.8131 20.3532 19.0855 20.3745 18.2895 20.2803C17.3329 20.1674 16.8833 20.1841 16.4047 20.1706C16.0428 20.1603 15.1501 20.2693 14.5431 20.6469C15.2255 20.8837 16.3376 21.24 17.9025 21.1399C21.6521 20.8986 22.719 21.3523 23.224 22.4107Z" fill="url(#paint26_linear_1316_4598)"/>
<path d="M15.6003 16.2962C14.8024 16.28 13.5349 16.7498 13.502 18.4078C13.4691 20.0651 14.9185 20.46 15.5571 20.4729C16.1957 20.4858 18.4282 20.6382 21.1818 20.693C23.9355 20.7479 24.3045 19.2693 24.3199 18.4949C24.3354 17.7198 23.8446 16.3187 22.1881 16.2852C17.3987 16.189 15.6003 16.2962 15.6003 16.2962Z" fill="url(#paint27_linear_1316_4598)"/>
<path d="M16.0286 16.7775C15.3346 16.764 14.2341 17.1241 14.209 18.4026C14.1832 19.6817 15.4442 19.9889 15.999 19.9999C16.5543 20.0108 18.4953 20.1328 20.889 20.1806C23.2827 20.2283 23.6007 19.0886 23.6123 18.4903C23.6246 17.8927 23.542 16.8111 22.1017 16.7821C17.9392 16.6995 16.0286 16.7775 16.0286 16.7775Z" fill="url(#paint28_linear_1316_4598)"/>
<path d="M15.2146 18.2477C15.2946 16.5459 16.4821 16.5407 17.8225 16.2471C16.255 16.2568 15.6003 16.2955 15.6003 16.2955C14.8024 16.2793 13.5349 16.7492 13.502 18.4071C13.4691 20.0644 14.9185 20.4594 15.5571 20.4723C15.7874 20.4768 16.2254 20.4994 16.8188 20.5291C15.9338 20.1644 15.1559 19.4997 15.2146 18.2477Z" fill="url(#paint29_linear_1316_4598)"/>
<path d="M22.9176 18.4247C22.9731 19.78 21.4682 20.0349 20.0343 20.1033C18.6004 20.1717 17.0065 19.447 16.9607 18.4906C16.9149 17.5341 17.5722 16.8049 20.0053 16.6868C21.4392 16.6177 22.8467 16.6835 22.9176 18.4247Z" fill="url(#paint30_radial_1316_4598)"/>
<path d="M15.4513 16.2988C14.654 16.3414 13.5329 16.85 13.502 18.4072C13.4704 19.9832 14.7785 20.4175 15.4564 20.4672C12.8331 19.4082 13.6929 16.455 15.4513 16.2988Z" fill="url(#paint31_linear_1316_4598)"/>
<path d="M24.3154 18.3262C23.9697 20.7785 17.489 20.3294 13.9871 19.8028C14.4599 20.3094 15.163 20.463 15.5571 20.4713C16.1957 20.4843 18.4282 20.6366 21.1818 20.6914C23.9355 20.7463 24.3045 19.2678 24.3199 18.4933C24.3206 18.4404 24.3193 18.3843 24.3154 18.3262Z" fill="url(#paint32_linear_1316_4598)"/>
<path d="M21.0689 23.7878C19.8137 23.8433 16.4924 24.2564 14.0709 22.9585C14.3412 23.4606 14.8643 23.8872 15.7306 24.0389C17.6908 24.3822 20.9573 24.5623 22.1777 24.1054C22.7228 23.9014 23.1982 23.3303 23.2233 22.4648C23.1427 23.2173 22.4261 23.7278 21.0689 23.7878Z" fill="url(#paint33_linear_1316_4598)"/>
<path d="M21.4921 26.5146C20.6696 27.1406 19.248 27.5104 17.1967 27.1639C15.9299 26.9496 15.0617 26.8767 14.4908 26.8612C14.7192 27.2742 15.1597 27.5776 15.9802 27.735C17.4373 28.0145 19.7724 27.775 20.6503 27.4956C21.1012 27.351 21.3643 27.0232 21.4921 26.5146Z" fill="url(#paint34_linear_1316_4598)"/>
<path d="M14.5334 24.8181C16.0531 24.2643 16.7981 25.0859 18.4243 25.0859C20.113 25.0859 20.918 24.4038 21.5179 25.0523C21.3295 24.4541 20.7903 24.3334 20.2117 24.3334C19.4931 24.3334 18.621 24.4644 18.1224 24.4386C16.7317 24.3657 16.4595 24.1191 15.7809 24.1191C15.3417 24.1191 14.8359 24.3702 14.5334 24.8181Z" fill="url(#paint35_linear_1316_4598)"/>
<path d="M1.87069 25.8686C3.04143 25.7085 5.70286 25.389 6.12858 25.389C2.26868 22.6288 3.98512 16.7579 5.40872 13.7886C5.60868 13.3717 5.73188 13.0297 5.79832 12.7393C4.51405 13.7189 3.32589 13.4362 1.76361 13.302C-0.576588 13.1013 0.221324 26.0938 1.87069 25.8686Z" fill="url(#paint36_linear_1316_4598)"/>
<path d="M4.3044 23.2016C3.90513 22.6691 4.25087 23.814 4.5708 24.6395C4.84237 25.3416 2.75954 24.9266 1.16565 25.099C1.374 25.6133 1.61202 25.9044 1.87068 25.8689C3.04142 25.7088 5.70285 25.3894 6.12857 25.3894C5.52804 24.8789 4.70304 23.734 4.3044 23.2016Z" fill="url(#paint37_linear_1316_4598)"/>
<path d="M6.12787 25.3907C5.79697 25.1086 5.39769 24.6337 5.0384 24.1748C5.0384 24.1748 3.10071 25.1667 1.02304 24.7001C1.26235 25.4591 1.55004 25.9134 1.86998 25.8695C3.04137 25.7101 5.70215 25.3907 6.12787 25.3907Z" fill="url(#paint38_linear_1316_4598)"/>
<path d="M13.4679 5.94785C12.7094 6.11178 12.0947 5.0637 11.7476 3.84074C11.4638 2.84042 11.8495 1.56648 12.5946 1.4232C13.3396 1.27929 14.0272 1.27283 14.4381 3.39286C14.6793 4.64164 14.2097 5.7878 13.4679 5.94785Z" fill="url(#paint39_radial_1316_4598)"/>
<path d="M15.7512 24.1194C15.3339 24.1633 14.9559 24.3872 14.6959 24.6951C14.4321 25.0055 14.3089 25.4108 14.336 25.818C14.3386 26.2278 14.4005 26.6467 14.6327 26.9784C14.863 27.3133 15.25 27.5127 15.6403 27.6528C15.2378 27.5618 14.8166 27.3953 14.5469 27.0423C14.2734 26.6931 14.2102 26.2381 14.1967 25.8206C14.1786 25.3934 14.3147 24.939 14.616 24.6241C14.9082 24.3059 15.33 24.111 15.7512 24.1194Z" fill="#804B24"/>
<path d="M15.0817 20.4043C14.807 20.5237 14.5535 20.687 14.3438 20.8903C14.1303 21.091 14.0168 21.3659 13.9387 21.6447L13.9394 21.6402C13.8388 22.1487 13.9239 22.6902 14.2226 23.1129C14.5141 23.5414 14.9876 23.8215 15.4907 23.9854C14.9727 23.8854 14.4509 23.6331 14.1232 23.1832C13.9613 22.9619 13.8491 22.7031 13.7949 22.4327C13.7401 22.1623 13.7652 21.8796 13.8155 21.6156L13.8168 21.6111C13.8987 21.3181 14.0445 21.0245 14.2851 20.8264C14.5154 20.6218 14.7979 20.4959 15.0817 20.4043Z" fill="#804B24"/>
<path d="M15.4513 16.2988C14.9578 16.355 14.4805 16.5602 14.1406 16.9055C13.7994 17.2507 13.6149 17.7264 13.5852 18.211C13.5355 18.6938 13.6136 19.1978 13.8897 19.5986C14.1619 20.0006 14.6069 20.2704 15.083 20.4098C14.5953 20.3207 14.1103 20.08 13.8019 19.6612C13.4872 19.2455 13.4039 18.7015 13.4459 18.1994C13.4872 17.6947 13.6852 17.1797 14.0658 16.8293C14.4425 16.475 14.954 16.304 15.4513 16.2988Z" fill="#804B24"/>
<path d="M15.8887 11.9062C15.361 12.0508 14.8366 12.2502 14.4205 12.5929C14.0013 12.9337 13.7742 13.4597 13.8091 13.9985C13.802 14.5335 13.9768 15.0795 14.3831 15.4338C14.7837 15.7927 15.3242 15.9669 15.8577 16.0805C15.3165 16.0166 14.7534 15.8811 14.3128 15.5145C13.8619 15.1531 13.6704 14.5542 13.6697 13.9998C13.6407 13.4364 13.8942 12.8466 14.3535 12.5097C14.8037 12.1644 15.35 12.0018 15.8887 11.9062Z" fill="#804B24"/>
<path d="M14.0716 22.957C14.4347 23.5863 15.1326 23.9122 15.8222 24.0051C16.524 24.1135 17.231 24.1877 17.9399 24.2329C18.6475 24.2929 19.3576 24.3304 20.0678 24.3278C20.4226 24.3233 20.778 24.3142 21.1308 24.2794C21.4837 24.251 21.8397 24.2148 22.179 24.1032C21.5075 24.3555 20.7793 24.3955 20.0698 24.4207C19.3564 24.4388 18.6423 24.4188 17.9302 24.3723C17.2193 24.311 16.5104 24.2213 15.8074 24.0967C15.4539 24.0387 15.1017 23.9289 14.7921 23.7405C14.4837 23.5501 14.2309 23.2758 14.0716 22.957Z" fill="#804B24"/>
<path d="M13.9871 19.8037C14.2593 20.0748 14.6096 20.2535 14.9753 20.3445C15.3391 20.4536 15.7216 20.4297 16.106 20.4471L18.4017 20.5136L20.6961 20.6266C21.4573 20.673 22.232 20.6834 22.9615 20.4336C22.2507 20.7369 21.4521 20.7614 20.6942 20.7195L18.3985 20.653L16.1041 20.5394C15.7268 20.5136 15.3301 20.5317 14.9566 20.4097C14.5876 20.2942 14.2425 20.0909 13.9871 19.8037Z" fill="#804B24"/>
<path d="M22.1881 16.2842C21.6391 16.2855 21.0896 16.301 20.5406 16.2958L18.8939 16.2991L17.2477 16.3216C16.6994 16.3249 16.1499 16.3281 15.6035 16.35H15.599C15.0591 16.341 14.4999 16.5256 14.1109 16.9121C13.7142 17.2948 13.5271 17.8518 13.502 18.4068C13.5065 18.1287 13.5362 17.8479 13.6213 17.5788C13.7078 17.3103 13.8555 17.0593 14.0561 16.8573C14.456 16.4462 15.0327 16.2423 15.6016 16.241H15.5971C16.6969 16.1745 17.7954 16.1738 18.8939 16.1913C19.993 16.2035 21.0908 16.2242 22.1881 16.2842Z" fill="#804B24"/>
<defs>
<linearGradient id="paint0_linear_1316_4598" x1="18.2424" y1="14.0929" x2="10.2359" y2="14.4142" gradientUnits="userSpaceOnUse">
<stop offset="0.00132565" stop-color="#FFCB4B"/>
<stop offset="1" stop-color="#FFD748"/>
</linearGradient>
<linearGradient id="paint1_linear_1316_4598" x1="9.6005" y1="25.1966" x2="9.43952" y2="20.9863" gradientUnits="userSpaceOnUse">
<stop offset="0.00132565" stop-color="#FFCB4B"/>
<stop offset="1" stop-color="#FFD748"/>
</linearGradient>
<linearGradient id="paint2_linear_1316_4598" x1="8.57406" y1="9.34541" x2="14.6055" y2="17.9688" gradientUnits="userSpaceOnUse">
<stop offset="0.00132565" stop-color="#FFCB4B"/>
<stop offset="1" stop-color="#FFD748"/>
</linearGradient>
<linearGradient id="paint3_linear_1316_4598" x1="4.20932" y1="5.90964" x2="19.657" y2="7.06663" gradientUnits="userSpaceOnUse">
<stop offset="0.3118" stop-color="#FFBC47" stop-opacity="0"/>
<stop offset="1" stop-color="#FF8900"/>
</linearGradient>
<linearGradient id="paint4_linear_1316_4598" x1="3.91513" y1="19.6449" x2="24.2005" y2="19.6449" gradientUnits="userSpaceOnUse">
<stop stop-color="#FFBC47" stop-opacity="0"/>
<stop offset="1" stop-color="#FFA754"/>
</linearGradient>
<linearGradient id="paint5_linear_1316_4598" x1="0.644204" y1="19.6751" x2="40.7202" y2="20.9518" gradientUnits="userSpaceOnUse">
<stop stop-color="#FFBC47" stop-opacity="0"/>
<stop offset="1" stop-color="#C86F34"/>
</linearGradient>
<linearGradient id="paint6_linear_1316_4598" x1="7.01201" y1="24.9112" x2="13.6396" y2="21.3197" gradientUnits="userSpaceOnUse">
<stop stop-color="#FFBC47" stop-opacity="0"/>
<stop offset="1" stop-color="#C86F34"/>
</linearGradient>
<linearGradient id="paint7_linear_1316_4598" x1="14.6042" y1="19.813" x2="20.1308" y2="19.0872" gradientUnits="userSpaceOnUse">
<stop stop-color="#643800" stop-opacity="0"/>
<stop offset="1" stop-color="#643800"/>
</linearGradient>
<linearGradient id="paint8_linear_1316_4598" x1="4.79578" y1="7.61145" x2="5.99449" y2="27.4599" gradientUnits="userSpaceOnUse">
<stop stop-color="#FFBC47" stop-opacity="0"/>
<stop offset="1" stop-color="#FFA754"/>
</linearGradient>
<linearGradient id="paint9_linear_1316_4598" x1="23.1447" y1="13.9862" x2="15.3023" y2="13.9862" gradientUnits="userSpaceOnUse">
<stop offset="0.00132565" stop-color="#FFBC47"/>
<stop offset="1" stop-color="#FFD748"/>
</linearGradient>
<linearGradient id="paint10_linear_1316_4598" x1="23.1446" y1="22.2749" x2="15.2979" y2="22.2749" gradientUnits="userSpaceOnUse">
<stop offset="0.00132565" stop-color="#FFBC47"/>
<stop offset="1" stop-color="#FFD748"/>
</linearGradient>
<linearGradient id="paint11_linear_1316_4598" x1="23.1447" y1="25.9884" x2="15.3023" y2="25.9884" gradientUnits="userSpaceOnUse">
<stop offset="0.00132565" stop-color="#FFBC47"/>
<stop offset="1" stop-color="#FFD748"/>
</linearGradient>
<linearGradient id="paint12_linear_1316_4598" x1="14.245" y1="14.0256" x2="18.3298" y2="13.9325" gradientUnits="userSpaceOnUse">
<stop offset="0.00132565" stop-color="#FFCB4B"/>
<stop offset="1" stop-color="#FFD748"/>
</linearGradient>
<linearGradient id="paint13_linear_1316_4598" x1="21.3883" y1="22.3301" x2="17.2245" y2="22.3301" gradientUnits="userSpaceOnUse">
<stop offset="0.00132565" stop-color="#FFCB4B"/>
<stop offset="1" stop-color="#FFD748"/>
</linearGradient>
<linearGradient id="paint14_linear_1316_4598" x1="21.3883" y1="25.9876" x2="17.2245" y2="25.9876" gradientUnits="userSpaceOnUse">
<stop offset="0.00132565" stop-color="#FFCB4B"/>
<stop offset="1" stop-color="#FFD748"/>
</linearGradient>
<linearGradient id="paint15_linear_1316_4598" x1="16.3057" y1="13.9277" x2="14.084" y2="13.9277" gradientUnits="userSpaceOnUse">
<stop offset="0.00132565" stop-color="#FBA23B" stop-opacity="0"/>
<stop offset="1" stop-color="#FBA23B"/>
</linearGradient>
<linearGradient id="paint16_linear_1316_4598" x1="15.9065" y1="13.9935" x2="13.3515" y2="13.9935" gradientUnits="userSpaceOnUse">
<stop offset="0.00132565" stop-color="#FFBC47"/>
<stop offset="1" stop-color="#E89043"/>
</linearGradient>
<radialGradient id="paint17_radial_1316_4598" cx="0" cy="0" r="1" gradientUnits="userSpaceOnUse" gradientTransform="translate(9.72147 23.5521) rotate(23.5251) scale(3.11897 1.4481)">
<stop stop-color="#FBE07A"/>
<stop offset="1" stop-color="#FFD748" stop-opacity="0"/>
</radialGradient>
<radialGradient id="paint18_radial_1316_4598" cx="0" cy="0" r="1" gradientUnits="userSpaceOnUse" gradientTransform="translate(19.1579 14.005) rotate(2.02718) scale(2.66865 1.75152)">
<stop stop-color="#FBE07A"/>
<stop offset="1" stop-color="#FFD748"/>
</radialGradient>
<radialGradient id="paint19_radial_1316_4598" cx="0" cy="0" r="1" gradientUnits="userSpaceOnUse" gradientTransform="translate(19.0287 22.6061) rotate(-0.0544055) scale(2.86596 1.54497)">
<stop stop-color="#FBE07A"/>
<stop offset="1" stop-color="#FFD748" stop-opacity="0"/>
</radialGradient>
<radialGradient id="paint20_radial_1316_4598" cx="0" cy="0" r="1" gradientUnits="userSpaceOnUse" gradientTransform="translate(18.0372 26.0783) rotate(-0.0539601) scale(2.62402 1.6423)">
<stop stop-color="#FBE07A"/>
<stop offset="1" stop-color="#FFD748" stop-opacity="0"/>
</radialGradient>
<linearGradient id="paint21_linear_1316_4598" x1="16.5717" y1="22.2293" x2="13.3518" y2="22.2293" gradientUnits="userSpaceOnUse">
<stop offset="0.00132565" stop-color="#FBA23B" stop-opacity="0"/>
<stop offset="1" stop-color="#FBA23B"/>
</linearGradient>
<linearGradient id="paint22_linear_1316_4598" x1="15.8874" y1="22.1169" x2="14.1529" y2="22.1169" gradientUnits="userSpaceOnUse">
<stop offset="0.00132565" stop-color="#FFBC47"/>
<stop offset="1" stop-color="#FBA23B"/>
</linearGradient>
<linearGradient id="paint23_linear_1316_4598" x1="16.4561" y1="26.0101" x2="12.6905" y2="25.3186" gradientUnits="userSpaceOnUse">
<stop offset="0.00132565" stop-color="#FBA23B" stop-opacity="0"/>
<stop offset="1" stop-color="#FBA23B"/>
</linearGradient>
<linearGradient id="paint24_linear_1316_4598" x1="16.0667" y1="25.8858" x2="14.4751" y2="25.8858" gradientUnits="userSpaceOnUse">
<stop offset="0.00132565" stop-color="#FFBC47"/>
<stop offset="1" stop-color="#FBA23B"/>
</linearGradient>
<linearGradient id="paint25_linear_1316_4598" x1="18.6039" y1="13.4932" x2="19.6161" y2="18.3919" gradientUnits="userSpaceOnUse">
<stop stop-color="#FFBC47" stop-opacity="0"/>
<stop offset="1" stop-color="#C86F34"/>
</linearGradient>
<linearGradient id="paint26_linear_1316_4598" x1="19.3728" y1="23.1711" x2="18.2684" y2="19.1866" gradientUnits="userSpaceOnUse">
<stop stop-color="#FFBC47" stop-opacity="0"/>
<stop offset="1" stop-color="#C86F34"/>
</linearGradient>
<linearGradient id="paint27_linear_1316_4598" x1="23.1447" y1="18.4694" x2="15.3023" y2="18.4694" gradientUnits="userSpaceOnUse">
<stop offset="0.00132565" stop-color="#FFBC47"/>
<stop offset="1" stop-color="#FFD748"/>
</linearGradient>
<linearGradient id="paint28_linear_1316_4598" x1="14.9859" y1="18.2511" x2="20.9933" y2="18.4706" gradientUnits="userSpaceOnUse">
<stop offset="0.00132565" stop-color="#FFCB4B"/>
<stop offset="0.7382" stop-color="#FFD748"/>
<stop offset="1" stop-color="#FFCB4B"/>
</linearGradient>
<linearGradient id="paint29_linear_1316_4598" x1="17.3302" y1="18.3883" x2="12.842" y2="18.3883" gradientUnits="userSpaceOnUse">
<stop offset="0.00132565" stop-color="#FBA23B" stop-opacity="0"/>
<stop offset="1" stop-color="#FBA23B"/>
</linearGradient>
<radialGradient id="paint30_radial_1316_4598" cx="0" cy="0" r="1" gradientUnits="userSpaceOnUse" gradientTransform="translate(19.9362 18.398) rotate(-2.73606) scale(2.93456 1.92614)">
<stop stop-color="#FBE07A"/>
<stop offset="1" stop-color="#FFD748" stop-opacity="0"/>
</radialGradient>
<linearGradient id="paint31_linear_1316_4598" x1="15.2439" y1="18.383" x2="13.8269" y2="18.383" gradientUnits="userSpaceOnUse">
<stop offset="0.00132565" stop-color="#FFBC47"/>
<stop offset="1" stop-color="#FBA23B"/>
</linearGradient>
<linearGradient id="paint32_linear_1316_4598" x1="18.9761" y1="17.9499" x2="19.8284" y2="23.3678" gradientUnits="userSpaceOnUse">
<stop stop-color="#FFBC47" stop-opacity="0"/>
<stop offset="1" stop-color="#C86F34"/>
</linearGradient>
<linearGradient id="paint33_linear_1316_4598" x1="18.3853" y1="22.1419" x2="20.5692" y2="26.8802" gradientUnits="userSpaceOnUse">
<stop stop-color="#FFBC47" stop-opacity="0"/>
<stop offset="1" stop-color="#C86F34"/>
</linearGradient>
<linearGradient id="paint34_linear_1316_4598" x1="17.9504" y1="26.3002" x2="18.27" y2="29.2954" gradientUnits="userSpaceOnUse">
<stop stop-color="#FFBC47" stop-opacity="0"/>
<stop offset="1" stop-color="#C86F34"/>
</linearGradient>
<linearGradient id="paint35_linear_1316_4598" x1="18.0258" y1="25.8445" x2="18.0258" y2="23.6779" gradientUnits="userSpaceOnUse">
<stop stop-color="#FFBC47" stop-opacity="0"/>
<stop offset="1" stop-color="#C86F34"/>
</linearGradient>
<linearGradient id="paint36_linear_1316_4598" x1="3.39816" y1="19.8622" x2="-3.39239" y2="30.1228" gradientUnits="userSpaceOnUse">
<stop stop-color="#C86F34" stop-opacity="0"/>
<stop offset="1" stop-color="#C86F34"/>
</linearGradient>
<linearGradient id="paint37_linear_1316_4598" x1="2.94984" y1="22.132" x2="4.06859" y2="27.1239" gradientUnits="userSpaceOnUse">
<stop stop-color="#FFBC47" stop-opacity="0"/>
<stop offset="1" stop-color="#C86F34"/>
</linearGradient>
<linearGradient id="paint38_linear_1316_4598" x1="3.62724" y1="23.0692" x2="3.46742" y2="29.1794" gradientUnits="userSpaceOnUse">
<stop stop-color="#FFBC47" stop-opacity="0"/>
<stop offset="1" stop-color="#C86F34"/>
</linearGradient>
<radialGradient id="paint39_radial_1316_4598" cx="0" cy="0" r="1" gradientUnits="userSpaceOnUse" gradientTransform="translate(13.1028 3.67204) rotate(79.0714) scale(2.8138 1.65065)">
<stop stop-color="#FBE07A"/>
<stop offset="1" stop-color="#FFD748" stop-opacity="0"/>
</radialGradient>
</defs>
</svg>
