<svg width="423" height="336" viewBox="0 0 423 336" fill="none" xmlns="http://www.w3.org/2000/svg">
<path fill-rule="evenodd" clip-rule="evenodd" d="M20.1776 247.753C19.8075 247.778 19.4276 247.803 19.0331 247.824L19.0233 247.804C19.0233 248.404 18.9627 248.794 19.0233 249.174C19.1766 250.13 19.3202 251.087 19.4637 252.044C19.8075 254.332 20.1502 256.618 20.6229 258.874C26.2928 285.904 40.5233 307.084 64.0633 321.734C75.9032 329.104 88.8231 333.544 102.703 335.144C113.793 336.424 124.682 335.514 135.493 332.694C156.373 327.254 173.843 316.634 187.073 299.394C195.463 288.474 201.563 276.444 204.773 263.004C206.833 254.384 207.303 245.604 207.443 236.804C207.507 232.606 207.554 228.407 207.577 224.208C207.602 219.767 207.603 215.325 207.573 210.884C207.563 208.484 208.313 206.694 210.182 205.304C210.52 205.052 210.851 204.786 211.186 204.526C211.674 204.147 212.169 203.781 212.703 203.484C213.7 202.938 214.692 202.38 215.685 201.823C218.525 200.229 221.366 198.633 224.323 197.284C230.732 194.345 237.176 191.476 243.619 188.606C248.927 186.241 254.234 183.877 259.523 181.474C261.383 180.624 262.682 180.604 264.463 181.874C277.493 191.204 291.993 196.944 307.873 199.254C322.932 201.444 337.713 200.274 352.193 195.714C370.413 189.984 385.763 179.814 398.193 165.304C413.203 147.794 421.063 127.384 422.243 104.434C422.913 91.354 420.873 78.584 416.343 66.274C407.392 41.9541 391.453 23.604 368.583 11.544C347.763 0.563997 325.602 -2.54587 302.503 2.05423C283.693 5.79398 267.233 14.334 253.373 27.5943C236.623 43.6241 226.483 63.1441 223.182 86.1543C220.953 101.704 222.383 116.934 227.263 131.854L227.274 131.894C228.043 134.245 228.08 134.359 225.863 135.274C219.153 138.044 212.493 141.004 205.633 143.384C187.693 149.614 169.273 153.874 150.403 156.204C138.233 157.704 126.043 158.524 113.793 157.904C101.403 157.284 89.8924 153.724 79.5233 146.844C69.1327 139.954 62.0526 130.454 58.6424 118.474C56.0526 109.364 56.6629 100.044 58.6424 90.9043C60.243 83.4844 64.2733 77.1841 69.3631 71.6143C78.5829 61.5342 89.703 56.0342 103.743 56.6944C110.657 57.023 117.596 56.9654 124.532 56.9082C127.517 56.8833 130.502 56.8584 133.483 56.8643C134.896 56.8643 136.312 56.8511 137.728 56.8418C139.589 56.8296 141.451 56.8243 143.313 56.8643C147.613 56.9541 149.763 58.9644 150.223 63.2442C150.286 63.8321 150.31 64.4258 150.319 65.0205C150.327 65.5489 150.323 66.0777 150.323 66.604C150.313 86.524 150.283 106.444 150.283 126.364C150.283 126.812 150.301 127.259 150.326 127.73C150.357 128.32 150.399 128.947 150.432 129.654C151.723 129.396 152.835 129.178 153.907 128.966L154.923 128.764C171.773 125.424 187.983 120.154 203.583 112.944C206.503 111.594 207.783 109.804 207.763 106.514C207.694 95.9849 207.67 85.4556 207.661 74.9263C207.653 65.4556 207.658 55.9849 207.653 46.5142V3.79398C207.653 2.86429 207.583 1.93411 207.533 0.854036C207.227 0.835481 206.942 0.815462 206.671 0.796419C206.056 0.752473 205.514 0.714387 204.973 0.714387L180.271 0.720735C155.162 0.726106 130.05 0.731477 104.943 0.753938C93.2127 0.764192 81.6629 2.18411 70.3924 5.57425C54.2831 10.4141 40.1532 18.4942 28.8534 31.1143C21.3534 39.4942 15.0633 48.7344 10.1327 58.8741C4.66293 70.1343 1.21274 81.9942 0.313325 94.4942C-0.457183 105.224 0.162934 115.894 2.51254 126.464C5.25278 138.824 9.6229 150.504 16.2733 161.314C23.5028 173.054 32.8924 182.774 43.9832 190.884C61.7528 203.884 81.6727 211.374 103.513 213.624C112.493 214.544 121.533 214.864 130.543 215.524C135.963 215.914 141.383 216.434 146.653 217.874C150.043 218.794 150.363 219.254 150.363 222.684C150.363 229.164 150.303 235.644 150.333 242.124C150.373 250.094 147.923 257.234 143.283 263.634C138.333 270.454 132.003 275.474 123.633 277.254C117.673 278.514 111.563 278.484 105.483 278.144C104.773 278.104 104.053 277.954 103.363 277.754C91.0028 274.144 82.6825 266.094 77.7928 254.334C77.2127 252.954 77.0633 251.394 76.6532 249.934C76.1424 248.104 75.703 247.774 73.8026 247.614C73.4032 247.574 73.0028 247.574 72.6024 247.574C55.8026 247.594 39.0125 247.624 22.2225 247.654C21.5487 247.661 20.8788 247.706 20.1776 247.753ZM322.263 49.2242C350.373 49.2344 373.203 72.084 373.203 100.234C373.203 128.364 350.343 151.224 322.233 151.224C294.142 151.224 271.273 128.334 271.273 100.214C271.263 72.1241 294.173 49.2242 322.263 49.2242ZM333.602 107.599C339.764 98.2442 345.928 88.8892 352.093 79.5342L351.742 79.0743L285.843 92.0342L285.772 92.3286L285.723 92.5342C286.343 92.9644 286.953 93.4243 287.583 93.834L292.808 97.2403C297.758 100.469 302.704 103.696 307.682 106.884C308.862 107.644 309.442 108.534 309.692 109.914C311.022 117.294 312.432 124.664 313.833 132.044C313.988 132.857 314.163 133.666 314.337 134.474L314.583 135.624C314.673 135.629 314.765 135.638 314.859 135.646C314.942 135.653 315.027 135.66 315.112 135.664C321.277 126.309 327.44 116.954 333.602 107.599Z" fill="#0A6DE4"/>
</svg>
