<svg width="44" height="44" viewBox="0 0 44 44" fill="none" xmlns="http://www.w3.org/2000/svg">
<circle cx="21.8442" cy="22" r="21.625" fill="#FFE500"/>
<path d="M21.8442 37.8564C29.2755 37.8564 35.2997 31.8322 35.2997 24.4009C35.2997 16.9696 29.2755 10.9453 21.8442 10.9453C14.4129 10.9453 8.38863 16.9696 8.38863 24.4009C8.38863 31.8322 14.4129 37.8564 21.8442 37.8564Z" fill="url(#paint0_radial_1252_29804)"/>
<path opacity="0.5" d="M21.8442 37.8564C29.2755 37.8564 35.2997 31.8322 35.2997 24.4009C35.2997 16.9696 29.2755 10.9453 21.8442 10.9453C14.4129 10.9453 8.38863 16.9696 8.38863 24.4009C8.38863 31.8322 14.4129 37.8564 21.8442 37.8564Z" fill="url(#paint1_radial_1252_29804)"/>
<path opacity="0.5" d="M21.8442 37.8564C29.2755 37.8564 35.2997 31.8322 35.2997 24.4009C35.2997 16.9696 29.2755 10.9453 21.8442 10.9453C14.4129 10.9453 8.38863 16.9696 8.38863 24.4009C8.38863 31.8322 14.4129 37.8564 21.8442 37.8564Z" fill="url(#paint2_radial_1252_29804)"/>
<path opacity="0.5" d="M21.8442 37.8564C29.2755 37.8564 35.2997 31.8322 35.2997 24.4009C35.2997 16.9696 29.2755 10.9453 21.8442 10.9453C14.4129 10.9453 8.38863 16.9696 8.38863 24.4009C8.38863 31.8322 14.4129 37.8564 21.8442 37.8564Z" fill="url(#paint3_radial_1252_29804)"/>
<path d="M26.4691 17.6856C26.5943 17.1599 27.2326 16.9659 28.2152 17.1912C29.0476 17.3852 30.7624 18.2614 31.6448 20.1702C31.8075 20.5207 31.4133 20.602 31.2318 20.3579C30.6122 19.5256 28.7409 18.1988 27.0824 17.9985C26.4128 17.9172 26.4691 17.6856 26.4691 17.6856Z" fill="url(#paint4_linear_1252_29804)"/>
<path d="M27.7584 20.7573C27.7584 20.7573 29.9238 21.3581 30.2493 23.1355C30.268 23.2481 30.2743 23.3608 30.2493 23.4734C30.2117 23.6987 29.9614 23.899 29.6109 23.6111C27.4205 21.8588 25.9122 22.2468 24.7982 22.5034C24.3601 22.6035 24.0785 22.1279 24.26 21.7899C24.3163 21.6898 24.3539 21.5834 24.429 21.502C25.593 20.144 27.7584 20.7573 27.7584 20.7573Z" fill="url(#paint5_radial_1252_29804)"/>
<path d="M27.6207 21.2767C27.6207 21.2767 29.3856 21.7649 30.2618 23.3357C30.2618 23.2669 30.2618 23.2043 30.2492 23.1355C29.9238 21.3581 27.7584 20.7573 27.7584 20.7573C27.7584 20.7573 25.593 20.144 24.4289 21.502C24.3851 21.5521 24.3476 21.6084 24.3163 21.6647C25.8558 20.7761 27.6207 21.2767 27.6207 21.2767Z" fill="url(#paint6_linear_1252_29804)"/>
<path d="M17.2192 17.6856C17.0941 17.1599 16.4557 16.9659 15.4731 17.1912C14.6408 17.3852 12.926 18.2614 12.0435 20.1702C11.8808 20.5207 12.2751 20.602 12.4566 20.3579C13.0762 19.5256 14.9474 18.1988 16.6059 17.9985C17.2756 17.9172 17.2192 17.6856 17.2192 17.6856Z" fill="url(#paint7_linear_1252_29804)"/>
<path d="M15.93 20.7573C15.93 20.7573 13.7646 21.3581 13.4391 23.1355C13.4204 23.2481 13.4141 23.3608 13.4391 23.4734C13.4767 23.6987 13.727 23.899 14.0775 23.6111C16.2679 21.8588 17.7762 22.2468 18.8902 22.5034C19.3283 22.6035 19.6099 22.1279 19.4284 21.7899C19.3721 21.6898 19.3346 21.5834 19.2595 21.502C18.0954 20.144 15.93 20.7573 15.93 20.7573Z" fill="url(#paint8_radial_1252_29804)"/>
<path d="M16.068 21.2767C16.068 21.2767 14.3031 21.7649 13.4269 23.3357C13.4269 23.2669 13.4269 23.2043 13.4394 23.1355C13.7649 21.3581 15.9303 20.7573 15.9303 20.7573C15.9303 20.7573 18.0957 20.144 19.2598 21.502C19.3036 21.5521 19.3411 21.6084 19.3724 21.6647C17.8328 20.7761 16.068 21.2767 16.068 21.2767Z" fill="url(#paint9_linear_1252_29804)"/>
<path d="M27.7897 28.3373C27.677 28.3185 27.5644 28.3498 27.483 28.4312C26.0373 29.7893 23.8093 30.5152 22.1321 30.5152H21.8442H21.5563C19.879 30.5152 17.6448 29.7893 16.2054 28.4312C16.124 28.3561 16.0114 28.3185 15.8987 28.3373C15.7861 28.3561 15.7235 28.4875 15.7798 28.5939C17.0127 30.728 19.297 32.0548 21.7753 32.0548H21.8504H21.9255C24.4039 32.0548 26.6882 30.7343 27.9211 28.5939C27.9712 28.4875 27.9086 28.3623 27.7897 28.3373Z" fill="#643800"/>
<path d="M27.7897 28.3373C27.677 28.3185 27.5644 28.3498 27.483 28.4312C26.0373 29.7893 23.8093 30.5152 22.1321 30.5152H21.8442H21.5563C19.879 30.5152 17.6448 29.7893 16.2054 28.4312C16.124 28.3561 16.0114 28.3185 15.8987 28.3373C15.7861 28.3561 15.7235 28.4875 15.7798 28.5939C15.7923 28.6127 15.8048 28.6377 15.8173 28.6565C15.9363 28.5876 16.0552 28.5251 16.1866 28.669C17.5572 30.2086 19.5912 31.1286 21.7691 31.1286H21.8442H21.9193C24.1097 31.1286 26.1562 30.1961 27.5268 28.6377C27.652 28.4938 27.7709 28.5626 27.8835 28.6377C27.8898 28.6252 27.9023 28.6064 27.9086 28.5939C27.9712 28.4875 27.9086 28.3623 27.7897 28.3373Z" fill="url(#paint10_linear_1252_29804)"/>
<defs>
<radialGradient id="paint0_radial_1252_29804" cx="0" cy="0" r="1" gradientUnits="userSpaceOnUse" gradientTransform="translate(19.1968 18.9478) scale(16.2324)">
<stop stop-color="#FFDF30"/>
<stop offset="1" stop-color="#FFB82E"/>
</radialGradient>
<radialGradient id="paint1_radial_1252_29804" cx="0" cy="0" r="1" gradientUnits="userSpaceOnUse" gradientTransform="translate(19.1968 18.9478) scale(12.7707)">
<stop stop-color="#FFE95F"/>
<stop offset="1" stop-color="#FFBB47" stop-opacity="0"/>
</radialGradient>
<radialGradient id="paint2_radial_1252_29804" cx="0" cy="0" r="1" gradientUnits="userSpaceOnUse" gradientTransform="translate(14.5135 27.7482) rotate(-2.7703) scale(5.65974 4.47826)">
<stop stop-color="#FF4C00"/>
<stop offset="0.1542" stop-color="#FF4C00"/>
<stop offset="0.1795" stop-color="#FF4C00"/>
<stop offset="0.3996" stop-color="#FA4C0B" stop-opacity="0.7318"/>
<stop offset="0.7799" stop-color="#EE4B27" stop-opacity="0.2683"/>
<stop offset="1" stop-color="#E64A3A" stop-opacity="0"/>
</radialGradient>
<radialGradient id="paint3_radial_1252_29804" cx="0" cy="0" r="1" gradientUnits="userSpaceOnUse" gradientTransform="translate(29.1679 27.7482) rotate(-177.23) scale(5.65974 4.47826)">
<stop stop-color="#FF4C00"/>
<stop offset="0.1542" stop-color="#FF4C00"/>
<stop offset="0.1795" stop-color="#FF4C00"/>
<stop offset="0.3996" stop-color="#FA4C0B" stop-opacity="0.7318"/>
<stop offset="0.7799" stop-color="#EE4B27" stop-opacity="0.2683"/>
<stop offset="1" stop-color="#E64A3A" stop-opacity="0"/>
</radialGradient>
<linearGradient id="paint4_linear_1252_29804" x1="29.0265" y1="19.2061" x2="29.3474" y2="17.825" gradientUnits="userSpaceOnUse">
<stop offset="0.00132565" stop-color="#3C2200"/>
<stop offset="1" stop-color="#7A4400"/>
</linearGradient>
<radialGradient id="paint5_radial_1252_29804" cx="0" cy="0" r="1" gradientUnits="userSpaceOnUse" gradientTransform="translate(27.4216 21.9855) rotate(15.68) scale(2.41823 1.1666)">
<stop offset="0.00132565" stop-color="#7A4400"/>
<stop offset="1" stop-color="#643800"/>
</radialGradient>
<linearGradient id="paint6_linear_1252_29804" x1="27.9537" y1="20.0793" x2="27.54" y2="21.5859" gradientUnits="userSpaceOnUse">
<stop offset="0.00132565" stop-color="#3C2200"/>
<stop offset="1" stop-color="#512D00"/>
</linearGradient>
<linearGradient id="paint7_linear_1252_29804" x1="14.6615" y1="19.1998" x2="14.3406" y2="17.8187" gradientUnits="userSpaceOnUse">
<stop offset="0.00132565" stop-color="#3C2200"/>
<stop offset="1" stop-color="#7A4400"/>
</linearGradient>
<radialGradient id="paint8_radial_1252_29804" cx="0" cy="0" r="1" gradientUnits="userSpaceOnUse" gradientTransform="translate(16.258 21.9908) rotate(164.32) scale(2.41823 1.1666)">
<stop offset="0.00132565" stop-color="#7A4400"/>
<stop offset="1" stop-color="#643800"/>
</radialGradient>
<linearGradient id="paint9_linear_1252_29804" x1="15.7274" y1="20.0725" x2="16.1411" y2="21.5791" gradientUnits="userSpaceOnUse">
<stop offset="0.00132565" stop-color="#3C2200"/>
<stop offset="1" stop-color="#512D00"/>
</linearGradient>
<linearGradient id="paint10_linear_1252_29804" x1="21.8442" y1="29.2877" x2="21.8442" y2="31.2964" gradientUnits="userSpaceOnUse">
<stop offset="0.00132565" stop-color="#3C2200"/>
<stop offset="1" stop-color="#512D00"/>
</linearGradient>
</defs>
</svg>
