<svg width="20" height="20" viewBox="0 0 20 20" fill="none" xmlns="http://www.w3.org/2000/svg">
<path d="M18.5672 8.3083L12.3172 2.0583C12.2298 1.97084 12.1185 1.91126 11.9973 1.88707C11.876 1.86289 11.7503 1.87521 11.6361 1.92245C11.5219 1.9697 11.4242 2.04976 11.3555 2.15252C11.2868 2.25527 11.2501 2.37609 11.25 2.49971V5.65205C9.22344 5.82549 6.98515 6.81768 5.14375 8.3794C2.92656 10.2606 1.54609 12.6849 1.25625 15.2052C1.2336 15.4011 1.27333 15.5992 1.36978 15.7713C1.46624 15.9433 1.6145 16.0806 1.79348 16.1635C1.97246 16.2464 2.17302 16.2707 2.36664 16.2331C2.56026 16.1954 2.73705 16.0976 2.87187 15.9536C3.73125 15.0388 6.78906 12.1458 11.25 11.8911V14.9997C11.2501 15.1233 11.2868 15.2442 11.3555 15.3469C11.4242 15.4497 11.5219 15.5297 11.6361 15.577C11.7503 15.6242 11.876 15.6365 11.9973 15.6123C12.1185 15.5882 12.2298 15.5286 12.3172 15.4411L18.5672 9.19112C18.6841 9.07395 18.7497 8.91521 18.7497 8.74971C18.7497 8.58421 18.6841 8.42547 18.5672 8.3083ZM12.5 13.4911V11.2497C12.5 11.084 12.4342 10.925 12.3169 10.8078C12.1997 10.6906 12.0408 10.6247 11.875 10.6247C9.68125 10.6247 7.54453 11.1974 5.52422 12.3278C4.49527 12.9061 3.53657 13.6014 2.66719 14.3997C3.12031 12.5372 4.2625 10.7661 5.95234 9.33252C7.7664 7.79424 9.98047 6.87471 11.875 6.87471C12.0408 6.87471 12.1997 6.80886 12.3169 6.69165C12.4342 6.57444 12.5 6.41547 12.5 6.24971V4.00909L17.2414 8.74971L12.5 13.4911Z" fill="#101928"/>
</svg>
