<svg width="17" height="17" viewBox="0 0 17 17" fill="none" xmlns="http://www.w3.org/2000/svg">
<path d="M8.12989 2.20396C6.84431 2.20396 5.5876 2.58518 4.51868 3.29941C3.44976 4.01364 2.61664 5.0288 2.12467 6.21652C1.6327 7.40424 1.50398 8.71118 1.75478 9.97205C2.00559 11.2329 2.62465 12.3911 3.53369 13.3002C4.44273 14.2092 5.60092 14.8283 6.8618 15.0791C8.12268 15.3299 9.42961 15.2012 10.6173 14.7092C11.805 14.2172 12.8202 13.3841 13.5344 12.3152C14.2487 11.2463 14.6299 9.98954 14.6299 8.70397C14.6281 6.98062 13.9427 5.32837 12.7241 4.10978C11.5055 2.89119 9.85323 2.20578 8.12989 2.20396ZM13.6299 8.70397C13.6304 9.40958 13.4946 10.1086 13.2299 10.7627L10.4361 9.04459C10.3174 8.97129 10.1845 8.9238 10.0461 8.90522L8.61989 8.71272C8.42336 8.68709 8.22363 8.72003 8.04575 8.80742C7.86786 8.89481 7.71972 9.03275 7.61989 9.20397H7.07489L6.83739 8.71272C6.77173 8.57593 6.67564 8.45598 6.55647 8.36206C6.43731 8.26813 6.29823 8.20272 6.14989 8.17084L5.64989 8.06271L6.13864 7.20396H7.18301C7.35201 7.20363 7.51818 7.16064 7.66614 7.07896L8.43176 6.65646C8.49903 6.61897 8.56191 6.57411 8.61926 6.52271L10.3011 5.00146C10.4698 4.85035 10.5818 4.64626 10.6189 4.42288C10.6559 4.1995 10.6157 3.97017 10.5049 3.77271L10.4824 3.73209C11.4235 4.17834 12.2188 4.88233 12.7759 5.76237C13.333 6.64241 13.6291 7.6624 13.6299 8.70397ZM9.08676 3.28771L9.62989 4.26021L7.94801 5.78146L7.18301 6.20396H6.13864C5.96285 6.20371 5.7901 6.24979 5.6378 6.33757C5.4855 6.42535 5.35903 6.55173 5.27114 6.70396L4.72551 7.65584L4.09114 5.96584L4.77489 4.34896C5.3801 3.88134 6.07632 3.54527 6.81893 3.36231C7.56155 3.17935 8.3342 3.15351 9.08739 3.28646L9.08676 3.28771ZM2.62989 8.70397C2.62905 7.88648 2.81144 7.07919 3.16364 6.34146L3.87239 8.23334C3.93145 8.38998 4.02889 8.52929 4.15578 8.63848C4.28267 8.74768 4.43494 8.82328 4.59864 8.85834L5.93801 9.14647L6.17614 9.64147C6.25878 9.80982 6.38685 9.95171 6.54589 10.0511C6.70493 10.1505 6.88859 10.2035 7.07614 10.204H7.16864L6.71676 11.2183C6.63714 11.397 6.61164 11.595 6.64341 11.7879C6.67518 11.9809 6.76283 12.1603 6.89551 12.304L6.90426 12.3127L8.12989 13.5752L8.00864 14.2002C6.57228 14.1668 5.20586 13.5733 4.20096 12.5465C3.19606 11.5196 2.63227 10.1407 2.62989 8.70397ZM9.04114 14.1277L9.11176 13.7646C9.14079 13.6103 9.13329 13.4514 9.08988 13.3005C9.04647 13.1497 8.96835 13.0111 8.86176 12.8958C8.85869 12.8931 8.85577 12.8902 8.85301 12.8871L7.62989 11.6252L8.48614 9.70397L9.91239 9.89647L12.7699 11.654C12.3559 12.3041 11.8101 12.8602 11.1679 13.2863C10.5256 13.7124 9.80108 13.999 9.04114 14.1277Z" fill="#344054"/>
</svg>
