<svg width="35" height="35" viewBox="0 0 35 35" fill="none" xmlns="http://www.w3.org/2000/svg">
<path opacity="0.15" d="M9.78906 32.4672C9.78906 32.7459 10.6012 33.0133 12.0468 33.2104C13.4924 33.4075 15.453 33.5183 17.4974 33.5183C19.5418 33.5183 21.5024 33.4075 22.948 33.2104C24.3936 33.0133 25.2057 32.7459 25.2057 32.4672C25.2057 32.1884 24.3936 31.921 22.948 31.7239C21.5024 31.5268 19.5418 31.416 17.4974 31.416C15.453 31.416 13.4924 31.5268 12.0468 31.7239C10.6012 31.921 9.78906 32.1884 9.78906 32.4672V32.4672Z" fill="#45413C"/>
<path d="M26.7254 21.9017H26.8515C27.3236 21.9017 27.7763 21.7142 28.1101 21.3804C28.4439 21.0466 28.6314 20.5938 28.6314 20.1218C28.6314 19.6497 28.4439 19.197 28.1101 18.8632C27.7763 18.5294 27.3236 18.3418 26.8515 18.3418H25.0716C25.5253 18.3134 25.951 18.1131 26.2622 17.7818C26.5735 17.4504 26.7467 17.013 26.7467 16.5584C26.7467 16.1038 26.5735 15.6664 26.2622 15.335C25.951 15.0037 25.5253 14.8034 25.0716 14.775H20.783C21.1894 13.7659 21.708 12.1752 22.1845 10.6615C22.4076 9.92091 22.3287 9.12211 21.9651 8.43943C21.6014 7.75675 20.9825 7.24562 20.2434 7.01759C20.1477 6.98736 20.047 6.97645 19.947 6.98551C19.8471 6.99458 19.7499 7.02342 19.6613 7.07037C19.5726 7.11732 19.4941 7.18144 19.4304 7.259C19.3668 7.33656 19.3191 7.426 19.2904 7.52213C18.6877 9.58236 18.2392 12.1822 15.0858 14.5297C13.9925 15.3845 13.0457 16.4117 12.2828 17.571C12.0291 17.932 11.6939 18.2281 11.3042 18.4351C10.9145 18.6421 10.4815 18.7542 10.0404 18.7623H7.53865C7.3528 18.7623 7.17456 18.8361 7.04314 18.9675C6.91172 19.099 6.83789 19.2772 6.83789 19.463V27.2555C6.83789 27.4413 6.91172 27.6196 7.04314 27.751C7.17456 27.8824 7.3528 27.9562 7.53865 27.9562H9.28353C11.582 28.0123 12.5771 28.8742 15.4432 28.8742H24.8824C25.3006 28.8742 25.7016 28.7081 25.9973 28.4124C26.293 28.1167 26.4591 27.7157 26.4591 27.2975C26.4591 26.8793 26.293 26.4783 25.9973 26.1826C25.7016 25.8869 25.3006 25.7208 24.8824 25.7208H26.7254C27.2118 25.6913 27.6687 25.4773 28.0027 25.1224C28.3367 24.7676 28.5227 24.2986 28.5227 23.8112C28.5227 23.3239 28.3367 22.8549 28.0027 22.5001C27.6687 22.1452 27.2118 21.9312 26.7254 21.9017V21.9017Z" fill="#FFE500"/>
<path d="M10.7271 20.6467C11.1678 20.6416 11.6009 20.5307 11.9899 20.3234C12.3789 20.1161 12.7124 19.8184 12.9625 19.4555C13.7232 18.2944 14.6702 17.2668 15.7655 16.4142C18.919 14.0877 19.3744 11.5089 19.9701 9.40659C19.9989 9.31125 20.0463 9.22254 20.1095 9.14554C20.1727 9.06855 20.2505 9.00479 20.3383 8.95791C20.4262 8.91104 20.5225 8.88197 20.6217 8.87239C20.7208 8.8628 20.8209 8.87288 20.9161 8.90205C21.4347 9.0572 21.8988 9.35604 22.2546 9.76398C22.2542 9.13731 22.0534 8.5272 21.6814 8.02286C21.3095 7.51851 20.7859 7.14641 20.1873 6.96095C20.0916 6.93072 19.9909 6.91981 19.891 6.92887C19.791 6.93794 19.6939 6.96678 19.6052 7.01373C19.5165 7.06068 19.438 7.1248 19.3744 7.20236C19.3107 7.27992 19.2631 7.36936 19.2343 7.46549C18.6316 9.52572 18.1832 12.1255 15.0297 14.4731C13.9364 15.3278 12.9897 16.3551 12.2267 17.5144C11.9731 17.8754 11.6378 18.1715 11.2481 18.3785C10.8585 18.5855 10.4255 18.6976 9.98429 18.7056H7.53865C7.3528 18.7056 7.17456 18.7795 7.04314 18.9109C6.91172 19.0423 6.83789 19.2206 6.83789 19.4064V20.6117L10.7271 20.6467Z" fill="#FFF48C"/>
<path d="M20.5602 18.8535L20.5181 18.9376C19.9367 20.1051 19.0784 21.1127 18.0182 21.8725C16.958 22.6322 15.728 23.121 14.4355 23.2963" stroke="#45413C" stroke-width="1.2013" stroke-linecap="round" stroke-linejoin="round"/>
<path d="M18.4707 25.7188H26.4593V28.8722H18.4707V25.7188Z" fill="#FFE500"/>
<path d="M17.9922 21.9004H28.6297V25.7195H17.9922V21.9004Z" fill="#FFE500"/>
<path d="M17.9922 18.3438H28.6297V21.9106H17.9922V18.3438Z" fill="#FFE500"/>
<path d="M18.4707 14.7773H26.8518V18.3442H18.4707V14.7773Z" fill="#FFE500"/>
<path d="M20.2506 16.2419H25.0718C25.415 16.2433 25.7505 16.3431 26.0387 16.5294C26.3268 16.7157 26.5555 16.9807 26.6976 17.2931C26.7996 17.0612 26.8521 16.8106 26.8518 16.5573C26.8518 16.0852 26.6642 15.6325 26.3304 15.2987C25.9966 14.9649 25.5439 14.7773 25.0718 14.7773H20.2506C19.7786 14.7773 19.3258 14.9649 18.992 15.2987C18.6582 15.6325 18.4707 16.0852 18.4707 16.5573C18.4704 16.8106 18.5229 17.0612 18.6249 17.2931C18.767 16.9807 18.9956 16.7157 19.2838 16.5294C19.5719 16.3431 19.9075 16.2433 20.2506 16.2419Z" fill="#FFF48C"/>
<path d="M18.4707 25.7188H26.4593V28.8722H18.4707V25.7188Z" stroke="#45413C" stroke-width="1.2013" stroke-linecap="round" stroke-linejoin="round"/>
<path d="M17.9922 21.9004H28.6297V25.7195H17.9922V21.9004Z" stroke="#45413C" stroke-width="1.2013" stroke-linecap="round" stroke-linejoin="round"/>
<path d="M17.9922 18.3438H28.6297V21.9106H17.9922V18.3438Z" stroke="#45413C" stroke-width="1.2013" stroke-linecap="round" stroke-linejoin="round"/>
<path d="M18.4707 14.7773H26.8518V18.3442H18.4707V14.7773Z" stroke="#45413C" stroke-width="1.2013" stroke-linecap="round" stroke-linejoin="round"/>
<path d="M26.7254 21.9017H26.8515C27.3236 21.9017 27.7763 21.7142 28.1101 21.3804C28.4439 21.0466 28.6314 20.5938 28.6314 20.1218C28.6314 19.6497 28.4439 19.197 28.1101 18.8632C27.7763 18.5294 27.3236 18.3418 26.8515 18.3418H25.0716C25.5253 18.3134 25.951 18.1131 26.2622 17.7818C26.5735 17.4504 26.7467 17.013 26.7467 16.5584C26.7467 16.1038 26.5735 15.6664 26.2622 15.335C25.951 15.0037 25.5253 14.8034 25.0716 14.775H20.783C21.1894 13.7659 21.708 12.1752 22.1845 10.6615C22.4076 9.92091 22.3287 9.12211 21.9651 8.43943C21.6014 7.75675 20.9825 7.24562 20.2434 7.01759C20.1477 6.98736 20.047 6.97645 19.947 6.98551C19.8471 6.99458 19.7499 7.02342 19.6613 7.07037C19.5726 7.11732 19.4941 7.18144 19.4304 7.259C19.3668 7.33656 19.3191 7.426 19.2904 7.52213C18.6877 9.58236 18.2392 12.1822 15.0858 14.5297C13.9925 15.3845 13.0457 16.4117 12.2828 17.571C12.0291 17.932 11.6939 18.2281 11.3042 18.4351C10.9145 18.6421 10.4815 18.7542 10.0404 18.7623H7.53865C7.3528 18.7623 7.17456 18.8361 7.04314 18.9675C6.91172 19.099 6.83789 19.2772 6.83789 19.463V27.2555C6.83789 27.4413 6.91172 27.6196 7.04314 27.751C7.17456 27.8824 7.3528 27.9562 7.53865 27.9562H9.28353C11.582 28.0123 12.5771 28.8742 15.4432 28.8742H24.8824C25.3006 28.8742 25.7016 28.7081 25.9973 28.4124C26.293 28.1167 26.4591 27.7157 26.4591 27.2975C26.4591 26.8793 26.293 26.4783 25.9973 26.1826C25.7016 25.8869 25.3006 25.7208 24.8824 25.7208H26.7254C27.2118 25.6913 27.6687 25.4773 28.0027 25.1224C28.3367 24.7676 28.5227 24.2986 28.5227 23.8112C28.5227 23.3239 28.3367 22.8549 28.0027 22.5001C27.6687 22.1452 27.2118 21.9312 26.7254 21.9017V21.9017Z" stroke="#45413C" stroke-width="1.2013" stroke-linecap="round" stroke-linejoin="round"/>
</svg>
