<?xml version="1.0" encoding="UTF-8"?>
<svg xmlns="http://www.w3.org/2000/svg" xmlns:xlink="http://www.w3.org/1999/xlink" width="29px" height="29px" viewBox="0 0 29 28" version="1.1">
<g id="surface1">
<path style=" stroke:none;fill-rule:nonzero;fill:rgb(0%,0%,0%);fill-opacity:1;" d="M 10.511719 15.574219 L 26.78125 15.574219 L 26.78125 14.304688 L 21.320312 14.304688 L 21.296875 14.351562 L 21.160156 14.304688 L 10.511719 14.304688 Z M 10.445312 0.242188 C 12.054688 0.242188 13.34375 1.488281 13.34375 3.039062 C 13.34375 4.59375 12.054688 5.839844 10.445312 5.839844 C 8.835938 5.839844 7.542969 4.59375 7.542969 3.039062 C 7.542969 1.488281 8.835938 0.242188 10.445312 0.242188 Z M 23.949219 6.210938 L 20.324219 3.566406 L 19.890625 4.898438 L 17.761719 4.222656 L 15.359375 11.222656 L 11.417969 11.265625 L 8.089844 5.820312 C 7.839844 5.382812 7.339844 5.140625 6.773438 5.140625 C 6.707031 5.140625 6.503906 5.164062 6.410156 5.183594 C 6.34375 5.207031 6.230469 5.226562 6.140625 5.25 C 3.671875 6.039062 1.746094 9.757812 1.746094 13.628906 C 1.722656 14.789062 1.746094 15.773438 1.8125 16.710938 C 1.722656 17.828125 2.402344 18.945312 3.535156 19.335938 C 3.851562 19.425781 4.125 19.492188 4.417969 19.492188 L 11.734375 19.492188 L 11.734375 26.074219 C 11.734375 26.972656 12.484375 27.671875 13.390625 27.671875 C 14.320312 27.671875 15.042969 26.949219 15.042969 26.074219 L 15.042969 17.9375 C 15.042969 17.523438 14.886719 17.105469 14.546875 16.820312 C 14.207031 16.492188 13.773438 16.320312 13.390625 16.320312 L 8.496094 16.320312 L 8.496094 12.796875 L 5.957031 8.640625 C 5.867188 8.488281 5.9375 8.246094 6.070312 8.160156 C 6.230469 8.070312 6.480469 8.136719 6.570312 8.269531 L 9.46875 13.101562 C 9.695312 13.476562 10.082031 13.738281 10.558594 13.738281 L 15.585938 13.738281 C 16.132812 13.738281 16.585938 13.386719 16.789062 12.949219 L 21.136719 14.328125 L 21.296875 14.371094 L 21.320312 14.328125 L 24.082031 6.257812 Z M 21.003906 13.78125 L 16.878906 12.46875 C 16.878906 11.898438 16.449219 11.398438 15.90625 11.289062 L 18.101562 4.8125 L 23.472656 6.519531 Z M 21.003906 13.78125 "/>
</g>
</svg>
