<svg width="88" height="88" viewBox="0 0 88 88" fill="none" xmlns="http://www.w3.org/2000/svg">
<g filter="url(#filter0_dd_2428_14281)">
<rect x="20" width="48" height="48" rx="24" fill="#E7F0FF"/>
<path d="M44.6255 16.3574H37.7505C37.419 16.3574 37.101 16.4891 36.8666 16.7235C36.6322 16.958 36.5005 17.2759 36.5005 17.6074V30.1074C36.5005 30.4389 36.6322 30.7569 36.8666 30.9913C37.101 31.2257 37.419 31.3574 37.7505 31.3574H50.2505C50.582 31.3574 50.8999 31.2257 51.1344 30.9913C51.3688 30.7569 51.5005 30.4389 51.5005 30.1074V23.2324C51.5005 23.0667 51.4346 22.9077 51.3174 22.7905C51.2002 22.6733 51.0412 22.6074 50.8755 22.6074C50.7097 22.6074 50.5508 22.6733 50.4335 22.7905C50.3163 22.9077 50.2505 23.0667 50.2505 23.2324V30.1074H37.7505V17.6074H44.6255C44.7912 17.6074 44.9502 17.5416 45.0674 17.4244C45.1846 17.3072 45.2505 17.1482 45.2505 16.9824C45.2505 16.8167 45.1846 16.6577 45.0674 16.5405C44.9502 16.4233 44.7912 16.3574 44.6255 16.3574ZM48.5583 15.9152L41.0583 23.4152C41.0003 23.4733 40.9543 23.5423 40.9229 23.6181C40.8915 23.694 40.8754 23.7753 40.8755 23.8574V26.3574C40.8755 26.5232 40.9413 26.6822 41.0585 26.7994C41.1758 26.9166 41.3347 26.9824 41.5005 26.9824H44.0005C44.0826 26.9825 44.1639 26.9664 44.2398 26.935C44.3156 26.9036 44.3846 26.8576 44.4427 26.7996L51.9427 19.2996C52.0008 19.2416 52.0469 19.1726 52.0783 19.0968C52.1098 19.0209 52.126 18.9396 52.126 18.8574C52.126 18.7753 52.1098 18.694 52.0783 18.6181C52.0469 18.5422 52.0008 18.4733 51.9427 18.4152L49.4427 15.9152C49.3846 15.8571 49.3157 15.811 49.2398 15.7796C49.1639 15.7481 49.0826 15.7319 49.0005 15.7319C48.9183 15.7319 48.837 15.7481 48.7611 15.7796C48.6853 15.811 48.6163 15.8571 48.5583 15.9152ZM49.0005 17.2434L50.6169 18.8574L49.6255 19.8488L48.0091 18.2324L49.0005 17.2434Z" fill="#0D6EFD"/>
</g>
<defs>
<filter id="filter0_dd_2428_14281" x="0" y="0" width="88" height="88" filterUnits="userSpaceOnUse" color-interpolation-filters="sRGB">
<feFlood flood-opacity="0" result="BackgroundImageFix"/>
<feColorMatrix in="SourceAlpha" type="matrix" values="0 0 0 0 0 0 0 0 0 0 0 0 0 0 0 0 0 0 127 0" result="hardAlpha"/>
<feOffset dy="10"/>
<feGaussianBlur stdDeviation="5"/>
<feColorMatrix type="matrix" values="0 0 0 0 0 0 0 0 0 0 0 0 0 0 0 0 0 0 0.04 0"/>
<feBlend mode="normal" in2="BackgroundImageFix" result="effect1_dropShadow_2428_14281"/>
<feColorMatrix in="SourceAlpha" type="matrix" values="0 0 0 0 0 0 0 0 0 0 0 0 0 0 0 0 0 0 127 0" result="hardAlpha"/>
<feMorphology radius="5" operator="erode" in="SourceAlpha" result="effect2_dropShadow_2428_14281"/>
<feOffset dy="20"/>
<feGaussianBlur stdDeviation="12.5"/>
<feColorMatrix type="matrix" values="0 0 0 0 0 0 0 0 0 0 0 0 0 0 0 0 0 0 0.1 0"/>
<feBlend mode="normal" in2="effect1_dropShadow_2428_14281" result="effect2_dropShadow_2428_14281"/>
<feBlend mode="normal" in="SourceGraphic" in2="effect2_dropShadow_2428_14281" result="shape"/>
</filter>
</defs>
</svg>
