<?xml version="1.0" encoding="iso-8859-1"?>
<!-- Uploaded to: SVG Repo, www.svgrepo.com, Generator: SVG Repo Mixer Tools -->
<svg fill="#000000" version="1.1" id="Layer_1" xmlns="http://www.w3.org/2000/svg" xmlns:xlink="http://www.w3.org/1999/xlink" 
	 viewBox="0 0 216.705 216.705" xml:space="preserve">
<g>
	<g>
		<g>
			<path d="M203.53,62.649l-2.502-14.192c-1.852-10.495-11.67-18.111-23.346-18.111c-1.567,0-3.154,0.139-4.715,0.414L20.623,57.62
				C7.289,59.97-1.824,71.737,0.31,83.848l0.17,0.959v78.23c0,12.86,11.54,23.322,25.727,23.322h164.771
				c14.187,0,25.727-10.462,25.727-23.322V82.986C216.705,74.259,211.382,66.647,203.53,62.649z M175.265,43.784
				c0.802-0.141,1.616-0.214,2.418-0.214c5.246,0,9.587,3.022,10.321,7.182l1.572,8.91H85.211L175.265,43.784z M203.479,163.039
				c0,5.566-5.608,10.096-12.501,10.096H26.207c-6.893,0-12.501-4.53-12.501-10.096V82.986c0-5.566,5.608-10.096,12.501-10.096
				h164.771c6.893,0,12.501,4.53,12.501,10.096V163.039z"/>
			<rect x="59.252" y="128.702" width="13.226" height="11.383"/>
			<rect x="59.252" y="151.471" width="13.226" height="11.383"/>
			<rect x="59.252" y="83.171" width="13.226" height="11.383"/>
			<rect x="59.252" y="105.936" width="13.226" height="11.383"/>
			<path d="M160.066,98.668l-9.591,10.25l-30.427-9.108l-5.138,5.136c-0.56,0.564-0.56,1.477,0.002,2.037l24.669,13.579
				l-12.406,12.62l-9.593-1.955l-3.201,3.203c-0.425,0.421-0.425,1.111,0,1.536l18.109,18.109c0.423,0.421,1.113,0.421,1.536-0.004
				l3.201-3.199l-2.004-9.774l12.571-12.4l13.671,24.843c0.564,0.564,1.477,0.564,2.039,0l5.136-5.136l-9.168-30.63l10.175-9.521
				c2.802-2.802,2.923-7.217,0.278-9.867C167.281,95.738,162.868,95.866,160.066,98.668z"/>
		</g>
	</g>
</g>
</svg>