<svg width="18" height="18" viewBox="0 0 18 18" fill="none" xmlns="http://www.w3.org/2000/svg">
<path d="M9.56227 3.65625C9.56227 3.26687 9.67774 2.88623 9.89407 2.56247C10.1104 2.23871 10.4179 1.98637 10.7776 1.83736C11.1374 1.68835 11.5332 1.64937 11.9151 1.72533C12.297 1.80129 12.6478 1.9888 12.9231 2.26413C13.1985 2.53947 13.386 2.89027 13.4619 3.27217C13.5379 3.65407 13.4989 4.04992 13.3499 4.40966C13.2009 4.7694 12.9486 5.07688 12.6248 5.29321C12.301 5.50954 11.9204 5.625 11.531 5.625C11.0089 5.625 10.5081 5.41758 10.1389 5.04837C9.76969 4.67915 9.56227 4.1784 9.56227 3.65625ZM17.9295 14.3438C17.88 14.4295 17.8087 14.5006 17.7229 14.55C17.6371 14.5994 17.5398 14.6253 17.4408 14.625H0.562274C0.46314 14.625 0.365777 14.5987 0.280047 14.5489C0.194317 14.4992 0.123265 14.4276 0.0740883 14.3415C0.0249116 14.2555 -0.00064318 14.1579 1.22995e-05 14.0588C0.000667779 13.9596 0.0275103 13.8625 0.0778209 13.777L5.21766 5.05406C5.31701 4.88522 5.45873 4.74524 5.62879 4.64799C5.79886 4.55073 5.99137 4.49957 6.18727 4.49957C6.38318 4.49957 6.57569 4.55073 6.74575 4.64799C6.91582 4.74524 7.05754 4.88522 7.15688 5.05406L10.3097 10.4063L12.1491 7.30266C12.2477 7.13374 12.389 6.99375 12.5588 6.89674C12.7286 6.79973 12.921 6.74912 13.1166 6.75C13.3121 6.749 13.5045 6.7994 13.6744 6.89614C13.8443 6.99289 13.9858 7.13259 14.0848 7.30125L17.921 13.7756C17.9727 13.8611 18.0008 13.9587 18.0022 14.0585C18.0037 14.1584 17.9786 14.2568 17.9295 14.3438ZM4.53001 8.4375H7.84454L6.18727 5.625L4.53001 8.4375Z" fill="#344054"/>
</svg>
