<svg width="17" height="16" viewBox="0 0 17 16" fill="none" xmlns="http://www.w3.org/2000/svg">
<path d="M14.1769 6.48562L9.17688 1.76813C9.17443 1.76599 9.17213 1.7637 9.17 1.76125C8.98591 1.59383 8.74602 1.50106 8.49719 1.50106C8.24836 1.50106 8.00846 1.59383 7.82438 1.76125L7.8175 1.76813L2.82312 6.48562C2.72125 6.5793 2.63993 6.69311 2.58431 6.81984C2.52869 6.94658 2.49998 7.08347 2.5 7.22188V13C2.5 13.2652 2.60536 13.5196 2.79289 13.7071C2.98043 13.8946 3.23478 14 3.5 14H6.5C6.76522 14 7.01957 13.8946 7.20711 13.7071C7.39464 13.5196 7.5 13.2652 7.5 13V10H9.5V13C9.5 13.2652 9.60536 13.5196 9.79289 13.7071C9.98043 13.8946 10.2348 14 10.5 14H13.5C13.7652 14 14.0196 13.8946 14.2071 13.7071C14.3946 13.5196 14.5 13.2652 14.5 13V7.22188C14.5 7.08347 14.4713 6.94658 14.4157 6.81984C14.3601 6.69311 14.2788 6.5793 14.1769 6.48562ZM13.5 13H10.5V10C10.5 9.73478 10.3946 9.48043 10.2071 9.29289C10.0196 9.10536 9.76522 9 9.5 9H7.5C7.23478 9 6.98043 9.10536 6.79289 9.29289C6.60536 9.48043 6.5 9.73478 6.5 10V13H3.5V7.22188L3.50688 7.21562L8.5 2.5L13.4937 7.21438L13.5006 7.22063L13.5 13Z" fill="#343330"/>
</svg>
