<svg width="16" height="14" viewBox="0 0 16 14" fill="none" xmlns="http://www.w3.org/2000/svg">
<path d="M13.625 1.9375H11.6759L10.7176 0.500313C10.6662 0.423357 10.5967 0.360252 10.5151 0.31659C10.4336 0.272928 10.3425 0.250056 10.25 0.25H5.75C5.65749 0.250056 5.56642 0.272928 5.48486 0.31659C5.4033 0.360252 5.33377 0.423357 5.28242 0.500313L4.32336 1.9375H2.375C1.92745 1.9375 1.49822 2.11529 1.18176 2.43176C0.86529 2.74822 0.6875 3.17745 0.6875 3.625V11.5C0.6875 11.9476 0.86529 12.3768 1.18176 12.6932C1.49822 13.0097 1.92745 13.1875 2.375 13.1875H13.625C14.0726 13.1875 14.5018 13.0097 14.8182 12.6932C15.1347 12.3768 15.3125 11.9476 15.3125 11.5V3.625C15.3125 3.17745 15.1347 2.74822 14.8182 2.43176C14.5018 2.11529 14.0726 1.9375 13.625 1.9375ZM10.25 8.125H8.5625V9.8125C8.5625 9.96168 8.50324 10.1048 8.39775 10.2102C8.29226 10.3157 8.14918 10.375 8 10.375C7.85082 10.375 7.70774 10.3157 7.60225 10.2102C7.49676 10.1048 7.4375 9.96168 7.4375 9.8125V8.125H5.75C5.60082 8.125 5.45774 8.06574 5.35225 7.96025C5.24676 7.85476 5.1875 7.71168 5.1875 7.5625C5.1875 7.41332 5.24676 7.27024 5.35225 7.16475C5.45774 7.05926 5.60082 7 5.75 7H7.4375V5.3125C7.4375 5.16332 7.49676 5.02024 7.60225 4.91475C7.70774 4.80926 7.85082 4.75 8 4.75C8.14918 4.75 8.29226 4.80926 8.39775 4.91475C8.50324 5.02024 8.5625 5.16332 8.5625 5.3125V7H10.25C10.3992 7 10.5423 7.05926 10.6477 7.16475C10.7532 7.27024 10.8125 7.41332 10.8125 7.5625C10.8125 7.71168 10.7532 7.85476 10.6477 7.96025C10.5423 8.06574 10.3992 8.125 10.25 8.125Z" fill="#0D6EFD"/>
</svg>
