<svg width="24" height="24" viewBox="0 0 24 24" fill="none" xmlns="http://www.w3.org/2000/svg">
<path d="M21.3739 12.0003C21.3739 12.2987 21.2554 12.5848 21.0444 12.7958C20.8335 13.0068 20.5473 13.1253 20.2489 13.1253H6.46768L11.2977 17.9543C11.509 18.1657 11.6278 18.4523 11.6278 18.7512C11.6278 19.0501 11.509 19.3367 11.2977 19.5481C11.0863 19.7594 10.7997 19.8782 10.5008 19.8782C10.2019 19.8782 9.91528 19.7594 9.70393 19.5481L2.95393 12.7981C2.84905 12.6936 2.76584 12.5694 2.70906 12.4326C2.65228 12.2959 2.62305 12.1493 2.62305 12.0012C2.62305 11.8532 2.65228 11.7065 2.70906 11.5698C2.76584 11.4331 2.84905 11.3089 2.95393 11.2043L9.70393 4.45434C9.80858 4.3497 9.93282 4.26669 10.0695 4.21005C10.2063 4.15342 10.3528 4.12427 10.5008 4.12427C10.6488 4.12427 10.7953 4.15342 10.9321 4.21005C11.0688 4.26669 11.193 4.3497 11.2977 4.45434C11.4023 4.55899 11.4853 4.68323 11.542 4.81995C11.5986 4.95668 11.6278 5.10323 11.6278 5.25122C11.6278 5.39921 11.5986 5.54576 11.542 5.68248C11.4853 5.81921 11.4023 5.94345 11.2977 6.04809L6.46768 10.8753H20.2489C20.5473 10.8753 20.8335 10.9938 21.0444 11.2048C21.2554 11.4158 21.3739 11.7019 21.3739 12.0003Z" fill="#343330"/>
</svg>
