<svg width="17" height="17" viewBox="0 0 17 17" fill="none" xmlns="http://www.w3.org/2000/svg">
<path d="M14.3646 7.23476L9.36458 12.2348C9.2949 12.3047 9.21211 12.3602 9.12095 12.398C9.02978 12.4359 8.93204 12.4554 8.83333 12.4554C8.73462 12.4554 8.63688 12.4359 8.54572 12.398C8.45455 12.3602 8.37176 12.3047 8.30208 12.2348L3.30208 7.23476C3.16119 7.09386 3.08203 6.90277 3.08203 6.70351C3.08203 6.50425 3.16119 6.31316 3.30208 6.17226C3.44298 6.03136 3.63407 5.95221 3.83333 5.95221C4.03259 5.95221 4.22369 6.03136 4.36458 6.17226L8.83396 10.6416L13.3033 6.17164C13.4442 6.03074 13.6353 5.95158 13.8346 5.95158C14.0338 5.95158 14.2249 6.03074 14.3658 6.17164C14.5067 6.31253 14.5859 6.50363 14.5859 6.70289C14.5859 6.90214 14.5067 7.09324 14.3658 7.23414L14.3646 7.23476Z" fill="#344054"/>
</svg>
