<svg width="44" height="46" viewBox="0 0 44 46" fill="none" xmlns="http://www.w3.org/2000/svg">
<g clip-path="url(#clip0_2_25425)">
<rect width="44" height="46" rx="4" fill="#E7F6EC"/>
<path d="M23.1589 33.8726C23.1589 33.8726 22.0885 33.9627 21.773 33.7735C21.4574 33.5843 20.6137 32.9162 20.2275 32.8418C20.1071 32.8187 19.1604 32.7038 18.9576 32.8683C18.8203 32.9794 19.0125 33.4275 19.493 33.495C20.328 33.6124 20.6789 34.0247 20.9489 34.2813C21.4093 34.7186 21.7021 34.9345 21.4334 34.8322C21.4334 34.8322 20.6549 34.3967 20.2819 34.2893C20.1812 34.2603 19.3537 34.1695 19.2018 34.3461C19.1196 34.4417 19.1615 34.8642 19.8978 35.0068C20.3817 35.1004 20.5722 35.4713 20.8058 35.7819C21.0079 36.0507 21.3678 37.1048 21.3678 37.1048L22.5976 36.3832L23.1589 33.873V33.8726Z" fill="#CD8461"/>
<path d="M18.8721 43.0085C19.1002 42.6844 19.1141 38.8927 19.0074 38.6024C18.7433 37.8829 18.9737 36.0342 19.3869 34.6111C19.612 33.8349 19.664 32.8257 19.6628 32.4361C19.6617 32.1295 19.5341 30.9126 19.6815 30.6854C19.7684 30.5518 20.3177 30.6425 20.5054 30.7987C20.9077 31.1332 21.0439 31.8616 21.1182 33.078C21.1888 34.2369 21.8836 35.1196 22.1774 34.5214C22.9522 32.9442 20.0969 30.8784 20.4886 30.1502C20.5939 29.9545 21.2934 30.3393 21.8608 30.7474C22.094 30.9153 23.401 32.1284 23.8341 32.7742C24.1049 33.1783 25.3407 36.1437 25.2898 37.3597C25.2663 37.9195 23.2676 41.1336 23.1932 41.2239L23.1928 41.2243C23.0529 41.8752 23.3937 43.4097 23.3522 43.4915C21.5745 43.2382 20.1006 43.5564 18.8722 43.0081L18.8721 43.0085Z" fill="#EDBE94"/>
<path d="M27.0752 25.0555L19.7231 22.5039L16.4243 32.0088L23.7764 34.5605L27.0752 25.0555Z" fill="#036B26"/>
<path d="M23.7291 29.4107C23.3392 30.5343 22.1122 31.1288 20.9888 30.7389C19.8653 30.3489 19.2707 29.122 19.6607 27.9986C19.7881 27.6318 20.0045 27.3213 20.2777 27.0831C20.5452 26.8497 20.8669 26.6858 21.2122 26.6059C21.5937 26.5177 22.0037 26.5326 22.4009 26.6704C22.7997 26.8087 23.1319 27.0526 23.377 27.3598C23.7086 27.7754 23.8811 28.3069 23.8438 28.8504C23.8311 29.0372 23.7934 29.2253 23.7291 29.4107Z" fill="#E7F6EC"/>
<path d="M23.8436 28.8508C23.8041 28.8519 23.765 28.8416 23.7332 28.8173C23.6816 28.7779 23.6588 28.7128 23.6274 28.6561C23.5959 28.5994 23.5426 28.5434 23.4781 28.5494C23.4238 28.5543 23.3823 28.6035 23.3664 28.6556C23.3505 28.7077 23.354 28.7635 23.3528 28.818C23.3478 29.0704 23.2351 29.3191 23.0487 29.4892C22.9473 29.5818 22.825 29.6526 22.7384 29.7594C22.6397 29.8813 22.5966 30.0391 22.5096 30.1696C22.3434 30.4189 22.0087 30.5419 21.7205 30.4594C21.6954 30.4523 21.6751 30.1808 21.8414 29.8074C21.9016 29.6721 22.1714 29.4638 22.0566 29.2911C22.026 29.2454 21.9322 29.224 21.802 29.1394C21.7916 29.1326 21.6827 28.8886 21.6836 28.6892C21.6845 28.5162 21.7999 28.36 21.9437 28.2642C22.0041 28.2241 22.0723 28.1916 22.1448 28.1881C22.3379 28.1791 22.4792 28.3678 22.6616 28.4319C22.7572 28.4655 22.8616 28.4635 22.9607 28.4847C23.0164 28.4966 23.0826 28.5132 23.124 28.4741C23.1899 28.4116 23.1148 28.2845 23.1731 28.2147C23.1105 28.1752 23.0376 28.143 22.9644 28.1545C22.8913 28.1662 22.8245 28.2375 22.842 28.3094C22.846 28.3261 22.854 28.3434 22.8485 28.3594C22.8402 28.3835 22.8054 28.3883 22.7842 28.3743C22.763 28.3603 22.7528 28.3351 22.7443 28.3112C22.7199 28.2412 22.7019 28.1681 22.6651 28.1038C22.6282 28.0395 22.5676 27.9831 22.4939 27.9746C22.4354 27.9679 22.3775 27.9919 22.3184 27.9928C22.2594 27.9937 22.19 27.9539 22.1967 27.8953C22.2038 27.8342 22.2799 27.8145 22.3365 27.79C22.3879 27.7675 22.4336 27.728 22.4541 27.6757C22.4745 27.6234 22.4655 27.5583 22.4245 27.52C22.3907 27.4884 22.3427 27.4787 22.301 27.4592C22.2591 27.4398 22.2184 27.3993 22.2275 27.3541C22.2381 27.3018 22.3068 27.2841 22.3586 27.297C22.4101 27.3099 22.4568 27.3417 22.5098 27.3474C22.542 27.3507 22.5743 27.3442 22.6065 27.3451C22.7752 27.35 22.9045 27.552 23.0703 27.5198C23.1775 27.499 23.2636 27.3546 23.3768 27.3601C23.7085 27.7757 23.8809 28.3072 23.8436 28.8506V28.8508Z" fill="#5FC381"/>
<path d="M22.9089 29.8572C22.8891 29.8716 22.8692 29.886 22.8494 29.9004C22.8358 29.9103 22.8216 29.9208 22.8128 29.9351C22.7943 29.9655 22.807 30.0103 22.8386 30.0266C22.8702 30.0427 22.9142 30.0266 22.9278 29.9936C22.9363 29.9732 22.9353 29.9473 22.9524 29.9335C22.9883 29.9049 23.089 29.9294 23.0444 29.8603C23.0114 29.8091 22.9482 29.8275 22.9089 29.857V29.8572Z" fill="#5FC381"/>
<path d="M21.3363 27.3308C21.352 27.3937 21.405 27.4695 21.3557 27.5114C21.3112 27.5492 21.2336 27.5069 21.1767 27.5266C21.143 27.538 21.1216 27.57 21.0877 27.5813C21.0587 27.591 21.0242 27.5847 20.9969 27.5974C20.9628 27.6131 20.9506 27.6529 20.9219 27.6762C20.8354 27.7471 20.6818 27.6287 20.5809 27.6808C20.5039 27.7206 20.5159 27.8354 20.5753 27.9015C20.6348 27.9676 20.7232 28.0026 20.799 28.0519C20.8746 28.1011 20.9444 28.1814 20.9271 28.263C20.9094 28.3475 20.8032 28.4162 20.8403 28.4978C20.8518 28.5229 20.8751 28.5416 20.8933 28.5632C20.9407 28.6188 20.9529 28.6962 20.9304 28.7613C20.908 28.8261 20.853 28.8779 20.7866 28.9053C20.7444 28.9226 20.6979 28.9309 20.6555 28.948C20.5408 28.995 20.4716 29.1014 20.4102 29.203C20.3339 29.3291 20.2588 29.4594 20.2327 29.6042C20.224 29.6523 20.2155 29.7087 20.1696 29.7301C20.1155 29.7551 20.0468 29.7099 20.0212 29.6564C19.9956 29.6027 19.997 29.5428 19.9827 29.486C19.9558 29.3791 19.8742 29.2876 19.8462 29.1809C19.7793 28.9259 20.0341 28.6906 19.988 28.4324C19.9784 28.3786 19.9558 28.3266 19.9473 28.2725C19.9307 28.1655 19.9749 28.0547 20.0613 27.9881C20.1542 27.9162 20.2968 27.8849 20.3346 27.7766C20.3763 27.6571 20.2586 27.525 20.2804 27.4C20.2873 27.3601 20.3083 27.3237 20.3147 27.2836C20.3219 27.2375 20.3094 27.1898 20.2954 27.144C20.2894 27.1239 20.2832 27.1034 20.2772 27.0827C20.5447 26.8493 20.8665 26.6853 21.2117 26.6055C21.2147 26.6131 21.217 26.6221 21.2182 26.6325C21.2296 26.7279 21.2442 26.7657 21.337 26.827C21.4181 26.8808 21.4992 26.9345 21.5803 26.9882C21.6253 27.018 21.6768 27.0647 21.6575 27.1106C21.6336 27.1679 21.5423 27.1449 21.4759 27.1495C21.3847 27.1559 21.3152 27.246 21.3363 27.3306V27.3308Z" fill="#5FC381"/>
<path d="M21.8357 27.1275C21.8415 27.1644 21.8352 27.202 21.8369 27.2391C21.8387 27.2764 21.8514 27.3167 21.8834 27.336C21.9083 27.351 21.9405 27.3496 21.9677 27.3391C21.9949 27.3285 22.0179 27.31 22.0398 27.2907C22.0829 27.2531 22.1233 27.2128 22.1612 27.1699C22.182 27.1462 22.2028 27.1199 22.2071 27.0886C22.211 27.0609 22.2011 27.0331 22.1905 27.0072C22.1758 26.9711 22.1585 26.9349 22.1297 26.9086C22.0884 26.8711 22.0299 26.8598 21.974 26.8564C21.9281 26.8536 21.6768 26.8529 21.6738 26.9154C21.6726 26.94 21.7562 26.9909 21.773 27.0094C21.8034 27.043 21.8284 27.0817 21.8355 27.1273L21.8357 27.1275Z" fill="#5FC381"/>
<path d="M20.3832 24.0793L20.2799 24.377L20.1406 24.3286L20.4187 23.5273L20.7253 23.6337C20.7719 23.65 20.811 23.6706 20.8428 23.6957C20.8746 23.721 20.899 23.7493 20.9159 23.7807C20.9331 23.8122 20.9426 23.8457 20.9447 23.8814C20.9469 23.9171 20.9417 23.9533 20.929 23.9901C20.9156 24.029 20.8969 24.0617 20.8732 24.0878C20.8495 24.1141 20.8214 24.1336 20.7891 24.1461C20.7567 24.1587 20.7205 24.1645 20.6804 24.1633C20.6403 24.162 20.597 24.1534 20.5504 24.1373L20.383 24.0791L20.3832 24.0793ZM20.4219 23.9677L20.5892 24.0258C20.6161 24.0352 20.6401 24.0397 20.6617 24.0399C20.6832 24.0399 20.7023 24.0362 20.7191 24.0284C20.7357 24.0207 20.7499 24.0094 20.7613 23.9947C20.7728 23.98 20.782 23.9627 20.7889 23.9429C20.7954 23.9242 20.7988 23.9053 20.7991 23.886C20.7995 23.8668 20.7956 23.8484 20.7878 23.8305C20.7801 23.8129 20.7679 23.7966 20.7513 23.7821C20.7347 23.7676 20.7131 23.7556 20.6862 23.7463L20.5189 23.6881L20.4219 23.9677Z" fill="#E7F6EC"/>
<path d="M21.2763 24.5144L20.9658 24.4066L20.8361 24.5706L20.6914 24.5204L21.2722 23.8242L21.3971 23.8675L21.4222 24.7741L21.277 24.7237L21.2763 24.5144ZM21.0439 24.308L21.2761 24.3886L21.2754 24.0159L21.0439 24.308Z" fill="#E7F6EC"/>
<path d="M22.0036 24.7447C22.0092 24.7286 22.0117 24.7133 22.0113 24.6989C22.011 24.6846 22.0062 24.67 21.9974 24.6549C21.9884 24.6399 21.9746 24.6237 21.9557 24.6062C21.9368 24.5887 21.9119 24.5687 21.8808 24.5459C21.8465 24.5214 21.8159 24.4961 21.7887 24.4701C21.7615 24.4443 21.7396 24.4175 21.7232 24.3901C21.7065 24.3625 21.6961 24.3339 21.6917 24.3039C21.6873 24.274 21.6908 24.2427 21.7021 24.21C21.7133 24.1777 21.7306 24.1505 21.7537 24.1281C21.7769 24.1056 21.8044 24.0888 21.8362 24.0777C21.868 24.0666 21.9034 24.0614 21.9419 24.0627C21.9806 24.0637 22.0211 24.0717 22.0633 24.0864C22.1083 24.1021 22.1467 24.1226 22.1781 24.1482C22.2096 24.1736 22.2338 24.2019 22.2508 24.2328C22.2677 24.2638 22.2778 24.2964 22.2806 24.3305C22.2836 24.3646 22.2792 24.3984 22.2677 24.4318L22.129 24.3837C22.1357 24.3643 22.1389 24.3454 22.1386 24.3268C22.1382 24.3085 22.1338 24.2911 22.1255 24.2749C22.1172 24.2586 22.1046 24.244 22.0878 24.2307C22.0711 24.2175 22.0497 24.2063 22.0235 24.1973C21.999 24.1888 21.9767 24.1841 21.9567 24.1834C21.9368 24.1827 21.9193 24.1851 21.9039 24.191C21.8885 24.1968 21.8756 24.2054 21.8652 24.2169C21.8548 24.2286 21.8468 24.2422 21.8414 24.2579C21.8311 24.2876 21.8364 24.3173 21.8576 24.3468C21.8788 24.3763 21.9152 24.4095 21.967 24.4465C22.0074 24.4753 22.0416 24.5035 22.0689 24.5311C22.0963 24.5586 22.1175 24.5864 22.1322 24.6145C22.147 24.6424 22.1552 24.671 22.1571 24.7002C22.1589 24.7293 22.1543 24.7599 22.1431 24.7919C22.1315 24.8256 22.1142 24.8537 22.0914 24.876C22.0686 24.8982 22.0415 24.9147 22.0103 24.9249C21.979 24.9352 21.944 24.9392 21.9051 24.9371C21.8665 24.935 21.8255 24.9263 21.7822 24.9113C21.7437 24.8979 21.7074 24.8795 21.6737 24.856C21.6399 24.8325 21.6118 24.8051 21.5894 24.7737C21.567 24.7422 21.5521 24.7076 21.5451 24.6698C21.5378 24.632 21.5417 24.5917 21.5564 24.5491L21.6956 24.5975C21.6868 24.6228 21.6838 24.6461 21.6864 24.6675C21.6891 24.6887 21.6963 24.708 21.7078 24.7249C21.7193 24.7419 21.7348 24.7567 21.7543 24.7694C21.7737 24.7822 21.7958 24.7928 21.8203 24.8012C21.8687 24.818 21.9085 24.8209 21.9398 24.8097C21.9711 24.7986 21.9923 24.7769 22.0034 24.7445L22.0036 24.7447Z" fill="#E7F6EC"/>
<path d="M22.6839 24.9793C22.6895 24.9632 22.692 24.9478 22.6916 24.9335C22.6913 24.9192 22.6865 24.9045 22.6777 24.8895C22.6687 24.8745 22.6549 24.8582 22.636 24.8407C22.6171 24.8232 22.5922 24.8033 22.5611 24.7805C22.5268 24.7559 22.4962 24.7307 22.469 24.7047C22.4418 24.6787 22.4199 24.652 22.4035 24.6245C22.3869 24.5969 22.3764 24.5683 22.372 24.5382C22.3676 24.5084 22.3711 24.4771 22.3824 24.4444C22.3936 24.4121 22.4109 24.3849 22.434 24.3624C22.4572 24.34 22.4847 24.3232 22.5165 24.3121C22.5484 24.3009 22.5837 24.2958 22.6224 24.2971C22.6611 24.2981 22.7015 24.3061 22.7438 24.3207C22.7888 24.3365 22.8272 24.357 22.8586 24.3824C22.8901 24.4078 22.9143 24.4361 22.9312 24.467C22.9482 24.498 22.9583 24.5306 22.9611 24.5647C22.9641 24.5988 22.9597 24.6326 22.9482 24.666L22.8095 24.6179C22.8162 24.5985 22.8194 24.5796 22.819 24.561C22.8187 24.5427 22.8143 24.5253 22.806 24.5091C22.7977 24.4928 22.7851 24.4782 22.7683 24.4649C22.7515 24.4517 22.7302 24.4405 22.704 24.4315C22.6795 24.423 22.6572 24.4184 22.6374 24.4176C22.6174 24.4169 22.5999 24.4193 22.5846 24.4252C22.5692 24.431 22.5563 24.4396 22.5459 24.4511C22.5355 24.4628 22.5275 24.4764 22.522 24.4921C22.5118 24.5218 22.5171 24.5515 22.5383 24.581C22.5595 24.6105 22.5959 24.6437 22.6477 24.6806C22.6881 24.7095 22.7222 24.7377 22.7496 24.7655C22.777 24.793 22.7982 24.8208 22.8129 24.8489C22.8277 24.8768 22.8358 24.9054 22.8378 24.9346C22.8395 24.9637 22.8349 24.9943 22.8238 25.0263C22.8121 25.06 22.7948 25.0881 22.772 25.1104C22.7492 25.1326 22.7222 25.1491 22.6909 25.1593C22.6597 25.1696 22.6245 25.1736 22.5858 25.1715C22.5471 25.1694 22.5061 25.1607 22.4628 25.1457C22.4243 25.1323 22.3881 25.1139 22.3543 25.0904C22.3206 25.0669 22.2925 25.0395 22.2701 25.0081C22.2476 24.9766 22.2328 24.942 22.2257 24.9042C22.2185 24.8664 22.2224 24.8261 22.237 24.7835L22.3763 24.8317C22.3674 24.857 22.3644 24.8803 22.3671 24.9017C22.3697 24.9229 22.377 24.9421 22.3884 24.9591C22.3999 24.9761 22.4155 24.9909 22.4349 25.0036C22.4544 25.0164 22.4763 25.027 22.501 25.0354C22.5494 25.0522 22.5892 25.0551 22.6204 25.0439C22.6517 25.0328 22.6729 25.0111 22.684 24.9787L22.6839 24.9793Z" fill="#E7F6EC"/>
<path d="M23.1161 25.0285L23.0128 25.3263L22.8735 25.2779L23.1516 24.4766L23.4582 24.5829C23.5048 24.599 23.5439 24.6199 23.5757 24.6449C23.6075 24.6702 23.6319 24.6985 23.6489 24.7299C23.6658 24.7614 23.6755 24.795 23.6777 24.8306C23.6798 24.8663 23.6746 24.9026 23.6619 24.9393C23.6485 24.9782 23.6298 25.0109 23.6061 25.037C23.5824 25.0633 23.5543 25.0828 23.522 25.0953C23.4897 25.1079 23.4534 25.1137 23.4133 25.1125C23.3732 25.1112 23.3299 25.1026 23.2833 25.0865L23.116 25.0284L23.1161 25.0285ZM23.1548 24.9169L23.3222 24.975C23.349 24.9844 23.373 24.989 23.3946 24.9891C23.4162 24.9891 23.4352 24.9854 23.452 24.9777C23.4686 24.9699 23.4828 24.9586 23.4942 24.9439C23.5057 24.9292 23.5149 24.9119 23.5218 24.8921C23.5283 24.8734 23.5317 24.8545 23.5321 24.8352C23.5324 24.816 23.5285 24.7976 23.5208 24.7798C23.513 24.7621 23.5008 24.7458 23.4842 24.7313C23.4676 24.7169 23.446 24.7048 23.4192 24.6955L23.2518 24.6373L23.1548 24.9169Z" fill="#E7F6EC"/>
<path d="M24.3652 25.3697C24.344 25.4307 24.3172 25.4825 24.2845 25.5252C24.2518 25.568 24.215 25.601 24.1744 25.6245C24.1337 25.648 24.0899 25.6618 24.0429 25.6655C23.9959 25.6694 23.9477 25.6627 23.8982 25.6455C23.8491 25.6284 23.8072 25.6038 23.7728 25.5717C23.7383 25.5395 23.7122 25.5015 23.6941 25.4577C23.6763 25.4139 23.6675 25.365 23.668 25.3111C23.6683 25.2572 23.6791 25.1998 23.7003 25.1388L23.7145 25.0982C23.7357 25.0372 23.7627 24.9854 23.7959 24.9427C23.8291 24.8999 23.8661 24.8667 23.9069 24.843C23.9477 24.8193 23.9917 24.8057 24.0387 24.8019C24.0857 24.798 24.1337 24.8047 24.1829 24.8216C24.2323 24.8388 24.2746 24.8635 24.3092 24.8957C24.3438 24.9278 24.37 24.9658 24.3873 25.0098C24.4048 25.0536 24.4131 25.1026 24.4122 25.1566C24.4113 25.2105 24.4004 25.2681 24.3792 25.3289L24.365 25.3696L24.3652 25.3697ZM24.2405 25.2796C24.256 25.2349 24.2654 25.1938 24.2687 25.1565C24.2721 25.1192 24.2694 25.0861 24.261 25.0573C24.2525 25.0285 24.2383 25.004 24.2184 24.9837C24.1984 24.9633 24.1733 24.948 24.1429 24.9374C24.1132 24.9271 24.0843 24.9238 24.0564 24.9273C24.0284 24.931 24.0019 24.9414 23.9774 24.9588C23.9526 24.9761 23.9298 25.0003 23.909 25.0315C23.8881 25.0628 23.8699 25.1006 23.8544 25.1455L23.8399 25.1874C23.8244 25.2321 23.8152 25.2733 23.8122 25.3109C23.8092 25.3485 23.8122 25.3819 23.8208 25.4111C23.8297 25.4402 23.844 25.465 23.8639 25.4853C23.8839 25.5056 23.9086 25.5208 23.9383 25.5312C24 25.5526 24.0555 25.5455 24.1051 25.5102C24.1546 25.4747 24.1951 25.412 24.2263 25.3217L24.2408 25.2798L24.2405 25.2796Z" fill="#E7F6EC"/>
<path d="M24.7738 25.5913L24.6186 25.5374L24.5115 25.846L24.3723 25.7976L24.6504 24.9963L24.9322 25.0942C24.9782 25.1101 25.0172 25.1296 25.0496 25.1525C25.0819 25.1755 25.107 25.2015 25.1247 25.2305C25.1423 25.2594 25.1524 25.2912 25.1549 25.3257C25.1573 25.3601 25.1515 25.3972 25.1379 25.437C25.1194 25.4905 25.0907 25.531 25.0524 25.558C25.0141 25.5852 24.9683 25.6004 24.9153 25.6038L24.9792 26.0003L24.9768 26.0074L24.8276 25.9556L24.7741 25.5911L24.7738 25.5913ZM24.6573 25.4257L24.8004 25.4753C24.8253 25.484 24.8483 25.4882 24.8693 25.4882C24.8904 25.4882 24.9091 25.4844 24.9257 25.4769C24.9423 25.4695 24.9565 25.4589 24.9683 25.4448C24.9801 25.4308 24.9895 25.414 24.9962 25.3946C25.0033 25.3741 25.0068 25.3545 25.0068 25.3358C25.0068 25.317 25.0027 25.2995 24.9948 25.2835C24.9868 25.2674 24.9745 25.2527 24.9579 25.2398C24.9413 25.2269 24.9197 25.2158 24.8932 25.2066L24.7506 25.1571L24.6573 25.4257Z" fill="#E7F6EC"/>
<path d="M25.866 25.5436L25.6161 25.4569L25.3771 26.146L25.2389 26.0981L25.4779 25.409L25.2302 25.3231L25.2693 25.2109L25.9048 25.4316L25.8658 25.5438L25.866 25.5436Z" fill="#E7F6EC"/>
<path d="M20.7336 31.476C20.3597 31.3463 20.0224 31.1472 19.7311 30.8841C19.4496 30.6302 19.2227 30.3275 19.0567 29.9849C18.8906 29.6423 18.7937 29.2767 18.7686 28.8985C18.7427 28.5069 18.7953 28.1187 18.9252 27.7448C19.0549 27.371 19.254 27.0337 19.5171 26.7423C19.771 26.4608 20.0737 26.234 20.4163 26.0679C20.7589 25.9018 21.1245 25.805 21.5027 25.7799C21.8943 25.7539 22.2825 25.8066 22.6564 25.9364C23.0302 26.0661 23.3675 26.2652 23.6589 26.5283C23.9404 26.7822 24.1672 27.0849 24.3333 27.4275C24.4994 27.7701 24.5962 28.1357 24.6213 28.514C24.6473 28.9055 24.5946 29.2937 24.4648 29.6676C24.3351 30.0415 24.1358 30.3788 23.8729 30.6701C23.619 30.9516 23.3163 31.1785 22.9737 31.3445C22.6311 31.5106 22.2655 31.6075 21.8872 31.6326C21.4957 31.6585 21.1075 31.6059 20.7336 31.476ZM22.6458 25.967C21.9141 25.7131 21.1273 25.7592 20.4302 26.097C19.7332 26.4349 19.2097 27.0238 18.9556 27.7556C18.7017 28.4873 18.7478 29.2741 19.0856 29.9711C19.4235 30.6682 20.0124 31.1917 20.7442 31.4458C21.4759 31.6997 22.2627 31.6536 22.9597 31.3157C23.6566 30.9779 24.1803 30.389 24.4344 29.6572C24.6883 28.9255 24.6422 28.1387 24.3043 27.4416C23.9665 26.7446 23.3776 26.2211 22.6458 25.967Z" fill="#E7F6EC"/>
<path d="M21.065 32.3051L19.9601 31.9217C19.9246 31.9093 19.9057 31.8704 19.9181 31.8349C19.9305 31.7994 19.9693 31.7805 20.0049 31.7929L21.1097 32.1763C21.1452 32.1886 21.1641 32.2275 21.1517 32.263C21.1394 32.2985 21.1005 32.3174 21.065 32.3051Z" fill="#E7F6EC"/>
<path d="M21.7459 32.8867L19.0664 31.9568C19.0308 31.9444 19.0119 31.9056 19.0243 31.8701C19.0367 31.8345 19.0755 31.8156 19.1111 31.828L21.7906 32.7579C21.8261 32.7703 21.845 32.8092 21.8326 32.8447C21.8202 32.8802 21.7814 32.8991 21.7459 32.8867Z" fill="#E7F6EC"/>
<path d="M18.9312 38.2828C18.804 37.4277 19.0257 35.8565 19.3869 34.6114C19.612 33.8354 19.6643 32.8261 19.663 32.4363C19.6618 32.1301 19.5342 30.9129 19.6816 30.6857C19.7687 30.5523 20.318 30.6429 20.5057 30.7991C20.9078 31.1336 21.0444 31.8621 21.1186 33.0783C21.1893 34.2372 21.4504 34.7301 21.8167 35.0849C21.943 35.2074 21.0538 36.8928 22.2706 36.6939C22.8818 36.5939 23.776 38.327 23.493 38.5952C21.1501 40.8144 18.9314 38.2828 18.9314 38.2828H18.9312Z" fill="#EDBE94"/>
<path d="M17.856 47.6215C17.856 47.6215 18.4023 42.3888 18.661 42.3602C18.9196 42.3314 19.6384 43.1077 21.7428 42.9284C22.396 42.8727 23.3473 42.59 23.4623 42.59C23.5774 42.59 24.3824 47.5064 24.3824 47.5064L17.856 47.6215Z" fill="#0C3172"/>
<path d="M32.5728 36.0426C32.5728 36.0426 33.6417 35.9371 33.9179 35.6938C34.1941 35.4505 34.9026 34.6405 35.269 34.4973C35.3832 34.4527 36.2933 34.1683 36.5227 34.2932C36.6778 34.3776 36.5698 34.8531 36.1097 35.0066C35.3099 35.2735 35.0393 35.7426 34.8204 36.0436C34.4469 36.5573 34.1981 36.8225 34.4439 36.6732C34.4439 36.6732 35.1305 36.1039 35.4779 35.9306C35.5717 35.8837 36.3691 35.6445 36.5504 35.7906C36.6485 35.8696 36.684 36.2929 35.9855 36.5665C35.5267 36.7462 35.4065 37.1455 35.233 37.4934C35.0828 37.7945 34.9201 38.8963 34.9201 38.8963L33.5799 38.4095L32.5729 36.0428L32.5728 36.0426Z" fill="#CD8461"/>
<path d="M38.1857 47.2191C37.9027 46.9417 37.3233 42.3693 37.5129 39.9414C37.5726 39.1772 37.0805 37.4098 36.4163 36.0851C36.0543 35.3627 35.8202 34.3796 35.7509 33.9961C35.6965 33.6945 35.6013 32.4747 35.4152 32.278C35.3055 32.1624 34.7816 32.3512 34.6254 32.5388C34.2904 32.9406 34.2885 33.6818 34.4358 34.8914C34.5763 36.044 34.0531 37.038 33.6557 36.503C32.608 35.0925 35.0415 32.5432 34.5243 31.8981C34.3853 31.7246 33.7672 32.2299 33.2831 32.734C33.0842 32.9413 32.0187 34.3714 31.71 35.0851C31.5169 35.5316 31.1215 38.2658 31.392 39.4525C31.5166 39.9986 33.7822 43.2034 33.872 43.2787H33.8724C34.1279 43.8938 34.0102 46.7208 34.066 46.7938C35.7682 46.2224 37.0772 47.9811 38.1859 47.2193L38.1857 47.2191Z" fill="#EDBE94"/>
<path d="M32.3148 35.986L37.6293 36.8318C37.7419 36.8497 37.8444 36.7992 37.8571 36.7193L39.6416 25.5074C39.6544 25.4276 39.5727 25.3477 39.4602 25.3299L34.1457 24.4841C34.0332 24.4662 33.9307 24.5167 33.918 24.5966L32.1334 35.8085C32.1207 35.8883 32.2023 35.9682 32.3148 35.986Z" fill="#099137"/>
<path d="M32.3148 35.986L32.7517 36.0556L34.5824 24.5537L34.1455 24.4841C34.0329 24.4662 33.9304 24.5167 33.9177 24.5966L32.1331 35.8085C32.1204 35.8883 32.2021 35.9682 32.3146 35.986H32.3148Z" fill="#91D6A8"/>
<path d="M36.8229 29.5846L37.3584 26.2188L36.6765 26.1103L36.141 29.4761L36.8229 29.5846Z" fill="#B5E3C4"/>
<path d="M38.1089 31.2517L38.8711 26.4609L38.1892 26.3524L37.427 31.1432L38.1089 31.2517Z" fill="#B5E3C4"/>
<path d="M37.6345 28.7195L38.0156 26.3242L37.8636 26.3L37.4825 28.6953L37.6345 28.7195Z" fill="#40B869"/>
<path d="M36.1318 28.4812L36.5129 26.0859L36.361 26.0618L35.9799 28.4571L36.1318 28.4812Z" fill="#40B869"/>
<path d="M35.3561 25.6026L35.3524 25.657C35.3524 25.6589 35.3524 25.6607 35.3528 25.6626L35.4333 26.0888C35.4342 26.0939 35.4333 26.0994 35.4307 26.104L35.1588 26.6719C35.1504 26.6864 35.1133 26.592 35.1047 26.5779C35.0098 26.4227 34.7872 25.9374 34.6858 25.7534C34.6695 25.7241 34.626 25.7284 34.6158 25.7603C34.6108 25.7757 34.6105 25.7923 34.6149 25.8079L34.8566 26.6862L34.7748 26.795C34.763 26.8109 34.7661 26.8335 34.782 26.8454L34.8665 26.9086C34.8821 26.9203 34.9041 26.9173 34.9162 26.9023L34.9473 27.0155C34.9487 27.0208 34.9481 27.0267 34.9455 27.0316L34.6801 27.5389C34.6566 27.5838 34.6494 27.6355 34.6596 27.6852C34.6638 27.7053 34.6683 27.7271 34.6725 27.7472C34.6813 27.7889 34.723 27.8149 34.7642 27.8043L34.7849 27.799C34.8524 27.7817 34.9087 27.7352 34.9384 27.6719L35.1322 27.2588C35.1361 27.2507 35.1444 27.2456 35.1535 27.2461L35.3376 27.2571L35.3202 27.2802C35.3084 27.2961 35.3116 27.3187 35.3275 27.3306L35.412 27.394C35.4279 27.4058 35.4505 27.4027 35.4623 27.3868L35.5501 27.2698L35.8374 27.2868C35.8606 27.2882 35.8837 27.2827 35.9039 27.2709C35.9295 27.2558 35.9576 27.2403 35.9553 27.2338C35.9479 27.2127 35.5213 26.9844 35.3528 26.9049C35.3432 26.9003 35.3809 26.8192 35.3854 26.8097L35.609 26.2432C35.6123 26.236 35.6194 26.2312 35.6273 26.2307L35.7985 26.2185C35.8178 26.2171 35.8358 26.2093 35.85 26.1962L35.8505 26.1957C35.8606 26.1865 35.8599 26.1704 35.8491 26.1621L35.6531 26.0105C35.6475 26.0061 35.6443 25.9992 35.6447 25.992L35.6477 25.9294C35.6485 25.91 35.6256 25.8989 35.6111 25.9119L35.5952 25.9259L35.3969 25.5928C35.3858 25.5743 35.3575 25.581 35.3559 25.6026H35.3561Z" fill="#B5E3C4"/>
<path d="M34.7767 29.1152L34.8926 28.3867L34.8301 28.3768L34.7142 29.1053L34.7767 29.1152Z" fill="#B5E3C4"/>
<path d="M34.9497 28.9993L35.0435 28.4102L34.981 28.4002L34.8873 28.9893L34.9497 28.9993Z" fill="#B5E3C4"/>
<path d="M34.4383 29.631L34.6431 28.3438L34.5181 28.3239L34.3133 29.6111L34.4383 29.631Z" fill="#B5E3C4"/>
<path d="M34.8482 29.6399L34.9419 29.0508L34.8794 29.0408L34.7857 29.6299L34.8482 29.6399Z" fill="#B5E3C4"/>
<path d="M34.6424 29.9551L34.7583 29.2266L34.6958 29.2166L34.5799 29.9451L34.6424 29.9551Z" fill="#B5E3C4"/>
<path d="M35.6304 31.7364L34.0957 31.4922L33.5491 34.9275L35.0838 35.1716L35.6304 31.7364Z" fill="#015B20"/>
<path d="M37.53 39.6128C37.5001 38.7486 36.9973 37.2439 36.4165 36.0848C36.0545 35.3625 35.8202 34.3794 35.7507 33.9958C35.6965 33.6944 35.6013 32.4741 35.4152 32.2775C35.3053 32.1621 34.7814 32.3508 34.6254 32.5383C34.2904 32.9401 34.2883 33.6813 34.4358 34.8907C34.5765 36.0433 34.409 36.5753 34.113 36.9907C34.0109 37.134 35.191 38.6304 33.9582 38.6553C33.3391 38.6678 32.7737 40.5342 33.1007 40.7468C35.8071 42.5046 37.5302 39.6128 37.5302 39.6128H37.53Z" fill="#F0BC96"/>
<path d="M4.95925 36.5091C5.4432 38.2921 6.15332 40.7071 6.35033 41.0451C6.36941 41.0779 6.36323 46.6873 6.22347 46.8338C6.61377 46.9916 8.65101 46.8444 9.06057 47.0053L9.62987 46.5115C9.62987 46.5115 9.77582 42.9362 10.1389 42.3321C10.8291 41.1839 11.3528 40.1697 11.3872 39.6883C11.4929 38.2122 10.6571 34.1819 10.1191 34.4544C9.76663 34.6326 9.79578 34.9987 9.84084 35.6124C9.9131 36.5999 9.82741 37.8208 9.4871 37.6376C8.95491 37.3507 8.58828 35.5919 8.79819 35.0014C8.90968 34.6885 9.44735 33.3045 9.74719 32.9862C10.2801 32.4214 10.6752 31.9632 10.3478 31.6874C10.2642 31.6171 9.66256 32.066 9.40424 32.2793C8.83123 32.7527 8.20133 33.372 8.17253 33.5039C8.17253 33.5039 8.29109 32.7645 8.44145 32.5249C8.79519 31.9606 8.98636 31.4102 8.70066 31.2985C8.51973 31.2278 7.81579 31.8342 7.19614 33.1476C6.57684 34.4607 6.62208 34.7623 6.57243 34.7114C6.55299 34.6916 6.59681 34.1517 6.69417 33.5501C6.75848 33.1522 6.79082 32.7383 6.8986 32.3669C7.03076 31.9113 6.86344 31.4155 6.62049 31.3838C6.45334 31.3619 5.67202 34.4809 5.57007 34.815C5.57007 34.815 5.56265 33.4225 5.14901 33.4743C5.01031 33.4917 4.74121 35.7062 4.95907 36.5093L4.95925 36.5091Z" fill="#F0BC96"/>
<path d="M8.47598 35.9006L13.2224 34.4556C13.3229 34.425 13.3874 34.3416 13.3657 34.2704L10.3174 24.2573C10.2957 24.186 10.1957 24.1526 10.0953 24.1832L5.34893 25.6282C5.24839 25.6588 5.1839 25.7422 5.20563 25.8134L8.25388 35.8265C8.27562 35.8978 8.37562 35.9311 8.47598 35.9006Z" fill="#099137"/>
<path d="M8.47598 35.8989L8.86629 35.7802L5.73923 25.5078L5.34893 25.6265C5.24839 25.6571 5.1839 25.7405 5.20563 25.8117L8.25388 35.8249C8.27562 35.8961 8.37562 35.9295 8.47598 35.8989Z" fill="#BCE6CA"/>
<path d="M9.62519 28.7754L8.71021 25.7695L8.10118 25.9549L9.01616 28.9608L9.62519 28.7754Z" fill="#5FC381"/>
<path d="M11.3636 29.6379L10.0613 25.3594L9.45226 25.5448L10.7546 29.8233L11.3636 29.6379Z" fill="#5FC381"/>
<path d="M9.9483 27.7291L9.29712 25.5898L9.16139 25.6312L9.81257 27.7704L9.9483 27.7291Z" fill="#E7F6EC"/>
<path d="M8.60651 28.1393L7.95532 26L7.81959 26.0413L8.47077 28.1806L8.60651 28.1393Z" fill="#E7F6EC"/>
<path d="M6.8036 26.0676L6.8225 26.1142C6.82321 26.1158 6.82409 26.1174 6.82498 26.1188L7.06386 26.4393C7.06669 26.4432 7.06828 26.4482 7.06775 26.453L7.07164 27.0334C7.07058 27.0487 7.00184 26.9855 6.98877 26.9772C6.84759 26.8869 6.467 26.5745 6.30869 26.463C6.28342 26.4452 6.24914 26.4664 6.25356 26.4969C6.25568 26.5118 6.26204 26.5256 6.27194 26.5367L6.82692 27.1671L6.80324 27.2905C6.79971 27.3083 6.81155 27.3258 6.82957 27.3293L6.92516 27.3477C6.94265 27.3511 6.95979 27.3398 6.96368 27.3224L7.03524 27.4037C7.03859 27.4076 7.04054 27.4126 7.04036 27.4177L7.02517 27.9453C7.02375 27.9919 7.03877 28.0377 7.06722 28.0748C7.07888 28.0898 7.09125 28.1059 7.10291 28.1209C7.12694 28.1518 7.172 28.1566 7.20203 28.1312L7.21705 28.1184C7.26599 28.0769 7.29391 28.0154 7.29303 27.9513L7.28684 27.5306C7.28684 27.5223 7.29161 27.5147 7.29939 27.5115L7.45647 27.4461L7.45134 27.4723C7.44798 27.4901 7.45965 27.5076 7.47767 27.5111L7.57326 27.5295C7.5911 27.5329 7.6086 27.5212 7.61213 27.5032L7.63775 27.3707L7.88282 27.2687C7.90261 27.2604 7.91957 27.2466 7.93141 27.2288C7.9466 27.206 7.96357 27.1818 7.95915 27.1772C7.94448 27.1627 7.49887 27.1458 7.32695 27.1479C7.31723 27.1479 7.31564 27.0655 7.31564 27.0556L7.27218 26.4959C7.27218 26.4885 7.27589 26.4818 7.28225 26.478L7.41918 26.3987C7.43456 26.3899 7.44639 26.3759 7.45276 26.3595V26.3588C7.45753 26.3471 7.45046 26.334 7.43827 26.3316L7.21475 26.2851C7.20822 26.2837 7.20292 26.2793 7.20027 26.2733L7.17747 26.2202C7.1704 26.2036 7.14691 26.2038 7.14001 26.2204L7.13259 26.2384L6.83381 26.0425C6.8172 26.0315 6.79635 26.0487 6.80377 26.0671L6.8036 26.0676Z" fill="#5FC381"/>
<path d="M7.73881 29.2053L7.54077 28.5547L7.48499 28.5717L7.68303 29.2223L7.73881 29.2053Z" fill="#5FC381"/>
<path d="M7.8359 29.0417L7.67578 28.5156L7.62 28.5326L7.78012 29.0586L7.8359 29.0417Z" fill="#5FC381"/>
<path d="M7.66804 29.7707L7.31812 28.6211L7.20639 28.6551L7.55631 29.8047L7.66804 29.7707Z" fill="#5FC381"/>
<path d="M8.01095 29.612L7.85083 29.0859L7.79505 29.1029L7.95517 29.6289L8.01095 29.612Z" fill="#5FC381"/>
<path d="M7.9683 29.9592L7.77026 29.3086L7.71448 29.3256L7.91252 29.9762L7.9683 29.9592Z" fill="#5FC381"/>
<path d="M10.1192 34.4541C9.76666 34.6324 9.79582 34.9985 9.84087 35.6122C9.84246 35.6327 9.8437 35.6533 9.84512 35.674C10.172 35.8125 10.5206 35.9044 10.88 35.9445C10.637 35.0157 10.3506 34.3372 10.1192 34.4543V34.4541Z" fill="#F0BC96"/>
<path d="M5.75495 42.288C5.75495 42.288 5.3839 41.517 6.02846 41.4277C6.67303 41.3385 7.39586 41.7064 7.6556 41.9391C7.91533 42.1718 10.5201 41.6619 10.7957 42.2755C11.0714 42.8891 10.378 43.9381 10.4579 45.0668C10.5378 46.1955 10.4411 52.7214 10.4411 52.7214L5.39697 50.911C5.39697 50.911 5.90531 46.6844 6.11274 45.5043C6.32018 44.3242 5.86131 42.7229 5.75495 42.2879V42.288Z" fill="#18189B"/>
<path d="M9.52228 30.8483L8.03564 31.3008L9.04859 34.6285L10.5352 34.176L9.52228 30.8483Z" fill="#E7F6EC"/>
</g>
<defs>
<clipPath id="clip0_2_25425">
<rect width="44" height="46" rx="4" fill="white"/>
</clipPath>
</defs>
</svg>
