<svg width="204" height="70" viewBox="0 0 204 70" fill="none" xmlns="http://www.w3.org/2000/svg">
<path d="M21.0004 4.5V19.5C21.0004 19.8978 20.8424 20.2794 20.5611 20.5607C20.2798 20.842 19.8982 21 19.5004 21H12.7504C12.5515 21 12.3607 20.921 12.2201 20.7803C12.0794 20.6397 12.0004 20.4489 12.0004 20.25C12.0004 20.0511 12.0794 19.8603 12.2201 19.7197C12.3607 19.579 12.5515 19.5 12.7504 19.5H19.5004V4.5H4.50042V13.5C4.50042 13.6989 4.4214 13.8897 4.28075 14.0303C4.14009 14.171 3.94933 14.25 3.75042 14.25C3.5515 14.25 3.36074 14.171 3.22009 14.0303C3.07943 13.8897 3.00042 13.6989 3.00042 13.5V4.5C3.00042 4.10218 3.15845 3.72064 3.43976 3.43934C3.72106 3.15804 4.10259 3 4.50042 3H19.5004C19.8982 3 20.2798 3.15804 20.5611 3.43934C20.8424 3.72064 21.0004 4.10218 21.0004 4.5ZM11.781 14.4694C11.7114 14.3996 11.6287 14.3443 11.5376 14.3066C11.4466 14.2688 11.349 14.2494 11.2504 14.2494C11.1519 14.2494 11.0543 14.2688 10.9632 14.3066C10.8722 14.3443 10.7894 14.3996 10.7198 14.4694L6.00042 19.1897L4.28104 17.4694C4.21136 17.3997 4.12863 17.3444 4.03759 17.3067C3.94654 17.269 3.84896 17.2496 3.75042 17.2496C3.65187 17.2496 3.55429 17.269 3.46324 17.3067C3.3722 17.3444 3.28947 17.3997 3.21979 17.4694C3.15011 17.5391 3.09483 17.6218 3.05712 17.7128C3.01941 17.8039 3 17.9015 3 18C3 18.0985 3.01941 18.1961 3.05712 18.2872C3.09483 18.3782 3.15011 18.4609 3.21979 18.5306L5.46979 20.7806C5.53945 20.8504 5.62216 20.9057 5.71321 20.9434C5.80426 20.9812 5.90186 21.0006 6.00042 21.0006C6.09898 21.0006 6.19657 20.9812 6.28762 20.9434C6.37867 20.9057 6.46139 20.8504 6.53104 20.7806L11.781 15.5306C11.8508 15.461 11.9061 15.3783 11.9438 15.2872C11.9816 15.1962 12.001 15.0986 12.001 15C12.001 14.9014 11.9816 14.8038 11.9438 14.7128C11.9061 14.6217 11.8508 14.539 11.781 14.4694Z" fill="#344054"/>
<path d="M39.744 6.88V8.368H35.024V11.648H38.704V13.136H35.024V18H33.2V6.88H39.744ZM44.6184 18.144C43.7864 18.144 43.0344 17.9573 42.3624 17.584C41.6904 17.2 41.1624 16.6667 40.7784 15.984C40.3944 15.2907 40.2024 14.4907 40.2024 13.584C40.2024 12.688 40.3997 11.8933 40.7944 11.2C41.189 10.5067 41.7277 9.97333 42.4104 9.6C43.093 9.22667 43.8557 9.04 44.6984 9.04C45.541 9.04 46.3037 9.22667 46.9864 9.6C47.669 9.97333 48.2077 10.5067 48.6024 11.2C48.997 11.8933 49.1944 12.688 49.1944 13.584C49.1944 14.48 48.9917 15.2747 48.5864 15.968C48.181 16.6613 47.6264 17.2 46.9224 17.584C46.229 17.9573 45.461 18.144 44.6184 18.144ZM44.6184 16.56C45.0877 16.56 45.525 16.448 45.9304 16.224C46.3464 16 46.6824 15.664 46.9384 15.216C47.1944 14.768 47.3224 14.224 47.3224 13.584C47.3224 12.944 47.1997 12.4053 46.9544 11.968C46.709 11.52 46.3837 11.184 45.9784 10.96C45.573 10.736 45.1357 10.624 44.6664 10.624C44.197 10.624 43.7597 10.736 43.3544 10.96C42.9597 11.184 42.645 11.52 42.4104 11.968C42.1757 12.4053 42.0584 12.944 42.0584 13.584C42.0584 14.5333 42.2984 15.2693 42.7784 15.792C43.269 16.304 43.8824 16.56 44.6184 16.56ZM52.1815 6.16V18H50.3575V6.16H52.1815ZM55.7603 6.16V18H53.9362V6.16H55.7603ZM61.339 18.144C60.507 18.144 59.755 17.9573 59.083 17.584C58.411 17.2 57.883 16.6667 57.499 15.984C57.115 15.2907 56.923 14.4907 56.923 13.584C56.923 12.688 57.1203 11.8933 57.515 11.2C57.9097 10.5067 58.4483 9.97333 59.131 9.6C59.8137 9.22667 60.5763 9.04 61.419 9.04C62.2617 9.04 63.0243 9.22667 63.707 9.6C64.3897 9.97333 64.9283 10.5067 65.323 11.2C65.7177 11.8933 65.915 12.688 65.915 13.584C65.915 14.48 65.7123 15.2747 65.307 15.968C64.9017 16.6613 64.347 17.2 63.643 17.584C62.9497 17.9573 62.1817 18.144 61.339 18.144ZM61.339 16.56C61.8083 16.56 62.2457 16.448 62.651 16.224C63.067 16 63.403 15.664 63.659 15.216C63.915 14.768 64.043 14.224 64.043 13.584C64.043 12.944 63.9203 12.4053 63.675 11.968C63.4297 11.52 63.1043 11.184 62.699 10.96C62.2937 10.736 61.8563 10.624 61.387 10.624C60.9177 10.624 60.4803 10.736 60.075 10.96C59.6803 11.184 59.3657 11.52 59.131 11.968C58.8963 12.4053 58.779 12.944 58.779 13.584C58.779 14.5333 59.019 15.2693 59.499 15.792C59.9897 16.304 60.603 16.56 61.339 16.56ZM78.9181 9.184L76.1821 18H74.2621L72.4861 11.488L70.7101 18H68.7901L66.0381 9.184H67.8941L69.7341 16.272L71.6061 9.184H73.5101L75.3021 16.24L77.1261 9.184H78.9181Z" fill="#1D2433"/>
<path d="M37.502 42.098C36.5967 42.098 35.7707 41.888 35.024 41.468C34.2773 41.0387 33.6847 40.446 33.246 39.69C32.8167 38.9247 32.602 38.066 32.602 37.114C32.602 36.162 32.8167 35.308 33.246 34.552C33.6847 33.7867 34.2773 33.194 35.024 32.774C35.7707 32.3447 36.5967 32.13 37.502 32.13C38.4167 32.13 39.2473 32.3447 39.994 32.774C40.7407 33.194 41.3287 33.782 41.758 34.538C42.1873 35.294 42.402 36.1527 42.402 37.114C42.402 38.0753 42.1873 38.934 41.758 39.69C41.3287 40.446 40.7407 41.0387 39.994 41.468C39.2473 41.888 38.4167 42.098 37.502 42.098ZM37.502 40.992C38.1833 40.992 38.7947 40.8333 39.336 40.516C39.8867 40.1987 40.316 39.746 40.624 39.158C40.9413 38.57 41.1 37.8887 41.1 37.114C41.1 36.33 40.9413 35.6487 40.624 35.07C40.316 34.482 39.8913 34.0293 39.35 33.712C38.8087 33.3947 38.1927 33.236 37.502 33.236C36.8113 33.236 36.1953 33.3947 35.654 33.712C35.1127 34.0293 34.6833 34.482 34.366 35.07C34.058 35.6487 33.904 36.33 33.904 37.114C33.904 37.8887 34.058 38.57 34.366 39.158C34.6833 39.746 35.1127 40.1987 35.654 40.516C36.2047 40.8333 36.8207 40.992 37.502 40.992ZM47.2619 34.188C48.1952 34.188 48.9512 34.4727 49.5299 35.042C50.1085 35.602 50.3979 36.414 50.3979 37.478V42H49.1379V37.66C49.1379 36.8947 48.9465 36.3113 48.5639 35.91C48.1812 35.4993 47.6585 35.294 46.9959 35.294C46.3239 35.294 45.7872 35.504 45.3859 35.924C44.9939 36.344 44.7979 36.9553 44.7979 37.758V42H43.5239V34.328H44.7979V35.42C45.0499 35.028 45.3905 34.7247 45.8199 34.51C46.2585 34.2953 46.7392 34.188 47.2619 34.188ZM53.1929 31.64V42H51.9189V31.64H53.1929ZM61.4123 34.328L56.7922 45.612H55.4762L56.9882 41.916L53.8942 34.328H55.3082L57.7163 40.544L60.0962 34.328H61.4123ZM71.9133 34.328L67.2933 45.612H65.9773L67.4893 41.916L64.3953 34.328H65.8093L68.2173 40.544L70.5973 34.328H71.9133ZM75.98 42.126C75.2613 42.126 74.608 41.9627 74.02 41.636C73.4413 41.3093 72.984 40.8473 72.648 40.25C72.3213 39.6433 72.158 38.9433 72.158 38.15C72.158 37.366 72.326 36.6753 72.662 36.078C73.0073 35.4713 73.474 35.0093 74.062 34.692C74.65 34.3653 75.308 34.202 76.036 34.202C76.764 34.202 77.422 34.3653 78.01 34.692C78.598 35.0093 79.06 35.4667 79.396 36.064C79.7413 36.6613 79.914 37.3567 79.914 38.15C79.914 38.9433 79.7367 39.6433 79.382 40.25C79.0367 40.8473 78.5653 41.3093 77.968 41.636C77.3707 41.9627 76.708 42.126 75.98 42.126ZM75.98 41.006C76.4373 41.006 76.8667 40.8987 77.268 40.684C77.6693 40.4693 77.9913 40.1473 78.234 39.718C78.486 39.2887 78.612 38.766 78.612 38.15C78.612 37.534 78.4907 37.0113 78.248 36.582C78.0053 36.1527 77.688 35.8353 77.296 35.63C76.904 35.4153 76.4793 35.308 76.022 35.308C75.5553 35.308 75.126 35.4153 74.734 35.63C74.3513 35.8353 74.0433 36.1527 73.81 36.582C73.5767 37.0113 73.46 37.534 73.46 38.15C73.46 38.7753 73.572 39.3027 73.796 39.732C74.0293 40.1613 74.3373 40.4833 74.72 40.698C75.1027 40.9033 75.5227 41.006 75.98 41.006ZM87.8331 34.328V42H86.5591V40.866C86.3164 41.258 85.9758 41.566 85.5371 41.79C85.1078 42.0047 84.6318 42.112 84.1091 42.112C83.5118 42.112 82.9751 41.9907 82.4991 41.748C82.0231 41.496 81.6451 41.1227 81.3651 40.628C81.0944 40.1333 80.9591 39.5313 80.9591 38.822V34.328H82.2191V38.654C82.2191 39.41 82.4104 39.9933 82.7931 40.404C83.1758 40.8053 83.6984 41.006 84.3611 41.006C85.0424 41.006 85.5791 40.796 85.9711 40.376C86.3631 39.956 86.5591 39.3447 86.5591 38.542V34.328H87.8331ZM90.6982 35.574C90.9222 35.1353 91.2395 34.7947 91.6502 34.552C92.0702 34.3093 92.5788 34.188 93.1762 34.188V35.504H92.8402C91.4122 35.504 90.6982 36.2787 90.6982 37.828V42H89.4242V34.328H90.6982V35.574ZM100.381 35.378H98.7713V42H97.4973V35.378H96.5033V34.328H97.4973V33.782C97.4973 32.9233 97.7166 32.298 98.1553 31.906C98.6033 31.5047 99.3173 31.304 100.297 31.304V32.368C99.7373 32.368 99.3406 32.48 99.1073 32.704C98.8833 32.9187 98.7713 33.278 98.7713 33.782V34.328H100.381V35.378ZM104.653 42.126C103.934 42.126 103.281 41.9627 102.693 41.636C102.114 41.3093 101.657 40.8473 101.321 40.25C100.994 39.6433 100.831 38.9433 100.831 38.15C100.831 37.366 100.999 36.6753 101.335 36.078C101.68 35.4713 102.147 35.0093 102.735 34.692C103.323 34.3653 103.981 34.202 104.709 34.202C105.437 34.202 106.095 34.3653 106.683 34.692C107.271 35.0093 107.733 35.4667 108.069 36.064C108.414 36.6613 108.587 37.3567 108.587 38.15C108.587 38.9433 108.409 39.6433 108.055 40.25C107.709 40.8473 107.238 41.3093 106.641 41.636C106.043 41.9627 105.381 42.126 104.653 42.126ZM104.653 41.006C105.11 41.006 105.539 40.8987 105.941 40.684C106.342 40.4693 106.664 40.1473 106.907 39.718C107.159 39.2887 107.285 38.766 107.285 38.15C107.285 37.534 107.163 37.0113 106.921 36.582C106.678 36.1527 106.361 35.8353 105.969 35.63C105.577 35.4153 105.152 35.308 104.695 35.308C104.228 35.308 103.799 35.4153 103.407 35.63C103.024 35.8353 102.716 36.1527 102.483 36.582C102.249 37.0113 102.133 37.534 102.133 38.15C102.133 38.7753 102.245 39.3027 102.469 39.732C102.702 40.1613 103.01 40.4833 103.393 40.698C103.775 40.9033 104.195 41.006 104.653 41.006ZM110.976 31.64V42H109.702V31.64H110.976ZM113.861 31.64V42H112.587V31.64H113.861ZM118.818 42.126C118.1 42.126 117.446 41.9627 116.858 41.636C116.28 41.3093 115.822 40.8473 115.486 40.25C115.16 39.6433 114.996 38.9433 114.996 38.15C114.996 37.366 115.164 36.6753 115.5 36.078C115.846 35.4713 116.312 35.0093 116.9 34.692C117.488 34.3653 118.146 34.202 118.874 34.202C119.602 34.202 120.26 34.3653 120.848 34.692C121.436 35.0093 121.898 35.4667 122.234 36.064C122.58 36.6613 122.752 37.3567 122.752 38.15C122.752 38.9433 122.575 39.6433 122.22 40.25C121.875 40.8473 121.404 41.3093 120.806 41.636C120.209 41.9627 119.546 42.126 118.818 42.126ZM118.818 41.006C119.276 41.006 119.705 40.8987 120.106 40.684C120.508 40.4693 120.83 40.1473 121.072 39.718C121.324 39.2887 121.45 38.766 121.45 38.15C121.45 37.534 121.329 37.0113 121.086 36.582C120.844 36.1527 120.526 35.8353 120.134 35.63C119.742 35.4153 119.318 35.308 118.86 35.308C118.394 35.308 117.964 35.4153 117.572 35.63C117.19 35.8353 116.882 36.1527 116.648 36.582C116.415 37.0113 116.298 37.534 116.298 38.15C116.298 38.7753 116.41 39.3027 116.634 39.732C116.868 40.1613 117.176 40.4833 117.558 40.698C117.941 40.9033 118.361 41.006 118.818 41.006ZM134.087 34.328L131.693 42H130.377L128.529 35.91L126.681 42H125.365L122.957 34.328H124.259L126.023 40.768L127.927 34.328H129.229L131.091 40.782L132.827 34.328H134.087ZM141.792 37.87C141.792 38.1127 141.778 38.3693 141.75 38.64H135.618C135.664 39.396 135.921 39.9887 136.388 40.418C136.864 40.838 137.438 41.048 138.11 41.048C138.66 41.048 139.118 40.922 139.482 40.67C139.855 40.4087 140.116 40.0633 140.266 39.634H141.638C141.432 40.3713 141.022 40.9733 140.406 41.44C139.79 41.8973 139.024 42.126 138.11 42.126C137.382 42.126 136.728 41.9627 136.15 41.636C135.58 41.3093 135.132 40.8473 134.806 40.25C134.479 39.6433 134.316 38.9433 134.316 38.15C134.316 37.3567 134.474 36.6613 134.792 36.064C135.109 35.4667 135.552 35.0093 136.122 34.692C136.7 34.3653 137.363 34.202 138.11 34.202C138.838 34.202 139.482 34.3607 140.042 34.678C140.602 34.9953 141.031 35.434 141.33 35.994C141.638 36.5447 141.792 37.17 141.792 37.87ZM140.476 37.604C140.476 37.1187 140.368 36.7033 140.154 36.358C139.939 36.0033 139.645 35.7373 139.272 35.56C138.908 35.3733 138.502 35.28 138.054 35.28C137.41 35.28 136.859 35.4853 136.402 35.896C135.954 36.3067 135.697 36.876 135.632 37.604H140.476ZM144.187 35.574C144.411 35.1353 144.729 34.7947 145.139 34.552C145.559 34.3093 146.068 34.188 146.665 34.188V35.504H146.329C144.901 35.504 144.187 36.2787 144.187 37.828V42H142.913V34.328H144.187V35.574ZM150.292 42.126C149.704 42.126 149.177 42.028 148.71 41.832C148.243 41.6267 147.875 41.3467 147.604 40.992C147.333 40.628 147.184 40.2127 147.156 39.746H148.472C148.509 40.1287 148.687 40.4413 149.004 40.684C149.331 40.9267 149.755 41.048 150.278 41.048C150.763 41.048 151.146 40.9407 151.426 40.726C151.706 40.5113 151.846 40.2407 151.846 39.914C151.846 39.578 151.697 39.3307 151.398 39.172C151.099 39.004 150.637 38.8407 150.012 38.682C149.443 38.5327 148.976 38.3833 148.612 38.234C148.257 38.0753 147.949 37.8467 147.688 37.548C147.436 37.24 147.31 36.8387 147.31 36.344C147.31 35.952 147.427 35.5927 147.66 35.266C147.893 34.9393 148.225 34.6827 148.654 34.496C149.083 34.3 149.573 34.202 150.124 34.202C150.973 34.202 151.659 34.4167 152.182 34.846C152.705 35.2753 152.985 35.8633 153.022 36.61H151.748C151.72 36.2087 151.557 35.8867 151.258 35.644C150.969 35.4013 150.577 35.28 150.082 35.28C149.625 35.28 149.261 35.378 148.99 35.574C148.719 35.77 148.584 36.0267 148.584 36.344C148.584 36.596 148.663 36.806 148.822 36.974C148.99 37.1327 149.195 37.2633 149.438 37.366C149.69 37.4593 150.035 37.5667 150.474 37.688C151.025 37.8373 151.473 37.9867 151.818 38.136C152.163 38.276 152.457 38.4907 152.7 38.78C152.952 39.0693 153.083 39.4473 153.092 39.914C153.092 40.334 152.975 40.712 152.742 41.048C152.509 41.384 152.177 41.65 151.748 41.846C151.328 42.0327 150.843 42.126 150.292 42.126ZM157.027 38.15C157.027 37.3567 157.186 36.666 157.503 36.078C157.82 35.4807 158.259 35.0187 158.819 34.692C159.388 34.3653 160.037 34.202 160.765 34.202C161.708 34.202 162.482 34.4307 163.089 34.888C163.705 35.3453 164.111 35.98 164.307 36.792H162.935C162.804 36.3253 162.548 35.9567 162.165 35.686C161.792 35.4153 161.325 35.28 160.765 35.28C160.037 35.28 159.449 35.532 159.001 36.036C158.553 36.5307 158.329 37.2353 158.329 38.15C158.329 39.074 158.553 39.788 159.001 40.292C159.449 40.796 160.037 41.048 160.765 41.048C161.325 41.048 161.792 40.9173 162.165 40.656C162.538 40.3947 162.795 40.0213 162.935 39.536H164.307C164.102 40.32 163.691 40.95 163.075 41.426C162.459 41.8927 161.689 42.126 160.765 42.126C160.037 42.126 159.388 41.9627 158.819 41.636C158.259 41.3093 157.82 40.8473 157.503 40.25C157.186 39.6527 157.027 38.9527 157.027 38.15ZM164.971 38.136C164.971 37.352 165.13 36.666 165.447 36.078C165.764 35.4807 166.198 35.0187 166.749 34.692C167.309 34.3653 167.93 34.202 168.611 34.202C169.283 34.202 169.866 34.3467 170.361 34.636C170.856 34.9253 171.224 35.2893 171.467 35.728V34.328H172.755V42H171.467V40.572C171.215 41.02 170.837 41.3933 170.333 41.692C169.838 41.9813 169.26 42.126 168.597 42.126C167.916 42.126 167.3 41.958 166.749 41.622C166.198 41.286 165.764 40.8147 165.447 40.208C165.13 39.6013 164.971 38.9107 164.971 38.136ZM171.467 38.15C171.467 37.5713 171.35 37.0673 171.117 36.638C170.884 36.2087 170.566 35.882 170.165 35.658C169.773 35.4247 169.339 35.308 168.863 35.308C168.387 35.308 167.953 35.42 167.561 35.644C167.169 35.868 166.856 36.1947 166.623 36.624C166.39 37.0533 166.273 37.5573 166.273 38.136C166.273 38.724 166.39 39.2373 166.623 39.676C166.856 40.1053 167.169 40.4367 167.561 40.67C167.953 40.894 168.387 41.006 168.863 41.006C169.339 41.006 169.773 40.894 170.165 40.67C170.566 40.4367 170.884 40.1053 171.117 39.676C171.35 39.2373 171.467 38.7287 171.467 38.15ZM178.086 34.188C179.019 34.188 179.775 34.4727 180.354 35.042C180.933 35.602 181.222 36.414 181.222 37.478V42H179.962V37.66C179.962 36.8947 179.771 36.3113 179.388 35.91C179.005 35.4993 178.483 35.294 177.82 35.294C177.148 35.294 176.611 35.504 176.21 35.924C175.818 36.344 175.622 36.9553 175.622 37.758V42H174.348V34.328H175.622V35.42C175.874 35.028 176.215 34.7247 176.644 34.51C177.083 34.2953 177.563 34.188 178.086 34.188ZM35.794 64.126C35.206 64.126 34.6787 64.028 34.212 63.832C33.7453 63.6267 33.3767 63.3467 33.106 62.992C32.8353 62.628 32.686 62.2127 32.658 61.746H33.974C34.0113 62.1287 34.1887 62.4413 34.506 62.684C34.8327 62.9267 35.2573 63.048 35.78 63.048C36.2653 63.048 36.648 62.9407 36.928 62.726C37.208 62.5113 37.348 62.2407 37.348 61.914C37.348 61.578 37.1987 61.3307 36.9 61.172C36.6013 61.004 36.1393 60.8407 35.514 60.682C34.9447 60.5327 34.478 60.3833 34.114 60.234C33.7593 60.0753 33.4513 59.8467 33.19 59.548C32.938 59.24 32.812 58.8387 32.812 58.344C32.812 57.952 32.9287 57.5927 33.162 57.266C33.3953 56.9393 33.7267 56.6827 34.156 56.496C34.5853 56.3 35.0753 56.202 35.626 56.202C36.4753 56.202 37.1613 56.4167 37.684 56.846C38.2067 57.2753 38.4867 57.8633 38.524 58.61H37.25C37.222 58.2087 37.0587 57.8867 36.76 57.644C36.4707 57.4013 36.0787 57.28 35.584 57.28C35.1267 57.28 34.7627 57.378 34.492 57.574C34.2213 57.77 34.086 58.0267 34.086 58.344C34.086 58.596 34.1653 58.806 34.324 58.974C34.492 59.1327 34.6973 59.2633 34.94 59.366C35.192 59.4593 35.5373 59.5667 35.976 59.688C36.5267 59.8373 36.9747 59.9867 37.32 60.136C37.6653 60.276 37.9593 60.4907 38.202 60.78C38.454 61.0693 38.5847 61.4473 38.594 61.914C38.594 62.334 38.4773 62.712 38.244 63.048C38.0107 63.384 37.6793 63.65 37.25 63.846C36.83 64.0327 36.3447 64.126 35.794 64.126ZM46.8325 59.87C46.8325 60.1127 46.8185 60.3693 46.7905 60.64H40.6585C40.7051 61.396 40.9618 61.9887 41.4285 62.418C41.9045 62.838 42.4785 63.048 43.1505 63.048C43.7011 63.048 44.1585 62.922 44.5225 62.67C44.8958 62.4087 45.1571 62.0633 45.3065 61.634H46.6785C46.4731 62.3713 46.0625 62.9733 45.4465 63.44C44.8305 63.8973 44.0651 64.126 43.1505 64.126C42.4225 64.126 41.7691 63.9627 41.1905 63.636C40.6211 63.3093 40.1731 62.8473 39.8465 62.25C39.5198 61.6433 39.3565 60.9433 39.3565 60.15C39.3565 59.3567 39.5151 58.6613 39.8325 58.064C40.1498 57.4667 40.5931 57.0093 41.1625 56.692C41.7411 56.3653 42.4038 56.202 43.1505 56.202C43.8785 56.202 44.5225 56.3607 45.0825 56.678C45.6425 56.9953 46.0718 57.434 46.3705 57.994C46.6785 58.5447 46.8325 59.17 46.8325 59.87ZM45.5165 59.604C45.5165 59.1187 45.4091 58.7033 45.1945 58.358C44.9798 58.0033 44.6858 57.7373 44.3125 57.56C43.9485 57.3733 43.5425 57.28 43.0945 57.28C42.4505 57.28 41.8998 57.4853 41.4425 57.896C40.9945 58.3067 40.7378 58.876 40.6725 59.604H45.5165ZM54.9541 59.87C54.9541 60.1127 54.9401 60.3693 54.9121 60.64H48.7801C48.8268 61.396 49.0834 61.9887 49.5501 62.418C50.0261 62.838 50.6001 63.048 51.2721 63.048C51.8228 63.048 52.2801 62.922 52.6441 62.67C53.0174 62.4087 53.2788 62.0633 53.4281 61.634H54.8001C54.5948 62.3713 54.1841 62.9733 53.5681 63.44C52.9521 63.8973 52.1868 64.126 51.2721 64.126C50.5441 64.126 49.8908 63.9627 49.3121 63.636C48.7428 63.3093 48.2948 62.8473 47.9681 62.25C47.6414 61.6433 47.4781 60.9433 47.4781 60.15C47.4781 59.3567 47.6368 58.6613 47.9541 58.064C48.2714 57.4667 48.7148 57.0093 49.2841 56.692C49.8628 56.3653 50.5254 56.202 51.2721 56.202C52.0001 56.202 52.6441 56.3607 53.2041 56.678C53.7641 56.9953 54.1934 57.434 54.4921 57.994C54.8001 58.5447 54.9541 59.17 54.9541 59.87ZM53.6381 59.604C53.6381 59.1187 53.5308 58.7033 53.3161 58.358C53.1014 58.0033 52.8074 57.7373 52.4341 57.56C52.0701 57.3733 51.6641 57.28 51.2161 57.28C50.5721 57.28 50.0214 57.4853 49.5641 57.896C49.1161 58.3067 48.8594 58.876 48.7941 59.604H53.6381ZM65.8562 56.328L61.2362 67.612H59.9202L61.4322 63.916L58.3382 56.328H59.7522L62.1602 62.544L64.5402 56.328H65.8562ZM69.9228 64.126C69.2042 64.126 68.5508 63.9627 67.9628 63.636C67.3842 63.3093 66.9268 62.8473 66.5908 62.25C66.2642 61.6433 66.1008 60.9433 66.1008 60.15C66.1008 59.366 66.2688 58.6753 66.6048 58.078C66.9502 57.4713 67.4168 57.0093 68.0048 56.692C68.5928 56.3653 69.2508 56.202 69.9788 56.202C70.7068 56.202 71.3648 56.3653 71.9528 56.692C72.5408 57.0093 73.0028 57.4667 73.3388 58.064C73.6842 58.6613 73.8568 59.3567 73.8568 60.15C73.8568 60.9433 73.6795 61.6433 73.3248 62.25C72.9795 62.8473 72.5082 63.3093 71.9108 63.636C71.3135 63.9627 70.6508 64.126 69.9228 64.126ZM69.9228 63.006C70.3802 63.006 70.8095 62.8987 71.2108 62.684C71.6122 62.4693 71.9342 62.1473 72.1768 61.718C72.4288 61.2887 72.5548 60.766 72.5548 60.15C72.5548 59.534 72.4335 59.0113 72.1908 58.582C71.9482 58.1527 71.6308 57.8353 71.2388 57.63C70.8468 57.4153 70.4222 57.308 69.9648 57.308C69.4982 57.308 69.0688 57.4153 68.6768 57.63C68.2942 57.8353 67.9862 58.1527 67.7528 58.582C67.5195 59.0113 67.4028 59.534 67.4028 60.15C67.4028 60.7753 67.5148 61.3027 67.7388 61.732C67.9722 62.1613 68.2802 62.4833 68.6628 62.698C69.0455 62.9033 69.4655 63.006 69.9228 63.006ZM81.7759 56.328V64H80.5019V62.866C80.2592 63.258 79.9186 63.566 79.4799 63.79C79.0506 64.0047 78.5746 64.112 78.0519 64.112C77.4546 64.112 76.9179 63.9907 76.4419 63.748C75.9659 63.496 75.5879 63.1227 75.3079 62.628C75.0372 62.1333 74.9019 61.5313 74.9019 60.822V56.328H76.1619V60.654C76.1619 61.41 76.3532 61.9933 76.7359 62.404C77.1186 62.8053 77.6412 63.006 78.3039 63.006C78.9852 63.006 79.5219 62.796 79.9139 62.376C80.3059 61.956 80.5019 61.3447 80.5019 60.542V56.328H81.7759ZM84.641 57.574C84.865 57.1353 85.1823 56.7947 85.593 56.552C86.013 56.3093 86.5217 56.188 87.119 56.188V57.504H86.783C85.355 57.504 84.641 58.2787 84.641 59.828V64H83.367V56.328H84.641V57.574ZM92.4761 57.742C92.7281 57.3033 93.1014 56.9393 93.5961 56.65C94.1001 56.3513 94.6834 56.202 95.3461 56.202C96.0274 56.202 96.6434 56.3653 97.1941 56.692C97.7541 57.0187 98.1927 57.4807 98.5101 58.078C98.8274 58.666 98.9861 59.352 98.9861 60.136C98.9861 60.9107 98.8274 61.6013 98.5101 62.208C98.1927 62.8147 97.7541 63.286 97.1941 63.622C96.6434 63.958 96.0274 64.126 95.3461 64.126C94.6927 64.126 94.1141 63.9813 93.6101 63.692C93.1154 63.3933 92.7374 63.0247 92.4761 62.586V67.64H91.2021V56.328H92.4761V57.742ZM97.6841 60.136C97.6841 59.5573 97.5674 59.0533 97.3341 58.624C97.1007 58.1947 96.7834 57.868 96.3821 57.644C95.9901 57.42 95.5561 57.308 95.0801 57.308C94.6134 57.308 94.1794 57.4247 93.7781 57.658C93.3861 57.882 93.0687 58.2133 92.8261 58.652C92.5927 59.0813 92.4761 59.5807 92.4761 60.15C92.4761 60.7287 92.5927 61.2373 92.8261 61.676C93.0687 62.1053 93.3861 62.4367 93.7781 62.67C94.1794 62.894 94.6134 63.006 95.0801 63.006C95.5561 63.006 95.9901 62.894 96.3821 62.67C96.7834 62.4367 97.1007 62.1053 97.3341 61.676C97.5674 61.2373 97.6841 60.724 97.6841 60.136ZM103.449 64.126C102.73 64.126 102.077 63.9627 101.489 63.636C100.91 63.3093 100.453 62.8473 100.117 62.25C99.7903 61.6433 99.627 60.9433 99.627 60.15C99.627 59.366 99.795 58.6753 100.131 58.078C100.476 57.4713 100.943 57.0093 101.531 56.692C102.119 56.3653 102.777 56.202 103.505 56.202C104.233 56.202 104.891 56.3653 105.479 56.692C106.067 57.0093 106.529 57.4667 106.865 58.064C107.21 58.6613 107.383 59.3567 107.383 60.15C107.383 60.9433 107.206 61.6433 106.851 62.25C106.506 62.8473 106.034 63.3093 105.437 63.636C104.84 63.9627 104.177 64.126 103.449 64.126ZM103.449 63.006C103.906 63.006 104.336 62.8987 104.737 62.684C105.138 62.4693 105.46 62.1473 105.703 61.718C105.955 61.2887 106.081 60.766 106.081 60.15C106.081 59.534 105.96 59.0113 105.717 58.582C105.474 58.1527 105.157 57.8353 104.765 57.63C104.373 57.4153 103.948 57.308 103.491 57.308C103.024 57.308 102.595 57.4153 102.203 57.63C101.82 57.8353 101.512 58.1527 101.279 58.582C101.046 59.0113 100.929 59.534 100.929 60.15C100.929 60.7753 101.041 61.3027 101.265 61.732C101.498 62.1613 101.806 62.4833 102.189 62.698C102.572 62.9033 102.992 63.006 103.449 63.006ZM111.214 64.126C110.626 64.126 110.099 64.028 109.632 63.832C109.165 63.6267 108.797 63.3467 108.526 62.992C108.255 62.628 108.106 62.2127 108.078 61.746H109.394C109.431 62.1287 109.609 62.4413 109.926 62.684C110.253 62.9267 110.677 63.048 111.2 63.048C111.685 63.048 112.068 62.9407 112.348 62.726C112.628 62.5113 112.768 62.2407 112.768 61.914C112.768 61.578 112.619 61.3307 112.32 61.172C112.021 61.004 111.559 60.8407 110.934 60.682C110.365 60.5327 109.898 60.3833 109.534 60.234C109.179 60.0753 108.871 59.8467 108.61 59.548C108.358 59.24 108.232 58.8387 108.232 58.344C108.232 57.952 108.349 57.5927 108.582 57.266C108.815 56.9393 109.147 56.6827 109.576 56.496C110.005 56.3 110.495 56.202 111.046 56.202C111.895 56.202 112.581 56.4167 113.104 56.846C113.627 57.2753 113.907 57.8633 113.944 58.61H112.67C112.642 58.2087 112.479 57.8867 112.18 57.644C111.891 57.4013 111.499 57.28 111.004 57.28C110.547 57.28 110.183 57.378 109.912 57.574C109.641 57.77 109.506 58.0267 109.506 58.344C109.506 58.596 109.585 58.806 109.744 58.974C109.912 59.1327 110.117 59.2633 110.36 59.366C110.612 59.4593 110.957 59.5667 111.396 59.688C111.947 59.8373 112.395 59.9867 112.74 60.136C113.085 60.276 113.379 60.4907 113.622 60.78C113.874 61.0693 114.005 61.4473 114.014 61.914C114.014 62.334 113.897 62.712 113.664 63.048C113.431 63.384 113.099 63.65 112.67 63.846C112.25 64.0327 111.765 64.126 111.214 64.126ZM116.807 57.378V61.9C116.807 62.2733 116.886 62.5393 117.045 62.698C117.203 62.8473 117.479 62.922 117.871 62.922H118.809V64H117.661C116.951 64 116.419 63.8367 116.065 63.51C115.71 63.1833 115.533 62.6467 115.533 61.9V57.378H114.539V56.328H115.533V54.396H116.807V56.328H118.809V57.378H116.807Z" fill="#676E7E"/>
</svg>
