<svg width="16" height="11" viewBox="0 0 16 11" fill="none" xmlns="http://www.w3.org/2000/svg">
<path d="M15 9.50024H14.5V1.61899L15.1044 1.48899C15.17 1.47669 15.2324 1.45138 15.2881 1.41455C15.3438 1.37773 15.3915 1.33013 15.4285 1.27457C15.4654 1.21901 15.4909 1.15661 15.5034 1.09105C15.5159 1.02549 15.5151 0.958095 15.5011 0.892837C15.4871 0.827578 15.4602 0.765779 15.422 0.71108C15.3838 0.656382 15.335 0.609893 15.2785 0.574353C15.222 0.538812 15.159 0.514941 15.0931 0.504144C15.0272 0.493348 14.9599 0.495846 14.895 0.51149L0.895 3.51149C0.77439 3.53752 0.667663 3.60722 0.595347 3.70719C0.52303 3.80716 0.490233 3.93035 0.503262 4.05304C0.516292 4.17574 0.574229 4.28928 0.665928 4.37184C0.757628 4.45439 0.876614 4.50012 1 4.50024C1.0355 4.50018 1.0709 4.49641 1.10563 4.48899L1.5 4.40462V9.50024H1C0.867392 9.50024 0.740215 9.55292 0.646447 9.64669C0.552678 9.74045 0.5 9.86763 0.5 10.0002C0.5 10.1328 0.552678 10.26 0.646447 10.3538C0.740215 10.4476 0.867392 10.5002 1 10.5002H15C15.1326 10.5002 15.2598 10.4476 15.3536 10.3538C15.4473 10.26 15.5 10.1328 15.5 10.0002C15.5 9.86763 15.4473 9.74045 15.3536 9.64669C15.2598 9.55292 15.1326 9.50024 15 9.50024ZM2.5 4.18774L13.5 1.83337V9.50024H12V6.00024C12 5.86763 11.9473 5.74046 11.8536 5.64669C11.7598 5.55292 11.6326 5.50024 11.5 5.50024H4.5C4.36739 5.50024 4.24021 5.55292 4.14645 5.64669C4.05268 5.74046 4 5.86763 4 6.00024V9.50024H2.5V4.18774ZM11 7.50024H5V6.50024H11V7.50024ZM5 8.50024H11V9.50024H5V8.50024Z" fill="white"/>
</svg>
