<svg width="20" height="20" viewBox="0 0 20 20" fill="none" xmlns="http://www.w3.org/2000/svg">
<path d="M17.5005 9.99937C17.5005 10.1651 17.4346 10.3241 17.3174 10.4413C17.2002 10.5585 17.0413 10.6244 16.8755 10.6244H4.63409L9.19268 15.1822C9.25075 15.2403 9.29681 15.3092 9.32824 15.3851C9.35966 15.4609 9.37584 15.5422 9.37584 15.6244C9.37584 15.7065 9.35966 15.7878 9.32824 15.8637C9.29681 15.9396 9.25075 16.0085 9.19268 16.0666C9.13461 16.1246 9.06567 16.1707 8.9898 16.2021C8.91393 16.2335 8.83261 16.2497 8.75049 16.2497C8.66837 16.2497 8.58705 16.2335 8.51118 16.2021C8.43531 16.1707 8.36637 16.1246 8.3083 16.0666L2.6833 10.4416C2.62519 10.3835 2.57909 10.3146 2.54764 10.2387C2.51619 10.1628 2.5 10.0815 2.5 9.99937C2.5 9.91724 2.51619 9.83591 2.54764 9.76003C2.57909 9.68416 2.62519 9.61523 2.6833 9.55718L8.3083 3.93218C8.42558 3.81491 8.58464 3.74902 8.75049 3.74902C8.91634 3.74902 9.0754 3.81491 9.19268 3.93218C9.30996 4.04946 9.37584 4.20852 9.37584 4.37437C9.37584 4.54022 9.30996 4.69928 9.19268 4.81656L4.63409 9.37437H16.8755C17.0413 9.37437 17.2002 9.44022 17.3174 9.55743C17.4346 9.67464 17.5005 9.83361 17.5005 9.99937Z" fill="#343330"/>
</svg>
