<svg width="18" height="18" viewBox="0 0 18 18" fill="none" xmlns="http://www.w3.org/2000/svg">
<path d="M6.33317 17.2087L4.87484 14.7087L2.0415 14.0837L2.33317 11.167L0.416504 9.00033L2.33317 6.83366L2.0415 3.91699L4.87484 3.29199L6.33317 0.791992L8.99984 1.91699L11.6665 0.791992L13.1248 3.29199L15.9582 3.91699L15.6665 6.83366L17.5832 9.00033L15.6665 11.167L15.9582 14.0837L13.1248 14.7087L11.6665 17.2087L8.99984 16.0837L6.33317 17.2087ZM6.83317 15.7503L8.99984 14.8337L11.2082 15.7503L12.4165 13.7087L14.7498 13.167L14.5415 10.792L16.0832 9.00033L14.5415 7.20866L14.7498 4.79199L12.4165 4.29199L11.1665 2.25033L8.99984 3.16699L6.7915 2.25033L5.58317 4.29199L3.24984 4.79199L3.45817 7.20866L1.9165 9.00033L3.45817 10.792L3.24984 13.2087L5.58317 13.7087L6.83317 15.7503ZM8.12484 11.6253L12.5415 7.20866L11.729 6.43783L8.12484 10.042L6.31234 8.18783L5.49984 9.00033L8.12484 11.6253Z" fill="#444655"/>
</svg>
