<svg width="18" height="15" viewBox="0 0 18 15" fill="none" xmlns="http://www.w3.org/2000/svg">
<path d="M8.81215 14.48L8.81214 14.48L8.80922 14.4815C8.79102 14.4913 8.77067 14.4965 8.75 14.4965C8.72933 14.4965 8.70898 14.4913 8.69079 14.4815L8.68785 14.48C8.5321 14.3975 6.45624 13.2661 4.42687 11.4889C2.37122 9.68864 0.500136 7.34433 0.5 4.84402C0.501375 3.69234 0.959486 2.58822 1.77385 1.77385C2.58822 0.959486 3.69234 0.501374 4.84403 0.5C6.31107 0.500078 7.57069 1.12848 8.35016 2.16662L8.75 2.69915L9.14984 2.16662C9.92931 1.12848 11.1889 0.500078 12.656 0.5C13.8077 0.501373 14.9118 0.959485 15.7261 1.77385C16.5406 2.58829 16.9987 3.69253 17 4.84431C16.9997 7.34451 15.1287 9.68871 13.0731 11.4889C11.0438 13.2661 8.9679 14.3975 8.81215 14.48Z" stroke="#1D2433"/>
</svg>
