<svg width="14" height="14" viewBox="0 0 14 14" fill="none" xmlns="http://www.w3.org/2000/svg">
<path d="M3.41194 1.63009C4.47401 0.920446 5.72265 0.541671 6.99998 0.541667C8.71229 0.54348 10.3539 1.22449 11.5647 2.43528C12.7755 3.64607 13.4565 5.28773 13.4583 7.00004C13.4583 8.27737 13.0796 9.526 12.3699 10.5881C11.6603 11.6501 10.6516 12.4779 9.4715 12.9667C8.29139 13.4555 6.99284 13.5834 5.74004 13.3342C4.48725 13.085 3.33649 12.4699 2.43327 11.5667C1.53006 10.6635 0.914961 9.51275 0.665765 8.25996C0.416568 7.00716 0.544465 5.70861 1.03328 4.5285C1.5221 3.3484 2.34988 2.33974 3.41194 1.63009ZM4.5 7.54167H9.5C9.64366 7.54167 9.78144 7.4846 9.88302 7.38302C9.9846 7.28143 10.0417 7.14366 10.0417 7C10.0417 6.85634 9.9846 6.71857 9.88302 6.61698C9.78144 6.5154 9.64366 6.45833 9.5 6.45833H4.5C4.35634 6.45833 4.21857 6.5154 4.11699 6.61698C4.0154 6.71857 3.95834 6.85634 3.95834 7C3.95834 7.14366 4.0154 7.28143 4.11699 7.38302C4.21857 7.4846 4.35634 7.54167 4.5 7.54167Z" fill="#D42620" stroke="#909090" stroke-width="0.0833333"/>
</svg>
