<svg width="380" height="210" viewBox="0 0 380 210" fill="none" xmlns="http://www.w3.org/2000/svg">
<path d="M246.972 44.6946H303.31C303.31 44.6946 305.318 44.6946 304.011 42.8976C302.032 40.1634 299.233 33.5796 291.996 34.042C283.716 34.5775 281.948 37.3806 281.948 37.4577C281.948 37.4577 280.686 31.2146 273.64 31.6648C266.593 32.1151 265.007 37.0074 265.007 37.0074C265.007 37.0074 262.115 34.3179 257.141 35.6768C254.375 36.4354 251.669 38.918 252.184 41.2587C249.872 40.4271 249.994 40.1147 247.531 40.6664C242.229 41.851 246.972 44.6946 246.972 44.6946Z" fill="#CFE2FF"/>
<path d="M142.413 71.322H91.7906C91.7906 71.322 89.9854 71.322 91.1618 69.5777C92.9427 66.9206 95.4537 60.5152 101.956 60.9696C109.396 61.4888 110.986 64.2149 110.986 64.2879C110.986 64.2879 112.122 58.2151 118.451 58.6573C124.779 59.0954 126.207 63.8538 126.207 63.8538C126.207 63.8538 128.807 61.2414 133.277 62.5598C135.764 63.294 138.194 65.7117 137.732 67.9875C139.809 67.1762 139.699 66.876 141.91 67.4114C146.672 68.5635 142.413 71.3261 142.413 71.3261V71.322Z" fill="#CFE2FF"/>
<path d="M52.3563 12.6877H1.73396C1.73396 12.6877 -0.0712339 12.6877 1.10518 10.9434C2.88603 8.28633 5.39707 1.88095 11.8998 2.33529C19.3396 2.85453 20.9298 5.58057 20.9298 5.65359C20.9298 5.65359 22.0656 -0.419144 28.3939 0.0230255C34.7223 0.461139 36.1502 5.21953 36.1502 5.21953C36.1502 5.21953 38.7505 2.60708 43.2209 3.92548C45.7076 4.65972 48.1375 7.07746 47.675 9.35321C49.752 8.54189 49.6424 8.2417 51.8533 8.77717C56.6157 9.92925 52.3563 12.6918 52.3563 12.6918V12.6877Z" fill="#CFE2FF"/>
<path d="M299.067 185.2C285.761 193.382 258.428 199.597 250.89 201.203C249.803 201.435 248.736 200.749 248.493 199.666L247.787 196.526C247.889 196.275 248.018 196.011 248.164 195.739C251.426 189.654 264.711 178.588 264.711 178.588L278.512 181.245L299.071 185.204L299.067 185.2Z" fill="#CFE2FF"/>
<path d="M278.507 181.241C267.891 188.835 256.273 193.293 248.164 195.735C251.426 189.65 264.711 178.584 264.711 178.584L278.512 181.241H278.507Z" fill="white"/>
<path d="M197.002 166.142C186.787 172.422 165.811 177.192 160.026 178.426C159.19 178.604 158.371 178.077 158.184 177.245L157.641 174.835C157.722 174.641 157.815 174.442 157.933 174.231C160.436 169.562 170.63 161.067 170.63 161.067L181.222 163.108L197.002 166.146V166.142Z" fill="#CFE2FF"/>
<path d="M181.222 163.104C173.072 168.933 164.155 172.353 157.933 174.227C160.436 169.558 170.63 161.063 170.63 161.063L181.222 163.104Z" fill="white"/>
<path d="M409.187 145.709C409.004 146.557 408.822 147.401 408.635 148.24C408.278 149.814 407.921 151.376 407.56 152.93C407.232 154.321 406.895 155.705 406.55 157.08C406.542 157.12 406.538 157.153 406.526 157.185C406.234 158.37 405.934 159.542 405.629 160.71C405.512 161.145 405.398 161.575 405.284 162.005C405.009 163.071 404.721 164.122 404.424 165.169C403.97 166.816 403.5 168.45 403.017 170.069C402.996 170.142 402.976 170.215 402.952 170.288C402.915 170.402 402.883 170.515 402.85 170.629C402.745 170.974 402.635 171.331 402.526 171.671C402.21 172.714 401.885 173.744 401.556 174.767L383.281 169.627L162.862 149.896L160.403 149.677L156.761 151.392C156.761 151.392 130.782 148.318 115.318 145.429C110.471 144.525 103.802 143.859 98.3334 138.691C97.5464 137.945 96.7838 137.109 96.0536 136.164C90.2648 128.655 66.2376 95.1111 62.8057 88.3934C62.8057 88.3934 69.0528 86.4341 75.2473 91.5454C76.6427 92.6975 78.168 94.0443 79.7866 95.5371C89.4535 104.449 102.5 118.558 111.375 126.635C117.136 131.876 120.097 135.247 140.912 137.852C162.432 140.545 205.237 141.738 227.122 142.168C248.387 142.582 387.878 146.748 409.195 145.701L409.187 145.709Z" fill="white"/>
<path d="M401.552 174.771C401.39 175.27 401.228 175.769 401.062 176.263C400.94 176.637 400.814 177.014 400.692 177.387C400.591 177.695 400.482 178.016 400.38 178.324C400.275 178.637 400.165 178.953 400.056 179.253C400.007 179.395 399.95 179.549 399.901 179.695C399.727 180.198 399.553 180.701 399.374 181.196C398.956 182.365 398.526 183.525 398.092 184.677C397.897 185.184 397.703 185.695 397.508 186.198C397.321 186.681 397.131 187.159 396.94 187.634C396.741 188.137 396.539 188.636 396.336 189.131C396.319 189.172 396.303 189.212 396.287 189.249C396.214 189.419 396.141 189.593 396.068 189.764C396.035 189.837 396.007 189.91 395.971 189.987C395.958 190.036 395.934 190.08 395.914 190.129C395.829 190.328 395.747 190.518 395.666 190.717C395.322 191.537 394.973 192.34 394.608 193.139C394.449 193.5 394.291 193.861 394.125 194.222C394.007 194.486 393.885 194.749 393.768 195.009C393.675 195.208 393.585 195.398 393.488 195.601C393.439 195.711 393.395 195.808 393.342 195.91C393.24 196.121 393.147 196.327 393.05 196.526C391.995 198.729 390.9 200.859 389.756 202.915C388.746 204.729 387.699 206.477 386.62 208.161C386.275 208.704 385.922 209.24 385.565 209.771L354.232 197.909L349.498 196.116L348.602 195.776L297.273 186.239L276.788 182.434L263.161 179.902L195.067 167.246L179.425 164.341L169.791 162.548L169.056 162.414L147.67 158.439L154.797 154.431L159.665 151.693L162.858 149.896L383.277 169.627L401.552 174.767V174.771Z" fill="#569AFE"/>
<path d="M396.287 189.253C396.214 189.423 396.141 189.598 396.068 189.768C396.035 189.841 396.007 189.914 395.971 189.991C395.958 190.04 395.934 190.084 395.914 190.133C395.829 190.332 395.747 190.523 395.666 190.721C395.322 191.541 394.973 192.344 394.608 193.143C394.449 193.504 394.291 193.865 394.125 194.226C394.007 194.49 393.885 194.754 393.768 195.013C393.675 195.212 393.585 195.403 393.488 195.606C393.439 195.715 393.395 195.812 393.342 195.914C393.24 196.125 393.147 196.332 393.05 196.53C391.995 198.733 390.9 200.863 389.756 202.92C388.746 204.733 387.699 206.481 386.62 208.165C386.275 208.708 385.922 209.244 385.565 209.775L354.232 197.914L349.498 196.121L348.602 195.78L297.273 186.243L276.788 182.438L263.161 179.906L195.067 167.25L179.425 164.345L169.791 162.552L169.056 162.418L147.67 158.443L154.797 154.435L376.122 181.201L381.574 181.858L382.3 182.182L396.287 189.253Z" fill="#E7F0FF"/>
<path d="M390.908 177.351L354.232 197.914L349.498 196.121L387.318 174.921L389.232 175.923L390.908 177.351Z" fill="#CFE2FF"/>
<path d="M111.12 137.044L98.3295 138.695C97.5425 137.949 96.7799 137.113 96.0497 136.168C90.2609 128.659 66.2336 95.115 62.8018 88.3973C62.8018 88.3973 69.0489 86.438 75.2434 91.5493C76.6388 92.7014 78.1641 94.0482 79.7827 95.541H73.6775L111.12 137.04V137.044Z" fill="#0022B0"/>
<path d="M401.552 174.771C401.39 175.27 401.228 175.769 401.061 176.263C400.94 176.637 400.814 177.014 400.692 177.387C400.591 177.695 400.481 178.016 400.38 178.324C400.274 178.637 400.165 178.953 400.055 179.253C400.006 179.395 399.95 179.549 399.901 179.695C399.727 180.198 399.552 180.701 399.374 181.196L390.364 177.655L385.703 175.821L382.689 174.637L159.669 151.693L162.862 149.896L383.281 169.627L401.556 174.767L401.552 174.771Z" fill="#86B7FE"/>
</svg>
