<svg width="14" height="15" viewBox="0 0 14 15" fill="none" xmlns="http://www.w3.org/2000/svg">
<path d="M10.6875 1.75V1.8125H10.75H12C12.3149 1.8125 12.617 1.93761 12.8397 2.16031C13.0624 2.38301 13.1875 2.68506 13.1875 3V13C13.1875 13.3149 13.0624 13.617 12.8397 13.8397C12.617 14.0624 12.3149 14.1875 12 14.1875H2C1.68506 14.1875 1.38301 14.0624 1.16031 13.8397C0.937611 13.617 0.8125 13.3149 0.8125 13V3C0.8125 2.68506 0.937611 2.38301 1.16031 2.16031C1.38301 1.93761 1.68506 1.8125 2 1.8125H3.25H3.3125V1.75V1.5C3.3125 1.31766 3.38493 1.1428 3.51386 1.01386C3.6428 0.884933 3.81766 0.8125 4 0.8125C4.18234 0.8125 4.3572 0.884933 4.48614 1.01386C4.61507 1.1428 4.6875 1.31766 4.6875 1.5V1.75V1.8125H4.75H9.25H9.3125V1.75V1.5C9.3125 1.31766 9.38493 1.1428 9.51386 1.01386C9.6428 0.884933 9.81766 0.8125 10 0.8125C10.1823 0.8125 10.3572 0.884933 10.4861 1.01386C10.6151 1.1428 10.6875 1.31766 10.6875 1.5V1.75ZM3.3125 3.25V3.1875H3.25H2.25H2.1875V3.25V4.75V4.8125H2.25H11.75H11.8125V4.75V3.25V3.1875H11.75H10.75H10.6875V3.25C10.6875 3.43234 10.6151 3.6072 10.4861 3.73614C10.3572 3.86507 10.1823 3.9375 10 3.9375C9.81766 3.9375 9.6428 3.86507 9.51386 3.73614C9.38493 3.6072 9.3125 3.43234 9.3125 3.25V3.1875H9.25H4.75H4.6875V3.25C4.6875 3.43234 4.61507 3.6072 4.48614 3.73614C4.3572 3.86507 4.18234 3.9375 4 3.9375C3.81766 3.9375 3.6428 3.86507 3.51386 3.73614C3.38493 3.6072 3.3125 3.43234 3.3125 3.25ZM2.1875 12.75V12.8125H2.25H11.75H11.8125V12.75V6.25V6.1875H11.75H2.25H2.1875V6.25V12.75Z" fill="#344054" stroke="#98A2B3" stroke-width="0.125"/>
</svg>
