<svg width="18" height="18" viewBox="0 0 18 18" fill="none" xmlns="http://www.w3.org/2000/svg">
<path d="M10.6905 11.3719L10.6907 11.3717C10.8076 11.298 10.949 11.2737 11.0838 11.3042C11.2186 11.3348 11.3358 11.4176 11.4095 11.5345C11.4833 11.6514 11.5075 11.7928 11.477 11.9276C11.4465 12.0624 11.3637 12.1795 11.2468 12.2532C10.5727 12.6734 9.79433 12.8962 9 12.8962C8.20568 12.8962 7.42728 12.6734 6.75319 12.2532C6.63632 12.1795 6.55352 12.0624 6.523 11.9276C6.49247 11.7928 6.51675 11.6514 6.59048 11.5345C6.66421 11.4176 6.78136 11.3348 6.91616 11.3042C7.05096 11.2737 7.19236 11.298 7.30926 11.3717L7.30951 11.3719C7.8171 11.6869 8.40261 11.8538 9 11.8538C9.5974 11.8538 10.1829 11.6869 10.6905 11.3719ZM15.2292 9.00001V8.99995C15.2272 7.39641 14.6077 5.85524 13.4993 4.69647C12.3908 3.53769 10.8787 2.85036 9.27683 2.7772L9.25414 2.77617L9.24097 2.79467C8.41929 3.94957 8.39584 5.04901 8.39584 5.0625C8.39584 5.22273 8.45949 5.37641 8.57279 5.48971C8.6861 5.60301 8.83977 5.66667 9 5.66667C9.16024 5.66667 9.31391 5.60301 9.42721 5.48971C9.54052 5.37641 9.60417 5.22273 9.60417 5.0625C9.60417 4.92437 9.65904 4.79189 9.75672 4.69422C9.85439 4.59654 9.98687 4.54167 10.125 4.54167C10.2631 4.54167 10.3956 4.59654 10.4933 4.69422C10.591 4.79189 10.6458 4.92437 10.6458 5.0625C10.6458 5.499 10.4724 5.91763 10.1638 6.22628C9.85513 6.53493 9.43651 6.70833 9 6.70833C8.5635 6.70833 8.14488 6.53493 7.83622 6.22628C7.52757 5.91763 7.35417 5.499 7.35417 5.0625C7.35417 5.01502 7.36279 4.06807 7.94446 2.92776L7.9826 2.85299L7.89999 2.86782C6.73369 3.07706 5.65126 3.61462 4.77973 4.41741C3.90819 5.2202 3.28371 6.25491 2.97955 7.40013C2.67539 8.54535 2.70419 9.75357 3.06255 10.883C3.42091 12.0124 4.09397 13.0162 5.00276 13.7766C5.91154 14.537 7.01834 15.0223 8.19329 15.1758C9.36823 15.3293 10.5626 15.1444 11.6362 14.643C12.7097 14.1415 13.618 13.3442 14.2544 12.3447C14.8909 11.3452 15.229 10.1849 15.2292 9.00001ZM6.46875 9.80208C6.31012 9.80208 6.15504 9.75504 6.02314 9.66691C5.89124 9.57877 5.78843 9.45351 5.72773 9.30694C5.66702 9.16038 5.65113 8.99911 5.68208 8.84352C5.71303 8.68793 5.78942 8.54501 5.90159 8.43284C6.01377 8.32067 6.15669 8.24428 6.31227 8.21333C6.46786 8.18238 6.62914 8.19826 6.7757 8.25897C6.92226 8.31968 7.04753 8.42248 7.13566 8.55439C7.2238 8.68629 7.27084 8.84136 7.27084 9C7.27084 9.21273 7.18633 9.41674 7.03591 9.56716C6.88549 9.71758 6.68148 9.80208 6.46875 9.80208ZM11.0856 8.33309C11.2175 8.24496 11.3726 8.19792 11.5313 8.19792C11.744 8.19792 11.948 8.28242 12.0984 8.43284C12.2488 8.58326 12.3333 8.78727 12.3333 9C12.3333 9.15864 12.2863 9.31371 12.1982 9.44561C12.11 9.57752 11.9848 9.68032 11.8382 9.74103C11.6916 9.80174 11.5304 9.81762 11.3748 9.78667C11.2192 9.75572 11.0763 9.67933 10.9641 9.56716C10.8519 9.45499 10.7755 9.31207 10.7446 9.15648C10.7136 9.00089 10.7295 8.83962 10.7902 8.69306C10.8509 8.54649 10.9537 8.42123 11.0856 8.33309ZM16.2708 9.00004C16.2708 10.4381 15.8444 11.8438 15.0455 13.0395C14.2466 14.2351 13.111 15.1671 11.7824 15.7174C10.4539 16.2677 8.99194 16.4117 7.58153 16.1311C6.17113 15.8506 4.87559 15.1581 3.85875 14.1413C2.8419 13.1244 2.14942 11.8289 1.86888 10.4185C1.58833 9.00807 1.73232 7.54614 2.28263 6.21757C2.83294 4.889 3.76486 3.75345 4.96054 2.95452C6.15622 2.1556 7.56195 1.72917 8.99998 1.72917C10.9277 1.73121 12.7759 2.4979 14.139 3.86101C15.5021 5.22412 16.2688 7.07231 16.2708 9.00004Z" fill="#343330" stroke="#909090" stroke-width="0.0833333"/>
</svg>
