<svg width="50" height="50" viewBox="0 0 50 50" fill="none" xmlns="http://www.w3.org/2000/svg">
<rect width="50" height="50" rx="4" fill="#F0F2F5"/>
<path d="M31.5 25C31.5 25.1658 31.4342 25.3247 31.3169 25.4419C31.1997 25.5592 31.0408 25.625 30.875 25.625H24.625V31.875C24.625 32.0408 24.5592 32.1997 24.4419 32.3169C24.3247 32.4342 24.1658 32.5 24 32.5C23.8342 32.5 23.6753 32.4342 23.5581 32.3169C23.4408 32.1997 23.375 32.0408 23.375 31.875V25.625H17.125C16.9592 25.625 16.8003 25.5592 16.6831 25.4419C16.5658 25.3247 16.5 25.1658 16.5 25C16.5 24.8342 16.5658 24.6753 16.6831 24.5581C16.8003 24.4408 16.9592 24.375 17.125 24.375H23.375V18.125C23.375 17.9592 23.4408 17.8003 23.5581 17.6831C23.6753 17.5658 23.8342 17.5 24 17.5C24.1658 17.5 24.3247 17.5658 24.4419 17.6831C24.5592 17.8003 24.625 17.9592 24.625 18.125V24.375H30.875C31.0408 24.375 31.1997 24.4408 31.3169 24.5581C31.4342 24.6753 31.5 24.8342 31.5 25Z" fill="#343330"/>
</svg>
