<svg width="17" height="16" viewBox="0 0 17 16" fill="none" xmlns="http://www.w3.org/2000/svg">
<path d="M13.5 8.5H11.5V6.5H12.5C12.7652 6.5 13.0196 6.39464 13.2071 6.20711C13.3946 6.01957 13.5 5.76522 13.5 5.5V2.5C13.5 2.23478 13.3946 1.98043 13.2071 1.79289C13.0196 1.60536 12.7652 1.5 12.5 1.5H4.5C4.23478 1.5 3.98043 1.60536 3.79289 1.79289C3.60536 1.98043 3.5 2.23478 3.5 2.5V5.5C3.5 5.76522 3.60536 6.01957 3.79289 6.20711C3.98043 6.39464 4.23478 6.5 4.5 6.5H5.5V8.5H3.5C3.23478 8.5 2.98043 8.60536 2.79289 8.79289C2.60536 8.98043 2.5 9.23478 2.5 9.5V10.5C2.5 10.7652 2.60536 11.0196 2.79289 11.2071C2.98043 11.3946 3.23478 11.5 3.5 11.5H4V14C4 14.1326 4.05268 14.2598 4.14645 14.3536C4.24021 14.4473 4.36739 14.5 4.5 14.5C4.63261 14.5 4.75979 14.4473 4.85355 14.3536C4.94732 14.2598 5 14.1326 5 14V11.5H12V14C12 14.1326 12.0527 14.2598 12.1464 14.3536C12.2402 14.4473 12.3674 14.5 12.5 14.5C12.6326 14.5 12.7598 14.4473 12.8536 14.3536C12.9473 14.2598 13 14.1326 13 14V11.5H13.5C13.7652 11.5 14.0196 11.3946 14.2071 11.2071C14.3946 11.0196 14.5 10.7652 14.5 10.5V9.5C14.5 9.23478 14.3946 8.98043 14.2071 8.79289C14.0196 8.60536 13.7652 8.5 13.5 8.5ZM4.5 2.5H12.5V5.5H4.5V2.5ZM6.5 6.5H10.5V8.5H6.5V6.5ZM13.5 10.5H3.5V9.5H13.5V10.5Z" fill="#343330"/>
</svg>
