<svg width="32" height="32" viewBox="0 0 32 32" fill="none" xmlns="http://www.w3.org/2000/svg">
<path d="M31.9997 17.0001C31.9997 17.2653 31.8943 17.5197 31.7068 17.7072C31.5192 17.8948 31.2649 18.0001 30.9997 18.0001H28.9997V20.0001C28.9997 20.2653 28.8943 20.5197 28.7068 20.7072C28.5192 20.8948 28.2649 21.0001 27.9997 21.0001C27.7345 21.0001 27.4801 20.8948 27.2926 20.7072C27.105 20.5197 26.9997 20.2653 26.9997 20.0001V18.0001H24.9997C24.7345 18.0001 24.4801 17.8948 24.2926 17.7072C24.105 17.5197 23.9997 17.2653 23.9997 17.0001C23.9997 16.7349 24.105 16.4805 24.2926 16.293C24.4801 16.1055 24.7345 16.0001 24.9997 16.0001H26.9997V14.0001C26.9997 13.7349 27.105 13.4805 27.2926 13.293C27.4801 13.1055 27.7345 13.0001 27.9997 13.0001C28.2649 13.0001 28.5192 13.1055 28.7068 13.293C28.8943 13.4805 28.9997 13.7349 28.9997 14.0001V16.0001H30.9997C31.2649 16.0001 31.5192 16.1055 31.7068 16.293C31.8943 16.4805 31.9997 16.7349 31.9997 17.0001ZM24.7659 24.3564C24.9367 24.5596 25.0197 24.8223 24.9967 25.0867C24.9737 25.3512 24.8466 25.5956 24.6434 25.7664C24.4402 25.9371 24.1775 26.0201 23.9131 25.9971C23.6486 25.9742 23.4042 25.8471 23.2334 25.6439C20.7184 22.6489 17.2609 21.0001 13.4997 21.0001C9.73843 21.0001 6.28093 22.6489 3.76593 25.6439C3.59519 25.8469 3.35079 25.9738 3.08648 25.9967C2.82217 26.0196 2.55961 25.9365 2.35655 25.7657C2.15349 25.595 2.02658 25.3506 2.00372 25.0863C1.98087 24.822 2.06394 24.5594 2.23468 24.3564C4.10218 22.1339 6.42468 20.5551 9.00593 19.7101C7.43831 18.7337 6.23133 17.2734 5.56759 15.55C4.90386 13.8265 4.81949 11.9338 5.32724 10.1582C5.83499 8.38254 6.90724 6.82057 8.38176 5.70859C9.85629 4.59661 11.6529 3.99512 13.4997 3.99512C15.3465 3.99512 17.1431 4.59661 18.6176 5.70859C20.0921 6.82057 21.1644 8.38254 21.6721 10.1582C22.1799 11.9338 22.0955 13.8265 21.4318 15.55C20.768 17.2734 19.561 18.7337 17.9934 19.7101C20.5747 20.5551 22.8972 22.1339 24.7659 24.3564ZM13.4997 19.0001C14.7853 19.0001 16.042 18.6189 17.1109 17.9047C18.1798 17.1904 19.0129 16.1753 19.5049 14.9876C19.9969 13.7998 20.1256 12.4929 19.8748 11.232C19.624 9.97115 19.0049 8.81296 18.0959 7.90392C17.1868 6.99488 16.0286 6.37582 14.7678 6.12501C13.5069 5.87421 12.2 6.00293 11.0122 6.4949C9.82451 6.98687 8.80935 7.81999 8.09512 8.88891C7.38089 9.95783 6.99968 11.2145 6.99968 12.5001C7.00166 14.2234 7.68712 15.8756 8.90567 17.0941C10.1242 18.3127 11.7764 18.9981 13.4997 19.0001Z" fill="#344054"/>
</svg>
