<svg width="12" height="16" viewBox="0 0 12 16" fill="none" xmlns="http://www.w3.org/2000/svg">
<path d="M10 0H1.25C0.918479 0 0.600537 0.131696 0.366116 0.366116C0.131696 0.600537 0 0.918479 0 1.25V15C5.54979e-05 15.1115 0.0299591 15.221 0.0866076 15.3171C0.143256 15.4132 0.224586 15.4924 0.322156 15.5464C0.419726 15.6005 0.529983 15.6274 0.641483 15.6245C0.752983 15.6215 0.861665 15.5888 0.95625 15.5297L5.625 12.6117L10.2945 15.5297C10.3891 15.5886 10.4977 15.6212 10.6091 15.624C10.7205 15.6268 10.8306 15.5998 10.928 15.5458C11.0255 15.4918 11.1067 15.4127 11.1633 15.3167C11.2199 15.2208 11.2499 15.1114 11.25 15V1.25C11.25 0.918479 11.1183 0.600537 10.8839 0.366116C10.6495 0.131696 10.3315 0 10 0Z" fill="#FFC200"/>
</svg>
