<svg width="16" height="16" viewBox="0 0 16 16" fill="none" xmlns="http://www.w3.org/2000/svg">
<path d="M13.5 2.5H2.5C2.23478 2.5 1.98043 2.60536 1.79289 2.79289C1.60536 2.98043 1.5 3.23478 1.5 3.5V12.5C1.5 12.7652 1.60536 13.0196 1.79289 13.2071C1.98043 13.3946 2.23478 13.5 2.5 13.5H3.33687C3.4315 13.5 3.5242 13.4732 3.60419 13.4226C3.68418 13.3721 3.74818 13.2999 3.78875 13.2144C4.03189 12.701 4.41576 12.2673 4.89572 11.9635C5.37568 11.6598 5.932 11.4986 6.5 11.4986C7.068 11.4986 7.62432 11.6598 8.10428 11.9635C8.58424 12.2673 8.96811 12.701 9.21125 13.2144C9.25182 13.2999 9.31582 13.3721 9.39581 13.4226C9.4758 13.4732 9.5685 13.5 9.66313 13.5H13.5C13.7652 13.5 14.0196 13.3946 14.2071 13.2071C14.3946 13.0196 14.5 12.7652 14.5 12.5V3.5C14.5 3.23478 14.3946 2.98043 14.2071 2.79289C14.0196 2.60536 13.7652 2.5 13.5 2.5ZM5 9C5 8.70333 5.08797 8.41332 5.2528 8.16665C5.41762 7.91997 5.65189 7.72771 5.92597 7.61418C6.20006 7.50065 6.50166 7.47094 6.79264 7.52882C7.08361 7.5867 7.35088 7.72956 7.56066 7.93934C7.77044 8.14912 7.9133 8.41639 7.97118 8.70736C8.02906 8.99834 7.99935 9.29994 7.88582 9.57403C7.77229 9.84811 7.58003 10.0824 7.33336 10.2472C7.08668 10.412 6.79667 10.5 6.5 10.5C6.10218 10.5 5.72064 10.342 5.43934 10.0607C5.15804 9.77936 5 9.39782 5 9ZM13.5 12.5H9.96437C9.54683 11.7821 8.91744 11.211 8.1625 10.865C8.54099 10.528 8.80812 10.0839 8.92848 9.59161C9.04883 9.09932 9.01673 8.58208 8.83643 8.10845C8.65612 7.63482 8.33613 7.22717 7.91887 6.93954C7.50161 6.65191 7.00679 6.49789 6.5 6.49789C5.99321 6.49789 5.49839 6.65191 5.08113 6.93954C4.66387 7.22717 4.34388 7.63482 4.16357 8.10845C3.98327 8.58208 3.95117 9.09932 4.07152 9.59161C4.19188 10.0839 4.45901 10.528 4.8375 10.865C4.08256 11.211 3.45317 11.7821 3.03562 12.5H2.5V3.5H13.5V12.5ZM3.5 6V5C3.5 4.86739 3.55268 4.74021 3.64645 4.64645C3.74021 4.55268 3.86739 4.5 4 4.5H12C12.1326 4.5 12.2598 4.55268 12.3536 4.64645C12.4473 4.74021 12.5 4.86739 12.5 5V11C12.5 11.1326 12.4473 11.2598 12.3536 11.3536C12.2598 11.4473 12.1326 11.5 12 11.5H11C10.8674 11.5 10.7402 11.4473 10.6464 11.3536C10.5527 11.2598 10.5 11.1326 10.5 11C10.5 10.8674 10.5527 10.7402 10.6464 10.6464C10.7402 10.5527 10.8674 10.5 11 10.5H11.5V5.5H4.5V6C4.5 6.13261 4.44732 6.25979 4.35355 6.35355C4.25979 6.44732 4.13261 6.5 4 6.5C3.86739 6.5 3.74021 6.44732 3.64645 6.35355C3.55268 6.25979 3.5 6.13261 3.5 6Z" fill="white"/>
</svg>
