<svg width="250" height="458" viewBox="0 0 250 458" fill="none" xmlns="http://www.w3.org/2000/svg">
<path d="M179.746 161.212C185.464 163.637 190.62 167.374 194.715 172.047C194.113 183.398 193.613 195.886 191.436 207.045C187.804 208.38 184.107 207.514 180.82 205.472C171.379 199.581 164.202 190.164 161.034 179.507C158.389 170.632 170.827 163.691 179.744 161.22L179.746 161.212Z" fill="#257CFD"/>
<path opacity="0.2" d="M179.746 161.212C185.464 163.637 190.62 167.374 194.715 172.047C194.113 183.398 193.613 195.886 191.436 207.045C187.804 208.38 184.107 207.514 180.82 205.472C171.379 199.581 164.202 190.164 161.034 179.507C158.389 170.632 170.827 163.691 179.744 161.22L179.746 161.212Z" fill="black"/>
<path d="M189.066 148.571C194.783 150.996 199.94 154.733 204.034 159.407C203.432 170.758 202.932 183.246 200.755 194.404C197.123 195.74 193.426 194.873 190.139 192.831C180.699 186.941 173.521 177.523 170.353 166.866C167.708 157.991 180.147 151.051 189.063 148.58L189.066 148.571Z" fill="#257CFD"/>
<path opacity="0.1" d="M189.066 148.571C194.783 150.996 199.94 154.733 204.034 159.407C203.432 170.758 202.932 183.246 200.755 194.404C197.123 195.74 193.426 194.873 190.139 192.831C180.699 186.941 173.521 177.523 170.353 166.866C167.708 157.991 180.147 151.051 189.063 148.58L189.066 148.571Z" fill="black"/>
<path d="M-95.0314 335.158C-98.5883 356.969 -84.2281 378.547 -65.4847 390.257C-46.7412 401.966 -24.8491 410.571 -3.05931 414.246C16.7779 384.361 36.1496 351.315 49.4969 318.015C30.3156 300.848 9.87207 283.865 -12.3411 270.865C-38.4518 286.81 -62.3595 306.376 -83.1483 328.829C-85.8033 331.703 -91.7612 333.019 -95.0314 335.158Z" fill="#86B7FE"/>
<path opacity="0.1" d="M49.5007 318.007C30.3194 300.839 9.87585 283.857 -12.3373 270.856C-21.6976 276.575 -30.7657 282.762 -39.5177 289.373C-20.4154 295.885 -3.47097 308.771 7.6058 325.673C16.8274 339.746 21.88 356.448 22.3585 373.252C32.649 355.257 42.0254 336.679 49.5087 318.009L49.5007 318.007Z" fill="black"/>
<path d="M151.835 114.188C175.511 108.933 200.394 109.183 223.956 114.904C228.642 116.04 234.249 118.589 234.281 123.407C234.312 128.474 228.239 130.99 223.269 132.006C199.545 136.861 175.12 138.266 150.993 136.162C147.689 129.2 149.359 121.482 151.826 114.185L151.835 114.188Z" fill="#257CFD"/>
<path d="M190.711 133.421C200.821 141.791 208.979 152.516 214.35 164.497C212.596 165.892 210.039 167.4 207.833 167.776C197.819 169.489 188.309 163.514 181.284 156.167C178.947 153.722 179.606 149.708 179.747 146.326C179.867 143.499 180.431 140.593 182.057 138.283C183.682 135.973 187.931 132.907 190.721 133.415L190.711 133.421Z" fill="#257CFD"/>
<path d="M176.869 188.755C175.531 206.161 163.647 221.179 149.677 231.645C135.707 242.11 119.47 249.068 104.477 257.999C89.4769 266.927 75.1157 278.592 68.4105 294.711C59.2265 295.955 48.6441 296.218 41.312 290.552C33.98 284.886 29.045 276.208 27.9292 267.013C38.1598 243.247 51.4973 220.547 68.6796 201.21C85.862 181.874 109.045 166.852 134.741 163.814C143.351 162.801 152.399 163.204 160.213 166.953C168.025 170.71 177.534 180.104 176.88 188.75L176.869 188.755Z" fill="#257CFD"/>
<path opacity="0.1" d="M139.808 238.319C139.691 237.586 139.525 236.892 139.307 236.277C137.872 232.239 134.738 229.045 131.467 226.27C123.359 219.407 113.637 214.217 103.154 212.483C92.6729 210.74 81.4163 212.662 72.709 218.754C64.0016 224.845 59.3963 236.734 59.9514 247.349C81.1707 240.92 104.192 240.652 125.594 246.417C130.409 243.829 135.18 241.182 139.813 238.33L139.808 238.319Z" fill="black"/>
<path d="M209.482 63.8103L143.135 42.184C133.948 39.1894 124.072 44.2095 121.078 53.3968L71.8389 204.457C68.8443 213.644 73.8644 223.519 83.0517 226.514L149.399 248.14C158.586 251.135 168.462 246.115 171.456 236.927L220.695 85.8677C223.69 76.6804 218.67 66.8049 209.482 63.8103Z" fill="white"/>
<path d="M207.804 68.9873L198.009 65.7947L197.201 68.2735C196.123 71.5812 192.548 73.3985 189.241 72.3203L154.49 60.993C151.182 59.9149 149.365 56.34 150.443 53.0323L151.251 50.5535L141.456 47.361C135.139 45.3018 128.32 48.7681 126.261 55.0858L77.0218 206.146C74.9625 212.463 78.4289 219.282 84.7465 221.341L151.094 242.968C157.411 245.027 164.23 241.561 166.289 235.243L215.528 84.1831C217.588 77.8654 214.121 71.0465 207.804 68.9873Z" fill="#0D6EFD"/>
<path opacity="0.4" d="M143.689 235.123L95.337 219.363C94.0896 218.956 93.4061 217.611 93.8127 216.364C94.2193 215.117 95.5638 214.433 96.8113 214.84L145.163 230.6C146.411 231.007 147.094 232.351 146.688 233.599C146.281 234.846 144.936 235.53 143.689 235.123Z" fill="white"/>
<path d="M200.039 107.393L125.089 82.9624L100.658 157.913L175.609 182.343L200.039 107.393Z" fill="white"/>
<path d="M135.892 82.7886C140.657 84.3417 145.778 81.7381 147.331 76.9734C148.884 72.2086 146.281 67.0869 141.516 65.5338C136.751 63.9807 131.63 66.5843 130.077 71.3491C128.523 76.1138 131.127 81.2355 135.892 82.7886Z" fill="white"/>
<path opacity="0.4" d="M196.778 92.9218L155.999 79.6297C154.752 79.2231 154.068 77.8785 154.475 76.6311C154.881 75.3837 156.226 74.7002 157.473 75.1068L198.252 88.3989C199.5 88.8055 200.183 90.1501 199.777 91.3975C199.37 92.6449 198.025 93.3284 196.778 92.9218Z" fill="white"/>
<path opacity="0.4" d="M167.256 191.336L102.108 170.101C100.86 169.694 100.177 168.35 100.583 167.102C100.99 165.855 102.334 165.171 103.582 165.578L168.73 186.813C169.977 187.22 170.661 188.565 170.254 189.812C169.848 191.059 168.503 191.743 167.256 191.336Z" fill="white"/>
<path opacity="0.4" d="M163.802 201.927L98.6544 180.692C97.4069 180.285 96.7234 178.941 97.13 177.693C97.5367 176.446 98.8812 175.762 100.129 176.169L165.277 197.404C166.524 197.811 167.208 199.155 166.801 200.403C166.394 201.65 165.05 202.334 163.802 201.927Z" fill="white"/>
<path opacity="0.4" d="M160.353 212.511L95.2052 191.275C93.9577 190.869 93.2742 189.524 93.6808 188.277C94.0874 187.029 95.432 186.346 96.6794 186.752L161.828 207.988C163.075 208.394 163.758 209.739 163.352 210.986C162.945 212.234 161.601 212.917 160.353 212.511Z" fill="white"/>
<path opacity="0.4" d="M156.9 223.102L91.752 201.867C90.5046 201.46 89.8211 200.115 90.2277 198.868C90.6343 197.62 91.9789 196.937 93.2263 197.344L158.374 218.579C159.622 218.986 160.305 220.33 159.899 221.578C159.492 222.825 158.148 223.509 156.9 223.102Z" fill="white"/>
<path opacity="0.2" d="M93.549 196.309C94.3149 187.104 92.1486 177.744 93.7343 168.646C95.3382 159.464 100.603 151.396 105.672 143.575C110.741 135.755 115.869 127.562 117.127 118.321C117.966 112.14 116.257 103.837 112.486 97.8713C111.301 95.9894 109.243 95.2562 107.344 95.5366L71.838 204.465C69.0206 213.109 73.3036 222.366 81.4755 225.92C87.8133 216.938 92.6388 207.159 93.5438 196.325L93.549 196.309Z" fill="black"/>
<path d="M-5.21395 256.566C10.8266 248.271 23.9258 234.414 31.3086 217.937C37.3065 204.535 39.5422 189.728 45.1428 176.151C52.0948 159.302 63.917 145.02 74.6413 130.283C83.8006 117.697 92.4474 104.116 96.2615 89.1646C97.3233 85.0058 102.769 83.9229 105.377 87.3372C109.663 92.9542 112.099 101.076 111.806 107.301C111.362 116.611 106.987 125.228 102.619 133.464C98.26 141.703 93.7285 150.197 92.9337 159.491C92.1517 168.691 95.1383 177.829 95.1811 187.066C95.2673 204.856 84.6525 220.76 73.9433 234.959C63.2234 249.164 51.5754 263.868 49.0076 281.469C38.0753 284.663 26.4383 287.752 15.7555 283.789C5.07263 279.826 -4.60028 267.93 -5.21133 256.558L-5.21395 256.566Z" fill="#257CFD"/>
<path d="M4.85462 238.979C33.0388 249.421 58.4798 267.187 77.9748 290.056C70.9861 303.412 60.2819 322.376 48.6021 331.906C15.631 318.15 -8.23661 300.692 -29.1641 271.729C-21.0272 258.347 -7.08732 248.139 4.85462 238.979Z" fill="#86B7FE"/>
<path opacity="0.35" d="M204.685 148.125C202.537 150.728 200.884 153.724 199.84 156.927C199.174 158.971 201.318 160.64 203.013 161.967C205.556 163.971 208.513 165.443 211.635 166.3C212.627 165.742 213.565 165.104 214.345 164.486C211.748 158.689 208.491 153.194 204.688 148.117L204.685 148.125Z" fill="white"/>
<path opacity="0.35" d="M193.986 179.805C193.21 183.113 192.25 187.697 192.674 191.067C192.821 192.228 193.139 193.382 193.626 194.458C195.941 195.195 198.361 195.28 200.759 194.397C201.748 189.315 202.381 183.957 202.849 178.563C199.87 178.687 196.896 179.098 193.997 179.8L193.986 179.805Z" fill="white"/>
<path opacity="0.35" d="M99.3639 106.521C101.727 100.036 101.177 92.5739 98.031 86.4381C97.2055 87.086 96.5611 87.9978 96.261 89.1642C94.8027 94.8675 92.6443 100.369 90.027 105.695C92.9295 107.033 96.3608 107.377 99.3558 106.519L99.3639 106.521Z" fill="white"/>
<g style="mix-blend-mode:screen" opacity="0.2">
<path d="M61.882 241.017C61.7693 240.98 61.6565 240.916 61.5622 240.823C61.2227 240.499 61.2085 239.969 61.5328 239.63C76.488 223.903 84.5814 201.586 83.1926 179.926C83.1573 179.461 83.5107 179.059 83.9843 179.027C84.4498 178.991 84.851 179.345 84.8836 179.818C86.3103 201.936 78.0407 224.738 62.7639 240.797C62.5326 241.042 62.1878 241.116 61.89 241.019L61.882 241.017Z" fill="#257CFD"/>
</g>
<g style="mix-blend-mode:screen" opacity="0.2">
<path d="M78.2483 269.419C78.1598 269.39 78.0685 269.342 77.9904 269.281C77.6218 268.992 77.554 268.462 77.8433 268.094C85.6413 258.1 96.5761 250.446 108.633 246.533C109.079 246.394 109.555 246.629 109.702 247.077C109.85 247.526 109.607 247.999 109.158 248.146C97.4187 251.959 86.7717 259.412 79.178 269.134C78.9497 269.425 78.5783 269.526 78.2483 269.419Z" fill="#257CFD"/>
</g>
<g opacity="0.1">
<path d="M19.674 277.802C19.7667 277.654 19.8514 277.504 19.9467 277.348C21.0718 275.453 21.4384 273.017 20.3034 271.009C19.4799 269.548 18.2597 268.402 16.634 267.872C15.0969 267.371 13.2615 267.512 11.8209 268.244C9.73998 269.302 8.58888 271.304 8.37379 273.575C8.36156 273.75 8.34129 273.921 8.32644 274.103C8.37549 274.635 8.4165 275.165 8.46292 275.706C8.61015 276.51 8.93615 277.231 9.43815 277.849C9.69031 278.331 10.0329 278.728 10.4873 279.027C11.0668 279.626 11.7682 280.042 12.5915 280.274C13.6535 280.567 14.738 280.627 15.8236 280.437C16.6283 280.29 17.3489 279.964 17.9666 279.462C18.6759 279.061 19.2397 278.506 19.674 277.802Z" fill="black"/>
<path d="M33.4683 297.13C37.4038 298.413 39.3948 292.304 35.4594 291.022C31.524 289.739 29.5329 295.847 33.4683 297.13Z" fill="black"/>
<path d="M5.29582 295.613C9.4727 296.974 11.5951 290.49 7.41018 289.126C3.22525 287.762 1.1109 294.249 5.29582 295.613Z" fill="black"/>
<path d="M34.371 315.881C34.6657 315.905 34.8877 315.88 35.2167 315.854C35.792 315.81 36.4657 315.682 36.9614 315.363C37.4952 315.118 37.9238 314.759 38.2606 314.299C38.6889 313.887 38.9773 313.385 39.1475 312.808C39.2198 312.422 39.2922 312.036 39.3566 311.647C39.3862 310.874 39.2315 310.147 38.8869 309.456C38.5845 308.663 37.8276 307.953 37.0992 307.511C35.7393 306.685 33.9495 306.44 32.5175 307.255C31.4614 307.845 30.6294 308.732 30.2464 309.907C29.8844 311.017 29.9869 312.342 30.5185 313.387C31.278 314.881 32.7319 315.747 34.371 315.881Z" fill="black"/>
<path d="M63.5479 306.507C65.5048 304.109 64.0487 300.109 61.102 299.371C60.2118 299.152 59.3925 299.125 58.5247 299.439C57.6568 299.753 57.0872 300.244 56.5112 300.973C56.5033 300.997 56.482 301.008 56.4661 301.029L57.1647 300.224C57.1222 300.273 57.0769 300.303 57.0289 300.34C57.3381 300.129 57.6472 299.919 57.9563 299.708C56.9165 300.33 56.0067 301.182 55.6641 302.397C55.4915 303.009 55.4338 303.595 55.4808 304.216C55.5041 304.5 55.5324 304.74 55.561 305.008C55.6865 305.36 55.812 305.713 55.9374 306.065C56.1483 306.374 56.3591 306.683 56.57 306.993C57.228 307.732 58.1144 308.182 59.0793 308.362C59.8699 308.504 60.5735 308.449 61.3266 308.187C61.7008 308.104 62.0316 307.936 62.319 307.682C62.8204 307.401 63.2247 307.007 63.5318 306.502L63.5479 306.507Z" fill="black"/>
<path d="M47.1464 283.329C51.1784 284.643 53.2273 278.384 49.1873 277.067C45.1472 275.75 43.1063 282.012 47.1464 283.329Z" fill="black"/>
<path d="M24.613 258.525C24.5037 258.587 24.3863 258.647 24.277 258.709C23.2048 259.294 22.777 260.579 23.3037 261.695C23.3553 261.81 23.415 261.927 23.4666 262.042C23.9146 262.989 25.0023 263.531 26.019 263.443C27.0088 263.357 28.0161 262.67 28.2905 261.664C28.5335 260.782 28.3772 259.814 27.7595 259.114C27.0043 258.263 25.6318 257.967 24.6156 258.517L24.613 258.525Z" fill="black"/>
<path d="M0.0848469 261.668C1.0506 261.982 2.20105 261.894 3.10811 261.433C3.97248 260.994 4.81229 260.084 5.07897 259.129C5.35615 258.142 5.36214 257.031 4.84471 256.106C4.3327 255.191 3.56232 254.468 2.54023 254.135C1.57448 253.82 0.424033 253.908 -0.48302 254.369C-1.34739 254.808 -2.18721 255.719 -2.4539 256.673C-2.73107 257.66 -2.73706 258.771 -2.21962 259.697C-1.70762 260.611 -0.937241 261.334 0.0848469 261.668Z" fill="black"/>
<path d="M-0.977817 348.562C-0.977817 348.562 -1.06056 348.597 -1.10062 348.611C-0.796226 348.496 -0.486396 348.392 -0.181999 348.278C-1.97659 348.512 -3.11569 349.903 -3.69668 351.495C-3.76907 351.881 -3.84145 352.267 -3.90578 352.655C-3.9554 353.244 -3.8607 353.801 -3.62165 354.324C-3.29439 355.232 -2.74339 355.972 -1.93664 356.529C-0.869016 357.269 0.419857 357.466 1.67368 357.225C3.00239 356.972 4.04287 356.047 4.61586 354.863C4.91496 354.355 5.0692 353.8 5.07595 353.206C5.1084 352.451 4.95104 351.732 4.61191 351.051C4.38563 350.434 3.96535 350.03 3.50221 349.621C3.23521 349.321 2.90996 349.117 2.53433 348.985C2.31143 348.877 2.08853 348.769 1.86301 348.668C2.71912 349.402 3.56718 350.132 4.42591 350.857C4.12565 350.385 3.90007 349.876 3.49852 349.469C3.81773 350.374 4.13696 351.279 4.45617 352.185C4.45319 352.139 4.45021 352.094 4.44723 352.048C4.47497 351.389 4.33704 350.775 4.04673 350.19C3.74837 349.604 3.32231 349.135 2.78186 348.772C1.60156 347.996 0.287533 348.039 -0.967135 348.556L-0.977817 348.562Z" fill="black"/>
<path d="M-0.01477 373.466C4.01725 374.78 6.06621 368.521 2.02614 367.204C-2.01392 365.888 -4.05483 372.149 -0.01477 373.466Z" fill="black"/>
<path d="M1.52443 389.859C3.08573 390.368 5.02054 389.485 5.47276 387.852C5.9276 386.211 5.13156 384.447 3.46564 383.904C1.90434 383.395 -0.0305001 384.278 -0.482723 385.911C-0.937569 387.552 -0.141496 389.316 1.52443 389.859Z" fill="black"/>
</g>
<path d="M188.707 117.976C188.518 118.552 188.702 119.162 189.127 119.542C189.428 119.811 189.524 120.243 189.398 120.626L188.858 122.276C188.732 122.66 188.399 122.95 187.998 122.989C187.431 123.045 186.921 123.427 186.732 124.003C186.544 124.579 186.728 125.188 187.153 125.569C187.453 125.838 187.549 126.27 187.424 126.653L186.882 128.305C186.757 128.689 186.424 128.979 186.022 129.019C185.454 129.074 184.946 129.455 184.757 130.033C184.568 130.609 184.752 131.219 185.177 131.599C185.478 131.868 185.574 132.3 185.448 132.683L184.908 134.332C184.782 134.716 184.449 135.007 184.048 135.046C183.481 135.101 182.972 135.483 182.783 136.059C182.594 136.635 182.778 137.245 183.203 137.625C183.503 137.894 183.599 138.326 183.474 138.709L183.206 139.527C183.025 140.078 182.431 140.379 181.88 140.198L166.381 135.12C166.022 135.002 165.775 134.695 165.681 134.329C165.6 134.011 165.363 133.739 165.027 133.629C164.691 133.52 164.339 133.597 164.086 133.806C163.794 134.045 163.413 134.147 163.054 134.029L121.158 120.301C120.606 120.12 120.306 119.526 120.486 118.975L120.755 118.157C120.88 117.773 121.213 117.483 121.614 117.444C122.182 117.389 122.691 117.006 122.88 116.43C123.069 115.854 122.884 115.245 122.46 114.864C122.159 114.595 122.063 114.163 122.189 113.78L122.729 112.131C122.855 111.748 123.188 111.456 123.589 111.417C124.156 111.362 124.665 110.98 124.854 110.404C125.044 109.826 124.859 109.218 124.435 108.838C124.133 108.569 124.037 108.137 124.163 107.753L124.704 106.101C124.83 105.718 125.163 105.427 125.564 105.388C126.131 105.332 126.641 104.95 126.83 104.374C127.018 103.798 126.834 103.189 126.409 102.808C126.109 102.539 126.013 102.107 126.138 101.724L126.679 100.074C126.805 99.6904 127.137 99.4 127.539 99.3608C128.106 99.3055 128.615 98.9233 128.804 98.3472C128.993 97.7696 128.809 97.1612 128.385 96.7815C128.083 96.5123 127.987 96.0802 128.113 95.6964L128.382 94.8767C128.563 94.3251 129.156 94.0244 129.708 94.2052L171.605 107.934C171.963 108.051 172.21 108.359 172.304 108.724C172.385 109.043 172.623 109.315 172.958 109.424C173.294 109.534 173.646 109.456 173.9 109.248C174.191 109.008 174.572 108.907 174.931 109.025L190.43 114.103C190.982 114.284 191.283 114.877 191.102 115.429L190.833 116.249C190.707 116.633 190.375 116.923 189.972 116.963C189.405 117.018 188.897 117.399 188.708 117.977L188.707 117.976Z" fill="#E4E7EC"/>
<path d="M121.126 120.379C120.84 120.285 120.609 120.085 120.473 119.817C120.337 119.547 120.313 119.24 120.408 118.953L120.676 118.136C120.815 117.711 121.18 117.409 121.605 117.367C122.159 117.313 122.629 116.937 122.802 116.408C122.975 115.88 122.819 115.298 122.405 114.927C122.086 114.642 121.971 114.183 122.111 113.758L122.651 112.109C122.791 111.683 123.155 111.382 123.58 111.34C124.134 111.286 124.604 110.909 124.777 110.381C124.95 109.852 124.794 109.271 124.38 108.9C124.062 108.615 123.946 108.156 124.086 107.73L124.627 106.078C124.766 105.653 125.131 105.351 125.556 105.31C126.11 105.256 126.58 104.879 126.753 104.351C126.926 103.823 126.77 103.242 126.355 102.87C126.037 102.585 125.922 102.126 126.062 101.701L126.602 100.052C126.742 99.6266 127.106 99.3246 127.53 99.2829C128.084 99.2291 128.554 98.8526 128.727 98.3239C128.901 97.7952 128.745 97.2143 128.331 96.843C128.013 96.558 127.897 96.099 128.037 95.6731L128.306 94.8534C128.5 94.2604 129.14 93.9363 129.733 94.1308L171.629 107.859L171.633 107.861C171.997 107.982 172.277 108.297 172.381 108.706C172.459 109.01 172.682 109.25 172.979 109.348L172.983 109.35C173.282 109.447 173.605 109.387 173.848 109.187C174.175 108.918 174.59 108.829 174.956 108.949L190.455 114.028L190.46 114.029C191.05 114.225 191.372 114.864 191.178 115.455L190.909 116.274C190.77 116.7 190.405 117.002 189.979 117.043C189.426 117.098 188.957 117.474 188.783 118.002C188.61 118.531 188.766 119.112 189.181 119.483C189.498 119.768 189.614 120.227 189.474 120.653L188.934 122.302C188.794 122.728 188.43 123.029 188.005 123.071C187.451 123.125 186.981 123.501 186.808 124.029C186.635 124.558 186.791 125.139 187.205 125.51C187.523 125.795 187.639 126.254 187.499 126.679L186.958 128.331C186.818 128.756 186.454 129.058 186.028 129.1C185.474 129.154 185.005 129.53 184.832 130.059C184.659 130.587 184.815 131.168 185.229 131.54C185.546 131.825 185.662 132.284 185.523 132.709L184.982 134.358C184.843 134.783 184.478 135.085 184.053 135.127C183.499 135.181 183.029 135.557 182.856 136.085C182.683 136.614 182.839 137.195 183.254 137.566C183.572 137.851 183.687 138.31 183.548 138.735L183.279 139.552C183.186 139.84 182.985 140.073 182.715 140.21C182.446 140.346 182.139 140.37 181.852 140.275L166.352 135.197L166.349 135.195C165.984 135.074 165.704 134.759 165.6 134.349C165.522 134.046 165.299 133.806 165.002 133.707L164.998 133.706C164.699 133.608 164.376 133.669 164.133 133.869C163.806 134.137 163.391 134.226 163.025 134.106L121.129 120.378L121.124 120.376L121.126 120.379ZM171.582 108.013L171.578 108.011L129.682 94.2828C129.174 94.1165 128.625 94.3944 128.458 94.9025L128.189 95.7221C128.07 96.0868 128.167 96.4794 128.438 96.7216C128.9 97.1349 129.074 97.7831 128.881 98.3722C128.687 98.9613 128.164 99.3812 127.546 99.441C127.185 99.4765 126.874 99.7343 126.755 100.099L126.214 101.749C126.095 102.113 126.192 102.505 126.462 102.748C126.925 103.161 127.099 103.809 126.905 104.399C126.712 104.988 126.189 105.408 125.571 105.468C125.21 105.503 124.9 105.761 124.78 106.126L124.239 107.777C124.12 108.142 124.217 108.535 124.488 108.777C124.95 109.19 125.123 109.838 124.93 110.428C124.737 111.017 124.213 111.437 123.595 111.497C123.234 111.533 122.924 111.79 122.804 112.155L122.264 113.805C122.144 114.169 122.241 114.562 122.512 114.804C122.974 115.218 123.148 115.866 122.955 116.455C122.762 117.044 122.238 117.464 121.621 117.524C121.26 117.559 120.949 117.817 120.83 118.182L120.561 118.999C120.481 119.245 120.501 119.508 120.618 119.739C120.734 119.969 120.933 120.14 121.177 120.222L121.181 120.223L163.077 133.951C163.391 134.054 163.748 133.976 164.033 133.742C164.319 133.508 164.7 133.436 165.051 133.551L165.055 133.552C165.405 133.669 165.667 133.95 165.758 134.308C165.849 134.663 166.089 134.937 166.401 135.04L166.404 135.041L181.903 140.12C182.149 140.201 182.412 140.18 182.643 140.063C182.874 139.946 183.046 139.746 183.127 139.5L183.395 138.683C183.515 138.318 183.417 137.926 183.147 137.684C182.685 137.269 182.511 136.621 182.704 136.032C182.897 135.443 183.421 135.023 184.038 134.963C184.399 134.927 184.71 134.67 184.829 134.305L185.37 132.655C185.489 132.291 185.392 131.898 185.122 131.656C184.659 131.242 184.486 130.594 184.679 130.004C184.872 129.415 185.396 128.995 186.012 128.935C186.374 128.9 186.685 128.641 186.804 128.277L187.345 126.625C187.465 126.26 187.367 125.868 187.097 125.626C186.635 125.212 186.461 124.564 186.654 123.975C186.847 123.386 187.371 122.966 187.988 122.906C188.349 122.87 188.66 122.612 188.779 122.248L189.32 120.598C189.439 120.233 189.342 119.841 189.072 119.599C188.609 119.185 188.436 118.536 188.629 117.948C188.822 117.358 189.345 116.939 189.963 116.879C190.324 116.844 190.635 116.585 190.755 116.221L191.024 115.401C191.19 114.894 190.914 114.346 190.408 114.178L190.404 114.177L174.905 109.099C174.591 108.996 174.234 109.074 173.949 109.307C173.663 109.542 173.283 109.613 172.932 109.498L172.927 109.497C172.578 109.381 172.315 109.099 172.224 108.742C172.133 108.386 171.894 108.113 171.581 108.009L171.582 108.013Z" fill="#E4E7EC"/>
<path d="M121.828 118.583C122.824 118.447 123.659 117.753 123.974 116.793C124.289 115.832 124.025 114.78 123.303 114.08L123.803 112.556C124.799 112.419 125.634 111.726 125.949 110.766C126.264 109.805 126.001 108.752 125.279 108.052L125.78 106.526C126.775 106.389 127.611 105.696 127.925 104.736C128.24 103.776 127.977 102.722 127.255 102.023L127.755 100.498C128.751 100.362 129.586 99.6685 129.901 98.7085C130.216 97.7478 129.952 96.6944 129.231 95.995L129.447 95.3344L171.188 109.012C171.353 109.654 171.794 110.176 172.4 110.444C172.465 110.472 172.532 110.499 172.601 110.521C173.303 110.751 174.062 110.609 174.632 110.14L189.977 115.168L189.761 115.828C188.765 115.964 187.93 116.658 187.615 117.619C187.3 118.579 187.563 119.632 188.285 120.331L187.785 121.856C186.789 121.992 185.954 122.686 185.639 123.646C185.325 124.606 185.588 125.659 186.31 126.359L185.809 127.886C184.814 128.022 183.978 128.715 183.663 129.676C183.348 130.637 183.611 131.69 184.333 132.389L183.833 133.913C182.837 134.05 182.002 134.743 181.687 135.703C181.373 136.663 181.636 137.717 182.358 138.416L182.142 139.074L166.798 134.046C166.634 133.404 166.193 132.882 165.587 132.614C165.521 132.586 165.454 132.559 165.385 132.537C164.684 132.308 163.924 132.449 163.354 132.918L121.612 119.241L121.828 118.583Z" fill="#0022B0"/>
<path d="M171.519 131.382L171.456 131.572C171.45 131.592 171.437 131.598 171.417 131.592L170.939 131.436C170.931 131.433 170.926 131.436 170.924 131.444L170.338 133.231C170.332 133.251 170.318 133.258 170.299 133.252L170.073 133.177C170.053 133.171 170.047 133.158 170.053 133.138L170.638 131.351C170.641 131.343 170.639 131.337 170.63 131.335L170.173 131.185C170.153 131.179 170.146 131.165 170.153 131.145L170.216 130.956C170.222 130.935 170.235 130.929 170.255 130.935L171.499 131.343C171.519 131.35 171.526 131.363 171.519 131.383L171.519 131.382Z" fill="#E4E7EC"/>
<path d="M172.363 133.901L172.308 132.897C172.307 132.89 172.305 132.885 172.298 132.883L171.983 132.78C171.976 132.778 171.971 132.78 171.968 132.789L171.679 133.671C171.673 133.691 171.659 133.697 171.64 133.691L171.414 133.616C171.394 133.61 171.388 133.597 171.394 133.578L172.056 131.556C172.063 131.536 172.076 131.529 172.095 131.536L172.761 131.753C172.927 131.808 173.043 131.906 173.108 132.048C173.173 132.19 173.177 132.349 173.119 132.525C173.075 132.657 173.008 132.761 172.916 132.835C172.824 132.908 172.718 132.946 172.596 132.948C172.589 132.949 172.586 132.953 172.585 132.961L172.655 133.983L172.654 133.996C172.649 134.012 172.637 134.017 172.619 134.011L172.388 133.934C172.372 133.93 172.364 133.919 172.363 133.901L172.363 133.901ZM172.267 131.877L172.049 132.542C172.046 132.55 172.049 132.555 172.057 132.558L172.416 132.675C172.507 132.705 172.591 132.698 172.668 132.654C172.744 132.61 172.8 132.537 172.833 132.434C172.868 132.329 172.868 132.236 172.833 132.154C172.798 132.073 172.734 132.017 172.641 131.986L172.282 131.869C172.274 131.866 172.269 131.869 172.267 131.877Z" fill="#E4E7EC"/>
<path d="M174.292 134.53L174.319 134.158C174.321 134.152 174.317 134.147 174.307 134.144L173.651 133.929C173.643 133.927 173.637 133.928 173.633 133.933L173.431 134.249C173.423 134.266 173.41 134.271 173.39 134.265L173.159 134.188C173.149 134.186 173.143 134.18 173.14 134.173C173.136 134.165 173.137 134.157 173.143 134.148L174.354 132.308C174.364 132.292 174.377 132.286 174.396 132.292L174.675 132.383C174.692 132.389 174.7 132.401 174.699 132.421L174.59 134.622L174.59 134.632C174.584 134.648 174.572 134.652 174.553 134.646L174.318 134.568C174.301 134.563 174.292 134.551 174.294 134.532L174.292 134.53ZM173.775 133.715C173.775 133.715 173.779 133.721 173.783 133.722L174.318 133.898C174.322 133.899 174.326 133.899 174.33 133.897C174.334 133.895 174.336 133.893 174.334 133.889L174.415 132.732C174.414 132.727 174.413 132.725 174.411 132.724C174.408 132.723 174.406 132.725 174.402 132.728L173.776 133.706C173.776 133.706 173.773 133.711 173.775 133.715Z" fill="#E4E7EC"/>
<path d="M175.282 134.854L175.412 132.661L175.412 132.65C175.418 132.634 175.43 132.63 175.45 132.637L175.693 132.717C175.713 132.723 175.721 132.735 175.718 132.754L175.582 134.471C175.582 134.478 175.583 134.482 175.585 134.482C175.587 134.483 175.59 134.481 175.594 134.475L176.502 133.01C176.511 132.993 176.525 132.988 176.543 132.994L176.778 133.072C176.788 133.074 176.795 133.079 176.797 133.087C176.8 133.094 176.799 133.103 176.794 133.112L175.595 134.955C175.586 134.971 175.572 134.977 175.554 134.971L175.307 134.889C175.289 134.884 175.281 134.872 175.283 134.853L175.282 134.854Z" fill="#E4E7EC"/>
<path d="M178.395 133.875L177.534 133.593C177.526 133.591 177.521 133.593 177.518 133.602L177.309 134.243C177.306 134.251 177.309 134.257 177.316 134.259L177.883 134.444C177.903 134.451 177.91 134.464 177.903 134.484L177.841 134.671C177.835 134.691 177.822 134.698 177.802 134.691L177.235 134.505C177.228 134.503 177.223 134.505 177.22 134.514L177.007 135.164C177.005 135.172 177.007 135.177 177.015 135.18L177.877 135.462C177.897 135.468 177.903 135.482 177.897 135.501L177.835 135.688C177.829 135.708 177.816 135.715 177.796 135.708L176.667 135.338C176.647 135.332 176.641 135.319 176.647 135.299L177.309 133.279C177.315 133.259 177.329 133.253 177.348 133.259L178.476 133.629C178.496 133.635 178.503 133.649 178.496 133.668L178.434 133.855C178.428 133.875 178.415 133.882 178.395 133.875Z" fill="#E4E7EC"/>
<path d="M178.397 135.871L179.058 133.852C179.065 133.832 179.078 133.825 179.097 133.831L179.323 133.906C179.343 133.912 179.35 133.926 179.344 133.945L178.757 135.735C178.755 135.743 178.757 135.748 178.766 135.751L179.609 136.027C179.629 136.033 179.636 136.047 179.629 136.067L179.567 136.253C179.561 136.273 179.548 136.28 179.528 136.273L178.417 135.909C178.397 135.903 178.391 135.89 178.397 135.87L178.397 135.871Z" fill="#E4E7EC"/>
<path d="M184.285 121.009C183.771 120.928 182.857 120.874 182.222 121.199L179.456 122.602L174.39 119.829C174.26 119.757 174.098 119.821 174.048 119.96L173.96 120.213C173.93 120.3 173.953 120.396 174.018 120.461L175.389 121.824C175.405 121.839 175.419 121.857 175.43 121.876L176.649 124.025L175.173 124.772C174.986 124.854 174.805 124.951 174.631 125.054C174.581 125.084 174.533 125.114 174.485 125.144L172.675 124.137C172.559 124.073 172.413 124.114 172.349 124.23L172.228 124.45C172.181 124.533 172.188 124.637 172.247 124.712L173.281 126.05C173.086 126.232 172.931 126.405 172.81 126.562C172.655 126.763 172.794 127.051 173.049 127.053C173.245 127.054 173.477 127.039 173.741 126.998L174.155 128.638C174.178 128.732 174.254 128.802 174.35 128.816L174.597 128.856C174.728 128.877 174.852 128.788 174.872 128.658L175.198 126.612C175.251 126.593 175.305 126.574 175.359 126.553C175.547 126.479 175.734 126.396 175.915 126.301L177.415 125.603L178.351 127.889C178.359 127.909 178.364 127.93 178.366 127.953L178.589 129.871C178.6 129.963 178.662 130.042 178.75 130.072L179.002 130.158C179.143 130.207 179.293 130.117 179.316 129.971L180.268 124.275L183.079 122.967C183.728 122.671 184.251 121.918 184.503 121.463C184.609 121.276 184.496 121.043 184.283 121.009L184.285 121.009Z" fill="#E4E7EC"/>
<path d="M165 133.71C164.958 133.696 164.934 133.651 164.949 133.608L165.048 133.304C165.062 133.262 165.107 133.239 165.15 133.253C165.192 133.267 165.215 133.312 165.201 133.355L165.102 133.659C165.088 133.701 165.043 133.724 165 133.71ZM165.4 132.487C165.358 132.473 165.335 132.428 165.349 132.385L165.65 131.466C165.664 131.424 165.709 131.4 165.752 131.415C165.794 131.429 165.818 131.474 165.803 131.516L165.502 132.436C165.488 132.478 165.443 132.501 165.4 132.487ZM166.003 130.648C165.961 130.634 165.937 130.589 165.952 130.546L166.253 129.627C166.267 129.585 166.312 129.562 166.355 129.576C166.397 129.59 166.42 129.635 166.406 129.678L166.105 130.597C166.091 130.639 166.045 130.662 166.003 130.648ZM166.605 128.809C166.563 128.795 166.54 128.75 166.554 128.707L166.855 127.788C166.869 127.746 166.914 127.723 166.957 127.737C166.999 127.751 167.023 127.796 167.008 127.839L166.707 128.758C166.693 128.8 166.648 128.824 166.605 128.809ZM167.208 126.971C167.165 126.957 167.142 126.912 167.156 126.869L167.458 125.949C167.472 125.907 167.517 125.884 167.56 125.898C167.602 125.912 167.625 125.957 167.611 126L167.309 126.92C167.296 126.962 167.25 126.985 167.208 126.971ZM167.81 125.132C167.768 125.118 167.745 125.073 167.759 125.03L168.06 124.11C168.074 124.068 168.119 124.045 168.162 124.059C168.204 124.073 168.227 124.118 168.213 124.161L167.912 125.081C167.898 125.123 167.853 125.146 167.81 125.132ZM168.412 123.293C168.37 123.279 168.347 123.234 168.361 123.191L168.663 122.272C168.677 122.23 168.722 122.206 168.765 122.221C168.807 122.235 168.83 122.28 168.816 122.323L168.514 123.242C168.5 123.284 168.455 123.307 168.412 123.293ZM169.015 121.454C168.973 121.44 168.95 121.395 168.964 121.352L169.265 120.433C169.279 120.391 169.324 120.368 169.367 120.382C169.409 120.396 169.432 120.441 169.418 120.484L169.117 121.403C169.103 121.445 169.058 121.468 169.015 121.454ZM169.617 119.615C169.575 119.601 169.552 119.556 169.566 119.514L169.868 118.594C169.882 118.552 169.927 118.529 169.969 118.543C170.012 118.557 170.035 118.602 170.021 118.645L169.719 119.564C169.705 119.606 169.66 119.63 169.617 119.615ZM170.22 117.777C170.178 117.763 170.155 117.718 170.169 117.675L170.47 116.755C170.484 116.713 170.529 116.69 170.572 116.704C170.614 116.718 170.637 116.763 170.623 116.806L170.322 117.726C170.308 117.768 170.263 117.791 170.22 117.777ZM170.822 115.938C170.78 115.924 170.757 115.879 170.771 115.836L171.072 114.917C171.086 114.875 171.132 114.851 171.174 114.865C171.216 114.879 171.24 114.925 171.225 114.967L170.924 115.887C170.91 115.929 170.865 115.952 170.822 115.938ZM171.425 114.099C171.383 114.085 171.359 114.04 171.374 113.997L171.675 113.078C171.689 113.036 171.734 113.012 171.777 113.027C171.819 113.041 171.842 113.086 171.828 113.129L171.527 114.048C171.513 114.09 171.468 114.113 171.425 114.099ZM172.027 112.26C171.985 112.246 171.962 112.201 171.976 112.158L172.277 111.239C172.291 111.197 172.336 111.174 172.379 111.188C172.421 111.202 172.445 111.247 172.43 111.29L172.129 112.209C172.115 112.251 172.07 112.275 172.027 112.26ZM172.63 110.422C172.588 110.408 172.564 110.362 172.579 110.32L172.88 109.4C172.894 109.358 172.939 109.335 172.982 109.349C173.024 109.363 173.047 109.408 173.033 109.451L172.732 110.37C172.718 110.413 172.673 110.436 172.63 110.422Z" fill="#E4E7EC"/>
<path d="M137.501 100.689C136.57 99.0264 134.467 98.4347 132.804 99.3674C131.141 100.299 130.55 102.402 131.482 104.065C132.414 105.727 134.517 106.319 136.179 105.387C137.843 104.455 138.434 102.352 137.501 100.689ZM135.977 101.947L135.003 102.472L134.783 104.52C134.777 104.572 134.725 104.608 134.674 104.593L134.583 104.568C134.551 104.559 134.527 104.532 134.521 104.501L134.157 102.924L133.494 103.285C133.431 103.323 133.366 103.357 133.302 103.385C133.283 103.394 133.262 103.402 133.245 103.411L133.171 104.147C133.166 104.194 133.126 104.227 133.078 104.223L132.989 104.214C132.954 104.211 132.926 104.187 132.915 104.155C132.915 104.155 132.799 103.453 132.746 103.357C132.711 103.295 132.154 102.796 132.154 102.796C132.132 102.771 132.127 102.733 132.141 102.703L132.18 102.623C132.201 102.58 132.253 102.562 132.294 102.583L132.96 102.904C132.977 102.893 132.992 102.881 133.01 102.869C133.069 102.829 133.131 102.792 133.197 102.757L133.85 102.379L132.695 101.246C132.67 101.224 132.66 101.19 132.669 101.159L132.694 101.066C132.709 101.016 132.766 100.989 132.814 101.013L134.676 101.894L135.631 101.337C135.851 101.208 136.178 101.209 136.363 101.226C136.439 101.233 136.483 101.314 136.451 101.384C136.371 101.551 136.2 101.829 135.976 101.95L135.977 101.947Z" fill="#E4E7EC"/>
<path d="M166.874 116.523L138.651 107.266L138.626 107.343L166.849 116.6L166.874 116.523Z" fill="#E4E7EC"/>
<path d="M164.03 125.215L127.666 113.294L127.641 113.371L164.005 125.292L164.03 125.215Z" fill="#E4E7EC"/>
<path d="M174.479 155.523C173.979 157.103 174.88 158.797 176.493 159.307L173.793 167.846C173.585 168.503 172.872 168.864 172.201 168.652L157.823 164.105C157.429 163.981 157.103 163.684 156.991 163.295C156.904 162.992 156.667 162.736 156.342 162.634C156.016 162.531 155.675 162.603 155.432 162.802C155.116 163.055 154.679 163.11 154.286 162.986L113.38 150.051C112.71 149.839 112.334 149.134 112.542 148.477L115.243 139.936C116.842 140.417 118.524 139.549 119.018 137.985C119.512 136.424 118.634 134.747 117.05 134.221L119.751 125.68C119.958 125.023 120.672 124.662 121.342 124.874L162.248 137.809C162.641 137.933 162.967 138.23 163.08 138.619C163.166 138.922 163.402 139.177 163.728 139.28C164.054 139.383 164.395 139.311 164.639 139.112C164.955 138.859 165.392 138.804 165.785 138.928L180.164 143.475C180.835 143.687 181.211 144.393 181.002 145.05L178.302 153.589C176.689 153.079 174.979 153.946 174.48 155.525L174.479 155.523Z" fill="#CFE2FF"/>
<path d="M113.343 150.123C112.639 149.894 112.245 149.146 112.464 148.452L115.189 139.836L115.265 139.859C116.814 140.324 118.463 139.472 118.942 137.961C119.42 136.45 118.559 134.806 117.024 134.297L116.949 134.272L119.673 125.656C119.78 125.317 120.015 125.042 120.335 124.88C120.654 124.718 121.02 124.689 121.365 124.797L162.27 137.732C162.709 137.872 163.039 138.194 163.155 138.597C163.236 138.883 163.456 139.108 163.743 139.202C163.746 139.203 163.748 139.203 163.751 139.204C164.042 139.297 164.355 139.239 164.587 139.05C164.914 138.787 165.37 138.713 165.807 138.852L180.186 143.399C180.529 143.507 180.813 143.742 180.98 144.058C181.15 144.375 181.183 144.735 181.076 145.074L178.352 153.689L178.276 153.664C177.516 153.425 176.711 153.488 176.007 153.845C175.304 154.2 174.789 154.806 174.554 155.548C174.319 156.291 174.392 157.083 174.762 157.779C175.133 158.475 175.757 158.989 176.515 159.231L176.591 159.256L173.868 167.87C173.761 168.209 173.525 168.484 173.205 168.646C172.886 168.808 172.52 168.837 172.176 168.728L157.797 164.181C157.359 164.043 157.029 163.72 156.912 163.317C156.831 163.031 156.612 162.805 156.324 162.712C156.321 162.711 156.319 162.71 156.317 162.709C156.026 162.617 155.713 162.675 155.481 162.864C155.154 163.126 154.698 163.2 154.26 163.062L113.355 150.127C113.351 150.126 113.347 150.124 113.343 150.123L113.343 150.123ZM115.294 140.034L112.617 148.501C112.422 149.115 112.775 149.776 113.403 149.975L154.308 162.91C154.694 163.033 155.095 162.968 155.38 162.74C155.655 162.518 156.022 162.449 156.365 162.558C156.711 162.664 156.97 162.934 157.066 163.274C157.168 163.625 157.459 163.911 157.846 164.03L172.224 168.577C172.529 168.673 172.851 168.648 173.133 168.504C173.415 168.362 173.622 168.12 173.715 167.823L176.391 159.36C175.626 159.097 174.999 158.566 174.622 157.855C174.231 157.122 174.153 156.285 174.402 155.501C174.65 154.717 175.194 154.078 175.935 153.702C176.652 153.339 177.47 153.264 178.247 153.49L180.924 145.026C181.018 144.729 180.988 144.413 180.84 144.134C180.691 143.855 180.444 143.648 180.138 143.552L165.759 139.005C165.373 138.882 164.972 138.947 164.686 139.175C164.412 139.397 164.044 139.466 163.702 139.357C163.357 139.25 163.096 138.981 163 138.641C162.9 138.294 162.613 138.013 162.233 137.889C162.229 137.888 162.225 137.887 162.221 137.885L121.316 124.95C121.012 124.855 120.689 124.88 120.407 125.023C120.125 125.166 119.919 125.408 119.825 125.704L117.148 134.172C118.719 134.736 119.589 136.441 119.093 138.01C118.596 139.58 116.903 140.476 115.294 140.035L115.294 140.034Z" fill="#CFE2FF"/>
<path d="M158.059 163.356C157.91 163.309 157.793 163.204 157.76 163.089C157.599 162.52 157.157 162.068 156.578 161.885C156.001 161.703 155.379 161.818 154.916 162.193C154.824 162.267 154.671 162.286 154.521 162.238L113.616 149.303C113.367 149.224 113.228 148.963 113.305 148.719L115.797 140.838C117.551 140.992 119.242 139.934 119.782 138.227C120.322 136.521 119.546 134.684 118.023 133.802L120.515 125.922C120.592 125.678 120.856 125.545 121.105 125.623L162.01 138.558C162.161 138.605 162.276 138.708 162.309 138.825C162.47 139.395 162.912 139.846 163.491 140.029C164.069 140.212 164.69 140.096 165.153 139.721C165.244 139.648 165.4 139.629 165.548 139.677L179.927 144.224C180.175 144.302 180.314 144.564 180.237 144.808L177.749 152.676C175.974 152.495 174.262 153.55 173.714 155.282C173.166 157.016 173.96 158.864 175.516 159.737L173.028 167.605C172.951 167.848 172.686 167.982 172.438 167.904L158.059 163.356Z" fill="#569AFE"/>
<path d="M172.782 154.759C172.482 154.512 171.911 154.131 171.378 154.095L169.384 153.967L166.622 150.229C166.566 150.134 166.437 150.112 166.352 150.181L166.2 150.307C166.147 150.351 166.125 150.42 166.143 150.486L166.708 153.759L165.471 153.67C165.319 153.65 165.166 153.642 165.015 153.642C164.971 153.641 164.929 153.642 164.886 153.643L164.099 152.319C164.048 152.235 163.938 152.206 163.853 152.254L163.691 152.346C163.629 152.381 163.595 152.449 163.604 152.519L163.765 153.756C163.57 153.798 163.62 153.873 163.483 153.926C163.306 153.993 163.287 154.228 163.45 154.326C163.577 154.402 163.517 154.454 163.703 154.529L171.262 155.538C172.236 155.653 172.525 155.376 172.753 155.13C172.86 155.014 172.907 154.862 172.783 154.76L172.782 154.759Z" fill="#CFE2FF"/>
<path d="M156.474 162.213C156.432 162.2 156.409 162.155 156.422 162.113L156.711 161.199C156.725 161.157 156.769 161.134 156.811 161.147C156.851 161.16 156.876 161.205 156.864 161.247L156.575 162.161C156.561 162.203 156.517 162.226 156.475 162.213L156.474 162.213ZM157.052 160.385C157.01 160.371 156.987 160.326 157.001 160.285L157.29 159.37C157.303 159.328 157.348 159.305 157.39 159.318C157.432 159.332 157.455 159.376 157.442 159.418L157.153 160.333C157.14 160.374 157.095 160.398 157.053 160.385L157.052 160.385ZM157.631 158.556C157.589 158.542 157.565 158.498 157.579 158.456L157.868 157.542C157.882 157.5 157.926 157.477 157.968 157.489C158.012 157.504 158.033 157.548 158.02 157.59L157.732 158.504C157.718 158.546 157.673 158.569 157.631 158.556L157.631 158.556ZM158.209 156.728C158.167 156.714 158.144 156.669 158.157 156.628L158.446 155.713C158.46 155.671 158.504 155.648 158.547 155.661C158.589 155.676 158.612 155.719 158.599 155.761L158.31 156.676C158.296 156.717 158.252 156.741 158.21 156.728L158.209 156.728ZM158.787 154.899C158.746 154.885 158.722 154.841 158.736 154.799L159.025 153.885C159.038 153.843 159.083 153.819 159.125 153.832C159.167 153.846 159.19 153.891 159.176 153.932L158.888 154.847C158.874 154.888 158.829 154.912 158.787 154.899ZM159.366 153.07C159.324 153.057 159.301 153.012 159.314 152.97L159.603 152.056C159.617 152.014 159.661 151.991 159.703 152.004C159.745 152.017 159.768 152.062 159.755 152.104L159.466 153.018C159.452 153.06 159.408 153.083 159.366 153.07ZM159.944 151.242C159.902 151.228 159.879 151.184 159.893 151.142L160.181 150.227C160.195 150.186 160.24 150.162 160.282 150.175C160.323 150.189 160.347 150.233 160.333 150.275L160.044 151.19C160.031 151.231 159.986 151.255 159.944 151.242ZM160.522 149.413C160.481 149.4 160.457 149.355 160.471 149.313L160.76 148.399C160.773 148.357 160.818 148.334 160.86 148.347C160.902 148.36 160.925 148.405 160.912 148.447L160.623 149.361C160.609 149.403 160.565 149.426 160.522 149.413ZM161.101 147.585C161.059 147.571 161.036 147.526 161.049 147.485L161.338 146.57C161.352 146.528 161.396 146.505 161.438 146.518C161.48 146.532 161.504 146.576 161.49 146.618L161.201 147.532C161.187 147.574 161.143 147.597 161.101 147.585ZM161.679 145.756C161.637 145.742 161.614 145.698 161.628 145.656L161.917 144.742C161.93 144.7 161.975 144.677 162.017 144.689C162.059 144.703 162.082 144.748 162.068 144.789L161.779 145.704C161.766 145.746 161.721 145.769 161.679 145.756ZM162.258 143.927C162.216 143.914 162.193 143.869 162.206 143.827L162.495 142.913C162.509 142.871 162.553 142.848 162.595 142.861C162.637 142.874 162.66 142.919 162.647 142.961L162.358 143.875C162.344 143.917 162.3 143.94 162.258 143.927ZM162.836 142.099C162.794 142.085 162.771 142.041 162.785 141.999L163.073 141.085C163.087 141.043 163.132 141.019 163.174 141.032C163.215 141.046 163.239 141.09 163.225 141.132L162.936 142.047C162.923 142.088 162.878 142.112 162.836 142.099ZM163.414 140.27C163.373 140.257 163.349 140.212 163.363 140.17L163.652 139.256C163.665 139.214 163.71 139.191 163.752 139.204C163.794 139.217 163.817 139.262 163.803 139.304L163.515 140.218C163.501 140.26 163.456 140.283 163.414 140.27Z" fill="#CFE2FF"/>
<path d="M154.358 160.734L115.161 148.334L115.137 148.411L154.334 160.81L154.358 160.734Z" fill="#CFE2FF"/>
<path d="M154.598 159.977L115.401 147.578L115.377 147.654L154.574 160.053L154.598 159.977Z" fill="#CFE2FF"/>
<path d="M154.846 159.217L115.649 146.818L115.625 146.894L154.822 159.293L154.846 159.217Z" fill="#CFE2FF"/>
<path d="M155.076 158.461L115.879 146.062L115.855 146.138L155.052 158.537L155.076 158.461Z" fill="#CFE2FF"/>
<path d="M83.6596 65.3788C86.3715 64.0002 87.4524 60.6841 86.0738 57.9722C84.6952 55.2603 81.3792 54.1794 78.6672 55.558C75.9553 56.9366 74.8744 60.2526 76.253 62.9646C77.6316 65.6765 80.9476 66.7574 83.6596 65.3788Z" fill="white"/>
<path d="M88.5981 338.693C87.985 340.573 85.9613 341.602 84.0805 340.989C82.1996 340.376 81.1709 338.352 81.784 336.471C82.3971 334.591 84.4207 333.562 86.3016 334.175C88.1824 334.788 89.2111 336.812 88.5981 338.693Z" fill="white"/>
<path d="M28.6187 158.167C32.7458 159.512 37.182 157.257 38.5272 153.13C39.8724 149.003 37.6173 144.567 33.4903 143.221C29.3632 141.876 24.927 144.131 23.5818 148.258C22.2366 152.385 24.4917 156.822 28.6187 158.167Z" fill="white"/>
<path d="M147.338 282.669C149.626 283.415 152.084 282.165 152.83 279.877C153.575 277.59 152.325 275.131 150.038 274.386C147.751 273.64 145.292 274.89 144.546 277.177C143.801 279.465 145.051 281.923 147.338 282.669Z" fill="white"/>
</svg>
