<svg width="18" height="10" viewBox="0 0 18 10" fill="none" xmlns="http://www.w3.org/2000/svg">
<path d="M17.031 1.53031L9.53104 9.03031C9.46139 9.10004 9.37867 9.15536 9.28762 9.19311C9.19657 9.23085 9.09898 9.25027 9.00042 9.25027C8.90186 9.25027 8.80426 9.23085 8.71321 9.19311C8.62216 9.15536 8.53945 9.10004 8.46979 9.03031L0.969792 1.53031C0.829062 1.38958 0.75 1.19871 0.75 0.999685C0.75 0.800662 0.829062 0.60979 0.969792 0.469059C1.11052 0.328329 1.30139 0.249268 1.50042 0.249268C1.69944 0.249268 1.89031 0.328329 2.03104 0.469059L9.00042 7.43937L15.9698 0.469059C16.0395 0.399377 16.1222 0.344101 16.2132 0.306389C16.3043 0.268677 16.4019 0.249268 16.5004 0.249268C16.599 0.249268 16.6965 0.268677 16.7876 0.306389C16.8786 0.344101 16.9614 0.399377 17.031 0.469059C17.1007 0.538742 17.156 0.621468 17.1937 0.712512C17.2314 0.803557 17.2508 0.901138 17.2508 0.999685C17.2508 1.09823 17.2314 1.19581 17.1937 1.28686C17.156 1.3779 17.1007 1.46063 17.031 1.53031Z" fill="#343330"/>
</svg>
