<svg width="25" height="24" viewBox="0 0 25 24" fill="none" xmlns="http://www.w3.org/2000/svg">
<path d="M22.25 9C22.2504 8.93027 22.2409 8.86083 22.2219 8.79375L20.8766 4.0875C20.7861 3.77523 20.5971 3.50059 20.3378 3.30459C20.0784 3.10858 19.7626 3.00174 19.4375 3H5.5625C5.23741 3.00174 4.9216 3.10858 4.66223 3.30459C4.40287 3.50059 4.21386 3.77523 4.12344 4.0875L2.77906 8.79375C2.7597 8.86079 2.74991 8.93022 2.75 9V10.5C2.75 11.0822 2.88554 11.6563 3.1459 12.1771C3.40625 12.6978 3.78427 13.1507 4.25 13.5V19.5C4.25 19.8978 4.40804 20.2794 4.68934 20.5607C4.97064 20.842 5.35218 21 5.75 21H19.25C19.6478 21 20.0294 20.842 20.3107 20.5607C20.592 20.2794 20.75 19.8978 20.75 19.5V13.5C21.2157 13.1507 21.5937 12.6978 21.8541 12.1771C22.1145 11.6563 22.25 11.0822 22.25 10.5V9ZM8.75 10.5C8.74986 10.8869 8.64996 11.2673 8.45993 11.6043C8.2699 11.9413 7.99617 12.2236 7.66518 12.424C7.33419 12.6244 6.95713 12.736 6.57041 12.7481C6.18368 12.7602 5.80037 12.6724 5.4575 12.4931C5.40533 12.4525 5.34794 12.4191 5.28688 12.3937C4.96913 12.1903 4.70764 11.9103 4.52645 11.5794C4.34527 11.2484 4.2502 10.8773 4.25 10.5V9.75H8.75V10.5ZM14.75 10.5C14.75 11.0967 14.5129 11.669 14.091 12.091C13.669 12.5129 13.0967 12.75 12.5 12.75C11.9033 12.75 11.331 12.5129 10.909 12.091C10.4871 11.669 10.25 11.0967 10.25 10.5V9.75H14.75V10.5ZM20.75 10.5C20.7497 10.8774 20.6545 11.2486 20.4731 11.5795C20.2918 11.9104 20.0301 12.1904 19.7122 12.3937C19.6519 12.4191 19.5952 12.4522 19.5434 12.4922C19.2006 12.6716 18.8173 12.7596 18.4305 12.7477C18.0437 12.7357 17.6666 12.6242 17.3355 12.424C17.0044 12.2237 16.7305 11.9414 16.5404 11.6044C16.3502 11.2673 16.2502 10.887 16.25 10.5V9.75H20.75V10.5Z" fill="#0D6EFD"/>
</svg>
