<svg width="84" height="20" viewBox="0 0 84 20" fill="none" xmlns="http://www.w3.org/2000/svg">
<rect width="20" height="20" transform="translate(64)" fill="white"/>
<path d="M73.9482 2C73.3288 2 73.0933 2.49578 73.1413 3.45626C73.1731 4.08941 73.3863 5.85457 72.4927 6.74904C71.6593 7.58289 71.4169 7.50883 70.4672 8.58557C69.518 9.66194 68.7267 9.44052 67.6191 9.34536C66.2276 9.22602 66.7017 16.9513 67.6824 16.8174C68.3785 16.7222 69.961 16.5322 70.2141 16.5322C70.4672 16.5322 72.2031 17.8776 73.7269 17.8937C76.195 17.9194 77.5561 17.482 77.5561 17.482L78.2795 15.8404L78.5215 10.835L77.3659 8.42709C77.3659 8.42709 75.8153 8.68036 75.3723 7.98389C74.9293 7.28742 75.7205 6.43246 75.7205 4.43784C75.7205 2.44321 74.2646 2 73.9482 2Z" fill="url(#paint0_linear_2_2073)"/>
<path d="M77.6424 17.4673L77.5485 17.1246C77.2704 17.0951 76.9126 17.2217 76.4239 17.2179C74.0901 17.1998 71.8591 16.5295 70.9018 15.7712C70.2747 15.2747 69.9997 14.6139 69.5567 14.8038C69.0102 15.0383 67.4595 15.4028 66.8892 14.6807C67.0488 15.9163 67.3334 16.8648 67.6824 16.8173C68.3785 16.7221 69.961 16.5322 70.2141 16.5322C70.4672 16.5322 72.1548 17.8422 73.7269 17.8936C75.7608 17.96 77.5673 17.6097 77.5673 17.6097L77.6424 17.4673Z" fill="url(#paint1_linear_2_2073)"/>
<path d="M68.6075 9.83309C69.5253 10.0864 70.1083 9.66732 70.5773 9.0971C71.0433 8.53071 71.4476 8.02841 72.6185 7.26862C73.7894 6.50884 73.6391 4.41904 73.544 3.72257C73.4489 3.0261 73.5121 2 73.9482 2C73.3288 2 73.0933 2.49578 73.1413 3.45626C73.1731 4.08941 73.3863 5.85458 72.4927 6.74905C71.6593 7.5829 71.4169 7.50884 70.4672 8.58559C69.518 9.66195 68.7268 9.44054 67.6191 9.34537C67.6195 9.58559 67.6897 9.57983 68.6075 9.83309Z" fill="url(#paint2_linear_2_2073)"/>
<path d="M75.3723 7.98389C74.9293 7.28742 75.7205 6.43247 75.7205 4.43784C75.7205 2.44321 74.265 2 73.9482 2C73.865 2 73.791 2.00921 73.7246 2.02686C75.0156 2.10783 75.793 3.73676 75.3481 5.41635C74.9872 6.77936 74.8073 7.87222 75.3968 8.51305C75.7781 8.92786 76.5363 8.85726 77.3663 8.4271C77.3659 8.4271 75.8153 8.68036 75.3723 7.98389Z" fill="url(#paint3_linear_2_2073)"/>
<path d="M75.4593 8.69434C74.6999 8.9476 72.7819 9.54353 71.329 10.8616C67.6471 14.202 73.9332 14.6207 75.2315 17.4775C75.4797 18.0236 76.9302 14.6138 76.9302 14.6138L77.3993 13.824L76.0438 10.2128L75.4593 8.69434Z" fill="url(#paint4_linear_2_2073)"/>
<path d="M75.5709 8.98438C74.8115 9.23764 71.7091 11.2261 71.7091 12.2081C71.7091 15.042 73.8577 13.6432 75.019 16.9871C75.1797 17.4502 75.7477 17.8397 75.7477 17.8397C76.2183 17.4556 76.9306 14.6145 76.9306 14.6145L77.3996 13.8248L76.0442 10.2135L75.5709 8.98438Z" fill="url(#paint5_linear_2_2073)"/>
<path d="M77.3237 17.6698L78.7773 16.0071L79.0976 9.06118L75.459 8.69434C74.6236 9.14407 74.527 9.75919 74.8373 10.7469C74.9677 11.1625 74.4372 11.2814 74.4031 12.4921C74.3793 13.3313 74.9286 13.3352 74.9286 13.5846C74.9286 13.834 74.6551 13.8118 74.5642 14.5343C74.4346 15.5681 75.2998 15.5881 75.2998 15.8091C75.2998 16.0301 74.8192 16.1614 74.8488 17.004C74.8864 18.0727 72.9027 17.8567 71.5615 16.8843C71.0107 16.4848 70.5302 16.4438 70.1551 16.5343C70.1785 16.5332 70.1984 16.5324 70.2134 16.5324C70.4665 16.5324 72.1667 17.8939 73.7262 17.8939C75.5499 17.8939 76.8109 17.7872 77.3237 17.6698Z" fill="url(#paint6_linear_2_2073)"/>
<path d="M77.6582 9.15234C76.5348 9.15234 75.9177 10.2506 76.3449 11.0944C76.7722 11.9382 75.5537 13.0553 75.6803 13.6052C75.8068 14.155 76.0285 15.5468 76.2023 15.7771C76.3764 16.0073 75.9173 16.5296 75.9173 16.5296L77.3414 16.7038L78.6703 16.1174L78.6227 12.0971L78.765 9.57982L77.6582 9.15234Z" fill="url(#paint7_linear_2_2073)"/>
<path d="M70.4672 8.58585C69.8505 9.28501 69.3005 9.43658 68.6873 9.43082C68.8641 9.71632 68.9872 10.0283 68.9745 10.3334C68.9412 11.1331 69.1172 12.1189 69.2518 11.0935C69.3542 10.3126 69.8835 9.34755 70.5202 8.52637C70.5029 8.54594 70.4857 8.56512 70.4672 8.58585Z" fill="url(#paint8_linear_2_2073)"/>
<path d="M78.5092 8.39543C77.1811 8.34478 74.7932 8.26956 74.7398 9.66174C74.7015 10.6713 75.4172 11.0025 76.5241 11.0447C77.6309 11.0869 78.1844 11.108 78.6427 11.1253C79.101 11.1426 80.5431 11.1341 80.5573 9.91501C80.575 8.39197 78.5092 8.39543 78.5092 8.39543Z" fill="url(#paint9_linear_2_2073)"/>
<path d="M76.3246 13.428C75.9687 13.4177 74.9113 13.6844 74.8123 14.3563C74.7344 14.8847 75.0041 15.5673 75.9242 15.7285C77.0897 15.9326 79.032 16.0397 79.7576 15.768C80.0817 15.6468 80.3644 15.3072 80.3793 14.7926C80.3943 14.278 80.0123 13.5846 79.1819 13.5604C78.3516 13.5366 77.919 13.5493 77.4457 13.4933C76.8765 13.4265 76.6092 13.4365 76.3246 13.428Z" fill="url(#paint10_linear_2_2073)"/>
<path d="M75.9537 15.7764C75.5502 15.7764 75.0516 16.1325 75.0516 16.7261C75.0516 17.3197 75.2058 17.7591 76.0722 17.9253C76.9386 18.0914 78.327 17.9491 78.849 17.7829C79.256 17.6532 79.4067 17.2725 79.4067 16.6432C79.4067 16.0139 79.0155 15.9038 78.5882 15.9038C78.161 15.9038 77.6424 15.9817 77.3463 15.9663C76.5194 15.9226 76.3572 15.7764 75.9537 15.7764Z" fill="url(#paint11_linear_2_2073)"/>
<path d="M78.3961 8.67705C77.2363 8.63292 75.151 8.56577 75.1092 9.6663C75.0789 10.4645 75.7048 10.7285 76.6713 10.7653C77.6378 10.8021 80.1807 10.8486 80.1891 9.88503C80.1995 8.68089 78.3961 8.67705 78.3961 8.67705Z" fill="url(#paint12_linear_2_2073)"/>
<path d="M76.4316 13.7126C76.1217 13.7037 75.2541 13.7774 75.1709 14.4194C75.1145 14.8538 75.3397 15.4117 76.1409 15.5449C77.1561 15.7137 78.8467 15.8043 79.4784 15.5829C79.7603 15.4839 80.0062 15.2064 80.018 14.7847C80.0303 14.363 79.6418 13.8461 78.9192 13.825C78.1966 13.8039 77.8119 13.871 77.3996 13.8242C76.9041 13.7686 76.6794 13.7195 76.4316 13.7126Z" fill="url(#paint13_linear_2_2073)"/>
<path d="M76.1263 15.9932C75.7773 15.9932 75.3462 16.2798 75.3462 16.7579C75.3462 17.2361 75.4797 17.5899 76.2291 17.7234C76.9786 17.8569 78.1794 17.7426 78.6312 17.6087C78.9829 17.5043 79.1137 17.1977 79.1137 16.6908C79.1137 16.1839 78.775 16.0956 78.4053 16.0956C78.0356 16.0956 77.5872 16.1586 77.331 16.1459C76.6153 16.111 76.475 15.9932 76.1263 15.9932Z" fill="url(#paint14_linear_2_2073)"/>
<path d="M75.9135 9.66688C75.9422 8.90863 76.5467 8.54524 77.3103 8.37793C76.0914 8.40633 74.7789 8.63426 74.7394 9.66228C74.7011 10.6719 75.4168 11.003 76.5237 11.0453C76.6456 11.0499 76.7603 11.0545 76.8692 11.0583C76.2479 10.8764 75.8832 10.4662 75.9135 9.66688Z" fill="url(#paint15_linear_2_2073)"/>
<path d="M76.0178 8.51465C75.3086 8.66968 74.7648 9.00506 74.7398 9.66163C74.708 10.5008 75.1978 10.8711 75.9997 10.9966C74.3728 10.347 74.9565 8.74681 76.0178 8.51465Z" fill="url(#paint16_linear_2_2073)"/>
<path d="M74.1293 16.4913C73.9417 16.9222 73.0492 16.9495 72.1356 16.5516C71.222 16.154 70.6337 15.4821 70.8212 15.0508C71.0088 14.6199 71.9013 14.5926 72.8149 14.9905C73.7281 15.3885 74.3168 16.0604 74.1293 16.4913Z" fill="url(#paint17_radial_2_2073)"/>
<path d="M79.5041 9.87023C79.4949 10.4527 78.7163 10.729 77.8645 10.7808C77.168 10.823 76.3948 10.3299 76.4147 9.76087C76.4347 9.19179 76.5359 8.68757 77.9834 8.73784C78.8364 8.76739 79.5129 9.30116 79.5041 9.87023Z" fill="url(#paint18_radial_2_2073)"/>
<path d="M79.6587 14.9902C79.6537 15.7968 78.7673 15.6421 77.9155 15.6982C76.8355 15.7695 76.1194 15.433 76.119 14.8635C76.1183 14.2941 76.529 13.8793 77.9776 13.877C78.831 13.8758 79.6648 13.9541 79.6587 14.9902Z" fill="url(#paint19_radial_2_2073)"/>
<path d="M78.8778 17.0242C78.8736 17.7118 78.0682 17.8055 77.3049 17.8058C76.5417 17.8066 75.7132 17.4018 75.7129 16.9164C75.7125 16.4309 76.0795 16.0771 77.3747 16.0752C78.1376 16.0741 78.8832 16.1408 78.8778 17.0242Z" fill="url(#paint20_radial_2_2073)"/>
<path d="M75.8026 14.52C75.9238 13.6018 76.628 13.6555 77.4353 13.5603C76.506 13.4909 76.1159 13.4809 76.1159 13.4809C76.0293 13.4725 75.9322 13.4721 75.8314 13.4824C75.5295 13.5488 75.1874 13.6862 74.9841 13.9441C74.9151 14.0423 74.8591 14.1582 74.8223 14.2956C74.8184 14.3155 74.8146 14.3359 74.8123 14.3566C74.7467 14.8869 75.0041 15.5676 75.9242 15.7288C76.0569 15.7522 76.1999 15.7741 76.3499 15.7944C76.4216 15.8036 76.4999 15.8132 76.5839 15.824C76.6065 15.8266 76.6291 15.8293 76.6521 15.832C76.1443 15.5922 75.7132 15.195 75.8026 14.52Z" fill="url(#paint21_linear_2_2073)"/>
<path d="M76.0274 13.4753C75.9648 13.4733 75.8985 13.4756 75.8306 13.4826C75.5261 13.5497 75.1809 13.689 74.9788 13.9511C74.912 14.0478 74.8583 14.1621 74.8223 14.2961C74.8185 14.316 74.8158 14.336 74.8123 14.3567C74.7191 14.879 74.9776 15.4945 75.7815 15.6982C74.41 14.9415 74.9953 13.476 76.0274 13.4753Z" fill="url(#paint22_linear_2_2073)"/>
<path d="M76.8259 15.9168C76.4205 15.8573 76.254 15.7764 75.9541 15.7764C75.5506 15.7764 75.052 16.1325 75.052 16.7261C75.052 16.9418 75.0727 17.1367 75.1399 17.3059C75.2081 17.4456 75.3075 17.5764 75.4436 17.687C75.5932 17.7913 75.7965 17.8723 76.0722 17.9253C76.2575 17.9609 76.4669 17.9821 76.6863 17.9924C76.2629 17.7464 75.5456 17.6141 75.696 16.7906C75.8621 15.8811 76.4048 16.0039 76.8259 15.9168Z" fill="url(#paint23_linear_2_2073)"/>
<path d="M75.9361 15.7773C75.5361 15.7877 75.052 16.1419 75.052 16.7267C75.052 17.2704 75.1821 17.6849 75.8701 17.8783C74.7954 17.1876 75.1402 16.0222 75.9361 15.7773Z" fill="url(#paint24_linear_2_2073)"/>
<path d="M80.5573 9.91477C80.5588 9.77816 80.5435 9.65422 80.5147 9.54102C80.6217 10.0168 80.1979 10.4896 79.0745 10.7191C78.3301 10.871 76.353 11.061 74.9849 10.5176C75.2802 10.8745 75.8237 11.0172 76.524 11.0441C77.6309 11.0863 78.1844 11.1074 78.6427 11.1247C79.101 11.1427 80.5427 11.1339 80.5573 9.91477Z" fill="url(#paint25_linear_2_2073)"/>
<path d="M80.3793 14.761C80.3778 14.2499 79.9947 13.5849 79.1816 13.5615C78.3512 13.5377 77.9186 13.5504 77.4453 13.4943C76.8765 13.4272 76.6092 13.4372 76.3246 13.4291C76.1094 13.423 75.5786 13.4878 75.2177 13.7123C75.6235 13.8531 76.2847 14.0649 77.2152 14.0055C79.4447 13.862 80.079 14.1317 80.3793 14.761Z" fill="url(#paint26_linear_2_2073)"/>
<path d="M75.8463 11.1251C75.3719 11.1155 74.6182 11.3948 74.5987 12.3806C74.5791 13.3661 75.4409 13.6009 75.8206 13.6086C76.2003 13.6162 77.5278 13.7068 79.1651 13.7394C80.8024 13.772 81.0218 12.8929 81.031 12.4324C81.0402 11.9716 80.7483 11.1385 79.7634 11.1186C76.9156 11.0614 75.8463 11.1251 75.8463 11.1251Z" fill="url(#paint27_linear_2_2073)"/>
<path d="M76.101 11.4105C75.6883 11.4024 75.034 11.6166 75.019 12.3767C75.0037 13.1373 75.7535 13.3199 76.0833 13.3265C76.4136 13.333 77.5676 13.4055 78.9909 13.4339C80.4142 13.4623 80.6033 12.7846 80.6102 12.4289C80.6175 12.0736 80.5684 11.4304 79.712 11.4132C77.237 11.3641 76.101 11.4105 76.101 11.4105Z" fill="url(#paint28_linear_2_2073)"/>
<path d="M75.617 12.2853C75.6645 11.2734 76.3706 11.2703 77.1676 11.0957C76.2356 11.1015 75.8463 11.1245 75.8463 11.1245C75.3719 11.1149 74.6182 11.3942 74.5987 12.38C74.5791 13.3655 75.4409 13.6003 75.8206 13.608C75.9576 13.6107 76.218 13.6241 76.5708 13.6418C76.0446 13.4249 75.5821 13.0297 75.617 12.2853Z" fill="url(#paint29_linear_2_2073)"/>
<path d="M80.1972 12.3901C80.2301 13.1959 79.3354 13.3475 78.4828 13.3882C77.6302 13.4288 76.6824 12.9979 76.6552 12.4292C76.628 11.8605 77.0188 11.4269 78.4655 11.3567C79.3181 11.3156 80.155 11.3548 80.1972 12.3901Z" fill="url(#paint30_radial_2_2073)"/>
<path d="M75.7577 11.127C75.2837 11.1523 74.6171 11.4547 74.5987 12.3806C74.5799 13.3177 75.3577 13.5759 75.7608 13.6055C74.201 12.9758 74.7122 11.2198 75.7577 11.127Z" fill="url(#paint31_linear_2_2073)"/>
<path d="M81.0283 12.333C80.8227 13.7912 76.9693 13.5241 74.8871 13.211C75.1682 13.5122 75.5863 13.6035 75.8206 13.6085C76.2003 13.6162 77.5278 13.7068 79.1651 13.7394C80.8024 13.772 81.0218 12.8929 81.031 12.4324C81.0314 12.4009 81.0306 12.3675 81.0283 12.333Z" fill="url(#paint32_linear_2_2073)"/>
<path d="M79.0979 15.5796C78.3516 15.6126 76.3767 15.8582 74.937 15.0865C75.0977 15.3851 75.4087 15.6387 75.9238 15.7289C77.0894 15.933 79.0316 16.0401 79.7572 15.7684C80.0813 15.6472 80.364 15.3076 80.379 14.793C80.331 15.2404 79.9049 15.5439 79.0979 15.5796Z" fill="url(#paint33_linear_2_2073)"/>
<path d="M79.3495 17.2002C78.8605 17.5724 78.0152 17.7923 76.7956 17.5862C76.0423 17.4588 75.5261 17.4155 75.1866 17.4063C75.3224 17.6518 75.5844 17.8322 76.0722 17.9258C76.9386 18.092 78.327 17.9496 78.849 17.7835C79.1171 17.6975 79.2736 17.5026 79.3495 17.2002Z" fill="url(#paint34_linear_2_2073)"/>
<path d="M75.212 16.1919C76.1156 15.8627 76.5586 16.3512 77.5255 16.3512C78.5296 16.3512 79.0082 15.9456 79.3649 16.3312C79.2529 15.9755 78.9323 15.9038 78.5882 15.9038C78.161 15.9038 77.6424 15.9817 77.346 15.9663C76.5191 15.923 76.3572 15.7764 75.9537 15.7764C75.6925 15.7764 75.3919 15.9256 75.212 16.1919Z" fill="url(#paint35_linear_2_2073)"/>
<path d="M67.6828 16.8173C68.3789 16.7222 69.9613 16.5322 70.2145 16.5322C67.9194 14.891 68.94 11.4002 69.7865 9.63469C69.9053 9.3868 69.9786 9.18342 70.0181 9.01074C69.2545 9.59324 68.548 9.42517 67.6191 9.34535C66.2276 9.22601 66.7021 16.9513 67.6828 16.8173Z" fill="url(#paint36_linear_2_2073)"/>
<path d="M69.1298 15.2313C68.8924 14.9148 69.098 15.5955 69.2882 16.0863C69.4497 16.5038 68.2113 16.2571 67.2635 16.3595C67.3874 16.6654 67.529 16.8384 67.6828 16.8173C68.3789 16.7221 69.9613 16.5322 70.2145 16.5322C69.8574 16.2287 69.3669 15.5479 69.1298 15.2313Z" fill="url(#paint37_linear_2_2073)"/>
<path d="M70.2141 16.5325C70.0174 16.3648 69.7799 16.0824 69.5663 15.8096C69.5663 15.8096 68.4142 16.3994 67.1788 16.1219C67.3211 16.5732 67.4922 16.8433 67.6824 16.8172C68.3789 16.7225 69.961 16.5325 70.2141 16.5325Z" fill="url(#paint38_linear_2_2073)"/>
<path d="M74.5784 4.97248C74.1274 5.06994 73.7619 4.44677 73.5556 3.7196C73.3868 3.12482 73.6161 2.36733 74.0591 2.28215C74.5021 2.19657 74.911 2.19274 75.1553 3.45329C75.2987 4.19581 75.0195 4.87731 74.5784 4.97248Z" fill="url(#paint39_radial_2_2073)"/>
<path d="M75.9361 15.7775C75.6879 15.8036 75.4632 15.9367 75.3086 16.1198C75.1517 16.3044 75.0785 16.5453 75.0946 16.7875C75.0961 17.0311 75.1329 17.2802 75.271 17.4774C75.4079 17.6766 75.6381 17.7952 75.8701 17.8784C75.6308 17.8243 75.3803 17.7253 75.22 17.5154C75.0574 17.3078 75.0198 17.0373 75.0117 16.789C75.001 16.535 75.0819 16.2648 75.261 16.0776C75.4348 15.8884 75.6856 15.7725 75.9361 15.7775Z" fill="#804B24"/>
<path d="M75.538 13.5684C75.3746 13.6393 75.2238 13.7364 75.0992 13.8573C74.9722 13.9766 74.9047 14.1401 74.8583 14.3059L74.8587 14.3032C74.7989 14.6056 74.8495 14.9275 75.0271 15.1789C75.2004 15.4337 75.482 15.6002 75.7811 15.6977C75.4731 15.6382 75.1629 15.4882 74.968 15.2207C74.8718 15.0891 74.805 14.9352 74.7728 14.7744C74.7402 14.6136 74.7552 14.4456 74.7851 14.2886L74.7858 14.2859C74.8346 14.1117 74.9212 13.9371 75.0643 13.8193C75.2012 13.6977 75.3692 13.6228 75.538 13.5684Z" fill="#804B24"/>
<path d="M75.7577 11.126C75.4643 11.1594 75.1805 11.2814 74.9784 11.4867C74.7755 11.692 74.6658 11.9748 74.6482 12.263C74.6186 12.55 74.665 12.8497 74.8292 13.088C74.991 13.327 75.2557 13.4874 75.5387 13.5703C75.2488 13.5174 74.9604 13.3742 74.777 13.1252C74.5899 12.8781 74.5404 12.5546 74.5653 12.2561C74.5899 11.956 74.7076 11.6498 74.9339 11.4414C75.1579 11.2307 75.462 11.129 75.7577 11.126Z" fill="#804B24"/>
<path d="M76.0178 8.51465C75.704 8.6006 75.3922 8.71918 75.1449 8.92294C74.8956 9.12555 74.7606 9.43829 74.7813 9.75871C74.777 10.0768 74.881 10.4015 75.1226 10.6121C75.3608 10.8255 75.6822 10.9291 75.9994 10.9966C75.6776 10.9586 75.3428 10.8781 75.0808 10.6601C74.8127 10.4452 74.6988 10.0891 74.6984 9.75948C74.6812 9.42448 74.8319 9.07375 75.105 8.87344C75.3727 8.66814 75.6975 8.57144 76.0178 8.51465Z" fill="#804B24"/>
<path d="M74.9373 15.0859C75.1533 15.4601 75.5683 15.6539 75.9783 15.7091C76.3955 15.7736 76.8159 15.8177 77.2374 15.8446C77.6581 15.8803 78.0804 15.9025 78.5027 15.901C78.7136 15.8983 78.925 15.8929 79.1348 15.8722C79.3446 15.8553 79.5563 15.8338 79.758 15.7674C79.3587 15.9175 78.9257 15.9413 78.5038 15.9562C78.0797 15.967 77.6551 15.9551 77.2317 15.9275C76.809 15.891 76.3875 15.8377 75.9694 15.7636C75.7593 15.7291 75.5499 15.6638 75.3658 15.5518C75.1824 15.4386 75.0321 15.2755 74.9373 15.0859Z" fill="#804B24"/>
<path d="M74.8871 13.2109C75.049 13.3721 75.2572 13.4784 75.4747 13.5325C75.691 13.5974 75.9184 13.5832 76.147 13.5935L77.512 13.633L78.8763 13.7002C79.3288 13.7278 79.7895 13.734 80.2233 13.5855C79.8006 13.7658 79.3258 13.7804 78.8751 13.7555L77.5101 13.7159L76.1459 13.6484C75.9215 13.633 75.6856 13.6438 75.4636 13.5713C75.2442 13.5026 75.039 13.3817 74.8871 13.2109Z" fill="#804B24"/>
<path d="M79.7634 11.1186C79.437 11.1194 79.1102 11.1286 78.7838 11.1255L77.8046 11.1274L76.8259 11.1409C76.4998 11.1428 76.1731 11.1447 75.8482 11.1577H75.8455C75.5245 11.1524 75.192 11.2621 74.9607 11.492C74.7248 11.7195 74.6136 12.0507 74.5987 12.3807C74.6013 12.2153 74.619 12.0484 74.6696 11.8884C74.721 11.7287 74.8088 11.5795 74.9281 11.4594C75.1659 11.2149 75.5088 11.0937 75.8471 11.0929H75.8444C76.4983 11.0534 77.1515 11.053 77.8046 11.0633C78.4582 11.0706 79.111 11.0829 79.7634 11.1186Z" fill="#804B24"/>
<rect width="20" height="20" transform="translate(48)" fill="white"/>
<path d="M61.0441 8.77176C61.0959 6.16941 57.1429 6.52706 58.1594 2C58.1594 2 55.5053 3.04471 55.9712 6.24941C56.1312 7.35059 55.7453 8.17412 55.7453 8.17412C55.3547 8.25412 54.7476 7.47765 54.9594 6.27765C54.9594 6.27765 53.5665 7.31765 53.5665 8.65412C53.5665 9.99059 54.2112 11.4071 54.2112 11.4071C52.6065 11.0588 52.7665 8.89412 52.7665 8.89412C52.7665 8.89412 51.75 10.2541 51.75 12.8188C51.75 14.8141 53.9994 18 57.6276 18C61.2559 18 64.1688 15.1859 64.1688 12.6824C64.1688 11.5859 63.7971 10.1694 62.9924 9.39765C62.9924 9.39765 63.1006 11.5859 62.0182 11.4824C62.0182 11.4824 62.9124 8.62588 61.9759 7.31765C61.9759 7.31765 61.5241 8.72941 61.0441 8.77176Z" fill="url(#paint40_linear_2_2073)"/>
<path d="M61.0489 6.8094C62.103 4.86587 59.4912 4.59764 59.4865 3.40234C59.4865 3.40234 59.0253 4.63529 60.1265 5.47764C61.0253 6.15999 61.0489 6.8094 61.0489 6.8094Z" fill="url(#paint41_linear_2_2073)"/>
<path d="M55.5053 3.0918C55.1053 3.48709 55.6559 5.12003 54.4041 5.76474C54.4041 5.76474 53.9806 3.9718 55.5053 3.0918Z" fill="url(#paint42_linear_2_2073)"/>
<path opacity="0.5" d="M52.5735 9.54845C52.2253 10.1461 51.75 11.252 51.75 12.819C51.75 14.5696 53.9806 17.7885 57.6276 17.7885C61.19 17.7885 63.9571 15.0449 63.9571 12.6873C63.9571 11.8355 63.7218 10.7485 63.1994 9.97669C63.1618 10.4614 63.0441 11.1202 62.6818 11.4637C62.4935 11.6426 62.2582 11.7226 61.9994 11.6943L61.7359 11.6708L61.8159 11.4214C61.8253 11.3979 62.5076 9.16727 62.0135 7.84492C61.8159 8.32963 61.4771 8.95551 61.0629 8.98845L60.8276 9.00727L60.8324 8.77198C60.8512 7.79786 60.2535 7.28021 59.5618 6.68257C58.5735 5.8261 57.4582 4.85668 57.8676 2.39551C57.1806 2.80021 55.8441 3.91551 56.1782 6.21668C56.3476 7.36963 55.9476 8.2261 55.9335 8.26374L55.8865 8.36257L55.7829 8.38139C55.5853 8.41904 55.3782 8.33904 55.19 8.16021C54.9359 7.9108 54.7053 7.44021 54.6959 6.80021C54.31 7.19551 53.7782 7.87786 53.7782 8.65433C53.7782 9.92963 54.3994 11.3037 54.4041 11.3179L54.5782 11.7037L54.1641 11.6143C53.0818 11.379 52.6771 10.372 52.5735 9.54845Z" fill="url(#paint43_linear_2_2073)"/>
<path d="M59.4865 3.40234C59.3924 4.11293 59.6747 5.13411 60.1265 5.47764C60.5406 5.79293 61.0065 6.33411 61.0441 6.8094C61.75 5.42587 60.7571 4.91293 60.1877 4.71058C59.9477 4.62587 59.5053 4.13176 59.4865 3.40234Z" fill="url(#paint44_radial_2_2073)"/>
<path d="M57.3171 3.2002C55.7547 5.64725 57.7829 8.23078 56.7382 9.77902C55.6935 11.3273 54.6347 9.89667 54.5641 8.92725C54.5641 8.92725 54.5735 12.0614 56.1218 13.299C57.67 14.5367 53.1429 14.2684 52.5218 12.7578C52.5218 12.7578 52.5218 17.7884 57.6276 17.7884C62.7335 17.7884 63.5853 13.1061 63.5853 13.1061C63.5853 13.1061 61.7265 14.692 60.4888 13.4543C60.4888 13.4543 61.4159 11.8308 61.6512 10.1649C61.6512 10.1649 61.0112 10.5696 60.0276 10.4143C60.0276 10.4143 60.5735 8.07549 59.4582 7.30843C58.0276 6.3249 56.8182 3.98137 57.3171 3.2002Z" fill="url(#paint45_linear_2_2073)"/>
<path d="M57.7076 6.08008C56.8888 7.15772 58.4841 9.92478 56.8088 11.0213C55.8817 11.6283 55.35 10.8989 55.35 10.8989C55.35 10.8989 55.5994 12.0189 56.597 13.0165C57.5947 14.0142 55.0958 15.3648 53.0676 13.6189C53.0676 13.6189 53.7641 17.8118 58.4841 17.106C63.6935 16.3295 63.3076 12.4565 63.3076 12.4565C63.3076 12.4565 61.8958 14.6777 59.8864 13.6142C59.8864 13.6142 61.1523 11.8495 61.1523 10.8377C61.1523 10.8377 60.2958 11.346 59.317 10.8565C59.317 10.8565 59.7829 8.50361 59.2276 8.15067C57.8958 7.2989 57.7076 6.08008 57.7076 6.08008Z" fill="url(#paint46_linear_2_2073)"/>
<path opacity="0.5" d="M61.0441 8.77176C61.0959 6.16941 57.1429 6.52706 58.1594 2C58.1594 2 55.5053 3.04471 55.9712 6.24941C56.1312 7.35059 55.7453 8.17412 55.7453 8.17412C55.3547 8.25412 54.7476 7.47765 54.9594 6.27765C54.9594 6.27765 53.5665 7.31765 53.5665 8.65412C53.5665 9.99059 54.2112 11.4071 54.2112 11.4071C52.6065 11.0588 52.7665 8.89412 52.7665 8.89412C52.7665 8.89412 51.75 10.2541 51.75 12.8188C51.75 14.8141 53.9994 18 57.6276 18C61.2559 18 64.1688 15.1859 64.1688 12.6824C64.1688 11.5859 63.7971 10.1694 62.9924 9.39765C62.9924 9.39765 63.1006 11.5859 62.0182 11.4824C62.0182 11.4824 62.9124 8.62588 61.9759 7.31765C61.9759 7.31765 61.5241 8.72941 61.0441 8.77176Z" fill="url(#paint47_radial_2_2073)"/>
<path opacity="0.5" d="M61.0441 8.77176C61.0959 6.16941 57.1429 6.52706 58.1594 2C58.1594 2 55.5053 3.04471 55.9712 6.24941C56.1312 7.35059 55.7453 8.17412 55.7453 8.17412C55.3547 8.25412 54.7476 7.47765 54.9594 6.27765C54.9594 6.27765 53.5665 7.31765 53.5665 8.65412C53.5665 9.99059 54.2112 11.4071 54.2112 11.4071C52.6065 11.0588 52.7665 8.89412 52.7665 8.89412C52.7665 8.89412 51.75 10.2541 51.75 12.8188C51.75 14.8141 53.9994 18 57.6276 18C61.2559 18 64.1688 15.1859 64.1688 12.6824C64.1688 11.5859 63.7971 10.1694 62.9924 9.39765C62.9924 9.39765 63.1006 11.5859 62.0182 11.4824C62.0182 11.4824 62.9124 8.62588 61.9759 7.31765C61.9759 7.31765 61.5241 8.72941 61.0441 8.77176Z" fill="url(#paint48_radial_2_2073)"/>
<path d="M52.07 11.7267C52.1782 14.3855 54.3664 17.5714 57.7876 17.5714C61.2088 17.5714 62.917 13.962 63.0253 11.8491C63.0253 11.8491 62.3853 13.0914 60.9406 13.3408C59.4959 13.5902 61.0394 10.8561 60.0276 9.2373C60.0276 9.2373 59.1335 12.0561 57.8629 12.1597C56.5923 12.2632 55.5147 10.2961 55.5147 9.2373C55.5147 9.2373 54.7335 11.1432 54.9264 12.6585C55.2229 14.9597 52.07 11.7267 52.07 11.7267Z" fill="url(#paint49_radial_2_2073)"/>
<path opacity="0.5" d="M61.0441 8.77176C61.0959 6.16941 57.1429 6.52706 58.1594 2C58.1594 2 55.5053 3.04471 55.9712 6.24941C56.1312 7.35059 55.7453 8.17412 55.7453 8.17412C55.3547 8.25412 54.7476 7.47765 54.9594 6.27765C54.9594 6.27765 53.5665 7.31765 53.5665 8.65412C53.5665 9.99059 54.2112 11.4071 54.2112 11.4071C52.6065 11.0588 52.7665 8.89412 52.7665 8.89412C52.7665 8.89412 51.75 10.2541 51.75 12.8188C51.75 14.8141 53.9994 18 57.6276 18C61.2559 18 64.1688 15.1859 64.1688 12.6824C64.1688 11.5859 63.7971 10.1694 62.9924 9.39765C62.9924 9.39765 63.1006 11.5859 62.0182 11.4824C62.0182 11.4824 62.9124 8.62588 61.9759 7.31765C61.9759 7.31765 61.5241 8.72941 61.0441 8.77176Z" fill="url(#paint50_radial_2_2073)"/>
<path opacity="0.5" d="M61.0489 6.8094C62.103 4.86587 59.4912 4.59764 59.4865 3.40234C59.4865 3.40234 59.0253 4.63529 60.1265 5.47764C61.0253 6.15999 61.0489 6.8094 61.0489 6.8094Z" fill="url(#paint51_radial_2_2073)"/>
<path d="M55.5053 3.0918C55.11 3.48709 55.3641 4.73415 54.4041 5.76474C54.4041 5.76474 53.9806 3.9718 55.5053 3.0918Z" fill="url(#paint52_radial_2_2073)"/>
<path opacity="0.5" d="M55.5053 3.0918C55.1053 3.48709 55.6559 5.12003 54.4041 5.76474C54.4041 5.76474 53.9806 3.9718 55.5053 3.0918Z" fill="url(#paint53_radial_2_2073)"/>
<path opacity="0.5" d="M61.0441 8.77176C61.0959 6.16941 57.1429 6.52706 58.1594 2C58.1594 2 55.5053 3.04471 55.9712 6.24941C56.1312 7.35059 55.7453 8.17412 55.7453 8.17412C55.3547 8.25412 54.7476 7.47765 54.9594 6.27765C54.9594 6.27765 53.5665 7.31765 53.5665 8.65412C53.5665 9.99059 54.2112 11.4071 54.2112 11.4071C52.6065 11.0588 52.7665 8.89412 52.7665 8.89412C52.7665 8.89412 51.75 10.2541 51.75 12.8188C51.75 14.8141 53.9994 18 57.6276 18C61.2559 18 64.1688 15.1859 64.1688 12.6824C64.1688 11.5859 63.7971 10.1694 62.9924 9.39765C62.9924 9.39765 63.1006 11.5859 62.0182 11.4824C62.0182 11.4824 62.9124 8.62588 61.9759 7.31765C61.9759 7.31765 61.5241 8.72941 61.0441 8.77176Z" fill="url(#paint54_radial_2_2073)"/>
<path opacity="0.25" d="M61.0441 8.77176C61.0959 6.16941 57.1429 6.52706 58.1594 2C58.1594 2 55.5053 3.04471 55.9712 6.24941C56.1312 7.35059 55.7453 8.17412 55.7453 8.17412C55.3547 8.25412 54.7476 7.47765 54.9594 6.27765C54.9594 6.27765 53.5665 7.31765 53.5665 8.65412C53.5665 9.99059 54.2112 11.4071 54.2112 11.4071C52.6065 11.0588 52.7665 8.89412 52.7665 8.89412C52.7665 8.89412 51.75 10.2541 51.75 12.8188C51.75 14.8141 53.9994 18 57.6276 18C61.2559 18 64.1688 15.1859 64.1688 12.6824C64.1688 11.5859 63.7971 10.1694 62.9924 9.39765C62.9924 9.39765 63.1006 11.5859 62.0182 11.4824C62.0182 11.4824 62.9124 8.62588 61.9759 7.31765C61.9759 7.31765 61.5241 8.72941 61.0441 8.77176Z" fill="url(#paint55_radial_2_2073)"/>
<path opacity="0.25" d="M61.0441 8.77176C61.0959 6.16941 57.1429 6.52706 58.1594 2C58.1594 2 55.5053 3.04471 55.9712 6.24941C56.1312 7.35059 55.7453 8.17412 55.7453 8.17412C55.3547 8.25412 54.7476 7.47765 54.9594 6.27765C54.9594 6.27765 53.5665 7.31765 53.5665 8.65412C53.5665 9.99059 54.2112 11.4071 54.2112 11.4071C52.6065 11.0588 52.7665 8.89412 52.7665 8.89412C52.7665 8.89412 51.75 10.2541 51.75 12.8188C51.75 14.8141 53.9994 18 57.6276 18C61.2559 18 64.1688 15.1859 64.1688 12.6824C64.1688 11.5859 63.7971 10.1694 62.9924 9.39765C62.9924 9.39765 63.1006 11.5859 62.0182 11.4824C62.0182 11.4824 62.9124 8.62588 61.9759 7.31765C61.9759 7.31765 61.5241 8.72941 61.0441 8.77176Z" fill="url(#paint56_radial_2_2073)"/>
<path opacity="0.25" d="M61.0441 8.77176C61.0959 6.16941 57.1429 6.52706 58.1594 2C58.1594 2 55.5053 3.04471 55.9712 6.24941C56.1312 7.35059 55.7453 8.17412 55.7453 8.17412C55.3547 8.25412 54.7476 7.47765 54.9594 6.27765C54.9594 6.27765 53.5665 7.31765 53.5665 8.65412C53.5665 9.99059 54.2112 11.4071 54.2112 11.4071C52.6065 11.0588 52.7665 8.89412 52.7665 8.89412C52.7665 8.89412 51.75 10.2541 51.75 12.8188C51.75 14.8141 53.9994 18 57.6276 18C61.2559 18 64.1688 15.1859 64.1688 12.6824C64.1688 11.5859 63.7971 10.1694 62.9924 9.39765C62.9924 9.39765 63.1006 11.5859 62.0182 11.4824C62.0182 11.4824 62.9124 8.62588 61.9759 7.31765C61.9759 7.31765 61.5241 8.72941 61.0441 8.77176Z" fill="url(#paint57_radial_2_2073)"/>
<rect width="20" height="20" transform="translate(32)" fill="white"/>
<path d="M39.1277 14.0593L39.8644 16.9139C39.9516 17.2532 39.8401 17.6167 39.5736 17.8445L39.3991 17.9947L37.0291 14.9656L38.0905 13.7637L39.1277 14.0593Z" fill="url(#paint58_linear_2_2073)"/>
<path d="M39.3312 17.4811C39.3894 17.5732 39.4912 17.6362 39.6026 17.641L39.748 17.6459C39.6996 17.7186 39.6414 17.7864 39.5736 17.8494L39.3991 17.9997L37.0291 14.9706L37.2424 14.7331L37.601 14.6895L39.3312 17.4811Z" fill="url(#paint59_linear_2_2073)"/>
<path d="M39.4475 17.6464C39.7626 17.0309 39.4039 15.955 38.832 14.0503C38.1583 11.7966 38.3716 13.7643 38.3716 13.7643L37.3247 14.6949C37.3296 14.6949 39.3894 17.7579 39.4475 17.6464Z" fill="url(#paint60_linear_2_2073)"/>
<path d="M39.1277 14.0593L39.8644 16.9139C39.9516 17.2532 39.8401 17.6167 39.5736 17.8445L39.3991 17.9947L37.0291 14.9656L38.0905 13.7637L39.1277 14.0593Z" fill="url(#paint61_linear_2_2073)"/>
<path d="M37.9354 12.8674L35.0808 12.1308C34.7415 12.0435 34.378 12.155 34.1502 12.4216L34 12.596L37.0291 14.966L38.2311 13.9046L37.9354 12.8674Z" fill="url(#paint62_linear_2_2073)"/>
<path d="M34.349 12.5479C34.9645 12.2329 36.0404 12.5915 37.9451 13.1634C40.1988 13.8371 38.2311 13.6238 38.2311 13.6238L37.3005 14.6707C37.3005 14.6658 34.2375 12.606 34.349 12.5479Z" fill="url(#paint63_linear_2_2073)"/>
<path d="M37.9354 12.8674L35.0808 12.1308C34.7415 12.0435 34.378 12.155 34.1502 12.4216L34 12.596L37.0291 14.966L38.2311 13.9046L37.9354 12.8674Z" fill="url(#paint64_linear_2_2073)"/>
<path d="M34.5137 12.6639C34.4217 12.6057 34.3586 12.5039 34.3538 12.3925L34.349 12.2471C34.2763 12.2955 34.2084 12.3537 34.1454 12.4215L34 12.596L37.0291 14.966L37.2666 14.7527L37.3102 14.3941L34.5137 12.6639Z" fill="url(#paint65_linear_2_2073)"/>
<path d="M48.5688 11.8252L47.5364 12.8575L48.5881 13.9092L49.6205 12.8769L49.6011 12.8284C49.4169 12.3632 49.0437 11.9997 48.5688 11.8252Z" fill="url(#paint66_linear_2_2073)"/>
<path d="M48.8014 11.927L48.3507 12.3777C48.1616 12.5667 48.0986 12.843 48.1859 13.095L48.3216 13.4779H48.5397C48.7238 13.4779 48.8983 13.4052 49.0292 13.2743L49.5672 12.7364C49.5817 12.7654 49.5962 12.7945 49.6059 12.8284L49.6253 12.8769L48.5881 13.9092L47.5364 12.8575L48.5688 11.8252C48.6511 11.8543 48.7238 11.8882 48.8014 11.927Z" fill="url(#paint67_linear_2_2073)"/>
<path opacity="0.5" d="M48.089 13.4104L49.2377 12.2617C49.3346 12.3635 49.4218 12.475 49.4945 12.601L48.3895 13.706L48.089 13.4104Z" fill="url(#paint68_linear_2_2073)"/>
<path opacity="0.75" d="M48.4331 12.494C48.6899 12.7315 48.7965 13.2016 48.6851 13.8171L48.593 13.9092L47.5364 12.8575L48.5688 11.8252C48.6657 11.8591 48.7529 11.9027 48.8402 11.9512C48.6705 12.0869 48.2537 12.3292 48.4331 12.494Z" fill="url(#paint69_linear_2_2073)"/>
<path d="M47.5655 8.57812L46.5332 9.61044L47.5849 10.6621L48.6172 9.62983L48.5978 9.58136C48.4137 9.12094 48.0405 8.7526 47.5655 8.57812Z" fill="url(#paint70_linear_2_2073)"/>
<path d="M47.7933 8.68479L47.3426 9.13552C47.1536 9.32453 47.0906 9.60079 47.1778 9.85281L47.3135 10.2357H47.5316C47.7158 10.2357 47.8902 10.163 48.0211 10.0321L48.5591 9.49416C48.5736 9.52324 48.5881 9.55232 48.5978 9.58625L48.6172 9.63471L47.5849 10.667L46.5332 9.61533L47.5655 8.58301C47.6479 8.60724 47.7206 8.64601 47.7933 8.68479Z" fill="url(#paint71_linear_2_2073)"/>
<path opacity="0.5" d="M47.0857 10.1633L48.2343 9.01465C48.3313 9.11643 48.4185 9.2279 48.4912 9.35391L47.3862 10.4589L47.0857 10.1633Z" fill="url(#paint72_linear_2_2073)"/>
<path opacity="0.75" d="M47.4298 9.25183C47.6867 9.48932 47.7933 9.95943 47.6818 10.5749L47.5898 10.667L46.5381 9.61533L47.5704 8.58301C47.6673 8.61693 47.7545 8.66055 47.8418 8.70902C47.6673 8.83988 47.2457 9.0822 47.4298 9.25183Z" fill="url(#paint73_linear_2_2073)"/>
<path d="M43.6689 9.77012C43.6689 9.77012 46.0873 12.3776 46.7561 14.0399L48.0453 17.229C48.0841 17.3259 48.2101 17.3356 48.278 17.2532C48.6899 16.7056 49.068 15.7702 48.8983 15.1256L47.6043 10.1239C47.1536 8.82504 46.5962 7.56978 45.9371 6.37268L45.6947 5.93164L43.2278 8.86381L43.6689 9.77012Z" fill="url(#paint74_linear_2_2073)"/>
<path d="M47.5268 15.9305L47.5171 15.9256L46.7562 14.0452C46.0825 12.3828 43.6689 9.77535 43.6689 9.77535L43.572 9.56694L44.0082 9.24707C45.5882 11.1178 46.7174 12.8771 47.1778 14.0403C47.6383 15.218 47.5219 15.9256 47.5268 15.9305Z" fill="url(#paint75_linear_2_2073)"/>
<path d="M45.9032 7.56055C46.9403 9.09691 48.6366 14.0937 48.6366 15.2957C48.6366 16.4928 48.5348 15.5428 48.4185 14.811C48.3022 14.0792 47.236 10.9095 46.7949 10.1486C46.3539 9.3877 45.1762 8.20029 45.1762 8.20029L45.9032 7.56055Z" fill="url(#paint76_linear_2_2073)"/>
<path d="M43.6689 9.77012C43.6689 9.77012 46.0873 12.3776 46.7561 14.0399L48.0453 17.229C48.0841 17.3259 48.2101 17.3356 48.278 17.2532C48.6899 16.7056 49.068 15.7702 48.8983 15.1256L47.6043 10.1239C47.1536 8.82504 46.5962 7.56978 45.9371 6.37268L45.6947 5.93164L43.2278 8.86381L43.6689 9.77012Z" fill="url(#paint77_linear_2_2073)"/>
<path d="M43.4169 4.42964L42.3846 5.46196L41.3329 4.41025L42.3652 3.37793L42.4136 3.39732C42.8741 3.58149 43.2424 3.95467 43.4169 4.42964Z" fill="url(#paint78_linear_2_2073)"/>
<path d="M43.3103 4.20185L42.8595 4.65258C42.6705 4.84159 42.3943 4.9046 42.1423 4.81736L41.7594 4.68166V4.46356C41.7594 4.27939 41.8321 4.10492 41.9629 3.97406L42.5009 3.43609C42.4718 3.42155 42.4427 3.40701 42.4088 3.39732L42.3604 3.37793L41.328 4.41025L42.3797 5.46196L43.4121 4.42964C43.3878 4.34724 43.3491 4.27455 43.3103 4.20185Z" fill="url(#paint79_linear_2_2073)"/>
<path opacity="0.5" d="M41.8321 4.90941L42.9807 3.76077C42.8789 3.66384 42.7675 3.5766 42.6415 3.50391L41.5364 4.60892L41.8321 4.90941Z" fill="url(#paint80_linear_2_2073)"/>
<path opacity="0.75" d="M42.7432 4.56528C42.5057 4.30841 42.0356 4.20179 41.4201 4.31326L41.328 4.40534L42.3797 5.45705L43.4121 4.42473C43.3781 4.3278 43.3345 4.24056 43.286 4.15332C43.1552 4.3278 42.9129 4.74945 42.7432 4.56528Z" fill="url(#paint81_linear_2_2073)"/>
<path d="M40.1697 3.42671L39.1374 4.45902L38.0857 3.40732L39.118 2.375L39.1664 2.39439C39.6317 2.57856 39.9952 2.95174 40.1697 3.42671Z" fill="url(#paint82_linear_2_2073)"/>
<path d="M40.0679 3.19403L39.6172 3.64476C39.4282 3.83378 39.1519 3.89678 38.8999 3.80955L38.517 3.67384V3.45575C38.517 3.27158 38.5897 3.0971 38.7206 2.96624L39.2585 2.42828C39.2295 2.41374 39.2004 2.3992 39.1664 2.3895L39.118 2.37012L38.0857 3.40728L39.1374 4.45899L40.1697 3.42667C40.1406 3.34428 40.1067 3.27158 40.0679 3.19403Z" fill="url(#paint83_linear_2_2073)"/>
<path opacity="0.5" d="M38.5849 3.90648L39.7335 2.75784C39.6317 2.66091 39.5202 2.57368 39.3942 2.50098L38.2892 3.61084L38.5849 3.90648Z" fill="url(#paint84_linear_2_2073)"/>
<path opacity="0.75" d="M39.5009 3.56239C39.2634 3.30552 38.7933 3.19889 38.1777 3.31036L38.0857 3.40729L39.1374 4.459L40.1697 3.42668C40.1358 3.32975 40.0921 3.24251 40.0437 3.15527C39.908 3.3249 39.6656 3.74171 39.5009 3.56239Z" fill="url(#paint85_linear_2_2073)"/>
<path d="M42.2247 8.32673C42.2247 8.32673 39.6172 5.90829 37.9548 5.23946L34.7658 3.95028C34.6689 3.9115 34.6592 3.78549 34.7416 3.71764C35.2941 3.31053 36.2294 2.9325 36.874 3.10213L41.8757 4.39616C43.1746 4.84689 44.4298 5.40425 45.6269 6.06338L46.068 6.30571L43.1358 8.77261L42.2247 8.32673Z" fill="url(#paint86_linear_2_2073)"/>
<path d="M44.4346 6.09183C42.8983 5.04981 37.8966 3.35352 36.6995 3.35352C35.5024 3.35352 36.4523 3.45529 37.1842 3.57161C37.916 3.68793 41.0857 4.75417 41.8466 5.19521C42.6075 5.63625 43.7949 6.81397 43.7949 6.81397L44.4346 6.09183Z" fill="url(#paint87_linear_2_2073)"/>
<path d="M42.2247 8.32673C42.2247 8.32673 39.6172 5.90829 37.9548 5.23946L34.7658 3.95028C34.6689 3.9115 34.6592 3.78549 34.7416 3.71764C35.2941 3.31053 36.2294 2.9325 36.874 3.10213L41.8757 4.39616C43.1746 4.84689 44.4298 5.40425 45.6269 6.06338L46.068 6.30571L43.1358 8.77261L42.2247 8.32673Z" fill="url(#paint88_linear_2_2073)"/>
<path d="M36.0646 4.46853L36.0695 4.47822L37.95 5.23913C39.6123 5.91281 42.2198 8.3264 42.2198 8.3264L42.4282 8.42333L42.7481 7.98714C40.8773 6.412 39.118 5.28275 37.9548 4.82233C36.7771 4.35706 36.0695 4.47338 36.0646 4.46853Z" fill="url(#paint89_linear_2_2073)"/>
<path d="M37.1309 14.8643C38.3571 14.9225 40.7998 13.1826 41.3426 12.6397C41.8854 12.0969 47.8903 6.09687 48.7239 5.26326C49.5575 4.42965 50.3136 2.5928 49.858 2.13722C49.4024 1.68165 47.5656 2.43771 46.732 3.27132C45.8983 4.10493 39.8886 10.1147 39.3506 10.6526C38.8127 11.1906 37.0679 13.6381 37.1309 14.8643Z" fill="url(#paint90_radial_2_2073)"/>
<path d="M37.1309 14.8643C38.3571 14.9225 40.7998 13.1826 41.3426 12.6397C41.8854 12.0969 47.8903 6.09687 48.7239 5.26326C49.5575 4.42965 50.3136 2.5928 49.858 2.13722C49.4024 1.68165 47.5656 2.43771 46.732 3.27132C45.8983 4.10493 39.8886 10.1147 39.3506 10.6526C38.8127 11.1906 37.0679 13.6381 37.1309 14.8643Z" fill="url(#paint91_linear_2_2073)"/>
<path d="M38.6042 13.3912C39.307 13.1973 41.0517 11.7288 41.4685 11.312C41.8853 10.8952 47.0857 5.69486 47.7255 5.05511C48.3652 4.41536 48.5639 3.79016 48.3846 3.61083C48.2053 3.43151 47.5801 3.63022 46.9403 4.26997C46.3006 4.90971 41.1002 10.1101 40.6834 10.5269C40.2666 10.9437 38.7981 12.6885 38.6042 13.3912Z" fill="url(#paint92_linear_2_2073)"/>
<path d="M38.643 13.8664C39.2343 13.2897 39.0113 12.9795 39.0113 12.9795L37.126 14.7582C37.126 14.7921 37.126 14.8309 37.126 14.8648C37.4459 14.8794 37.8433 14.7727 38.2698 14.5982C38.2746 14.4189 38.3473 14.1572 38.643 13.8664Z" fill="url(#paint93_linear_2_2073)"/>
<path d="M36.559 15.4363C36.7674 15.412 37.223 15.0582 37.3296 14.9516C37.4362 14.845 38.58 13.7012 38.7399 13.5413C38.9047 13.3765 39.0792 13.0469 39.0114 12.9839C38.9435 12.9209 38.6139 13.0954 38.454 13.2553C38.2892 13.4201 37.1454 14.5639 37.0436 14.6657C36.937 14.7723 36.5784 15.2327 36.559 15.4363Z" fill="url(#paint94_linear_2_2073)"/>
<path d="M37.3296 14.9518C37.4362 14.8452 38.8756 13.43 38.6382 13.6432C38.9726 13.3476 39.2052 12.7902 38.8708 13.1295C38.5364 13.4639 36.559 15.4413 36.559 15.4413C36.7625 15.4171 37.223 15.0584 37.3296 14.9518Z" fill="url(#paint95_linear_2_2073)"/>
<path d="M48.9275 3.49461L49.0632 3.7854L49.3733 3.76117L49.2813 3.2959L48.9275 3.49461Z" fill="url(#paint96_linear_2_2073)"/>
<path d="M48.5009 3.0728L48.69 2.71415L48.2344 2.62207L48.2101 2.93225L48.5009 3.0728Z" fill="url(#paint97_linear_2_2073)"/>
<path d="M49.0534 2.9516C49.0195 2.91768 48.9759 2.88375 48.9323 2.85467L48.7626 2.74805L48.5639 3.12123L48.6609 3.21816L48.7772 3.33448L48.8741 3.43141L49.2376 3.22786L49.1601 3.09215C49.131 3.03884 49.0971 2.99522 49.0534 2.9516Z" fill="url(#paint98_linear_2_2073)"/>
<path d="M49.0777 3.86798L49.0195 4.29933L49.0728 4.27994C49.2037 4.23632 49.3055 4.1297 49.3394 3.99399L49.3781 3.84375L49.0777 3.86798Z" fill="url(#paint99_linear_2_2073)"/>
<path d="M48.152 2.62207L48.0017 2.66084C47.866 2.69477 47.7594 2.79655 47.7158 2.9274L47.6964 2.98072L48.1278 2.92256L48.152 2.62207Z" fill="url(#paint100_linear_2_2073)"/>
<rect width="20" height="20" transform="translate(16)" fill="white"/>
<path d="M29.6114 2.75C28.1118 2.75 26.7873 3.50476 25.9975 4.6544C25.2077 3.50476 23.8832 2.75 22.3836 2.75C19.9644 2.75 18 4.71439 18 7.13363C18 12.477 25.9975 17.2805 25.9975 17.2805C25.9975 17.2805 33.995 12.477 33.995 7.13363C33.995 4.71439 32.0306 2.75 29.6114 2.75Z" fill="url(#paint101_radial_2_2073)"/>
<path opacity="0.5" d="M31.4258 3.13965C33.825 6.96345 31.6157 11.9819 28.9616 13.4064C26.0325 14.9809 24.0281 14.2412 19.8794 11.8869C22.2437 15.0209 25.9975 17.2752 25.9975 17.2752C25.9975 17.2752 33.995 12.4717 33.995 7.1284C33.995 5.35895 32.9403 3.82943 31.4258 3.13965Z" fill="url(#paint102_radial_2_2073)"/>
<path opacity="0.5" d="M29.6114 2.75C28.1118 2.75 26.7873 3.50476 25.9975 4.6544C25.2077 3.50476 23.8832 2.75 22.3836 2.75C19.9644 2.75 18 4.71439 18 7.13363C18 12.477 25.9975 17.2805 25.9975 17.2805C25.9975 17.2805 33.995 12.477 33.995 7.13363C33.995 4.71439 32.0306 2.75 29.6114 2.75Z" fill="url(#paint103_radial_2_2073)"/>
<path opacity="0.5" d="M29.6114 2.75C28.1118 2.75 26.7873 3.50476 25.9975 4.6544C25.2077 3.50476 23.8832 2.75 22.3836 2.75C19.9644 2.75 18 4.71439 18 7.13363C18 12.477 25.9975 17.2805 25.9975 17.2805C25.9975 17.2805 33.995 12.477 33.995 7.13363C33.995 4.71439 32.0306 2.75 29.6114 2.75Z" fill="url(#paint104_radial_2_2073)"/>
<path opacity="0.24" d="M24.9029 4.52967C25.3427 5.56435 24.368 6.96891 22.7235 7.66369C21.0791 8.35848 19.3946 8.08856 18.9547 7.05888C18.5149 6.0292 19.4896 4.61965 21.134 3.92486C22.7785 3.23008 24.463 3.495 24.9029 4.52967Z" fill="url(#paint105_radial_2_2073)"/>
<path opacity="0.24" d="M30.2612 3.68975C30.886 4.37954 30.5011 5.74411 29.4064 6.7338C28.3118 7.72349 26.9172 7.96842 26.2924 7.27863C25.6676 6.58885 26.0525 5.22427 27.1471 4.23458C28.2418 3.24489 29.6363 2.99997 30.2612 3.68975Z" fill="url(#paint106_radial_2_2073)"/>
<path opacity="0.32" d="M29.6913 3.91464C31.8906 4.6644 33.99 7.91339 30.4411 11.9621C28.3168 14.3864 25.9975 15.611 23.0484 15.1311C24.6429 16.4607 26.0025 17.2805 26.0025 17.2805C26.0025 17.2805 34 12.477 34 7.13363C33.995 4.71439 32.0306 2.75 29.6114 2.75C28.1118 2.75 26.7872 3.50476 25.9975 4.6544C25.9975 4.6544 28.0818 3.36481 29.6913 3.91464Z" fill="url(#paint107_linear_2_2073)"/>
<rect width="20" height="20" fill="white"/>
<path d="M10 18C14.4183 18 18 14.4183 18 10C18 5.58172 14.4183 2 10 2C5.58172 2 2 5.58172 2 10C2 14.4183 5.58172 18 10 18Z" fill="url(#paint108_radial_2_2073)"/>
<path opacity="0.5" d="M10 18C14.4183 18 18 14.4183 18 10C18 5.58172 14.4183 2 10 2C5.58172 2 2 5.58172 2 10C2 14.4183 5.58172 18 10 18Z" fill="url(#paint109_radial_2_2073)"/>
<path opacity="0.5" d="M10 18C14.4183 18 18 14.4183 18 10C18 5.58172 14.4183 2 10 2C5.58172 2 2 5.58172 2 10C2 14.4183 5.58172 18 10 18Z" fill="url(#paint110_radial_2_2073)"/>
<path opacity="0.5" d="M10 18C14.4183 18 18 14.4183 18 10C18 5.58172 14.4183 2 10 2C5.58172 2 2 5.58172 2 10C2 14.4183 5.58172 18 10 18Z" fill="url(#paint111_radial_2_2073)"/>
<path d="M12.7498 6.00719C12.8242 5.69463 13.2037 5.57929 13.7879 5.71324C14.2828 5.82859 15.3023 6.34952 15.827 7.4844C15.9237 7.69277 15.6893 7.74115 15.5814 7.59603C15.213 7.10115 14.1005 6.31231 13.1144 6.19324C12.7163 6.14487 12.7498 6.00719 12.7498 6.00719Z" fill="url(#paint112_linear_2_2073)"/>
<path d="M13.5163 7.83408C13.5163 7.83408 14.8038 8.19129 14.9972 9.24804C15.0084 9.31501 15.0121 9.38199 14.9972 9.44897C14.9749 9.58292 14.8261 9.70199 14.6177 9.53083C13.3154 8.48897 12.4186 8.71966 11.7563 8.87222C11.4959 8.93176 11.3284 8.64897 11.4363 8.44804C11.4698 8.3885 11.4921 8.32524 11.5368 8.27687C12.2289 7.46943 13.5163 7.83408 13.5163 7.83408Z" fill="url(#paint113_radial_2_2073)"/>
<path d="M13.4344 8.14292C13.4344 8.14292 14.4837 8.43315 15.0047 9.3671C15.0047 9.32617 15.0047 9.28896 14.9972 9.24803C14.8037 8.19129 13.5163 7.83408 13.5163 7.83408C13.5163 7.83408 12.2289 7.46943 11.5368 8.27687C11.5107 8.30664 11.4884 8.34013 11.4698 8.37362C12.3851 7.84524 13.4344 8.14292 13.4344 8.14292Z" fill="url(#paint114_linear_2_2073)"/>
<path d="M7.25025 6.00719C7.17583 5.69463 6.7963 5.57929 6.21211 5.71324C5.71723 5.82859 4.69769 6.34952 4.17304 7.4844C4.0763 7.69277 4.31072 7.74115 4.41862 7.59603C4.787 7.10115 5.89955 6.31231 6.8856 6.19324C7.28374 6.14487 7.25025 6.00719 7.25025 6.00719Z" fill="url(#paint115_linear_2_2073)"/>
<path d="M6.48373 7.83408C6.48373 7.83408 5.19629 8.19129 5.0028 9.24804C4.99163 9.31501 4.98791 9.38199 5.0028 9.44897C5.02512 9.58292 5.17396 9.70199 5.38233 9.53083C6.68466 8.48897 7.5814 8.71966 8.24373 8.87222C8.50419 8.93176 8.67163 8.64897 8.56373 8.44804C8.53024 8.3885 8.50791 8.32524 8.46326 8.27687C7.77117 7.46943 6.48373 7.83408 6.48373 7.83408Z" fill="url(#paint116_radial_2_2073)"/>
<path d="M6.56575 8.14292C6.56575 8.14292 5.51644 8.43315 4.99551 9.3671C4.99551 9.32617 4.99551 9.28897 5.00296 9.24803C5.19644 8.19129 6.48389 7.83408 6.48389 7.83408C6.48389 7.83408 7.77133 7.46943 8.46342 8.27687C8.48947 8.30664 8.51179 8.34013 8.5304 8.37362C7.61505 7.84524 6.56575 8.14292 6.56575 8.14292Z" fill="url(#paint117_linear_2_2073)"/>
<path d="M13.5349 12.3401C13.4679 12.3289 13.4009 12.3475 13.3526 12.3959C12.493 13.2033 11.1684 13.6349 10.1712 13.6349H10H9.82885C8.83164 13.6349 7.50327 13.2033 6.64746 12.3959C6.59908 12.3512 6.53211 12.3289 6.46513 12.3401C6.39815 12.3512 6.36095 12.4294 6.39443 12.4926C7.12746 13.7614 8.4856 14.5503 9.95909 14.5503H10.0037H10.0484C11.5219 14.5503 12.88 13.7652 13.613 12.4926C13.6428 12.4294 13.6056 12.3549 13.5349 12.3401Z" fill="#643800"/>
<path d="M13.5349 12.3401C13.4679 12.3289 13.4009 12.3475 13.3526 12.3959C12.493 13.2033 11.1684 13.6349 10.1712 13.6349H10H9.82885C8.83164 13.6349 7.50327 13.2033 6.64746 12.3959C6.59908 12.3512 6.53211 12.3289 6.46513 12.3401C6.39815 12.3512 6.36095 12.4294 6.39443 12.4926C6.40188 12.5038 6.40932 12.5187 6.41676 12.5298C6.48746 12.4889 6.55815 12.4517 6.63629 12.5373C7.45118 13.4526 8.66048 13.9996 9.95537 13.9996H10H10.0447C11.347 13.9996 12.5637 13.4452 13.3786 12.5187C13.453 12.4331 13.5237 12.474 13.5907 12.5187C13.5944 12.5112 13.6019 12.5001 13.6056 12.4926C13.6428 12.4294 13.6056 12.3549 13.5349 12.3401Z" fill="url(#paint118_linear_2_2073)"/>
<defs>
<linearGradient id="paint0_linear_2_2073" x1="77.4173" y1="9.81519" x2="72.6567" y2="10.0062" gradientUnits="userSpaceOnUse">
<stop offset="0.00132565" stop-color="#FFCB4B"/>
<stop offset="1" stop-color="#FFD748"/>
</linearGradient>
<linearGradient id="paint1_linear_2_2073" x1="72.2788" y1="16.4164" x2="72.1831" y2="13.913" gradientUnits="userSpaceOnUse">
<stop offset="0.00132565" stop-color="#FFCB4B"/>
<stop offset="1" stop-color="#FFD748"/>
</linearGradient>
<linearGradient id="paint2_linear_2_2073" x1="71.6686" y1="6.99233" x2="75.2549" y2="12.1198" gradientUnits="userSpaceOnUse">
<stop offset="0.00132565" stop-color="#FFCB4B"/>
<stop offset="1" stop-color="#FFD748"/>
</linearGradient>
<linearGradient id="paint3_linear_2_2073" x1="69.0733" y1="4.94944" x2="78.2584" y2="5.63738" gradientUnits="userSpaceOnUse">
<stop offset="0.3118" stop-color="#FFBC47" stop-opacity="0"/>
<stop offset="1" stop-color="#FF8900"/>
</linearGradient>
<linearGradient id="paint4_linear_2_2073" x1="68.8984" y1="13.1157" x2="80.96" y2="13.1157" gradientUnits="userSpaceOnUse">
<stop stop-color="#FFBC47" stop-opacity="0"/>
<stop offset="1" stop-color="#FFA754"/>
</linearGradient>
<linearGradient id="paint5_linear_2_2073" x1="66.9535" y1="13.1345" x2="90.7825" y2="13.8936" gradientUnits="userSpaceOnUse">
<stop stop-color="#FFBC47" stop-opacity="0"/>
<stop offset="1" stop-color="#C86F34"/>
</linearGradient>
<linearGradient id="paint6_linear_2_2073" x1="70.7398" y1="16.2482" x2="74.6805" y2="14.1127" gradientUnits="userSpaceOnUse">
<stop stop-color="#FFBC47" stop-opacity="0"/>
<stop offset="1" stop-color="#C86F34"/>
</linearGradient>
<linearGradient id="paint7_linear_2_2073" x1="75.254" y1="13.2161" x2="78.5401" y2="12.7845" gradientUnits="userSpaceOnUse">
<stop stop-color="#643800" stop-opacity="0"/>
<stop offset="1" stop-color="#643800"/>
</linearGradient>
<linearGradient id="paint8_linear_2_2073" x1="69.422" y1="5.96167" x2="70.1348" y2="17.7635" gradientUnits="userSpaceOnUse">
<stop stop-color="#FFBC47" stop-opacity="0"/>
<stop offset="1" stop-color="#FFA754"/>
</linearGradient>
<linearGradient id="paint9_linear_2_2073" x1="80.3322" y1="9.75126" x2="75.6691" y2="9.75126" gradientUnits="userSpaceOnUse">
<stop offset="0.00132565" stop-color="#FFBC47"/>
<stop offset="1" stop-color="#FFD748"/>
</linearGradient>
<linearGradient id="paint10_linear_2_2073" x1="80.3321" y1="14.6793" x2="75.6665" y2="14.6793" gradientUnits="userSpaceOnUse">
<stop offset="0.00132565" stop-color="#FFBC47"/>
<stop offset="1" stop-color="#FFD748"/>
</linearGradient>
<linearGradient id="paint11_linear_2_2073" x1="80.3321" y1="16.8878" x2="75.6691" y2="16.8878" gradientUnits="userSpaceOnUse">
<stop offset="0.00132565" stop-color="#FFBC47"/>
<stop offset="1" stop-color="#FFD748"/>
</linearGradient>
<linearGradient id="paint12_linear_2_2073" x1="75.0405" y1="9.7751" x2="77.4693" y2="9.71975" gradientUnits="userSpaceOnUse">
<stop offset="0.00132565" stop-color="#FFCB4B"/>
<stop offset="1" stop-color="#FFD748"/>
</linearGradient>
<linearGradient id="paint13_linear_2_2073" x1="79.2878" y1="14.713" x2="76.8121" y2="14.713" gradientUnits="userSpaceOnUse">
<stop offset="0.00132565" stop-color="#FFCB4B"/>
<stop offset="1" stop-color="#FFD748"/>
</linearGradient>
<linearGradient id="paint14_linear_2_2073" x1="79.2879" y1="16.8882" x2="76.8121" y2="16.8882" gradientUnits="userSpaceOnUse">
<stop offset="0.00132565" stop-color="#FFCB4B"/>
<stop offset="1" stop-color="#FFD748"/>
</linearGradient>
<linearGradient id="paint15_linear_2_2073" x1="76.2657" y1="9.71804" x2="74.9447" y2="9.71804" gradientUnits="userSpaceOnUse">
<stop offset="0.00132565" stop-color="#FBA23B" stop-opacity="0"/>
<stop offset="1" stop-color="#FBA23B"/>
</linearGradient>
<linearGradient id="paint16_linear_2_2073" x1="76.0284" y1="9.75572" x2="74.5092" y2="9.75572" gradientUnits="userSpaceOnUse">
<stop offset="0.00132565" stop-color="#FFBC47"/>
<stop offset="1" stop-color="#E89043"/>
</linearGradient>
<radialGradient id="paint17_radial_2_2073" cx="0" cy="0" r="1" gradientUnits="userSpaceOnUse" gradientTransform="translate(72.3508 15.4391) rotate(23.5251) scale(1.85452 0.86103)">
<stop stop-color="#FBE07A"/>
<stop offset="1" stop-color="#FFD748" stop-opacity="0"/>
</radialGradient>
<radialGradient id="paint18_radial_2_2073" cx="0" cy="0" r="1" gradientUnits="userSpaceOnUse" gradientTransform="translate(77.9617 9.76336) rotate(2.02718) scale(1.58676 1.04144)">
<stop stop-color="#FBE07A"/>
<stop offset="1" stop-color="#FFD748"/>
</radialGradient>
<radialGradient id="paint19_radial_2_2073" cx="0" cy="0" r="1" gradientUnits="userSpaceOnUse" gradientTransform="translate(77.8848 14.876) rotate(-0.0544055) scale(1.70408 0.91863)">
<stop stop-color="#FBE07A"/>
<stop offset="1" stop-color="#FFD748" stop-opacity="0"/>
</radialGradient>
<radialGradient id="paint20_radial_2_2073" cx="0" cy="0" r="1" gradientUnits="userSpaceOnUse" gradientTransform="translate(77.2953 16.9416) rotate(-0.0539601) scale(1.56023 0.976506)">
<stop stop-color="#FBE07A"/>
<stop offset="1" stop-color="#FFD748" stop-opacity="0"/>
</radialGradient>
<linearGradient id="paint21_linear_2_2073" x1="76.4239" y1="14.6532" x2="74.5094" y2="14.6532" gradientUnits="userSpaceOnUse">
<stop offset="0.00132565" stop-color="#FBA23B" stop-opacity="0"/>
<stop offset="1" stop-color="#FBA23B"/>
</linearGradient>
<linearGradient id="paint22_linear_2_2073" x1="76.017" y1="14.5864" x2="74.9857" y2="14.5864" gradientUnits="userSpaceOnUse">
<stop offset="0.00132565" stop-color="#FFBC47"/>
<stop offset="1" stop-color="#FBA23B"/>
</linearGradient>
<linearGradient id="paint23_linear_2_2073" x1="76.3552" y1="16.9007" x2="74.1162" y2="16.4895" gradientUnits="userSpaceOnUse">
<stop offset="0.00132565" stop-color="#FBA23B" stop-opacity="0"/>
<stop offset="1" stop-color="#FBA23B"/>
</linearGradient>
<linearGradient id="paint24_linear_2_2073" x1="76.1236" y1="16.8278" x2="75.1773" y2="16.8278" gradientUnits="userSpaceOnUse">
<stop offset="0.00132565" stop-color="#FFBC47"/>
<stop offset="1" stop-color="#FBA23B"/>
</linearGradient>
<linearGradient id="paint25_linear_2_2073" x1="77.6322" y1="9.45743" x2="78.2341" y2="12.3702" gradientUnits="userSpaceOnUse">
<stop stop-color="#FFBC47" stop-opacity="0"/>
<stop offset="1" stop-color="#C86F34"/>
</linearGradient>
<linearGradient id="paint26_linear_2_2073" x1="78.0894" y1="15.2132" x2="77.4328" y2="12.844" gradientUnits="userSpaceOnUse">
<stop stop-color="#FFBC47" stop-opacity="0"/>
<stop offset="1" stop-color="#C86F34"/>
</linearGradient>
<linearGradient id="paint27_linear_2_2073" x1="80.3321" y1="12.4173" x2="75.6691" y2="12.4173" gradientUnits="userSpaceOnUse">
<stop offset="0.00132565" stop-color="#FFBC47"/>
<stop offset="1" stop-color="#FFD748"/>
</linearGradient>
<linearGradient id="paint28_linear_2_2073" x1="75.481" y1="12.2867" x2="79.053" y2="12.4171" gradientUnits="userSpaceOnUse">
<stop offset="0.00132565" stop-color="#FFCB4B"/>
<stop offset="0.7382" stop-color="#FFD748"/>
<stop offset="1" stop-color="#FFCB4B"/>
</linearGradient>
<linearGradient id="paint29_linear_2_2073" x1="76.8749" y1="12.3689" x2="74.2062" y2="12.3689" gradientUnits="userSpaceOnUse">
<stop offset="0.00132565" stop-color="#FBA23B" stop-opacity="0"/>
<stop offset="1" stop-color="#FBA23B"/>
</linearGradient>
<radialGradient id="paint30_radial_2_2073" cx="0" cy="0" r="1" gradientUnits="userSpaceOnUse" gradientTransform="translate(78.4244 12.3742) rotate(-2.73606) scale(1.74487 1.14527)">
<stop stop-color="#FBE07A"/>
<stop offset="1" stop-color="#FFD748" stop-opacity="0"/>
</radialGradient>
<linearGradient id="paint31_linear_2_2073" x1="75.6344" y1="12.3662" x2="74.7919" y2="12.3662" gradientUnits="userSpaceOnUse">
<stop offset="0.00132565" stop-color="#FFBC47"/>
<stop offset="1" stop-color="#FBA23B"/>
</linearGradient>
<linearGradient id="paint32_linear_2_2073" x1="77.8535" y1="12.1093" x2="78.3603" y2="15.3307" gradientUnits="userSpaceOnUse">
<stop stop-color="#FFBC47" stop-opacity="0"/>
<stop offset="1" stop-color="#C86F34"/>
</linearGradient>
<linearGradient id="paint33_linear_2_2073" x1="77.5023" y1="14.6009" x2="78.8008" y2="17.4183" gradientUnits="userSpaceOnUse">
<stop stop-color="#FFBC47" stop-opacity="0"/>
<stop offset="1" stop-color="#C86F34"/>
</linearGradient>
<linearGradient id="paint34_linear_2_2073" x1="77.2437" y1="17.0727" x2="77.4338" y2="18.8536" gradientUnits="userSpaceOnUse">
<stop stop-color="#FFBC47" stop-opacity="0"/>
<stop offset="1" stop-color="#C86F34"/>
</linearGradient>
<linearGradient id="paint35_linear_2_2073" x1="77.2885" y1="16.8023" x2="77.2885" y2="15.514" gradientUnits="userSpaceOnUse">
<stop stop-color="#FFBC47" stop-opacity="0"/>
<stop offset="1" stop-color="#C86F34"/>
</linearGradient>
<linearGradient id="paint36_linear_2_2073" x1="68.591" y1="13.246" x2="64.5534" y2="19.3469" gradientUnits="userSpaceOnUse">
<stop stop-color="#C86F34" stop-opacity="0"/>
<stop offset="1" stop-color="#C86F34"/>
</linearGradient>
<linearGradient id="paint37_linear_2_2073" x1="68.3244" y1="14.5954" x2="68.9896" y2="17.5635" gradientUnits="userSpaceOnUse">
<stop stop-color="#FFBC47" stop-opacity="0"/>
<stop offset="1" stop-color="#C86F34"/>
</linearGradient>
<linearGradient id="paint38_linear_2_2073" x1="68.7272" y1="15.1522" x2="68.6322" y2="18.7853" gradientUnits="userSpaceOnUse">
<stop stop-color="#FFBC47" stop-opacity="0"/>
<stop offset="1" stop-color="#C86F34"/>
</linearGradient>
<radialGradient id="paint39_radial_2_2073" cx="0" cy="0" r="1" gradientUnits="userSpaceOnUse" gradientTransform="translate(74.3613 3.61929) rotate(79.0714) scale(1.67307 0.98147)">
<stop stop-color="#FBE07A"/>
<stop offset="1" stop-color="#FFD748" stop-opacity="0"/>
</radialGradient>
<linearGradient id="paint40_linear_2_2073" x1="58.7552" y1="18.4422" x2="55.8704" y2="-2.46372" gradientUnits="userSpaceOnUse">
<stop stop-color="#FF0000"/>
<stop offset="0.2317" stop-color="#FF1500"/>
<stop offset="0.7367" stop-color="#FF3D00"/>
<stop offset="0.9987" stop-color="#FF4C00"/>
</linearGradient>
<linearGradient id="paint41_linear_2_2073" x1="62.1356" y1="17.9758" x2="59.2508" y2="-2.93019" gradientUnits="userSpaceOnUse">
<stop stop-color="#FF0000"/>
<stop offset="0.2317" stop-color="#FF1500"/>
<stop offset="0.7367" stop-color="#FF3D00"/>
<stop offset="0.9987" stop-color="#FF4C00"/>
</linearGradient>
<linearGradient id="paint42_linear_2_2073" x1="56.9198" y1="18.6955" x2="54.035" y2="-2.21043" gradientUnits="userSpaceOnUse">
<stop stop-color="#FF0000"/>
<stop offset="0.2317" stop-color="#FF1500"/>
<stop offset="0.7367" stop-color="#FF3D00"/>
<stop offset="0.9987" stop-color="#FF4C00"/>
</linearGradient>
<linearGradient id="paint43_linear_2_2073" x1="58.6775" y1="14.8813" x2="52.3737" y2="-3.122" gradientUnits="userSpaceOnUse">
<stop stop-color="#FF8000"/>
<stop offset="0.6388" stop-color="#FF5B00"/>
<stop offset="0.9987" stop-color="#FF4C00"/>
</linearGradient>
<radialGradient id="paint44_radial_2_2073" cx="0" cy="0" r="1" gradientUnits="userSpaceOnUse" gradientTransform="translate(61.3773 0.229365) scale(8.40048 8.40051)">
<stop offset="0.00134333" stop-color="#FFED1C" stop-opacity="0.6"/>
<stop offset="0.9477" stop-color="#FFED1C" stop-opacity="0.0264782"/>
<stop offset="0.9914" stop-color="#FFED1C" stop-opacity="0"/>
</radialGradient>
<linearGradient id="paint45_linear_2_2073" x1="56.2296" y1="2.86754" x2="58.509" y2="15.6533" gradientUnits="userSpaceOnUse">
<stop stop-color="#FF8000"/>
<stop offset="0.022669" stop-color="#FE7F02" stop-opacity="0.9773"/>
<stop offset="0.6663" stop-color="#ED582A" stop-opacity="0.3337"/>
<stop offset="1" stop-color="#E74939" stop-opacity="0"/>
</linearGradient>
<linearGradient id="paint46_linear_2_2073" x1="57.9996" y1="16.6838" x2="58.4923" y2="7.70621" gradientUnits="userSpaceOnUse">
<stop stop-color="#FFBC47"/>
<stop offset="0.1869" stop-color="#FFB137" stop-opacity="0.8131"/>
<stop offset="0.7223" stop-color="#FF940F" stop-opacity="0.2777"/>
<stop offset="1" stop-color="#FF8900" stop-opacity="0"/>
</linearGradient>
<radialGradient id="paint47_radial_2_2073" cx="0" cy="0" r="1" gradientUnits="userSpaceOnUse" gradientTransform="translate(57.8772 14.2609) scale(6.49824 5.27527)">
<stop offset="0.00134333" stop-color="#FFBC47"/>
<stop offset="0.2941" stop-color="#FFBF4B" stop-opacity="0.7068"/>
<stop offset="0.5624" stop-color="#FEC656" stop-opacity="0.4382"/>
<stop offset="0.8201" stop-color="#FCD368" stop-opacity="0.1801"/>
<stop offset="1" stop-color="#FBE07A" stop-opacity="0"/>
</radialGradient>
<radialGradient id="paint48_radial_2_2073" cx="0" cy="0" r="1" gradientUnits="userSpaceOnUse" gradientTransform="translate(57.8772 13.9938) scale(6.298 5.11272)">
<stop offset="0.00134333" stop-color="white"/>
<stop offset="1" stop-color="white" stop-opacity="0"/>
</radialGradient>
<radialGradient id="paint49_radial_2_2073" cx="0" cy="0" r="1" gradientUnits="userSpaceOnUse" gradientTransform="translate(55.1156 15.1551) scale(7.73665 9.00779)">
<stop offset="0.00134333" stop-color="#FFED1C" stop-opacity="0.6"/>
<stop offset="0.9477" stop-color="#FFED1C" stop-opacity="0.0264782"/>
<stop offset="0.9914" stop-color="#FFED1C" stop-opacity="0"/>
</radialGradient>
<radialGradient id="paint50_radial_2_2073" cx="0" cy="0" r="1" gradientUnits="userSpaceOnUse" gradientTransform="translate(57.8775 13.9931) rotate(92.8876) scale(2.44515 1.98487)">
<stop offset="0.00134333" stop-color="white"/>
<stop offset="1" stop-color="white" stop-opacity="0"/>
</radialGradient>
<radialGradient id="paint51_radial_2_2073" cx="0" cy="0" r="1" gradientUnits="userSpaceOnUse" gradientTransform="translate(59.2292 3.39788) scale(2.77545 2.77545)">
<stop offset="0.00134333" stop-color="#FFED1C"/>
<stop offset="0.1997" stop-color="#FFEE2B" stop-opacity="0.8013"/>
<stop offset="0.5839" stop-color="#FFF254" stop-opacity="0.4167"/>
<stop offset="1" stop-color="#FFF686" stop-opacity="0"/>
</radialGradient>
<radialGradient id="paint52_radial_2_2073" cx="0" cy="0" r="1" gradientUnits="userSpaceOnUse" gradientTransform="translate(54.6525 4.73345) rotate(-56.4116) scale(2.24817 0.510568)">
<stop offset="0.00134333" stop-color="#FFED1C" stop-opacity="0.6"/>
<stop offset="0.9477" stop-color="#FFED1C" stop-opacity="0.0264782"/>
<stop offset="0.9914" stop-color="#FFED1C" stop-opacity="0"/>
</radialGradient>
<radialGradient id="paint53_radial_2_2073" cx="0" cy="0" r="1" gradientUnits="userSpaceOnUse" gradientTransform="translate(55.0978 2.97052) rotate(95.0573) scale(2.02009 0.812824)">
<stop offset="0.00134333" stop-color="#FFED1C"/>
<stop offset="0.1997" stop-color="#FFEE2B" stop-opacity="0.8013"/>
<stop offset="0.5839" stop-color="#FFF254" stop-opacity="0.4167"/>
<stop offset="1" stop-color="#FFF686" stop-opacity="0"/>
</radialGradient>
<radialGradient id="paint54_radial_2_2073" cx="0" cy="0" r="1" gradientUnits="userSpaceOnUse" gradientTransform="translate(58.6124 3.04174) scale(8.66023)">
<stop offset="0.00134333" stop-color="#FF4C00"/>
<stop offset="0.135" stop-color="#FF5B0C" stop-opacity="0.8661"/>
<stop offset="0.3941" stop-color="#FF842C" stop-opacity="0.6067"/>
<stop offset="0.7491" stop-color="#FFC45F" stop-opacity="0.2512"/>
<stop offset="1" stop-color="#FFF686" stop-opacity="0"/>
</radialGradient>
<radialGradient id="paint55_radial_2_2073" cx="0" cy="0" r="1" gradientUnits="userSpaceOnUse" gradientTransform="translate(62.5513 10.0579) scale(4.59671)">
<stop offset="0.00134333" stop-color="#FFED1C"/>
<stop offset="0.1997" stop-color="#FFEE2B" stop-opacity="0.8013"/>
<stop offset="0.5839" stop-color="#FFF254" stop-opacity="0.4167"/>
<stop offset="1" stop-color="#FFF686" stop-opacity="0"/>
</radialGradient>
<radialGradient id="paint56_radial_2_2073" cx="0" cy="0" r="1" gradientUnits="userSpaceOnUse" gradientTransform="translate(53.1417 11.6962) scale(4.8995)">
<stop offset="0.00134333" stop-color="#FFED1C"/>
<stop offset="0.1997" stop-color="#FFEE2B" stop-opacity="0.8013"/>
<stop offset="0.5839" stop-color="#FFF254" stop-opacity="0.4167"/>
<stop offset="1" stop-color="#FFF686" stop-opacity="0"/>
</radialGradient>
<radialGradient id="paint57_radial_2_2073" cx="0" cy="0" r="1" gradientUnits="userSpaceOnUse" gradientTransform="translate(57.804 10.7059) rotate(86.1102) scale(8.39248 5.10177)">
<stop stop-color="#FF4C00" stop-opacity="0"/>
<stop offset="0.9874" stop-color="#FF4C00" stop-opacity="0.9888"/>
<stop offset="0.9987" stop-color="#FF4C00"/>
</radialGradient>
<linearGradient id="paint58_linear_2_2073" x1="40.1659" y1="15.1086" x2="36.9496" y2="16.8629" gradientUnits="userSpaceOnUse">
<stop offset="0.4927" stop-color="white"/>
<stop offset="0.5861" stop-color="#F9FAFA"/>
<stop offset="0.7161" stop-color="#E6ECEC"/>
<stop offset="0.8672" stop-color="#C9D5D6"/>
<stop offset="1" stop-color="#A9BCBE"/>
</linearGradient>
<linearGradient id="paint59_linear_2_2073" x1="37.0748" y1="17.618" x2="39.901" y2="14.7918" gradientUnits="userSpaceOnUse">
<stop stop-color="white"/>
<stop offset="0.1839" stop-color="#F9FAFA"/>
<stop offset="0.4404" stop-color="#E6ECEC"/>
<stop offset="0.7381" stop-color="#C9D5D6"/>
<stop offset="1" stop-color="#A9BCBE"/>
</linearGradient>
<linearGradient id="paint60_linear_2_2073" x1="38.0857" y1="15.3795" x2="39.782" y2="15.2341" gradientUnits="userSpaceOnUse">
<stop offset="0.00132565" stop-color="white" stop-opacity="0"/>
<stop offset="0.1876" stop-color="#F7F8F9" stop-opacity="0.093268"/>
<stop offset="0.4837" stop-color="#E0E7E7" stop-opacity="0.2415"/>
<stop offset="0.8505" stop-color="#BAC9CB" stop-opacity="0.4251"/>
<stop offset="1" stop-color="#A9BCBE" stop-opacity="0.5"/>
</linearGradient>
<linearGradient id="paint61_linear_2_2073" x1="35.2601" y1="17.325" x2="39.5637" y2="15.5382" gradientUnits="userSpaceOnUse">
<stop offset="0.00132565" stop-color="white" stop-opacity="0"/>
<stop offset="0.1894" stop-color="#FBFCFC" stop-opacity="0.0941853"/>
<stop offset="0.3776" stop-color="#EFF2F3" stop-opacity="0.1884"/>
<stop offset="0.5658" stop-color="#DBE2E3" stop-opacity="0.2826"/>
<stop offset="0.7542" stop-color="#BFCCCE" stop-opacity="0.3769"/>
<stop offset="0.941" stop-color="#9BAFB2" stop-opacity="0.4704"/>
<stop offset="1" stop-color="#8EA5A8" stop-opacity="0.5"/>
</linearGradient>
<linearGradient id="paint62_linear_2_2073" x1="36.8899" y1="11.8323" x2="35.1355" y2="15.0486" gradientUnits="userSpaceOnUse">
<stop offset="0.4927" stop-color="white"/>
<stop offset="0.5861" stop-color="#F9FAFA"/>
<stop offset="0.7161" stop-color="#E6ECEC"/>
<stop offset="0.8672" stop-color="#C9D5D6"/>
<stop offset="1" stop-color="#A9BCBE"/>
</linearGradient>
<linearGradient id="paint63_linear_2_2073" x1="36.2688" y1="14.3162" x2="36.8836" y2="12.4944" gradientUnits="userSpaceOnUse">
<stop offset="0.00132565" stop-color="white" stop-opacity="0"/>
<stop offset="0.1876" stop-color="#F7F8F9" stop-opacity="0.093268"/>
<stop offset="0.4837" stop-color="#E0E7E7" stop-opacity="0.2415"/>
<stop offset="0.8505" stop-color="#BAC9CB" stop-opacity="0.4251"/>
<stop offset="1" stop-color="#A9BCBE" stop-opacity="0.5"/>
</linearGradient>
<linearGradient id="paint64_linear_2_2073" x1="34.6192" y1="16.5253" x2="36.4952" y2="12.4221" gradientUnits="userSpaceOnUse">
<stop offset="0.00132565" stop-color="white" stop-opacity="0"/>
<stop offset="0.2202" stop-color="#FCFCFC" stop-opacity="0.1096"/>
<stop offset="0.4036" stop-color="#F1F4F4" stop-opacity="0.2014"/>
<stop offset="0.5742" stop-color="#E0E6E7" stop-opacity="0.2868"/>
<stop offset="0.737" stop-color="#C7D3D4" stop-opacity="0.3683"/>
<stop offset="0.8929" stop-color="#A8BABC" stop-opacity="0.4464"/>
<stop offset="1" stop-color="#8EA5A8" stop-opacity="0.5"/>
</linearGradient>
<linearGradient id="paint65_linear_2_2073" x1="34.5874" y1="14.9723" x2="36.6876" y2="12.3713" gradientUnits="userSpaceOnUse">
<stop stop-color="white"/>
<stop offset="0.1839" stop-color="#F9FAFA"/>
<stop offset="0.4404" stop-color="#E6ECEC"/>
<stop offset="0.7381" stop-color="#C9D5D6"/>
<stop offset="1" stop-color="#A9BCBE"/>
</linearGradient>
<linearGradient id="paint66_linear_2_2073" x1="47.5587" y1="13.8965" x2="49.5247" y2="11.9304" gradientUnits="userSpaceOnUse">
<stop stop-color="white"/>
<stop offset="0.1839" stop-color="#F9FAFA"/>
<stop offset="0.4404" stop-color="#E6ECEC"/>
<stop offset="0.7381" stop-color="#C9D5D6"/>
<stop offset="1" stop-color="#A9BCBE"/>
</linearGradient>
<linearGradient id="paint67_linear_2_2073" x1="50.8312" y1="14.3339" x2="47.9075" y2="12.4043" gradientUnits="userSpaceOnUse">
<stop stop-color="white"/>
<stop offset="0.1839" stop-color="#F9FAFA"/>
<stop offset="0.4404" stop-color="#E6ECEC"/>
<stop offset="0.7381" stop-color="#C9D5D6"/>
<stop offset="1" stop-color="#A9BCBE"/>
</linearGradient>
<linearGradient id="paint68_linear_2_2073" x1="48.6688" y1="12.8452" x2="48.9813" y2="13.1577" gradientUnits="userSpaceOnUse">
<stop stop-color="white" stop-opacity="0"/>
<stop offset="0.2965" stop-color="white"/>
<stop offset="1" stop-color="white" stop-opacity="0"/>
</linearGradient>
<linearGradient id="paint69_linear_2_2073" x1="49.5182" y1="13.603" x2="47.8906" y2="12.2483" gradientUnits="userSpaceOnUse">
<stop stop-color="#99AFB3"/>
<stop offset="0.7044" stop-color="#93A9AD" stop-opacity="0.2956"/>
<stop offset="1" stop-color="#8EA5A8" stop-opacity="0"/>
</linearGradient>
<linearGradient id="paint70_linear_2_2073" x1="46.5548" y1="10.651" x2="48.5209" y2="8.68501" gradientUnits="userSpaceOnUse">
<stop stop-color="white"/>
<stop offset="0.1839" stop-color="#F9FAFA"/>
<stop offset="0.4404" stop-color="#E6ECEC"/>
<stop offset="0.7381" stop-color="#C9D5D6"/>
<stop offset="1" stop-color="#A9BCBE"/>
</linearGradient>
<linearGradient id="paint71_linear_2_2073" x1="49.8273" y1="11.0886" x2="46.9037" y2="9.15896" gradientUnits="userSpaceOnUse">
<stop stop-color="white"/>
<stop offset="0.1839" stop-color="#F9FAFA"/>
<stop offset="0.4404" stop-color="#E6ECEC"/>
<stop offset="0.7381" stop-color="#C9D5D6"/>
<stop offset="1" stop-color="#A9BCBE"/>
</linearGradient>
<linearGradient id="paint72_linear_2_2073" x1="47.6649" y1="9.59985" x2="47.9773" y2="9.91232" gradientUnits="userSpaceOnUse">
<stop stop-color="white" stop-opacity="0"/>
<stop offset="0.2965" stop-color="white"/>
<stop offset="1" stop-color="white" stop-opacity="0"/>
</linearGradient>
<linearGradient id="paint73_linear_2_2073" x1="48.5143" y1="10.3576" x2="46.8867" y2="9.00289" gradientUnits="userSpaceOnUse">
<stop stop-color="#99AFB3"/>
<stop offset="0.7044" stop-color="#93A9AD" stop-opacity="0.2956"/>
<stop offset="1" stop-color="#8EA5A8" stop-opacity="0"/>
</linearGradient>
<linearGradient id="paint74_linear_2_2073" x1="43.8876" y1="13.8389" x2="50.4789" y2="9.05697" gradientUnits="userSpaceOnUse">
<stop offset="0.4927" stop-color="white"/>
<stop offset="0.5861" stop-color="#F9FAFA"/>
<stop offset="0.7161" stop-color="#E6ECEC"/>
<stop offset="0.8672" stop-color="#C9D5D6"/>
<stop offset="1" stop-color="#A9BCBE"/>
</linearGradient>
<linearGradient id="paint75_linear_2_2073" x1="44.7807" y1="13.0375" x2="47.1631" y2="11.949" gradientUnits="userSpaceOnUse">
<stop stop-color="#FF0000"/>
<stop offset="0.2186" stop-color="#F90402"/>
<stop offset="0.5234" stop-color="#E60E09"/>
<stop offset="0.8774" stop-color="#C92014"/>
<stop offset="1" stop-color="#BD2719"/>
</linearGradient>
<linearGradient id="paint76_linear_2_2073" x1="53.1629" y1="6.12999" x2="46.5231" y2="12.3821" gradientUnits="userSpaceOnUse">
<stop offset="0.00132565" stop-color="white" stop-opacity="0"/>
<stop offset="0.1876" stop-color="#F7F8F9" stop-opacity="0.093268"/>
<stop offset="0.4837" stop-color="#E0E7E7" stop-opacity="0.2415"/>
<stop offset="0.8505" stop-color="#BAC9CB" stop-opacity="0.4251"/>
<stop offset="1" stop-color="#A9BCBE" stop-opacity="0.5"/>
</linearGradient>
<linearGradient id="paint77_linear_2_2073" x1="42.6265" y1="12.0084" x2="49.0239" y2="11.4268" gradientUnits="userSpaceOnUse">
<stop offset="0.00132565" stop-color="white" stop-opacity="0"/>
<stop offset="0.1543" stop-color="#F7F8F9" stop-opacity="0.0765679"/>
<stop offset="0.3974" stop-color="#E0E6E7" stop-opacity="0.1983"/>
<stop offset="0.6987" stop-color="#BAC8CA" stop-opacity="0.3492"/>
<stop offset="1" stop-color="#8EA5A8" stop-opacity="0.5"/>
</linearGradient>
<linearGradient id="paint78_linear_2_2073" x1="41.3477" y1="5.44347" x2="43.3138" y2="3.47743" gradientUnits="userSpaceOnUse">
<stop stop-color="white"/>
<stop offset="0.1839" stop-color="#F9FAFA"/>
<stop offset="0.4404" stop-color="#E6ECEC"/>
<stop offset="0.7381" stop-color="#C9D5D6"/>
<stop offset="1" stop-color="#A9BCBE"/>
</linearGradient>
<linearGradient id="paint79_linear_2_2073" x1="40.9103" y1="2.17101" x2="42.8399" y2="5.09466" gradientUnits="userSpaceOnUse">
<stop stop-color="white"/>
<stop offset="0.1839" stop-color="#F9FAFA"/>
<stop offset="0.4404" stop-color="#E6ECEC"/>
<stop offset="0.7381" stop-color="#C9D5D6"/>
<stop offset="1" stop-color="#A9BCBE"/>
</linearGradient>
<linearGradient id="paint80_linear_2_2073" x1="42.3993" y1="4.33341" x2="42.0868" y2="4.02092" gradientUnits="userSpaceOnUse">
<stop stop-color="white" stop-opacity="0"/>
<stop offset="0.2965" stop-color="white"/>
<stop offset="1" stop-color="white" stop-opacity="0"/>
</linearGradient>
<linearGradient id="paint81_linear_2_2073" x1="41.6412" y1="3.4839" x2="42.996" y2="5.11155" gradientUnits="userSpaceOnUse">
<stop stop-color="#99AFB3"/>
<stop offset="0.7044" stop-color="#93A9AD" stop-opacity="0.2956"/>
<stop offset="1" stop-color="#8EA5A8" stop-opacity="0"/>
</linearGradient>
<linearGradient id="paint82_linear_2_2073" x1="38.1022" y1="4.43988" x2="40.0682" y2="2.47385" gradientUnits="userSpaceOnUse">
<stop stop-color="white"/>
<stop offset="0.1839" stop-color="#F9FAFA"/>
<stop offset="0.4404" stop-color="#E6ECEC"/>
<stop offset="0.7381" stop-color="#C9D5D6"/>
<stop offset="1" stop-color="#A9BCBE"/>
</linearGradient>
<linearGradient id="paint83_linear_2_2073" x1="37.6647" y1="1.16739" x2="39.5943" y2="4.09104" gradientUnits="userSpaceOnUse">
<stop stop-color="white"/>
<stop offset="0.1839" stop-color="#F9FAFA"/>
<stop offset="0.4404" stop-color="#E6ECEC"/>
<stop offset="0.7381" stop-color="#C9D5D6"/>
<stop offset="1" stop-color="#A9BCBE"/>
</linearGradient>
<linearGradient id="paint84_linear_2_2073" x1="39.1537" y1="3.32982" x2="38.8412" y2="3.01733" gradientUnits="userSpaceOnUse">
<stop stop-color="white" stop-opacity="0"/>
<stop offset="0.2965" stop-color="white"/>
<stop offset="1" stop-color="white" stop-opacity="0"/>
</linearGradient>
<linearGradient id="paint85_linear_2_2073" x1="38.3957" y1="2.48034" x2="39.7504" y2="4.108" gradientUnits="userSpaceOnUse">
<stop stop-color="#99AFB3"/>
<stop offset="0.7044" stop-color="#93A9AD" stop-opacity="0.2956"/>
<stop offset="1" stop-color="#8EA5A8" stop-opacity="0"/>
</linearGradient>
<linearGradient id="paint86_linear_2_2073" x1="38.1558" y1="8.1076" x2="42.9377" y2="1.51627" gradientUnits="userSpaceOnUse">
<stop offset="0.4927" stop-color="white"/>
<stop offset="0.5861" stop-color="#F9FAFA"/>
<stop offset="0.7161" stop-color="#E6ECEC"/>
<stop offset="0.8672" stop-color="#C9D5D6"/>
<stop offset="1" stop-color="#A9BCBE"/>
</linearGradient>
<linearGradient id="paint87_linear_2_2073" x1="42.9793" y1="-0.326959" x2="39.8129" y2="5.61816" gradientUnits="userSpaceOnUse">
<stop offset="0.00132565" stop-color="white" stop-opacity="0"/>
<stop offset="0.1876" stop-color="#F7F8F9" stop-opacity="0.093268"/>
<stop offset="0.4837" stop-color="#E0E7E7" stop-opacity="0.2415"/>
<stop offset="0.8505" stop-color="#BAC9CB" stop-opacity="0.4251"/>
<stop offset="1" stop-color="#A9BCBE" stop-opacity="0.5"/>
</linearGradient>
<linearGradient id="paint88_linear_2_2073" x1="39.9869" y1="9.3696" x2="40.5685" y2="2.97213" gradientUnits="userSpaceOnUse">
<stop offset="0.00132565" stop-color="white" stop-opacity="0"/>
<stop offset="0.1543" stop-color="#F7F8F9" stop-opacity="0.0765679"/>
<stop offset="0.3974" stop-color="#E0E6E7" stop-opacity="0.1983"/>
<stop offset="0.6987" stop-color="#BAC8CA" stop-opacity="0.3492"/>
<stop offset="1" stop-color="#8EA5A8" stop-opacity="0.5"/>
</linearGradient>
<linearGradient id="paint89_linear_2_2073" x1="38.9576" y1="7.21416" x2="40.046" y2="4.83183" gradientUnits="userSpaceOnUse">
<stop stop-color="#FF0000"/>
<stop offset="0.2186" stop-color="#F90402"/>
<stop offset="0.5234" stop-color="#E60E09"/>
<stop offset="0.8774" stop-color="#C92014"/>
<stop offset="1" stop-color="#BD2719"/>
</linearGradient>
<radialGradient id="paint90_radial_2_2073" cx="0" cy="0" r="1" gradientUnits="userSpaceOnUse" gradientTransform="translate(43.6717 8.11567) rotate(-44.2545) scale(10.7659 1.63392)">
<stop offset="0.4927" stop-color="white"/>
<stop offset="0.5861" stop-color="#F9FAFA"/>
<stop offset="0.7161" stop-color="#E6ECEC"/>
<stop offset="0.8672" stop-color="#C9D5D6"/>
<stop offset="1" stop-color="#A9BCBE"/>
</radialGradient>
<linearGradient id="paint91_linear_2_2073" x1="42.9023" y1="7.91417" x2="44.2064" y2="9.21827" gradientUnits="userSpaceOnUse">
<stop offset="0.00132565" stop-color="white" stop-opacity="0"/>
<stop offset="0.1876" stop-color="#F7F8F9" stop-opacity="0.093268"/>
<stop offset="0.4837" stop-color="#E0E7E7" stop-opacity="0.2415"/>
<stop offset="0.8505" stop-color="#BAC9CB" stop-opacity="0.4251"/>
<stop offset="1" stop-color="#A9BCBE" stop-opacity="0.5"/>
</linearGradient>
<linearGradient id="paint92_linear_2_2073" x1="47.2153" y1="4.78115" x2="37.9745" y2="14.0219" gradientUnits="userSpaceOnUse">
<stop offset="0.00132565" stop-color="white" stop-opacity="0"/>
<stop offset="0.1876" stop-color="#F7F8F9" stop-opacity="0.093268"/>
<stop offset="0.4837" stop-color="#E0E7E7" stop-opacity="0.2415"/>
<stop offset="0.8505" stop-color="#BAC9CB" stop-opacity="0.4251"/>
<stop offset="1" stop-color="#A9BCBE" stop-opacity="0.5"/>
</linearGradient>
<linearGradient id="paint93_linear_2_2073" x1="37.5376" y1="13.3846" x2="38.3928" y2="14.2545" gradientUnits="userSpaceOnUse">
<stop stop-color="white"/>
<stop offset="0.1839" stop-color="#F9FAFA"/>
<stop offset="0.4404" stop-color="#E6ECEC"/>
<stop offset="0.7381" stop-color="#C9D5D6"/>
<stop offset="1" stop-color="#A9BCBE"/>
</linearGradient>
<linearGradient id="paint94_linear_2_2073" x1="37.6191" y1="7.96829" x2="37.9061" y2="18.3978" gradientUnits="userSpaceOnUse">
<stop stop-color="white"/>
<stop offset="0.1839" stop-color="#F9FAFA"/>
<stop offset="0.4404" stop-color="#E6ECEC"/>
<stop offset="0.7381" stop-color="#C9D5D6"/>
<stop offset="1" stop-color="#A9BCBE"/>
</linearGradient>
<linearGradient id="paint95_linear_2_2073" x1="36.9915" y1="6.79192" x2="37.8593" y2="14.8552" gradientUnits="userSpaceOnUse">
<stop stop-color="white"/>
<stop offset="0.1839" stop-color="#F9FAFA"/>
<stop offset="0.4404" stop-color="#E6ECEC"/>
<stop offset="0.7381" stop-color="#C9D5D6"/>
<stop offset="1" stop-color="#A9BCBE"/>
</linearGradient>
<linearGradient id="paint96_linear_2_2073" x1="49.5563" y1="3.42254" x2="48.5809" y2="3.87691" gradientUnits="userSpaceOnUse">
<stop/>
<stop offset="0.1097" stop-color="#060606"/>
<stop offset="0.2626" stop-color="#161819"/>
<stop offset="0.4411" stop-color="#303636"/>
<stop offset="0.639" stop-color="#555F60"/>
<stop offset="0.8501" stop-color="#849394"/>
<stop offset="1" stop-color="#A9BCBE"/>
</linearGradient>
<linearGradient id="paint97_linear_2_2073" x1="48.4544" y1="2.27939" x2="48.4484" y2="3.40622" gradientUnits="userSpaceOnUse">
<stop/>
<stop offset="0.1097" stop-color="#060606"/>
<stop offset="0.2626" stop-color="#161819"/>
<stop offset="0.4411" stop-color="#303636"/>
<stop offset="0.639" stop-color="#555F60"/>
<stop offset="0.8501" stop-color="#849394"/>
<stop offset="1" stop-color="#A9BCBE"/>
</linearGradient>
<linearGradient id="paint98_linear_2_2073" x1="49.173" y1="2.72108" x2="48.6399" y2="3.55711" gradientUnits="userSpaceOnUse">
<stop/>
<stop offset="0.1097" stop-color="#060606"/>
<stop offset="0.2626" stop-color="#161819"/>
<stop offset="0.4411" stop-color="#303636"/>
<stop offset="0.639" stop-color="#555F60"/>
<stop offset="0.8501" stop-color="#849394"/>
<stop offset="1" stop-color="#A9BCBE"/>
</linearGradient>
<linearGradient id="paint99_linear_2_2073" x1="49.6736" y1="3.96534" x2="48.4135" y2="4.20161" gradientUnits="userSpaceOnUse">
<stop/>
<stop offset="0.1097" stop-color="#060606"/>
<stop offset="0.2626" stop-color="#161819"/>
<stop offset="0.4411" stop-color="#303636"/>
<stop offset="0.639" stop-color="#555F60"/>
<stop offset="0.8501" stop-color="#849394"/>
<stop offset="1" stop-color="#A9BCBE"/>
</linearGradient>
<linearGradient id="paint100_linear_2_2073" x1="47.8766" y1="2.17749" x2="47.9675" y2="3.37095" gradientUnits="userSpaceOnUse">
<stop/>
<stop offset="0.1097" stop-color="#060606"/>
<stop offset="0.2626" stop-color="#161819"/>
<stop offset="0.4411" stop-color="#303636"/>
<stop offset="0.639" stop-color="#555F60"/>
<stop offset="0.8501" stop-color="#849394"/>
<stop offset="1" stop-color="#A9BCBE"/>
</linearGradient>
<radialGradient id="paint101_radial_2_2073" cx="0" cy="0" r="1" gradientUnits="userSpaceOnUse" gradientTransform="translate(23.7099 6.8029) rotate(-29.408) scale(12.5142 9.92695)">
<stop offset="0.2479" stop-color="#FF0000"/>
<stop offset="0.8639" stop-color="#C20000"/>
</radialGradient>
<radialGradient id="paint102_radial_2_2073" cx="0" cy="0" r="1" gradientUnits="userSpaceOnUse" gradientTransform="translate(24.0194 6.03501) rotate(-29.408) scale(10.7743 8.54676)">
<stop offset="0.2479" stop-color="#FF0000"/>
<stop offset="1" stop-color="#C20000"/>
</radialGradient>
<radialGradient id="paint103_radial_2_2073" cx="0" cy="0" r="1" gradientUnits="userSpaceOnUse" gradientTransform="translate(23.7099 6.8029) rotate(-29.408) scale(12.5142 9.92695)">
<stop stop-color="white" stop-opacity="0.25"/>
<stop offset="1" stop-color="white" stop-opacity="0"/>
</radialGradient>
<radialGradient id="paint104_radial_2_2073" cx="0" cy="0" r="1" gradientUnits="userSpaceOnUse" gradientTransform="translate(28.2085 11.0512) rotate(-26.296) scale(9.13487 4.51392)">
<stop stop-color="#BD2719" stop-opacity="0.25"/>
<stop offset="1" stop-color="#BD2719" stop-opacity="0"/>
</radialGradient>
<radialGradient id="paint105_radial_2_2073" cx="0" cy="0" r="1" gradientUnits="userSpaceOnUse" gradientTransform="translate(21.9278 5.79426) rotate(-21.6908) scale(3.24744 2.01726)">
<stop stop-color="white"/>
<stop offset="1" stop-color="white" stop-opacity="0"/>
</radialGradient>
<radialGradient id="paint106_radial_2_2073" cx="0" cy="0" r="1" gradientUnits="userSpaceOnUse" gradientTransform="translate(28.2722 5.48937) rotate(-40.7634) scale(2.6887 1.67029)">
<stop stop-color="white"/>
<stop offset="1" stop-color="white" stop-opacity="0"/>
</radialGradient>
<linearGradient id="paint107_linear_2_2073" x1="27.6479" y1="22.9872" x2="29.1974" y2="2.09372" gradientUnits="userSpaceOnUse">
<stop stop-color="#860805"/>
<stop offset="1" stop-color="#BD2719" stop-opacity="0"/>
</linearGradient>
<radialGradient id="paint108_radial_2_2073" cx="0" cy="0" r="1" gradientUnits="userSpaceOnUse" gradientTransform="translate(8.42598 6.75787) scale(9.65096)">
<stop stop-color="#FFDF30"/>
<stop offset="1" stop-color="#FFB82E"/>
</radialGradient>
<radialGradient id="paint109_radial_2_2073" cx="0" cy="0" r="1" gradientUnits="userSpaceOnUse" gradientTransform="translate(8.42598 6.75787) scale(7.59284)">
<stop stop-color="#FFE95F"/>
<stop offset="1" stop-color="#FFBB47" stop-opacity="0"/>
</radialGradient>
<radialGradient id="paint110_radial_2_2073" cx="0" cy="0" r="1" gradientUnits="userSpaceOnUse" gradientTransform="translate(5.64154 11.9902) rotate(-2.7703) scale(3.365 2.66255)">
<stop stop-color="#FF4C00"/>
<stop offset="0.1542" stop-color="#FF4C00"/>
<stop offset="0.1795" stop-color="#FF4C00"/>
<stop offset="0.3996" stop-color="#FA4C0B" stop-opacity="0.7318"/>
<stop offset="0.7799" stop-color="#EE4B27" stop-opacity="0.2683"/>
<stop offset="1" stop-color="#E64A3A" stop-opacity="0"/>
</radialGradient>
<radialGradient id="paint111_radial_2_2073" cx="0" cy="0" r="1" gradientUnits="userSpaceOnUse" gradientTransform="translate(14.3543 11.9902) rotate(-177.23) scale(3.365 2.66255)">
<stop stop-color="#FF4C00"/>
<stop offset="0.1542" stop-color="#FF4C00"/>
<stop offset="0.1795" stop-color="#FF4C00"/>
<stop offset="0.3996" stop-color="#FA4C0B" stop-opacity="0.7318"/>
<stop offset="0.7799" stop-color="#EE4B27" stop-opacity="0.2683"/>
<stop offset="1" stop-color="#E64A3A" stop-opacity="0"/>
</radialGradient>
<linearGradient id="paint112_linear_2_2073" x1="14.2703" y1="6.91121" x2="14.461" y2="6.09009" gradientUnits="userSpaceOnUse">
<stop offset="0.00132565" stop-color="#3C2200"/>
<stop offset="1" stop-color="#7A4400"/>
</linearGradient>
<radialGradient id="paint113_radial_2_2073" cx="0" cy="0" r="1" gradientUnits="userSpaceOnUse" gradientTransform="translate(13.3161 8.56432) rotate(15.68) scale(1.43776 0.693602)">
<stop offset="0.00132565" stop-color="#7A4400"/>
<stop offset="1" stop-color="#643800"/>
</radialGradient>
<linearGradient id="paint114_linear_2_2073" x1="13.6324" y1="7.43098" x2="13.3864" y2="8.32674" gradientUnits="userSpaceOnUse">
<stop offset="0.00132565" stop-color="#3C2200"/>
<stop offset="1" stop-color="#512D00"/>
</linearGradient>
<linearGradient id="paint115_linear_2_2073" x1="5.72955" y1="6.90744" x2="5.53877" y2="6.08632" gradientUnits="userSpaceOnUse">
<stop offset="0.00132565" stop-color="#3C2200"/>
<stop offset="1" stop-color="#7A4400"/>
</linearGradient>
<radialGradient id="paint116_radial_2_2073" cx="0" cy="0" r="1" gradientUnits="userSpaceOnUse" gradientTransform="translate(6.67874 8.56749) rotate(164.32) scale(1.43776 0.693602)">
<stop offset="0.00132565" stop-color="#7A4400"/>
<stop offset="1" stop-color="#643800"/>
</radialGradient>
<linearGradient id="paint117_linear_2_2073" x1="6.36325" y1="7.42697" x2="6.60923" y2="8.32272" gradientUnits="userSpaceOnUse">
<stop offset="0.00132565" stop-color="#3C2200"/>
<stop offset="1" stop-color="#512D00"/>
</linearGradient>
<linearGradient id="paint118_linear_2_2073" x1="10" y1="12.9051" x2="10" y2="14.0994" gradientUnits="userSpaceOnUse">
<stop offset="0.00132565" stop-color="#3C2200"/>
<stop offset="1" stop-color="#512D00"/>
</linearGradient>
</defs>
</svg>
