<svg width="44" height="46" viewBox="0 0 44 46" fill="none" xmlns="http://www.w3.org/2000/svg">
<rect width="44" height="46" rx="4" fill="#F07281" fill-opacity="0.08"/>
<path d="M18.6165 11.2351L16.5406 14.5179C16.3279 14.8542 16.5696 15.2929 16.9674 15.2929H26.6233C27.0212 15.2929 27.2628 14.8542 27.0502 14.5179L24.9743 11.2351C24.8818 11.0887 24.7207 11 24.5475 11H19.0433C18.8701 11 18.709 11.0887 18.6165 11.2351Z" fill="#C85F6B"/>
<rect x="14.9141" y="14.7266" width="13.7624" height="17.8027" rx="0.505042" fill="#F07281"/>
<rect x="11" y="17.7578" width="5.80799" height="16.7295" rx="0.505042" fill="#FAD0D5"/>
<rect x="15.5454" y="17.7578" width="2.90399" height="16.7295" rx="0.505042" fill="#50262B"/>
<rect x="25.3936" y="17.7578" width="5.80799" height="14.7725" rx="0.505042" fill="#FAD0D5"/>
<rect x="29.939" y="17.8206" width="2.90399" height="16.6664" rx="0.505042" fill="#50262B"/>
<rect x="12.1362" y="20.0273" width="1.76765" height="1.76765" fill="#F07281"/>
<rect x="27.1611" y="20.0273" width="1.76765" height="1.76765" fill="#F07281"/>
<rect x="12.1362" y="22.8047" width="1.76765" height="1.76765" fill="#F07281"/>
<rect x="27.1611" y="22.8047" width="1.76765" height="1.76765" fill="#F07281"/>
<rect x="12.1362" y="25.582" width="1.76765" height="1.76765" fill="#F07281"/>
<rect x="27.1611" y="25.582" width="1.76765" height="1.76765" fill="#F07281"/>
<path d="M20.4697 27.8566C20.4697 27.5777 20.6958 27.3516 20.9748 27.3516H23.5C23.7789 27.3516 24.005 27.5777 24.005 27.8566V32.5282H20.4697V27.8566Z" fill="#FCE3E6"/>
<path d="M21.0744 21.2578V18.3487H21.4267V19.6442H22.9778V18.3487H23.3301V21.2578H22.9778V19.9567H21.4267V21.2578H21.0744Z" fill="white"/>
<path d="M17.5654 31.0129C17.5654 30.7339 17.7915 30.5078 18.0705 30.5078H26.9087C27.1876 30.5078 27.4138 30.7339 27.4138 31.0129V32.9068H17.5654V31.0129Z" fill="#F7B8C0"/>
<path d="M14.4092 32.3996C14.4092 32.1206 14.6353 31.8945 14.9142 31.8945H30.0655C30.3444 31.8945 30.5705 32.1206 30.5705 32.3996V34.4197H14.4092V32.3996Z" fill="#F0F2F5"/>
</svg>
