<svg width="35" height="35" viewBox="0 0 35 35" fill="none" xmlns="http://www.w3.org/2000/svg">
<path d="M17.4082 3.94922C16.3665 3.94922 15.9704 4.78303 16.051 6.39838C16.1046 7.46323 16.4632 10.4319 14.9603 11.9362C13.5586 13.3386 13.151 13.2141 11.5538 15.025C9.95737 16.8352 8.62666 16.4628 6.76379 16.3028C4.42359 16.1021 5.22086 29.0945 6.87022 28.8693C8.04096 28.7093 10.7024 28.3898 11.1281 28.3898C11.5538 28.3898 14.4733 30.6524 17.036 30.6796C21.1868 30.7228 23.4761 29.9871 23.4761 29.9871L24.6926 27.2262L25.0996 18.8081L23.1561 14.7584C23.1561 14.7584 20.5482 15.1844 19.8032 14.013C19.0582 12.8417 20.3889 11.4038 20.3889 8.04922C20.3889 4.69461 17.9404 3.94922 17.4082 3.94922Z" fill="url(#paint0_linear_1316_6319)"/>
<path d="M23.6211 29.964L23.463 29.3876C22.9954 29.338 22.3936 29.5509 21.5718 29.5445C17.6467 29.5141 13.8945 28.3867 12.2845 27.1115C11.2299 26.2764 10.7674 25.165 10.0224 25.4845C9.1032 25.8788 6.49531 26.4919 5.53613 25.2773C5.80447 27.3554 6.28309 28.9507 6.87007 28.8707C8.04082 28.7107 10.7022 28.3912 11.128 28.3912C11.5537 28.3912 14.3919 30.5945 17.0359 30.681C20.4565 30.7926 23.4947 30.2034 23.4947 30.2034L23.6211 29.964Z" fill="url(#paint1_linear_1316_6319)"/>
<path d="M8.42618 17.1231C9.96975 17.549 10.9502 16.8443 11.7391 15.8852C12.5228 14.9327 13.2027 14.0879 15.172 12.8101C17.1413 11.5323 16.8884 8.0176 16.7285 6.84626C16.5685 5.67492 16.6749 3.94922 17.4083 3.94922C16.3666 3.94922 15.9705 4.78303 16.0512 6.39838C16.1047 7.46323 16.4633 10.4319 14.9604 11.9363C13.5587 13.3386 13.1511 13.2141 11.554 15.025C9.9575 16.8352 8.62678 16.4628 6.76392 16.3028C6.76456 16.7068 6.8826 16.6971 8.42618 17.1231Z" fill="url(#paint2_linear_1316_6319)"/>
<path d="M19.8032 14.013C19.0582 12.8417 20.3889 11.4038 20.3889 8.04922C20.3889 4.69461 17.941 3.94922 17.4082 3.94922C17.2682 3.94922 17.1437 3.96471 17.0321 3.99439C19.2033 4.13057 20.5108 6.87014 19.7625 9.6949C19.1556 11.9872 18.853 13.8252 19.8445 14.903C20.4856 15.6006 21.7609 15.4819 23.1567 14.7584C23.1561 14.7584 20.5482 15.1844 19.8032 14.013Z" fill="url(#paint3_linear_1316_6319)"/>
<path d="M19.9496 15.209C18.6724 15.6349 15.4466 16.6372 13.0032 18.854C6.81081 24.4719 17.383 25.176 19.5664 29.9807C19.9838 30.8991 22.4233 25.1644 22.4233 25.1644L23.2122 23.8362L20.9326 17.7627L19.9496 15.209Z" fill="url(#paint4_linear_1316_6319)"/>
<path d="M20.1375 15.6953C18.8603 16.1213 13.6426 19.4655 13.6426 21.117C13.6426 25.8831 17.2561 23.5307 19.2093 29.1544C19.4795 29.9334 20.4348 30.5884 20.4348 30.5884C21.2263 29.9424 22.4241 25.1641 22.4241 25.1641L23.213 23.836L20.9334 17.7624L20.1375 15.6953Z" fill="url(#paint5_linear_1316_6319)"/>
<path d="M23.0852 30.3021L25.5299 27.5058L26.0685 15.824L19.949 15.207C18.5441 15.9634 18.3816 16.9979 18.9034 18.6591C19.1227 19.358 18.2307 19.5581 18.1732 21.5942C18.1333 23.0056 19.057 23.0121 19.057 23.4316C19.057 23.8511 18.597 23.8136 18.4442 25.0289C18.2261 26.7675 19.6813 26.801 19.6813 27.1728C19.6813 27.5445 18.8731 27.7652 18.9228 29.1824C18.986 30.9798 15.6499 30.6164 13.3942 28.9811C12.4679 28.3092 11.6597 28.2402 11.0288 28.3925C11.0682 28.3906 11.1017 28.3893 11.1269 28.3893C11.5526 28.3893 14.412 30.679 17.0348 30.679C20.1019 30.679 22.2228 30.4996 23.0852 30.3021Z" fill="url(#paint6_linear_1316_6319)"/>
<path d="M23.6478 15.9785C21.7585 15.9785 20.7207 17.8256 21.4392 19.2447C22.1578 20.6639 20.1085 22.5425 20.3214 23.4673C20.5342 24.3921 20.9071 26.7329 21.1993 27.1201C21.4921 27.5073 20.72 28.3857 20.72 28.3857L23.115 28.6787L25.3501 27.6925L25.2701 20.931L25.5094 16.6975L23.6478 15.9785Z" fill="url(#paint7_linear_1316_6319)"/>
<path d="M11.5539 15.0248C10.5167 16.2007 9.59172 16.4556 8.5603 16.4459C8.85767 16.9261 9.06472 17.4508 9.04344 17.9638C8.98732 19.3088 9.28339 20.9667 9.5098 19.2423C9.68202 17.929 10.5722 16.3059 11.6429 14.9248C11.6139 14.9577 11.5849 14.99 11.5539 15.0248Z" fill="url(#paint8_linear_1316_6319)"/>
<path d="M25.0789 14.7059C22.8451 14.6207 18.8291 14.4942 18.7394 16.8356C18.6749 18.5336 19.8785 19.0906 21.7401 19.1615C23.6017 19.2325 24.5325 19.268 25.3033 19.2971C26.0741 19.3261 28.4995 19.3119 28.5234 17.2616C28.553 14.7001 25.0789 14.7059 25.0789 14.7059Z" fill="url(#paint9_linear_1316_6319)"/>
<path d="M21.4049 23.1704C20.8063 23.153 19.028 23.6015 18.8615 24.7316C18.7306 25.6202 19.1841 26.7683 20.7315 27.0394C22.6918 27.3827 25.9583 27.5628 27.1787 27.1059C27.7237 26.9019 28.1991 26.3308 28.2243 25.4653C28.2494 24.5999 27.607 23.4337 26.2105 23.3931C24.814 23.353 24.0864 23.3743 23.2904 23.2801C22.3331 23.1678 21.8835 23.1846 21.4049 23.1704Z" fill="url(#paint10_linear_1316_6319)"/>
<path d="M20.7812 27.1191C20.1026 27.1191 19.264 27.718 19.264 28.7164C19.264 29.7148 19.5233 30.4538 20.9805 30.7332C22.4376 31.0126 24.7727 30.7732 25.6506 30.4938C26.3349 30.2756 26.5885 29.6354 26.5885 28.577C26.5885 27.5186 25.9305 27.3334 25.2119 27.3334C24.4934 27.3334 23.6213 27.4644 23.1233 27.4386C21.7326 27.365 21.4597 27.1191 20.7812 27.1191Z" fill="url(#paint11_linear_1316_6319)"/>
<path d="M24.8888 15.1789C22.9382 15.1046 19.4311 14.9917 19.3608 16.8426C19.3098 18.1849 20.3625 18.629 21.988 18.6909C23.6135 18.7529 27.8901 18.8309 27.9043 17.2104C27.9217 15.1853 24.8888 15.1789 24.8888 15.1789Z" fill="url(#paint12_linear_1316_6319)"/>
<path d="M21.5848 23.6476C21.0636 23.6327 19.6046 23.7566 19.4646 24.8363C19.3698 25.5669 19.7484 26.5053 21.0959 26.7292C22.8033 27.0132 25.6466 27.1655 26.709 26.7931C27.1831 26.6266 27.5966 26.16 27.6166 25.4507C27.6372 24.7415 26.9838 23.8722 25.7685 23.8367C24.5533 23.8012 23.9063 23.9141 23.2129 23.8354C22.3795 23.7418 22.0015 23.6592 21.5848 23.6476Z" fill="url(#paint13_linear_1316_6319)"/>
<path d="M21.0714 27.4824C20.4844 27.4824 19.7594 27.9645 19.7594 28.7686C19.7594 29.5728 19.9839 30.1678 21.2443 30.3924C22.5047 30.617 24.5243 30.4247 25.2842 30.1994C25.8757 30.0239 26.0956 29.5082 26.0956 28.6557C26.0956 27.8032 25.526 27.6547 24.9042 27.6547C24.2824 27.6547 23.5284 27.7606 23.0975 27.7393C21.8938 27.6805 21.6577 27.4824 21.0714 27.4824Z" fill="url(#paint14_linear_1316_6319)"/>
<path d="M20.7133 16.8416C20.7616 15.5664 21.7782 14.9552 23.0625 14.6738C21.0126 14.7216 18.8052 15.1049 18.7388 16.8339C18.6743 18.5318 19.8779 19.0888 21.7395 19.1598C21.9446 19.1675 22.1375 19.1753 22.3207 19.1817C21.2757 18.8758 20.6623 18.1859 20.7133 16.8416Z" fill="url(#paint15_linear_1316_6319)"/>
<path d="M20.8887 14.9062C19.696 15.167 18.7813 15.731 18.7394 16.8353C18.6859 18.2467 19.5096 18.8695 20.8583 19.0805C18.1221 17.9879 19.1038 15.2967 20.8887 14.9062Z" fill="url(#paint16_linear_1316_6319)"/>
<path d="M17.7126 28.3218C17.3972 29.0465 15.8962 29.0923 14.3597 28.4231C12.8232 27.7545 11.8337 26.6245 12.1492 25.8991C12.4646 25.1743 13.9656 25.1285 15.5021 25.7978C17.0379 26.467 18.0281 27.597 17.7126 28.3218Z" fill="url(#paint17_radial_1316_6319)"/>
<path d="M26.7522 17.1847C26.7367 18.1644 25.4273 18.629 23.9947 18.7162C22.8233 18.7872 21.5229 17.9579 21.5564 17.0008C21.59 16.0437 21.7603 15.1957 24.1946 15.2802C25.6292 15.3299 26.767 16.2276 26.7522 17.1847Z" fill="url(#paint18_radial_1316_6319)"/>
<path d="M27.0123 25.798C27.0039 27.1546 25.5132 26.8945 24.0806 26.9887C22.2641 27.1087 21.0599 26.5428 21.0592 25.585C21.0579 24.6273 21.7488 23.9297 24.1851 23.9258C25.6203 23.9239 27.0226 24.0555 27.0123 25.798Z" fill="url(#paint19_radial_1316_6319)"/>
<path d="M25.6989 29.2171C25.6919 30.3736 24.3373 30.5311 23.0536 30.5317C21.77 30.533 20.3767 29.8522 20.3761 29.0358C20.3755 28.2194 20.9928 27.6243 23.171 27.6211C24.454 27.6192 25.708 27.7315 25.6989 29.2171Z" fill="url(#paint20_radial_1316_6319)"/>
<path d="M20.5269 25.0053C20.7308 23.4609 21.9151 23.5513 23.2729 23.3912C21.71 23.2744 21.0539 23.2576 21.0539 23.2576C20.9082 23.2435 20.745 23.2428 20.5753 23.2602C20.0677 23.3719 19.4923 23.6029 19.1504 24.0366C19.0343 24.2018 18.9402 24.3967 18.8782 24.6278C18.8718 24.6613 18.8653 24.6955 18.8615 24.7304C18.7512 25.6223 19.184 26.7672 20.7314 27.0382C20.9546 27.0776 21.1952 27.1144 21.4474 27.1486C21.568 27.1641 21.6996 27.1802 21.8409 27.1983C21.879 27.2028 21.917 27.2073 21.9557 27.2118C21.1017 26.8085 20.3767 26.1405 20.5269 25.0053Z" fill="url(#paint21_linear_1316_6319)"/>
<path d="M20.9051 23.2482C20.8 23.2449 20.6884 23.2488 20.5742 23.2604C20.062 23.3734 19.4815 23.6076 19.1416 24.0484C19.0293 24.2111 18.939 24.4034 18.8784 24.6286C18.8719 24.6622 18.8674 24.6957 18.8616 24.7306C18.7049 25.6089 19.1396 26.6441 20.4916 26.9868C18.185 25.7141 19.1693 23.2495 20.9051 23.2482Z" fill="url(#paint22_linear_1316_6319)"/>
<path d="M22.248 27.3553C21.5661 27.2553 21.2862 27.1191 20.7818 27.1191C20.1032 27.1191 19.2646 27.718 19.2646 28.7164C19.2646 29.0791 19.2995 29.407 19.4124 29.6916C19.5272 29.9265 19.6942 30.1465 19.9232 30.3324C20.1748 30.508 20.5167 30.6441 20.9805 30.7332C21.292 30.7932 21.6442 30.8287 22.0132 30.8461C21.301 30.4324 20.0948 30.2098 20.3477 28.8248C20.627 27.2953 21.5397 27.5018 22.248 27.3553Z" fill="url(#paint23_linear_1316_6319)"/>
<path d="M20.7515 27.1191C20.0787 27.1366 19.2646 27.7322 19.2646 28.7158C19.2646 29.6302 19.4833 30.3272 20.6405 30.6525C18.8331 29.4909 19.413 27.5309 20.7515 27.1191Z" fill="url(#paint24_linear_1316_6319)"/>
<path d="M28.5235 17.2624C28.5261 17.0326 28.5003 16.8242 28.4519 16.6338C28.6319 17.434 27.9191 18.2291 26.0298 18.6151C24.7778 18.8706 21.4526 19.1901 19.1517 18.2763C19.6484 18.8764 20.5624 19.1165 21.7403 19.1617C23.6019 19.2327 24.5326 19.2682 25.3035 19.2972C26.0743 19.3276 28.499 19.3127 28.5235 17.2624Z" fill="url(#paint25_linear_1316_6319)"/>
<path d="M28.2241 25.4107C28.2216 24.551 27.5772 23.4326 26.2097 23.3932C24.8132 23.3532 24.0856 23.3745 23.2896 23.2803C22.333 23.1674 21.8834 23.1841 21.4048 23.1706C21.0429 23.1603 20.1502 23.2693 19.5432 23.6469C20.2257 23.8837 21.3377 24.24 22.9026 24.1399C26.6522 23.8986 27.7191 24.3523 28.2241 25.4107Z" fill="url(#paint26_linear_1316_6319)"/>
<path d="M20.6006 19.2962C19.8027 19.28 18.5352 19.7498 18.5023 21.4078C18.4694 23.0651 19.9188 23.46 20.5574 23.4729C21.1959 23.4858 23.4284 23.6382 26.1821 23.693C28.9357 23.7479 29.3047 22.2693 29.3202 21.4949C29.3357 20.7198 28.8448 19.3187 27.1883 19.2852C22.3989 19.189 20.6006 19.2962 20.6006 19.2962Z" fill="url(#paint27_linear_1316_6319)"/>
<path d="M21.0289 19.7775C20.3348 19.764 19.2344 20.1241 19.2093 21.4026C19.1835 22.6817 20.4445 22.9889 20.9992 22.9999C21.5546 23.0108 23.4955 23.1328 25.8893 23.1806C28.283 23.2283 28.601 22.0886 28.6126 21.4903C28.6249 20.8927 28.5423 19.8111 27.1019 19.7821C22.9395 19.6995 21.0289 19.7775 21.0289 19.7775Z" fill="url(#paint28_linear_1316_6319)"/>
<path d="M20.2148 21.2477C20.2948 19.5459 21.4823 19.5407 22.8227 19.2471C21.2553 19.2568 20.6006 19.2955 20.6006 19.2955C19.8027 19.2793 18.5352 19.7492 18.5023 21.4071C18.4694 23.0644 19.9188 23.4594 20.5573 23.4723C20.7876 23.4768 21.2256 23.4994 21.819 23.5291C20.934 23.1644 20.1561 22.4997 20.2148 21.2477Z" fill="url(#paint29_linear_1316_6319)"/>
<path d="M27.9179 21.4247C27.9733 22.78 26.4685 23.0349 25.0345 23.1033C23.6006 23.1717 22.0067 22.447 21.9609 21.4906C21.9151 20.5341 22.5724 19.8049 25.0055 19.6868C26.4394 19.6177 27.8469 19.6835 27.9179 21.4247Z" fill="url(#paint30_radial_1316_6319)"/>
<path d="M20.4516 19.2988C19.6543 19.3414 18.5332 19.85 18.5023 21.4072C18.4707 22.9832 19.7788 23.4175 20.4567 23.4672C17.8334 22.4082 18.6932 19.455 20.4516 19.2988Z" fill="url(#paint31_linear_1316_6319)"/>
<path d="M29.3155 21.3262C28.9698 23.7785 22.4891 23.3294 18.9872 22.8028C19.46 23.3094 20.1631 23.463 20.5572 23.4713C21.1958 23.4843 23.4283 23.6366 26.1819 23.6914C28.9356 23.7463 29.3046 22.2678 29.32 21.4933C29.3207 21.4404 29.3194 21.3843 29.3155 21.3262Z" fill="url(#paint32_linear_1316_6319)"/>
<path d="M26.0691 26.7878C24.8138 26.8433 21.4925 27.2564 19.071 25.9585C19.3413 26.4606 19.8644 26.8872 20.7307 27.0389C22.691 27.3822 25.9575 27.5623 27.1779 27.1054C27.7229 26.9014 28.1983 26.3303 28.2235 25.4648C28.1429 26.2173 27.4262 26.7278 26.0691 26.7878Z" fill="url(#paint33_linear_1316_6319)"/>
<path d="M26.4922 29.5146C25.6698 30.1406 24.2481 30.5104 22.1969 30.1639C20.93 29.9496 20.0618 29.8767 19.491 29.8612C19.7193 30.2742 20.1599 30.5776 20.9804 30.735C22.4375 31.0145 24.7725 30.775 25.6504 30.4956C26.1013 30.351 26.3645 30.0232 26.4922 29.5146Z" fill="url(#paint34_linear_1316_6319)"/>
<path d="M19.5336 27.8181C21.0533 27.2643 21.7983 28.0859 23.4244 28.0859C25.1132 28.0859 25.9182 27.4038 26.518 28.0523C26.3297 27.4541 25.7904 27.3334 25.2118 27.3334C24.4933 27.3334 23.6212 27.4644 23.1226 27.4386C21.7319 27.3657 21.4597 27.1191 20.7811 27.1191C20.3418 27.1191 19.8361 27.3702 19.5336 27.8181Z" fill="url(#paint35_linear_1316_6319)"/>
<path d="M6.87096 28.8686C8.04171 28.7085 10.7031 28.389 11.1289 28.389C7.26895 25.6288 8.9854 19.7579 10.409 16.7886C10.609 16.3717 10.7322 16.0297 10.7986 15.7393C9.51433 16.7189 8.32617 16.4362 6.76389 16.302C4.42369 16.1013 5.2216 29.0938 6.87096 28.8686Z" fill="url(#paint36_linear_1316_6319)"/>
<path d="M9.30465 26.2016C8.90537 25.6691 9.25111 26.814 9.57105 27.6395C9.84261 28.3416 7.75978 27.9266 6.16589 28.099C6.37424 28.6133 6.61226 28.9044 6.87092 28.8689C8.04166 28.7088 10.7031 28.3894 11.1288 28.3894C10.5283 27.8789 9.70328 26.734 9.30465 26.2016Z" fill="url(#paint37_linear_1316_6319)"/>
<path d="M11.1281 28.3907C10.7972 28.1086 10.398 27.6337 10.0387 27.1748C10.0387 27.1748 8.10098 28.1667 6.02332 27.7001C6.26262 28.4591 6.55031 28.9134 6.87025 28.8695C8.04164 28.7101 10.7024 28.3907 11.1281 28.3907Z" fill="url(#paint38_linear_1316_6319)"/>
<path d="M18.468 8.94785C17.7095 9.11178 17.0948 8.0637 16.7477 6.84074C16.4639 5.84042 16.8496 4.56648 17.5947 4.4232C18.3397 4.27929 19.0273 4.27283 19.4382 6.39286C19.6794 7.64164 19.2098 8.7878 18.468 8.94785Z" fill="url(#paint39_radial_1316_6319)"/>
<path d="M20.7516 27.1194C20.3342 27.1633 19.9562 27.3872 19.6963 27.6951C19.4325 28.0055 19.3093 28.4108 19.3363 28.818C19.3389 29.2278 19.4009 29.6467 19.6331 29.9784C19.8633 30.3133 20.2504 30.5127 20.6406 30.6528C20.2381 30.5618 19.8169 30.3953 19.5473 30.0423C19.2738 29.6931 19.2106 29.2381 19.197 28.8206C19.179 28.3934 19.3151 27.939 19.6163 27.6241C19.9085 27.3059 20.3304 27.111 20.7516 27.1194Z" fill="#804B24"/>
<path d="M20.082 23.4043C19.8073 23.5237 19.5538 23.687 19.3441 23.8903C19.1306 24.091 19.0171 24.3659 18.939 24.6447L18.9397 24.6402C18.8391 25.1487 18.9242 25.6902 19.2229 26.1129C19.5144 26.5414 19.9879 26.8215 20.491 26.9854C19.973 26.8854 19.4512 26.6331 19.1235 26.1832C18.9616 25.9619 18.8494 25.7031 18.7952 25.4327C18.7404 25.1623 18.7655 24.8796 18.8158 24.6156L18.8171 24.6111C18.899 24.3181 19.0448 24.0245 19.2854 23.8264C19.5157 23.6218 19.7982 23.4959 20.082 23.4043Z" fill="#804B24"/>
<path d="M20.4515 19.2988C19.9581 19.355 19.4808 19.5602 19.1408 19.9055C18.7996 20.2507 18.6151 20.7264 18.5854 21.211C18.5358 21.6938 18.6138 22.1978 18.8899 22.5986C19.1621 23.0006 19.6072 23.2704 20.0832 23.4098C19.5956 23.3207 19.1105 23.08 18.8022 22.6612C18.4874 22.2455 18.4042 21.7015 18.4461 21.1994C18.4874 20.6947 18.6854 20.1797 19.066 19.8293C19.4427 19.475 19.9542 19.304 20.4515 19.2988Z" fill="#804B24"/>
<path d="M20.8889 14.9062C20.3613 15.0508 19.8368 15.2502 19.4208 15.5929C19.0015 15.9337 18.7745 16.4597 18.8093 16.9985C18.8022 17.5335 18.977 18.0795 19.3834 18.4338C19.784 18.7927 20.3245 18.9669 20.8579 19.0805C20.3168 19.0166 19.7536 18.8811 19.3131 18.5145C18.8622 18.1531 18.6706 17.5542 18.67 16.9998C18.6409 16.4364 18.8944 15.8466 19.3537 15.5097C19.8039 15.1644 20.3503 15.0018 20.8889 14.9062Z" fill="#804B24"/>
<path d="M19.0719 25.957C19.4351 26.5863 20.133 26.9122 20.8225 27.0051C21.5243 27.1135 22.2313 27.1877 22.9402 27.2329C23.6478 27.2929 24.358 27.3304 25.0682 27.3278C25.4229 27.3233 25.7783 27.3142 26.1312 27.2794C26.484 27.251 26.8401 27.2148 27.1794 27.1032C26.5079 27.3555 25.7796 27.3955 25.0701 27.4207C24.3567 27.4388 23.6426 27.4188 22.9305 27.3723C22.2197 27.311 21.5108 27.2213 20.8077 27.0967C20.4542 27.0387 20.102 26.9289 19.7924 26.7405C19.4841 26.5501 19.2312 26.2758 19.0719 25.957Z" fill="#804B24"/>
<path d="M18.9872 22.8037C19.2594 23.0748 19.6096 23.2535 19.9754 23.3445C20.3392 23.4536 20.7217 23.4297 21.1061 23.4471L23.4018 23.5136L25.6962 23.6266C26.4574 23.673 27.2321 23.6834 27.9616 23.4336C27.2508 23.7369 26.4522 23.7614 25.6943 23.7195L23.3986 23.653L21.1042 23.5394C20.7268 23.5136 20.3302 23.5317 19.9567 23.4097C19.5877 23.2942 19.2426 23.0909 18.9872 22.8037Z" fill="#804B24"/>
<path d="M27.1881 19.2842C26.6392 19.2855 26.0896 19.301 25.5407 19.2958L23.8939 19.2991L22.2478 19.3216C21.6995 19.3249 21.15 19.3281 20.6036 19.35H20.5991C20.0592 19.341 19.4999 19.5256 19.111 19.9121C18.7143 20.2948 18.5272 20.8518 18.5021 21.4068C18.5066 21.1287 18.5363 20.8479 18.6214 20.5788C18.7078 20.3103 18.8556 20.0593 19.0562 19.8573C19.4561 19.4462 20.0327 19.2423 20.6017 19.241H20.5972C21.6969 19.1745 22.7954 19.1738 23.8939 19.1913C24.9931 19.2035 26.0909 19.2242 27.1881 19.2842Z" fill="#804B24"/>
<defs>
<linearGradient id="paint0_linear_1316_6319" x1="23.2426" y1="17.0929" x2="15.2361" y2="17.4142" gradientUnits="userSpaceOnUse">
<stop offset="0.00132565" stop-color="#FFCB4B"/>
<stop offset="1" stop-color="#FFD748"/>
</linearGradient>
<linearGradient id="paint1_linear_1316_6319" x1="14.6005" y1="28.1966" x2="14.4395" y2="23.9863" gradientUnits="userSpaceOnUse">
<stop offset="0.00132565" stop-color="#FFCB4B"/>
<stop offset="1" stop-color="#FFD748"/>
</linearGradient>
<linearGradient id="paint2_linear_1316_6319" x1="13.5744" y1="12.3454" x2="19.6059" y2="20.9688" gradientUnits="userSpaceOnUse">
<stop offset="0.00132565" stop-color="#FFCB4B"/>
<stop offset="1" stop-color="#FFD748"/>
</linearGradient>
<linearGradient id="paint3_linear_1316_6319" x1="9.20944" y1="8.90964" x2="24.6571" y2="10.0666" gradientUnits="userSpaceOnUse">
<stop offset="0.3118" stop-color="#FFBC47" stop-opacity="0"/>
<stop offset="1" stop-color="#FF8900"/>
</linearGradient>
<linearGradient id="paint4_linear_1316_6319" x1="8.91528" y1="22.6449" x2="29.2007" y2="22.6449" gradientUnits="userSpaceOnUse">
<stop stop-color="#FFBC47" stop-opacity="0"/>
<stop offset="1" stop-color="#FFA754"/>
</linearGradient>
<linearGradient id="paint5_linear_1316_6319" x1="5.64454" y1="22.6751" x2="45.7206" y2="23.9518" gradientUnits="userSpaceOnUse">
<stop stop-color="#FFBC47" stop-opacity="0"/>
<stop offset="1" stop-color="#C86F34"/>
</linearGradient>
<linearGradient id="paint6_linear_1316_6319" x1="12.0122" y1="27.9112" x2="18.6398" y2="24.3197" gradientUnits="userSpaceOnUse">
<stop stop-color="#FFBC47" stop-opacity="0"/>
<stop offset="1" stop-color="#C86F34"/>
</linearGradient>
<linearGradient id="paint7_linear_1316_6319" x1="19.6046" y1="22.813" x2="25.1312" y2="22.0872" gradientUnits="userSpaceOnUse">
<stop stop-color="#643800" stop-opacity="0"/>
<stop offset="1" stop-color="#643800"/>
</linearGradient>
<linearGradient id="paint8_linear_1316_6319" x1="9.79606" y1="10.6114" x2="10.9948" y2="30.4599" gradientUnits="userSpaceOnUse">
<stop stop-color="#FFBC47" stop-opacity="0"/>
<stop offset="1" stop-color="#FFA754"/>
</linearGradient>
<linearGradient id="paint9_linear_1316_6319" x1="28.1447" y1="16.9862" x2="20.3023" y2="16.9862" gradientUnits="userSpaceOnUse">
<stop offset="0.00132565" stop-color="#FFBC47"/>
<stop offset="1" stop-color="#FFD748"/>
</linearGradient>
<linearGradient id="paint10_linear_1316_6319" x1="28.1449" y1="25.2749" x2="20.2982" y2="25.2749" gradientUnits="userSpaceOnUse">
<stop offset="0.00132565" stop-color="#FFBC47"/>
<stop offset="1" stop-color="#FFD748"/>
</linearGradient>
<linearGradient id="paint11_linear_1316_6319" x1="28.1449" y1="28.9884" x2="20.3025" y2="28.9884" gradientUnits="userSpaceOnUse">
<stop offset="0.00132565" stop-color="#FFBC47"/>
<stop offset="1" stop-color="#FFD748"/>
</linearGradient>
<linearGradient id="paint12_linear_1316_6319" x1="19.2452" y1="17.0256" x2="23.33" y2="16.9325" gradientUnits="userSpaceOnUse">
<stop offset="0.00132565" stop-color="#FFCB4B"/>
<stop offset="1" stop-color="#FFD748"/>
</linearGradient>
<linearGradient id="paint13_linear_1316_6319" x1="26.3885" y1="25.3301" x2="22.2247" y2="25.3301" gradientUnits="userSpaceOnUse">
<stop offset="0.00132565" stop-color="#FFCB4B"/>
<stop offset="1" stop-color="#FFD748"/>
</linearGradient>
<linearGradient id="paint14_linear_1316_6319" x1="26.3886" y1="28.9876" x2="22.2248" y2="28.9876" gradientUnits="userSpaceOnUse">
<stop offset="0.00132565" stop-color="#FFCB4B"/>
<stop offset="1" stop-color="#FFD748"/>
</linearGradient>
<linearGradient id="paint15_linear_1316_6319" x1="21.3057" y1="16.9277" x2="19.0841" y2="16.9277" gradientUnits="userSpaceOnUse">
<stop offset="0.00132565" stop-color="#FBA23B" stop-opacity="0"/>
<stop offset="1" stop-color="#FBA23B"/>
</linearGradient>
<linearGradient id="paint16_linear_1316_6319" x1="20.9065" y1="16.9935" x2="18.3516" y2="16.9935" gradientUnits="userSpaceOnUse">
<stop offset="0.00132565" stop-color="#FFBC47"/>
<stop offset="1" stop-color="#E89043"/>
</linearGradient>
<radialGradient id="paint17_radial_1316_6319" cx="0" cy="0" r="1" gradientUnits="userSpaceOnUse" gradientTransform="translate(14.7217 26.5521) rotate(23.5251) scale(3.11897 1.4481)">
<stop stop-color="#FBE07A"/>
<stop offset="1" stop-color="#FFD748" stop-opacity="0"/>
</radialGradient>
<radialGradient id="paint18_radial_1316_6319" cx="0" cy="0" r="1" gradientUnits="userSpaceOnUse" gradientTransform="translate(24.1581 17.005) rotate(2.02718) scale(2.66865 1.75152)">
<stop stop-color="#FBE07A"/>
<stop offset="1" stop-color="#FFD748"/>
</radialGradient>
<radialGradient id="paint19_radial_1316_6319" cx="0" cy="0" r="1" gradientUnits="userSpaceOnUse" gradientTransform="translate(24.029 25.6061) rotate(-0.0544055) scale(2.86596 1.54497)">
<stop stop-color="#FBE07A"/>
<stop offset="1" stop-color="#FFD748" stop-opacity="0"/>
</radialGradient>
<radialGradient id="paint20_radial_1316_6319" cx="0" cy="0" r="1" gradientUnits="userSpaceOnUse" gradientTransform="translate(23.0375 29.0783) rotate(-0.0539601) scale(2.62402 1.6423)">
<stop stop-color="#FBE07A"/>
<stop offset="1" stop-color="#FFD748" stop-opacity="0"/>
</radialGradient>
<linearGradient id="paint21_linear_1316_6319" x1="21.5719" y1="25.2293" x2="18.352" y2="25.2293" gradientUnits="userSpaceOnUse">
<stop offset="0.00132565" stop-color="#FBA23B" stop-opacity="0"/>
<stop offset="1" stop-color="#FBA23B"/>
</linearGradient>
<linearGradient id="paint22_linear_1316_6319" x1="20.8877" y1="25.1169" x2="19.1533" y2="25.1169" gradientUnits="userSpaceOnUse">
<stop offset="0.00132565" stop-color="#FFBC47"/>
<stop offset="1" stop-color="#FBA23B"/>
</linearGradient>
<linearGradient id="paint23_linear_1316_6319" x1="21.4563" y1="29.0101" x2="17.6907" y2="28.3186" gradientUnits="userSpaceOnUse">
<stop offset="0.00132565" stop-color="#FBA23B" stop-opacity="0"/>
<stop offset="1" stop-color="#FBA23B"/>
</linearGradient>
<linearGradient id="paint24_linear_1316_6319" x1="21.0669" y1="28.8858" x2="19.4752" y2="28.8858" gradientUnits="userSpaceOnUse">
<stop offset="0.00132565" stop-color="#FFBC47"/>
<stop offset="1" stop-color="#FBA23B"/>
</linearGradient>
<linearGradient id="paint25_linear_1316_6319" x1="23.604" y1="16.4932" x2="24.6163" y2="21.3919" gradientUnits="userSpaceOnUse">
<stop stop-color="#FFBC47" stop-opacity="0"/>
<stop offset="1" stop-color="#C86F34"/>
</linearGradient>
<linearGradient id="paint26_linear_1316_6319" x1="24.3729" y1="26.1711" x2="23.2685" y2="22.1866" gradientUnits="userSpaceOnUse">
<stop stop-color="#FFBC47" stop-opacity="0"/>
<stop offset="1" stop-color="#C86F34"/>
</linearGradient>
<linearGradient id="paint27_linear_1316_6319" x1="28.1449" y1="21.4694" x2="20.3025" y2="21.4694" gradientUnits="userSpaceOnUse">
<stop offset="0.00132565" stop-color="#FFBC47"/>
<stop offset="1" stop-color="#FFD748"/>
</linearGradient>
<linearGradient id="paint28_linear_1316_6319" x1="19.9862" y1="21.2511" x2="25.9936" y2="21.4706" gradientUnits="userSpaceOnUse">
<stop offset="0.00132565" stop-color="#FFCB4B"/>
<stop offset="0.7382" stop-color="#FFD748"/>
<stop offset="1" stop-color="#FFCB4B"/>
</linearGradient>
<linearGradient id="paint29_linear_1316_6319" x1="22.3304" y1="21.3883" x2="17.8422" y2="21.3883" gradientUnits="userSpaceOnUse">
<stop offset="0.00132565" stop-color="#FBA23B" stop-opacity="0"/>
<stop offset="1" stop-color="#FBA23B"/>
</linearGradient>
<radialGradient id="paint30_radial_1316_6319" cx="0" cy="0" r="1" gradientUnits="userSpaceOnUse" gradientTransform="translate(24.9364 21.398) rotate(-2.73606) scale(2.93456 1.92614)">
<stop stop-color="#FBE07A"/>
<stop offset="1" stop-color="#FFD748" stop-opacity="0"/>
</radialGradient>
<linearGradient id="paint31_linear_1316_6319" x1="20.2442" y1="21.383" x2="18.8272" y2="21.383" gradientUnits="userSpaceOnUse">
<stop offset="0.00132565" stop-color="#FFBC47"/>
<stop offset="1" stop-color="#FBA23B"/>
</linearGradient>
<linearGradient id="paint32_linear_1316_6319" x1="23.9761" y1="20.9499" x2="24.8285" y2="26.3678" gradientUnits="userSpaceOnUse">
<stop stop-color="#FFBC47" stop-opacity="0"/>
<stop offset="1" stop-color="#C86F34"/>
</linearGradient>
<linearGradient id="paint33_linear_1316_6319" x1="23.3854" y1="25.1419" x2="25.5694" y2="29.8802" gradientUnits="userSpaceOnUse">
<stop stop-color="#FFBC47" stop-opacity="0"/>
<stop offset="1" stop-color="#C86F34"/>
</linearGradient>
<linearGradient id="paint34_linear_1316_6319" x1="22.9505" y1="29.3002" x2="23.2702" y2="32.2954" gradientUnits="userSpaceOnUse">
<stop stop-color="#FFBC47" stop-opacity="0"/>
<stop offset="1" stop-color="#C86F34"/>
</linearGradient>
<linearGradient id="paint35_linear_1316_6319" x1="23.0259" y1="28.8445" x2="23.0259" y2="26.6779" gradientUnits="userSpaceOnUse">
<stop stop-color="#FFBC47" stop-opacity="0"/>
<stop offset="1" stop-color="#C86F34"/>
</linearGradient>
<linearGradient id="paint36_linear_1316_6319" x1="8.39843" y1="22.8622" x2="1.60789" y2="33.1228" gradientUnits="userSpaceOnUse">
<stop stop-color="#C86F34" stop-opacity="0"/>
<stop offset="1" stop-color="#C86F34"/>
</linearGradient>
<linearGradient id="paint37_linear_1316_6319" x1="7.95009" y1="25.132" x2="9.06883" y2="30.1239" gradientUnits="userSpaceOnUse">
<stop stop-color="#FFBC47" stop-opacity="0"/>
<stop offset="1" stop-color="#C86F34"/>
</linearGradient>
<linearGradient id="paint38_linear_1316_6319" x1="8.62751" y1="26.0692" x2="8.46769" y2="32.1794" gradientUnits="userSpaceOnUse">
<stop stop-color="#FFBC47" stop-opacity="0"/>
<stop offset="1" stop-color="#C86F34"/>
</linearGradient>
<radialGradient id="paint39_radial_1316_6319" cx="0" cy="0" r="1" gradientUnits="userSpaceOnUse" gradientTransform="translate(18.1029 6.67204) rotate(79.0714) scale(2.8138 1.65065)">
<stop stop-color="#FBE07A"/>
<stop offset="1" stop-color="#FFD748" stop-opacity="0"/>
</radialGradient>
</defs>
</svg>
