<svg width="14" height="14" viewBox="0 0 14 14" fill="none" xmlns="http://www.w3.org/2000/svg">
<path d="M12.5258 1.47494C11.9015 0.850694 11.0549 0.5 10.1721 0.5C9.28923 0.5 8.44256 0.850694 7.81831 1.47494L1.47455 7.81806C0.86336 8.44499 0.523775 9.28747 0.529365 10.163C0.534955 11.0385 0.885271 11.8766 1.50442 12.4957C2.12357 13.1148 2.9617 13.465 3.83723 13.4704C4.71277 13.4759 5.55521 13.1362 6.18205 12.5249L12.5264 6.18181C13.1496 5.55709 13.4996 4.71066 13.4994 3.82824C13.4993 2.94583 13.1492 2.09949 12.5258 1.47494ZM5.47518 11.8181C5.03848 12.2548 4.44616 12.5003 3.82853 12.5003C3.21089 12.5004 2.61852 12.2551 2.18174 11.8184C1.74496 11.3817 1.49955 10.7894 1.49949 10.1717C1.49943 9.55408 1.74473 8.96171 2.18143 8.52494L4.99955 5.70681L8.2933 8.99994L5.47518 11.8181ZM11.8189 5.47494L8.99955 8.29306L5.70705 4.99994L8.5258 2.18181C8.96423 1.75351 9.55383 1.51532 10.1667 1.5189C10.7796 1.52249 11.3664 1.76755 11.7998 2.20094C12.2332 2.63433 12.4783 3.22111 12.4818 3.83401C12.4854 4.44691 12.2472 5.03651 11.8189 5.47494ZM10.8546 4.14619C10.901 4.19262 10.9379 4.24777 10.9631 4.30847C10.9882 4.36917 11.0012 4.43423 11.0012 4.49994C11.0012 4.56564 10.9882 4.63071 10.9631 4.69141C10.9379 4.75211 10.901 4.80725 10.8546 4.85369L9.35455 6.35369C9.3081 6.4001 9.25296 6.43691 9.19228 6.46201C9.1316 6.48712 9.06656 6.50002 9.0009 6.49999C8.93523 6.49996 8.87021 6.487 8.80955 6.46184C8.74889 6.43669 8.69378 6.39983 8.64737 6.35337C8.60095 6.30692 8.56414 6.25178 8.53904 6.1911C8.51394 6.13041 8.50103 6.06538 8.50106 5.99972C8.50109 5.93405 8.51405 5.86903 8.53921 5.80837C8.56437 5.74771 8.60122 5.6926 8.64768 5.64619L10.1477 4.14619C10.2414 4.05249 10.3686 3.99986 10.5011 3.99986C10.6337 3.99986 10.7608 4.05249 10.8546 4.14619Z" fill="#343330"/>
</svg>
