<svg width="34" height="35" viewBox="0 0 34 35" fill="none" xmlns="http://www.w3.org/2000/svg">
<path d="M12.3269 24.2326L13.5658 29.0335C13.7126 29.6041 13.5251 30.2154 13.0768 30.5985L12.7833 30.8512L8.79749 25.7568L10.5826 23.7354L12.3269 24.2326Z" fill="url(#paint0_linear_1316_4547)"/>
<path d="M12.6692 29.986C12.767 30.1409 12.9382 30.2468 13.1257 30.255L13.3702 30.2631C13.2887 30.3854 13.1909 30.4995 13.0768 30.6055L12.7833 30.8582L8.79749 25.7638L9.15613 25.3644L9.75931 25.291L12.6692 29.986Z" fill="url(#paint1_linear_1316_4547)"/>
<path d="M12.8647 30.2625C13.3945 29.2274 12.7914 27.4178 11.8295 24.2145C10.6965 20.4242 11.0552 23.7335 11.0552 23.7335L9.29456 25.2985C9.30271 25.2985 12.7669 30.45 12.8647 30.2625Z" fill="url(#paint2_linear_1316_4547)"/>
<path d="M12.3269 24.2326L13.5658 29.0335C13.7126 29.6041 13.5251 30.2154 13.0768 30.5985L12.7833 30.8512L8.79749 25.7568L10.5826 23.7354L12.3269 24.2326Z" fill="url(#paint3_linear_1316_4547)"/>
<path d="M10.3218 22.2265L5.52081 20.9876C4.95023 20.8409 4.33891 21.0283 3.95581 21.4767L3.70312 21.7701L8.79753 25.756L10.819 23.9709L10.3218 22.2265Z" fill="url(#paint4_linear_1316_4547)"/>
<path d="M4.28991 21.6874C5.32509 21.1576 7.13462 21.7607 10.338 22.7226C14.1282 23.8555 10.8189 23.4969 10.8189 23.4969L9.25389 25.2575C9.25389 25.2494 4.10243 21.7852 4.28991 21.6874Z" fill="url(#paint5_linear_1316_4547)"/>
<path d="M10.3218 22.2265L5.52081 20.9876C4.95023 20.8409 4.33891 21.0283 3.95581 21.4767L3.70312 21.7701L8.79753 25.756L10.819 23.9709L10.3218 22.2265Z" fill="url(#paint6_linear_1316_4547)"/>
<path d="M4.56714 21.8836C4.41227 21.7858 4.3063 21.6146 4.29815 21.4271L4.29 21.1826C4.16773 21.2641 4.05362 21.3619 3.94766 21.4761L3.70312 21.7695L8.79753 25.7554L9.19693 25.3967L9.27029 24.7935L4.56714 21.8836Z" fill="url(#paint7_linear_1316_4547)"/>
<path d="M28.2049 20.4746L26.4688 22.2108L28.2375 23.9796L29.9737 22.2434L29.9411 22.1619C29.6314 21.3794 29.0037 20.768 28.2049 20.4746Z" fill="url(#paint8_linear_1316_4547)"/>
<path d="M28.5962 20.6458L27.8381 21.4038C27.5202 21.7217 27.4143 22.1863 27.561 22.6102L27.7892 23.2541H28.156C28.4658 23.2541 28.7592 23.1319 28.9793 22.9118L29.884 22.007C29.9085 22.0559 29.9329 22.1048 29.9492 22.1619L29.9819 22.2434L28.2375 23.9796L26.4688 22.2108L28.2049 20.4746C28.3435 20.5235 28.4658 20.5806 28.5962 20.6458Z" fill="url(#paint9_linear_1316_4547)"/>
<path opacity="0.5" d="M27.3982 23.1408L29.33 21.209C29.493 21.3802 29.6397 21.5676 29.762 21.7796L27.9036 23.638L27.3982 23.1408Z" fill="url(#paint10_linear_1316_4547)"/>
<path opacity="0.75" d="M27.9767 21.5995C28.4087 21.9989 28.588 22.7895 28.4005 23.8247L28.2457 23.9796L26.4688 22.2108L28.2049 20.4746C28.3679 20.5317 28.5147 20.605 28.6614 20.6865C28.3761 20.9148 27.6751 21.3223 27.9767 21.5995Z" fill="url(#paint11_linear_1316_4547)"/>
<path d="M26.5177 15.0117L24.7815 16.7479L26.5503 18.5167L28.2864 16.7805L28.2538 16.699C27.9441 15.9246 27.3165 15.3052 26.5177 15.0117Z" fill="url(#paint12_linear_1316_4547)"/>
<path d="M26.9008 15.1927L26.1427 15.9507C25.8248 16.2686 25.7189 16.7332 25.8656 17.1571L26.0938 17.801H26.4606C26.7704 17.801 27.0638 17.6787 27.2839 17.4586L28.1886 16.5539C28.2131 16.6028 28.2375 16.6517 28.2538 16.7088L28.2864 16.7903L26.5503 18.5264L24.7815 16.7577L26.5177 15.0215C26.6562 15.0622 26.7785 15.1274 26.9008 15.1927Z" fill="url(#paint13_linear_1316_4547)"/>
<path opacity="0.5" d="M25.7109 17.6779L27.6427 15.7461C27.8058 15.9173 27.9525 16.1047 28.0747 16.3167L26.2163 18.1751L25.7109 17.6779Z" fill="url(#paint14_linear_1316_4547)"/>
<path opacity="0.75" d="M26.2896 16.1463C26.7216 16.5457 26.9009 17.3364 26.7134 18.3716L26.5586 18.5264L24.7898 16.7577L26.526 15.0215C26.689 15.0785 26.8357 15.1519 26.9824 15.2334C26.689 15.4535 25.9798 15.861 26.2896 16.1463Z" fill="url(#paint15_linear_1316_4547)"/>
<path d="M19.9643 17.0191C19.9643 17.0191 24.0317 21.4044 25.1565 24.2002L27.3247 29.5636C27.3899 29.7266 27.6018 29.7429 27.7159 29.6043C28.4088 28.6832 29.0445 27.1101 28.7593 26.026L26.5829 17.6141C25.8249 15.4296 24.8875 13.3185 23.779 11.3052L23.3714 10.5635L19.2225 15.4949L19.9643 17.0191Z" fill="url(#paint16_linear_1316_4547)"/>
<path d="M26.4528 27.379L26.4365 27.3708L25.1568 24.2082C24.0238 21.4124 19.9645 17.0271 19.9645 17.0271L19.8015 16.6766L20.5351 16.1387C23.1924 19.285 25.0915 22.2438 25.8659 24.2001C26.6402 26.1808 26.4446 27.3708 26.4528 27.379Z" fill="url(#paint17_linear_1316_4547)"/>
<path d="M23.7222 13.3018C25.4665 15.8856 28.3194 24.2894 28.3194 26.3108C28.3194 28.3241 28.1482 26.7265 27.9526 25.4957C27.7569 24.2649 25.9637 18.9341 25.222 17.6544C24.4802 16.3747 22.4995 14.3777 22.4995 14.3777L23.7222 13.3018Z" fill="url(#paint18_linear_1316_4547)"/>
<path d="M19.9643 17.0191C19.9643 17.0191 24.0317 21.4044 25.1565 24.2002L27.3247 29.5636C27.3899 29.7266 27.6018 29.7429 27.7159 29.6043C28.4088 28.6832 29.0445 27.1101 28.7593 26.026L26.5829 17.6141C25.8249 15.4296 24.8875 13.3185 23.779 11.3052L23.3714 10.5635L19.2225 15.4949L19.9643 17.0191Z" fill="url(#paint19_linear_1316_4547)"/>
<path d="M19.5407 8.03636L17.8045 9.77253L16.0358 8.00375L17.7719 6.26758L17.8535 6.30018C18.6278 6.60992 19.2473 7.23755 19.5407 8.03636Z" fill="url(#paint20_linear_1316_4547)"/>
<path d="M19.3612 7.65326L18.6032 8.41131C18.2853 8.7292 17.8207 8.83516 17.3968 8.68844L16.7529 8.46021V8.09341C16.7529 7.78367 16.8752 7.49024 17.0953 7.27016L18 6.36539C17.9511 6.34094 17.9022 6.31648 17.8451 6.30018L17.7636 6.26758L16.0275 8.00375L17.7962 9.77253L19.5324 8.03636C19.4917 7.89779 19.4265 7.77552 19.3612 7.65326Z" fill="url(#paint21_linear_1316_4547)"/>
<path opacity="0.5" d="M16.8753 8.84232L18.8071 6.91052C18.6359 6.7475 18.4484 6.60078 18.2365 6.47852L16.3781 8.33695L16.8753 8.84232Z" fill="url(#paint22_linear_1316_4547)"/>
<path opacity="0.75" d="M18.4076 8.26511C18.0082 7.8331 17.2175 7.65378 16.1823 7.84125L16.0275 7.99612L17.7962 9.7649L19.5324 8.02872C19.4754 7.8657 19.402 7.71898 19.3205 7.57227C19.1004 7.8657 18.6929 8.57485 18.4076 8.26511Z" fill="url(#paint23_linear_1316_4547)"/>
<path d="M14.0794 6.34886L12.3432 8.08503L10.5745 6.31625L12.3106 4.58008L12.3921 4.61268C13.1746 4.92242 13.786 5.55005 14.0794 6.34886Z" fill="url(#paint24_linear_1316_4547)"/>
<path d="M13.9082 5.95697L13.1502 6.71501C12.8323 7.0329 12.3677 7.13887 11.9438 6.99215L11.2999 6.76392V6.39712C11.2999 6.08738 11.4222 5.79395 11.6422 5.57387L12.547 4.6691C12.4981 4.64465 12.4492 4.6202 12.3921 4.60389L12.3106 4.57129L10.5745 6.31561L12.3432 8.08439L14.0794 6.34822C14.0305 6.20965 13.9734 6.08738 13.9082 5.95697Z" fill="url(#paint25_linear_1316_4547)"/>
<path opacity="0.5" d="M11.414 7.1558L13.3458 5.224C13.1746 5.06098 12.9871 4.91426 12.7752 4.79199L10.9167 6.65858L11.414 7.1558Z" fill="url(#paint26_linear_1316_4547)"/>
<path opacity="0.75" d="M12.9546 6.57629C12.5552 6.14428 11.7645 5.96496 10.7293 6.15244L10.5745 6.31546L12.3432 8.08423L14.0794 6.34806C14.0224 6.18504 13.949 6.03832 13.8675 5.8916C13.6393 6.17689 13.2317 6.87788 12.9546 6.57629Z" fill="url(#paint27_linear_1316_4547)"/>
<path d="M17.5355 14.5892C17.5355 14.5892 13.1502 10.5218 10.3544 9.39696L4.99105 7.22879C4.82803 7.16358 4.81173 6.95165 4.9503 6.83754C5.87952 6.15285 7.45267 5.51707 8.53676 5.80235L16.9486 7.97868C19.1331 8.73673 21.2442 9.6741 23.2575 10.7826L23.9993 11.1902L19.0679 15.3391L17.5355 14.5892Z" fill="url(#paint28_linear_1316_4547)"/>
<path d="M21.2523 10.8309C18.6685 9.07845 10.2566 6.22559 8.24328 6.22559C6.22997 6.22559 7.82757 6.39676 9.05838 6.59238C10.2892 6.78801 15.62 8.58124 16.8997 9.32298C18.1794 10.0647 20.1764 12.0454 20.1764 12.0454L21.2523 10.8309Z" fill="url(#paint29_linear_1316_4547)"/>
<path d="M17.5355 14.5892C17.5355 14.5892 13.1502 10.5218 10.3544 9.39696L4.99105 7.22879C4.82803 7.16358 4.81173 6.95165 4.9503 6.83754C5.87952 6.15285 7.45267 5.51707 8.53676 5.80235L16.9486 7.97868C19.1331 8.73673 21.2442 9.6741 23.2575 10.7826L23.9993 11.1902L19.0679 15.3391L17.5355 14.5892Z" fill="url(#paint30_linear_1316_4547)"/>
<path d="M7.17529 8.09906L7.18344 8.11536L10.346 9.39508C13.1419 10.5281 17.5271 14.5873 17.5271 14.5873L17.8776 14.7503L18.4156 14.0167C15.2693 11.3676 12.3105 9.46844 10.3542 8.69409C8.3735 7.91159 7.18344 8.10721 7.17529 8.09906Z" fill="url(#paint31_linear_1316_4547)"/>
<path d="M8.96862 25.5846C11.0308 25.6825 15.139 22.7562 16.0519 21.8433C16.9648 20.9304 27.0639 10.8394 28.4659 9.43743C29.8679 8.03545 31.1395 4.9462 30.3733 4.18001C29.6071 3.41381 26.5178 4.68537 25.1158 6.08735C23.7139 7.48933 13.6066 17.5966 12.7018 18.5014C11.797 19.4062 8.86265 23.5224 8.96862 25.5846Z" fill="url(#paint32_radial_1316_4547)"/>
<path d="M8.96862 25.5846C11.0308 25.6825 15.139 22.7562 16.0519 21.8433C16.9648 20.9304 27.0639 10.8394 28.4659 9.43743C29.8679 8.03545 31.1395 4.9462 30.3733 4.18001C29.6071 3.41381 26.5178 4.68537 25.1158 6.08735C23.7139 7.48933 13.6066 17.5966 12.7018 18.5014C11.797 19.4062 8.86265 23.5224 8.96862 25.5846Z" fill="url(#paint33_linear_1316_4547)"/>
<path d="M11.4467 23.1065C12.6286 22.7805 15.5629 20.3107 16.2639 19.6097C16.9649 18.9087 25.711 10.1626 26.7869 9.08669C27.8629 8.01075 28.197 6.95927 27.8955 6.65768C27.5939 6.35609 26.5424 6.69028 25.4664 7.76622C24.3905 8.84216 15.6444 17.5882 14.9435 18.2892C14.2425 18.9902 11.7727 21.9246 11.4467 23.1065Z" fill="url(#paint34_linear_1316_4547)"/>
<path d="M11.5118 23.9067C12.5063 22.9367 12.1313 22.415 12.1313 22.415L8.96057 25.4065C8.96057 25.4635 8.96057 25.5287 8.96057 25.5858C9.49854 25.6103 10.1669 25.4309 10.8842 25.1375C10.8924 24.8359 11.0146 24.3957 11.5118 23.9067Z" fill="url(#paint35_linear_1316_4547)"/>
<path d="M8.00671 26.547C8.35721 26.5063 9.12341 25.9112 9.30273 25.7319C9.48205 25.5526 11.4057 23.6289 11.6747 23.36C11.9518 23.0828 12.2453 22.5286 12.1311 22.4226C12.017 22.3166 11.4628 22.6101 11.1938 22.879C10.9166 23.1562 8.99299 25.0798 8.82182 25.251C8.64249 25.4303 8.03932 26.2047 8.00671 26.547Z" fill="url(#paint36_linear_1316_4547)"/>
<path d="M9.30273 25.7305C9.48205 25.5511 11.9029 23.171 11.5035 23.5297C12.0659 23.0325 12.4572 22.0951 11.8948 22.6657C11.3323 23.2281 8.00671 26.5537 8.00671 26.5537C8.34906 26.513 9.12341 25.9098 9.30273 25.7305Z" fill="url(#paint37_linear_1316_4547)"/>
<path d="M28.8083 6.46212L29.0366 6.95118L29.5582 6.91043L29.4034 6.12793L28.8083 6.46212Z" fill="url(#paint38_linear_1316_4547)"/>
<path d="M28.0911 5.75316L28.409 5.14999L27.6428 4.99512L27.6021 5.51678L28.0911 5.75316Z" fill="url(#paint39_linear_1316_4547)"/>
<path d="M29.0204 5.5484C28.9633 5.49134 28.89 5.43428 28.8166 5.38538L28.5313 5.20605L28.1971 5.83368L28.3602 5.9967L28.5558 6.19233L28.7188 6.35535L29.3301 6.01301L29.1997 5.78478C29.1508 5.69512 29.0938 5.62176 29.0204 5.5484Z" fill="url(#paint40_linear_1316_4547)"/>
<path d="M29.0611 7.08861L28.9633 7.81405L29.0529 7.78145C29.273 7.70809 29.4442 7.52876 29.5012 7.30053L29.5664 7.04785L29.0611 7.08861Z" fill="url(#paint41_linear_1316_4547)"/>
<path d="M27.5042 4.99512L27.2516 5.06033C27.0233 5.11738 26.844 5.28855 26.7706 5.50863L26.738 5.59829L27.4635 5.50048L27.5042 4.99512Z" fill="url(#paint42_linear_1316_4547)"/>
<defs>
<linearGradient id="paint0_linear_1316_4547" x1="14.073" y1="25.9973" x2="8.66377" y2="28.9478" gradientUnits="userSpaceOnUse">
<stop offset="0.4927" stop-color="white"/>
<stop offset="0.5861" stop-color="#F9FAFA"/>
<stop offset="0.7161" stop-color="#E6ECEC"/>
<stop offset="0.8672" stop-color="#C9D5D6"/>
<stop offset="1" stop-color="#A9BCBE"/>
</linearGradient>
<linearGradient id="paint1_linear_1316_4547" x1="8.87429" y1="30.2164" x2="13.6276" y2="25.4631" gradientUnits="userSpaceOnUse">
<stop stop-color="white"/>
<stop offset="0.1839" stop-color="#F9FAFA"/>
<stop offset="0.4404" stop-color="#E6ECEC"/>
<stop offset="0.7381" stop-color="#C9D5D6"/>
<stop offset="1" stop-color="#A9BCBE"/>
</linearGradient>
<linearGradient id="paint2_linear_1316_4547" x1="10.5743" y1="26.45" x2="13.4271" y2="26.2055" gradientUnits="userSpaceOnUse">
<stop offset="0.00132565" stop-color="white" stop-opacity="0"/>
<stop offset="0.1876" stop-color="#F7F8F9" stop-opacity="0.093268"/>
<stop offset="0.4837" stop-color="#E0E7E7" stop-opacity="0.2415"/>
<stop offset="0.8505" stop-color="#BAC9CB" stop-opacity="0.4251"/>
<stop offset="1" stop-color="#A9BCBE" stop-opacity="0.5"/>
</linearGradient>
<linearGradient id="paint3_linear_1316_4547" x1="5.82226" y1="29.7248" x2="13.0602" y2="26.7198" gradientUnits="userSpaceOnUse">
<stop offset="0.00132565" stop-color="white" stop-opacity="0"/>
<stop offset="0.1894" stop-color="#FBFCFC" stop-opacity="0.0941853"/>
<stop offset="0.3776" stop-color="#EFF2F3" stop-opacity="0.1884"/>
<stop offset="0.5658" stop-color="#DBE2E3" stop-opacity="0.2826"/>
<stop offset="0.7542" stop-color="#BFCCCE" stop-opacity="0.3769"/>
<stop offset="0.941" stop-color="#9BAFB2" stop-opacity="0.4704"/>
<stop offset="1" stop-color="#8EA5A8" stop-opacity="0.5"/>
</linearGradient>
<linearGradient id="paint4_linear_1316_4547" x1="8.56334" y1="20.4856" x2="5.61283" y2="25.8949" gradientUnits="userSpaceOnUse">
<stop offset="0.4927" stop-color="white"/>
<stop offset="0.5861" stop-color="#F9FAFA"/>
<stop offset="0.7161" stop-color="#E6ECEC"/>
<stop offset="0.8672" stop-color="#C9D5D6"/>
<stop offset="1" stop-color="#A9BCBE"/>
</linearGradient>
<linearGradient id="paint5_linear_1316_4547" x1="7.51875" y1="24.6613" x2="8.55261" y2="21.5974" gradientUnits="userSpaceOnUse">
<stop offset="0.00132565" stop-color="white" stop-opacity="0"/>
<stop offset="0.1876" stop-color="#F7F8F9" stop-opacity="0.093268"/>
<stop offset="0.4837" stop-color="#E0E7E7" stop-opacity="0.2415"/>
<stop offset="0.8505" stop-color="#BAC9CB" stop-opacity="0.4251"/>
<stop offset="1" stop-color="#A9BCBE" stop-opacity="0.5"/>
</linearGradient>
<linearGradient id="paint6_linear_1316_4547" x1="4.74444" y1="28.3784" x2="7.89966" y2="21.4775" gradientUnits="userSpaceOnUse">
<stop offset="0.00132565" stop-color="white" stop-opacity="0"/>
<stop offset="0.2202" stop-color="#FCFCFC" stop-opacity="0.1096"/>
<stop offset="0.4036" stop-color="#F1F4F4" stop-opacity="0.2014"/>
<stop offset="0.5742" stop-color="#E0E6E7" stop-opacity="0.2868"/>
<stop offset="0.737" stop-color="#C7D3D4" stop-opacity="0.3683"/>
<stop offset="0.8929" stop-color="#A8BABC" stop-opacity="0.4464"/>
<stop offset="1" stop-color="#8EA5A8" stop-opacity="0.5"/>
</linearGradient>
<linearGradient id="paint7_linear_1316_4547" x1="4.69098" y1="25.7659" x2="8.22311" y2="21.3916" gradientUnits="userSpaceOnUse">
<stop stop-color="white"/>
<stop offset="0.1839" stop-color="#F9FAFA"/>
<stop offset="0.4404" stop-color="#E6ECEC"/>
<stop offset="0.7381" stop-color="#C9D5D6"/>
<stop offset="1" stop-color="#A9BCBE"/>
</linearGradient>
<linearGradient id="paint8_linear_1316_4547" x1="26.5062" y1="23.9581" x2="29.8127" y2="20.6516" gradientUnits="userSpaceOnUse">
<stop stop-color="white"/>
<stop offset="0.1839" stop-color="#F9FAFA"/>
<stop offset="0.4404" stop-color="#E6ECEC"/>
<stop offset="0.7381" stop-color="#C9D5D6"/>
<stop offset="1" stop-color="#A9BCBE"/>
</linearGradient>
<linearGradient id="paint9_linear_1316_4547" x1="32.0099" y1="24.6938" x2="27.0929" y2="21.4486" gradientUnits="userSpaceOnUse">
<stop stop-color="white"/>
<stop offset="0.1839" stop-color="#F9FAFA"/>
<stop offset="0.4404" stop-color="#E6ECEC"/>
<stop offset="0.7381" stop-color="#C9D5D6"/>
<stop offset="1" stop-color="#A9BCBE"/>
</linearGradient>
<linearGradient id="paint10_linear_1316_4547" x1="28.3733" y1="22.1904" x2="28.8989" y2="22.7159" gradientUnits="userSpaceOnUse">
<stop stop-color="white" stop-opacity="0"/>
<stop offset="0.2965" stop-color="white"/>
<stop offset="1" stop-color="white" stop-opacity="0"/>
</linearGradient>
<linearGradient id="paint11_linear_1316_4547" x1="29.8018" y1="23.4645" x2="27.0644" y2="21.1861" gradientUnits="userSpaceOnUse">
<stop stop-color="#99AFB3"/>
<stop offset="0.7044" stop-color="#93A9AD" stop-opacity="0.2956"/>
<stop offset="1" stop-color="#8EA5A8" stop-opacity="0"/>
</linearGradient>
<linearGradient id="paint12_linear_1316_4547" x1="24.8179" y1="18.498" x2="28.1244" y2="15.1915" gradientUnits="userSpaceOnUse">
<stop stop-color="white"/>
<stop offset="0.1839" stop-color="#F9FAFA"/>
<stop offset="0.4404" stop-color="#E6ECEC"/>
<stop offset="0.7381" stop-color="#C9D5D6"/>
<stop offset="1" stop-color="#A9BCBE"/>
</linearGradient>
<linearGradient id="paint13_linear_1316_4547" x1="30.3216" y1="19.2354" x2="25.4045" y2="15.9901" gradientUnits="userSpaceOnUse">
<stop stop-color="white"/>
<stop offset="0.1839" stop-color="#F9FAFA"/>
<stop offset="0.4404" stop-color="#E6ECEC"/>
<stop offset="0.7381" stop-color="#C9D5D6"/>
<stop offset="1" stop-color="#A9BCBE"/>
</linearGradient>
<linearGradient id="paint14_linear_1316_4547" x1="26.685" y1="16.7303" x2="27.2105" y2="17.2558" gradientUnits="userSpaceOnUse">
<stop stop-color="white" stop-opacity="0"/>
<stop offset="0.2965" stop-color="white"/>
<stop offset="1" stop-color="white" stop-opacity="0"/>
</linearGradient>
<linearGradient id="paint15_linear_1316_4547" x1="28.1136" y1="18.0061" x2="25.3762" y2="15.7276" gradientUnits="userSpaceOnUse">
<stop stop-color="#99AFB3"/>
<stop offset="0.7044" stop-color="#93A9AD" stop-opacity="0.2956"/>
<stop offset="1" stop-color="#8EA5A8" stop-opacity="0"/>
</linearGradient>
<linearGradient id="paint16_linear_1316_4547" x1="20.3321" y1="23.8621" x2="31.4175" y2="15.8197" gradientUnits="userSpaceOnUse">
<stop offset="0.4927" stop-color="white"/>
<stop offset="0.5861" stop-color="#F9FAFA"/>
<stop offset="0.7161" stop-color="#E6ECEC"/>
<stop offset="0.8672" stop-color="#C9D5D6"/>
<stop offset="1" stop-color="#A9BCBE"/>
</linearGradient>
<linearGradient id="paint17_linear_1316_4547" x1="21.8344" y1="22.5135" x2="25.8411" y2="20.6828" gradientUnits="userSpaceOnUse">
<stop stop-color="#FF0000"/>
<stop offset="0.2186" stop-color="#F90402"/>
<stop offset="0.5234" stop-color="#E60E09"/>
<stop offset="0.8774" stop-color="#C92014"/>
<stop offset="1" stop-color="#BD2719"/>
</linearGradient>
<linearGradient id="paint18_linear_1316_4547" x1="35.9317" y1="10.8958" x2="24.7648" y2="21.4107" gradientUnits="userSpaceOnUse">
<stop offset="0.00132565" stop-color="white" stop-opacity="0"/>
<stop offset="0.1876" stop-color="#F7F8F9" stop-opacity="0.093268"/>
<stop offset="0.4837" stop-color="#E0E7E7" stop-opacity="0.2415"/>
<stop offset="0.8505" stop-color="#BAC9CB" stop-opacity="0.4251"/>
<stop offset="1" stop-color="#A9BCBE" stop-opacity="0.5"/>
</linearGradient>
<linearGradient id="paint19_linear_1316_4547" x1="18.2111" y1="20.7834" x2="28.9705" y2="19.8053" gradientUnits="userSpaceOnUse">
<stop offset="0.00132565" stop-color="white" stop-opacity="0"/>
<stop offset="0.1543" stop-color="#F7F8F9" stop-opacity="0.0765679"/>
<stop offset="0.3974" stop-color="#E0E6E7" stop-opacity="0.1983"/>
<stop offset="0.6987" stop-color="#BAC8CA" stop-opacity="0.3492"/>
<stop offset="1" stop-color="#8EA5A8" stop-opacity="0.5"/>
</linearGradient>
<linearGradient id="paint20_linear_1316_4547" x1="16.0608" y1="9.74143" x2="19.3673" y2="6.43493" gradientUnits="userSpaceOnUse">
<stop stop-color="white"/>
<stop offset="0.1839" stop-color="#F9FAFA"/>
<stop offset="0.4404" stop-color="#E6ECEC"/>
<stop offset="0.7381" stop-color="#C9D5D6"/>
<stop offset="1" stop-color="#A9BCBE"/>
</linearGradient>
<linearGradient id="paint21_linear_1316_4547" x1="15.3249" y1="4.23775" x2="18.5701" y2="9.15481" gradientUnits="userSpaceOnUse">
<stop stop-color="white"/>
<stop offset="0.1839" stop-color="#F9FAFA"/>
<stop offset="0.4404" stop-color="#E6ECEC"/>
<stop offset="0.7381" stop-color="#C9D5D6"/>
<stop offset="1" stop-color="#A9BCBE"/>
</linearGradient>
<linearGradient id="paint22_linear_1316_4547" x1="17.8292" y1="7.87359" x2="17.3037" y2="7.34803" gradientUnits="userSpaceOnUse">
<stop stop-color="white" stop-opacity="0"/>
<stop offset="0.2965" stop-color="white"/>
<stop offset="1" stop-color="white" stop-opacity="0"/>
</linearGradient>
<linearGradient id="paint23_linear_1316_4547" x1="16.5542" y1="6.44642" x2="18.8326" y2="9.18383" gradientUnits="userSpaceOnUse">
<stop stop-color="#99AFB3"/>
<stop offset="0.7044" stop-color="#93A9AD" stop-opacity="0.2956"/>
<stop offset="1" stop-color="#8EA5A8" stop-opacity="0"/>
</linearGradient>
<linearGradient id="paint24_linear_1316_4547" x1="10.6023" y1="8.05284" x2="13.9088" y2="4.74633" gradientUnits="userSpaceOnUse">
<stop stop-color="white"/>
<stop offset="0.1839" stop-color="#F9FAFA"/>
<stop offset="0.4404" stop-color="#E6ECEC"/>
<stop offset="0.7381" stop-color="#C9D5D6"/>
<stop offset="1" stop-color="#A9BCBE"/>
</linearGradient>
<linearGradient id="paint25_linear_1316_4547" x1="9.86651" y1="2.54852" x2="13.1118" y2="7.46557" gradientUnits="userSpaceOnUse">
<stop stop-color="white"/>
<stop offset="0.1839" stop-color="#F9FAFA"/>
<stop offset="0.4404" stop-color="#E6ECEC"/>
<stop offset="0.7381" stop-color="#C9D5D6"/>
<stop offset="1" stop-color="#A9BCBE"/>
</linearGradient>
<linearGradient id="paint26_linear_1316_4547" x1="12.3707" y1="6.18596" x2="11.8452" y2="5.66041" gradientUnits="userSpaceOnUse">
<stop stop-color="white" stop-opacity="0"/>
<stop offset="0.2965" stop-color="white"/>
<stop offset="1" stop-color="white" stop-opacity="0"/>
</linearGradient>
<linearGradient id="paint27_linear_1316_4547" x1="11.0958" y1="4.75649" x2="13.3743" y2="7.49392" gradientUnits="userSpaceOnUse">
<stop stop-color="#99AFB3"/>
<stop offset="0.7044" stop-color="#93A9AD" stop-opacity="0.2956"/>
<stop offset="1" stop-color="#8EA5A8" stop-opacity="0"/>
</linearGradient>
<linearGradient id="paint28_linear_1316_4547" x1="10.6924" y1="14.2207" x2="18.7348" y2="3.13523" gradientUnits="userSpaceOnUse">
<stop offset="0.4927" stop-color="white"/>
<stop offset="0.5861" stop-color="#F9FAFA"/>
<stop offset="0.7161" stop-color="#E6ECEC"/>
<stop offset="0.8672" stop-color="#C9D5D6"/>
<stop offset="1" stop-color="#A9BCBE"/>
</linearGradient>
<linearGradient id="paint29_linear_1316_4547" x1="18.8047" y1="0.0356972" x2="13.4794" y2="10.0343" gradientUnits="userSpaceOnUse">
<stop offset="0.00132565" stop-color="white" stop-opacity="0"/>
<stop offset="0.1876" stop-color="#F7F8F9" stop-opacity="0.093268"/>
<stop offset="0.4837" stop-color="#E0E7E7" stop-opacity="0.2415"/>
<stop offset="0.8505" stop-color="#BAC9CB" stop-opacity="0.4251"/>
<stop offset="1" stop-color="#A9BCBE" stop-opacity="0.5"/>
</linearGradient>
<linearGradient id="paint30_linear_1316_4547" x1="13.772" y1="16.3431" x2="14.7501" y2="5.58372" gradientUnits="userSpaceOnUse">
<stop offset="0.00132565" stop-color="white" stop-opacity="0"/>
<stop offset="0.1543" stop-color="#F7F8F9" stop-opacity="0.0765679"/>
<stop offset="0.3974" stop-color="#E0E6E7" stop-opacity="0.1983"/>
<stop offset="0.6987" stop-color="#BAC8CA" stop-opacity="0.3492"/>
<stop offset="1" stop-color="#8EA5A8" stop-opacity="0.5"/>
</linearGradient>
<linearGradient id="paint31_linear_1316_4547" x1="12.0407" y1="12.7167" x2="13.8713" y2="8.71007" gradientUnits="userSpaceOnUse">
<stop stop-color="#FF0000"/>
<stop offset="0.2186" stop-color="#F90402"/>
<stop offset="0.5234" stop-color="#E60E09"/>
<stop offset="0.8774" stop-color="#C92014"/>
<stop offset="1" stop-color="#BD2719"/>
</linearGradient>
<radialGradient id="paint32_radial_1316_4547" cx="0" cy="0" r="1" gradientUnits="userSpaceOnUse" gradientTransform="translate(19.969 14.2347) rotate(-44.2545) scale(18.1063 2.74796)">
<stop offset="0.4927" stop-color="white"/>
<stop offset="0.5861" stop-color="#F9FAFA"/>
<stop offset="0.7161" stop-color="#E6ECEC"/>
<stop offset="0.8672" stop-color="#C9D5D6"/>
<stop offset="1" stop-color="#A9BCBE"/>
</radialGradient>
<linearGradient id="paint33_linear_1316_4547" x1="18.6751" y1="13.8958" x2="20.8684" y2="16.089" gradientUnits="userSpaceOnUse">
<stop offset="0.00132565" stop-color="white" stop-opacity="0"/>
<stop offset="0.1876" stop-color="#F7F8F9" stop-opacity="0.093268"/>
<stop offset="0.4837" stop-color="#E0E7E7" stop-opacity="0.2415"/>
<stop offset="0.8505" stop-color="#BAC9CB" stop-opacity="0.4251"/>
<stop offset="1" stop-color="#A9BCBE" stop-opacity="0.5"/>
</linearGradient>
<linearGradient id="paint34_linear_1316_4547" x1="25.9288" y1="8.62595" x2="10.3876" y2="24.1672" gradientUnits="userSpaceOnUse">
<stop offset="0.00132565" stop-color="white" stop-opacity="0"/>
<stop offset="0.1876" stop-color="#F7F8F9" stop-opacity="0.093268"/>
<stop offset="0.4837" stop-color="#E0E7E7" stop-opacity="0.2415"/>
<stop offset="0.8505" stop-color="#BAC9CB" stop-opacity="0.4251"/>
<stop offset="1" stop-color="#A9BCBE" stop-opacity="0.5"/>
</linearGradient>
<linearGradient id="paint35_linear_1316_4547" x1="9.65278" y1="23.0964" x2="11.0911" y2="24.5593" gradientUnits="userSpaceOnUse">
<stop stop-color="white"/>
<stop offset="0.1839" stop-color="#F9FAFA"/>
<stop offset="0.4404" stop-color="#E6ECEC"/>
<stop offset="0.7381" stop-color="#C9D5D6"/>
<stop offset="1" stop-color="#A9BCBE"/>
</linearGradient>
<linearGradient id="paint36_linear_1316_4547" x1="9.78957" y1="13.9872" x2="10.2724" y2="31.5277" gradientUnits="userSpaceOnUse">
<stop stop-color="white"/>
<stop offset="0.1839" stop-color="#F9FAFA"/>
<stop offset="0.4404" stop-color="#E6ECEC"/>
<stop offset="0.7381" stop-color="#C9D5D6"/>
<stop offset="1" stop-color="#A9BCBE"/>
</linearGradient>
<linearGradient id="paint37_linear_1316_4547" x1="8.73405" y1="12.007" x2="10.1936" y2="25.5681" gradientUnits="userSpaceOnUse">
<stop stop-color="white"/>
<stop offset="0.1839" stop-color="#F9FAFA"/>
<stop offset="0.4404" stop-color="#E6ECEC"/>
<stop offset="0.7381" stop-color="#C9D5D6"/>
<stop offset="1" stop-color="#A9BCBE"/>
</linearGradient>
<linearGradient id="paint38_linear_1316_4547" x1="29.8659" y1="6.34092" x2="28.2255" y2="7.10509" gradientUnits="userSpaceOnUse">
<stop/>
<stop offset="0.1097" stop-color="#060606"/>
<stop offset="0.2626" stop-color="#161819"/>
<stop offset="0.4411" stop-color="#303636"/>
<stop offset="0.639" stop-color="#555F60"/>
<stop offset="0.8501" stop-color="#849394"/>
<stop offset="1" stop-color="#A9BCBE"/>
</linearGradient>
<linearGradient id="paint39_linear_1316_4547" x1="28.0129" y1="4.4188" x2="28.0027" y2="6.31391" gradientUnits="userSpaceOnUse">
<stop/>
<stop offset="0.1097" stop-color="#060606"/>
<stop offset="0.2626" stop-color="#161819"/>
<stop offset="0.4411" stop-color="#303636"/>
<stop offset="0.639" stop-color="#555F60"/>
<stop offset="0.8501" stop-color="#849394"/>
<stop offset="1" stop-color="#A9BCBE"/>
</linearGradient>
<linearGradient id="paint40_linear_1316_4547" x1="29.2215" y1="5.16069" x2="28.3249" y2="6.56675" gradientUnits="userSpaceOnUse">
<stop/>
<stop offset="0.1097" stop-color="#060606"/>
<stop offset="0.2626" stop-color="#161819"/>
<stop offset="0.4411" stop-color="#303636"/>
<stop offset="0.639" stop-color="#555F60"/>
<stop offset="0.8501" stop-color="#849394"/>
<stop offset="1" stop-color="#A9BCBE"/>
</linearGradient>
<linearGradient id="paint41_linear_1316_4547" x1="30.0634" y1="7.25234" x2="27.9441" y2="7.64971" gradientUnits="userSpaceOnUse">
<stop/>
<stop offset="0.1097" stop-color="#060606"/>
<stop offset="0.2626" stop-color="#161819"/>
<stop offset="0.4411" stop-color="#303636"/>
<stop offset="0.639" stop-color="#555F60"/>
<stop offset="0.8501" stop-color="#849394"/>
<stop offset="1" stop-color="#A9BCBE"/>
</linearGradient>
<linearGradient id="paint42_linear_1316_4547" x1="27.0411" y1="4.24741" x2="27.1939" y2="6.2546" gradientUnits="userSpaceOnUse">
<stop/>
<stop offset="0.1097" stop-color="#060606"/>
<stop offset="0.2626" stop-color="#161819"/>
<stop offset="0.4411" stop-color="#303636"/>
<stop offset="0.639" stop-color="#555F60"/>
<stop offset="0.8501" stop-color="#849394"/>
<stop offset="1" stop-color="#A9BCBE"/>
</linearGradient>
</defs>
</svg>
