<svg width="34" height="35" viewBox="0 0 34 35" fill="none" xmlns="http://www.w3.org/2000/svg">
<path opacity="0.15" d="M8.76758 32.4672C8.76758 32.7459 9.61662 33.0133 11.1279 33.2104C12.6392 33.4075 14.689 33.5183 16.8263 33.5183C18.9636 33.5183 21.0134 33.4075 22.5247 33.2104C24.036 33.0133 24.885 32.7459 24.885 32.4672C24.885 32.1884 24.036 31.921 22.5247 31.7239C21.0134 31.5268 18.9636 31.416 16.8263 31.416C14.689 31.416 12.6392 31.5268 11.1279 31.7239C9.61662 31.921 8.76758 32.1884 8.76758 32.4672V32.4672Z" fill="#45413C"/>
<path d="M16.8277 8.94508C16.8277 7.08655 17.5659 5.30415 18.8801 3.98997C20.1943 2.6758 21.9767 1.9375 23.8352 1.9375C28.7405 1.9375 30.8428 6.8428 30.8428 10.697C30.8428 20.907 21.1513 27.4591 17.8858 29.3792C17.5662 29.5637 17.2037 29.6608 16.8347 29.6608C16.4656 29.6608 16.1031 29.5637 15.7835 29.3792C12.504 27.4591 2.8125 20.907 2.8125 10.697C2.8125 6.82178 4.91477 1.9375 9.82008 1.9375C10.7403 1.9375 11.6516 2.11876 12.5018 2.47092C13.352 2.82308 14.1245 3.33926 14.7752 3.98997C15.4259 4.64068 15.9421 5.41319 16.2942 6.26339C16.6464 7.11359 16.8277 8.02483 16.8277 8.94508V8.94508Z" fill="#FF6242"/>
<path d="M9.4697 5.44129C10.8941 5.44 12.2882 5.85258 13.4825 6.62888C14.6768 7.40517 15.6199 8.51173 16.197 9.81401C16.2544 9.93249 16.3439 10.0324 16.4555 10.1023C16.567 10.1722 16.696 10.2093 16.8277 10.2093C16.9593 10.2093 17.0883 10.1722 17.1998 10.1023C17.3114 10.0324 17.401 9.93249 17.4583 9.81401C18.0354 8.51173 18.9785 7.40517 20.1728 6.62888C21.3671 5.85258 22.7612 5.44 24.1856 5.44129C27.6894 5.44129 29.8337 7.81686 30.8428 10.6129C30.8428 6.75871 28.7405 1.9375 23.8352 1.9375C21.9767 1.9375 20.1943 2.6758 18.8801 3.98997C17.5659 5.30415 16.8277 7.08655 16.8277 8.94508C16.8277 8.02483 16.6464 7.11359 16.2942 6.26339C15.9421 5.41319 15.4259 4.64068 14.7752 3.98997C14.1245 3.33926 13.352 2.82308 12.5018 2.47092C11.6516 2.11876 10.7403 1.9375 9.82008 1.9375C4.94981 1.9375 2.8125 6.75871 2.8125 10.6129C3.82159 7.81686 5.96591 5.44129 9.4697 5.44129Z" fill="#FF866E"/>
<path d="M16.8277 8.94508C16.8277 7.08655 17.5659 5.30415 18.8801 3.98997C20.1943 2.6758 21.9767 1.9375 23.8352 1.9375C28.7405 1.9375 30.8428 6.8428 30.8428 10.697C30.8428 20.907 21.1513 27.4591 17.8858 29.3792C17.5662 29.5637 17.2037 29.6608 16.8347 29.6608C16.4656 29.6608 16.1031 29.5637 15.7835 29.3792C12.504 27.4591 2.8125 20.907 2.8125 10.697C2.8125 6.82178 4.91477 1.9375 9.82008 1.9375C10.7403 1.9375 11.6516 2.11876 12.5018 2.47092C13.352 2.82308 14.1245 3.33926 14.7752 3.98997C15.4259 4.64068 15.9421 5.41319 16.2942 6.26339C16.6464 7.11359 16.8277 8.02483 16.8277 8.94508V8.94508Z" stroke="#45413C" stroke-width="1.2013" stroke-linecap="round" stroke-linejoin="round"/>
</svg>
