<svg width="18" height="16" viewBox="0 0 18 16" fill="none" xmlns="http://www.w3.org/2000/svg">
<path d="M15.875 0.269531H2.12502C1.7935 0.269531 1.47556 0.401227 1.24114 0.635648C1.00672 0.870068 0.875023 1.18801 0.875023 1.51953V14.0195C0.873581 14.2579 0.941012 14.4916 1.06921 14.6926C1.19741 14.8935 1.38092 15.0532 1.59768 15.1523C1.76286 15.2293 1.94281 15.2692 2.12502 15.2695C2.41846 15.2688 2.70217 15.1642 2.9258 14.9742C2.92953 14.9718 2.93294 14.9689 2.93596 14.9656L5.44534 12.7695H15.875C16.2065 12.7695 16.5245 12.6378 16.7589 12.4034C16.9933 12.169 17.125 11.8511 17.125 11.5195V1.51953C17.125 1.18801 16.9933 0.870068 16.7589 0.635648C16.5245 0.401227 16.2065 0.269531 15.875 0.269531ZM15.875 11.5195H5.44534C5.15098 11.5194 4.86601 11.6231 4.64065 11.8125L4.63127 11.8211L2.12502 14.0195V1.51953H15.875V11.5195Z" fill="#343330"/>
</svg>
