<svg width="14" height="14" viewBox="0 0 14 14" fill="none" xmlns="http://www.w3.org/2000/svg">
<path d="M7 0.5C5.71442 0.5 4.45772 0.881218 3.3888 1.59545C2.31988 2.30968 1.48676 3.32484 0.994786 4.51256C0.502816 5.70028 0.374095 7.00721 0.624899 8.26809C0.875703 9.52896 1.49477 10.6872 2.40381 11.5962C3.31285 12.5052 4.47104 13.1243 5.73192 13.3751C6.99279 13.6259 8.29973 13.4972 9.48744 13.0052C10.6752 12.5132 11.6903 11.6801 12.4046 10.6112C13.1188 9.54229 13.5 8.28558 13.5 7C13.4982 5.27665 12.8128 3.62441 11.5942 2.40582C10.3756 1.18722 8.72335 0.50182 7 0.5ZM9.35375 8.64625C9.40021 8.69271 9.43706 8.74786 9.4622 8.80855C9.48734 8.86925 9.50028 8.9343 9.50028 9C9.50028 9.0657 9.48734 9.13075 9.4622 9.19145C9.43706 9.25214 9.40021 9.30729 9.35375 9.35375C9.3073 9.40021 9.25215 9.43705 9.19145 9.4622C9.13075 9.48734 9.0657 9.50028 9 9.50028C8.93431 9.50028 8.86925 9.48734 8.80855 9.4622C8.74786 9.43705 8.69271 9.40021 8.64625 9.35375L7 7.70687L5.35375 9.35375C5.3073 9.40021 5.25215 9.43705 5.19145 9.4622C5.13075 9.48734 5.0657 9.50028 5 9.50028C4.93431 9.50028 4.86925 9.48734 4.80855 9.4622C4.74786 9.43705 4.69271 9.40021 4.64625 9.35375C4.5998 9.30729 4.56295 9.25214 4.53781 9.19145C4.51266 9.13075 4.49972 9.0657 4.49972 9C4.49972 8.9343 4.51266 8.86925 4.53781 8.80855C4.56295 8.74786 4.5998 8.69271 4.64625 8.64625L6.29313 7L4.64625 5.35375C4.55243 5.25993 4.49972 5.13268 4.49972 5C4.49972 4.86732 4.55243 4.74007 4.64625 4.64625C4.74007 4.55243 4.86732 4.49972 5 4.49972C5.13268 4.49972 5.25993 4.55243 5.35375 4.64625L7 6.29313L8.64625 4.64625C8.69271 4.59979 8.74786 4.56294 8.80855 4.5378C8.86925 4.51266 8.93431 4.49972 9 4.49972C9.0657 4.49972 9.13075 4.51266 9.19145 4.5378C9.25215 4.56294 9.3073 4.59979 9.35375 4.64625C9.40021 4.6927 9.43706 4.74786 9.4622 4.80855C9.48734 4.86925 9.50028 4.9343 9.50028 5C9.50028 5.0657 9.48734 5.13075 9.4622 5.19145C9.43706 5.25214 9.40021 5.3073 9.35375 5.35375L7.70688 7L9.35375 8.64625Z" fill="#D42620"/>
</svg>
