<svg width="17" height="16" viewBox="0 0 17 16" fill="none" xmlns="http://www.w3.org/2000/svg">
<path d="M8.50032 5C8.89588 5 9.28256 4.8827 9.61146 4.66294C9.94036 4.44318 10.1967 4.13082 10.3481 3.76537C10.4995 3.39992 10.5391 2.99778 10.4619 2.60982C10.3847 2.22186 10.1942 1.86549 9.91453 1.58579C9.63483 1.30608 9.27846 1.1156 8.8905 1.03843C8.50254 0.96126 8.10041 1.00087 7.73495 1.15224C7.3695 1.30362 7.05715 1.55996 6.83738 1.88886C6.61762 2.21776 6.50032 2.60444 6.50032 3C6.50032 3.53043 6.71103 4.03914 7.08611 4.41421C7.46118 4.78929 7.96989 5 8.50032 5ZM8.50032 2C8.6981 2 8.89144 2.05865 9.05589 2.16853C9.22034 2.27841 9.34851 2.43459 9.4242 2.61732C9.49989 2.80004 9.51969 3.00111 9.48111 3.19509C9.44252 3.38907 9.34728 3.56726 9.20743 3.70711C9.06758 3.84696 8.88939 3.9422 8.69541 3.98079C8.50143 4.01937 8.30036 3.99957 8.11764 3.92388C7.93491 3.84819 7.77873 3.72002 7.66885 3.55557C7.55897 3.39112 7.50032 3.19778 7.50032 3C7.50032 2.73478 7.60568 2.48043 7.79321 2.29289C7.98075 2.10536 8.23511 2 8.50032 2ZM14.9291 8.2575C14.8953 8.31399 14.8506 8.36324 14.7978 8.40244C14.7449 8.44163 14.6848 8.47 14.6209 8.48591C14.557 8.50182 14.4906 8.50496 14.4255 8.49515C14.3604 8.48535 14.2979 8.46278 14.2416 8.42875C14.2197 8.41563 12.0472 7.14188 8.99907 7.01188V9.3125L12.8741 13.6706C12.9177 13.7199 12.9511 13.7772 12.9725 13.8394C12.9939 13.9016 13.0029 13.9674 12.9989 14.033C12.9949 14.0986 12.978 14.1628 12.9492 14.222C12.9204 14.2811 12.8802 14.3339 12.8309 14.3775C12.7817 14.4211 12.7244 14.4545 12.6622 14.476C12.6 14.4974 12.5342 14.5063 12.4686 14.5023C12.4029 14.4983 12.3387 14.4814 12.2796 14.4526C12.2205 14.4238 12.1677 14.3836 12.1241 14.3344L8.50032 10.25L4.87532 14.3319C4.83174 14.3811 4.77888 14.4213 4.71977 14.4501C4.66066 14.4789 4.59645 14.4958 4.53082 14.4998C4.46518 14.5038 4.39939 14.4949 4.33721 14.4735C4.27504 14.452 4.21769 14.4186 4.16845 14.375C4.1192 14.3314 4.07902 14.2786 4.0502 14.2195C4.02138 14.1603 4.00449 14.0961 4.00048 14.0305C3.99648 13.9649 4.00544 13.8991 4.02686 13.8369C4.04828 13.7747 4.08174 13.7174 4.12532 13.6681L8.00032 9.3125V7.01125C4.93782 7.14125 2.78032 8.415 2.75782 8.42875C2.70149 8.46335 2.63887 8.48645 2.57356 8.49669C2.50825 8.50693 2.44156 8.50412 2.37734 8.48842C2.31313 8.47272 2.25266 8.44444 2.19945 8.40522C2.14623 8.366 2.10133 8.31662 2.06732 8.25993C2.03331 8.20324 2.01089 8.14037 2.00134 8.07495C1.99179 8.00954 1.99531 7.94288 2.01168 7.87884C2.02806 7.81479 2.05698 7.75463 2.09676 7.70184C2.13654 7.64904 2.1864 7.60465 2.24345 7.57125C2.35032 7.50688 4.90345 6 8.50032 6C12.0972 6 14.6503 7.50688 14.7578 7.57125C14.8141 7.60505 14.8632 7.64962 14.9023 7.70241C14.9414 7.7552 14.9697 7.81517 14.9856 7.8789C15.0015 7.94262 15.0047 8.00886 14.995 8.07382C14.9853 8.13879 14.9629 8.2012 14.9291 8.2575Z" fill="white"/>
</svg>
