<svg width="16" height="16" viewBox="0 0 16 16" fill="none" xmlns="http://www.w3.org/2000/svg">
<path d="M1.5 10.5V3.5C1.5 3.23478 1.60536 2.98043 1.79289 2.79289C1.98043 2.60536 2.23478 2.5 2.5 2.5H13.5C13.7652 2.5 14.0196 2.60536 14.2071 2.79289C14.3946 2.98043 14.5 3.23478 14.5 3.5V10.5C14.5 10.6326 14.4473 10.7598 14.3536 10.8536C14.2598 10.9473 14.1326 11 14 11C13.8674 11 13.7402 10.9473 13.6464 10.8536C13.5527 10.7598 13.5 10.6326 13.5 10.5V3.5H2.5V10.5C2.5 10.6326 2.44732 10.7598 2.35355 10.8536C2.25979 10.9473 2.13261 11 2 11C1.86739 11 1.74021 10.9473 1.64645 10.8536C1.55268 10.7598 1.5 10.6326 1.5 10.5ZM15.5 12.5C15.5 12.6326 15.4473 12.7598 15.3536 12.8536C15.2598 12.9473 15.1326 13 15 13H1C0.867392 13 0.740215 12.9473 0.646447 12.8536C0.552678 12.7598 0.5 12.6326 0.5 12.5C0.5 12.3674 0.552678 12.2402 0.646447 12.1464C0.740215 12.0527 0.867392 12 1 12H7V10.5C7 10.3674 7.05268 10.2402 7.14645 10.1464C7.24021 10.0527 7.36739 10 7.5 10H11.5C11.6326 10 11.7598 10.0527 11.8536 10.1464C11.9473 10.2402 12 10.3674 12 10.5V12H15C15.1326 12 15.2598 12.0527 15.3536 12.1464C15.4473 12.2402 15.5 12.3674 15.5 12.5ZM8 12H11V11H8V12Z" fill="white"/>
</svg>
