<svg width="20" height="18" viewBox="0 0 20 18" fill="none" xmlns="http://www.w3.org/2000/svg">
<path d="M17.75 3.75H2.75C2.55109 3.75 2.36032 3.67098 2.21967 3.53033C2.07902 3.38968 2 3.19891 2 3C2 2.80109 2.07902 2.61032 2.21967 2.46967C2.36032 2.32902 2.55109 2.25 2.75 2.25H15.5C15.6989 2.25 15.8897 2.17098 16.0303 2.03033C16.171 1.88968 16.25 1.69891 16.25 1.5C16.25 1.30109 16.171 1.11032 16.0303 0.96967C15.8897 0.829018 15.6989 0.75 15.5 0.75H2.75C2.15326 0.75 1.58097 0.987053 1.15901 1.40901C0.737053 1.83097 0.5 2.40326 0.5 3V15C0.5 15.5967 0.737053 16.169 1.15901 16.591C1.58097 17.0129 2.15326 17.25 2.75 17.25H17.75C18.1478 17.25 18.5294 17.092 18.8107 16.8107C19.092 16.5294 19.25 16.1478 19.25 15.75V5.25C19.25 4.85218 19.092 4.47064 18.8107 4.18934C18.5294 3.90804 18.1478 3.75 17.75 3.75ZM17.75 15.75H2.75C2.55109 15.75 2.36032 15.671 2.21967 15.5303C2.07902 15.3897 2 15.1989 2 15V5.12156C2.24082 5.20693 2.4945 5.25037 2.75 5.25H17.75V15.75ZM13.25 10.125C13.25 9.9025 13.316 9.68499 13.4396 9.49998C13.5632 9.31498 13.7389 9.17078 13.9445 9.08564C14.15 9.00049 14.3762 8.97821 14.5945 9.02162C14.8127 9.06502 15.0132 9.17217 15.1705 9.32951C15.3278 9.48684 15.435 9.68729 15.4784 9.90552C15.5218 10.1238 15.4995 10.35 15.4144 10.5555C15.3292 10.7611 15.185 10.9368 15 11.0604C14.815 11.184 14.5975 11.25 14.375 11.25C14.0766 11.25 13.7905 11.1315 13.5795 10.9205C13.3685 10.7095 13.25 10.4234 13.25 10.125Z" fill="#98A2B3"/>
</svg>
