<?xml version="1.0" encoding="UTF-8"?>
<svg xmlns="http://www.w3.org/2000/svg" xmlns:xlink="http://www.w3.org/1999/xlink" width="50px" height="50px" viewBox="0 0 50 50" version="1.1">
<g id="surface1">
<path style=" stroke:none;fill-rule:nonzero;fill:rgb(0%,0%,0%);fill-opacity:1;" d="M 46.960938 14.453125 L 46.382812 11.179688 C 45.957031 8.757812 43.691406 7 40.996094 7 C 40.632812 7 40.269531 7.035156 39.910156 7.097656 L 4.757812 13.292969 C 1.683594 13.835938 -0.421875 16.550781 0.0703125 19.347656 L 0.109375 19.566406 L 0.109375 37.617188 C 0.109375 40.585938 2.773438 43 6.046875 43 L 44.0625 43 C 47.335938 43 50 40.585938 50 37.617188 L 50 19.148438 C 50 17.132812 48.773438 15.378906 46.960938 14.453125 Z M 40.4375 10.101562 C 40.625 10.070312 40.8125 10.054688 40.996094 10.054688 C 42.207031 10.054688 43.207031 10.75 43.378906 11.710938 L 43.742188 13.765625 L 19.660156 13.765625 Z M 46.949219 37.617188 C 46.949219 38.902344 45.65625 39.945312 44.0625 39.945312 L 6.046875 39.945312 C 4.457031 39.945312 3.164062 38.902344 3.164062 37.617188 L 3.164062 19.148438 C 3.164062 17.863281 4.457031 16.816406 6.046875 16.816406 L 44.0625 16.816406 C 45.65625 16.816406 46.949219 17.863281 46.949219 19.148438 Z M 46.949219 37.617188 "/>
<path style=" stroke:none;fill-rule:nonzero;fill:rgb(0%,0%,0%);fill-opacity:1;" d="M 13.671875 29.695312 L 16.722656 29.695312 L 16.722656 32.320312 L 13.671875 32.320312 Z M 13.671875 29.695312 "/>
<path style=" stroke:none;fill-rule:nonzero;fill:rgb(0%,0%,0%);fill-opacity:1;" d="M 13.671875 34.949219 L 16.722656 34.949219 L 16.722656 37.574219 L 13.671875 37.574219 Z M 13.671875 34.949219 "/>
<path style=" stroke:none;fill-rule:nonzero;fill:rgb(0%,0%,0%);fill-opacity:1;" d="M 13.671875 19.191406 L 16.722656 19.191406 L 16.722656 21.816406 L 13.671875 21.816406 Z M 13.671875 19.191406 "/>
<path style=" stroke:none;fill-rule:nonzero;fill:rgb(0%,0%,0%);fill-opacity:1;" d="M 13.671875 24.441406 L 16.722656 24.441406 L 16.722656 27.070312 L 13.671875 27.070312 Z M 13.671875 24.441406 "/>
<path style=" stroke:none;fill-rule:nonzero;fill:rgb(0%,0%,0%);fill-opacity:1;" d="M 36.933594 22.765625 L 34.71875 25.128906 L 27.699219 23.027344 L 26.511719 24.214844 C 26.382812 24.34375 26.382812 24.554688 26.511719 24.683594 L 32.207031 27.816406 L 29.34375 30.730469 L 27.128906 30.277344 L 26.390625 31.015625 C 26.292969 31.113281 26.292969 31.273438 26.390625 31.371094 L 30.570312 35.550781 C 30.667969 35.648438 30.824219 35.648438 30.921875 35.546875 L 31.664062 34.808594 L 31.199219 32.554688 L 34.101562 29.695312 L 37.253906 35.425781 C 37.382812 35.554688 37.59375 35.554688 37.726562 35.425781 L 38.910156 34.242188 L 36.792969 27.175781 L 39.140625 24.976562 C 39.789062 24.332031 39.816406 23.3125 39.207031 22.699219 C 38.597656 22.089844 37.578125 22.117188 36.933594 22.765625 Z M 36.933594 22.765625 "/>
</g>
</svg>
