<svg width="14" height="16" viewBox="0 0 14 16" fill="none" xmlns="http://www.w3.org/2000/svg">
<path d="M12.0625 1.25H10.9375V0.6875C10.9375 0.538316 10.8782 0.395242 10.7727 0.289752C10.6673 0.184263 10.5242 0.125 10.375 0.125C10.2258 0.125 10.0827 0.184263 9.97725 0.289752C9.87176 0.395242 9.8125 0.538316 9.8125 0.6875V1.25H7.5625V0.6875C7.5625 0.538316 7.50324 0.395242 7.39775 0.289752C7.29226 0.184263 7.14918 0.125 7 0.125C6.85082 0.125 6.70774 0.184263 6.60225 0.289752C6.49676 0.395242 6.4375 0.538316 6.4375 0.6875V1.25H4.1875V0.6875C4.1875 0.538316 4.12824 0.395242 4.02275 0.289752C3.91726 0.184263 3.77418 0.125 3.625 0.125C3.47582 0.125 3.33274 0.184263 3.22725 0.289752C3.12176 0.395242 3.0625 0.538316 3.0625 0.6875V1.25H1.9375C1.63913 1.25 1.35298 1.36853 1.142 1.5795C0.931026 1.79048 0.8125 2.07663 0.8125 2.375V13.0625C0.8125 13.6592 1.04955 14.2315 1.47151 14.6535C1.89347 15.0754 2.46576 15.3125 3.0625 15.3125H10.9375C11.5342 15.3125 12.1065 15.0754 12.5285 14.6535C12.9504 14.2315 13.1875 13.6592 13.1875 13.0625V2.375C13.1875 2.07663 13.069 1.79048 12.858 1.5795C12.647 1.36853 12.3609 1.25 12.0625 1.25ZM9.25 10.8125H4.75C4.60082 10.8125 4.45774 10.7532 4.35225 10.6477C4.24676 10.5423 4.1875 10.3992 4.1875 10.25C4.1875 10.1008 4.24676 9.95774 4.35225 9.85225C4.45774 9.74676 4.60082 9.6875 4.75 9.6875H9.25C9.39918 9.6875 9.54226 9.74676 9.64775 9.85225C9.75324 9.95774 9.8125 10.1008 9.8125 10.25C9.8125 10.3992 9.75324 10.5423 9.64775 10.6477C9.54226 10.7532 9.39918 10.8125 9.25 10.8125ZM9.25 8.5625H4.75C4.60082 8.5625 4.45774 8.50324 4.35225 8.39775C4.24676 8.29226 4.1875 8.14918 4.1875 8C4.1875 7.85082 4.24676 7.70774 4.35225 7.60225C4.45774 7.49676 4.60082 7.4375 4.75 7.4375H9.25C9.39918 7.4375 9.54226 7.49676 9.64775 7.60225C9.75324 7.70774 9.8125 7.85082 9.8125 8C9.8125 8.14918 9.75324 8.29226 9.64775 8.39775C9.54226 8.50324 9.39918 8.5625 9.25 8.5625Z" fill="#0D6EFD"/>
</svg>
