<svg width="17" height="16" viewBox="0 0 17 16" fill="none" xmlns="http://www.w3.org/2000/svg">
<path d="M15.5 11.5002H15V3.61899L15.6044 3.48899C15.67 3.47669 15.7324 3.45138 15.7881 3.41455C15.8438 3.37773 15.8915 3.33013 15.9285 3.27457C15.9654 3.21901 15.9909 3.15661 16.0034 3.09105C16.0159 3.02549 16.0151 2.9581 16.0011 2.89284C15.9871 2.82758 15.9602 2.76578 15.922 2.71108C15.8838 2.65638 15.835 2.60989 15.7785 2.57435C15.722 2.53881 15.659 2.51494 15.5931 2.50414C15.5272 2.49335 15.4599 2.49585 15.395 2.51149L1.395 5.51149C1.27439 5.53752 1.16766 5.60722 1.09535 5.70719C1.02303 5.80716 0.990233 5.93035 1.00326 6.05304C1.01629 6.17574 1.07423 6.28928 1.16593 6.37184C1.25763 6.45439 1.37661 6.50012 1.5 6.50024C1.5355 6.50018 1.5709 6.49641 1.60563 6.48899L2 6.40462V11.5002H1.5C1.36739 11.5002 1.24021 11.5529 1.14645 11.6467C1.05268 11.7405 1 11.8676 1 12.0002C1 12.1328 1.05268 12.26 1.14645 12.3538C1.24021 12.4476 1.36739 12.5002 1.5 12.5002H15.5C15.6326 12.5002 15.7598 12.4476 15.8536 12.3538C15.9473 12.26 16 12.1328 16 12.0002C16 11.8676 15.9473 11.7405 15.8536 11.6467C15.7598 11.5529 15.6326 11.5002 15.5 11.5002ZM3 6.18774L14 3.83337V11.5002H12.5V8.00024C12.5 7.86763 12.4473 7.74046 12.3536 7.64669C12.2598 7.55292 12.1326 7.50024 12 7.50024H5C4.86739 7.50024 4.74021 7.55292 4.64645 7.64669C4.55268 7.74046 4.5 7.86763 4.5 8.00024V11.5002H3V6.18774ZM11.5 9.50024H5.5V8.50024H11.5V9.50024ZM5.5 10.5002H11.5V11.5002H5.5V10.5002Z" fill="#343330"/>
</svg>
