<svg width="18" height="20" viewBox="0 0 18 20" fill="none" xmlns="http://www.w3.org/2000/svg">
<path d="M17.7946 14.4944C17.2743 13.5981 16.5009 11.0622 16.5009 7.75C16.5009 5.76088 15.7107 3.85322 14.3042 2.4467C12.8976 1.04018 10.99 0.25 9.00087 0.25C7.01174 0.25 5.10409 1.04018 3.69757 2.4467C2.29104 3.85322 1.50087 5.76088 1.50087 7.75C1.50087 11.0631 0.726492 13.5981 0.206179 14.4944C0.0733076 14.7222 0.00286746 14.9811 0.00196197 15.2449C0.00105647 15.5086 0.0697178 15.768 0.201022 15.9967C0.332325 16.2255 0.521629 16.4156 0.74984 16.5478C0.978052 16.6801 1.2371 16.7498 1.50087 16.75H5.3268C5.49984 17.5967 5.96001 18.3577 6.62949 18.9042C7.29897 19.4507 8.13666 19.7492 9.00087 19.7492C9.86508 19.7492 10.7028 19.4507 11.3722 18.9042C12.0417 18.3577 12.5019 17.5967 12.6749 16.75H16.5009C16.7646 16.7496 17.0235 16.6798 17.2516 16.5475C17.4796 16.4151 17.6688 16.225 17.8 15.9963C17.9312 15.7676 17.9998 15.5083 17.9988 15.2446C17.9979 14.9809 17.9274 14.7222 17.7946 14.4944ZM9.00087 18.25C8.5357 18.2499 8.08201 18.1055 7.70224 17.8369C7.32247 17.5683 7.0353 17.1886 6.88024 16.75H11.1215C10.9664 17.1886 10.6793 17.5683 10.2995 17.8369C9.91973 18.1055 9.46604 18.2499 9.00087 18.25Z" fill="#0D6EFD"/>
</svg>
