<svg width="16" height="16" viewBox="0 0 16 16" fill="none" xmlns="http://www.w3.org/2000/svg">
<path d="M14.25 0.5H4.25C3.91848 0.5 3.60054 0.631696 3.36612 0.866116C3.1317 1.10054 3 1.41848 3 1.75V3H1.75C1.41848 3 1.10054 3.1317 0.866116 3.36612C0.631696 3.60054 0.5 3.91848 0.5 4.25V14.25C0.5 14.5815 0.631696 14.8995 0.866116 15.1339C1.10054 15.3683 1.41848 15.5 1.75 15.5H11.75C12.0815 15.5 12.3995 15.3683 12.6339 15.1339C12.8683 14.8995 13 14.5815 13 14.25V13H14.25C14.5815 13 14.8995 12.8683 15.1339 12.6339C15.3683 12.3995 15.5 12.0815 15.5 11.75V1.75C15.5 1.41848 15.3683 1.10054 15.1339 0.866116C14.8995 0.631696 14.5815 0.5 14.25 0.5ZM4.25 1.75H14.25V7.17031L12.9453 5.86562C12.7109 5.63138 12.3931 5.4998 12.0617 5.4998C11.7303 5.4998 11.4125 5.63138 11.1781 5.86562L5.29453 11.75H4.25V1.75ZM11.75 14.25H1.75V4.25H3V11.75C3 12.0815 3.1317 12.3995 3.36612 12.6339C3.60054 12.8683 3.91848 13 4.25 13H11.75V14.25ZM14.25 11.75H7.0625L12.0625 6.75L14.25 8.9375V11.75ZM7.375 6.75C7.74584 6.75 8.10835 6.64003 8.41669 6.43401C8.72504 6.22798 8.96536 5.93514 9.10727 5.59253C9.24919 5.24992 9.28632 4.87292 9.21397 4.50921C9.14163 4.14549 8.96305 3.8114 8.70083 3.54917C8.4386 3.28695 8.10451 3.10837 7.74079 3.03603C7.37708 2.96368 7.00008 3.00081 6.65747 3.14273C6.31486 3.28464 6.02202 3.52496 5.81599 3.83331C5.60997 4.14165 5.5 4.50416 5.5 4.875C5.5 5.37228 5.69754 5.84919 6.04917 6.20083C6.40081 6.55246 6.87772 6.75 7.375 6.75ZM7.375 4.25C7.49861 4.25 7.61945 4.28666 7.72223 4.35533C7.82501 4.42401 7.90512 4.52162 7.95243 4.63582C7.99973 4.75003 8.01211 4.87569 7.98799 4.99693C7.96388 5.11817 7.90435 5.22953 7.81694 5.31694C7.72953 5.40435 7.61817 5.46388 7.49693 5.48799C7.37569 5.51211 7.25003 5.49973 7.13582 5.45243C7.02162 5.40512 6.92401 5.32501 6.85533 5.22223C6.78666 5.11945 6.75 4.99861 6.75 4.875C6.75 4.70924 6.81585 4.55027 6.93306 4.43306C7.05027 4.31585 7.20924 4.25 7.375 4.25Z" fill="#101928"/>
</svg>
