<svg width="144" height="88" viewBox="0 0 144 88" fill="none" xmlns="http://www.w3.org/2000/svg">
<path d="M137.192 36.3008H6.85474V125H137.192V36.3008Z" fill="#86B7FE"/>
<path d="M25.035 56.7734H10.5012V64.1171H25.035V56.7734Z" fill="#CFE2FF"/>
<path d="M108.205 50.043H93.6709V57.3866H108.205V50.043Z" fill="#CFE2FF"/>
<path d="M72.6739 69.6211H58.1401V76.9647H72.6739V69.6211Z" fill="#CFE2FF"/>
<path d="M134.451 86.3477H119.917V93.6913H134.451V86.3477Z" fill="#CFE2FF"/>
<path d="M13.8647 70.8438H6.86401V78.1874H13.8647V70.8438Z" fill="#CFE2FF"/>
<path d="M137.141 70.8438H130.145V78.1874H137.141V70.8438Z" fill="#CFE2FF"/>
<path d="M137.192 44.3345L6.85474 45.967V36.3008H137.192V44.3345Z" fill="#CFE2FF"/>
<path d="M141.499 41.4826H2.54913L0.0522461 25.4531H143.996L141.499 41.4826Z" fill="#F0F2F5"/>
<path d="M116.153 0.015625H27.8949L0.0522461 25.4685H144L116.153 0.015625Z" fill="#E4E7EC"/>
<path d="M2.54816 41.4826H20.6106V25.4531H0.0512695L2.54816 41.4826Z" fill="#0022B0"/>
<path d="M61.7574 25.4531H41.1462V41.4826H61.7574V25.4531Z" fill="#0022B0"/>
<path d="M102.9 25.4531H82.2886V41.4826H102.9V25.4531Z" fill="#0022B0"/>
<path d="M123.43 25.4531V41.4826H141.498L143.994 25.4531H123.43Z" fill="#0022B0"/>
<path d="M116.153 0.015625H114.956C111.913 0.058459 103.97 0.148886 103.522 0.015625H103.518L123.427 25.4162H143.939L116.148 0.015625H116.153Z" fill="#0054E4"/>
<path d="M78.3083 0L82.2892 25.4148H102.9L90.9341 0H78.3083Z" fill="#0054E4"/>
<path d="M41.1472 25.4148H61.7536L65.7298 0H53.104L41.1472 25.4148Z" fill="#0054E4"/>
<path d="M0 25.4148H20.6111L40.525 0H27.8992L0 25.4148Z" fill="#0054E4"/>
<path d="M6.65186 19.3654C11.6833 20.3696 17.2754 21.3691 23.1172 22.2257L30.1273 13.2782C26.0664 12.1693 21.9818 10.7938 17.8879 9.13281L6.65186 19.3701V19.3654Z" fill="#CFE2FF"/>
<path d="M45.4339 16.3016L41.698 24.245C48.7128 24.7066 55.6287 24.759 61.9511 24.1783L63.044 17.1726C57.3248 17.3106 51.4359 17.0536 45.4339 16.2969V16.3016Z" fill="#CFE2FF"/>
<path d="M80.7388 15.5312L81.5397 20.6475C87.0941 19.2768 92.7945 17.6301 98.396 15.8548L96.6105 12.0664C91.6356 13.4371 86.3214 14.6364 80.7388 15.5312Z" fill="#CFE2FF"/>
<path d="M120.082 3.60938C116.972 5.00386 113.486 6.45546 109.67 7.86422L112.266 11.172C116.308 9.72512 120.157 8.28304 123.7 6.91711L120.082 3.60938Z" fill="#CFE2FF"/>
<path d="M53.7017 53.3047H19.7864V124.999H53.7017V53.3047Z" fill="#444463"/>
<path d="M50.6773 56.1641H22.8064V89.032H50.6773V56.1641Z" fill="#9FDAFF"/>
<path d="M49.1417 89.0273L50.6776 84.9771V56.8828L29.5388 89.0273H49.1417Z" fill="#C2EBFF"/>
<path d="M19.692 65.0312C19.1926 65.0312 18.7827 65.4453 18.7827 65.9498V72.4368C18.7827 72.9413 19.1926 73.3553 19.692 73.3553C20.1913 73.3553 20.6012 72.9413 20.6012 72.4368V65.9498C20.6012 65.4453 20.1913 65.0312 19.692 65.0312Z" fill="#55557C"/>
<path d="M129.607 53.3047H65.814V107.961H129.607V53.3047Z" fill="#444463"/>
<path d="M126.512 55.9531H68.9094V105.307H126.512V55.9531Z" fill="#9FDAFF"/>
<path d="M70.167 105.311H95.3856L118.437 55.957H108.28L70.167 105.311Z" fill="#C2EBFF"/>
<path d="M124.675 55.957H120.713L102.052 105.311H108.865L124.675 55.957Z" fill="#C2EBFF"/>
</svg>
