<svg width="29" height="28" viewBox="0 0 29 28" fill="none" xmlns="http://www.w3.org/2000/svg">
<path d="M25.4399 11.7152H24.5002V11.6668H14.0002V16.3335H20.5936C19.6317 19.0501 17.0469 21.0002 14.0002 21.0002C10.1344 21.0002 7.00016 17.8659 7.00016 14.0002C7.00016 10.1344 10.1344 7.00016 14.0002 7.00016C15.7846 7.00016 17.408 7.67333 18.6441 8.77291L21.944 5.473C19.8603 3.53108 17.0732 2.3335 14.0002 2.3335C7.55725 2.3335 2.3335 7.55725 2.3335 14.0002C2.3335 20.4431 7.55725 25.6668 14.0002 25.6668C20.4431 25.6668 25.6668 20.4431 25.6668 14.0002C25.6668 13.2179 25.5863 12.4543 25.4399 11.7152Z" fill="#FFC107"/>
<path d="M3.67871 8.56991L7.51179 11.381C8.54896 8.81316 11.0608 7.00016 14.0002 7.00016C15.7846 7.00016 17.408 7.67333 18.6441 8.77291L21.944 5.473C19.8604 3.53108 17.0732 2.3335 14.0002 2.3335C9.51904 2.3335 5.63288 4.86341 3.67871 8.56991Z" fill="#FF3D00"/>
<path d="M14 25.6666C17.0135 25.6666 19.7517 24.5133 21.8219 22.6379L18.2111 19.5824C17.0004 20.5031 15.521 21.0011 14 20.9999C10.9655 20.9999 8.38894 19.065 7.41827 16.3647L3.61377 19.296C5.5446 23.0742 9.46577 25.6666 14 25.6666Z" fill="#4CAF50"/>
<path d="M25.4398 11.7149H24.5V11.6665H14V16.3332H20.5934C20.1333 17.6261 19.3045 18.7559 18.2093 19.5829L18.2111 19.5818L21.8219 22.6373C21.5664 22.8694 25.6667 19.8332 25.6667 13.9998C25.6667 13.2176 25.5862 12.454 25.4398 11.7149Z" fill="#1976D2"/>
</svg>
