<?xml version="1.0" encoding="UTF-8"?>
<svg xmlns="http://www.w3.org/2000/svg" xmlns:xlink="http://www.w3.org/1999/xlink" width="29px" height="29px" viewBox="0 0 29 28" version="1.1">
<g id="surface1">
<path style=" stroke:none;fill-rule:nonzero;fill:rgb(0%,0%,0%);fill-opacity:1;" d="M 14.101562 23.613281 L 11.628906 21.949219 L 10.613281 21.820312 L 12.113281 26.992188 C 12.328125 27.726562 13.117188 28.152344 13.875 27.949219 C 14.636719 27.742188 15.078125 26.980469 14.867188 26.25 Z M 14.101562 23.613281 "/>
<path style=" stroke:none;fill-rule:nonzero;fill:rgb(0%,0%,0%);fill-opacity:1;" d="M 8.375 5.613281 C 8.375 6.929688 7.269531 7.996094 5.90625 7.996094 C 4.546875 7.996094 3.441406 6.929688 3.441406 5.613281 C 3.441406 4.296875 4.546875 3.230469 5.90625 3.230469 C 7.269531 3.230469 8.375 4.296875 8.375 5.613281 Z M 8.375 5.613281 "/>
<path style=" stroke:none;fill-rule:nonzero;fill:rgb(0%,0%,0%);fill-opacity:1;" d="M 17.816406 21.40625 L 13.402344 18.433594 C 13.214844 18.308594 13 18.226562 12.769531 18.195312 L 7.125 17.484375 C 7.363281 17.949219 8.082031 19.054688 7.195312 20.277344 L 12.054688 20.886719 L 16.179688 23.667969 C 16.828125 24.105469 17.71875 23.953125 18.167969 23.328125 C 18.621094 22.703125 18.464844 21.84375 17.816406 21.40625 Z M 17.816406 21.40625 "/>
<path style=" stroke:none;fill-rule:nonzero;fill:rgb(0%,0%,0%);fill-opacity:1;" d="M 26.4375 0 L 9.339844 0 C 9.214844 0 9.105469 0.078125 9.070312 0.195312 C 9.035156 0.3125 9.082031 0.4375 9.1875 0.5 L 10.003906 1 L 9.914062 6.171875 L 7.691406 8.546875 L 4.742188 8.839844 C 3.828125 8.929688 3.160156 9.71875 3.253906 10.605469 L 3.339844 11.421875 L 4.671875 10.117188 L 2.125 14.195312 C 1.925781 14.527344 1.910156 14.933594 2.085938 15.28125 L 4.21875 19.484375 C 4.511719 20.0625 5.230469 20.285156 5.8125 20.011719 C 6.40625 19.730469 6.644531 19.042969 6.355469 18.472656 L 4.542969 14.90625 L 6.828125 11.128906 L 5.835938 14.542969 L 5.761719 14.796875 L 6.984375 17.203125 L 10.265625 16.925781 L 9.53125 10.011719 L 11.980469 7.390625 C 12.175781 7.183594 12.285156 6.914062 12.289062 6.636719 L 12.347656 2.488281 C 12.71875 2.824219 12.996094 3.246094 13.148438 3.722656 L 14.148438 6.886719 C 14.28125 7.316406 14.523438 7.707031 14.847656 8.027344 L 18.277344 11.421875 C 18.84375 11.980469 19.140625 12.742188 19.097656 13.519531 L 18.824219 18.707031 C 18.796875 19.234375 18.925781 19.761719 19.195312 20.222656 L 21.582031 24.316406 C 21.867188 24.808594 22.300781 25.203125 22.824219 25.453125 L 26.171875 27.050781 C 26.359375 27.140625 26.578125 27.128906 26.753906 27.023438 C 26.929688 26.917969 27.035156 26.734375 27.035156 26.53125 L 27.035156 0.578125 C 27.035156 0.257812 26.769531 0 26.4375 0 Z M 26.4375 0 "/>
</g>
</svg>
