<svg width="16" height="11" viewBox="0 0 16 11" fill="none" xmlns="http://www.w3.org/2000/svg">
<path d="M14.0001 10.5C14.0001 10.6326 13.9474 10.7598 13.8536 10.8536C13.7599 10.9473 13.6327 11 13.5001 11H4.50007C4.36746 11 4.24029 10.9473 4.14652 10.8536C4.05275 10.7598 4.00007 10.6326 4.00007 10.5C4.00007 10.3674 4.05275 10.2402 4.14652 10.1464C4.24029 10.0527 4.36746 10 4.50007 10H13.5001C13.6327 10 13.7599 10.0527 13.8536 10.1464C13.9474 10.2402 14.0001 10.3674 14.0001 10.5ZM15.5001 5.5V7C15.5001 7.13261 15.4474 7.25979 15.3536 7.35355C15.2599 7.44732 15.1327 7.5 15.0001 7.5H3.81695C3.27868 7.50247 2.75417 7.33005 2.32236 7.00869C1.89054 6.68734 1.57477 6.23443 1.42257 5.71813L0.543196 2.7875C0.498395 2.63825 0.489094 2.4806 0.516035 2.32711C0.542976 2.17363 0.605413 2.02857 0.698366 1.9035C0.791319 1.77843 0.912214 1.67681 1.05141 1.60675C1.1906 1.5367 1.34424 1.50014 1.50007 1.5H2.00007C2.1325 1.50006 2.2595 1.55266 2.3532 1.64625L3.70757 3H5.1132L4.5507 1.31625C4.50057 1.16587 4.4869 1.00573 4.51083 0.849036C4.53476 0.69234 4.5956 0.543577 4.68833 0.415016C4.78105 0.286455 4.90302 0.181779 5.04415 0.109621C5.18529 0.0374624 5.34156 -0.000110587 5.50007 2.44484e-07H6.00007C6.06575 -5.1403e-05 6.1308 0.0128379 6.1915 0.0379319C6.25219 0.063026 6.30735 0.0998331 6.35382 0.14625L9.20757 3H13.0001C13.6631 3 14.299 3.26339 14.7678 3.73223C15.2367 4.20107 15.5001 4.83696 15.5001 5.5ZM14.5001 5.5C14.5001 5.10218 14.342 4.72064 14.0607 4.43934C13.7794 4.15804 13.3979 4 13.0001 4H9.00007C8.86764 3.99994 8.74064 3.94734 8.64695 3.85375L5.7932 1H5.50007L6.2807 3.34188C6.30574 3.41699 6.31258 3.49698 6.30066 3.57525C6.28875 3.65353 6.25841 3.72785 6.21215 3.79211C6.1659 3.85637 6.10504 3.90873 6.03459 3.94487C5.96415 3.98101 5.88612 3.99991 5.80695 4H3.50007C3.43439 4.00005 3.36934 3.98716 3.30865 3.96207C3.24795 3.93697 3.19279 3.90017 3.14632 3.85375L1.7932 2.5H1.50007L2.37945 5.43125C2.47088 5.74111 2.6605 6.01287 2.91976 6.20563C3.17902 6.39839 3.49389 6.50169 3.81695 6.5H14.5001V5.5Z" fill="#343330"/>
</svg>
