<svg width="24" height="24" viewBox="0 0 24 24" fill="none" xmlns="http://www.w3.org/2000/svg">
<path d="M5.27273 16.3337C4.92121 16.3337 4.62121 16.2103 4.37273 15.9635C4.12424 15.7168 4 15.4188 4 15.0698C4 14.7207 4.12424 14.4228 4.37273 14.176C4.62121 13.9293 4.92121 13.8059 5.27273 13.8059C5.33333 13.8059 5.39394 13.8089 5.45455 13.8149C5.51515 13.8209 5.59394 13.836 5.69091 13.86L9.32727 10.2489C9.30303 10.1526 9.28788 10.0744 9.28182 10.0142C9.27576 9.95403 9.27273 9.89384 9.27273 9.83366C9.27273 9.48458 9.39697 9.18667 9.64545 8.93991C9.89394 8.69315 10.1939 8.56977 10.5455 8.56977C10.897 8.56977 11.197 8.69315 11.4455 8.93991C11.6939 9.18667 11.8182 9.48458 11.8182 9.83366C11.8182 9.85773 11.8 9.99616 11.7636 10.2489L13.7636 12.235C13.8606 12.211 13.9394 12.1959 14 12.1899C14.0606 12.1839 14.1212 12.1809 14.1818 12.1809C14.2424 12.1809 14.303 12.1839 14.3636 12.1899C14.4242 12.1959 14.503 12.211 14.6 12.235L17.5091 9.34616C17.4848 9.24986 17.4697 9.17162 17.4636 9.11144C17.4576 9.05125 17.4545 8.99107 17.4545 8.93088C17.4545 8.58181 17.5788 8.28389 17.8273 8.03713C18.0758 7.79037 18.3758 7.66699 18.7273 7.66699C19.0788 7.66699 19.3788 7.79037 19.6273 8.03713C19.8758 8.28389 20 8.58181 20 8.93088C20 9.27996 19.8758 9.57787 19.6273 9.82463C19.3788 10.0714 19.0788 10.1948 18.7273 10.1948C18.6667 10.1948 18.6061 10.1918 18.5455 10.1857C18.4848 10.1797 18.4061 10.1647 18.3091 10.1406L15.4 13.0295C15.4242 13.1258 15.4394 13.204 15.4455 13.2642C15.4515 13.3244 15.4545 13.3846 15.4545 13.4448C15.4545 13.7938 15.3303 14.0918 15.0818 14.3385C14.8333 14.5853 14.5333 14.7087 14.1818 14.7087C13.8303 14.7087 13.5303 14.5853 13.2818 14.3385C13.0333 14.0918 12.9091 13.7938 12.9091 13.4448C12.9091 13.3846 12.9121 13.3244 12.9182 13.2642C12.9242 13.204 12.9394 13.1258 12.9636 13.0295L10.9636 11.0434C10.8667 11.0675 10.7879 11.0825 10.7273 11.0885C10.6667 11.0945 10.6061 11.0975 10.5455 11.0975C10.5212 11.0975 10.3818 11.0795 10.1273 11.0434L6.49091 14.6545C6.51515 14.7508 6.5303 14.829 6.53636 14.8892C6.54242 14.9494 6.54545 15.0096 6.54545 15.0698C6.54545 15.4188 6.42121 15.7168 6.17273 15.9635C5.92424 16.2103 5.62424 16.3337 5.27273 16.3337Z" fill="black" fill-opacity="0.2"/>
<circle cx="12" cy="12" r="11.4" stroke="black" stroke-opacity="0.2" stroke-width="1.2"/>
</svg>
