<svg width="13" height="14" viewBox="0 0 13 14" fill="none" xmlns="http://www.w3.org/2000/svg">
<path d="M11.5 7.5H9.5V5.5H10.5C10.7652 5.5 11.0196 5.39464 11.2071 5.20711C11.3946 5.01957 11.5 4.76522 11.5 4.5V1.5C11.5 1.23478 11.3946 0.98043 11.2071 0.792893C11.0196 0.605357 10.7652 0.5 10.5 0.5H2.5C2.23478 0.5 1.98043 0.605357 1.79289 0.792893C1.60536 0.98043 1.5 1.23478 1.5 1.5V4.5C1.5 4.76522 1.60536 5.01957 1.79289 5.20711C1.98043 5.39464 2.23478 5.5 2.5 5.5H3.5V7.5H1.5C1.23478 7.5 0.98043 7.60536 0.792893 7.79289C0.605357 7.98043 0.5 8.23478 0.5 8.5V9.5C0.5 9.76522 0.605357 10.0196 0.792893 10.2071C0.98043 10.3946 1.23478 10.5 1.5 10.5H2V13C2 13.1326 2.05268 13.2598 2.14645 13.3536C2.24021 13.4473 2.36739 13.5 2.5 13.5C2.63261 13.5 2.75979 13.4473 2.85355 13.3536C2.94732 13.2598 3 13.1326 3 13V10.5H10V13C10 13.1326 10.0527 13.2598 10.1464 13.3536C10.2402 13.4473 10.3674 13.5 10.5 13.5C10.6326 13.5 10.7598 13.4473 10.8536 13.3536C10.9473 13.2598 11 13.1326 11 13V10.5H11.5C11.7652 10.5 12.0196 10.3946 12.2071 10.2071C12.3946 10.0196 12.5 9.76522 12.5 9.5V8.5C12.5 8.23478 12.3946 7.98043 12.2071 7.79289C12.0196 7.60536 11.7652 7.5 11.5 7.5ZM2.5 1.5H10.5V4.5H2.5V1.5ZM4.5 5.5H8.5V7.5H4.5V5.5ZM11.5 9.5H1.5V8.5H11.5V9.5Z" fill="white"/>
</svg>
