<svg width="25" height="24" viewBox="0 0 25 24" fill="none" xmlns="http://www.w3.org/2000/svg">
<path d="M22.25 9C22.2504 8.93027 22.2409 8.86083 22.2219 8.79375L20.8766 4.0875C20.7861 3.77523 20.5971 3.50059 20.3378 3.30459C20.0784 3.10858 19.7626 3.00174 19.4375 3H5.5625C5.23741 3.00174 4.9216 3.10858 4.66223 3.30459C4.40287 3.50059 4.21386 3.77523 4.12344 4.0875L2.77906 8.79375C2.7597 8.86079 2.74991 8.93022 2.75 9V10.5C2.75 11.0822 2.88554 11.6563 3.1459 12.1771C3.40625 12.6978 3.78427 13.1507 4.25 13.5V19.5C4.25 19.8978 4.40804 20.2794 4.68934 20.5607C4.97064 20.842 5.35218 21 5.75 21H19.25C19.6478 21 20.0294 20.842 20.3107 20.5607C20.592 20.2794 20.75 19.8978 20.75 19.5V13.5C21.2157 13.1507 21.5937 12.6978 21.8541 12.1771C22.1145 11.6563 22.25 11.0822 22.25 10.5V9ZM5.5625 4.5H19.4375L20.5081 8.25H4.49469L5.5625 4.5ZM10.25 9.75H14.75V10.5C14.75 11.0967 14.5129 11.669 14.091 12.091C13.669 12.5129 13.0967 12.75 12.5 12.75C11.9033 12.75 11.331 12.5129 10.909 12.091C10.4871 11.669 10.25 11.0967 10.25 10.5V9.75ZM8.75 9.75V10.5C8.75 11.0967 8.51295 11.669 8.09099 12.091C7.66903 12.5129 7.09674 12.75 6.5 12.75C5.90326 12.75 5.33097 12.5129 4.90901 12.091C4.48705 11.669 4.25 11.0967 4.25 10.5V9.75H8.75ZM19.25 19.5H5.75V14.175C5.9969 14.2248 6.24813 14.2499 6.5 14.25C7.08217 14.25 7.65634 14.1145 8.17705 13.8541C8.69776 13.5937 9.1507 13.2157 9.5 12.75C9.8493 13.2157 10.3022 13.5937 10.8229 13.8541C11.3437 14.1145 11.9178 14.25 12.5 14.25C13.0822 14.25 13.6563 14.1145 14.1771 13.8541C14.6978 13.5937 15.1507 13.2157 15.5 12.75C15.8493 13.2157 16.3022 13.5937 16.8229 13.8541C17.3437 14.1145 17.9178 14.25 18.5 14.25C18.7519 14.2499 19.0031 14.2248 19.25 14.175V19.5ZM18.5 12.75C17.9033 12.75 17.331 12.5129 16.909 12.091C16.4871 11.669 16.25 11.0967 16.25 10.5V9.75H20.75V10.5C20.75 11.0967 20.5129 11.669 20.091 12.091C19.669 12.5129 19.0967 12.75 18.5 12.75Z" fill="#98A2B3"/>
</svg>
