<svg width="20" height="20" viewBox="0 0 20 20" fill="none" xmlns="http://www.w3.org/2000/svg">
<path d="M16.0675 15.1826C16.1256 15.2406 16.1717 15.3096 16.2031 15.3854C16.2345 15.4613 16.2507 15.5426 16.2507 15.6247C16.2507 15.7069 16.2345 15.7882 16.2031 15.864C16.1717 15.9399 16.1256 16.0089 16.0675 16.0669C16.0095 16.125 15.9405 16.1711 15.8647 16.2025C15.7888 16.2339 15.7075 16.2501 15.6253 16.2501C15.5432 16.2501 15.4619 16.2339 15.386 16.2025C15.3102 16.1711 15.2412 16.125 15.1832 16.0669L10.0003 10.8833L4.81753 16.0669C4.70026 16.1842 4.5412 16.2501 4.37535 16.2501C4.2095 16.2501 4.05044 16.1842 3.93316 16.0669C3.81588 15.9496 3.75 15.7906 3.75 15.6247C3.75 15.4589 3.81588 15.2998 3.93316 15.1826L9.11675 9.99974L3.93316 4.81692C3.81588 4.69965 3.75 4.54059 3.75 4.37474C3.75 4.20888 3.81588 4.04983 3.93316 3.93255C4.05044 3.81527 4.2095 3.74939 4.37535 3.74939C4.5412 3.74939 4.70026 3.81527 4.81753 3.93255L10.0003 9.11614L15.1832 3.93255C15.3004 3.81527 15.4595 3.74939 15.6253 3.74939C15.7912 3.74939 15.9503 3.81527 16.0675 3.93255C16.1848 4.04983 16.2507 4.20888 16.2507 4.37474C16.2507 4.54059 16.1848 4.69965 16.0675 4.81692L10.8839 9.99974L16.0675 15.1826Z" fill="#343330"/>
</svg>
