<svg width="25" height="25" viewBox="0 0 25 25" fill="none" xmlns="http://www.w3.org/2000/svg">
<path d="M24.7075 4.29231L20.7075 0.29231C20.6146 0.199334 20.5043 0.125574 20.3829 0.0752501C20.2615 0.0249259 20.1314 -0.000976562 20 -0.000976562C19.8686 -0.000976562 19.7385 0.0249259 19.6171 0.0752501C19.4957 0.125574 19.3854 0.199334 19.2925 0.29231L7.2925 12.2923C7.19967 12.3852 7.12605 12.4956 7.07586 12.617C7.02568 12.7384 6.9999 12.8684 7 12.9998V16.9998C7 17.265 7.10536 17.5194 7.29289 17.7069C7.48043 17.8945 7.73478 17.9998 8 17.9998H12C12.1314 17.9999 12.2615 17.9741 12.3829 17.9239C12.5042 17.8738 12.6146 17.8001 12.7075 17.7073L24.7075 5.70731C24.8005 5.61444 24.8742 5.50415 24.9246 5.38275C24.9749 5.26135 25.0008 5.13123 25.0008 4.99981C25.0008 4.86839 24.9749 4.73827 24.9246 4.61687C24.8742 4.49547 24.8005 4.38518 24.7075 4.29231ZM11.5863 15.9998H9V13.4136L17 5.41356L19.5863 7.99981L11.5863 15.9998ZM21 6.58606L18.4137 3.99981L20 2.41356L22.5863 4.99981L21 6.58606ZM24 11.9998V22.9998C24 23.5302 23.7893 24.0389 23.4142 24.414C23.0391 24.7891 22.5304 24.9998 22 24.9998H2C1.46957 24.9998 0.960859 24.7891 0.585786 24.414C0.210714 24.0389 0 23.5302 0 22.9998V2.99981C0 2.46938 0.210714 1.96067 0.585786 1.5856C0.960859 1.21052 1.46957 0.99981 2 0.99981H13C13.2652 0.99981 13.5196 1.10517 13.7071 1.2927C13.8946 1.48024 14 1.73459 14 1.99981C14 2.26503 13.8946 2.51938 13.7071 2.70692C13.5196 2.89445 13.2652 2.99981 13 2.99981H2V22.9998H22V11.9998C22 11.7346 22.1054 11.4802 22.2929 11.2927C22.4804 11.1052 22.7348 10.9998 23 10.9998C23.2652 10.9998 23.5196 11.1052 23.7071 11.2927C23.8946 11.4802 24 11.7346 24 11.9998Z" fill="#344054"/>
</svg>
