<svg width="50" height="42" viewBox="0 0 50 42" fill="none" xmlns="http://www.w3.org/2000/svg">
<path d="M25 2.98397V2.29981C25 1.18897 24.0992 0.288137 22.9883 0.288137H2.01167C0.900835 0.288137 0 1.18897 0 2.29981V38.5756H50V4.99564C50 3.88481 49.0992 2.98397 47.9883 2.98397H25Z" fill="#F9DF5C"/>
<path d="M48.2485 5.88189H2.22021V38.9427H48.2485V5.88189Z" fill="white"/>
<path d="M24.2867 10.0177L23.5442 12.0752H2.01167C0.900835 12.0752 0 12.976 0 14.0869V39.7002C0 40.811 0.900835 41.7119 2.01167 41.7119H47.9883C49.0992 41.7119 50 40.811 50 39.7002V10.7002C50 9.58936 49.0992 8.68853 47.9883 8.68853H26.1792C25.3317 8.68853 24.5742 9.2202 24.2867 10.0177Z" fill="#F3CC30"/>
<path d="M49.9999 39.6981V22.9989C36.1116 36.5081 12.0224 40.1223 0.559082 41.0881C0.924915 41.4706 1.43992 41.7106 2.01158 41.7106H47.9883C49.0991 41.7106 49.9999 40.8098 49.9999 39.6989V39.6981Z" fill="#EDBD31"/>
</svg>
