<svg width="12" height="12" viewBox="0 0 12 12" fill="none" xmlns="http://www.w3.org/2000/svg">
<path d="M6.65625 5.99986C6.65625 6.12966 6.61776 6.25654 6.54565 6.36446C6.47354 6.47238 6.37105 6.55649 6.25114 6.60616C6.13122 6.65583 5.99927 6.66883 5.87197 6.64351C5.74467 6.61818 5.62774 6.55568 5.53596 6.4639C5.44418 6.37212 5.38168 6.25519 5.35636 6.12789C5.33104 6.00059 5.34403 5.86864 5.3937 5.74873C5.44337 5.62881 5.52749 5.52632 5.63541 5.45421C5.74333 5.3821 5.87021 5.34361 6 5.34361C6.17405 5.34361 6.34097 5.41276 6.46404 5.53583C6.58711 5.6589 6.65625 5.82582 6.65625 5.99986ZM3.59375 5.34361C3.46396 5.34361 3.33708 5.3821 3.22916 5.45421C3.12124 5.52632 3.03712 5.62881 2.98745 5.74873C2.93778 5.86864 2.92479 6.00059 2.95011 6.12789C2.97543 6.25519 3.03793 6.37212 3.12971 6.4639C3.22149 6.55568 3.33842 6.61818 3.46572 6.64351C3.59302 6.66883 3.72497 6.65583 3.84489 6.60616C3.9648 6.55649 4.06729 6.47238 4.1394 6.36446C4.21151 6.25654 4.25 6.12966 4.25 5.99986C4.25 5.82582 4.18086 5.6589 4.05779 5.53583C3.93472 5.41276 3.7678 5.34361 3.59375 5.34361ZM8.40625 5.34361C8.27646 5.34361 8.14958 5.3821 8.04166 5.45421C7.93374 5.52632 7.84962 5.62881 7.79995 5.74873C7.75028 5.86864 7.73729 6.00059 7.76261 6.12789C7.78793 6.25519 7.85043 6.37212 7.94221 6.4639C8.03399 6.55568 8.15092 6.61818 8.27822 6.64351C8.40552 6.66883 8.53747 6.65583 8.65739 6.60616C8.7773 6.55649 8.87979 6.47238 8.9519 6.36446C9.02401 6.25654 9.0625 6.12966 9.0625 5.99986C9.0625 5.82582 8.99336 5.6589 8.87029 5.53583C8.74722 5.41276 8.5803 5.34361 8.40625 5.34361ZM11.6875 5.99986C11.6877 6.9818 11.4337 7.94706 10.9502 8.80169C10.4667 9.65633 9.77013 10.3712 8.92835 10.8768C8.08658 11.3824 7.12824 11.6614 6.14664 11.6867C5.16503 11.712 4.19359 11.4828 3.32687 11.0213L1.46477 11.642C1.31059 11.6934 1.14515 11.7008 0.986976 11.6635C0.828802 11.6262 0.684149 11.5456 0.569231 11.4306C0.454313 11.3157 0.37367 11.1711 0.336342 11.0129C0.299014 10.8547 0.306476 10.6893 0.35789 10.5351L0.978594 8.67299C0.572894 7.91023 0.346295 7.06506 0.315999 6.20165C0.285702 5.33823 0.452503 4.47926 0.803741 3.68994C1.15498 2.90061 1.68142 2.20168 2.34311 1.64619C3.0048 1.0907 3.78434 0.69325 4.62257 0.484015C5.46079 0.274779 6.33567 0.259255 7.18079 0.438621C8.02591 0.617986 8.81907 0.987526 9.50005 1.51919C10.181 2.05086 10.7319 2.73067 11.111 3.50704C11.49 4.28341 11.6871 5.13592 11.6875 5.99986ZM10.8125 5.99986C10.8123 5.26165 10.6423 4.53338 10.3155 3.8714C9.98884 3.20941 9.51423 2.63146 8.92841 2.18226C8.3426 1.73305 7.6613 1.42464 6.93722 1.28087C6.21314 1.13711 5.46569 1.16185 4.75271 1.35318C4.03972 1.5445 3.3803 1.89729 2.82547 2.38425C2.27065 2.87121 1.83528 3.47928 1.55306 4.16141C1.27085 4.84355 1.14934 5.58147 1.19794 6.31808C1.24655 7.0547 1.46396 7.77025 1.83336 8.4094C1.86436 8.46305 1.88361 8.52269 1.88984 8.58434C1.89606 8.646 1.88911 8.70828 1.86945 8.76705L1.1875 10.8124L3.23281 10.1304C3.27736 10.1152 3.3241 10.1075 3.37117 10.1074C3.44801 10.1076 3.52346 10.1279 3.58992 10.1665C4.32153 10.5898 5.15172 10.8129 5.99696 10.8135C6.8422 10.814 7.67267 10.5919 8.40481 10.1695C9.13696 9.74718 9.74495 9.13943 10.1676 8.40746C10.5903 7.67549 10.8127 6.8451 10.8125 5.99986Z" fill="#667185"/>
</svg>
