<svg width="18" height="18" viewBox="0 0 18 18" fill="none" xmlns="http://www.w3.org/2000/svg">
<path d="M16.9424 16.0575L13.0306 12.1466C14.1644 10.7854 14.7298 9.03953 14.6091 7.27214C14.4884 5.50475 13.691 3.85192 12.3828 2.65748C11.0745 1.46304 9.35615 0.818951 7.5851 0.859201C5.81406 0.899451 4.12671 1.62094 2.87407 2.87358C1.62143 4.12622 0.899939 5.81357 0.859689 7.58462C0.819439 9.35566 1.46353 11.074 2.65797 12.3823C3.85241 13.6906 5.50524 14.488 7.27263 14.6086C9.04002 14.7293 10.7859 14.1639 12.1471 13.0302L16.058 16.9419C16.1161 16.9999 16.185 17.046 16.2609 17.0774C16.3367 17.1089 16.4181 17.125 16.5002 17.125C16.5823 17.125 16.6636 17.1089 16.7395 17.0774C16.8154 17.046 16.8843 16.9999 16.9424 16.9419C17.0004 16.8838 17.0465 16.8149 17.0779 16.739C17.1094 16.6631 17.1255 16.5818 17.1255 16.4997C17.1255 16.4176 17.1094 16.3363 17.0779 16.2604C17.0465 16.1845 17.0004 16.1156 16.9424 16.0575ZM2.12518 7.74969C2.12518 6.63717 2.45508 5.54963 3.07316 4.62461C3.69124 3.69958 4.56975 2.97861 5.59758 2.55287C6.62542 2.12712 7.75642 2.01573 8.84756 2.23277C9.9387 2.44981 10.941 2.98554 11.7277 3.77221C12.5143 4.55888 13.0501 5.56116 13.2671 6.65231C13.4841 7.74345 13.3727 8.87445 12.947 9.90228C12.5213 10.9301 11.8003 11.8086 10.8753 12.4267C9.95023 13.0448 8.8627 13.3747 7.75018 13.3747C6.25884 13.373 4.82906 12.7799 3.77453 11.7253C2.72 10.6708 2.12683 9.24102 2.12518 7.74969Z" fill="#98A2B3"/>
</svg>
