<svg width="204" height="70" viewBox="0 0 204 70" fill="none" xmlns="http://www.w3.org/2000/svg">
<path d="M19.5 7.5H16.5V5.25C16.5 4.05653 16.0259 2.91193 15.182 2.06802C14.3381 1.22411 13.1935 0.75 12 0.75C10.8065 0.75 9.66193 1.22411 8.81802 2.06802C7.97411 2.91193 7.5 4.05653 7.5 5.25V7.5H4.5C4.10218 7.5 3.72064 7.65804 3.43934 7.93934C3.15804 8.22064 3 8.60218 3 9V19.5C3 19.8978 3.15804 20.2794 3.43934 20.5607C3.72064 20.842 4.10218 21 4.5 21H19.5C19.8978 21 20.2794 20.842 20.5607 20.5607C20.842 20.2794 21 19.8978 21 19.5V9C21 8.60218 20.842 8.22064 20.5607 7.93934C20.2794 7.65804 19.8978 7.5 19.5 7.5ZM9 5.25C9 4.45435 9.31607 3.69129 9.87868 3.12868C10.4413 2.56607 11.2044 2.25 12 2.25C12.7956 2.25 13.5587 2.56607 14.1213 3.12868C14.6839 3.69129 15 4.45435 15 5.25V7.5H9V5.25ZM19.5 19.5H4.5V9H19.5V19.5ZM13.125 14.25C13.125 14.4725 13.059 14.69 12.9354 14.875C12.8118 15.06 12.6361 15.2042 12.4305 15.2894C12.225 15.3745 11.9988 15.3968 11.7805 15.3534C11.5623 15.31 11.3618 15.2028 11.2045 15.0455C11.0472 14.8882 10.94 14.6877 10.8966 14.4695C10.8532 14.2512 10.8755 14.025 10.9606 13.8195C11.0458 13.6139 11.19 13.4382 11.375 13.3146C11.56 13.191 11.7775 13.125 12 13.125C12.2984 13.125 12.5845 13.2435 12.7955 13.4545C13.0065 13.6655 13.125 13.9516 13.125 14.25Z" fill="#344054"/>
<path d="M40.976 10.192C40.976 10.7573 40.8427 11.2907 40.576 11.792C40.3093 12.2933 39.8827 12.704 39.296 13.024C38.7093 13.3333 37.9573 13.488 37.04 13.488H35.024V18H33.2V6.88H37.04C37.8933 6.88 38.6133 7.02933 39.2 7.328C39.7973 7.616 40.24 8.01067 40.528 8.512C40.8267 9.01333 40.976 9.57333 40.976 10.192ZM37.04 12C37.7333 12 38.2507 11.8453 38.592 11.536C38.9333 11.216 39.104 10.768 39.104 10.192C39.104 8.976 38.416 8.368 37.04 8.368H35.024V12H37.04ZM43.8996 10.464C44.1663 10.016 44.5183 9.66933 44.9556 9.424C45.4036 9.168 45.9316 9.04 46.5396 9.04V10.928H46.0756C45.361 10.928 44.817 11.1093 44.4436 11.472C44.081 11.8347 43.8996 12.464 43.8996 13.36V18H42.0756V9.184H43.8996V10.464ZM48.5043 8.016C48.1736 8.016 47.8963 7.904 47.6723 7.68C47.4483 7.456 47.3363 7.17867 47.3363 6.848C47.3363 6.51733 47.4483 6.24 47.6723 6.016C47.8963 5.792 48.1736 5.68 48.5043 5.68C48.8243 5.68 49.0963 5.792 49.3203 6.016C49.5443 6.24 49.6563 6.51733 49.6563 6.848C49.6563 7.17867 49.5443 7.456 49.3203 7.68C49.0963 7.904 48.8243 8.016 48.5043 8.016ZM49.4003 9.184V18H47.5763V9.184H49.4003ZM54.563 16.368L57.059 9.184H58.995L55.635 18H53.459L50.115 9.184H52.067L54.563 16.368ZM59.1258 13.552C59.1258 12.6667 59.3071 11.8827 59.6698 11.2C60.0431 10.5173 60.5444 9.98933 61.1738 9.616C61.8138 9.232 62.5178 9.04 63.2858 9.04C63.9791 9.04 64.5818 9.17867 65.0938 9.456C65.6164 9.72267 66.0324 10.0587 66.3418 10.464V9.184H68.1818V18H66.3418V16.688C66.0324 17.104 65.6111 17.4507 65.0778 17.728C64.5444 18.0053 63.9364 18.144 63.2538 18.144C62.4964 18.144 61.8031 17.952 61.1738 17.568C60.5444 17.1733 60.0431 16.6293 59.6698 15.936C59.3071 15.232 59.1258 14.4373 59.1258 13.552ZM66.3418 13.584C66.3418 12.976 66.2138 12.448 65.9578 12C65.7124 11.552 65.3871 11.2107 64.9818 10.976C64.5764 10.7413 64.1391 10.624 63.6698 10.624C63.2004 10.624 62.7631 10.7413 62.3578 10.976C61.9524 11.2 61.6218 11.536 61.3658 11.984C61.1204 12.4213 60.9978 12.944 60.9978 13.552C60.9978 14.16 61.1204 14.6933 61.3658 15.152C61.6218 15.6107 61.9524 15.9627 62.3578 16.208C62.7738 16.4427 63.2111 16.56 63.6698 16.56C64.1391 16.56 64.5764 16.4427 64.9818 16.208C65.3871 15.9733 65.7124 15.632 65.9578 15.184C66.2138 14.7253 66.3418 14.192 66.3418 13.584ZM72.0655 10.672V15.552C72.0655 15.8827 72.1402 16.1227 72.2895 16.272C72.4495 16.4107 72.7162 16.48 73.0895 16.48H74.2095V18H72.7695C71.9482 18 71.3188 17.808 70.8815 17.424C70.4442 17.04 70.2255 16.416 70.2255 15.552V10.672H69.1855V9.184H70.2255V6.992H72.0655V9.184H74.2095V10.672H72.0655ZM83.3306 13.376C83.3306 13.7067 83.3093 14.0053 83.2666 14.272H76.5306C76.584 14.976 76.8453 15.5413 77.3146 15.968C77.784 16.3947 78.36 16.608 79.0426 16.608C80.024 16.608 80.7173 16.1973 81.1226 15.376H83.0906C82.824 16.1867 82.3386 16.8533 81.6346 17.376C80.9413 17.888 80.0773 18.144 79.0426 18.144C78.2 18.144 77.4426 17.9573 76.7706 17.584C76.1093 17.2 75.5866 16.6667 75.2026 15.984C74.8293 15.2907 74.6426 14.4907 74.6426 13.584C74.6426 12.6773 74.824 11.8827 75.1866 11.2C75.56 10.5067 76.0773 9.97333 76.7386 9.6C77.4106 9.22667 78.1786 9.04 79.0426 9.04C79.8746 9.04 80.616 9.22133 81.2666 9.584C81.9173 9.94667 82.424 10.4587 82.7866 11.12C83.1493 11.7707 83.3306 12.5227 83.3306 13.376ZM81.4266 12.8C81.416 12.128 81.176 11.5893 80.7066 11.184C80.2373 10.7787 79.656 10.576 78.9626 10.576C78.3333 10.576 77.7946 10.7787 77.3466 11.184C76.8986 11.5787 76.632 12.1173 76.5466 12.8H81.4266Z" fill="#1D2433"/>
<path d="M37.502 42.098C36.5967 42.098 35.7707 41.888 35.024 41.468C34.2773 41.0387 33.6847 40.446 33.246 39.69C32.8167 38.9247 32.602 38.066 32.602 37.114C32.602 36.162 32.8167 35.308 33.246 34.552C33.6847 33.7867 34.2773 33.194 35.024 32.774C35.7707 32.3447 36.5967 32.13 37.502 32.13C38.4167 32.13 39.2473 32.3447 39.994 32.774C40.7407 33.194 41.3287 33.782 41.758 34.538C42.1873 35.294 42.402 36.1527 42.402 37.114C42.402 38.0753 42.1873 38.934 41.758 39.69C41.3287 40.446 40.7407 41.0387 39.994 41.468C39.2473 41.888 38.4167 42.098 37.502 42.098ZM37.502 40.992C38.1833 40.992 38.7947 40.8333 39.336 40.516C39.8867 40.1987 40.316 39.746 40.624 39.158C40.9413 38.57 41.1 37.8887 41.1 37.114C41.1 36.33 40.9413 35.6487 40.624 35.07C40.316 34.482 39.8913 34.0293 39.35 33.712C38.8087 33.3947 38.1927 33.236 37.502 33.236C36.8113 33.236 36.1953 33.3947 35.654 33.712C35.1127 34.0293 34.6833 34.482 34.366 35.07C34.058 35.6487 33.904 36.33 33.904 37.114C33.904 37.8887 34.058 38.57 34.366 39.158C34.6833 39.746 35.1127 40.1987 35.654 40.516C36.2047 40.8333 36.8207 40.992 37.502 40.992ZM47.2619 34.188C48.1952 34.188 48.9512 34.4727 49.5299 35.042C50.1085 35.602 50.3979 36.414 50.3979 37.478V42H49.1379V37.66C49.1379 36.8947 48.9465 36.3113 48.5639 35.91C48.1812 35.4993 47.6585 35.294 46.9959 35.294C46.3239 35.294 45.7872 35.504 45.3859 35.924C44.9939 36.344 44.7979 36.9553 44.7979 37.758V42H43.5239V34.328H44.7979V35.42C45.0499 35.028 45.3905 34.7247 45.8199 34.51C46.2585 34.2953 46.7392 34.188 47.2619 34.188ZM53.1929 31.64V42H51.9189V31.64H53.1929ZM61.4123 34.328L56.7922 45.612H55.4762L56.9882 41.916L53.8942 34.328H55.3082L57.7163 40.544L60.0962 34.328H61.4123ZM71.9133 34.328L67.2933 45.612H65.9773L67.4893 41.916L64.3953 34.328H65.8093L68.2173 40.544L70.5973 34.328H71.9133ZM75.98 42.126C75.2613 42.126 74.608 41.9627 74.02 41.636C73.4413 41.3093 72.984 40.8473 72.648 40.25C72.3213 39.6433 72.158 38.9433 72.158 38.15C72.158 37.366 72.326 36.6753 72.662 36.078C73.0073 35.4713 73.474 35.0093 74.062 34.692C74.65 34.3653 75.308 34.202 76.036 34.202C76.764 34.202 77.422 34.3653 78.01 34.692C78.598 35.0093 79.06 35.4667 79.396 36.064C79.7413 36.6613 79.914 37.3567 79.914 38.15C79.914 38.9433 79.7367 39.6433 79.382 40.25C79.0367 40.8473 78.5653 41.3093 77.968 41.636C77.3707 41.9627 76.708 42.126 75.98 42.126ZM75.98 41.006C76.4373 41.006 76.8667 40.8987 77.268 40.684C77.6693 40.4693 77.9913 40.1473 78.234 39.718C78.486 39.2887 78.612 38.766 78.612 38.15C78.612 37.534 78.4907 37.0113 78.248 36.582C78.0053 36.1527 77.688 35.8353 77.296 35.63C76.904 35.4153 76.4793 35.308 76.022 35.308C75.5553 35.308 75.126 35.4153 74.734 35.63C74.3513 35.8353 74.0433 36.1527 73.81 36.582C73.5767 37.0113 73.46 37.534 73.46 38.15C73.46 38.7753 73.572 39.3027 73.796 39.732C74.0293 40.1613 74.3373 40.4833 74.72 40.698C75.1027 40.9033 75.5227 41.006 75.98 41.006ZM87.8331 34.328V42H86.5591V40.866C86.3164 41.258 85.9758 41.566 85.5371 41.79C85.1078 42.0047 84.6318 42.112 84.1091 42.112C83.5118 42.112 82.9751 41.9907 82.4991 41.748C82.0231 41.496 81.6451 41.1227 81.3651 40.628C81.0944 40.1333 80.9591 39.5313 80.9591 38.822V34.328H82.2191V38.654C82.2191 39.41 82.4104 39.9933 82.7931 40.404C83.1758 40.8053 83.6984 41.006 84.3611 41.006C85.0424 41.006 85.5791 40.796 85.9711 40.376C86.3631 39.956 86.5591 39.3447 86.5591 38.542V34.328H87.8331ZM92.1206 38.15C92.1206 37.3567 92.2793 36.666 92.5966 36.078C92.9139 35.4807 93.3526 35.0187 93.9126 34.692C94.4819 34.3653 95.1306 34.202 95.8586 34.202C96.8013 34.202 97.5759 34.4307 98.1826 34.888C98.7986 35.3453 99.2046 35.98 99.4006 36.792H98.0286C97.8979 36.3253 97.6413 35.9567 97.2586 35.686C96.8853 35.4153 96.4186 35.28 95.8586 35.28C95.1306 35.28 94.5426 35.532 94.0946 36.036C93.6466 36.5307 93.4226 37.2353 93.4226 38.15C93.4226 39.074 93.6466 39.788 94.0946 40.292C94.5426 40.796 95.1306 41.048 95.8586 41.048C96.4186 41.048 96.8853 40.9173 97.2586 40.656C97.6319 40.3947 97.8886 40.0213 98.0286 39.536H99.4006C99.1953 40.32 98.7846 40.95 98.1686 41.426C97.5526 41.8927 96.7826 42.126 95.8586 42.126C95.1306 42.126 94.4819 41.9627 93.9126 41.636C93.3526 41.3093 92.9139 40.8473 92.5966 40.25C92.2793 39.6527 92.1206 38.9527 92.1206 38.15ZM100.065 38.136C100.065 37.352 100.223 36.666 100.541 36.078C100.858 35.4807 101.292 35.0187 101.843 34.692C102.403 34.3653 103.023 34.202 103.705 34.202C104.377 34.202 104.96 34.3467 105.455 34.636C105.949 34.9253 106.318 35.2893 106.561 35.728V34.328H107.849V42H106.561V40.572C106.309 41.02 105.931 41.3933 105.427 41.692C104.932 41.9813 104.353 42.126 103.691 42.126C103.009 42.126 102.393 41.958 101.843 41.622C101.292 41.286 100.858 40.8147 100.541 40.208C100.223 39.6013 100.065 38.9107 100.065 38.136ZM106.561 38.15C106.561 37.5713 106.444 37.0673 106.211 36.638C105.977 36.2087 105.66 35.882 105.259 35.658C104.867 35.4247 104.433 35.308 103.957 35.308C103.481 35.308 103.047 35.42 102.655 35.644C102.263 35.868 101.95 36.1947 101.717 36.624C101.483 37.0533 101.367 37.5573 101.367 38.136C101.367 38.724 101.483 39.2373 101.717 39.676C101.95 40.1053 102.263 40.4367 102.655 40.67C103.047 40.894 103.481 41.006 103.957 41.006C104.433 41.006 104.867 40.894 105.259 40.67C105.66 40.4367 105.977 40.1053 106.211 39.676C106.444 39.2373 106.561 38.7287 106.561 38.15ZM113.179 34.188C114.113 34.188 114.869 34.4727 115.447 35.042C116.026 35.602 116.315 36.414 116.315 37.478V42H115.055V37.66C115.055 36.8947 114.864 36.3113 114.481 35.91C114.099 35.4993 113.576 35.294 112.913 35.294C112.241 35.294 111.705 35.504 111.303 35.924C110.911 36.344 110.715 36.9553 110.715 37.758V42H109.441V34.328H110.715V35.42C110.967 35.028 111.308 34.7247 111.737 34.51C112.176 34.2953 112.657 34.188 113.179 34.188ZM123.725 42.126C123.137 42.126 122.61 42.028 122.143 41.832C121.676 41.6267 121.308 41.3467 121.037 40.992C120.766 40.628 120.617 40.2127 120.589 39.746H121.905C121.942 40.1287 122.12 40.4413 122.437 40.684C122.764 40.9267 123.188 41.048 123.711 41.048C124.196 41.048 124.579 40.9407 124.859 40.726C125.139 40.5113 125.279 40.2407 125.279 39.914C125.279 39.578 125.13 39.3307 124.831 39.172C124.532 39.004 124.07 38.8407 123.445 38.682C122.876 38.5327 122.409 38.3833 122.045 38.234C121.69 38.0753 121.382 37.8467 121.121 37.548C120.869 37.24 120.743 36.8387 120.743 36.344C120.743 35.952 120.86 35.5927 121.093 35.266C121.326 34.9393 121.658 34.6827 122.087 34.496C122.516 34.3 123.006 34.202 123.557 34.202C124.406 34.202 125.092 34.4167 125.615 34.846C126.138 35.2753 126.418 35.8633 126.455 36.61H125.181C125.153 36.2087 124.99 35.8867 124.691 35.644C124.402 35.4013 124.01 35.28 123.515 35.28C123.058 35.28 122.694 35.378 122.423 35.574C122.152 35.77 122.017 36.0267 122.017 36.344C122.017 36.596 122.096 36.806 122.255 36.974C122.423 37.1327 122.628 37.2633 122.871 37.366C123.123 37.4593 123.468 37.5667 123.907 37.688C124.458 37.8373 124.906 37.9867 125.251 38.136C125.596 38.276 125.89 38.4907 126.133 38.78C126.385 39.0693 126.516 39.4473 126.525 39.914C126.525 40.334 126.408 40.712 126.175 41.048C125.942 41.384 125.61 41.65 125.181 41.846C124.761 42.0327 124.276 42.126 123.725 42.126ZM134.763 37.87C134.763 38.1127 134.749 38.3693 134.721 38.64H128.589C128.636 39.396 128.893 39.9887 129.359 40.418C129.835 40.838 130.409 41.048 131.081 41.048C131.632 41.048 132.089 40.922 132.453 40.67C132.827 40.4087 133.088 40.0633 133.237 39.634H134.609C134.404 40.3713 133.993 40.9733 133.377 41.44C132.761 41.8973 131.996 42.126 131.081 42.126C130.353 42.126 129.7 41.9627 129.121 41.636C128.552 41.3093 128.104 40.8473 127.777 40.25C127.451 39.6433 127.287 38.9433 127.287 38.15C127.287 37.3567 127.446 36.6613 127.763 36.064C128.081 35.4667 128.524 35.0093 129.093 34.692C129.672 34.3653 130.335 34.202 131.081 34.202C131.809 34.202 132.453 34.3607 133.013 34.678C133.573 34.9953 134.003 35.434 134.301 35.994C134.609 36.5447 134.763 37.17 134.763 37.87ZM133.447 37.604C133.447 37.1187 133.34 36.7033 133.125 36.358C132.911 36.0033 132.617 35.7373 132.243 35.56C131.879 35.3733 131.473 35.28 131.025 35.28C130.381 35.28 129.831 35.4853 129.373 35.896C128.925 36.3067 128.669 36.876 128.603 37.604H133.447ZM142.885 37.87C142.885 38.1127 142.871 38.3693 142.843 38.64H136.711C136.758 39.396 137.014 39.9887 137.481 40.418C137.957 40.838 138.531 41.048 139.203 41.048C139.754 41.048 140.211 40.922 140.575 40.67C140.948 40.4087 141.21 40.0633 141.359 39.634H142.731C142.526 40.3713 142.115 40.9733 141.499 41.44C140.883 41.8973 140.118 42.126 139.203 42.126C138.475 42.126 137.822 41.9627 137.243 41.636C136.674 41.3093 136.226 40.8473 135.899 40.25C135.572 39.6433 135.409 38.9433 135.409 38.15C135.409 37.3567 135.568 36.6613 135.885 36.064C136.202 35.4667 136.646 35.0093 137.215 34.692C137.794 34.3653 138.456 34.202 139.203 34.202C139.931 34.202 140.575 34.3607 141.135 34.678C141.695 34.9953 142.124 35.434 142.423 35.994C142.731 36.5447 142.885 37.17 142.885 37.87ZM141.569 37.604C141.569 37.1187 141.462 36.7033 141.247 36.358C141.032 36.0033 140.738 35.7373 140.365 35.56C140.001 35.3733 139.595 35.28 139.147 35.28C138.503 35.28 137.952 35.4853 137.495 35.896C137.047 36.3067 136.79 36.876 136.725 37.604H141.569ZM153.787 34.328L149.167 45.612H147.851L149.363 41.916L146.269 34.328H147.683L150.091 40.544L152.471 34.328H153.787ZM157.854 42.126C157.135 42.126 156.482 41.9627 155.894 41.636C155.315 41.3093 154.858 40.8473 154.522 40.25C154.195 39.6433 154.032 38.9433 154.032 38.15C154.032 37.366 154.2 36.6753 154.536 36.078C154.881 35.4713 155.348 35.0093 155.936 34.692C156.524 34.3653 157.182 34.202 157.91 34.202C158.638 34.202 159.296 34.3653 159.884 34.692C160.472 35.0093 160.934 35.4667 161.27 36.064C161.615 36.6613 161.788 37.3567 161.788 38.15C161.788 38.9433 161.61 39.6433 161.256 40.25C160.91 40.8473 160.439 41.3093 159.842 41.636C159.244 41.9627 158.582 42.126 157.854 42.126ZM157.854 41.006C158.311 41.006 158.74 40.8987 159.142 40.684C159.543 40.4693 159.865 40.1473 160.108 39.718C160.36 39.2887 160.486 38.766 160.486 38.15C160.486 37.534 160.364 37.0113 160.122 36.582C159.879 36.1527 159.562 35.8353 159.17 35.63C158.778 35.4153 158.353 35.308 157.896 35.308C157.429 35.308 157 35.4153 156.608 35.63C156.225 35.8353 155.917 36.1527 155.684 36.582C155.45 37.0113 155.334 37.534 155.334 38.15C155.334 38.7753 155.446 39.3027 155.67 39.732C155.903 40.1613 156.211 40.4833 156.594 40.698C156.976 40.9033 157.396 41.006 157.854 41.006ZM169.707 34.328V42H168.433V40.866C168.19 41.258 167.85 41.566 167.411 41.79C166.982 42.0047 166.506 42.112 165.983 42.112C165.386 42.112 164.849 41.9907 164.373 41.748C163.897 41.496 163.519 41.1227 163.239 40.628C162.968 40.1333 162.833 39.5313 162.833 38.822V34.328H164.093V38.654C164.093 39.41 164.284 39.9933 164.667 40.404C165.05 40.8053 165.572 41.006 166.235 41.006C166.916 41.006 167.453 40.796 167.845 40.376C168.237 39.956 168.433 39.3447 168.433 38.542V34.328H169.707ZM172.572 35.574C172.796 35.1353 173.113 34.7947 173.524 34.552C173.944 34.3093 174.453 34.188 175.05 34.188V35.504H174.714C173.286 35.504 172.572 36.2787 172.572 37.828V42H171.298V34.328H172.572V35.574ZM34.352 57.742C34.604 57.3033 34.9773 56.9393 35.472 56.65C35.976 56.3513 36.5593 56.202 37.222 56.202C37.9033 56.202 38.5193 56.3653 39.07 56.692C39.63 57.0187 40.0687 57.4807 40.386 58.078C40.7033 58.666 40.862 59.352 40.862 60.136C40.862 60.9107 40.7033 61.6013 40.386 62.208C40.0687 62.8147 39.63 63.286 39.07 63.622C38.5193 63.958 37.9033 64.126 37.222 64.126C36.5687 64.126 35.99 63.9813 35.486 63.692C34.9913 63.3933 34.6133 63.0247 34.352 62.586V67.64H33.078V56.328H34.352V57.742ZM39.56 60.136C39.56 59.5573 39.4433 59.0533 39.21 58.624C38.9767 58.1947 38.6593 57.868 38.258 57.644C37.866 57.42 37.432 57.308 36.956 57.308C36.4893 57.308 36.0553 57.4247 35.654 57.658C35.262 57.882 34.9447 58.2133 34.702 58.652C34.4687 59.0813 34.352 59.5807 34.352 60.15C34.352 60.7287 34.4687 61.2373 34.702 61.676C34.9447 62.1053 35.262 62.4367 35.654 62.67C36.0553 62.894 36.4893 63.006 36.956 63.006C37.432 63.006 37.866 62.894 38.258 62.67C38.6593 62.4367 38.9767 62.1053 39.21 61.676C39.4433 61.2373 39.56 60.724 39.56 60.136ZM45.3249 64.126C44.6063 64.126 43.9529 63.9627 43.3649 63.636C42.7863 63.3093 42.3289 62.8473 41.9929 62.25C41.6663 61.6433 41.5029 60.9433 41.5029 60.15C41.5029 59.366 41.6709 58.6753 42.0069 58.078C42.3523 57.4713 42.8189 57.0093 43.4069 56.692C43.9949 56.3653 44.6529 56.202 45.3809 56.202C46.1089 56.202 46.7669 56.3653 47.3549 56.692C47.9429 57.0093 48.4049 57.4667 48.7409 58.064C49.0863 58.6613 49.2589 59.3567 49.2589 60.15C49.2589 60.9433 49.0816 61.6433 48.7269 62.25C48.3816 62.8473 47.9103 63.3093 47.3129 63.636C46.7156 63.9627 46.0529 64.126 45.3249 64.126ZM45.3249 63.006C45.7823 63.006 46.2116 62.8987 46.6129 62.684C47.0143 62.4693 47.3363 62.1473 47.5789 61.718C47.8309 61.2887 47.9569 60.766 47.9569 60.15C47.9569 59.534 47.8356 59.0113 47.5929 58.582C47.3503 58.1527 47.0329 57.8353 46.6409 57.63C46.2489 57.4153 45.8243 57.308 45.3669 57.308C44.9003 57.308 44.4709 57.4153 44.0789 57.63C43.6963 57.8353 43.3883 58.1527 43.1549 58.582C42.9216 59.0113 42.8049 59.534 42.8049 60.15C42.8049 60.7753 42.9169 61.3027 43.1409 61.732C43.3743 62.1613 43.6823 62.4833 44.0649 62.698C44.4476 62.9033 44.8676 63.006 45.3249 63.006ZM53.09 64.126C52.502 64.126 51.9747 64.028 51.508 63.832C51.0413 63.6267 50.6727 63.3467 50.402 62.992C50.1313 62.628 49.982 62.2127 49.954 61.746H51.27C51.3073 62.1287 51.4847 62.4413 51.802 62.684C52.1287 62.9267 52.5533 63.048 53.076 63.048C53.5613 63.048 53.944 62.9407 54.224 62.726C54.504 62.5113 54.644 62.2407 54.644 61.914C54.644 61.578 54.4947 61.3307 54.196 61.172C53.8973 61.004 53.4353 60.8407 52.81 60.682C52.2407 60.5327 51.774 60.3833 51.41 60.234C51.0553 60.0753 50.7473 59.8467 50.486 59.548C50.234 59.24 50.108 58.8387 50.108 58.344C50.108 57.952 50.2247 57.5927 50.458 57.266C50.6913 56.9393 51.0227 56.6827 51.452 56.496C51.8813 56.3 52.3713 56.202 52.922 56.202C53.7713 56.202 54.4573 56.4167 54.98 56.846C55.5027 57.2753 55.7827 57.8633 55.82 58.61H54.546C54.518 58.2087 54.3547 57.8867 54.056 57.644C53.7667 57.4013 53.3747 57.28 52.88 57.28C52.4227 57.28 52.0587 57.378 51.788 57.574C51.5173 57.77 51.382 58.0267 51.382 58.344C51.382 58.596 51.4613 58.806 51.62 58.974C51.788 59.1327 51.9933 59.2633 52.236 59.366C52.488 59.4593 52.8333 59.5667 53.272 59.688C53.8227 59.8373 54.2707 59.9867 54.616 60.136C54.9613 60.276 55.2553 60.4907 55.498 60.78C55.75 61.0693 55.8807 61.4473 55.89 61.914C55.89 62.334 55.7733 62.712 55.54 63.048C55.3067 63.384 54.9753 63.65 54.546 63.846C54.126 64.0327 53.6407 64.126 53.09 64.126ZM58.6825 57.378V61.9C58.6825 62.2733 58.7618 62.5393 58.9205 62.698C59.0791 62.8473 59.3545 62.922 59.7465 62.922H60.6845V64H59.5365C58.8271 64 58.2951 63.8367 57.9405 63.51C57.5858 63.1833 57.4085 62.6467 57.4085 61.9V57.378H56.4145V56.328H57.4085V54.396H58.6825V56.328H60.6845V57.378H58.6825Z" fill="#676E7E"/>
</svg>
