<svg width="40" height="40" viewBox="0 0 40 40" fill="none" xmlns="http://www.w3.org/2000/svg">
<rect width="40" height="40" rx="20" fill="#E7F0FF"/>
<path d="M26.4999 19.993C26.5004 20.1712 26.4532 20.3462 26.3633 20.5C26.2735 20.6539 26.1441 20.7809 25.9887 20.868L15.4943 26.8686C15.3435 26.9541 15.1732 26.9993 14.9999 26.9999C14.8401 26.9995 14.6826 26.9609 14.5408 26.8872C14.399 26.8135 14.2769 26.7068 14.1847 26.5762C14.0926 26.4456 14.0331 26.2948 14.0113 26.1364C13.9895 25.9781 14.0059 25.8168 14.0593 25.6661L15.7687 20.6692C15.7855 20.6198 15.8174 20.5769 15.8599 20.5465C15.9024 20.5161 15.9533 20.4998 16.0055 20.4999H20.4999C20.5685 20.5 20.6363 20.4861 20.6992 20.4589C20.7622 20.4317 20.8188 20.3919 20.8657 20.3419C20.9126 20.2919 20.9487 20.2328 20.9718 20.1683C20.9949 20.1037 21.0045 20.0351 20.9999 19.9667C20.9886 19.8382 20.9291 19.7186 20.8334 19.632C20.7376 19.5455 20.6127 19.4983 20.4837 19.4999H16.0099C15.9578 19.5 15.9069 19.4837 15.8644 19.4535C15.8219 19.4232 15.79 19.3804 15.773 19.3311L14.058 14.3311C13.9913 14.1395 13.9843 13.9321 14.0382 13.7365C14.092 13.5409 14.2041 13.3663 14.3596 13.2359C14.515 13.1055 14.7064 13.0254 14.9084 13.0064C15.1104 12.9873 15.3135 13.0302 15.4905 13.1292L25.9905 19.1224C26.145 19.2093 26.2735 19.3358 26.363 19.4887C26.4525 19.6417 26.4998 19.8157 26.4999 19.993Z" fill="#A29999"/>
</svg>
