<?xml version="1.0" encoding="UTF-8"?>
<svg xmlns="http://www.w3.org/2000/svg" xmlns:xlink="http://www.w3.org/1999/xlink" width="29px" height="29px" viewBox="0 0 29 28" version="1.1">
<g id="surface1">
<path style=" stroke:none;fill-rule:nonzero;fill:rgb(0%,0%,0%);fill-opacity:1;" d="M 24.40625 23.136719 L 21.722656 23.136719 L 22.480469 26.367188 C 22.640625 27.046875 23.34375 27.472656 24.046875 27.316406 C 24.753906 27.164062 25.195312 26.484375 25.035156 25.804688 Z M 24.40625 23.136719 "/>
<path style=" stroke:none;fill-rule:nonzero;fill:rgb(0%,0%,0%);fill-opacity:1;" d="M 21.199219 15.886719 C 21.199219 15.195312 21.199219 15.230469 21.203125 15.15625 L 19.425781 14.390625 C 18.539062 14.007812 18.140625 13.132812 18.175781 12.613281 L 18.457031 8.316406 L 19.21875 12.679688 C 19.28125 13.027344 19.519531 13.320312 19.851562 13.464844 L 23.832031 15.179688 C 24.316406 15.386719 24.878906 15.226562 25.171875 14.816406 C 25.566406 14.265625 25.339844 13.519531 24.722656 13.253906 L 21.273438 11.769531 L 20.585938 7.820312 L 22.058594 10.992188 L 22.335938 7.914062 C 22.410156 7.050781 21.746094 6.289062 20.851562 6.214844 L 17.960938 5.972656 C 17.074219 5.902344 16.289062 6.53125 16.203125 7.390625 L 13.566406 9.585938 C 13.480469 9.65625 13.40625 9.738281 13.347656 9.832031 L 10.835938 13.800781 C 10.625 14.132812 10.628906 14.535156 10.8125 14.855469 L 10.246094 15.691406 L 7.382812 13.875 C 6.902344 13.570312 6.257812 13.703125 5.945312 14.164062 L 0.167969 22.691406 C -0.144531 23.15625 -0.0117188 23.773438 0.46875 24.078125 L 2.355469 25.277344 C 2.316406 25.496094 2.316406 25.71875 2.363281 25.945312 C 2.566406 26.878906 3.523438 27.511719 4.523438 27.3125 C 5.511719 27.117188 6.144531 26.183594 5.941406 25.230469 C 5.894531 25.007812 5.800781 24.800781 5.675781 24.621094 C 9.960938 18.296875 8.914062 19.832031 11.945312 15.386719 C 12.246094 15.335938 12.523438 15.167969 12.695312 14.894531 L 15.117188 11.070312 L 15.9375 10.390625 C 15.9375 10.390625 15.5625 15.472656 15.566406 15.488281 L 16.347656 20.296875 L 14.261719 25.640625 C 14.007812 26.292969 14.347656 27.023438 15.023438 27.269531 C 15.703125 27.515625 16.457031 27.183594 16.710938 26.53125 L 18.921875 20.878906 C 18.992188 20.691406 19.027344 20.46875 18.988281 20.234375 L 18.246094 15.664062 L 18.9375 15.722656 L 19.324219 16.554688 C 19.632812 16.148438 20.132812 15.886719 20.691406 15.886719 C 20.886719 15.886719 21.007812 15.886719 21.199219 15.886719 Z M 4.269531 26.136719 C 3.949219 26.199219 3.648438 25.996094 3.585938 25.699219 C 3.519531 25.398438 3.71875 25.101562 4.035156 25.039062 C 4.355469 24.972656 4.660156 25.179688 4.722656 25.472656 C 4.785156 25.777344 4.585938 26.074219 4.269531 26.136719 Z M 4.269531 26.136719 "/>
<path style=" stroke:none;fill-rule:nonzero;fill:rgb(0%,0%,0%);fill-opacity:1;" d="M 22.511719 2.976562 C 22.511719 4.261719 21.433594 5.300781 20.105469 5.300781 C 18.773438 5.300781 17.695312 4.261719 17.695312 2.976562 C 17.695312 1.691406 18.773438 0.648438 20.105469 0.648438 C 21.433594 0.648438 22.511719 1.691406 22.511719 2.976562 Z M 22.511719 2.976562 "/>
<path style=" stroke:none;fill-rule:nonzero;fill:rgb(0%,0%,0%);fill-opacity:1;" d="M 28.242188 16.785156 L 26.796875 16.785156 L 26.796875 15.257812 C 26.796875 14.988281 26.613281 14.761719 26.359375 14.683594 C 26.332031 14.808594 26.285156 14.9375 26.230469 15.058594 C 26.078125 15.386719 25.839844 15.667969 25.550781 15.875 L 25.550781 16.785156 C 25.457031 16.785156 23.710938 16.785156 23.378906 16.785156 L 23.378906 16.089844 L 22.132812 15.554688 C 22.132812 15.984375 22.132812 16.363281 22.132812 16.785156 L 20.691406 16.785156 C 20.269531 16.785156 19.929688 17.113281 19.929688 17.519531 L 19.929688 21.503906 C 19.929688 21.90625 20.269531 22.234375 20.691406 22.234375 L 28.242188 22.234375 C 28.660156 22.234375 29 21.90625 29 21.503906 L 29 17.519531 C 29 17.105469 28.652344 16.785156 28.242188 16.785156 Z M 28.242188 16.785156 "/>
</g>
</svg>
