<svg width="430" height="110" viewBox="0 0 430 110" fill="none" xmlns="http://www.w3.org/2000/svg">
<path d="M0 84.0978H1.08237V83.1282H2.16474V82.1585H4.00043V83.561H5.40318V86.5912H10.2695V79.3361H11.3519V80.3058H12.6507V77.6046H32.1334V80.9637H33.3283V79.5612H37.4413V80.2105H39.0692V86.2709H42.0998V84.9723H46.8622V85.9419H50.6548V84.5394H52.7157V77.7171H53.2525V84.6433H55.4173V85.7601H56.3524V84.5307H59.0973V85.8986H61.1148V85.18H61.9807V86.1151H63.929V85.18H64.9421V86.1151H70.3539V84.6692H71.0034V83.0849H72.3715V82.1498H75.7658V78.1067H77.2811V77.1717H78.2163V78.2539H82.3985V80.0547H83.7666V79.3361H85.6456V80.704H88.5291V83.0156H90.6938V91.1712H96.6079V88.6431H98.4869V87.5609H99.422V88.7123H109.813V90.7296H114.644V87.9159H117.892V86.2536H121.208V87.9159H122.654V85.8207H126.481V88.3487H127.278V84.6692H128.291V83.8727H129.304V84.5913H130.386V83.4398H132.118V64.2458H136.595V61.9342H140.777V64.2458H144.388V88.2015H145.687V84.9549H149.254V81.9247H149.904V85.1714H150.873V88.5305H153.471V80.9551H157.584V83.7688H158.017V80.9551H159.316V79.6564H163.316V77.9249H166.018V81.059H167.533V84.9549H168.936V81.7083H170.451V80.5135H173.811V78.1327H179.768V61.3541H183.336V59.2936H195.675V61.0251H199.138V61.8909H198.273V62.7566H199.242V63.7869H198.376V64.8172H199.346V66.1678H198.151V72.0117H199.346V82.4182H202.524V72.8255H201.156V72.1069H202.888V67.4145H204.689V68.4967H206.135V66.9816H206.784V68.211H212.343V67.276H214.941V71.6048H216.82V73.5874H230.423V70.8862H256.071V93.0672H263.431V32.8617L261.647 28.4636H263.7V18.9401H264.669V15.9099H265.856V13.5291H266.825L267.527 11.6936V0.386719H268.289V11.6936L269.103 13.6936H270.133V15.806H271.38V18.6198H272.462V28.3077H274.948L273.112 32.3076V83.3359H278.576V80.2019H282.801V82.0373H286.481V80.4096H284.317V78.5742H290.161V76.8427H292.43V75.7605H293.729V74.1328H301.955V80.6261H309.315V78.2452H314.727V84.3056H318.84V79.5439H322.736V83.0069H340.271V80.4096H351.094V84.9549H356.506V82.3576H364.516V85.8207H369.278V82.9377H372.889V81.2062H378.664V83.2234H382.275V85.3878H386.89V80.1932H390.068L393.679 32.7232L397.143 77.4574H400.026V80.7733H401.758V78.756H405.802V81.3533H411.863V79.4746H414.028V84.0892H416.339V81.4918H418.937V82.6433H421.388V80.9118H422.834V82.4961H428.029V80.9118H432.939V109.915H0C0 109.915 0 83.8727 0 84.0892V84.0978Z" fill="#0022B0"/>
</svg>
