<svg width="16" height="16" viewBox="0 0 16 16" fill="none" xmlns="http://www.w3.org/2000/svg">
<path d="M12.5 10.5C12.0566 10.5004 11.6259 10.6479 11.2753 10.9193C10.9246 11.1908 10.674 11.5708 10.5625 12H4.5C3.96957 12 3.46086 11.7893 3.08579 11.4142C2.71071 11.0391 2.5 10.5304 2.5 10C2.5 9.46957 2.71071 8.96086 3.08579 8.58579C3.46086 8.21071 3.96957 8 4.5 8H10.5C11.163 8 11.7989 7.73661 12.2678 7.26777C12.7366 6.79893 13 6.16304 13 5.5C13 4.83696 12.7366 4.20107 12.2678 3.73223C11.7989 3.26339 11.163 3 10.5 3H4.5C4.36739 3 4.24021 3.05268 4.14645 3.14645C4.05268 3.24021 4 3.36739 4 3.5C4 3.63261 4.05268 3.75979 4.14645 3.85355C4.24021 3.94732 4.36739 4 4.5 4H10.5C10.8978 4 11.2794 4.15804 11.5607 4.43934C11.842 4.72064 12 5.10218 12 5.5C12 5.89782 11.842 6.27936 11.5607 6.56066C11.2794 6.84196 10.8978 7 10.5 7H4.5C3.70435 7 2.94129 7.31607 2.37868 7.87868C1.81607 8.44129 1.5 9.20435 1.5 10C1.5 10.7956 1.81607 11.5587 2.37868 12.1213C2.94129 12.6839 3.70435 13 4.5 13H10.5625C10.656 13.3621 10.8492 13.6908 11.1201 13.9487C11.391 14.2066 11.7288 14.3833 12.0952 14.4588C12.4615 14.5343 12.8416 14.5056 13.1925 14.3759C13.5433 14.2462 13.8507 14.0208 14.0798 13.7251C14.3089 13.4295 14.4506 13.0756 14.4886 12.7035C14.5267 12.3314 14.4596 11.9561 14.2951 11.6202C14.1305 11.2843 13.8751 11.0013 13.5578 10.8033C13.2405 10.6053 12.874 10.5002 12.5 10.5ZM12.5 13.5C12.3022 13.5 12.1089 13.4414 11.9444 13.3315C11.78 13.2216 11.6518 13.0654 11.5761 12.8827C11.5004 12.7 11.4806 12.4989 11.5192 12.3049C11.5578 12.1109 11.653 11.9327 11.7929 11.7929C11.9327 11.653 12.1109 11.5578 12.3049 11.5192C12.4989 11.4806 12.7 11.5004 12.8827 11.5761C13.0654 11.6518 13.2216 11.78 13.3315 11.9444C13.4414 12.1089 13.5 12.3022 13.5 12.5C13.5 12.7652 13.3946 13.0196 13.2071 13.2071C13.0196 13.3946 12.7652 13.5 12.5 13.5Z" fill="white"/>
</svg>
