<?xml version="1.0" encoding="utf-8"?>
<!-- Uploaded to: SVG Repo, www.svgrepo.com, Generator: SVG Repo Mixer Tools -->
<svg fill="#000000" height="800px" width="800px" version="1.1" id="Layer_1" xmlns="http://www.w3.org/2000/svg" xmlns:xlink="http://www.w3.org/1999/xlink" 
	 viewBox="0 0 256 256" xml:space="preserve">
<path d="M206.8,145.7V25.5h-31.4V2H80.8v23.5H49.2v120.2H3.7V254h45.6h1h155.5h1h45.6V145.7H206.8z M36.8,206.7H17.1v-27.6h19.7
	V206.7z M179.2,131.9v27.6h-19.7v-27.6H179.2z M96.5,206.6H76.7v-27.4h19.8V206.6z M96.5,159.5H76.7v-27.6h19.8V159.5z M137.7,206.6
	h-19.5v-27.4h19.5V206.6z M137.7,159.5h-19.5v-27.6h19.5V159.5z M137.9,96.6h-19.9V75H96.5V55.2h21.6V33.6h19.9v21.6h21.6V75h-21.6
	V96.6z M179.3,206.6h-19.8v-27.4h19.8V206.6z M238.9,206.7h-19.7v-27.6h19.7V206.7z"/>
</svg>