<svg width="12" height="16" viewBox="0 0 12 16" fill="none" xmlns="http://www.w3.org/2000/svg">
<path d="M5.62498 12.0221L5.88997 12.1877L10.5589 15.1053C10.559 15.1054 10.5591 15.1054 10.5592 15.1055C10.578 15.1171 10.5996 15.1236 10.6218 15.1242C10.6441 15.1247 10.6661 15.1193 10.6856 15.1085C10.7051 15.0977 10.7213 15.0819 10.7327 15.0627C10.744 15.0435 10.75 15.0216 10.75 14.9994V1.25C10.75 1.05109 10.671 0.860322 10.5303 0.719669M5.62498 12.0221L10.5303 0.719669M5.62498 12.0221L5.36 12.1877L0.691251 15.1057C0.672332 15.1175 0.650596 15.1241 0.628299 15.1246C0.605999 15.1252 0.583947 15.1198 0.564432 15.109C0.544916 15.0982 0.52865 15.0824 0.517322 15.0632C0.505992 15.044 0.500011 15.0221 0.5 14.9998L0.5 1.25C0.5 1.05109 0.579018 0.860322 0.71967 0.71967C0.860322 0.579018 1.05109 0.5 1.25 0.5H10C10.1989 0.5 10.3897 0.579017 10.5303 0.719669M5.62498 12.0221L10.8839 0.366116L10.5303 0.719669" stroke="#1D2433"/>
</svg>
