<svg width="32" height="32" viewBox="0 0 32 32" fill="none" xmlns="http://www.w3.org/2000/svg">
<rect width="32" height="32" rx="16" fill="#101928" fill-opacity="0.5"/>
<path d="M21.5 11H19V10.5C19 10.1022 18.842 9.72064 18.5607 9.43934C18.2794 9.15804 17.8978 9 17.5 9H14.5C14.1022 9 13.7206 9.15804 13.4393 9.43934C13.158 9.72064 13 10.1022 13 10.5V11H10.5C10.3674 11 10.2402 11.0527 10.1464 11.1464C10.0527 11.2402 10 11.3674 10 11.5C10 11.6326 10.0527 11.7598 10.1464 11.8536C10.2402 11.9473 10.3674 12 10.5 12H11V21C11 21.2652 11.1054 21.5196 11.2929 21.7071C11.4804 21.8946 11.7348 22 12 22H20C20.2652 22 20.5196 21.8946 20.7071 21.7071C20.8946 21.5196 21 21.2652 21 21V12H21.5C21.6326 12 21.7598 11.9473 21.8536 11.8536C21.9473 11.7598 22 11.6326 22 11.5C22 11.3674 21.9473 11.2402 21.8536 11.1464C21.7598 11.0527 21.6326 11 21.5 11ZM15 18.5C15 18.6326 14.9473 18.7598 14.8536 18.8536C14.7598 18.9473 14.6326 19 14.5 19C14.3674 19 14.2402 18.9473 14.1464 18.8536C14.0527 18.7598 14 18.6326 14 18.5V14.5C14 14.3674 14.0527 14.2402 14.1464 14.1464C14.2402 14.0527 14.3674 14 14.5 14C14.6326 14 14.7598 14.0527 14.8536 14.1464C14.9473 14.2402 15 14.3674 15 14.5V18.5ZM18 18.5C18 18.6326 17.9473 18.7598 17.8536 18.8536C17.7598 18.9473 17.6326 19 17.5 19C17.3674 19 17.2402 18.9473 17.1464 18.8536C17.0527 18.7598 17 18.6326 17 18.5V14.5C17 14.3674 17.0527 14.2402 17.1464 14.1464C17.2402 14.0527 17.3674 14 17.5 14C17.6326 14 17.7598 14.0527 17.8536 14.1464C17.9473 14.2402 18 14.3674 18 14.5V18.5ZM18 11H14V10.5C14 10.3674 14.0527 10.2402 14.1464 10.1464C14.2402 10.0527 14.3674 10 14.5 10H17.5C17.6326 10 17.7598 10.0527 17.8536 10.1464C17.9473 10.2402 18 10.3674 18 10.5V11Z" fill="#F9FAFB"/>
</svg>
