<svg width="44" height="44" viewBox="0 0 44 44" fill="none" xmlns="http://www.w3.org/2000/svg">
<circle cx="21.8441" cy="22.0003" r="21.6234" fill="#FFE500"/>
<path d="M7.82617 22.6499C7.82617 26.367 9.30276 29.9318 11.9311 32.5601C14.5595 35.1885 18.1243 36.6651 21.8413 36.6651C25.5584 36.6651 29.1232 35.1885 31.7515 32.5601C34.3799 29.9318 35.8565 26.367 35.8565 22.6499C35.8565 18.9329 34.3799 15.3681 31.7515 12.7397C29.1232 10.1114 25.5584 8.63477 21.8413 8.63477C18.1243 8.63477 14.5595 10.1114 11.9311 12.7397C9.30276 15.3681 7.82617 18.9329 7.82617 22.6499V22.6499Z" fill="#FFE500"/>
<path d="M21.8413 8.63477C19.0694 8.63477 16.3597 9.45674 14.0549 10.9967C11.7501 12.5367 9.95379 14.7256 8.89302 17.2866C7.83224 19.8475 7.5547 22.6655 8.09548 25.3841C8.63625 28.1028 9.97107 30.6001 11.9311 32.5601C13.8912 34.5202 16.3884 35.855 19.1071 36.3958C21.8258 36.9365 24.6438 36.659 27.2047 35.5982C29.7656 34.5375 31.9545 32.7411 33.4945 30.4363C35.0345 28.1315 35.8565 25.4219 35.8565 22.6499C35.8565 18.9329 34.3799 15.3681 31.7515 12.7397C29.1232 10.1114 25.5584 8.63477 21.8413 8.63477V8.63477ZM21.8413 34.5628C19.3119 34.5628 16.8394 33.8127 14.7362 32.4075C12.6331 31.0022 10.994 29.0049 10.026 26.668C9.05804 24.3312 8.80478 21.7598 9.29824 19.279C9.7917 16.7982 11.0097 14.5195 12.7983 12.7309C14.5868 10.9424 16.8656 9.72434 19.3464 9.23088C21.8271 8.73742 24.3985 8.99068 26.7354 9.95864C29.0723 10.9266 31.0696 12.5658 32.4748 14.6689C33.8801 16.772 34.6302 19.2446 34.6302 21.774C34.6302 25.1658 33.2828 28.4187 30.8844 30.817C28.486 33.2154 25.2331 34.5628 21.8413 34.5628V34.5628Z" fill="#EBCB00"/>
<path d="M17.6387 11.4359C17.6387 11.7147 18.0816 11.982 18.8702 12.1792C19.6587 12.3763 20.7281 12.487 21.8432 12.487C22.9583 12.487 24.0278 12.3763 24.8163 12.1792C25.6048 11.982 26.0478 11.7147 26.0478 11.4359C26.0478 11.1571 25.6048 10.8898 24.8163 10.6926C24.0278 10.4955 22.9583 10.3848 21.8432 10.3848C20.7281 10.3848 19.6587 10.4955 18.8702 10.6926C18.0816 10.8898 17.6387 11.1571 17.6387 11.4359Z" fill="#FFF48C"/>
<path opacity="0.15" d="M10.627 39.4691C10.627 39.7479 11.8082 40.0152 13.9109 40.2124C16.0136 40.4095 18.8654 40.5202 21.8391 40.5202C24.8127 40.5202 27.6646 40.4095 29.7672 40.2124C31.8699 40.0152 33.0512 39.7479 33.0512 39.4691C33.0512 39.1903 31.8699 38.923 29.7672 38.7258C27.6646 38.5287 24.8127 38.418 21.8391 38.418C18.8654 38.418 16.0136 38.5287 13.9109 38.7258C11.8082 38.923 10.627 39.1903 10.627 39.4691V39.4691Z" fill="#45413C"/>
<path d="M7.82617 22.6499C7.82617 26.367 9.30276 29.9318 11.9311 32.5601C14.5595 35.1885 18.1243 36.6651 21.8413 36.6651C25.5584 36.6651 29.1232 35.1885 31.7515 32.5601C34.3799 29.9318 35.8565 26.367 35.8565 22.6499C35.8565 18.9329 34.3799 15.3681 31.7515 12.7397C29.1232 10.1114 25.5584 8.63477 21.8413 8.63477C18.1243 8.63477 14.5595 10.1114 11.9311 12.7397C9.30276 15.3681 7.82617 18.9329 7.82617 22.6499V22.6499Z" stroke="#45413C" stroke-width="1.2013" stroke-linecap="round" stroke-linejoin="round"/>
<path d="M31.9999 26.1527C31.9999 26.7343 31.215 27.2038 30.248 27.2038C29.2809 27.2038 28.4961 26.7343 28.4961 26.1527C28.4961 25.5711 29.2809 25.1016 30.248 25.1016C31.215 25.1016 31.9999 25.5711 31.9999 26.1527Z" fill="#FFAA54"/>
<path d="M11.6797 26.1527C11.6797 26.7343 12.4645 27.2038 13.4316 27.2038C14.3986 27.2038 15.1835 26.7343 15.1835 26.1527C15.1835 25.5711 14.3986 25.1016 13.4316 25.1016C12.4645 25.1016 11.6797 25.5711 11.6797 26.1527Z" fill="#FFAA54"/>
<path d="M17.5966 28.2539C17.5019 28.2544 17.4085 28.2754 17.3226 28.3153C17.2368 28.3552 17.1605 28.4131 17.0991 28.4852C17.0385 28.5588 16.9936 28.644 16.9671 28.7355C16.9406 28.8271 16.933 28.9231 16.9449 29.0177C17.1325 30.1837 17.7292 31.2446 18.6281 32.0105C19.527 32.7764 20.6693 33.197 21.8502 33.197C23.0311 33.197 24.1734 32.7764 25.0723 32.0105C25.9712 31.2446 26.568 30.1837 26.7555 29.0177C26.7674 28.9231 26.7599 28.8271 26.7334 28.7355C26.7068 28.644 26.6619 28.5588 26.6014 28.4852C26.5399 28.4131 26.4637 28.3552 26.3778 28.3153C26.292 28.2754 26.1985 28.2544 26.1038 28.2539H17.5966Z" fill="#FFB0CA" stroke="#45413C" stroke-width="1.2013" stroke-linecap="round" stroke-linejoin="round"/>
<path d="M25.7459 31.2952C24.5443 30.6614 23.2007 30.3454 21.8427 30.3772C20.4846 30.3454 19.141 30.6614 17.9395 31.2952C18.4098 31.8774 19.0044 32.3471 19.6798 32.6698C20.3552 32.9924 21.0942 33.1599 21.8427 33.1599C22.5912 33.1599 23.3302 32.9924 24.0056 32.6698C24.6809 32.3471 25.2756 31.8774 25.7459 31.2952Z" fill="#FF87AF" stroke="#45413C" stroke-width="1.2013" stroke-linecap="round" stroke-linejoin="round"/>
<path d="M12.0312 23.5252C12.0312 23.1999 12.1605 22.888 12.3904 22.658C12.6204 22.428 12.9323 22.2988 13.2576 22.2988C13.5828 22.2988 13.8947 22.428 14.1247 22.658C14.3547 22.888 14.4839 23.1999 14.4839 23.5252" stroke="#45413C" stroke-width="1.2013" stroke-linecap="round" stroke-linejoin="round"/>
<path d="M29.2012 23.5252C29.2012 23.1999 29.3304 22.888 29.5604 22.658C29.7903 22.428 30.1023 22.2988 30.4275 22.2988C30.7527 22.2988 31.0647 22.428 31.2946 22.658C31.5246 22.888 31.6538 23.1999 31.6538 23.5252" stroke="#45413C" stroke-width="1.2013" stroke-linecap="round" stroke-linejoin="round"/>
</svg>
