<?xml version="1.0" encoding="UTF-8"?>
<svg xmlns="http://www.w3.org/2000/svg" xmlns:xlink="http://www.w3.org/1999/xlink" width="29px" height="29px" viewBox="0 0 29 28" version="1.1">
<g id="surface1">
<path style=" stroke:none;fill-rule:nonzero;fill:rgb(0%,0%,0%);fill-opacity:1;" d="M 15.886719 6.140625 L 15.886719 7.859375 C 16.269531 7.828125 16.671875 7.769531 17.09375 7.671875 C 16.703125 7.011719 16.238281 6.488281 15.886719 6.140625 Z M 15.886719 6.140625 "/>
<path style=" stroke:none;fill-rule:nonzero;fill:rgb(0%,0%,0%);fill-opacity:1;" d="M 18.28125 12.175781 C 18.664062 12.308594 19.054688 12.476562 19.460938 12.679688 C 19.855469 12.078125 20.109375 11.378906 20.171875 10.628906 L 18.625 10.628906 C 18.589844 11.152344 18.476562 11.664062 18.28125 12.175781 Z M 18.28125 12.175781 "/>
<path style=" stroke:none;fill-rule:nonzero;fill:rgb(0%,0%,0%);fill-opacity:1;" d="M 15.121094 14.273438 L 15.121094 12.386719 C 14.644531 12.402344 14.207031 12.460938 13.816406 12.546875 C 14.128906 13.128906 14.566406 13.707031 15.121094 14.273438 Z M 15.121094 14.273438 "/>
<path style=" stroke:none;fill-rule:nonzero;fill:rgb(0%,0%,0%);fill-opacity:1;" d="M 11.992188 13.25 C 12.632812 13.945312 13.488281 14.453125 14.457031 14.667969 C 13.867188 14.042969 13.402344 13.40625 13.074219 12.757812 C 12.578125 12.925781 12.210938 13.117188 11.992188 13.25 Z M 11.992188 13.25 "/>
<path style=" stroke:none;fill-rule:nonzero;fill:rgb(0%,0%,0%);fill-opacity:1;" d="M 18.179688 8.125 C 18.40625 8.660156 18.570312 9.253906 18.621094 9.890625 L 20.171875 9.890625 C 20.101562 9.0625 19.796875 8.292969 19.324219 7.652344 C 18.933594 7.839844 18.550781 7.996094 18.179688 8.125 Z M 18.179688 8.125 "/>
<path style=" stroke:none;fill-rule:nonzero;fill:rgb(0%,0%,0%);fill-opacity:1;" d="M 5.742188 2.351562 L 7.671875 2.351562 L 7.671875 25.648438 L 5.742188 25.648438 Z M 5.742188 2.351562 "/>
<path style=" stroke:none;fill-rule:nonzero;fill:rgb(0%,0%,0%);fill-opacity:1;" d="M 18.816406 7.070312 C 18.238281 6.507812 17.511719 6.097656 16.695312 5.886719 C 17.066406 6.285156 17.492188 6.8125 17.851562 7.453125 C 18.164062 7.347656 18.488281 7.21875 18.816406 7.070312 Z M 18.816406 7.070312 "/>
<path style=" stroke:none;fill-rule:nonzero;fill:rgb(0%,0%,0%);fill-opacity:1;" d="M 12.46875 10.628906 L 10.835938 10.628906 C 10.898438 11.371094 11.148438 12.058594 11.535156 12.65625 C 11.777344 12.507812 12.199219 12.277344 12.777344 12.078125 C 12.605469 11.601562 12.5 11.117188 12.46875 10.628906 Z M 12.46875 10.628906 "/>
<path style=" stroke:none;fill-rule:nonzero;fill:rgb(0%,0%,0%);fill-opacity:1;" d="M 14.421875 5.863281 C 13.546875 6.0625 12.761719 6.503906 12.15625 7.105469 C 12.398438 7.238281 12.746094 7.402344 13.191406 7.546875 C 13.570312 6.851562 14.03125 6.28125 14.421875 5.863281 Z M 14.421875 5.863281 "/>
<path style=" stroke:none;fill-rule:nonzero;fill:rgb(0%,0%,0%);fill-opacity:1;" d="M 12.875 8.21875 C 12.339844 8.042969 11.929688 7.835938 11.660156 7.683594 C 11.199219 8.320312 10.90625 9.074219 10.835938 9.890625 L 12.472656 9.890625 C 12.519531 9.289062 12.667969 8.730469 12.875 8.21875 Z M 12.875 8.21875 "/>
<path style=" stroke:none;fill-rule:nonzero;fill:rgb(0%,0%,0%);fill-opacity:1;" d="M 13.511719 11.859375 C 13.984375 11.746094 14.523438 11.664062 15.121094 11.648438 L 15.121094 10.628906 L 13.234375 10.628906 C 13.269531 11.042969 13.359375 11.453125 13.511719 11.859375 Z M 13.511719 11.859375 "/>
<path style=" stroke:none;fill-rule:nonzero;fill:rgb(0%,0%,0%);fill-opacity:1;" d="M 13.238281 9.890625 L 15.121094 9.890625 L 15.121094 8.617188 C 14.566406 8.601562 14.0625 8.527344 13.613281 8.425781 C 13.425781 8.875 13.285156 9.367188 13.238281 9.890625 Z M 13.238281 9.890625 "/>
<path style=" stroke:none;fill-rule:nonzero;fill:rgb(0%,0%,0%);fill-opacity:1;" d="M 15.121094 7.875 L 15.121094 6.226562 C 14.769531 6.585938 14.324219 7.105469 13.957031 7.746094 C 14.308594 7.816406 14.699219 7.863281 15.121094 7.875 Z M 15.121094 7.875 "/>
<path style=" stroke:none;fill-rule:nonzero;fill:rgb(0%,0%,0%);fill-opacity:1;" d="M 16.660156 14.640625 C 17.574219 14.417969 18.378906 13.933594 18.992188 13.277344 C 18.640625 13.109375 18.304688 12.96875 17.972656 12.851562 C 17.652344 13.460938 17.210938 14.058594 16.660156 14.640625 Z M 16.660156 14.640625 "/>
<path style=" stroke:none;fill-rule:nonzero;fill:rgb(0%,0%,0%);fill-opacity:1;" d="M 17.859375 10.628906 L 15.886719 10.628906 L 15.886719 11.664062 C 16.40625 11.699219 16.964844 11.785156 17.554688 11.945312 C 17.722656 11.511719 17.824219 11.070312 17.859375 10.628906 Z M 17.859375 10.628906 "/>
<path style=" stroke:none;fill-rule:nonzero;fill:rgb(0%,0%,0%);fill-opacity:1;" d="M 23.257812 23.402344 L 23.257812 4.597656 C 23.257812 3.355469 22.21875 2.351562 20.933594 2.351562 L 8.328125 2.351562 L 8.328125 25.648438 L 20.933594 25.648438 C 22.21875 25.648438 23.257812 24.644531 23.257812 23.402344 Z M 16.921875 22.96875 L 10.886719 22.96875 L 10.886719 22.226562 L 16.921875 22.226562 Z M 20.125 22.96875 L 18.257812 22.96875 L 18.257812 22.226562 L 20.125 22.226562 Z M 20.125 20.867188 L 10.886719 20.867188 L 10.886719 20.125 L 20.125 20.125 Z M 12.25 18.765625 L 12.25 18.023438 L 18.757812 18.023438 L 18.757812 18.765625 Z M 15.503906 15.523438 C 12.5 15.523438 10.054688 13.160156 10.054688 10.261719 C 10.054688 7.359375 12.5 5 15.503906 5 C 18.507812 5 20.953125 7.359375 20.953125 10.261719 C 20.953125 13.160156 18.507812 15.523438 15.503906 15.523438 Z M 15.503906 15.523438 "/>
<path style=" stroke:none;fill-rule:nonzero;fill:rgb(0%,0%,0%);fill-opacity:1;" d="M 17.445312 8.347656 C 16.894531 8.488281 16.375 8.566406 15.886719 8.601562 L 15.886719 9.890625 L 17.855469 9.890625 C 17.804688 9.335938 17.652344 8.816406 17.445312 8.347656 Z M 17.445312 8.347656 "/>
<path style=" stroke:none;fill-rule:nonzero;fill:rgb(0%,0%,0%);fill-opacity:1;" d="M 15.886719 12.40625 L 15.886719 14.359375 C 16.457031 13.789062 16.90625 13.210938 17.230469 12.625 C 16.757812 12.507812 16.308594 12.4375 15.886719 12.40625 Z M 15.886719 12.40625 "/>
</g>
</svg>
