<svg width="18" height="10" viewBox="0 0 18 10" fill="none" xmlns="http://www.w3.org/2000/svg">
<path d="M0.968956 8.46969L8.46896 0.969689C8.53861 0.899957 8.62133 0.844638 8.71238 0.806894C8.80343 0.769151 8.90102 0.749725 8.99958 0.749725C9.09814 0.749725 9.19574 0.769151 9.28679 0.806894C9.37784 0.844638 9.46055 0.899957 9.53021 0.969689L17.0302 8.46969C17.1709 8.61042 17.25 8.80129 17.25 9.00032C17.25 9.19934 17.1709 9.39021 17.0302 9.53094C16.8895 9.67167 16.6986 9.75073 16.4996 9.75073C16.3006 9.75073 16.1097 9.67167 15.969 9.53094L8.99958 2.56063L2.03021 9.53094C1.96052 9.60062 1.8778 9.6559 1.78675 9.69361C1.69571 9.73132 1.59813 9.75073 1.49958 9.75073C1.40104 9.75073 1.30345 9.73132 1.21241 9.69361C1.12136 9.6559 1.03864 9.60062 0.968956 9.53094C0.899275 9.46126 0.844 9.37853 0.806288 9.28749C0.768576 9.19644 0.749165 9.09886 0.749165 9.00032C0.749165 8.90177 0.768576 8.80419 0.806288 8.71314C0.844 8.6221 0.899275 8.53937 0.968956 8.46969Z" fill="#343330"/>
</svg>
