<?xml version="1.0" encoding="UTF-8"?>
<svg xmlns="http://www.w3.org/2000/svg" xmlns:xlink="http://www.w3.org/1999/xlink" width="29px" height="29px" viewBox="0 0 29 28" version="1.1">
<g id="surface1">
<path style=" stroke:none;fill-rule:nonzero;fill:rgb(0%,0%,0%);fill-opacity:1;" d="M 23.425781 15.9375 L 23.425781 2.789062 L 19.871094 2.789062 L 19.871094 0.21875 L 9.152344 0.21875 L 9.152344 2.789062 L 5.574219 2.789062 L 5.574219 15.9375 L 0.417969 15.9375 L 0.417969 27.78125 L 28.59375 27.78125 L 28.59375 15.9375 Z M 4.167969 22.609375 L 1.9375 22.609375 L 1.9375 19.589844 L 4.167969 19.589844 Z M 20.300781 14.425781 L 20.300781 17.445312 L 18.066406 17.445312 L 18.066406 14.425781 Z M 10.929688 22.597656 L 8.6875 22.597656 L 8.6875 19.601562 L 10.929688 19.601562 Z M 10.929688 17.445312 L 8.6875 17.445312 L 8.6875 14.425781 L 10.929688 14.425781 Z M 15.597656 22.597656 L 13.390625 22.597656 L 13.390625 19.601562 L 15.597656 19.601562 Z M 15.597656 17.445312 L 13.390625 17.445312 L 13.390625 14.425781 L 15.597656 14.425781 Z M 15.621094 10.566406 L 13.367188 10.566406 L 13.367188 8.203125 L 10.929688 8.203125 L 10.929688 6.039062 L 13.378906 6.039062 L 13.378906 3.675781 L 15.632812 3.675781 L 15.632812 6.039062 L 18.078125 6.039062 L 18.078125 8.203125 L 15.632812 8.203125 L 15.632812 10.566406 Z M 20.3125 22.597656 L 18.066406 22.597656 L 18.066406 19.601562 L 20.3125 19.601562 Z M 27.0625 22.609375 L 24.832031 22.609375 L 24.832031 19.589844 L 27.0625 19.589844 Z M 27.0625 22.609375 "/>
</g>
</svg>
