<svg width="48" height="28" viewBox="0 0 48 28" fill="none" xmlns="http://www.w3.org/2000/svg">
<circle cx="4" cy="4" r="4" fill="#0D6EFD"/>
<circle cx="14" cy="4" r="4" fill="#E7F0FF"/>
<circle cx="24" cy="4" r="4" fill="#E7F0FF"/>
<circle cx="34" cy="4" r="4" fill="#E7F0FF"/>
<circle cx="44" cy="4" r="4" fill="#E7F0FF"/>
<path d="M17.63 16.8V15.95H19.65V23H18.69V16.8H17.63ZM23.8611 13.58L21.1211 24.71H20.2411L22.9711 13.58H23.8611ZM29.0216 16.67H25.4016V19.03C25.5682 18.8033 25.8082 18.6233 26.1216 18.49C26.4349 18.3567 26.7782 18.29 27.1516 18.29C27.6516 18.29 28.0649 18.3967 28.3916 18.61C28.7249 18.8167 28.9682 19.0933 29.1216 19.44C29.2816 19.78 29.3616 20.16 29.3616 20.58C29.3616 21.3067 29.1582 21.9 28.7516 22.36C28.3449 22.82 27.7482 23.05 26.9616 23.05C26.2549 23.05 25.6782 22.86 25.2316 22.48C24.7849 22.0933 24.5349 21.5767 24.4816 20.93H25.3816C25.4549 21.3433 25.6249 21.6667 25.8916 21.9C26.1649 22.1267 26.5082 22.24 26.9216 22.24C27.4349 22.24 27.8216 22.0867 28.0816 21.78C28.3416 21.4733 28.4716 21.07 28.4716 20.57C28.4716 20.0833 28.3382 19.7033 28.0716 19.43C27.8049 19.1567 27.4282 19.02 26.9416 19.02C26.5949 19.02 26.2916 19.0967 26.0316 19.25C25.7716 19.3967 25.5749 19.5967 25.4416 19.85H24.5616V15.86H29.0216V16.67Z" fill="black"/>
</svg>
