<svg width="34" height="35" viewBox="0 0 34 35" fill="none" xmlns="http://www.w3.org/2000/svg">
<path d="M22.2901 15.3381C22.3772 10.9614 15.729 11.5629 17.4386 3.94922C17.4386 3.94922 12.9748 5.70622 13.7583 11.096C14.0274 12.9479 13.3784 14.333 13.3784 14.333C12.7215 14.4675 11.7006 13.1616 12.0567 11.1434C12.0567 11.1434 9.71406 12.8925 9.71406 15.1402C9.71406 17.3879 10.7983 19.7702 10.7983 19.7702C8.09952 19.1845 8.36861 15.5439 8.36861 15.5439C8.36861 15.5439 6.65909 17.8311 6.65909 22.1445C6.65909 25.5002 10.4422 30.8583 16.5442 30.8583C22.6463 30.8583 27.5453 26.1255 27.5453 21.915C27.5453 20.0709 26.9201 17.6887 25.5667 16.3907C25.5667 16.3907 25.7487 20.0709 23.9284 19.8968C23.9284 19.8968 25.4321 15.0927 23.8572 12.8925C23.8572 12.8925 23.0974 15.2669 22.2901 15.3381Z" fill="url(#paint0_linear_1316_6072)"/>
<path d="M22.2981 12.0377C24.0709 8.76901 19.6784 8.31789 19.6705 6.30762C19.6705 6.30762 18.8949 8.3812 20.7468 9.79789C22.2585 10.9455 22.2981 12.0377 22.2981 12.0377Z" fill="url(#paint1_linear_1316_6072)"/>
<path d="M12.9748 5.78613C12.302 6.45095 13.228 9.19726 11.1228 10.2815C11.1228 10.2815 10.4105 7.26613 12.9748 5.78613Z" fill="url(#paint2_linear_1316_6072)"/>
<path opacity="0.5" d="M8.04412 16.6432C7.45845 17.6484 6.65909 19.5083 6.65909 22.1438C6.65909 25.0879 10.4105 30.5014 16.5442 30.5014C22.5355 30.5014 27.1891 25.8873 27.1891 21.9222C27.1891 20.4896 26.7934 18.6614 25.9149 17.3634C25.8516 18.1786 25.6537 19.2867 25.0443 19.8644C24.7278 20.1652 24.332 20.2997 23.8967 20.2522L23.4535 20.2126L23.5881 19.7932C23.6039 19.7536 24.7515 16.0022 23.9205 13.7782C23.5881 14.5934 23.0182 15.646 22.3218 15.7014L21.926 15.7331L21.934 15.3373C21.9656 13.6991 20.9605 12.8285 19.7971 11.8233C18.135 10.3829 16.2593 8.75253 16.9479 4.61328C15.7924 5.29392 13.5447 7.16964 14.1066 11.0398C14.3915 12.9788 13.7188 14.4193 13.695 14.4826L13.6159 14.6488L13.4418 14.6804C13.1094 14.7438 12.7611 14.6092 12.4445 14.3085C12.0172 13.889 11.6294 13.0976 11.6135 12.0212C10.9645 12.686 10.0702 13.8336 10.0702 15.1395C10.0702 17.2843 11.1149 19.5953 11.1228 19.6191L11.4157 20.268L10.7192 20.1177C8.89887 19.7219 8.21823 18.0283 8.04412 16.6432Z" fill="url(#paint3_linear_1316_6072)"/>
<path d="M19.6705 6.30762C19.5122 7.5027 19.987 9.22013 20.7468 9.79789C21.4433 10.3282 22.2268 11.2383 22.2901 12.0377C23.4773 9.71083 21.8074 8.84815 20.8497 8.50783C20.4461 8.36537 19.7021 7.53436 19.6705 6.30762Z" fill="url(#paint4_radial_1316_6072)"/>
<path d="M16.0219 5.9668C13.3943 10.0823 16.8055 14.4273 15.0485 17.0312C13.2915 19.635 11.5107 17.229 11.392 15.5987C11.392 15.5987 11.4078 20.8697 14.0117 22.9512C16.6155 25.0327 9.00183 24.5816 7.95712 22.041C7.95712 22.041 7.95712 30.5016 16.5443 30.5016C25.1315 30.5016 26.564 22.6267 26.564 22.6267C26.564 22.6267 23.4378 25.2939 21.3563 23.2124C21.3563 23.2124 22.9154 20.4819 23.3111 17.6802C23.3111 17.6802 22.2348 18.3608 20.5807 18.0996C20.5807 18.0996 21.4987 14.1662 19.623 12.8761C17.217 11.222 15.183 7.28059 16.0219 5.9668Z" fill="url(#paint5_linear_1316_6072)"/>
<path d="M16.6787 10.8125C15.3016 12.6249 17.9846 17.2786 15.1671 19.1227C13.6079 20.1436 12.7136 18.9169 12.7136 18.9169C12.7136 18.9169 13.1331 20.8005 14.8109 22.4784C16.4888 24.1562 12.2862 26.4277 8.87509 23.4914C8.87509 23.4914 10.0464 30.5432 17.9846 29.356C26.7459 28.0501 26.0969 21.5366 26.0969 21.5366C26.0969 21.5366 23.7226 25.2722 20.3431 23.4835C20.3431 23.4835 22.4721 20.5156 22.4721 18.814C22.4721 18.814 21.0317 19.6688 19.3855 18.8457C19.3855 18.8457 20.169 14.8884 19.2351 14.2949C16.9953 12.8623 16.6787 10.8125 16.6787 10.8125Z" fill="url(#paint6_linear_1316_6072)"/>
<path opacity="0.5" d="M22.2901 15.3381C22.3772 10.9614 15.729 11.5629 17.4386 3.94922C17.4386 3.94922 12.9748 5.70622 13.7583 11.096C14.0274 12.9479 13.3784 14.333 13.3784 14.333C12.7215 14.4675 11.7006 13.1616 12.0567 11.1434C12.0567 11.1434 9.71406 12.8925 9.71406 15.1402C9.71406 17.3879 10.7983 19.7702 10.7983 19.7702C8.09952 19.1845 8.36861 15.5439 8.36861 15.5439C8.36861 15.5439 6.65909 17.8311 6.65909 22.1445C6.65909 25.5002 10.4422 30.8583 16.5442 30.8583C22.6463 30.8583 27.5453 26.1255 27.5453 21.915C27.5453 20.0709 26.9201 17.6887 25.5667 16.3907C25.5667 16.3907 25.7487 20.0709 23.9284 19.8968C23.9284 19.8968 25.4321 15.0927 23.8572 12.8925C23.8572 12.8925 23.0974 15.2669 22.2901 15.3381Z" fill="url(#paint7_radial_1316_6072)"/>
<path opacity="0.5" d="M22.2901 15.3381C22.3772 10.9614 15.729 11.5629 17.4386 3.94922C17.4386 3.94922 12.9748 5.70622 13.7583 11.096C14.0274 12.9479 13.3784 14.333 13.3784 14.333C12.7215 14.4675 11.7006 13.1616 12.0567 11.1434C12.0567 11.1434 9.71406 12.8925 9.71406 15.1402C9.71406 17.3879 10.7983 19.7702 10.7983 19.7702C8.09952 19.1845 8.36861 15.5439 8.36861 15.5439C8.36861 15.5439 6.65909 17.8311 6.65909 22.1445C6.65909 25.5002 10.4422 30.8583 16.5442 30.8583C22.6463 30.8583 27.5453 26.1255 27.5453 21.915C27.5453 20.0709 26.9201 17.6887 25.5667 16.3907C25.5667 16.3907 25.7487 20.0709 23.9284 19.8968C23.9284 19.8968 25.4321 15.0927 23.8572 12.8925C23.8572 12.8925 23.0974 15.2669 22.2901 15.3381Z" fill="url(#paint8_radial_1316_6072)"/>
<path d="M7.1972 20.3088C7.37924 24.7805 11.0594 30.1385 16.8132 30.1385C22.567 30.1385 25.44 24.0682 25.622 20.5146C25.622 20.5146 24.5456 22.604 22.1159 23.0235C19.6862 23.4429 22.2821 18.8446 20.5805 16.1221C20.5805 16.1221 19.0768 20.8628 16.9399 21.0369C14.803 21.2111 12.9906 17.9028 12.9906 16.1221C12.9906 16.1221 11.6768 19.3274 12.0013 21.8759C12.4999 25.746 7.1972 20.3088 7.1972 20.3088Z" fill="url(#paint9_radial_1316_6072)"/>
<path opacity="0.5" d="M22.2901 15.3381C22.3772 10.9614 15.729 11.5629 17.4386 3.94922C17.4386 3.94922 12.9748 5.70622 13.7583 11.096C14.0274 12.9479 13.3784 14.333 13.3784 14.333C12.7215 14.4675 11.7006 13.1616 12.0567 11.1434C12.0567 11.1434 9.71406 12.8925 9.71406 15.1402C9.71406 17.3879 10.7983 19.7702 10.7983 19.7702C8.09952 19.1845 8.36861 15.5439 8.36861 15.5439C8.36861 15.5439 6.65909 17.8311 6.65909 22.1445C6.65909 25.5002 10.4422 30.8583 16.5442 30.8583C22.6463 30.8583 27.5453 26.1255 27.5453 21.915C27.5453 20.0709 26.9201 17.6887 25.5667 16.3907C25.5667 16.3907 25.7487 20.0709 23.9284 19.8968C23.9284 19.8968 25.4321 15.0927 23.8572 12.8925C23.8572 12.8925 23.0974 15.2669 22.2901 15.3381Z" fill="url(#paint10_radial_1316_6072)"/>
<path opacity="0.5" d="M22.2981 12.0377C24.0709 8.76901 19.6784 8.31789 19.6705 6.30762C19.6705 6.30762 18.8949 8.3812 20.7468 9.79789C22.2585 10.9455 22.2981 12.0377 22.2981 12.0377Z" fill="url(#paint11_radial_1316_6072)"/>
<path d="M12.9748 5.78613C12.3099 6.45095 12.7373 8.54827 11.1228 10.2815C11.1228 10.2815 10.4105 7.26613 12.9748 5.78613Z" fill="url(#paint12_radial_1316_6072)"/>
<path opacity="0.5" d="M12.9748 5.78613C12.302 6.45095 13.228 9.19726 11.1228 10.2815C11.1228 10.2815 10.4105 7.26613 12.9748 5.78613Z" fill="url(#paint13_radial_1316_6072)"/>
<path opacity="0.5" d="M22.2901 15.3381C22.3772 10.9614 15.729 11.5629 17.4386 3.94922C17.4386 3.94922 12.9748 5.70622 13.7583 11.096C14.0274 12.9479 13.3784 14.333 13.3784 14.333C12.7215 14.4675 11.7006 13.1616 12.0567 11.1434C12.0567 11.1434 9.71406 12.8925 9.71406 15.1402C9.71406 17.3879 10.7983 19.7702 10.7983 19.7702C8.09952 19.1845 8.36861 15.5439 8.36861 15.5439C8.36861 15.5439 6.65909 17.8311 6.65909 22.1445C6.65909 25.5002 10.4422 30.8583 16.5442 30.8583C22.6463 30.8583 27.5453 26.1255 27.5453 21.915C27.5453 20.0709 26.9201 17.6887 25.5667 16.3907C25.5667 16.3907 25.7487 20.0709 23.9284 19.8968C23.9284 19.8968 25.4321 15.0927 23.8572 12.8925C23.8572 12.8925 23.0974 15.2669 22.2901 15.3381Z" fill="url(#paint14_radial_1316_6072)"/>
<path opacity="0.25" d="M22.2901 15.3381C22.3772 10.9614 15.729 11.5629 17.4386 3.94922C17.4386 3.94922 12.9748 5.70622 13.7583 11.096C14.0274 12.9479 13.3784 14.333 13.3784 14.333C12.7215 14.4675 11.7006 13.1616 12.0567 11.1434C12.0567 11.1434 9.71406 12.8925 9.71406 15.1402C9.71406 17.3879 10.7983 19.7702 10.7983 19.7702C8.09952 19.1845 8.36861 15.5439 8.36861 15.5439C8.36861 15.5439 6.65909 17.8311 6.65909 22.1445C6.65909 25.5002 10.4422 30.8583 16.5442 30.8583C22.6463 30.8583 27.5453 26.1255 27.5453 21.915C27.5453 20.0709 26.9201 17.6887 25.5667 16.3907C25.5667 16.3907 25.7487 20.0709 23.9284 19.8968C23.9284 19.8968 25.4321 15.0927 23.8572 12.8925C23.8572 12.8925 23.0974 15.2669 22.2901 15.3381Z" fill="url(#paint15_radial_1316_6072)"/>
<path opacity="0.25" d="M22.2901 15.3381C22.3772 10.9614 15.729 11.5629 17.4386 3.94922C17.4386 3.94922 12.9748 5.70622 13.7583 11.096C14.0274 12.9479 13.3784 14.333 13.3784 14.333C12.7215 14.4675 11.7006 13.1616 12.0567 11.1434C12.0567 11.1434 9.71406 12.8925 9.71406 15.1402C9.71406 17.3879 10.7983 19.7702 10.7983 19.7702C8.09952 19.1845 8.36861 15.5439 8.36861 15.5439C8.36861 15.5439 6.65909 17.8311 6.65909 22.1445C6.65909 25.5002 10.4422 30.8583 16.5442 30.8583C22.6463 30.8583 27.5453 26.1255 27.5453 21.915C27.5453 20.0709 26.9201 17.6887 25.5667 16.3907C25.5667 16.3907 25.7487 20.0709 23.9284 19.8968C23.9284 19.8968 25.4321 15.0927 23.8572 12.8925C23.8572 12.8925 23.0974 15.2669 22.2901 15.3381Z" fill="url(#paint16_radial_1316_6072)"/>
<path opacity="0.25" d="M22.2901 15.3381C22.3772 10.9614 15.729 11.5629 17.4386 3.94922C17.4386 3.94922 12.9748 5.70622 13.7583 11.096C14.0274 12.9479 13.3784 14.333 13.3784 14.333C12.7215 14.4675 11.7006 13.1616 12.0567 11.1434C12.0567 11.1434 9.71406 12.8925 9.71406 15.1402C9.71406 17.3879 10.7983 19.7702 10.7983 19.7702C8.09952 19.1845 8.36861 15.5439 8.36861 15.5439C8.36861 15.5439 6.65909 17.8311 6.65909 22.1445C6.65909 25.5002 10.4422 30.8583 16.5442 30.8583C22.6463 30.8583 27.5453 26.1255 27.5453 21.915C27.5453 20.0709 26.9201 17.6887 25.5667 16.3907C25.5667 16.3907 25.7487 20.0709 23.9284 19.8968C23.9284 19.8968 25.4321 15.0927 23.8572 12.8925C23.8572 12.8925 23.0974 15.2669 22.2901 15.3381Z" fill="url(#paint17_radial_1316_6072)"/>
<defs>
<linearGradient id="paint0_linear_1316_6072" x1="18.4406" y1="31.6021" x2="13.5889" y2="-3.55795" gradientUnits="userSpaceOnUse">
<stop stop-color="#FF0000"/>
<stop offset="0.2317" stop-color="#FF1500"/>
<stop offset="0.7367" stop-color="#FF3D00"/>
<stop offset="0.9987" stop-color="#FF4C00"/>
</linearGradient>
<linearGradient id="paint1_linear_1316_6072" x1="24.1259" y1="30.8175" x2="19.2741" y2="-4.34255" gradientUnits="userSpaceOnUse">
<stop stop-color="#FF0000"/>
<stop offset="0.2317" stop-color="#FF1500"/>
<stop offset="0.7367" stop-color="#FF3D00"/>
<stop offset="0.9987" stop-color="#FF4C00"/>
</linearGradient>
<linearGradient id="paint2_linear_1316_6072" x1="15.3538" y1="32.0288" x2="10.5021" y2="-3.13125" gradientUnits="userSpaceOnUse">
<stop stop-color="#FF0000"/>
<stop offset="0.2317" stop-color="#FF1500"/>
<stop offset="0.7367" stop-color="#FF3D00"/>
<stop offset="0.9987" stop-color="#FF4C00"/>
</linearGradient>
<linearGradient id="paint3_linear_1316_6072" x1="18.3099" y1="25.6122" x2="7.70796" y2="-4.66616" gradientUnits="userSpaceOnUse">
<stop stop-color="#FF8000"/>
<stop offset="0.6388" stop-color="#FF5B00"/>
<stop offset="0.9987" stop-color="#FF4C00"/>
</linearGradient>
<radialGradient id="paint4_radial_1316_6072" cx="0" cy="0" r="1" gradientUnits="userSpaceOnUse" gradientTransform="translate(22.8505 0.971243) scale(14.1281 14.1281)">
<stop offset="0.00134333" stop-color="#FFED1C" stop-opacity="0.6"/>
<stop offset="0.9477" stop-color="#FFED1C" stop-opacity="0.0264782"/>
<stop offset="0.9914" stop-color="#FFED1C" stop-opacity="0"/>
</radialGradient>
<linearGradient id="paint5_linear_1316_6072" x1="14.1931" y1="5.40733" x2="18.0265" y2="26.9106" gradientUnits="userSpaceOnUse">
<stop stop-color="#FF8000"/>
<stop offset="0.022669" stop-color="#FE7F02" stop-opacity="0.9773"/>
<stop offset="0.6663" stop-color="#ED582A" stop-opacity="0.3337"/>
<stop offset="1" stop-color="#E74939" stop-opacity="0"/>
</linearGradient>
<linearGradient id="paint6_linear_1316_6072" x1="17.1698" y1="28.646" x2="17.9984" y2="13.5474" gradientUnits="userSpaceOnUse">
<stop stop-color="#FFBC47"/>
<stop offset="0.1869" stop-color="#FFB137" stop-opacity="0.8131"/>
<stop offset="0.7223" stop-color="#FF940F" stop-opacity="0.2777"/>
<stop offset="1" stop-color="#FF8900" stop-opacity="0"/>
</linearGradient>
<radialGradient id="paint7_radial_1316_6072" cx="0" cy="0" r="1" gradientUnits="userSpaceOnUse" gradientTransform="translate(16.9639 24.5699) scale(10.9289 8.87205)">
<stop offset="0.00134333" stop-color="#FFBC47"/>
<stop offset="0.2941" stop-color="#FFBF4B" stop-opacity="0.7068"/>
<stop offset="0.5624" stop-color="#FEC656" stop-opacity="0.4382"/>
<stop offset="0.8201" stop-color="#FCD368" stop-opacity="0.1801"/>
<stop offset="1" stop-color="#FBE07A" stop-opacity="0"/>
</radialGradient>
<radialGradient id="paint8_radial_1316_6072" cx="0" cy="0" r="1" gradientUnits="userSpaceOnUse" gradientTransform="translate(16.9639 24.1206) scale(10.5921 8.59866)">
<stop offset="0.00134333" stop-color="white"/>
<stop offset="1" stop-color="white" stop-opacity="0"/>
</radialGradient>
<radialGradient id="paint9_radial_1316_6072" cx="0" cy="0" r="1" gradientUnits="userSpaceOnUse" gradientTransform="translate(12.3194 26.0748) scale(13.0116 15.1495)">
<stop offset="0.00134333" stop-color="#FFED1C" stop-opacity="0.6"/>
<stop offset="0.9477" stop-color="#FFED1C" stop-opacity="0.0264782"/>
<stop offset="0.9914" stop-color="#FFED1C" stop-opacity="0"/>
</radialGradient>
<radialGradient id="paint10_radial_1316_6072" cx="0" cy="0" r="1" gradientUnits="userSpaceOnUse" gradientTransform="translate(16.9645 24.1195) rotate(92.8876) scale(4.1123 3.33819)">
<stop offset="0.00134333" stop-color="white"/>
<stop offset="1" stop-color="white" stop-opacity="0"/>
</radialGradient>
<radialGradient id="paint11_radial_1316_6072" cx="0" cy="0" r="1" gradientUnits="userSpaceOnUse" gradientTransform="translate(19.2377 6.30011) scale(4.6678 4.6678)">
<stop offset="0.00134333" stop-color="#FFED1C"/>
<stop offset="0.1997" stop-color="#FFEE2B" stop-opacity="0.8013"/>
<stop offset="0.5839" stop-color="#FFF254" stop-opacity="0.4167"/>
<stop offset="1" stop-color="#FFF686" stop-opacity="0"/>
</radialGradient>
<radialGradient id="paint12_radial_1316_6072" cx="0" cy="0" r="1" gradientUnits="userSpaceOnUse" gradientTransform="translate(11.5406 8.54709) rotate(-56.4116) scale(3.78101 0.858683)">
<stop offset="0.00134333" stop-color="#FFED1C" stop-opacity="0.6"/>
<stop offset="0.9477" stop-color="#FFED1C" stop-opacity="0.0264782"/>
<stop offset="0.9914" stop-color="#FFED1C" stop-opacity="0"/>
</radialGradient>
<radialGradient id="paint13_radial_1316_6072" cx="0" cy="0" r="1" gradientUnits="userSpaceOnUse" gradientTransform="translate(12.2894 5.58216) rotate(95.0573) scale(3.39743 1.36702)">
<stop offset="0.00134333" stop-color="#FFED1C"/>
<stop offset="0.1997" stop-color="#FFEE2B" stop-opacity="0.8013"/>
<stop offset="0.5839" stop-color="#FFF254" stop-opacity="0.4167"/>
<stop offset="1" stop-color="#FFF686" stop-opacity="0"/>
</radialGradient>
<radialGradient id="paint14_radial_1316_6072" cx="0" cy="0" r="1" gradientUnits="userSpaceOnUse" gradientTransform="translate(18.2004 5.70123) scale(14.5649 14.5649)">
<stop offset="0.00134333" stop-color="#FF4C00"/>
<stop offset="0.135" stop-color="#FF5B0C" stop-opacity="0.8661"/>
<stop offset="0.3941" stop-color="#FF842C" stop-opacity="0.6067"/>
<stop offset="0.7491" stop-color="#FFC45F" stop-opacity="0.2512"/>
<stop offset="1" stop-color="#FFF686" stop-opacity="0"/>
</radialGradient>
<radialGradient id="paint15_radial_1316_6072" cx="0" cy="0" r="1" gradientUnits="userSpaceOnUse" gradientTransform="translate(24.8249 17.5011) scale(7.73082)">
<stop offset="0.00134333" stop-color="#FFED1C"/>
<stop offset="0.1997" stop-color="#FFEE2B" stop-opacity="0.8013"/>
<stop offset="0.5839" stop-color="#FFF254" stop-opacity="0.4167"/>
<stop offset="1" stop-color="#FFF686" stop-opacity="0"/>
</radialGradient>
<radialGradient id="paint16_radial_1316_6072" cx="0" cy="0" r="1" gradientUnits="userSpaceOnUse" gradientTransform="translate(8.99974 20.2564) scale(8.24007 8.24007)">
<stop offset="0.00134333" stop-color="#FFED1C"/>
<stop offset="0.1997" stop-color="#FFEE2B" stop-opacity="0.8013"/>
<stop offset="0.5839" stop-color="#FFF254" stop-opacity="0.4167"/>
<stop offset="1" stop-color="#FFF686" stop-opacity="0"/>
</radialGradient>
<radialGradient id="paint17_radial_1316_6072" cx="0" cy="0" r="1" gradientUnits="userSpaceOnUse" gradientTransform="translate(16.8409 18.591) rotate(86.1102) scale(14.1146 8.58026)">
<stop stop-color="#FF4C00" stop-opacity="0"/>
<stop offset="0.9874" stop-color="#FF4C00" stop-opacity="0.9888"/>
<stop offset="0.9987" stop-color="#FF4C00"/>
</radialGradient>
</defs>
</svg>
