<svg width="17" height="16" viewBox="0 0 17 16" fill="none" xmlns="http://www.w3.org/2000/svg">
<path d="M2 10.5V3.5C2 3.23478 2.10536 2.98043 2.29289 2.79289C2.48043 2.60536 2.73478 2.5 3 2.5H14C14.2652 2.5 14.5196 2.60536 14.7071 2.79289C14.8946 2.98043 15 3.23478 15 3.5V10.5C15 10.6326 14.9473 10.7598 14.8536 10.8536C14.7598 10.9473 14.6326 11 14.5 11C14.3674 11 14.2402 10.9473 14.1464 10.8536C14.0527 10.7598 14 10.6326 14 10.5V3.5H3V10.5C3 10.6326 2.94732 10.7598 2.85355 10.8536C2.75979 10.9473 2.63261 11 2.5 11C2.36739 11 2.24021 10.9473 2.14645 10.8536C2.05268 10.7598 2 10.6326 2 10.5ZM16 12.5C16 12.6326 15.9473 12.7598 15.8536 12.8536C15.7598 12.9473 15.6326 13 15.5 13H1.5C1.36739 13 1.24021 12.9473 1.14645 12.8536C1.05268 12.7598 1 12.6326 1 12.5C1 12.3674 1.05268 12.2402 1.14645 12.1464C1.24021 12.0527 1.36739 12 1.5 12H7.5V10.5C7.5 10.3674 7.55268 10.2402 7.64645 10.1464C7.74021 10.0527 7.86739 10 8 10H12C12.1326 10 12.2598 10.0527 12.3536 10.1464C12.4473 10.2402 12.5 10.3674 12.5 10.5V12H15.5C15.6326 12 15.7598 12.0527 15.8536 12.1464C15.9473 12.2402 16 12.3674 16 12.5ZM8.5 12H11.5V11H8.5V12Z" fill="#343330"/>
</svg>
