<svg width="34" height="35" viewBox="0 0 34 35" fill="none" xmlns="http://www.w3.org/2000/svg">
<path opacity="0.15" d="M9.10547 32.4711C9.10547 32.7498 9.95451 33.0172 11.4658 33.2143C12.9771 33.4115 15.0269 33.5222 17.1642 33.5222C19.3015 33.5222 21.3512 33.4115 22.8626 33.2143C24.3739 33.0172 25.2229 32.7498 25.2229 32.4711C25.2229 32.1923 24.3739 31.9249 22.8626 31.7278C21.3512 31.5307 19.3015 31.4199 17.1642 31.4199C15.0269 31.4199 12.9771 31.5307 11.4658 31.7278C9.95451 31.9249 9.10547 32.1923 9.10547 32.4711V32.4711Z" fill="#45413C"/>
<path d="M10.4668 22.0374C10.9994 20.3836 9.21244 17.3353 12.8704 16.0039C12.2958 19.4096 17.0329 20.3836 15.9537 23.7823L10.4668 22.0374Z" fill="#FF6242" stroke="#45413C" stroke-width="1.2013" stroke-linecap="round" stroke-linejoin="round"/>
<path d="M23.8236 9.34553C24.4543 11.0904 24.2511 12.1065 23.4732 12.8493C19.9134 10.6069 15.6668 8.99515 14.9801 4.08984C7.7062 9.6959 18.5679 17.4042 13.3123 19.5065C10.7125 20.5506 8.40696 18.105 8.75734 15.365C7.9974 16.077 7.3886 16.9348 6.96722 17.8871C6.54584 18.8394 6.32052 19.8668 6.30469 20.908C6.30469 25.7433 11.1679 29.6675 17.1664 29.6675C30.9013 29.6675 29.7801 11.4478 23.8236 9.34553Z" fill="#FF6242" stroke="#45413C" stroke-width="1.2013" stroke-linecap="round" stroke-linejoin="round"/>
<path d="M22.073 20.209C21.0219 23.3624 18.2048 24.6167 15.7031 24.7499C15.9762 25.3755 16.4261 25.9078 16.9975 26.2813C17.5689 26.6548 18.237 26.8532 18.9196 26.8522C22.8579 26.8662 25.5768 22.6616 22.073 20.209Z" fill="#FFE500" stroke="#45413C" stroke-width="1.2013" stroke-linecap="round" stroke-linejoin="round"/>
</svg>
