<svg width="35" height="35" viewBox="0 0 35 35" fill="none" xmlns="http://www.w3.org/2000/svg">
<path d="M3.48828 15.6499C3.48828 19.367 4.96487 22.9318 7.59322 25.5601C10.2216 28.1885 13.7864 29.6651 17.5034 29.6651C21.2205 29.6651 24.7853 28.1885 27.4136 25.5601C30.042 22.9318 31.5186 19.367 31.5186 15.6499C31.5186 11.9329 30.042 8.36806 27.4136 5.73971C24.7853 3.11136 21.2205 1.63477 17.5034 1.63477C13.7864 1.63477 10.2216 3.11136 7.59322 5.73971C4.96487 8.36806 3.48828 11.9329 3.48828 15.6499V15.6499Z" fill="#FFE500"/>
<path d="M17.5034 1.63477C14.7315 1.63477 12.0218 2.45674 9.71704 3.99674C7.41226 5.53675 5.6159 7.72562 4.55513 10.2866C3.49435 12.8475 3.21681 15.6655 3.75758 18.3841C4.29836 21.1028 5.63318 23.6001 7.59323 25.5601C9.55328 27.5202 12.0505 28.855 14.7692 29.3958C17.4879 29.9365 20.3059 29.659 22.8668 28.5982C25.4277 27.5375 27.6166 25.7411 29.1566 23.4363C30.6966 21.1315 31.5186 18.4219 31.5186 15.6499C31.5186 11.9329 30.042 8.36806 27.4136 5.73971C24.7853 3.11136 21.2205 1.63477 17.5034 1.63477V1.63477ZM17.5034 27.5628C14.974 27.5628 12.5015 26.8127 10.3983 25.4075C8.29524 24.0022 6.65606 22.0049 5.6881 19.668C4.72015 17.3312 4.46689 14.7598 4.96035 12.279C5.45381 9.7982 6.67182 7.51945 8.46037 5.7309C10.2489 3.94236 12.5277 2.72434 15.0085 2.23088C17.4893 1.73742 20.0607 1.99068 22.3975 2.95864C24.7344 3.92659 26.7317 5.56577 28.137 7.66888C29.5422 9.77199 30.2923 12.2446 30.2923 14.774C30.2923 18.1658 28.9449 21.4187 26.5465 23.817C24.1481 26.2154 20.8952 27.5628 17.5034 27.5628V27.5628Z" fill="#EBCB00"/>
<path d="M13.3008 4.4359C13.3008 4.71468 13.7438 4.98204 14.5323 5.17917C15.3208 5.37629 16.3902 5.48704 17.5053 5.48704C18.6204 5.48704 19.6899 5.37629 20.4784 5.17917C21.2669 4.98204 21.7099 4.71468 21.7099 4.4359C21.7099 4.15712 21.2669 3.88976 20.4784 3.69264C19.6899 3.49551 18.6204 3.38477 17.5053 3.38477C16.3902 3.38477 15.3208 3.49551 14.5323 3.69264C13.7438 3.88976 13.3008 4.15712 13.3008 4.4359Z" fill="#FFF48C"/>
<path opacity="0.15" d="M6.28906 32.4691C6.28906 32.7479 7.47034 33.0152 9.57302 33.2124C11.6757 33.4095 14.5275 33.5202 17.5012 33.5202C20.4748 33.5202 23.3267 33.4095 25.4294 33.2124C27.532 33.0152 28.7133 32.7479 28.7133 32.4691C28.7133 32.1903 27.532 31.923 25.4294 31.7258C23.3267 31.5287 20.4748 31.418 17.5012 31.418C14.5275 31.418 11.6757 31.5287 9.57302 31.7258C7.47034 31.923 6.28906 32.1903 6.28906 32.4691V32.4691Z" fill="#45413C"/>
<path d="M3.48828 15.6499C3.48828 19.367 4.96487 22.9318 7.59322 25.5601C10.2216 28.1885 13.7864 29.6651 17.5034 29.6651C21.2205 29.6651 24.7853 28.1885 27.4136 25.5601C30.042 22.9318 31.5186 19.367 31.5186 15.6499C31.5186 11.9329 30.042 8.36806 27.4136 5.73971C24.7853 3.11136 21.2205 1.63477 17.5034 1.63477C13.7864 1.63477 10.2216 3.11136 7.59322 5.73971C4.96487 8.36806 3.48828 11.9329 3.48828 15.6499V15.6499Z" stroke="#45413C" stroke-width="1.2013" stroke-linecap="round" stroke-linejoin="round"/>
<path d="M27.662 19.1527C27.662 19.7343 26.8771 20.2038 25.9101 20.2038C24.9431 20.2038 24.1582 19.7343 24.1582 19.1527C24.1582 18.5711 24.9431 18.1016 25.9101 18.1016C26.8771 18.1016 27.662 18.5711 27.662 19.1527Z" fill="#FFAA54"/>
<path d="M7.3418 19.1527C7.3418 19.7343 8.12665 20.2038 9.09369 20.2038C10.0607 20.2038 10.8456 19.7343 10.8456 19.1527C10.8456 18.5711 10.0607 18.1016 9.09369 18.1016C8.12665 18.1016 7.3418 18.5711 7.3418 19.1527Z" fill="#FFAA54"/>
<path d="M10.8449 14.9488C10.8449 15.0874 10.8038 15.2229 10.7268 15.3381C10.6498 15.4534 10.5403 15.5432 10.4123 15.5962C10.2842 15.6493 10.1433 15.6631 10.0074 15.6361C9.87147 15.6091 9.74661 15.5423 9.64861 15.4443C9.5506 15.3463 9.48386 15.2214 9.45682 15.0855C9.42979 14.9496 9.44366 14.8087 9.4967 14.6806C9.54974 14.5526 9.63956 14.4431 9.7548 14.3661C9.87004 14.2891 10.0055 14.248 10.1441 14.248C10.33 14.248 10.5082 14.3219 10.6396 14.4533C10.771 14.5847 10.8449 14.763 10.8449 14.9488Z" fill="#45413C" stroke="#45413C" stroke-width="1.2013" stroke-linecap="round" stroke-linejoin="round"/>
<path d="M24.1582 14.9488C24.1582 15.0874 24.1993 15.2229 24.2763 15.3381C24.3533 15.4534 24.4627 15.5432 24.5908 15.5962C24.7188 15.6493 24.8597 15.6631 24.9957 15.6361C25.1316 15.6091 25.2565 15.5423 25.3545 15.4443C25.4525 15.3463 25.5192 15.2214 25.5463 15.0855C25.5733 14.9496 25.5594 14.8087 25.5064 14.6806C25.4533 14.5526 25.3635 14.4431 25.2483 14.3661C25.133 14.2891 24.9976 14.248 24.859 14.248C24.6731 14.248 24.4949 14.3219 24.3634 14.4533C24.232 14.5847 24.1582 14.763 24.1582 14.9488Z" fill="#45413C" stroke="#45413C" stroke-width="1.2013" stroke-linecap="round" stroke-linejoin="round"/>
<path d="M12.25 22.658C12.25 24.0519 12.8037 25.3887 13.7894 26.3744C14.775 27.36 16.1118 27.9137 17.5057 27.9137C18.8996 27.9137 20.2364 27.36 21.222 26.3744C22.2076 25.3887 22.7614 24.0519 22.7614 22.658C22.7614 21.2641 22.2076 19.9273 21.222 18.9417C20.2364 17.9561 18.8996 17.4023 17.5057 17.4023C16.1118 17.4023 14.775 17.9561 13.7894 18.9417C12.8037 19.9273 12.25 21.2641 12.25 22.658Z" fill="#FFB0CA" stroke="#45413C" stroke-width="1.2013" stroke-linecap="round" stroke-linejoin="round"/>
<path d="M13.0508 25.4471C13.0508 26.1013 13.5196 26.7287 14.3541 27.1913C15.1886 27.6539 16.3204 27.9138 17.5006 27.9138C18.6808 27.9138 19.8126 27.6539 20.6471 27.1913C21.4816 26.7287 21.9504 26.1013 21.9504 25.4471C21.9504 24.7929 21.4816 24.1655 20.6471 23.7029C19.8126 23.2404 18.6808 22.9805 17.5006 22.9805C16.3204 22.9805 15.1886 23.2404 14.3541 23.7029C13.5196 24.1655 13.0508 24.7929 13.0508 25.4471Z" fill="#FF866E" stroke="#45413C" stroke-width="1.2013" stroke-linecap="round" stroke-linejoin="round"/>
</svg>
