<svg width="20" height="20" viewBox="0 0 20 20" fill="none" xmlns="http://www.w3.org/2000/svg">
<path d="M17.9424 17.058L14.0306 13.1471C15.1644 11.7859 15.7298 10.04 15.6091 8.27263C15.4884 6.50524 14.691 4.85241 13.3828 3.65797C12.0745 2.46353 10.3561 1.81944 8.5851 1.85969C6.81406 1.89994 5.12671 2.62143 3.87407 3.87407C2.62143 5.12671 1.89994 6.81406 1.85969 8.5851C1.81944 10.3561 2.46353 12.0745 3.65797 13.3828C4.85241 14.691 6.50524 15.4884 8.27263 15.6091C10.04 15.7298 11.7859 15.1644 13.1471 14.0306L17.058 17.9424C17.1161 18.0004 17.185 18.0465 17.2609 18.0779C17.3367 18.1094 17.4181 18.1255 17.5002 18.1255C17.5823 18.1255 17.6636 18.1094 17.7395 18.0779C17.8154 18.0465 17.8843 18.0004 17.9424 17.9424C18.0004 17.8843 18.0465 17.8154 18.0779 17.7395C18.1094 17.6636 18.1255 17.5823 18.1255 17.5002C18.1255 17.4181 18.1094 17.3367 18.0779 17.2609C18.0465 17.185 18.0004 17.1161 17.9424 17.058ZM3.12518 8.75018C3.12518 7.63766 3.45508 6.55012 4.07316 5.6251C4.69124 4.70007 5.56975 3.9791 6.59758 3.55336C7.62542 3.12761 8.75642 3.01622 9.84756 3.23326C10.9387 3.4503 11.941 3.98603 12.7277 4.7727C13.5143 5.55937 14.0501 6.56165 14.2671 7.6528C14.4841 8.74394 14.3727 9.87494 13.947 10.9028C13.5213 11.9306 12.8003 12.8091 11.8753 13.4272C10.9502 14.0453 9.8627 14.3752 8.75018 14.3752C7.25884 14.3735 5.82906 13.7804 4.77453 12.7258C3.72 11.6713 3.12683 10.2415 3.12518 8.75018Z" fill="#98A2B3"/>
</svg>
