<svg width="22" height="20" viewBox="0 0 22 20" fill="none" xmlns="http://www.w3.org/2000/svg">
<path d="M9 18.25C9 18.5467 8.91203 18.8367 8.7472 19.0834C8.58238 19.33 8.34811 19.5223 8.07403 19.6358C7.79994 19.7494 7.49834 19.7791 7.20736 19.7212C6.91639 19.6633 6.64912 19.5204 6.43934 19.3107C6.22956 19.1009 6.0867 18.8336 6.02882 18.5426C5.97094 18.2517 6.00065 17.9501 6.11418 17.676C6.22771 17.4019 6.41997 17.1676 6.66665 17.0028C6.91332 16.838 7.20333 16.75 7.5 16.75C7.89782 16.75 8.27936 16.908 8.56066 17.1893C8.84196 17.4706 9 17.8522 9 18.25ZM17.25 16.75C16.9533 16.75 16.6633 16.838 16.4166 17.0028C16.17 17.1676 15.9777 17.4019 15.8642 17.676C15.7506 17.9501 15.7209 18.2517 15.7788 18.5426C15.8367 18.8336 15.9796 19.1009 16.1893 19.3107C16.3991 19.5204 16.6664 19.6633 16.9574 19.7212C17.2483 19.7791 17.5499 19.7494 17.824 19.6358C18.0981 19.5223 18.3324 19.33 18.4972 19.0834C18.662 18.8367 18.75 18.5467 18.75 18.25C18.75 17.8522 18.592 17.4706 18.3107 17.1893C18.0294 16.908 17.6478 16.75 17.25 16.75ZM21.7172 4.97031L19.0425 13.6619C18.9024 14.1226 18.6175 14.5259 18.2301 14.812C17.8427 15.0981 17.3734 15.2517 16.8919 15.25H7.88156C7.3931 15.2482 6.91837 15.0882 6.52848 14.7939C6.13858 14.4997 5.85449 14.087 5.71875 13.6178L2.32687 1.75H0.75C0.551088 1.75 0.360322 1.67098 0.21967 1.53033C0.0790176 1.38968 0 1.19891 0 1C0 0.801088 0.0790176 0.610322 0.21967 0.46967C0.360322 0.329018 0.551088 0.25 0.75 0.25H2.32687C2.65257 0.25108 2.96916 0.357614 3.22925 0.553654C3.48934 0.749694 3.67895 1.0247 3.76969 1.3375L4.53 4H21C21.1174 3.99996 21.2331 4.02746 21.3379 4.08029C21.4427 4.13313 21.5336 4.20982 21.6034 4.30421C21.6732 4.39859 21.7198 4.50803 21.7396 4.62372C21.7593 4.73941 21.7517 4.85812 21.7172 4.97031ZM19.9847 5.5H4.95844L7.16062 13.2062C7.20543 13.3629 7.30002 13.5007 7.43009 13.5988C7.56016 13.6969 7.71864 13.75 7.88156 13.75H16.8919C17.0524 13.7501 17.2086 13.6986 17.3377 13.6033C17.4668 13.508 17.5619 13.3737 17.6091 13.2203L19.9847 5.5Z" fill="#343330"/>
</svg>
