<?xml version="1.0" encoding="UTF-8"?>
<svg xmlns="http://www.w3.org/2000/svg" xmlns:xlink="http://www.w3.org/1999/xlink" width="29px" height="29px" viewBox="0 0 29 28" version="1.1">
<g id="surface1">
<path style=" stroke:none;fill-rule:nonzero;fill:rgb(0%,0%,0%);fill-opacity:1;" d="M 19.324219 4.242188 C 19.53125 3.804688 20.097656 3.390625 20.867188 3.0625 L 20.867188 1.335938 L 21.773438 2.757812 C 22.089844 2.667969 22.40625 2.582031 22.746094 2.539062 L 22.746094 0.765625 L 23.789062 2.382812 C 23.96875 2.363281 24.175781 2.339844 24.355469 2.339844 L 24.355469 0.765625 L 25.375 2.320312 C 26.304688 2.339844 27.210938 2.472656 28.070312 2.710938 C 27.664062 1.488281 25.488281 0.351562 25.101562 0.285156 C 21.296875 -0.832031 17.785156 2.339844 17.71875 3.195312 C 16.449219 -0.261719 10.601562 -0.0429688 7.863281 2.996094 C 9.992188 2.449219 15.996094 2.710938 16.402344 4.59375 C 15.113281 4.308594 9.96875 2.210938 8.359375 9.339844 C 11.941406 5.753906 15.292969 5.226562 15.925781 5.664062 C 11.757812 7.085938 13.207031 11.023438 13.207031 11.023438 C 13.207031 11.023438 14.160156 7.917969 16.402344 7.4375 L 16.699219 7.460938 C 14.976562 13.890625 13.820312 18.921875 16.472656 26.820312 L 9.5625 26.820312 C 9.742188 22.835938 8.246094 19.382812 6.457031 16.429688 L 6.277344 16.1875 C 8.335938 15.398438 9.628906 17.980469 9.628906 17.980469 C 10.46875 14.085938 6.207031 15.3125 6.207031 15.3125 C 6.277344 15.070312 6.433594 14.851562 6.683594 14.632812 L 6.683594 13.277344 L 7.386719 14.132812 C 7.542969 14.042969 7.726562 13.957031 7.882812 13.867188 L 7.882812 12.972656 L 8.40625 13.628906 C 8.925781 13.410156 9.378906 13.277344 9.492188 13.277344 C 8.542969 11.789062 5.460938 12.929688 5.390625 14.765625 C 4.238281 12.710938 1.699219 13.234375 1.132812 14.875 C 2.199219 14.460938 3.828125 14.613281 4.417969 15.246094 C 3.464844 15.3125 0.386719 16.320312 0.726562 18.308594 C 0.859375 18.15625 1.335938 17.828125 1.925781 17.5 L 1.925781 16.558594 L 2.265625 17.324219 C 2.46875 17.214844 2.695312 17.085938 2.898438 16.976562 L 2.898438 16.1875 L 3.171875 16.820312 C 3.875 16.449219 4.464844 16.1875 4.53125 16.296875 C 3.738281 17.304688 3.671875 18.789062 4.351562 19.882812 C 4.371094 19.335938 4.917969 17.195312 5.324219 16.820312 L 5.4375 16.777344 C 7.023438 19.6875 8.203125 22.835938 7.90625 26.839844 L 2.355469 26.839844 L 2.355469 28.023438 L 24.46875 28.023438 L 24.46875 26.839844 L 19.847656 26.839844 C 16.425781 19.863281 17.355469 14.175781 18.757812 7.570312 L 19.03125 7.589844 C 19.984375 8.09375 21.863281 11.046875 22.203125 12.007812 C 22.882812 9.691406 22.15625 7.632812 20.164062 6.148438 C 20.457031 5.992188 21.117188 5.992188 21.929688 6.125 L 22.203125 4.679688 L 22.972656 6.300781 L 22.949219 6.300781 C 23.269531 6.367188 23.5625 6.429688 23.878906 6.519531 L 24.355469 4.660156 L 24.875 6.78125 C 25.125 6.847656 25.351562 6.914062 25.578125 6.976562 L 26.03125 5.25 L 26.53125 7.261719 C 27.253906 7.503906 27.84375 7.742188 28.09375 7.898438 C 27.933594 6.148438 25.601562 1.992188 19.324219 4.242188 Z M 19.324219 4.242188 "/>
</g>
</svg>
