<svg width="30" height="30" viewBox="0 0 30 30" fill="none" xmlns="http://www.w3.org/2000/svg">
<rect width="30" height="30" rx="4" fill="#F0F2F5"/>
<path d="M19.2473 18.6278C19.2879 18.6684 19.3202 18.7167 19.3422 18.7698C19.3642 18.8229 19.3755 18.8798 19.3755 18.9373C19.3755 18.9948 19.3642 19.0517 19.3422 19.1048C19.3202 19.1579 19.2879 19.2062 19.2473 19.2468C19.2066 19.2875 19.1584 19.3197 19.1053 19.3417C19.0522 19.3637 18.9952 19.3751 18.9377 19.3751C18.8803 19.3751 18.8233 19.3637 18.7702 19.3417C18.7171 19.3197 18.6689 19.2875 18.6282 19.2468L15.0002 15.6183L11.3723 19.2468C11.2902 19.3289 11.1788 19.3751 11.0627 19.3751C10.9466 19.3751 10.8353 19.3289 10.7532 19.2468C10.6711 19.1648 10.625 19.0534 10.625 18.9373C10.625 18.8212 10.6711 18.7099 10.7532 18.6278L14.3817 14.9998L10.7532 11.3718C10.6711 11.2898 10.625 11.1784 10.625 11.0623C10.625 10.9462 10.6711 10.8349 10.7532 10.7528C10.8353 10.6707 10.9466 10.6246 11.0627 10.6246C11.1788 10.6246 11.2902 10.6707 11.3723 10.7528L15.0002 14.3813L18.6282 10.7528C18.7103 10.6707 18.8216 10.6246 18.9377 10.6246C19.0538 10.6246 19.1652 10.6707 19.2473 10.7528C19.3294 10.8349 19.3755 10.9462 19.3755 11.0623C19.3755 11.1784 19.3294 11.2898 19.2473 11.3718L15.6188 14.9998L19.2473 18.6278Z" fill="#1D2433"/>
</svg>
