<svg width="17" height="16" viewBox="0 0 17 16" fill="none" xmlns="http://www.w3.org/2000/svg">
<path d="M14.1769 6.4856L9.17688 1.7681C9.17443 1.76597 9.17213 1.76367 9.17 1.76122C8.98591 1.59381 8.74602 1.50104 8.49719 1.50104C8.24836 1.50104 8.00846 1.59381 7.82438 1.76122L7.8175 1.7681L2.82312 6.4856C2.72125 6.57928 2.63993 6.69309 2.58431 6.81982C2.52869 6.94655 2.49998 7.08345 2.5 7.22185V13C2.5 13.2652 2.60536 13.5195 2.79289 13.7071C2.98043 13.8946 3.23478 14 3.5 14H6.5C6.76522 14 7.01957 13.8946 7.20711 13.7071C7.39464 13.5195 7.5 13.2652 7.5 13V9.99997H9.5V13C9.5 13.2652 9.60536 13.5195 9.79289 13.7071C9.98043 13.8946 10.2348 14 10.5 14H13.5C13.7652 14 14.0196 13.8946 14.2071 13.7071C14.3946 13.5195 14.5 13.2652 14.5 13V7.22185C14.5 7.08345 14.4713 6.94655 14.4157 6.81982C14.3601 6.69309 14.2788 6.57928 14.1769 6.4856ZM13.5 13H10.5V9.99997C10.5 9.73476 10.3946 9.4804 10.2071 9.29287C10.0196 9.10533 9.76522 8.99997 9.5 8.99997H7.5C7.23478 8.99997 6.98043 9.10533 6.79289 9.29287C6.60536 9.4804 6.5 9.73476 6.5 9.99997V13H3.5V7.22185L3.50688 7.2156L8.5 2.49997L13.4937 7.21435L13.5006 7.2206L13.5 13Z" fill="white"/>
</svg>
