<svg width="32" height="32" viewBox="0 0 32 32" fill="none" xmlns="http://www.w3.org/2000/svg">
<path d="M16.0002 9.99968C14.8135 9.99968 13.6535 10.3516 12.6668 11.0109C11.6801 11.6702 10.9111 12.6072 10.457 13.7036C10.0028 14.7999 9.88402 16.0063 10.1155 17.1702C10.347 18.3341 10.9185 19.4032 11.7576 20.2423C12.5967 21.0814 13.6658 21.6529 14.8297 21.8844C15.9936 22.1159 17.2 21.9971 18.2963 21.543C19.3927 21.0888 20.3298 20.3198 20.9891 19.3331C21.6483 18.3464 22.0002 17.1864 22.0002 15.9997C21.9986 14.4089 21.3659 12.8837 20.2411 11.7589C19.1162 10.634 17.591 10.0013 16.0002 9.99968ZM16.0002 19.9997C15.2091 19.9997 14.4358 19.7651 13.778 19.3256C13.1202 18.886 12.6075 18.2613 12.3047 17.5304C12.002 16.7995 11.9228 15.9952 12.0771 15.2193C12.2314 14.4434 12.6124 13.7307 13.1718 13.1713C13.7312 12.6118 14.444 12.2309 15.2199 12.0765C15.9958 11.9222 16.8001 12.0014 17.531 12.3042C18.2619 12.6069 18.8866 13.1196 19.3261 13.7774C19.7656 14.4352 20.0002 15.2086 20.0002 15.9997C20.0002 17.0605 19.5788 18.078 18.8287 18.8281C18.0785 19.5783 17.0611 19.9997 16.0002 19.9997ZM29.7427 13.4009C29.7149 13.2601 29.657 13.1269 29.5731 13.0105C29.4892 12.894 29.3812 12.797 29.2565 12.7259L25.5277 10.6009L25.5127 6.39843C25.5123 6.2537 25.4804 6.11079 25.4193 5.97957C25.3583 5.84836 25.2694 5.73196 25.159 5.63843C23.8064 4.4943 22.2488 3.61751 20.569 3.05468C20.4367 3.00991 20.2965 2.99334 20.1574 3.00604C20.0184 3.01874 19.8835 3.06043 19.7615 3.12843L16.0002 5.23093L12.2352 3.12468C12.1132 3.0563 11.9781 3.01429 11.8388 3.00137C11.6995 2.98845 11.559 3.00491 11.4265 3.04968C9.74792 3.61663 8.1921 4.49676 6.84149 5.64343C6.7312 5.73683 6.64246 5.85302 6.58139 5.98401C6.52032 6.11499 6.48837 6.25766 6.48774 6.40218L6.46899 10.6084L2.74024 12.7334C2.61549 12.8045 2.50749 12.9015 2.42359 13.018C2.33969 13.1344 2.28184 13.2676 2.25399 13.4084C1.91273 15.1233 1.91273 16.8886 2.25399 18.6034C2.28184 18.7443 2.33969 18.8774 2.42359 18.9939C2.50749 19.1104 2.61549 19.2074 2.74024 19.2784L6.46899 21.4034L6.48399 25.6059C6.48444 25.7507 6.51631 25.8936 6.57738 26.0248C6.63846 26.156 6.72729 26.2724 6.83774 26.3659C8.19033 27.5101 9.74793 28.3869 11.4277 28.9497C11.56 28.9945 11.7002 29.011 11.8393 28.9983C11.9784 28.9856 12.1133 28.9439 12.2352 28.8759L16.0002 26.7684L19.7652 28.8747C19.9142 28.9577 20.0822 29.0008 20.2527 28.9997C20.362 28.9996 20.4704 28.9819 20.574 28.9472C22.2524 28.381 23.8082 27.5017 25.159 26.3559C25.2693 26.2625 25.358 26.1463 25.4191 26.0154C25.4802 25.8844 25.5121 25.7417 25.5127 25.5972L25.5315 21.3909L29.2602 19.2659C29.385 19.1949 29.493 19.0979 29.5769 18.9814C29.6608 18.8649 29.7186 18.7317 29.7465 18.5909C30.0858 16.8774 30.0846 15.1139 29.7427 13.4009ZM27.8677 17.7647L24.2965 19.7959C24.14 19.8849 24.0105 20.0145 23.9215 20.1709C23.849 20.2959 23.7727 20.4284 23.6952 20.5534C23.596 20.7111 23.5432 20.8934 23.5427 21.0797L23.524 25.1109C22.5641 25.8647 21.4947 26.4675 20.3527 26.8984L16.7502 24.8909C16.6007 24.8082 16.4324 24.7651 16.2615 24.7659H16.2377C16.0865 24.7659 15.934 24.7659 15.7827 24.7659C15.6038 24.7615 15.427 24.8046 15.2702 24.8909L11.6652 26.9034C10.5209 26.4758 9.44852 25.876 8.48524 25.1247L8.47149 21.0997C8.47087 20.9131 8.41805 20.7303 8.31899 20.5722C8.24149 20.4472 8.16524 20.3222 8.09399 20.1897C8.00564 20.0308 7.8761 19.8987 7.71899 19.8072L4.14399 17.7709C3.95899 16.6007 3.95899 15.4087 4.14399 14.2384L7.70899 12.2034C7.86546 12.1145 7.99502 11.9849 8.08399 11.8284C8.15649 11.7034 8.23274 11.5709 8.31024 11.4459C8.40944 11.2883 8.46229 11.1059 8.46274 10.9197L8.48149 6.88843C9.4414 6.13461 10.5108 5.53183 11.6527 5.10093L15.2502 7.10843C15.4068 7.19522 15.5838 7.23839 15.7627 7.23343C15.914 7.23343 16.0665 7.23343 16.2177 7.23343C16.3966 7.2379 16.5735 7.19476 16.7302 7.10843L20.3352 5.09593C21.4796 5.52352 22.552 6.12335 23.5152 6.87468L23.529 10.8997C23.5296 11.0863 23.5824 11.269 23.6815 11.4272C23.759 11.5522 23.8352 11.6772 23.9065 11.8097C23.9948 11.9686 24.1244 12.1007 24.2815 12.1922L27.8565 14.2284C28.044 15.3996 28.0461 16.5929 27.8627 17.7647H27.8677Z" fill="#343330"/>
</svg>
