<svg width="98" height="28" viewBox="0 0 98 28" fill="none" xmlns="http://www.w3.org/2000/svg">
<rect width="98" height="28" rx="14" fill="#E7F0FF"/>
<path d="M22.0625 7.25H20.9375V6.6875C20.9375 6.53832 20.8782 6.39524 20.7727 6.28975C20.6673 6.18426 20.5242 6.125 20.375 6.125C20.2258 6.125 20.0827 6.18426 19.9773 6.28975C19.8718 6.39524 19.8125 6.53832 19.8125 6.6875V7.25H17.5625V6.6875C17.5625 6.53832 17.5032 6.39524 17.3977 6.28975C17.2923 6.18426 17.1492 6.125 17 6.125C16.8508 6.125 16.7077 6.18426 16.6023 6.28975C16.4968 6.39524 16.4375 6.53832 16.4375 6.6875V7.25H14.1875V6.6875C14.1875 6.53832 14.1282 6.39524 14.0227 6.28975C13.9173 6.18426 13.7742 6.125 13.625 6.125C13.4758 6.125 13.3327 6.18426 13.2273 6.28975C13.1218 6.39524 13.0625 6.53832 13.0625 6.6875V7.25H11.9375C11.6391 7.25 11.353 7.36853 11.142 7.5795C10.931 7.79048 10.8125 8.07663 10.8125 8.375V19.0625C10.8125 19.6592 11.0496 20.2315 11.4715 20.6535C11.8935 21.0754 12.4658 21.3125 13.0625 21.3125H20.9375C21.5342 21.3125 22.1065 21.0754 22.5285 20.6535C22.9504 20.2315 23.1875 19.6592 23.1875 19.0625V8.375C23.1875 8.07663 23.069 7.79048 22.858 7.5795C22.647 7.36853 22.3609 7.25 22.0625 7.25ZM19.25 16.8125H14.75C14.6008 16.8125 14.4577 16.7532 14.3523 16.6477C14.2468 16.5423 14.1875 16.3992 14.1875 16.25C14.1875 16.1008 14.2468 15.9577 14.3523 15.8523C14.4577 15.7468 14.6008 15.6875 14.75 15.6875H19.25C19.3992 15.6875 19.5423 15.7468 19.6477 15.8523C19.7532 15.9577 19.8125 16.1008 19.8125 16.25C19.8125 16.3992 19.7532 16.5423 19.6477 16.6477C19.5423 16.7532 19.3992 16.8125 19.25 16.8125ZM19.25 14.5625H14.75C14.6008 14.5625 14.4577 14.5032 14.3523 14.3977C14.2468 14.2923 14.1875 14.1492 14.1875 14C14.1875 13.8508 14.2468 13.7077 14.3523 13.6023C14.4577 13.4968 14.6008 13.4375 14.75 13.4375H19.25C19.3992 13.4375 19.5423 13.4968 19.6477 13.6023C19.7532 13.7077 19.8125 13.8508 19.8125 14C19.8125 14.1492 19.7532 14.2923 19.6477 14.3977C19.5423 14.5032 19.3992 14.5625 19.25 14.5625Z" fill="#0D6EFD"/>
<path d="M33.54 16.584L35.412 11.388H36.876L34.356 18H32.7L30.18 11.388H31.644L33.54 16.584ZM37.4507 9.468C37.4507 9.236 37.5307 9.044 37.6907 8.892C37.8507 8.74 38.0627 8.664 38.3267 8.664C38.5907 8.664 38.8027 8.74 38.9627 8.892C39.1307 9.044 39.2147 9.236 39.2147 9.468C39.2147 9.7 39.1307 9.888 38.9627 10.032C38.8027 10.176 38.5907 10.248 38.3267 10.248C38.0627 10.248 37.8507 10.176 37.6907 10.032C37.5307 9.888 37.4507 9.7 37.4507 9.468ZM39.0107 11.388V18H37.6427V11.388H39.0107ZM46.5701 14.376C46.5701 14.6 46.5541 14.796 46.5221 14.964H41.4341C41.4581 15.644 41.6461 16.148 41.9981 16.476C42.3501 16.804 42.7861 16.968 43.3061 16.968C43.7621 16.968 44.1461 16.852 44.4581 16.62C44.7781 16.388 44.9741 16.08 45.0461 15.696H46.5101C46.4221 16.16 46.2381 16.572 45.9581 16.932C45.6781 17.292 45.3141 17.576 44.8661 17.784C44.4181 17.984 43.9181 18.084 43.3661 18.084C42.7261 18.084 42.1581 17.948 41.6621 17.676C41.1741 17.404 40.7901 17.012 40.5101 16.5C40.2301 15.988 40.0901 15.384 40.0901 14.688C40.0901 14 40.2301 13.4 40.5101 12.888C40.7901 12.376 41.1741 11.984 41.6621 11.712C42.1581 11.44 42.7261 11.304 43.3661 11.304C44.0141 11.304 44.5781 11.44 45.0581 11.712C45.5461 11.976 45.9181 12.344 46.1741 12.816C46.4381 13.28 46.5701 13.8 46.5701 14.376ZM45.1901 14.34C45.2061 13.908 45.1301 13.548 44.9621 13.26C44.8021 12.964 44.5781 12.748 44.2901 12.612C44.0101 12.468 43.7021 12.396 43.3661 12.396C42.8301 12.396 42.3821 12.56 42.0221 12.888C41.6621 13.216 41.4661 13.7 41.4341 14.34H45.1901ZM56.915 11.388L55.079 18H53.567L51.935 12.888L50.279 18H48.779L46.943 11.388H48.323L49.583 16.74L51.239 11.388H52.679L54.359 16.74L55.619 11.388H56.915ZM62.8308 11.304C63.4308 11.304 63.9428 11.452 64.3668 11.748C64.7908 12.044 65.0868 12.436 65.2548 12.924V9.12H66.6348V18H65.2548V16.464C65.0868 16.952 64.7908 17.344 64.3668 17.64C63.9428 17.936 63.4308 18.084 62.8308 18.084C62.2548 18.084 61.7388 17.948 61.2828 17.676C60.8348 17.404 60.4828 17.012 60.2268 16.5C59.9708 15.988 59.8428 15.384 59.8428 14.688C59.8428 14 59.9708 13.4 60.2268 12.888C60.4828 12.376 60.8348 11.984 61.2828 11.712C61.7388 11.44 62.2548 11.304 62.8308 11.304ZM63.2508 12.504C62.6428 12.504 62.1548 12.7 61.7868 13.092C61.4268 13.476 61.2468 14.008 61.2468 14.688C61.2468 15.368 61.4268 15.904 61.7868 16.296C62.1548 16.68 62.6428 16.872 63.2508 16.872C63.6348 16.872 63.9788 16.784 64.2828 16.608C64.5868 16.424 64.8268 16.168 65.0028 15.84C65.1788 15.512 65.2668 15.128 65.2668 14.688C65.2668 14.256 65.1788 13.876 65.0028 13.548C64.8268 13.212 64.5868 12.956 64.2828 12.78C63.9788 12.596 63.6348 12.504 63.2508 12.504ZM67.8444 9.468C67.8444 9.236 67.9244 9.044 68.0844 8.892C68.2444 8.74 68.4564 8.664 68.7204 8.664C68.9844 8.664 69.1964 8.74 69.3564 8.892C69.5244 9.044 69.6084 9.236 69.6084 9.468C69.6084 9.7 69.5244 9.888 69.3564 10.032C69.1964 10.176 68.9844 10.248 68.7204 10.248C68.4564 10.248 68.2444 10.176 68.0844 10.032C67.9244 9.888 67.8444 9.7 67.8444 9.468ZM69.4044 11.388V18H68.0364V11.388H69.4044ZM73.4719 11.304C74.0719 11.304 74.5839 11.452 75.0079 11.748C75.4319 12.044 75.7319 12.436 75.9079 12.924V11.388H77.2759V18H75.9079V16.464C75.7319 16.952 75.4319 17.344 75.0079 17.64C74.5839 17.936 74.0719 18.084 73.4719 18.084C72.8959 18.084 72.3799 17.948 71.9239 17.676C71.4759 17.404 71.1239 17.012 70.8679 16.5C70.6119 15.988 70.4839 15.384 70.4839 14.688C70.4839 14 70.6119 13.4 70.8679 12.888C71.1239 12.376 71.4759 11.984 71.9239 11.712C72.3799 11.44 72.8959 11.304 73.4719 11.304ZM73.8919 12.504C73.2839 12.504 72.7959 12.7 72.4279 13.092C72.0679 13.476 71.8879 14.008 71.8879 14.688C71.8879 15.368 72.0679 15.904 72.4279 16.296C72.7959 16.68 73.2839 16.872 73.8919 16.872C74.2759 16.872 74.6199 16.784 74.9239 16.608C75.2279 16.424 75.4679 16.168 75.6439 15.84C75.8199 15.512 75.9079 15.128 75.9079 14.688C75.9079 14.256 75.8199 13.876 75.6439 13.548C75.4679 13.212 75.2279 12.956 74.9239 12.78C74.6199 12.596 74.2759 12.504 73.8919 12.504ZM80.0455 12.684C80.2695 12.252 80.5895 11.912 81.0055 11.664C81.4215 11.408 81.9015 11.28 82.4455 11.28V12.768H82.0375C81.4375 12.768 80.9535 12.916 80.5855 13.212C80.2255 13.5 80.0455 13.98 80.0455 14.652V18H78.6775V11.388H80.0455V12.684ZM84.0105 11.388L85.9905 16.248L87.8265 11.388H89.3505L85.3545 21.144H83.8305L85.2585 17.844L82.4745 11.388H84.0105Z" fill="#0D6EFD"/>
</svg>
