<svg width="13" height="12" viewBox="0 0 13 12" fill="none" xmlns="http://www.w3.org/2000/svg">
<path d="M11 7.5C10.5566 7.50042 10.1259 7.6479 9.77525 7.91934C9.42464 8.19077 9.17397 8.57084 9.0625 9H3C2.46957 9 1.96086 8.78929 1.58579 8.41421C1.21071 8.03914 1 7.53043 1 7C1 6.46957 1.21071 5.96086 1.58579 5.58579C1.96086 5.21071 2.46957 5 3 5H9C9.66304 5 10.2989 4.73661 10.7678 4.26777C11.2366 3.79893 11.5 3.16304 11.5 2.5C11.5 1.83696 11.2366 1.20107 10.7678 0.732233C10.2989 0.263392 9.66304 0 9 0H3C2.86739 0 2.74021 0.0526785 2.64645 0.146447C2.55268 0.240215 2.5 0.367392 2.5 0.5C2.5 0.632608 2.55268 0.759785 2.64645 0.853553C2.74021 0.947321 2.86739 1 3 1H9C9.39782 1 9.77936 1.15804 10.0607 1.43934C10.342 1.72064 10.5 2.10218 10.5 2.5C10.5 2.89782 10.342 3.27936 10.0607 3.56066C9.77936 3.84196 9.39782 4 9 4H3C2.20435 4 1.44129 4.31607 0.87868 4.87868C0.316071 5.44129 0 6.20435 0 7C0 7.79565 0.316071 8.55871 0.87868 9.12132C1.44129 9.68393 2.20435 10 3 10H9.0625C9.15601 10.3621 9.34919 10.6908 9.62011 10.9487C9.89103 11.2066 10.2288 11.3833 10.5952 11.4588C10.9615 11.5343 11.3416 11.5056 11.6925 11.3759C12.0433 11.2462 12.3507 11.0208 12.5798 10.7251C12.8089 10.4295 12.9506 10.0756 12.9886 9.70347C13.0267 9.33138 12.9596 8.95608 12.7951 8.62019C12.6305 8.2843 12.3751 8.00128 12.0578 7.80327C11.7405 7.60526 11.374 7.50019 11 7.5ZM11 10.5C10.8022 10.5 10.6089 10.4414 10.4444 10.3315C10.28 10.2216 10.1518 10.0654 10.0761 9.88268C10.0004 9.69996 9.98063 9.49889 10.0192 9.30491C10.0578 9.11093 10.153 8.93275 10.2929 8.79289C10.4327 8.65304 10.6109 8.5578 10.8049 8.51921C10.9989 8.48063 11.2 8.50043 11.3827 8.57612C11.5654 8.65181 11.7216 8.77998 11.8315 8.94443C11.9414 9.10888 12 9.30222 12 9.5C12 9.76522 11.8946 10.0196 11.7071 10.2071C11.5196 10.3946 11.2652 10.5 11 10.5Z" fill="#343330"/>
</svg>
