<svg width="44" height="46" viewBox="0 0 44 46" fill="none" xmlns="http://www.w3.org/2000/svg">
<rect width="44" height="46" rx="4" fill="#F9FAFB"/>
<path fill-rule="evenodd" clip-rule="evenodd" d="M7.71857 17.1761L20.0263 17.982V17.9411C20.0263 17.8223 20.0751 17.7109 20.1689 17.6329C20.3752 18.4759 21.1407 19.0998 22.0638 19.0998C22.9268 19.0998 23.666 18.5391 23.9137 17.7666C23.9437 17.8223 23.9587 17.878 23.9587 17.9411V17.982L36.2777 17.1761L36.6041 17.3729L25.7073 18.6133V20.3885H25.7523V20.2474H25.8349V20.214C25.8349 20.11 25.9212 20.0246 26.0338 20.0246C26.1426 20.0246 26.2251 20.11 26.2251 20.214V20.6337C26.2251 20.7376 26.1426 20.8231 26.0338 20.8231C25.9212 20.8231 25.8349 20.7376 25.8349 20.6337V20.5928H25.7523V20.4331H25.7073V20.5371H25.5422V20.4331H25.5009V20.5928H25.4146V20.6337C25.4146 20.7376 25.3208 20.8231 25.2158 20.8231C25.1107 20.8231 25.0244 20.7376 25.0244 20.6337V20.214C25.0244 20.11 25.1107 20.0246 25.2158 20.0246C25.3208 20.0246 25.4146 20.11 25.4146 20.214V20.2474H25.5009V20.3885H25.5422V18.6282L23.955 18.8102C23.925 19.0144 23.7486 19.1667 23.5272 19.1667H22.1163V20.1063H22.1426V20.0209H22.1989V19.9912C22.1989 19.928 22.2477 19.8723 22.3189 19.8723C22.3902 19.8723 22.439 19.928 22.439 19.9912V20.2586C22.439 20.3291 22.3902 20.3848 22.3189 20.3848C22.2477 20.3848 22.1989 20.3291 22.1989 20.2586V20.2363H22.1426V20.1323H22.1163V20.2029H22.0113V20.1323H21.9887V20.2363H21.9325V20.2586C21.9325 20.3291 21.8762 20.3848 21.8049 20.3848C21.7411 20.3848 21.6848 20.3291 21.6848 20.2586V19.9912C21.6848 19.928 21.7411 19.8723 21.8049 19.8723C21.8762 19.8723 21.9325 19.928 21.9325 19.9912V20.0209H21.9887V20.1063H22.0113V19.1667H20.4578C20.2439 19.1667 20.0675 19.0107 20.0338 18.8102L18.7017 18.6542V20.3885H18.743V20.2474H18.8293V20.214C18.8293 20.11 18.9156 20.0246 19.0206 20.0246C19.1332 20.0246 19.2195 20.11 19.2195 20.214V20.6337C19.2195 20.7376 19.1332 20.8231 19.0206 20.8231C18.9156 20.8231 18.8293 20.7376 18.8293 20.6337V20.5928H18.743V20.4331H18.7017V20.5371H18.5366V20.4331H18.4953V20.5928H18.409V20.6337C18.409 20.7376 18.3152 20.8231 18.2101 20.8231C18.1051 20.8231 18.0188 20.7376 18.0188 20.6337V20.214C18.0188 20.11 18.1051 20.0246 18.2101 20.0246C18.3152 20.0246 18.409 20.11 18.409 20.214V20.2474H18.4953V20.3885H18.5366V18.6356L7.39587 17.3729L7.72233 17.1761H7.71857ZM17.3546 22.1749H21.6323L21.4747 23.1851H22.5178L22.364 22.1749H26.6417L38 35.2921L24.3865 35.3478L23.8837 32.0722H20.1163L19.6135 35.3478L6 35.2921L17.3583 22.1749H17.3546ZM23.7223 31.0472L23.0844 26.884H20.9081L20.2702 31.0472H23.7223ZM22.9869 26.2118L22.5779 23.5453H21.4221L21.0094 26.2118H22.9869ZM27.3471 18.4499C27.7561 18.4499 28.0901 18.7805 28.0901 19.1853C28.0901 19.5901 27.7561 19.928 27.3471 19.928C26.9381 19.928 26.6004 19.5975 26.6004 19.1853C26.6004 18.773 26.9343 18.4499 27.3471 18.4499ZM27.3471 18.7099C27.6173 18.7099 27.8274 18.929 27.8274 19.1853C27.8274 19.4415 27.6135 19.6681 27.3471 19.6681C27.0807 19.6681 26.863 19.4489 26.863 19.1853C26.863 18.9216 27.0769 18.7099 27.3471 18.7099ZM16.8931 18.4648C17.3133 18.4648 17.6435 18.8027 17.6435 19.2075C17.6435 19.6124 17.3096 19.9429 16.8931 19.9429C16.4765 19.9429 16.1463 19.6124 16.1463 19.2075C16.1463 18.8027 16.4803 18.4648 16.8931 18.4648ZM16.8931 18.7322C17.1632 18.7322 17.3809 18.9439 17.3809 19.2075C17.3809 19.4712 17.1595 19.6829 16.8931 19.6829C16.6266 19.6829 16.409 19.4712 16.409 19.2075C16.409 18.9439 16.6304 18.7322 16.8931 18.7322ZM22.2739 15.3155C23.0169 15.4009 23.6285 15.906 23.8612 16.593L27.3659 16.3739L27.4784 16.437L23.9174 16.8233C23.94 16.9347 23.9512 17.0535 23.9512 17.1798C23.9512 18.2122 23.0994 19.0516 22.06 19.0516C21.0206 19.0516 20.1576 18.2085 20.1576 17.1798C20.1576 17.0535 20.1726 16.9347 20.1914 16.8233L16.6529 16.437L16.7655 16.3739L20.2552 16.593C20.4803 15.906 21.0919 15.4009 21.8349 15.3155L22.0563 11L22.2702 15.3155H22.2739ZM20.9568 16.2551H23.1257L23.4221 16.775H20.6904L20.9531 16.2551H20.9568Z" fill="#667185"/>
</svg>
