<svg width="84" height="72" viewBox="0 0 84 72" fill="none" xmlns="http://www.w3.org/2000/svg">
<rect width="83.3684" height="72" rx="2.52632" fill="#0D6EFD"/>
<path d="M46.6402 30.1747C46.5427 29.3252 45.7738 28.7155 44.9244 28.813L35.1737 29.9359C34.3233 30.0334 33.7145 30.8023 33.812 31.6517L35.2662 44.278C35.3637 45.1275 36.1326 45.7372 36.982 45.6397L46.7327 44.5167C47.5821 44.4193 48.1919 43.6504 48.0944 42.8009L46.6402 30.1747ZM45.1641 41.7615L37.8812 42.6C37.2754 42.6696 36.7274 42.235 36.6567 41.6282L35.6064 32.5042C35.5368 31.8984 35.9714 31.3494 36.5772 31.2797L43.8601 30.4412C44.4659 30.3716 45.0139 30.8073 45.0845 31.413L46.1349 40.5371C46.2045 41.1438 45.7699 41.6909 45.1631 41.7615H45.1641Z" fill="#0054E4"/>
<path d="M63.1655 53.0274L61.2498 36.3856L60.843 32.8506C60.7356 31.9156 59.8901 31.2452 58.9561 31.3526L55.4211 31.7594L25.4598 35.2089L21.9247 35.6157C20.9897 35.7232 20.3193 36.5686 20.4278 37.5026L20.8346 41.0377L22.7513 57.6794L23.1581 61.2144C23.2655 62.1494 24.11 62.8198 25.045 62.7124L28.58 62.3056L58.5413 58.8561L62.0764 58.4493C63.0114 58.3418 63.6818 57.4964 63.5733 56.5624L63.1665 53.0274H63.1655Z" fill="#569AFE"/>
<path d="M61.3881 52.5236L59.6335 37.2793L59.2605 34.0407C59.1621 33.1843 58.3882 32.5706 57.5318 32.6691L54.2932 33.0421L26.8484 36.2021L23.6097 36.5751C22.7533 36.6736 22.1386 37.4474 22.2381 38.3038L22.6111 41.5425L24.3667 56.7867L24.7397 60.0253C24.8381 60.8817 25.612 61.4964 26.4684 61.397L29.707 61.024L57.1518 57.8639L60.3905 57.4909C61.2469 57.3925 61.8606 56.6186 61.7621 55.7622L61.3891 52.5236H61.3881Z" fill="#CFE2FF"/>
<path d="M21.9238 35.6153C20.9888 35.7228 20.3184 36.5682 20.4268 37.5022L20.8336 41.0373C23.7201 40.705 25.792 38.095 25.4598 35.2075L21.9247 35.6143L21.9238 35.6153Z" fill="#A3897B"/>
<path d="M21.9238 35.6153C20.9888 35.7228 20.3184 36.5682 20.4268 37.5022L20.8336 41.0373C23.7201 40.705 25.792 38.095 25.4598 35.2075L21.9247 35.6143L21.9238 35.6153Z" fill="#0054E4"/>
<path d="M22.1743 39.2947C21.9485 39.3206 21.7864 39.5245 21.8123 39.7513C21.8381 39.977 22.042 40.1392 22.2678 40.1133C22.4936 40.0874 22.6558 39.8825 22.6299 39.6568C22.604 39.431 22.4001 39.2688 22.1733 39.2947H22.1743Z" fill="#E7F0FF"/>
<path d="M24.4204 36.3963C24.1946 36.4221 24.0325 36.626 24.0584 36.8528C24.0842 37.0786 24.2881 37.2407 24.5149 37.2149C24.7407 37.189 24.9028 36.9851 24.877 36.7583C24.8511 36.5325 24.6462 36.3704 24.4204 36.3963Z" fill="#E7F0FF"/>
<path d="M23.6365 38.0672C23.4107 38.093 23.2486 38.2969 23.2744 38.5227C23.3003 38.7485 23.5042 38.9107 23.73 38.8848C23.9558 38.8589 24.1179 38.654 24.0921 38.4282C24.0662 38.2025 23.8623 38.0403 23.6355 38.0662L23.6365 38.0672Z" fill="#E7F0FF"/>
<path d="M58.9552 31.3526L55.4202 31.7594C55.7524 34.6469 58.3624 36.7178 61.2499 36.3856L60.8431 32.8506C60.7357 31.9156 59.8912 31.2452 58.9562 31.3526H58.9552Z" fill="#0054E4"/>
<path d="M56.7073 32.739C56.4815 32.7649 56.3194 32.9688 56.3452 33.1956C56.3711 33.4214 56.576 33.5835 56.8018 33.5576C57.0276 33.5318 57.1897 33.3269 57.1638 33.1011C57.138 32.8753 56.9331 32.7132 56.7073 32.739Z" fill="#CFE2FF"/>
<path d="M59.6067 34.9851C59.3809 35.011 59.2188 35.2149 59.2447 35.4407C59.2705 35.6665 59.4754 35.8286 59.7012 35.8028C59.927 35.7769 60.0891 35.572 60.0633 35.3462C60.0374 35.1204 59.8335 34.9583 59.6077 34.9842L59.6067 34.9851Z" fill="#CFE2FF"/>
<path d="M57.9358 34.2015C57.71 34.2273 57.5479 34.4312 57.5738 34.657C57.5996 34.8828 57.8045 35.0449 58.0303 35.0191C58.2561 34.9932 58.4182 34.7883 58.3924 34.5625C58.3665 34.3367 58.1626 34.1746 57.9358 34.2005V34.2015Z" fill="#CFE2FF"/>
<path d="M63.1655 53.0273C60.278 53.3596 58.2071 55.9696 58.5403 58.8571L62.0754 58.4503C63.0103 58.3428 63.6807 57.4974 63.5723 56.5634L63.1655 53.0283V53.0273Z" fill="#0054E4"/>
<path d="M61.7293 53.9524C61.5035 53.9783 61.3414 54.1832 61.3672 54.408C61.3931 54.6338 61.597 54.7959 61.8238 54.7701C62.0496 54.7442 62.2117 54.5393 62.1858 54.3135C62.16 54.0877 61.9561 53.9256 61.7303 53.9514L61.7293 53.9524Z" fill="#CFE2FF"/>
<path d="M59.4834 56.8514C59.2576 56.8772 59.0955 57.0821 59.1214 57.3069C59.1472 57.5327 59.3511 57.6948 59.5779 57.669C59.8037 57.6431 59.9658 57.4382 59.94 57.2124C59.9141 56.9866 59.7092 56.8245 59.4834 56.8504V56.8514Z" fill="#CFE2FF"/>
<path d="M60.2681 55.0657C60.0423 55.0916 59.8802 55.2965 59.906 55.5222C59.9319 55.748 60.1368 55.9102 60.3626 55.8843C60.5884 55.8584 60.7505 55.6545 60.7246 55.4278C60.6988 55.202 60.4949 55.0398 60.2691 55.0657H60.2681Z" fill="#CFE2FF"/>
<path d="M22.7493 57.68L23.1561 61.215C23.2635 62.15 24.108 62.8204 25.043 62.713L28.578 62.3062C28.2458 59.4197 25.6348 57.3478 22.7483 57.68H22.7493Z" fill="#0054E4"/>
<path d="M27.1966 60.5091C26.9708 60.5349 26.8086 60.7388 26.8345 60.9646C26.8604 61.1904 27.0643 61.3525 27.291 61.3267C27.5168 61.3008 27.679 61.0959 27.6531 60.8711C27.6272 60.6453 27.4223 60.4832 27.1966 60.5091Z" fill="#CFE2FF"/>
<path d="M24.2981 58.262C24.0723 58.2878 23.9102 58.4927 23.9361 58.7185C23.9619 58.9443 24.1668 59.1065 24.3926 59.0806C24.6184 59.0547 24.7805 58.8498 24.7547 58.624C24.7288 58.3983 24.5249 58.2361 24.2991 58.262H24.2981Z" fill="#CFE2FF"/>
<path d="M25.969 59.0467C25.7432 59.0725 25.5811 59.2774 25.607 59.5022C25.6328 59.728 25.8377 59.8902 26.0635 59.8643C26.2893 59.8384 26.4514 59.6335 26.4256 59.4077C26.3997 59.1819 26.1948 59.0198 25.969 59.0457V59.0467Z" fill="#CFE2FF"/>
<path d="M45.968 39.8331C45.8695 39.4681 45.4766 39.2552 45.0926 39.3587L40.6714 40.5552C40.2874 40.6587 40.0557 41.0406 40.1551 41.4057L40.9071 44.1808C41.0056 44.5458 41.3985 44.7587 41.7824 44.6543L46.2027 43.4577C46.5866 43.3532 46.8184 42.9723 46.7199 42.6072L45.968 39.8321V39.8331Z" fill="#0D6EFD" stroke="#CFE2FF" stroke-width="0.0557012" stroke-miterlimit="10"/>
<path d="M46.0773 39.8032C45.9629 39.3805 45.5083 39.1348 45.0647 39.2552L40.6434 40.4518C40.1998 40.5721 39.9313 41.0138 40.0457 41.4365L40.7976 44.2116C40.912 44.6343 41.3666 44.88 41.8102 44.7597L46.2315 43.5631C46.6751 43.4427 46.9437 43.0011 46.8293 42.5784L46.0783 39.8023L46.0773 39.8032ZM46.1748 43.3552L41.7535 44.5518C41.4302 44.6393 41.099 44.4603 41.0164 44.1529L40.2645 41.3768C40.1809 41.0685 40.3759 40.7482 40.7001 40.6597L45.1214 39.4631C45.4457 39.3755 45.7759 39.5546 45.8595 39.8619L46.6104 42.638C46.694 42.9464 46.499 43.2677 46.1758 43.3552H46.1748Z" fill="white"/>
<path d="M42.0889 42.9991C42.0889 42.9991 42.2142 42.9653 42.2202 42.9633C42.2361 42.9594 42.2381 42.9484 42.2381 42.9484L42.3962 42.3705L42.0491 42.3218L42.0879 42.9991H42.0889Z" fill="#E7F0FF"/>
<path d="M41.9038 41.7955C41.8978 41.7975 41.7725 41.8314 41.7725 41.8314L42.0808 42.4361L42.3563 42.2193L41.9276 41.7995C41.9276 41.7995 41.9197 41.7916 41.9048 41.7955H41.9038Z" fill="#E7F0FF"/>
<path d="M44.2462 41.5168C43.9309 41.6024 42.1027 42.2599 42.1027 42.2599L41.864 42.4339L42.1584 42.4628C42.1584 42.4628 44.0682 42.1077 44.3835 42.0221C44.6988 41.9366 44.9803 41.7317 44.9445 41.5994C44.9077 41.4661 44.5625 41.4313 44.2462 41.5168Z" fill="#E7F0FF"/>
<path d="M42.6612 40.4556C42.6463 40.4596 42.521 40.4934 42.521 40.4934L43.4271 42.1665L44.0011 41.6482L42.704 40.4696C42.704 40.4696 42.6772 40.4507 42.6612 40.4547V40.4556Z" fill="#E7F0FF"/>
<path d="M43.5107 41.2861C43.5336 41.3726 43.819 41.2881 43.819 41.2881L43.7763 41.1289C43.7763 41.1289 43.4868 41.1985 43.5107 41.2861Z" fill="#E7F0FF"/>
<path d="M43.1624 40.9711C43.1863 41.0587 43.4708 40.9731 43.4708 40.9731L43.428 40.814C43.428 40.814 43.1395 40.8836 43.1624 40.9711Z" fill="#E7F0FF"/>
<path d="M43.4096 43.7768C43.4096 43.7768 43.5339 43.743 43.5498 43.739C43.5657 43.735 43.5796 43.7052 43.5796 43.7052L44.1058 42.0331L43.3489 41.876L43.4105 43.7778L43.4096 43.7768Z" fill="#E7F0FF"/>
<path d="M43.8652 42.5942C43.889 42.6817 44.1735 42.5962 44.1735 42.5962L44.1307 42.437C44.1307 42.437 43.8413 42.5066 43.8652 42.5942Z" fill="#E7F0FF"/>
<path d="M43.7238 43.0409C43.7477 43.1285 44.0322 43.0429 44.0322 43.0429L43.9894 42.8838C43.9894 42.8838 43.6999 42.9544 43.7238 43.0419V43.0409Z" fill="#E7F0FF"/>
<path d="M27.6451 45.8816C26.4256 45.6697 25.2648 46.4864 25.053 47.7058C24.8411 48.9253 25.6577 50.086 26.8772 50.2979C28.0967 50.5098 29.2574 49.6932 29.4693 48.4737C29.6812 47.2542 28.8645 46.0935 27.6441 45.8816H27.6451Z" fill="white"/>
<path d="M27.5825 46.2448C26.563 46.0677 25.5932 46.75 25.4161 47.7696C25.2391 48.7881 25.9214 49.7589 26.941 49.936C27.9605 50.113 28.9303 49.4307 29.1073 48.4111C29.2844 47.3916 28.6021 46.4218 27.5835 46.2448H27.5825Z" fill="#257CFD"/>
<path d="M28.8954 46.9797C28.6527 46.6226 28.2946 46.3451 27.8639 46.2079C27.7854 46.183 27.7048 46.1621 27.6222 46.1472C27.6143 46.1462 27.6063 46.1442 27.5994 46.1432C27.5834 46.1402 27.5685 46.1382 27.5526 46.1353C27.4711 46.1233 27.3895 46.1164 27.3089 46.1144C26.8633 46.1034 26.4396 46.2437 26.0964 46.4943C26.0437 46.5321 25.994 46.5729 25.9452 46.6157C25.623 46.9031 25.3912 47.296 25.3116 47.7526C25.2321 48.2101 25.3176 48.6587 25.5245 49.0377C25.5563 49.0944 25.5891 49.1501 25.6259 49.2028C25.8647 49.5539 26.2158 49.8284 26.6385 49.9677C26.7151 49.9936 26.7947 50.0144 26.8752 50.0304C26.8902 50.0333 26.9061 50.0363 26.921 50.0383C26.928 50.0403 26.9359 50.0413 26.9439 50.0423C27.0274 50.0552 27.11 50.0642 27.1915 50.0662C27.6431 50.0821 28.0728 49.9418 28.4219 49.6882C28.4747 49.6504 28.5244 49.6096 28.5731 49.5668C28.8964 49.2804 29.1282 48.8865 29.2077 48.4289C29.2873 47.9724 29.2018 47.5238 28.9959 47.1458C28.965 47.0891 28.9312 47.0344 28.8954 46.9807V46.9797ZM28.7184 47.0593C28.5572 47.124 28.3871 47.1717 28.2131 47.2005C28.1395 46.925 28.0161 46.6624 27.847 46.4227C27.8411 46.4138 27.8351 46.4058 27.8291 46.3978C28.1962 46.5212 28.5045 46.7579 28.7184 47.0603V47.0593ZM27.6272 46.4476C27.8053 46.6773 27.9395 46.9409 28.0201 47.2234C27.848 47.2373 27.672 47.2324 27.4949 47.2075L27.6272 46.4466V46.4476ZM28.0649 47.4124C28.1096 47.6452 28.1196 47.8898 28.0867 48.1365L27.3557 48.0092L27.4621 47.3965C27.664 47.4253 27.8659 47.4303 28.0649 47.4124ZM27.3228 48.1972L28.0539 48.3245C28.0012 48.5682 27.9097 48.795 27.7883 48.9999C27.6073 48.9153 27.4163 48.8527 27.2164 48.8119L27.3228 48.1972ZM27.1677 47.9754L26.4465 47.8501C26.5003 47.6044 26.5918 47.3766 26.7141 47.1707C26.8912 47.2543 27.0792 47.3189 27.2751 47.3617L27.1687 47.9754H27.1677ZM27.4372 46.4227L27.3069 47.1727C27.1368 47.1349 26.9727 47.0792 26.8195 47.0086C26.9876 46.7748 27.1975 46.5769 27.4372 46.4227ZM27.2691 46.3034C27.2622 46.3083 27.2552 46.3123 27.2482 46.3173C27.0105 46.4844 26.8076 46.6893 26.6455 46.92C26.4983 46.8365 26.36 46.739 26.2357 46.6276C26.5321 46.4197 26.8912 46.3014 27.2681 46.3043L27.2691 46.3034ZM26.0825 46.748C26.2237 46.8763 26.3769 46.9887 26.542 47.0822C26.4097 47.308 26.3133 47.5556 26.2576 47.8172L25.5195 47.6889C25.6061 47.3119 25.809 46.9877 26.0825 46.748ZM25.4867 47.8779L26.2237 48.0062C26.1879 48.2718 26.1949 48.5384 26.2436 48.796C26.0566 48.8288 25.8746 48.8825 25.6986 48.9551C25.5215 48.6368 25.4399 48.2628 25.4867 47.8779ZM25.804 49.1212C25.9582 49.0586 26.1213 49.0128 26.2884 48.984C26.363 49.2555 26.4843 49.5151 26.6514 49.7528C26.6564 49.7598 26.6614 49.7658 26.6664 49.7727C26.3103 49.6474 26.0129 49.4157 25.804 49.1202V49.1212ZM26.8643 49.718C26.6912 49.4932 26.5609 49.2356 26.4814 48.9591C26.6495 48.9442 26.8215 48.9472 26.9946 48.9691L26.8643 49.718ZM26.4356 48.7701C26.3889 48.5344 26.3799 48.2887 26.4127 48.039L27.1339 48.1644L27.0274 48.7801C26.8285 48.7542 26.6306 48.7512 26.4356 48.7701ZM27.0513 49.7588L27.1826 48.9999C27.3577 49.0367 27.5248 49.0914 27.6809 49.162C27.5098 49.4007 27.295 49.6027 27.0503 49.7588H27.0513ZM27.2244 49.8742C27.2333 49.8682 27.2413 49.8633 27.2502 49.8573C27.4899 49.6882 27.6939 49.4833 27.856 49.2486C28.0102 49.3351 28.1534 49.4365 28.2837 49.5509C27.9803 49.7628 27.6113 49.8812 27.2244 49.8732V49.8742ZM28.4379 49.4306C28.2916 49.2973 28.1315 49.1819 27.9604 49.0864C28.0917 48.8616 28.1872 48.6159 28.2429 48.3563L29.0018 48.4886C28.9153 48.8666 28.7124 49.1909 28.4379 49.4306ZM29.0347 48.2996L28.2757 48.1674C28.3115 47.9048 28.3046 47.6412 28.2568 47.3865C28.4498 47.3537 28.6408 47.3 28.8228 47.2234C28.9998 47.5417 29.0814 47.9147 29.0347 48.2996Z" fill="#CFE2FF"/>
<path d="M58.7623 47.1066L57.3778 47.7591L56.0549 46.9883L56.2478 48.5071L55.106 49.5267L56.6099 49.8131L57.2276 51.2136L57.9636 49.8718L59.4865 49.7176L58.4381 48.6026L58.7623 47.1066Z" fill="#0022B0"/>
<path d="M58.616 48.5531L58.9224 47.1407C58.9353 47.08 58.9134 47.0164 58.8647 46.9786C58.8159 46.9398 58.7493 46.9328 58.6926 46.9587L57.3866 47.5744L56.1383 46.8473C56.0846 46.8155 56.018 46.8174 55.9662 46.8523C55.9145 46.8871 55.8867 46.9477 55.8946 47.0094L56.0766 48.4427L54.9994 49.4046C54.9527 49.4463 54.9338 49.51 54.9507 49.5707C54.9676 49.6304 55.0163 49.6761 55.078 49.687L56.4974 49.9566L57.0803 51.2785C57.1051 51.3352 57.1608 51.373 57.2225 51.376C57.2314 51.376 57.2404 51.376 57.2484 51.376C57.3001 51.37 57.3478 51.3392 57.3727 51.2924L58.068 50.0252L59.5052 49.88C59.5052 49.88 59.5062 49.88 59.5072 49.88C59.5679 49.873 59.6206 49.8323 59.6415 49.7746C59.6634 49.7159 59.6505 49.6502 59.6077 49.6055L58.617 48.5531H58.616ZM57.9476 49.7089C57.8969 49.7129 57.8461 49.7457 57.8203 49.7935L57.2434 50.8448L56.76 49.7477C56.7381 49.699 56.6933 49.6632 56.6406 49.6532L55.4619 49.4294L56.3561 48.6307C56.3959 48.5949 56.4168 48.5422 56.4099 48.4885L56.2587 47.2989L57.2951 47.9026C57.3409 47.9295 57.3985 47.9325 57.4473 47.9096L58.5315 47.3983L58.2778 48.57C58.2659 48.6228 58.2818 48.6775 58.3186 48.7172L59.1402 49.5906L57.9476 49.7109V49.7089Z" fill="white"/>
<path d="M51.923 32.1594L48.8894 32.5088L52.0103 59.6064L55.0439 59.257L51.923 32.1594Z" fill="#0022B0"/>
<path d="M52.9812 38.0826C52.9404 37.7255 52.6162 37.4688 52.2591 37.5096L49.7764 37.7951C49.4193 37.8359 49.1617 38.1601 49.2025 38.5172L49.488 40.9999C49.5287 41.358 49.854 41.6146 50.2111 41.5738L52.6938 41.2884C53.0508 41.2476 53.3085 40.9233 53.2667 40.5652L52.9812 38.0826ZM52.6371 40.8L50.1544 41.0855C50.0659 41.0954 49.9863 41.0317 49.9763 40.9432L49.6899 38.4605C49.6799 38.372 49.7436 38.2914 49.8321 38.2815L52.3148 37.996C52.4033 37.9861 52.4839 38.0497 52.4938 38.1383L52.7793 40.6209C52.7892 40.7095 52.7256 40.79 52.6381 40.8H52.6371Z" fill="#569AFE"/>
<path d="M35.8695 50.0375L33.2166 56.165L38.8539 58.6057L41.5068 52.4782L35.8695 50.0375Z" fill="white"/>
<path d="M36.1025 50.594L34.0068 55.4346L38.8474 57.5303L40.943 52.6897L36.1025 50.594Z" fill="#CFE2FF"/>
<path d="M34.7845 53.6424L34.1807 55.0371L39.0212 57.1328L39.625 55.7381L34.7845 53.6424Z" fill="#86B7FE"/>
<path opacity="0.8" d="M37.6602 52.2771C37.6354 52.2602 37.6085 52.2482 37.5807 52.2413C37.5966 52.1507 37.5598 52.0543 37.4782 51.9986C37.4255 51.9618 37.3628 51.9498 37.3041 51.9578C37.2992 51.8752 37.2574 51.7956 37.1838 51.7449C37.0565 51.6574 36.8834 51.6902 36.7959 51.8165C36.7939 51.8195 36.7919 51.8235 36.7889 51.8265C36.773 51.8056 36.7531 51.7877 36.7302 51.7718C36.6079 51.6872 36.4408 51.7191 36.3572 51.8414C36.3353 51.8732 36.3214 51.908 36.3145 51.9429L37.7448 52.5615C37.7866 52.4601 37.7537 52.3407 37.6602 52.2761V52.2771Z" fill="white"/>
<path opacity="0.8" d="M36.6288 52.5564C36.6109 52.5445 36.591 52.5355 36.5702 52.5306C36.5841 52.4689 36.5602 52.4013 36.5055 52.3635C36.4597 52.3326 36.4031 52.3277 36.3553 52.3475C36.3503 52.2978 36.3235 52.2501 36.2787 52.2192C36.1982 52.1635 36.0867 52.1844 36.031 52.265C36.0271 52.271 36.0241 52.2769 36.0201 52.2829C36.0121 52.2739 36.0032 52.266 35.9932 52.259C35.9226 52.2103 35.8252 52.2282 35.7764 52.2998C35.7704 52.3088 35.7645 52.3187 35.7605 52.3277L36.7005 52.7345C36.7134 52.6678 36.6865 52.5972 36.6269 52.5554L36.6288 52.5564ZM36.2449 52.5316C36.2449 52.5316 36.2548 52.5276 36.2588 52.5246C36.2588 52.5276 36.2598 52.5296 36.2608 52.5326C36.2558 52.5326 36.2499 52.5306 36.2449 52.5306V52.5316Z" fill="white"/>
<path d="M37.5369 55.0643C37.7079 55.1061 38.0272 55.1389 38.1754 55.0623C38.7484 54.7699 38.4152 53.8628 38.2262 53.2471C38.5713 54.5521 37.5369 55.0643 37.5369 55.0643Z" fill="white"/>
<path d="M36.1753 54.3919C37.1421 54.5859 37.4475 55.0663 37.4514 55.0474C37.6046 54.0289 38.0751 53.079 38.8012 52.335C37.7101 52.7199 36.8059 53.3117 36.1753 54.3919Z" fill="white"/>
<path d="M35.5605 54.1216C35.6351 54.4349 35.9574 54.8596 36.0778 55.0078C36.3593 55.351 37.8751 55.9657 38.1198 55.8921C38.3645 55.8185 38.5366 55.527 38.5107 55.5201C37.1222 55.1809 35.5605 54.1216 35.5605 54.1216Z" fill="#0022B0"/>
<path d="M34.4952 54.3091L34.0059 55.439L38.8469 57.5348L39.3532 56.366C38.1685 55.8647 37.5081 55.7434 36.2946 55.1138C35.6311 54.7696 35.0433 54.5259 34.4962 54.3091H34.4952Z" fill="#569AFE"/>
<path d="M34.2257 55.0065C34.2157 55.0036 34.2078 54.9996 34.1978 54.9956L34.0059 55.4382L38.8469 57.534L39.0309 57.1083C38.0372 56.7711 37.3101 56.5542 36.3274 56.0042C35.7117 55.66 34.9886 55.286 34.2267 55.0056L34.2257 55.0065Z" fill="#86B7FE"/>
<path d="M32.0424 34.4499L29.0088 34.7993L32.1297 61.8969L35.1633 61.5475L32.0424 34.4499Z" fill="#0022B0"/>
<path d="M33.0999 40.3718C33.0591 40.0147 32.7348 39.7571 32.3777 39.7989L29.8951 40.0843C29.538 40.1251 29.2804 40.4494 29.3211 40.8065L29.6076 43.2892C29.6484 43.6462 29.9726 43.9039 30.3307 43.8631L32.8134 43.5776C33.1705 43.5368 33.4271 43.2126 33.3863 42.8545L33.1009 40.3718H33.0999ZM32.7567 43.0892L30.274 43.3747C30.1855 43.3846 30.1049 43.321 30.095 43.2325L29.8085 40.7498C29.7986 40.6613 29.8622 40.5807 29.9508 40.5707L32.4334 40.2853C32.522 40.2753 32.6025 40.339 32.6125 40.4275L32.898 42.9102C32.9079 42.9987 32.8442 43.0793 32.7557 43.0892H32.7567Z" fill="#569AFE"/>
<path d="M38.5477 25.4351C38.0145 25.5067 37.4913 25.633 36.9622 25.7315L37.2078 30.9236C37.2436 31.2827 37.3809 32.0496 37.9896 32.0217C38.7555 31.9869 38.8252 31.3334 38.8063 30.9196L38.5457 25.4351H38.5477Z" fill="#86B7FE"/>
<path d="M40.2824 25.8866C40.2476 25.5305 40.1183 24.6154 39.2539 24.7139C38.5437 24.7945 38.4423 25.4291 38.4482 25.8448L38.6472 31.1434C38.68 31.5005 38.8103 32.4146 39.6747 32.3171C40.4236 32.2326 40.4953 31.5303 40.4793 31.1196L40.2834 25.8866H40.2824Z" fill="#86B7FE"/>
<path d="M41.8827 25.411C41.8479 25.054 41.7176 24.1399 40.8552 24.2383C40.144 24.3189 40.0435 24.9535 40.0485 25.3703L40.2464 30.6678C40.2803 31.0249 40.4106 31.939 41.2739 31.8415C42.0239 31.757 42.0945 31.0548 42.0776 30.644L41.8817 25.412L41.8827 25.411Z" fill="#86B7FE"/>
<path d="M43.3947 25.9402C43.3599 25.5831 43.2306 24.669 42.3662 24.7665C41.656 24.8471 41.5546 25.4827 41.5605 25.8984L41.7028 29.9994C41.7366 30.3565 41.8669 31.2706 42.7303 31.1731C43.4793 31.0876 43.5509 30.3864 43.535 29.9756L43.3947 25.9412V25.9402Z" fill="#86B7FE"/>
<path d="M36.802 24.6649C36.4907 25.2507 36.3136 25.7869 36.3136 25.7869C36.3136 25.7869 34.9569 29.6034 34.9002 29.8242C34.8435 30.045 35.4861 29.9893 36.1505 29.5517C36.9592 29.0185 37.6385 26.9556 37.6385 26.9556L43.4106 26.6632C43.4106 26.6632 43.3608 25.2418 43.329 24.5585C43.2972 23.8741 42.3254 23.2714 42.3254 23.2714L41.9375 10.4541H36.9433L37.7261 23.5409C37.7261 23.5409 37.1143 24.079 36.802 24.6639V24.6649Z" fill="#86B7FE"/>
<path d="M38.7186 31.5598C38.7186 31.5598 38.7395 30.1175 38.5784 29.0254C38.4242 30.396 38.7186 31.5598 38.7186 31.5598Z" fill="#569AFE"/>
<path d="M40.4784 31.4636C40.4784 31.4636 40.4993 30.0223 40.3381 28.9292C40.184 30.2998 40.4784 31.4636 40.4784 31.4636Z" fill="#569AFE"/>
<path d="M42.0846 30.988C42.0846 30.988 42.1055 29.5468 41.9443 28.4536C41.7902 29.8243 42.0846 30.988 42.0846 30.988Z" fill="#569AFE"/>
</svg>
