<svg width="44" height="46" viewBox="0 0 44 46" fill="none" xmlns="http://www.w3.org/2000/svg">
<rect width="44" height="46" rx="4" fill="#EFF5FF"/>
<path d="M35.2521 16.7852H9.12819C7.95283 16.7852 7 17.738 7 18.9133V37.444C7 38.6194 7.95283 39.5722 9.12819 39.5722H35.2521C36.4275 39.5722 37.3803 38.6194 37.3803 37.444V18.9133C37.3803 17.738 36.4275 16.7852 35.2521 16.7852Z" fill="#3B6096"/>
<path d="M9.12444 17.0898H35.2521C36.2568 17.0898 37.0762 17.9055 37.0762 18.914V37.4447C37.0762 38.4495 36.2606 39.2689 35.2521 39.2689H9.12444C8.11967 39.2689 7.30029 38.4532 7.30029 37.4447V18.914C7.30029 17.9092 8.11596 17.0898 9.12444 17.0898Z" fill="#0D6EFD"/>
<path d="M36.8355 25.5561V19.064C36.8355 18.0741 36.0309 17.2695 35.041 17.2695H9.33599C8.34606 17.2695 7.5415 18.0741 7.5415 19.064V25.5561H36.8355Z" fill="#86B7FE"/>
<path d="M7.56348 37.543C7.68212 38.418 8.43106 39.089 9.33943 39.089H35.0444C35.9528 39.089 36.698 38.4143 36.8204 37.543H7.56348Z" fill="#0D6EFD"/>
<path d="M34.3695 23.2471H30.6655V19.5469H27.3843V23.2471H23.6841V26.532H27.3843V30.2323H30.6655V26.532H34.3695V23.2471Z" fill="white"/>
<path d="M15.8611 39.773C15.8611 39.8991 15.7573 39.9992 15.635 39.9992H9.10214C8.97608 39.9992 8.87598 39.8954 8.87598 39.773C8.87598 39.647 8.97978 39.5469 9.10214 39.5469H15.635C15.761 39.5469 15.8611 39.6507 15.8611 39.773Z" fill="#1B395E"/>
<path d="M35.2298 39.773C35.2298 39.8991 35.1297 39.9992 35.0036 39.9992H28.4708C28.3447 39.9992 28.2446 39.8954 28.2446 39.773C28.2446 39.647 28.3484 39.5469 28.4708 39.5469H35.0036C35.1297 39.5469 35.2298 39.6507 35.2298 39.773Z" fill="#1B395E"/>
<path d="M14.571 16.5344C14.571 16.7458 14.4005 16.9126 14.1928 16.9126H10.3184C10.107 16.9126 9.94019 16.7421 9.94019 16.5344C9.94019 16.3231 10.1107 16.1562 10.3184 16.1562H14.1928C14.4042 16.1562 14.571 16.3268 14.571 16.5344Z" fill="#1B395E"/>
<path d="M34.24 16.5344C34.24 16.7458 34.0694 16.9126 33.8618 16.9126H29.9873C29.776 16.9126 29.6091 16.7421 29.6091 16.5344C29.6091 16.3231 29.7797 16.1562 29.9873 16.1562H33.8618C34.0731 16.1562 34.24 16.3268 34.24 16.5344Z" fill="#1B395E"/>
<path d="M9.40635 20.1578C9.85498 18.9417 11.2083 17.9517 12.4281 17.9517H36.4535C36.1235 17.5365 35.6193 17.2695 35.0483 17.2695H9.34332C8.35338 17.2695 7.54883 18.0741 7.54883 19.064V25.1927L9.41005 20.1578H9.40635Z" fill="#CFE2FF"/>
<path d="M35.8789 36.1287C35.4155 38.2346 34.4849 38.3347 32.8572 38.3347H7.91602C8.24599 38.75 8.75023 39.0169 9.32121 39.0169H35.0262C36.0161 39.0169 36.8207 38.2124 36.8207 37.2225V31.0938L35.8752 36.1287H35.8789Z" fill="#00007E"/>
<path d="M28.4672 13.0641C28.4672 13.6499 27.9926 14.1282 27.4031 14.1282H16.9735C16.3877 14.1282 15.9094 13.6536 15.9094 13.0641C15.9094 12.4783 16.384 12 16.9735 12H27.4031C27.9889 12 28.4672 12.4746 28.4672 13.0641Z" fill="#1B395E"/>
<path d="M28.2703 13.0825C28.2629 12.5227 27.8069 12.0667 27.2433 12.0667H17.14C16.5765 12.0667 16.1205 12.519 16.113 13.0825H28.274H28.2703Z" fill="#3B6096"/>
<path d="M16.2688 13.8555C16.4542 14.0223 16.7026 14.1298 16.9733 14.1298H27.4028C27.6735 14.1298 27.9219 14.026 28.1073 13.8555H16.2688Z" fill="#112A44"/>
<path d="M15.5682 16.8132H14.708L16.7991 14.1289H17.6593L15.5682 16.8132Z" fill="#3B6096"/>
<path d="M28.5747 16.8132H29.4386L27.3475 14.1289H26.4873L28.5747 16.8132Z" fill="#3B6096"/>
</svg>
