<svg width="84" height="73" viewBox="0 0 84 73" fill="none" xmlns="http://www.w3.org/2000/svg">
<rect x="0.185059" y="0.529785" width="83.37" height="72" rx="1.26798" fill="#0D6EFD"/>
<g clip-path="url(#clip0_1537_21127)">
<path d="M44.1115 38.4548L44.1096 38.4538C45.631 38.5604 47.1512 38.5594 48.7143 38.3598C49.0091 38.3144 49.2955 38.2609 49.5787 38.2037V37.0929C45.5282 37.7389 41.3502 37.2279 39.9429 37.0166L39.75 37.9325C39.763 37.9355 39.7758 37.9387 39.7895 37.9411C41.2557 38.1596 42.6846 38.3549 44.112 38.4548H44.1115Z" fill="#569AFE"/>
<path d="M40.0161 53.5103L40.8722 50.7713L40.8751 50.7725L41.1169 49.9881L41.2521 49.5552L41.2504 49.5547L43.905 40.9421H44.9598L45.2646 49.1645H45.2666L45.4129 53.2722C45.4347 53.2661 45.4573 53.2619 45.4809 53.2614L48.8359 53.2178L49.0538 49.0489L49.5781 40.9423V38.2038C49.2951 38.261 49.0084 38.3145 48.7137 38.3599C47.1505 38.5594 45.6306 38.5604 44.1089 38.4539L44.1109 38.4549C42.6835 38.355 41.2548 38.1594 39.7884 37.9412C39.7746 37.939 39.7619 37.9356 39.7488 37.9326L37.4406 48.8891L36.6228 52.2301L39.9081 53.4396C39.9491 53.4548 39.9849 53.4796 40.0154 53.5108L40.0161 53.5103Z" fill="#00007E"/>
<path d="M38.1656 60.6288L31.4217 58.2407C31.2386 58.6503 31.1851 58.9696 31.1851 58.9696L37.9651 61.4014L38.1658 60.6288H38.1656Z" fill="#E7F0FF"/>
<path d="M39.3213 56.1803C39.2837 56.1847 39.2447 56.1813 39.2064 56.1683L35.8507 55.0194C35.834 55.0138 35.8188 55.0057 35.8035 54.9971C35.7456 55.2199 35.6877 55.4428 35.6298 55.6654C35.5316 56.0438 35.4413 56.4792 35.1289 56.746C34.8464 56.9873 34.4446 57.0305 34.0742 57.002C33.7039 56.9735 33.3367 56.8849 32.9659 56.9053C32.2171 56.946 31.7056 57.606 31.4219 58.2404L38.1658 60.6285L39.3213 56.1805V56.1803Z" fill="#0022B0"/>
<path d="M39.2062 56.1685C39.2447 56.1817 39.2835 56.1852 39.3211 56.1805C39.4379 56.1665 39.5417 56.0732 39.577 55.9346L40.1047 53.8678C40.1388 53.7348 40.1003 53.5968 40.0159 53.5105C39.9857 53.4793 39.9496 53.4542 39.9086 53.4393L36.6233 52.2298L36.5713 52.2107C36.4117 52.152 36.2419 52.2565 36.1945 52.4428L35.6482 54.5894C35.6065 54.7536 35.675 54.9244 35.8031 54.9975C35.818 55.0061 35.8335 55.0142 35.8502 55.0198L39.206 56.1687L39.2062 56.1685Z" fill="#6BA7FE"/>
<path d="M45.178 61.5294L52.2802 61.4977C52.2802 61.4977 52.3156 61.1745 52.2523 60.7212L45.1959 60.7232L45.178 61.5296V61.5294Z" fill="#E7F0FF"/>
<path d="M45.4118 56.1078C45.3715 56.1073 45.3337 56.0975 45.2991 56.0806L45.196 60.7229L52.2524 60.7209C52.1795 60.1984 52.0691 59.7146 51.5519 59.4729C51.2648 59.3386 50.946 59.2925 50.6409 59.2066C50.2831 59.1057 49.9414 58.9487 49.6317 58.743C49.4349 58.6122 49.2483 58.4593 49.1119 58.2659C48.8358 57.8752 48.9352 57.387 48.9452 56.9352C48.9511 56.6698 48.957 56.4045 48.9629 56.1392C48.9465 56.1424 48.9295 56.1449 48.9123 56.1446L45.4118 56.1078Z" fill="#0022B0"/>
<path d="M45.4133 53.2716C45.2827 53.3084 45.1833 53.4429 45.1792 53.6044L45.1225 55.7583C45.1185 55.9028 45.1919 56.027 45.2994 56.08C45.334 56.0969 45.3718 56.1068 45.4121 56.1073L48.9126 56.1441C48.9298 56.1441 48.9468 56.1419 48.9632 56.1387C49.1048 56.1122 49.2162 55.972 49.2209 55.801L49.2815 53.5646C49.2867 53.3707 49.1537 53.2131 48.986 53.2154L48.8363 53.2173L45.4813 53.261C45.4577 53.2613 45.4351 53.2654 45.4133 53.2718V53.2716Z" fill="#6BA7FE"/>
<path d="M49.5784 37.0925C49.5836 37.0917 49.5887 37.091 49.5941 37.09C49.8592 37.0476 50.0528 36.8171 50.047 36.5489C50.0394 36.207 50.0281 35.6925 50.0136 35.0647C50.0035 34.6217 49.9922 34.1223 49.9797 33.5872C50.0423 33.5924 50.1049 33.5976 50.1675 33.6027C50.6959 33.6459 51.2289 33.6889 51.7549 33.6236C53.0113 33.4677 54.1653 32.6588 54.7693 31.5551C55.4013 30.4003 55.1163 28.8581 54.4352 27.7652C54.0006 27.0676 53.4481 26.4435 52.8434 25.8893C52.5516 25.6221 52.2517 25.3631 51.9427 25.115C51.063 24.4089 49.8867 23.6019 48.8588 23.141V23.1415C48.4877 22.8683 47.9596 22.5947 47.2078 22.3802C47.2152 22.3542 47.225 22.3304 47.2309 22.3031C47.3048 21.9612 47.2567 21.5965 47.1852 21.2539C47.1128 20.9064 46.9869 20.5257 46.7214 20.4027C46.462 20.2825 46.1832 20.4565 45.9262 20.5851C45.87 20.6133 45.8128 20.6386 45.7551 20.6624C45.0996 20.9346 44.3736 20.9282 43.7225 20.6379C43.7112 20.633 43.7001 20.6271 43.6888 20.6219C43.6199 20.5903 43.5512 20.5566 43.4822 20.5242C43.3374 20.456 43.1914 20.3954 43.0385 20.3811C42.8789 20.3662 42.5262 20.4374 42.4052 20.5819C42.3255 20.6774 42.2779 20.8075 42.2322 20.9343C42.096 21.3128 41.8592 21.9772 42.0241 22.3988C42.0315 22.4175 42.0408 22.4361 42.0504 22.4548C41.3712 22.684 40.6426 23.0023 40.2116 23.4061C40.2111 23.4051 40.2109 23.4039 40.2106 23.4029C39.3622 24.1436 38.7208 24.9088 38.0852 25.8407C37.8621 26.1681 37.6505 26.5034 37.4493 26.8441C36.2945 28.8006 35.3958 31.748 37.7391 33.2527C38.267 33.5917 38.8738 33.7797 39.4986 33.8373C39.4915 34.2065 39.4851 34.555 39.4792 34.876C39.467 35.5549 39.4579 36.1098 39.452 36.4718C39.4476 36.74 39.6422 36.97 39.9075 37.0103C39.9183 37.012 39.9311 37.0137 39.9424 37.0154C41.3497 37.2267 45.5276 37.738 49.5782 37.0917L49.5784 37.0925ZM44.6561 36.4944C44.6522 36.5709 44.6465 36.6517 44.6043 36.7157C44.5621 36.7798 44.4698 36.8176 44.4062 36.7746C44.3056 36.7069 44.4013 35.7593 44.4023 35.6179C44.4045 35.2324 44.4104 34.8468 44.4197 34.4615C44.4286 34.0985 44.2943 32.5245 44.5793 32.3581C44.7086 32.6983 44.7059 33.0895 44.7116 33.4493C44.7273 34.4647 44.7089 35.4805 44.6561 36.4946V36.4944ZM46.6043 22.9793C46.2894 23.2041 45.9282 23.3572 45.5519 23.4446C45.2488 23.515 44.8507 23.367 44.8637 23.7855C44.8853 24.4791 44.9018 25.1724 44.9128 25.866C44.9219 26.4261 44.9263 26.9955 44.7746 27.5347C44.5756 27.302 44.555 26.9705 44.5437 26.6644C44.5221 26.069 44.5005 25.4733 44.4786 24.8777C44.4674 24.5679 44.4558 24.2582 44.4448 23.9485C44.4377 23.7509 44.4588 23.6596 44.3991 23.5882C44.3719 23.5558 44.3279 23.5273 44.2573 23.4952C43.7777 23.2767 42.6747 23.4134 42.5429 22.6857C42.7852 22.6087 43.2255 22.794 43.4866 22.8303C43.8656 22.8831 44.2482 22.9079 44.6306 22.9047C45.4066 22.8985 46.1819 22.7778 46.9224 22.5439C46.9055 22.7287 46.7552 22.871 46.6043 22.9788V22.9793ZM49.5188 33.7811C48.9838 33.7851 48.4492 33.6039 48.0268 33.2758C48.2097 33.4179 48.9464 33.3261 49.1848 33.3588C49.3224 33.3777 49.6506 33.3845 49.7537 33.4964C49.9179 33.6749 49.7605 33.7794 49.5188 33.7811ZM50.098 29.629C50.0342 29.682 49.962 29.722 49.8874 29.7571C49.8769 29.3411 49.8663 28.9302 49.8558 28.5316C49.8754 28.5451 49.8953 28.5584 49.9144 28.5719C50.2811 28.8315 50.516 29.2809 50.098 29.629ZM50.007 26.8509C50.047 27.3838 50.003 27.9308 49.7848 28.4241C49.7733 28.4499 49.7581 28.4786 49.7304 28.485C49.6236 28.5093 49.6678 26.9852 49.6641 26.8475C49.6577 26.5969 49.6513 26.3463 49.6449 26.0957C49.6427 26.0128 49.5794 25.5099 49.6749 25.4957H49.684C49.9449 25.5357 49.991 26.6394 50.0067 26.8509H50.007ZM47.6678 30.2636C47.9969 30.4175 48.2084 30.7739 48.3564 31.0893C48.4902 31.3742 48.5994 31.68 48.5952 31.9949C48.5859 32.7228 47.9888 32.8527 47.4483 33.1357C47.2292 33.2503 47.0002 33.3669 46.7538 33.3784L46.7319 33.3791C46.4774 33.3845 46.2003 33.2385 46.1434 32.9904C46.1272 32.9199 46.1279 32.8421 46.0869 32.7825C46.0126 32.6745 45.854 32.6873 45.723 32.6873C45.4459 32.6873 45.171 32.5719 44.9766 32.3748C44.5488 31.9409 44.6713 31.3332 45.0694 30.9238C45.0586 30.8939 45.0488 30.8637 45.0402 30.8328C44.9754 30.8694 44.9101 30.9052 44.8441 30.9398C44.6205 31.0561 44.4082 31.2262 44.19 31.1224C43.8724 30.4016 43.3217 29.2277 43.0304 29.0478C43.1435 28.7908 43.3317 28.5434 43.4611 28.3539C43.6005 28.1497 43.7482 27.9392 43.96 27.8133L43.9789 27.8022C44.2011 27.6778 44.5142 27.6766 44.6811 27.8687C44.7285 27.9235 44.7643 27.9924 44.8286 28.0256C44.945 28.0857 45.079 28.0003 45.1948 27.9387C45.4393 27.8086 45.7362 27.7809 46.0003 27.8636C46.5886 28.0476 46.7638 28.6539 46.595 29.2078C47.0957 29.3239 47.4861 29.7264 47.5831 30.2342C47.6116 30.2435 47.641 30.2514 47.6675 30.2639L47.6678 30.2636ZM40.6271 25.6491C40.6386 26.1117 40.6502 26.5746 40.662 27.0375C40.6701 27.3663 40.6791 27.7004 40.7807 28.0133C41.0772 28.9265 42.0376 28.8689 42.8286 28.9322C42.8716 28.9356 42.9287 28.9557 42.9219 28.9982C42.9179 29.0235 42.8914 29.038 42.8681 29.0483C42.5007 29.2088 42.0935 29.2483 41.6942 29.2856C41.6044 29.2942 41.5246 29.2792 41.4363 29.2731C41.0311 29.2449 40.6129 29.0389 40.447 28.6683C40.3608 28.4757 40.3495 28.2585 40.3471 28.0472C40.3402 27.4719 40.3866 26.8605 40.4906 26.2747C40.5284 26.0614 40.5741 25.8518 40.6274 25.6486L40.6271 25.6491ZM39.8992 33.9338C39.6969 33.8052 39.7924 33.7041 39.948 33.6557C40.4695 33.4935 41.0107 33.4179 41.533 33.2292C41.9571 33.0758 42.379 32.9126 42.782 32.7091C43.1698 32.513 43.4883 32.2104 43.855 32.0045C43.8432 32.4647 42.9135 32.9324 42.5638 33.1165C41.9335 33.4483 41.2505 33.666 40.5716 33.882C40.392 33.9392 40.0756 34.0462 39.8992 33.934V33.9338Z" fill="#0022B0"/>
<path d="M45.755 20.6632L45.7368 20.2158C45.529 20.3697 45.2747 20.4826 44.963 20.5408C44.5293 20.6218 44.0699 20.5332 43.6887 20.312V20.6227C43.7 20.6279 43.7111 20.6335 43.7223 20.6387C44.3735 20.9288 45.0995 20.9354 45.755 20.6632Z" fill="#437AF1"/>
<path d="M44.6304 22.9057C44.248 22.9089 43.8653 22.8839 43.4864 22.8313C43.2253 22.795 42.785 22.6097 42.5427 22.6868C42.6745 23.4145 43.7775 23.2775 44.2571 23.4962C44.328 23.5286 44.3719 23.5568 44.3989 23.5892C44.4586 23.6606 44.4374 23.7519 44.4446 23.9495C44.4556 24.2592 44.4671 24.569 44.4784 24.8787C44.5003 25.4741 44.5219 26.0698 44.5435 26.6654C44.5548 26.9715 44.5754 27.3031 44.7744 27.5357C44.9259 26.9963 44.9214 26.4271 44.9126 25.8671C44.9016 25.1735 44.8851 24.4801 44.8635 23.7866C44.8505 23.3681 45.2483 23.5158 45.5517 23.4456C45.9279 23.3585 46.2892 23.2051 46.6041 22.9803C46.755 22.8726 46.9052 22.7302 46.9222 22.5454C46.182 22.7793 45.4066 22.9001 44.6304 22.9062V22.9057Z" fill="#86B7FE"/>
<path d="M44.7115 33.4486C44.7058 33.0888 44.7088 32.6976 44.5792 32.3574C44.294 32.5238 44.4285 34.0978 44.4197 34.4608C44.4101 34.8461 44.4045 35.2317 44.4023 35.6172C44.4015 35.7586 44.3058 36.7062 44.4062 36.7739C44.4697 36.8169 44.5623 36.7791 44.6042 36.715C44.6465 36.651 44.6519 36.5702 44.656 36.4937C44.7088 35.4795 44.7272 34.4637 44.7115 33.4484V33.4486Z" fill="#86B7FE"/>
<path d="M44.9631 20.5408C45.2748 20.4826 45.5291 20.3697 45.737 20.2158C46.1399 19.9176 46.366 19.4643 46.4848 18.9511C46.4818 18.9403 46.4786 18.9298 46.4757 18.9187C46.3616 18.461 46.4558 17.9193 46.5312 17.4597C46.5542 17.319 46.5817 17.1769 46.5962 17.0351C46.592 17.036 46.5876 17.036 46.5834 17.037C46.5729 17.0397 46.5633 17.0444 46.5533 17.0478C46.4747 16.9047 46.4082 16.7555 46.3527 16.6019C46.301 16.4585 46.2595 16.312 46.2236 16.1643C45.9188 16.0686 45.4905 16.2301 45.1403 16.3029C45.423 16.3206 45.705 16.3837 45.9743 16.4954C46.0185 16.5138 46.0636 16.5341 46.097 16.5734C46.137 16.6208 46.1341 16.6645 46.1274 16.7216C46.125 16.7423 46.11 16.9099 46.1206 16.9143C46.0126 16.8684 45.8987 16.849 45.7855 16.8309C45.5988 16.8007 45.4115 16.7734 45.2243 16.7491C45.1396 16.7381 45.0539 16.7278 44.9702 16.742C44.9818 16.6043 44.9891 16.4662 44.9938 16.3277C44.6767 16.3709 44.3579 16.4021 44.0383 16.4205C43.9924 16.4232 43.9465 16.4242 43.9006 16.4264C43.9367 16.566 43.9765 16.705 44.0202 16.8422C43.9284 16.8466 43.8398 16.8753 43.7524 16.9045C43.559 16.969 43.3666 17.0363 43.1749 17.1062C43.0591 17.1485 42.9425 17.1924 42.8379 17.2606C42.8482 17.2537 42.7957 17.0932 42.7888 17.0736C42.7695 17.0191 42.7567 16.9769 42.7888 16.9222C42.8156 16.8768 42.8593 16.8468 42.9017 16.8193C43.1864 16.6367 43.4991 16.5064 43.8231 16.4298C43.642 16.4372 43.4608 16.4419 43.2797 16.4409C43.062 16.4396 42.8141 16.4679 42.6131 16.5724C42.6261 16.9374 42.6288 17.2989 42.554 17.6386C42.5491 17.6339 42.5444 17.6285 42.5395 17.6241C42.4686 17.5608 42.3733 17.5154 42.2722 17.5019C42.3451 17.817 42.5024 18.139 42.5599 18.4006C42.5645 18.4222 42.5699 18.4455 42.5758 18.4701C42.6519 18.5705 42.7052 18.6836 42.6436 18.755C42.6693 18.8724 42.6912 18.9973 42.699 19.1178C42.7216 19.1168 42.7439 19.1139 42.7655 19.1087C42.8824 19.4189 43.0338 19.7191 43.2554 19.964C43.3806 20.1022 43.5278 20.2188 43.6886 20.3123C44.0697 20.5334 44.5289 20.6218 44.9629 20.541L44.9631 20.5408ZM45.224 17.1843C45.28 17.0719 45.4331 17.1288 45.4861 17.2118C45.5136 17.255 45.5278 17.3053 45.5379 17.3556C45.5605 17.4687 45.5637 17.5856 45.5472 17.6997C45.5438 17.7235 45.5394 17.748 45.5271 17.7689C45.5006 17.8143 45.4397 17.8327 45.3889 17.819C45.3381 17.8052 45.2974 17.765 45.2728 17.7186C45.2481 17.672 45.2375 17.6194 45.2296 17.5674C45.2144 17.466 45.1759 17.2815 45.224 17.1843ZM44.6652 18.0992C44.6094 17.9935 44.5699 17.8823 44.5474 17.7684C44.539 17.7264 44.5348 17.6786 44.5707 17.6437C44.6495 17.7419 44.7255 17.8411 44.7989 17.9417C44.8308 17.9851 44.862 18.0288 44.8927 18.0727C44.9224 18.1152 44.9523 18.1589 44.9648 18.2067C44.9808 18.2688 44.9638 18.339 44.89 18.3803C44.8676 18.3928 44.8402 18.3987 44.8136 18.4036C44.7528 18.4154 44.6924 18.4343 44.6296 18.4374C44.5709 18.4404 44.4997 18.4181 44.5704 18.3697C44.5937 18.3538 44.6237 18.3452 44.6485 18.3307C44.7663 18.2622 44.7044 18.1743 44.6649 18.0992H44.6652ZM43.6309 17.9068C43.6275 17.9306 43.6231 17.9552 43.6108 17.976C43.5843 18.0214 43.5234 18.0399 43.4726 18.0261C43.4218 18.0124 43.3811 17.9721 43.3565 17.9257C43.332 17.8791 43.3212 17.8266 43.3136 17.7745C43.2984 17.6732 43.2598 17.4886 43.3079 17.3914C43.3639 17.2788 43.517 17.336 43.5701 17.4189C43.5975 17.4621 43.6115 17.5124 43.6216 17.5627C43.6442 17.6759 43.6474 17.7927 43.6312 17.9071L43.6309 17.9068ZM45.7357 18.5786C45.7357 18.5786 45.6785 18.7106 45.5728 18.8763C45.495 18.9983 45.3909 19.1384 45.2638 19.2577C44.9609 19.5421 44.5275 19.7073 44.0099 19.2233C43.9306 19.1492 43.8494 19.0599 43.7664 18.9533C43.7286 18.905 43.6908 18.8537 43.6523 18.7982C43.6523 18.7982 44.6769 18.5248 45.7357 18.5786Z" fill="#86B7FE"/>
<path d="M46.5864 16.6414C46.5309 16.355 46.3969 16.2188 46.2236 16.1646C46.2595 16.3125 46.3009 16.4591 46.3527 16.6022C46.4082 16.7555 46.4747 16.905 46.5532 17.0481C46.5633 17.0447 46.5729 17.04 46.5834 17.0373C46.5876 17.0363 46.592 17.0361 46.5962 17.0353C46.6097 16.9033 46.6114 16.7715 46.5864 16.6414Z" fill="#0054E4"/>
<path d="M42.2723 17.5022C42.3735 17.5157 42.4687 17.5611 42.5396 17.6244C42.5448 17.6288 42.5492 17.6342 42.5541 17.6389C42.629 17.2992 42.6263 16.9377 42.6132 16.5728C42.5342 16.6137 42.4618 16.6655 42.4024 16.7335C42.2093 16.9544 42.2083 17.2258 42.2723 17.5022Z" fill="#0054E4"/>
<path d="M44.01 19.223C44.5276 19.7069 44.9611 19.5418 45.2639 19.2573C44.8779 19.0401 44.411 19.0401 44.01 19.223Z" fill="#86B7FE"/>
<path d="M45.5728 18.8765C45.6786 18.7108 45.7358 18.5788 45.7358 18.5788C44.6768 18.525 43.6523 18.7984 43.6523 18.7984C43.6909 18.8539 43.7289 18.9054 43.7665 18.9535C44.3712 19.0066 44.9813 18.9936 45.5728 18.8765Z" fill="#86B7FE"/>
<path d="M43.7664 18.953C43.8493 19.0593 43.9305 19.1489 44.0098 19.223C44.4109 19.0402 44.8777 19.0402 45.2637 19.2574C45.3906 19.1381 45.4949 18.998 45.5727 18.876C44.9812 18.993 44.3711 19.0061 43.7664 18.953Z" fill="#86B7FE"/>
<path d="M44.6485 18.3305C44.6238 18.345 44.5938 18.3536 44.5705 18.3695C44.4998 18.4179 44.571 18.4402 44.6296 18.4373C44.6922 18.4343 44.7529 18.4152 44.8137 18.4034C44.8402 18.3983 44.8677 18.3926 44.89 18.3801C44.9639 18.3389 44.9809 18.2684 44.9649 18.2066C44.9524 18.1587 44.9227 18.1153 44.8927 18.0726C44.8621 18.0286 44.8307 17.9849 44.799 17.9415C44.7254 17.8411 44.6493 17.7417 44.5707 17.6436C44.5349 17.6784 44.5391 17.726 44.5474 17.7682C44.5703 17.8821 44.6098 17.9933 44.6652 18.0991C44.7047 18.1742 44.7666 18.262 44.6488 18.3305H44.6485Z" fill="#86B7FE"/>
<path d="M43.5698 17.4185C43.5168 17.3355 43.3636 17.2784 43.3077 17.391C43.2593 17.488 43.2981 17.6725 43.3133 17.7741C43.3212 17.8262 43.3317 17.8787 43.3563 17.9253C43.3811 17.9719 43.4216 18.0122 43.4724 18.0257C43.5232 18.0394 43.584 18.021 43.6105 17.9756C43.6228 17.9548 43.6272 17.9305 43.6307 17.9064C43.6469 17.7923 43.6437 17.6752 43.6211 17.5621C43.611 17.5118 43.597 17.4614 43.5696 17.4182L43.5698 17.4185Z" fill="#86B7FE"/>
<path d="M45.2728 17.7188C45.2973 17.7654 45.3381 17.8056 45.3889 17.8191C45.4399 17.8329 45.5005 17.8145 45.5271 17.7691C45.5393 17.7482 45.5437 17.7239 45.5472 17.6999C45.5634 17.5857 45.5602 17.4689 45.5379 17.3558C45.5278 17.3055 45.5136 17.2551 45.4861 17.212C45.4331 17.129 45.2801 17.0718 45.2239 17.1845C45.1756 17.2814 45.2144 17.466 45.2296 17.5676C45.2374 17.6196 45.248 17.6721 45.2728 17.7188Z" fill="#86B7FE"/>
<path d="M42.9025 16.8197C42.8598 16.8472 42.8163 16.8771 42.7896 16.9225C42.7572 16.9775 42.7699 17.0195 42.7896 17.074C42.7967 17.0936 42.849 17.2541 42.8387 17.261C42.9432 17.1927 43.0595 17.1491 43.1756 17.1066C43.3673 17.0367 43.5597 16.9694 43.7531 16.9049C43.8405 16.8759 43.9291 16.8469 44.0209 16.8425C43.977 16.7053 43.9374 16.5664 43.9014 16.4268C43.8756 16.428 43.8498 16.429 43.8241 16.4299C43.5001 16.5065 43.1874 16.6368 42.9027 16.8194L42.9025 16.8197Z" fill="#86B7FE"/>
<path d="M44.9938 16.3285C44.9891 16.4669 44.9818 16.6051 44.9702 16.7428C45.0537 16.7288 45.1396 16.7391 45.2242 16.7499C45.4115 16.7742 45.5988 16.8014 45.7855 16.8316C45.8984 16.8498 46.0123 16.8694 46.1205 16.9151C46.1097 16.9104 46.125 16.7428 46.1274 16.7224C46.134 16.6652 46.137 16.6213 46.097 16.5742C46.0636 16.5349 46.0184 16.5145 45.9743 16.4961C45.7048 16.3845 45.4228 16.3214 45.1403 16.3037C45.0971 16.3128 45.0546 16.3209 45.0141 16.3263C45.0075 16.3273 45.0006 16.3278 44.994 16.3287L44.9938 16.3285Z" fill="#86B7FE"/>
<path d="M42.6439 18.7552C42.7055 18.6837 42.6523 18.5706 42.5762 18.4702C42.5961 18.5529 42.6211 18.6511 42.6439 18.7552Z" fill="#437AF1"/>
<path d="M49.6837 25.4968H49.6746C49.5792 25.5111 49.6425 26.0139 49.6447 26.0967C49.6511 26.3472 49.6575 26.5978 49.6638 26.8484C49.6673 26.9861 49.6233 28.5102 49.7301 28.4859C49.7576 28.4795 49.7731 28.4511 49.7846 28.4251C50.0028 27.9317 50.0467 27.3847 50.0067 26.8518C49.9907 26.6403 49.9449 25.5366 49.684 25.4966L49.6837 25.4968Z" fill="#86B7FE"/>
<path d="M46.2989 31.7902C45.7319 31.7902 45.2507 31.4289 45.069 30.9248C44.671 31.3341 44.5485 31.9421 44.9763 32.3757C45.1706 32.5728 45.4455 32.6882 45.7226 32.6882C45.8537 32.6882 46.0122 32.6757 46.0866 32.7834C46.1276 32.843 46.1268 32.9206 46.143 32.9913C46.2002 33.2394 46.4771 33.3855 46.7316 33.3801L46.7534 33.3793C46.9996 33.3678 47.2288 33.2512 47.448 33.1366C47.9884 32.8536 48.5856 32.7238 48.5949 31.9958C48.5991 31.6809 48.4898 31.3751 48.3561 31.0902C48.2081 30.7748 47.9963 30.4187 47.6674 30.2646C47.6409 30.252 47.6114 30.2442 47.583 30.2349C47.5982 30.3149 47.607 30.3973 47.607 30.4818C47.607 31.2043 47.0214 31.7902 46.2989 31.7902Z" fill="#CFE2FF"/>
<path d="M46.5948 29.2083C46.5929 29.2149 46.5914 29.2218 46.5892 29.2284C46.4282 29.7295 46.1158 30.1001 45.6953 30.4096C45.4857 30.564 45.2663 30.7051 45.0398 30.8332C45.0484 30.8642 45.0582 30.8944 45.069 30.9243C45.2506 31.4287 45.7319 31.7897 46.2989 31.7897C47.0214 31.7897 47.607 31.2038 47.607 30.4813C47.607 30.3969 47.5982 30.3144 47.5829 30.2344C47.486 29.7266 47.0955 29.3241 46.5948 29.208V29.2083Z" fill="#00007E"/>
<path d="M49.1846 33.3598C48.9462 33.3272 48.2095 33.419 48.0266 33.2769C48.449 33.6052 48.9835 33.7861 49.5186 33.7822C49.7603 33.7805 49.9179 33.6759 49.7535 33.4975C49.6504 33.3856 49.3222 33.3787 49.1846 33.3598Z" fill="#86B7FE"/>
<path d="M46.5893 29.2288C46.5915 29.2221 46.5929 29.2153 46.5949 29.2086C46.7638 28.6547 46.5885 28.0485 46.0002 27.8644C45.7359 27.7817 45.4389 27.8094 45.1947 27.9395C45.0789 28.0011 44.9449 28.0868 44.8285 28.0264C44.7642 27.9933 44.7284 27.9243 44.681 27.8696C44.5141 27.6774 44.201 27.6786 43.9789 27.8031L43.96 27.8141C43.7482 27.94 43.6004 28.1506 43.461 28.3548C43.3317 28.5443 43.1432 28.7916 43.0303 29.0486C43.3216 29.2283 43.8723 30.4022 44.1899 31.1232C44.4081 31.2268 44.6207 31.057 44.844 30.9406C44.91 30.9063 44.9753 30.8704 45.0401 30.8336C45.2669 30.7055 45.486 30.5644 45.6956 30.41C46.1161 30.1005 46.4285 29.7299 46.5895 29.2288H46.5893Z" fill="#CFE2FF"/>
<path d="M40.3464 28.048C40.3491 28.2593 40.3601 28.4763 40.4463 28.6692C40.6122 29.0398 41.0304 29.2457 41.4356 29.2739C41.5239 29.2801 41.6037 29.2948 41.6935 29.2864C42.0928 29.2489 42.5 29.2096 42.8674 29.0491C42.8907 29.0388 42.9172 29.0243 42.9212 28.999C42.928 28.9566 42.8709 28.9365 42.8279 28.933C42.0369 28.8697 41.0765 28.9271 40.78 28.0141C40.6784 27.7012 40.6694 27.3672 40.6613 27.0383C40.6497 26.5754 40.6382 26.1125 40.6264 25.6499C40.5731 25.8531 40.5275 26.063 40.4897 26.276C40.3856 26.8616 40.3393 27.4732 40.3461 28.0485L40.3464 28.048Z" fill="#86B7FE"/>
<path d="M40.5713 33.8824C41.2502 33.6664 41.933 33.4487 42.5635 33.1169C42.9132 32.9326 43.8429 32.4651 43.8547 32.0049C43.488 32.2108 43.1695 32.5134 42.7817 32.7095C42.3787 32.9132 41.9568 33.0762 41.5327 33.2296C41.0107 33.4183 40.4692 33.4939 39.9477 33.6561C39.7923 33.7045 39.6966 33.8056 39.8989 33.9342C40.0751 34.0466 40.3917 33.9394 40.5713 33.8822V33.8824Z" fill="#86B7FE"/>
<path d="M46.8072 14.6661C46.7507 14.5237 46.6862 14.3846 46.6118 14.2496C46.3438 13.7631 45.874 13.4107 45.3596 13.2114C45.2703 13.1768 45.1792 13.1476 45.0869 13.1221C45.0437 13.208 44.9844 13.2838 44.907 13.3422C44.7652 13.4492 44.5831 13.4846 44.4076 13.5123C44.118 13.5582 43.8191 13.5911 43.5339 13.5224C43.3358 13.4748 43.1458 13.3677 43.0158 13.2146C42.746 13.3219 42.4957 13.4706 42.2839 13.6709C41.9 14.0338 41.6664 14.5326 41.5493 15.0489C43.3181 15.2558 45.0825 15.07 46.8074 14.6658L46.8072 14.6661Z" fill="#0022B0"/>
<path d="M42.5763 18.4702C42.5704 18.4456 42.565 18.4226 42.5604 18.4007C42.5029 18.1391 42.3456 17.8171 42.2727 17.502C42.2087 17.2254 42.2096 16.9542 42.4028 16.7333C42.4622 16.6653 42.5346 16.6137 42.6136 16.5725C42.8146 16.4682 43.0628 16.4397 43.2802 16.441C43.4613 16.4419 43.6427 16.4373 43.8236 16.4299C43.8494 16.4289 43.8751 16.428 43.9009 16.4267C43.9468 16.4245 43.9927 16.4235 44.0386 16.4208C44.3581 16.4024 44.6767 16.3713 44.994 16.3281C45.0007 16.3271 45.0075 16.3266 45.0142 16.3256C45.0547 16.32 45.0971 16.3121 45.1403 16.303C45.4905 16.2301 45.9188 16.0686 46.2236 16.1644C46.3969 16.2188 46.5309 16.3548 46.5864 16.6412C46.6114 16.7713 46.6097 16.9031 46.5962 17.0352C46.5817 17.177 46.5542 17.3191 46.5312 17.4597C46.4561 17.9194 46.3616 18.4613 46.4757 18.9188C46.4784 18.9299 46.4816 18.9404 46.4848 18.9512C46.5758 19.2803 46.7859 19.543 47.131 19.286C47.2235 19.217 47.2792 19.1076 47.305 18.9952C47.3445 18.8241 47.3671 18.6106 47.359 18.4351C47.3195 17.5729 47.2576 16.71 47.119 15.8576C47.053 15.4521 46.9587 15.0481 46.807 14.6665C45.0822 15.0707 43.3175 15.2565 41.5489 15.0496C41.5418 15.0805 41.5352 15.1117 41.5288 15.1429C41.4194 15.6922 41.4294 16.2579 41.4559 16.8172C41.4866 17.4607 41.5391 18.1033 41.613 18.7431C41.6447 19.0172 41.6717 19.4806 41.9222 19.6757C41.9534 19.7 41.9883 19.7204 42.0268 19.7354C42.1223 19.7727 42.2298 19.7688 42.3294 19.7447C42.3915 19.7295 42.4521 19.7067 42.5059 19.6721C42.6767 19.5623 42.7145 19.3483 42.6993 19.1176C42.6914 18.9969 42.6696 18.8722 42.6438 18.7549C42.621 18.6508 42.5959 18.5529 42.5761 18.4699L42.5763 18.4702Z" fill="#E7F0FF"/>
<path d="M43.5335 13.5227C43.8186 13.5914 44.1176 13.5586 44.4072 13.5127C44.5827 13.4849 44.7648 13.4496 44.9066 13.3426C44.9839 13.2842 45.0436 13.2081 45.0865 13.1224C45.1582 12.9798 45.1847 12.8102 45.1729 12.6492C45.1194 11.9193 44.4052 11.4304 43.6994 11.5463C43.1442 11.6373 42.71 12.4787 42.8826 12.9874C42.9113 13.0721 42.9582 13.1477 43.0153 13.215C43.1454 13.3681 43.3356 13.4749 43.5335 13.5227Z" fill="#E7F0FF"/>
</g>
<defs>
<clipPath id="clip0_1537_21127">
<rect width="23.9361" height="50" fill="white" transform="translate(31.1851 11.5298)"/>
</clipPath>
</defs>
</svg>
