<svg width="84" height="72" viewBox="0 0 84 72" fill="none" xmlns="http://www.w3.org/2000/svg">
<rect width="83.3684" height="72" rx="2.52632" fill="#0D6EFD"/>
<path d="M68.1081 58.7365V36.7026L70.9431 36.6957L69.8587 34.7899L69.5248 34.2015H69.5241L67.9838 31.4953L67.7252 31.0409L66.4429 28.7877H66.444L65.926 27.8785L64.6437 25.6253H64.6448L64.316 25.049L61.4876 20.0781H56.4219V14.2869C56.6882 14.273 56.9148 14.0852 56.9763 13.8235L57.2758 12.5464H49.4397L49.7393 13.8235C49.8007 14.0856 50.0281 14.2737 50.2947 14.2873V20.0785H47.5187L41.7833 15.3165L36.0512 20.0785H22.0895L19.0938 25.3427L18.9323 25.6256L17.4067 28.3069L17.1328 28.7877L14.7407 32.9907L14.052 34.2012L13.8392 34.5754L12.6333 36.695L15.4683 36.7019V58.7358C13.4129 59.077 12.2532 59.463 12.2532 59.8723C12.2532 61.2546 25.4765 62.3751 41.7882 62.3751C58.0999 62.3751 71.3232 61.2546 71.3232 59.8723C71.3232 59.463 70.1635 59.0767 68.1081 58.7358V58.7365Z" fill="#257CFD"/>
<path d="M69.8583 34.7903L69.5244 34.2019H69.5233L67.9831 31.4956L67.7245 31.0412L66.4422 28.788H66.4432L65.9253 27.8789L64.643 25.6256H64.644L64.3153 25.0494L61.4869 20.0785H56.4212V14.2873C56.6874 14.2734 56.9141 14.0856 56.9756 13.8235L57.2751 12.5464H49.439L49.7385 13.8235C49.8 14.0856 50.0274 14.2737 50.294 14.2873V20.0785H47.5179L41.7826 15.3165L36.0504 20.0785H22.0888L19.093 25.3427L18.9316 25.6256L17.406 28.3069L17.1321 28.7877L14.74 32.9907L14.0513 34.2012L13.8385 34.5754L12.6326 36.695L15.4676 36.7019V58.8937H68.1074V36.7019L70.9424 36.695L69.858 34.7892L69.8583 34.7903Z" fill="#E7F0FF"/>
<path d="M58.1167 38.6514C58.1247 38.6514 58.1324 38.6525 58.1396 38.6546V31.463L41.7831 17.8818L25.4353 31.4627V38.6521C25.4391 38.6518 25.4429 38.6514 25.4468 38.6514C25.4947 38.6514 25.5332 38.6903 25.5332 38.7379V56.5093C25.5332 56.5572 25.4943 56.5957 25.4468 56.5957C25.4429 56.5957 25.4391 56.5957 25.4353 56.595V58.8944H58.1396V56.5926C58.1324 56.5947 58.1247 56.5957 58.1167 56.5957C58.0688 56.5957 58.0303 56.5569 58.0303 56.5093V38.7379C58.0303 38.69 58.0692 38.6514 58.1167 38.6514Z" fill="#E7F0FF"/>
<path d="M19.0934 25.3429L18.932 25.6258L17.4064 28.307L17.1325 28.7882L14.7407 32.9912L14.052 34.202L13.8392 34.5762L12.6333 36.6958H25.4352V31.4628L24.8499 31.9488L23.788 32.8312V30.2659L25.5667 28.7882L26.6613 27.879L29.3734 25.6258L30.4658 24.7184L33.178 22.4651L34.2725 21.556L36.0508 20.0786H22.0892L19.0934 25.3429Z" fill="#0054E4"/>
<path d="M59.788 32.8302L59.7873 32.8295V32.8312L58.7248 31.9488L58.1395 31.4628V36.6958H70.9428L69.8583 34.7901L69.5244 34.202H69.5237L67.9835 31.4958L67.7252 31.0414H67.7249L66.4426 28.7882H66.4436L65.9257 27.879H65.9253L64.6434 25.6258H64.6441L64.3153 25.0495L61.4869 20.0786H47.5183L49.2974 21.556L50.3926 22.4651L53.1061 24.7184L54.1989 25.6258L56.9124 27.879L58.0076 28.7882L59.7873 30.2659V31.7523L59.788 31.753V32.8302Z" fill="#0054E4"/>
<path d="M23.9351 51.8184H16.8005V53.4082H23.9351V51.8184Z" fill="#0022B0"/>
<path d="M67.1525 51.8184H60.0176V53.4082H67.1525V51.8184Z" fill="#0022B0"/>
<path d="M50.2939 14.2873C50.304 14.2879 50.3144 14.2883 50.3248 14.2883H56.3896C56.4003 14.2883 56.4108 14.2879 56.4212 14.2873C56.6874 14.2734 56.9141 14.0856 56.9755 13.8235L57.2751 12.5464H49.439L49.7385 13.8235C49.8 14.0856 50.0273 14.2737 50.2939 14.2873Z" fill="#0022B0"/>
<path d="M59.7874 31.7521V30.2656L58.0077 28.7879L56.9125 27.8788L54.1989 25.6255L53.1062 24.7181L50.3926 22.4649L49.2974 21.5558L47.5184 20.0784L41.7831 15.3164L36.0509 20.0784L34.2725 21.5558L33.178 22.4649L30.4659 24.7181L29.3734 25.6255L26.6613 27.8788L25.5668 28.7879L23.7881 30.2656V32.8309L24.85 31.9485L25.4352 31.4626L41.7831 17.8814L58.1396 31.4626L58.7248 31.9485L59.7874 32.8309V32.8292L59.7881 32.8299V31.7528L59.7874 31.7521Z" fill="#0054E4"/>
<path d="M41.7873 41.7666C41.093 41.7666 40.4296 41.9086 39.827 42.1634C38.0344 42.9271 36.7754 44.7058 36.7754 46.7788V58.8948H46.7995V46.7788C46.7995 44.0115 44.5567 41.7669 41.7876 41.7669L41.7873 41.7666Z" fill="#0054E4"/>
<path d="M56.4214 19.6667C54.3761 19.8573 52.303 19.7362 50.2942 19.3047V20.0788H56.4214V19.6667Z" fill="#0022B0"/>
<path d="M56.4214 15.8926V14.2871C56.411 14.2878 56.4002 14.2882 56.3898 14.2882H50.3251C50.3147 14.2882 50.3046 14.2878 50.2942 14.2871V15.1737C52.3568 15.0404 54.4438 15.2879 56.4214 15.8922V15.8926Z" fill="#0054E4"/>
<path d="M58.1396 58.8947H68.1082V55.4692C64.7963 55.9924 61.4721 56.4388 58.1396 56.8085V58.8947Z" fill="#CFE2FF"/>
<path d="M15.4683 57.3413V58.8947H25.4351V57.9668C22.1085 57.8346 18.7851 57.6263 15.4683 57.3413Z" fill="#CFE2FF"/>
<path d="M68.1082 39.0116V36.7031H58.1396V38.0517C61.4683 38.3065 64.7921 38.6266 68.1082 39.0116Z" fill="#569AFE"/>
<path d="M25.4351 36.7031H15.4683V38.352C18.7855 38.0507 22.1085 37.8146 25.4351 37.6435V36.7031Z" fill="#569AFE"/>
<path d="M13.5355 35.1111L13.8392 34.5762L12.6333 36.6958H25.4352V35.1111H13.5355Z" fill="#0054E4"/>
<path d="M59.7882 31.9486V32.83L59.7875 32.8293V32.831L58.7249 31.9486H58.1396V34.2018H69.5238L67.9836 31.4956L68.2412 31.9486H59.7882Z" fill="#0054E4"/>
<path d="M59.9009 31.0413H67.7249L66.4426 28.7881H65.6372C63.7721 29.6524 61.8556 30.3998 59.9009 31.0413Z" fill="#0054E4"/>
<path d="M58.1396 35.1111V36.6958H70.9429L69.8585 34.79L70.0407 35.1111H58.1396Z" fill="#0054E4"/>
<path d="M25.4351 33.9673C21.8662 33.7063 18.3004 33.355 14.741 32.9912L14.0522 34.2017H25.4351V33.9673Z" fill="#0054E4"/>
<path d="M58.1396 35.1113H70.0407L69.8585 34.7902L69.5245 34.2021H58.1396V35.1113Z" fill="#0022B0"/>
<path d="M25.4351 35.1113V34.2021H14.0516L13.8391 34.5764L13.5354 35.1113H25.4351Z" fill="#0022B0"/>
<path d="M59.7876 31.0415V31.7524L59.7883 31.7531V31.9489H68.2413L67.9837 31.4959L67.7255 31.0415H59.7876Z" fill="#0022B0"/>
<path d="M24.8499 31.9489H25.4351V31.4629L24.8499 31.9489Z" fill="#0022B0"/>
<path d="M15.8508 31.0415L15.335 31.9489H23.788V31.0415H15.8508Z" fill="#0022B0"/>
<path d="M58.7249 31.9489L58.1396 31.4629V31.9489H58.7249Z" fill="#0022B0"/>
<path d="M26.6613 27.8789H17.6505L17.4065 28.3069L17.1326 28.788H25.5668L26.6613 27.8789Z" fill="#0022B0"/>
<path d="M58.0076 28.788H66.4436L65.9256 27.8789H56.9124L58.0076 28.788Z" fill="#0022B0"/>
<path d="M53.1062 24.7183L54.199 25.6257H64.6442L64.3154 25.0494L64.1266 24.7183H53.1062Z" fill="#0022B0"/>
<path d="M30.4659 24.7183H19.4497L19.0935 25.3428L18.9321 25.6257H29.3735L30.4659 24.7183Z" fill="#0022B0"/>
<path d="M21.2493 21.5562L20.7317 22.4653H33.1781L34.2726 21.5562H21.2493Z" fill="#0022B0"/>
<path d="M62.327 21.5562H49.2974L50.3926 22.4653H62.8449L62.327 21.5562Z" fill="#0022B0"/>
<path d="M58.1396 31.463L41.7831 17.8818L25.4353 31.463V32.9068L41.7821 19.3256L58.1396 32.9085V31.463Z" fill="#0D6EFD"/>
<path d="M59.7881 31.7532L59.7874 31.7525L41.782 16.8022L23.7881 31.7515V32.8304L41.7838 17.8811L59.7874 32.8297L59.7881 32.8304V31.7532Z" fill="#0022B0"/>
<path d="M42.2419 36.2975C44.3154 36.0854 45.9635 34.4372 46.1756 32.3638H42.2419V36.2975Z" fill="#0054E4"/>
<path d="M41.3336 32.3638H37.3999C37.612 34.4372 39.2602 36.0854 41.3336 36.2975V32.3638Z" fill="#0054E4"/>
<path d="M41.3336 27.5215C39.2602 27.7336 37.612 29.3818 37.3999 31.4552H41.3336V27.5215Z" fill="#0054E4"/>
<path d="M42.2419 31.4552H46.1756C45.9635 29.3818 44.3154 27.7336 42.2419 27.5215V31.4552Z" fill="#0054E4"/>
<path d="M23.0097 49.3677H20.6631V51.8184H23.0097V49.3677Z" fill="#0054E4"/>
<path d="M20.0732 43.0381H19.0769C18.3313 43.0381 17.7266 43.6424 17.7266 44.3881V45.4642H20.0732V43.0381Z" fill="#0054E4"/>
<path d="M20.0732 49.3677H17.7266V51.8184H20.0732V49.3677Z" fill="#0054E4"/>
<path d="M20.6631 45.4642H23.0097V44.3881C23.0097 43.6424 22.4053 43.0381 21.6597 43.0381H20.6634V45.4642H20.6631Z" fill="#0054E4"/>
<path d="M23.0097 46.0547H20.6631V48.7772H23.0097V46.0547Z" fill="#0054E4"/>
<path d="M20.0732 46.0547H17.7266V48.7772H20.0732V46.0547Z" fill="#0054E4"/>
<path d="M66.2267 46.0547H63.8801V48.7772H66.2267V46.0547Z" fill="#0054E4"/>
<path d="M66.2267 49.3677H63.8801V51.8184H66.2267V49.3677Z" fill="#0054E4"/>
<path d="M63.8801 45.4642H66.2267V44.3881C66.2267 43.6424 65.6224 43.0381 64.8767 43.0381H63.8805V45.4642H63.8801Z" fill="#0054E4"/>
<path d="M63.2895 49.3677H60.9429V51.8184H63.2895V49.3677Z" fill="#0054E4"/>
<path d="M63.2895 46.0547H60.9429V48.7772H63.2895V46.0547Z" fill="#0054E4"/>
<path d="M63.2896 43.0381H62.2934C61.5477 43.0381 60.9434 43.6424 60.9434 44.3881V45.4642H63.29V43.0381H63.2896Z" fill="#0054E4"/>
<path d="M25.5332 45.9585V56.5096C25.5332 56.5575 25.4943 56.596 25.4468 56.596C25.4429 56.596 25.4391 56.596 25.4353 56.5953V58.8947H36.7754V54.5101C32.5046 52.453 28.647 49.5343 25.5332 45.9585Z" fill="#CFE2FF"/>
<path d="M46.7991 57.5803V58.8945H58.1392V57.3706C54.4037 58.0486 50.5564 58.1242 46.7991 57.5803Z" fill="#CFE2FF"/>
<path d="M46.0997 57.4181V47.0274C46.0997 44.6458 44.1693 42.7154 41.7876 42.7154C40.8389 42.7154 39.9617 43.0219 39.2497 43.5409C39.3511 43.25 39.4632 42.9629 39.5861 42.681C39.6625 42.506 39.742 42.3346 39.827 42.1631C38.0344 42.9268 36.7754 44.7055 36.7754 46.7786V58.8945H46.7995V57.5369C46.5649 57.5067 46.3312 57.4671 46.1001 57.4181H46.0997ZM41.7876 42.8823C42.9325 42.8823 43.9683 43.3461 44.7188 44.0966C45.469 44.8471 45.9327 45.883 45.9327 47.0278V57.3814C45.5047 57.2821 45.084 57.1505 44.6758 56.9863C42.0574 55.9335 40.0138 53.6247 39.1217 50.9476C38.3587 48.6569 38.4156 46.1291 39.1543 43.8262C39.8704 43.2364 40.7872 42.8827 41.7873 42.8827L41.7876 42.8823Z" fill="#0054E4"/>
<path d="M41.7874 42.7153C40.8387 42.7153 39.9615 43.0218 39.2495 43.5408C38.1741 44.325 37.4753 45.5944 37.4753 47.0274V58.1648C37.4753 58.1867 37.4844 58.2082 37.4996 58.2238C37.5153 58.2394 37.5368 58.2481 37.5587 58.2481H46.0162C46.038 58.2481 46.0596 58.2391 46.0752 58.2238C46.0908 58.2085 46.0995 58.1867 46.0995 58.1648V47.0274C46.0995 44.6457 44.1691 42.7153 41.7874 42.7153ZM45.9325 58.0815H37.642V47.0274C37.642 45.8826 38.1057 44.8467 38.8562 44.0962C38.951 44.0015 39.0506 43.9112 39.1544 43.8258C39.8706 43.236 40.7873 42.8823 41.7874 42.8823C42.9323 42.8823 43.9681 43.3461 44.7186 44.0966C45.4687 44.8471 45.9325 45.8829 45.9329 47.0278V58.0818L45.9325 58.0815Z" fill="#E7F0FF"/>
<path d="M44.1675 51.2056C44.1675 51.594 44.4823 51.9089 44.8711 51.9092C45.2596 51.9092 45.5744 51.5944 45.5748 51.2056C45.5748 50.8171 45.2599 50.5023 44.8711 50.502C44.4827 50.502 44.1678 50.8168 44.1675 51.2056ZM44.8711 50.6752C45.1641 50.6759 45.4008 50.9126 45.4015 51.2056C45.4008 51.4986 45.1641 51.7353 44.8711 51.736C44.5781 51.7353 44.3414 51.4986 44.3407 51.2056C44.3414 50.9126 44.5781 50.6759 44.8711 50.6752Z" fill="#E7F0FF"/>
<path d="M29.5901 31.6313H32.4952C32.6289 31.6313 32.7375 31.74 32.7375 31.8736V32.5627C32.7375 32.6963 32.6289 32.805 32.4952 32.805H29.5897C29.4561 32.805 29.3474 32.6963 29.3474 32.5627V31.8736C29.3474 31.74 29.4561 31.6313 29.5897 31.6313H29.5901Z" fill="#CFE2FF"/>
<path d="M51.9741 45.895H54.8792C55.0129 45.895 55.1215 46.0037 55.1215 46.1373V46.8264C55.1215 46.96 55.0129 47.0687 54.8792 47.0687H51.9737C51.8401 47.0687 51.7314 46.96 51.7314 46.8264V46.1373C51.7314 46.0037 51.8401 45.895 51.9737 45.895H51.9741Z" fill="#CFE2FF"/>
<path d="M52.8816 33.1387H55.7867C55.9204 33.1387 56.029 33.2473 56.029 33.381V34.07C56.029 34.2037 55.9204 34.3123 55.7867 34.3123H52.8812C52.7476 34.3123 52.6389 34.2037 52.6389 34.07V33.381C52.6389 33.2473 52.7476 33.1387 52.8812 33.1387H52.8816Z" fill="#CFE2FF"/>
<path d="M51.173 35.3599H54.0785C54.2121 35.3599 54.3208 35.4685 54.3208 35.6022V36.2912C54.3208 36.4249 54.2121 36.5335 54.0785 36.5335H51.173C51.0393 36.5335 50.9307 36.4249 50.9307 36.2912V35.6022C50.9307 35.4685 51.0393 35.3599 51.173 35.3599Z" fill="#CFE2FF"/>
<path d="M27.6124 33.5716H30.5179C30.6516 33.5716 30.7602 33.6803 30.7602 33.8139V34.5026C30.7602 34.6363 30.6516 34.7449 30.5179 34.7449H27.6124C27.4788 34.7449 27.3701 34.6363 27.3701 34.5026V33.8136C27.3701 33.6799 27.4788 33.5713 27.6124 33.5713V33.5716Z" fill="#CFE2FF"/>
<path d="M49.9967 47.8348H52.9022C53.0358 47.8348 53.1445 47.9435 53.1445 48.0771V48.7658C53.1445 48.8995 53.0358 49.0081 52.9022 49.0081H49.9967C49.863 49.0081 49.7544 48.8995 49.7544 48.7658V48.0768C49.7544 47.9431 49.863 47.8345 49.9967 47.8345V47.8348Z" fill="#CFE2FF"/>
<path d="M31.978 34.0938H33.7928C33.9265 34.0938 34.0351 34.2024 34.0351 34.336V35.0251C34.0351 35.1588 33.9265 35.2674 33.7928 35.2674H31.9784C31.8447 35.2674 31.7361 35.1588 31.7361 35.0251V34.336C31.7361 34.2024 31.8447 34.0938 31.9784 34.0938H31.978Z" fill="#CFE2FF"/>
<path d="M54.3623 48.3574H56.1771C56.3108 48.3574 56.4194 48.4661 56.4194 48.5997V49.2888C56.4194 49.4224 56.3108 49.5311 56.1771 49.5311H54.3627C54.229 49.5311 54.1204 49.4224 54.1204 49.2888V48.5997C54.1204 48.4661 54.229 48.3574 54.3627 48.3574H54.3623Z" fill="#CFE2FF"/>
<path d="M51.5109 31.3301H53.3257C53.4593 31.3301 53.568 31.4387 53.568 31.5724V32.2614C53.568 32.3951 53.4593 32.5037 53.3257 32.5037H51.5109C51.3772 32.5037 51.2686 32.3951 51.2686 32.2614V31.5724C51.2686 31.4387 51.3772 31.3301 51.5109 31.3301Z" fill="#CFE2FF"/>
<path d="M49.3207 33.3516H51.1355C51.2691 33.3516 51.3778 33.4602 51.3778 33.5939V34.2829C51.3778 34.4166 51.2691 34.5252 51.1355 34.5252H49.3207C49.187 34.5252 49.0784 34.4166 49.0784 34.2829V33.5942C49.0784 33.4606 49.187 33.3519 49.3207 33.3519V33.3516Z" fill="#CFE2FF"/>
<path d="M27.4307 11.7287L26.6611 10.1055L25.8533 11.7665L24.2197 12.5465L25.8686 13.3418L26.6611 14.9879L27.4918 13.3036L29.1025 12.5465L27.4307 11.7287Z" fill="#E7F0FF"/>
<path d="M72.7281 48.5154L72.482 47.9961L72.2234 48.5276L71.7009 48.7771L72.2282 49.0316L72.482 49.5582L72.7475 49.0194L73.263 48.7771L72.7281 48.5154Z" fill="#E7F0FF"/>
<path d="M64.7875 17.6199L64.5414 17.1006L64.2828 17.632L63.76 17.8816L64.2877 18.1361L64.5414 18.6627L64.807 18.1239L65.3225 17.8816L64.7875 17.6199Z" fill="#E7F0FF"/>
<path d="M34.2812 10.6248L34.0347 10.1055L33.7764 10.6369L33.2537 10.8865L33.7813 11.141L34.0347 11.6676L34.3006 11.1288L34.8158 10.8865L34.2812 10.6248Z" fill="#E7F0FF"/>
<path d="M17.047 17.6199L16.8006 17.1006L16.542 17.632L16.0195 17.8816L16.5472 18.1361L16.8006 18.6627L17.0665 18.1239L17.5816 17.8816L17.047 17.6199Z" fill="#E7F0FF"/>
<path d="M11.1327 51.9065L10.8863 51.3872L10.628 51.9187L10.1052 52.1683L10.6329 52.4227L10.8863 52.9493L11.1522 52.4106L11.6673 52.1683L11.1327 51.9065Z" fill="#E7F0FF"/>
<path d="M12.7598 49.0088L12.6335 48.7422L12.5005 49.015L12.2322 49.1431L12.5033 49.274L12.6335 49.5444L12.7699 49.2677L13.0344 49.1431L12.7598 49.0088Z" fill="#E7F0FF"/>
<path d="M11.4139 47.2812L11.2872 47.0146L11.1546 47.2875L10.8862 47.4156L11.157 47.5465L11.2872 47.8169L11.4239 47.5402L11.6885 47.4156L11.4139 47.2812Z" fill="#E7F0FF"/>
<path d="M71.0694 52.9927L70.9427 52.7261L70.8101 52.9989L70.5417 53.1274L70.8125 53.2579L70.9427 53.5283L71.0791 53.2516L71.344 53.1274L71.0694 52.9927Z" fill="#E7F0FF"/>
<path d="M68.2344 21.0527L68.1081 20.7861L67.9751 21.059L67.7068 21.1871L67.9775 21.3176L68.1081 21.588L68.2445 21.3113L68.509 21.1871L68.2344 21.0527Z" fill="#E7F0FF"/>
<path d="M62.9711 12.4121L62.8448 12.1455L62.7122 12.4184L62.4438 12.5464L62.7146 12.6773L62.8448 12.9477L62.9812 12.6711L63.2457 12.5464L62.9711 12.4121Z" fill="#E7F0FF"/>
<path d="M31.862 17.7471L31.7357 17.4805L31.603 17.7533L31.3347 17.8814L31.6055 18.0123L31.7357 18.2827L31.8721 18.006L32.1366 17.8814L31.862 17.7471Z" fill="#E7F0FF"/>
</svg>
