<?xml version="1.0" encoding="utf-8"?>
<!-- Uploaded to: SVG Repo, www.svgrepo.com, Generator: SVG Repo Mixer Tools -->
<svg fill="#000000" height="800px" width="800px" version="1.2" baseProfile="tiny" id="oasis-anna-vital"
	 xmlns="http://www.w3.org/2000/svg" xmlns:xlink="http://www.w3.org/1999/xlink"  viewBox="-63 65 128 128"
	 xml:space="preserve">
<path d="M22.3,84.4c0.9-2,3.4-3.9,6.8-5.4v-7.9l4,6.5c1.4-0.4,2.8-0.8,4.3-1v-8.1l4.6,7.4c0.8-0.1,1.7-0.2,2.5-0.2v-7.2l4.5,7.1
	c4.1,0.1,8.1,0.7,11.9,1.8c-1.8-5.6-11.4-10.8-13.1-11.1c-16.8-5.1-32.3,9.4-32.6,13.3c-5.6-15.8-31.4-14.8-43.5-0.9
	c9.4-2.5,35.9-1.3,37.7,7.3C3.7,84.7-19,75.1-26.1,107.7C-10.3,91.3,4.5,88.9,7.3,90.9c-18.4,6.5-12,24.5-12,24.5
	s4.2-14.2,14.1-16.4l1.3,0.1C3.1,128.5-2,151.5,9.7,187.6h-30.5c0.8-18.2-5.8-34-13.7-47.5l-0.8-1.1c9.1-3.6,14.8,8.2,14.8,8.2
	c3.7-17.8-15.1-12.2-15.1-12.2c0.3-1.1,1-2.1,2.1-3.1v-6.2l3.1,3.9c0.7-0.4,1.5-0.8,2.2-1.2v-4.1l2.3,3c2.3-1,4.3-1.6,4.8-1.6
	c-4.2-6.8-17.8-1.6-18.1,6.8c-5.1-9.4-16.3-7-18.8,0.5c4.7-1.9,11.9-1.2,14.5,1.7c-4.2,0.3-17.8,4.9-16.3,14
	c0.6-0.7,2.7-2.2,5.3-3.7v-4.3l1.5,3.5c0.9-0.5,1.9-1.1,2.8-1.6v-3.6l1.2,2.9c3.1-1.7,5.7-2.9,6-2.4c-3.5,4.6-3.8,11.4-0.8,16.4
	c0.1-2.5,2.5-12.3,4.3-14l0.5-0.2c7,13.3,12.2,27.7,10.9,46h-24.5v5.4H45v-5.4H24.6c-15.1-31.9-11-57.9-4.8-88.1l1.2,0.1
	c4.2,2.3,12.5,15.8,14,20.2c3-10.6-0.2-20-9-26.8c1.3-0.7,4.2-0.7,7.8-0.1l1.2-6.6l3.4,7.4l-0.1,0c1.4,0.3,2.7,0.6,4.1,1l2.1-8.5
	l2.3,9.7c1.1,0.3,2.1,0.6,3.1,0.9l2-7.9l2.2,9.2c3.2,1.1,5.8,2.2,6.9,2.9C60.3,93.1,50,74.1,22.3,84.4z"/>
</svg>