<svg width="84" height="72" viewBox="0 0 84 72" fill="none" xmlns="http://www.w3.org/2000/svg">
<rect width="83.3684" height="72" rx="2.52632" fill="#0D6EFD"/>
<g style="mix-blend-mode:multiply">
<path d="M41.3145 62.515C55.0281 62.515 66.1451 60.6457 66.1451 58.3398C66.1451 56.0339 55.0281 54.1646 41.3145 54.1646C27.6009 54.1646 16.4839 56.0339 16.4839 58.3398C16.4839 60.6457 27.6009 62.515 41.3145 62.515Z" fill="#DEDEDE"/>
</g>
<path d="M24.8237 21.231L28.4091 30.4813L29.8805 22.9297L24.8237 21.231Z" fill="#0022B0"/>
<path d="M29.1224 17.1567L24.8237 21.2308L29.8792 27.7209L30.0723 27.646L34.0597 23.5536L29.1224 17.1567Z" fill="#86B7FE"/>
<path d="M57.3886 21.231L53.8032 30.4813L52.3318 22.9297L57.3886 21.231Z" fill="#0022B0"/>
<path d="M53.0898 17.1567L57.3885 21.2308L52.3331 27.7209L52.1399 27.646L48.1526 23.5536L53.0898 17.1567Z" fill="#86B7FE"/>
<path d="M48.7808 10.2471L37.6895 53.3203L40.9745 54.1662L52.0659 11.093L48.7808 10.2471Z" fill="#CFE2FF"/>
<path d="M51.3082 10.897L40.2168 53.9702L40.9738 54.1651L52.0652 11.0919L51.3082 10.897Z" fill="#0022B0"/>
<path d="M48.7806 10.2451L37.6892 53.3184L38.1218 53.4297L49.2132 10.3565L48.7806 10.2451Z" fill="#E7F0FF"/>
<path d="M48.7192 10.4772L48.6858 10.6069L49.5789 10.8369L49.6124 10.7071L48.7192 10.4772Z" fill="#0D6EFD"/>
<path d="M48.5786 11.0255L48.5452 11.1553L49.4383 11.3853L49.4717 11.2555L48.5786 11.0255Z" fill="#0D6EFD"/>
<path d="M48.4382 11.5734L48.4048 11.7031L49.2979 11.9331L49.3313 11.8033L48.4382 11.5734Z" fill="#0D6EFD"/>
<path d="M48.2978 12.1202L48.2644 12.25L49.1575 12.48L49.191 12.3502L48.2978 12.1202Z" fill="#0D6EFD"/>
<path d="M48.1579 12.6691L48.1245 12.7988L49.407 13.1291L49.4404 12.9993L48.1579 12.6691Z" fill="#0D6EFD"/>
<path d="M48.0464 13.1002L48.0129 13.23L48.9061 13.46L48.9395 13.3302L48.0464 13.1002Z" fill="#0D6EFD"/>
<path d="M47.903 13.6471L47.8696 13.7769L48.7628 14.0068L48.7962 13.8771L47.903 13.6471Z" fill="#0D6EFD"/>
<path d="M47.7627 14.1949L47.7292 14.3247L48.6224 14.5547L48.6558 14.4249L47.7627 14.1949Z" fill="#0D6EFD"/>
<path d="M47.625 14.7433L47.5916 14.873L48.4847 15.103L48.5181 14.9733L47.625 14.7433Z" fill="#0D6EFD"/>
<path d="M47.48 15.2892L47.4465 15.4189L48.729 15.7492L48.7624 15.6194L47.48 15.2892Z" fill="#0D6EFD"/>
<path d="M47.3681 15.7218L47.3347 15.8516L48.2279 16.0815L48.2613 15.9518L47.3681 15.7218Z" fill="#0D6EFD"/>
<path d="M47.2275 16.2706L47.1941 16.4004L48.0872 16.6304L48.1207 16.5006L47.2275 16.2706Z" fill="#0D6EFD"/>
<path d="M47.0898 16.819L47.0564 16.9487L47.9495 17.1787L47.983 17.0489L47.0898 16.819Z" fill="#0D6EFD"/>
<path d="M46.9467 17.3649L46.9133 17.4946L47.8065 17.7246L47.8399 17.5948L46.9467 17.3649Z" fill="#0D6EFD"/>
<path d="M46.8071 17.9122L46.7737 18.042L48.0561 18.3722L48.0896 18.2425L46.8071 17.9122Z" fill="#0D6EFD"/>
<path d="M46.6938 18.3434L46.6604 18.4731L47.5535 18.7031L47.587 18.5734L46.6938 18.3434Z" fill="#0D6EFD"/>
<path d="M46.5532 18.8922L46.5198 19.022L47.4129 19.252L47.4463 19.1222L46.5532 18.8922Z" fill="#0D6EFD"/>
<path d="M46.4128 19.4391L46.3794 19.5688L47.2725 19.7988L47.306 19.6691L46.4128 19.4391Z" fill="#0D6EFD"/>
<path d="M46.271 19.9879L46.2375 20.1177L47.1307 20.3477L47.1641 20.2179L46.271 19.9879Z" fill="#0D6EFD"/>
<path d="M46.1301 20.5338L46.0967 20.6636L47.3791 20.9938L47.4126 20.864L46.1301 20.5338Z" fill="#0D6EFD"/>
<path d="M46.0183 20.9664L45.9849 21.0962L46.878 21.3262L46.9114 21.1964L46.0183 20.9664Z" fill="#0D6EFD"/>
<path d="M45.8777 21.5148L45.8442 21.6445L46.7374 21.8745L46.7708 21.7447L45.8777 21.5148Z" fill="#0D6EFD"/>
<path d="M45.7385 22.0636L45.7051 22.1934L46.5982 22.4233L46.6316 22.2936L45.7385 22.0636Z" fill="#0D6EFD"/>
<path d="M45.5966 22.6095L45.5632 22.7393L46.4564 22.9692L46.4898 22.8395L45.5966 22.6095Z" fill="#0D6EFD"/>
<path d="M45.4558 23.1568L45.4224 23.2866L46.7048 23.6169L46.7382 23.4871L45.4558 23.1568Z" fill="#0D6EFD"/>
<path d="M45.344 23.588L45.3105 23.7178L46.2037 23.9478L46.2371 23.818L45.344 23.588Z" fill="#0D6EFD"/>
<path d="M45.205 24.1368L45.1716 24.2666L46.0648 24.4966L46.0982 24.3668L45.205 24.1368Z" fill="#0D6EFD"/>
<path d="M45.0615 24.6842L45.0281 24.814L45.9212 25.0439L45.9546 24.9142L45.0615 24.6842Z" fill="#0D6EFD"/>
<path d="M44.9211 25.232L44.8877 25.3618L45.7808 25.5918L45.8143 25.462L44.9211 25.232Z" fill="#0D6EFD"/>
<path d="M44.7802 25.7794L44.7468 25.9092L46.0293 26.2394L46.0627 26.1096L44.7802 25.7794Z" fill="#0D6EFD"/>
<path d="M44.6684 26.211L44.635 26.3408L45.5282 26.5708L45.5616 26.441L44.6684 26.211Z" fill="#0D6EFD"/>
<path d="M44.528 26.7569L44.4946 26.8867L45.3878 27.1167L45.4212 26.9869L44.528 26.7569Z" fill="#0D6EFD"/>
<path d="M44.386 27.3053L44.3525 27.4351L45.2457 27.665L45.2791 27.5353L44.386 27.3053Z" fill="#0D6EFD"/>
<path d="M44.2456 27.8541L44.2122 27.9839L45.1053 28.2139L45.1387 28.0841L44.2456 27.8541Z" fill="#0D6EFD"/>
<path d="M44.1059 28.401L44.0725 28.5308L45.355 28.861L45.3884 28.7312L44.1059 28.401Z" fill="#0D6EFD"/>
<path d="M43.9929 28.8326L43.9595 28.9624L44.8526 29.1924L44.886 29.0626L43.9929 28.8326Z" fill="#0D6EFD"/>
<path d="M43.8537 29.3815L43.8203 29.5112L44.7135 29.7412L44.7469 29.6114L43.8537 29.3815Z" fill="#0D6EFD"/>
<path d="M43.7104 29.9283L43.677 30.0581L44.5701 30.2881L44.6036 30.1583L43.7104 29.9283Z" fill="#0D6EFD"/>
<path d="M43.5713 30.4772L43.5378 30.6069L44.431 30.8369L44.4644 30.7071L43.5713 30.4772Z" fill="#0D6EFD"/>
<path d="M43.4304 31.0245L43.397 31.1543L44.6794 31.4845L44.7129 31.3548L43.4304 31.0245Z" fill="#0D6EFD"/>
<path d="M43.3198 31.4571L43.2864 31.5869L44.1795 31.8169L44.2129 31.6871L43.3198 31.4571Z" fill="#0D6EFD"/>
<path d="M43.1782 32.003L43.1448 32.1328L44.0379 32.3628L44.0713 32.233L43.1782 32.003Z" fill="#0D6EFD"/>
<path d="M43.0361 32.5514L43.0027 32.6812L43.8958 32.9111L43.9292 32.7814L43.0361 32.5514Z" fill="#0D6EFD"/>
<path d="M42.8972 33.0997L42.8638 33.2295L43.7569 33.4595L43.7903 33.3297L42.8972 33.0997Z" fill="#0D6EFD"/>
<path d="M42.7549 33.6446L42.7214 33.7744L44.0039 34.1046L44.0373 33.9749L42.7549 33.6446Z" fill="#0D6EFD"/>
<path d="M42.643 34.0773L42.6096 34.207L43.5028 34.437L43.5362 34.3072L42.643 34.0773Z" fill="#0D6EFD"/>
<path d="M42.5012 34.6246L42.4678 34.7544L43.3609 34.9844L43.3943 34.8546L42.5012 34.6246Z" fill="#0D6EFD"/>
<path d="M42.3606 35.173L42.3271 35.3027L43.2203 35.5327L43.2537 35.4029L42.3606 35.173Z" fill="#0D6EFD"/>
<path d="M42.2202 35.7203L42.1868 35.8501L43.0799 36.0801L43.1133 35.9503L42.2202 35.7203Z" fill="#0D6EFD"/>
<path d="M42.0805 36.2692L42.0471 36.3989L43.3296 36.7292L43.363 36.5994L42.0805 36.2692Z" fill="#0D6EFD"/>
<path d="M41.9673 36.6988L41.9338 36.8286L42.827 37.0586L42.8604 36.9288L41.9673 36.6988Z" fill="#0D6EFD"/>
<path d="M41.8257 37.2462L41.7922 37.376L42.6854 37.606L42.7188 37.4762L41.8257 37.2462Z" fill="#0D6EFD"/>
<path d="M41.685 37.7945L41.6516 37.9243L42.5448 38.1543L42.5782 38.0245L41.685 37.7945Z" fill="#0D6EFD"/>
<path d="M41.5459 38.3434L41.5125 38.4731L42.4056 38.7031L42.439 38.5734L41.5459 38.3434Z" fill="#0D6EFD"/>
<path d="M41.2929 39.3219L41.2595 39.4517L42.1527 39.6816L42.1861 39.5519L41.2929 39.3219Z" fill="#0D6EFD"/>
<path d="M41.1513 39.8688L41.1179 39.9985L42.0111 40.2285L42.0445 40.0987L41.1513 39.8688Z" fill="#0D6EFD"/>
<path d="M41.0107 40.4161L40.9773 40.5459L41.8704 40.7759L41.9039 40.6461L41.0107 40.4161Z" fill="#0D6EFD"/>
<path d="M40.8703 40.9664L40.8369 41.0962L41.7301 41.3262L41.7635 41.1964L40.8703 40.9664Z" fill="#0D6EFD"/>
<path d="M40.7295 41.5123L40.696 41.6421L41.9785 41.9723L42.0119 41.8426L40.7295 41.5123Z" fill="#0D6EFD"/>
<path d="M40.6174 41.9449L40.584 42.0747L41.4771 42.3047L41.5105 42.1749L40.6174 41.9449Z" fill="#0D6EFD"/>
<path d="M40.4758 42.4903L40.4424 42.6201L41.3355 42.8501L41.3689 42.7203L40.4758 42.4903Z" fill="#0D6EFD"/>
<path d="M40.3337 43.0377L40.3003 43.1675L41.1935 43.3973L41.2269 43.2675L40.3337 43.0377Z" fill="#0D6EFD"/>
<path d="M40.1948 43.588L40.1614 43.7178L41.0545 43.9478L41.0879 43.818L40.1948 43.588Z" fill="#0D6EFD"/>
<path d="M40.0537 44.1339L40.0203 44.2637L41.3027 44.5939L41.3361 44.4641L40.0537 44.1339Z" fill="#0D6EFD"/>
<path d="M39.9419 44.566L39.9084 44.6958L40.8016 44.9258L40.835 44.796L39.9419 44.566Z" fill="#0D6EFD"/>
<path d="M39.8002 45.1119L39.7668 45.2417L40.66 45.4715L40.6934 45.3417L39.8002 45.1119Z" fill="#0D6EFD"/>
<path d="M39.6599 45.6612L39.6265 45.791L40.5196 46.021L40.553 45.8912L39.6599 45.6612Z" fill="#0D6EFD"/>
<path d="M39.5193 46.2096L39.4858 46.3394L40.379 46.5693L40.4124 46.4396L39.5193 46.2096Z" fill="#0D6EFD"/>
<path d="M39.3794 46.7594L39.3459 46.8892L40.6284 47.2194L40.6618 47.0896L39.3794 46.7594Z" fill="#0D6EFD"/>
<path d="M39.2663 47.1891L39.2329 47.3188L40.1261 47.5488L40.1595 47.4191L39.2663 47.1891Z" fill="#0D6EFD"/>
<path d="M39.1259 47.7355L39.0925 47.8652L39.9857 48.0952L40.0191 47.9654L39.1259 47.7355Z" fill="#0D6EFD"/>
<path d="M38.9856 48.2828L38.9521 48.4126L39.8453 48.6426L39.8787 48.5128L38.9856 48.2828Z" fill="#0D6EFD"/>
<path d="M38.8449 48.8312L38.8115 48.9609L39.7047 49.1909L39.7381 49.0612L38.8449 48.8312Z" fill="#0D6EFD"/>
<path d="M38.7038 49.3771L38.6704 49.5068L39.9529 49.8371L39.9863 49.7073L38.7038 49.3771Z" fill="#0D6EFD"/>
<path d="M38.5908 49.8111L38.5574 49.9409L39.4505 50.1709L39.4839 50.0411L38.5908 49.8111Z" fill="#0D6EFD"/>
<path d="M38.4504 50.358L38.417 50.4878L39.3101 50.7178L39.3436 50.588L38.4504 50.358Z" fill="#0D6EFD"/>
<path d="M38.31 50.9059L38.2766 51.0356L39.1698 51.2656L39.2032 51.1359L38.31 50.9059Z" fill="#0D6EFD"/>
<path d="M38.1692 51.4542L38.1357 51.584L39.0289 51.814L39.0623 51.6842L38.1692 51.4542Z" fill="#0D6EFD"/>
<path d="M38.0271 51.9996L37.9937 52.1294L39.2761 52.4596L39.3095 52.3299L38.0271 51.9996Z" fill="#0D6EFD"/>
<path d="M37.9165 52.4327L37.8831 52.5625L38.7762 52.7925L38.8096 52.6627L37.9165 52.4327Z" fill="#0D6EFD"/>
<path d="M37.7761 52.9801L37.7427 53.1099L38.6358 53.3398L38.6692 53.2101L37.7761 52.9801Z" fill="#0D6EFD"/>
<path d="M45.6365 16.7301H36.4045L38.7483 14.9092H43.277L45.5945 16.6986L45.6365 16.7301Z" fill="#0022B0"/>
<path d="M38.7486 14.9102L36.3772 16.7284V21.7077H38.7407L38.7486 14.9102Z" fill="#86B7FE"/>
<path d="M45.5945 16.6563V21.6356H43.231L43.2271 19.2116V16.7299L43.2231 14.909V14.8394L45.5945 16.6563Z" fill="#86B7FE"/>
<path d="M55.766 33.6945V55.8936C55.766 55.9409 55.766 55.9842 55.7621 56.0329C55.6885 58.5921 53.5983 60.6351 51.0232 60.6351H30.9472C28.5417 60.6351 26.5539 58.8457 26.2452 56.5242C26.2189 56.3166 26.2031 56.1077 26.2031 55.8936V33.6945C26.2031 32.5449 26.3332 31.4295 26.5841 30.3575C26.5868 30.343 26.5907 30.3299 26.5946 30.3154C26.7221 29.7768 26.8797 29.25 27.0637 28.7363C27.2226 28.2961 27.4013 27.8652 27.5997 27.4461C28.1094 26.3701 28.7453 25.3651 29.4929 24.4533C29.682 24.2195 29.8778 23.9922 30.0814 23.7688C30.5636 23.2538 31.0786 22.7664 31.6251 22.3237C32.1796 21.8717 32.7681 21.4631 33.3882 21.0953C33.6195 20.9586 33.8533 20.8273 34.0937 20.7038C34.3736 20.5579 34.66 20.4213 34.9543 20.2939C35.0081 20.2689 35.0646 20.2439 35.1211 20.2216C35.5297 20.0469 35.9501 19.8905 36.3784 19.7539C37.1391 19.5082 37.9326 19.3282 38.7432 19.2126C39.4264 19.1101 40.1253 19.0615 40.8374 19.0615H41.2447C41.9187 19.0668 42.5808 19.1154 43.2272 19.2126C44.0391 19.3282 44.8313 19.5082 45.5947 19.7539C46.1031 19.9168 46.5944 20.106 47.0753 20.3201C47.6126 20.5553 48.1263 20.8246 48.6229 21.1215C49.2549 21.4986 49.854 21.9177 50.4163 22.3828C50.6567 22.5798 50.8905 22.7835 51.1165 23.0029C51.1927 23.0725 51.2755 23.1435 51.3517 23.217C51.5553 23.4167 51.7524 23.623 51.9403 23.8293C53.6679 25.7185 54.9028 28.0636 55.4494 30.6636C55.6583 31.6424 55.766 32.654 55.766 33.6945Z" fill="#0022B0"/>
<path d="M52.8087 48.2226H28.5903V35.2332C28.5903 31.414 31.6869 28.3174 35.5061 28.3174H45.8916C49.7108 28.3174 52.8074 31.414 52.8074 35.2332V48.2226H52.8087Z" fill="#0054E4"/>
<path d="M45.8931 28.0205H35.5076C31.6884 28.0205 28.5918 31.1171 28.5918 34.9363V35.2319C28.5918 31.4127 31.6884 28.3161 35.5076 28.3161H45.8931C49.7123 28.3161 52.8089 31.4127 52.8089 35.2319V34.9363C52.8089 31.1171 49.7123 28.0205 45.8931 28.0205Z" fill="#0022B0"/>
<path opacity="0.3" d="M49.8723 22.9044L49.7883 22.9727L49.5623 23.1554L49.4782 23.2237L49.2549 23.405L49.1708 23.4733L48.9474 23.6546L48.8634 23.7229L48.6374 23.9055L48.5533 23.9739L48.33 24.1552L48.2616 24.2103L48.0212 24.4048L47.9371 24.4731L47.7112 24.6557L47.6271 24.724L47.4037 24.9053L47.3197 24.9736L47.0963 25.1549L47.0122 25.2233L46.7863 25.4059L46.7022 25.4742L46.4696 25.6621L46.3934 25.7238L46.1517 25.9196L46.086 25.9734L45.839 26.1731L45.7773 26.2231L45.5539 26.4044L45.5132 26.4372L45.2465 26.6527L45.1624 26.721L44.9364 26.9036L44.8524 26.9719L44.629 27.1532L44.5449 27.2215L44.3216 27.4028L44.2401 27.4685L44.0115 27.6538L43.9353 27.7155L43.6713 27.9284L43.6187 27.9704L43.3533 28.1845L43.3113 28.2187L43.0406 28.4381L43.0025 28.4696L42.7792 28.6509L42.7647 28.6628L42.4718 28.9006L42.3877 28.9689L42.0776 29.2198L47.5325 35.9635L50.6711 22.2686L49.8723 22.9149V22.9044ZM46.8099 32.2074L44.3452 29.1607L48.2275 26.0207L46.8112 32.2087L46.8099 32.2074Z" fill="#00004A"/>
<path d="M49.7804 22.0073L41.6086 29.4499L47.4484 35.8625L49.7804 22.0073ZM47.5601 25.9053L46.5078 32.1655L43.8684 29.2673L47.5601 25.9053Z" fill="#CFE2FF"/>
<path d="M49.0211 22.7019L48.9414 22.7744L49.1988 23.0571L49.2785 22.9846L49.0211 22.7019Z" fill="#0D6EFD"/>
<path d="M48.7261 22.9695L48.6465 23.042L48.9039 23.3247L48.9835 23.2521L48.7261 22.9695Z" fill="#0D6EFD"/>
<path d="M48.4322 23.2331L48.3525 23.3057L48.61 23.5883L48.6896 23.5158L48.4322 23.2331Z" fill="#0D6EFD"/>
<path d="M48.1412 23.5032L48.0615 23.5757L48.3189 23.8584L48.3986 23.7858L48.1412 23.5032Z" fill="#0D6EFD"/>
<path d="M47.8458 23.7678L47.7661 23.8403L48.0236 24.123L48.1032 24.0504L47.8458 23.7678Z" fill="#0D6EFD"/>
<path d="M47.5528 24.0349L47.4731 24.1074L47.7306 24.3901L47.8102 24.3175L47.5528 24.0349Z" fill="#0D6EFD"/>
<path d="M47.2593 24.302L47.1797 24.3745L47.4371 24.6571L47.5168 24.5846L47.2593 24.302Z" fill="#0D6EFD"/>
<path d="M46.9649 24.5695L46.8853 24.6421L47.1427 24.9247L47.2223 24.8522L46.9649 24.5695Z" fill="#0D6EFD"/>
<path d="M46.6739 24.8357L46.5942 24.9082L46.8517 25.1908L46.9313 25.1183L46.6739 24.8357Z" fill="#0D6EFD"/>
<path d="M46.3809 25.1023L46.3013 25.1748L46.5587 25.4574L46.6384 25.3849L46.3809 25.1023Z" fill="#0D6EFD"/>
<path d="M46.086 25.3713L46.0063 25.4438L46.2638 25.7265L46.3434 25.6539L46.086 25.3713Z" fill="#0D6EFD"/>
<path d="M45.792 25.636L45.7124 25.7085L45.9699 25.9911L46.0495 25.9186L45.792 25.636Z" fill="#0D6EFD"/>
<path d="M45.5003 25.903L45.4207 25.9756L45.6781 26.2582L45.7577 26.1857L45.5003 25.903Z" fill="#0D6EFD"/>
<path d="M45.2056 26.1721L45.126 26.2446L45.3834 26.5273L45.4631 26.4547L45.2056 26.1721Z" fill="#0D6EFD"/>
<path d="M44.9124 26.4392L44.8328 26.5117L45.0902 26.7944L45.1699 26.7218L44.9124 26.4392Z" fill="#0D6EFD"/>
<path d="M44.6202 26.7038L44.5405 26.7764L44.798 27.059L44.8776 26.9865L44.6202 26.7038Z" fill="#0D6EFD"/>
<path d="M44.327 26.9729L44.2473 27.0454L44.5048 27.328L44.5844 27.2555L44.327 26.9729Z" fill="#0D6EFD"/>
<path d="M44.034 27.2395L43.9543 27.312L44.2118 27.5946L44.2914 27.5221L44.034 27.2395Z" fill="#0D6EFD"/>
<path d="M43.7418 27.5085L43.6621 27.5811L43.9195 27.8637L43.9992 27.7912L43.7418 27.5085Z" fill="#0D6EFD"/>
<path d="M43.4461 27.7741L43.3665 27.8467L43.6239 28.1293L43.7035 28.0568L43.4461 27.7741Z" fill="#0D6EFD"/>
<path d="M43.1536 28.0442L43.074 28.1167L43.3314 28.3994L43.411 28.3268L43.1536 28.0442Z" fill="#0D6EFD"/>
<path d="M42.8611 28.3083L42.7815 28.3809L43.0389 28.6635L43.1186 28.5909L42.8611 28.3083Z" fill="#0D6EFD"/>
<path d="M42.5665 28.5759L42.4868 28.6484L42.7443 28.9311L42.8239 28.8585L42.5665 28.5759Z" fill="#0D6EFD"/>
<path d="M42.2754 28.842L42.1958 28.9146L42.4533 29.1972L42.5329 29.1246L42.2754 28.842Z" fill="#0D6EFD"/>
<path d="M41.983 29.112L41.9033 29.1846L42.1607 29.4673L42.2404 29.3947L41.983 29.112Z" fill="#0D6EFD"/>
<path opacity="0.15" d="M56.6241 43.4826V52.8105C56.6241 53.9811 56.3114 55.082 55.7622 56.0319C55.69 58.5912 53.5984 60.6341 51.0234 60.6341H41.2449V19.0606C41.9188 19.0658 42.581 19.1157 43.2261 19.2116V16.7286H41.2449V14.909H43.2221V14.8394L45.5935 16.655V16.6971L45.6369 16.7273H45.5935V19.7516C46.102 19.9145 46.5946 20.1037 47.0755 20.3179C47.6128 20.553 48.1265 20.8224 48.6231 21.1193C49.255 21.4963 49.8554 21.9154 50.4164 22.3805C50.6555 22.5776 50.8907 22.7812 51.1154 23.0006C51.1929 23.0702 51.2757 23.1425 51.3505 23.2148C51.5555 23.4158 51.7512 23.6207 51.9391 23.827C53.27 25.2814 54.3092 27.0064 54.9648 28.9127C55.1605 29.4802 55.3221 30.0649 55.4482 30.6613C55.6571 31.6401 55.7649 32.6517 55.7649 33.6909V40.2244C55.7806 40.2585 55.7911 40.294 55.8043 40.3282C56.3272 41.2636 56.6228 42.337 56.6228 43.4786L56.6241 43.4826Z" fill="#00004A"/>
<path opacity="0.3" d="M36.3312 42.3013L35.3695 42.8662L35.3432 42.8216L35.2749 42.7059L35.2368 42.6416L35.1698 42.526L35.1238 42.4498L35.0568 42.3341L35.0187 42.2698L34.9517 42.1555L34.9057 42.078L34.8374 41.961L34.798 41.894L34.7323 41.7824L34.6876 41.7062L34.6403 41.626L34.5812 41.5262L34.53 41.4381L34.4682 41.333L34.3999 41.2174L34.3631 41.1544L34.2948 41.0374L34.2488 40.9612L34.1923 40.864L34.145 40.7826L34.0767 40.6669L34.0307 40.5894L33.9637 40.4751L33.9164 40.3937L33.8573 40.2951L33.7929 40.1861L33.7443 40.102L33.676 39.9851L33.6392 39.9233L33.5946 39.8471L33.5473 39.767L33.4881 39.6672L33.4211 39.5515L33.3752 39.474L33.3082 39.3584L33.2701 39.294L33.2017 39.1784L33.1571 39.1022L33.0914 38.9906L33.052 38.9236L32.9823 38.8066L32.9377 38.7291L32.8707 38.6148L32.826 38.5386L32.7564 38.4217L32.7117 38.3442L32.6894 38.3074L32.5987 38.1537L32.5304 38.0367L32.4595 37.9146L32.4187 37.8462L32.2598 37.5743L32.1928 37.4613L32.0876 37.2839L32.0785 37.2669L32.0325 37.1907L31.9957 37.1263L31.9208 36.9988L31.8525 36.8819L31.6948 36.6139L31.6265 36.497L31.5595 36.3853L31.5135 36.3065L31.4689 36.229L31.4386 36.179L31.3546 36.0358L31.2876 35.9215L31.1903 35.756L31.1733 35.7284L31.1286 35.6509L31.0616 35.5366L31.0156 35.4604L30.9867 35.4092L30.9026 35.266L30.8448 35.1674L30.7896 35.0755L30.7213 34.9585L30.5637 34.6905L30.4953 34.5736L30.3981 34.4081L30.3824 34.3831L30.2234 34.1111L30.1564 33.9982L30.1117 33.9206L30.0723 33.8536L29.9974 33.7262L29.9698 33.6802L29.8687 33.5081L29.8161 33.4188L29.6598 33.1508L29.5901 33.0338L29.4982 32.8788L29.4785 32.8433L29.3195 32.5727L29.2525 32.4584L29.0935 32.1878L29.0633 32.1365L28.7546 31.6123L28.6862 31.4954L28.5995 31.3482L28.5733 31.3036L28.4143 31.0329L28.3696 30.9567L27.8047 29.995L27.781 29.9556L27.6234 29.6876L27.605 29.6574L27.0637 28.7364C27.2227 28.2963 27.4014 27.8654 27.5997 27.4463L27.8389 27.8509V27.8536L28.7427 29.3907L28.8032 29.4932L29.69 31.0014L29.7163 31.0461L30.0486 31.611L30.0552 31.6228L30.2142 31.8935L30.2208 31.904L30.9249 33.1022L30.9591 33.1613L31.1194 33.4319L31.1325 33.4556L31.2862 33.717L31.2994 33.7407L31.457 34.0074L31.4912 34.0665L32.0587 35.0308L32.0903 35.086L32.2492 35.3566L32.2781 35.4052L32.42 35.6456L32.4305 35.664L32.5882 35.9321L32.6565 36.049L32.935 36.5219L32.9955 36.6244L33.1544 36.8951L33.1768 36.9345L33.2924 37.1315L33.3357 37.2038L33.4921 37.4705L33.5617 37.5887L33.6524 37.7438L33.6734 37.7792L33.8324 38.0499L33.8783 38.1287L34.1634 38.6135L34.1831 38.6463L34.2699 38.7935L34.2948 38.8368L34.3828 38.9853L34.4512 39.1009L34.4879 39.164L34.5563 39.2809L34.706 39.5371L34.7599 39.6277L35.0686 40.1533L35.1067 40.2176L35.1488 40.2899L35.2118 40.395L35.2565 40.4725L35.2749 40.5027L35.3629 40.6525L35.3747 40.6735L35.4759 40.8456L35.5127 40.9074L35.581 41.0256L35.6493 41.1399L35.8149 41.4237L35.8687 41.513L36.0185 41.7679L36.0684 41.8546L36.1709 42.0293L36.1998 42.0766L36.2721 42.2015L36.3049 42.2566L36.3312 42.3013Z" fill="black"/>
<path d="M25.9344 26.1244L25.0129 26.7529L35.7784 42.5346L36.6999 41.906L25.9344 26.1244Z" fill="#CFE2FF"/>
<path d="M25.8572 26.0135L24.9358 26.6421L25.0113 26.7528L25.9327 26.1242L25.8572 26.0135Z" fill="#0022B0"/>
<path d="M24.4085 24.8769C24.2732 24.9688 24.532 25.2973 24.532 25.2973L24.7817 25.4247L24.7541 25.1462C24.7541 25.1462 24.5439 24.7849 24.4085 24.8782V24.8769Z" fill="#0022B0"/>
<path d="M24.5334 25.2971L24.9381 26.6424L25.8591 26.0131L24.7542 25.146L24.5334 25.2971Z" fill="#CFE2FF"/>
<path opacity="0.7" d="M25.0759 26.8437L25.1521 26.9553L26.0744 26.326L25.9982 26.2144L25.0759 26.8437ZM25.2021 27.0289L25.2769 27.1379L26.1992 26.5086L26.1243 26.3996L25.2021 27.0289ZM25.3269 27.2115L25.4031 27.3232L26.3253 26.6939L26.2491 26.5822L25.3269 27.2115ZM25.453 27.3968L25.5279 27.5058L26.4502 26.8765L26.3753 26.7675L25.453 27.3968ZM25.5778 27.5794L25.654 27.6911L26.5763 27.0617L26.5001 26.9501L25.5778 27.5794ZM25.7039 27.7646L25.7788 27.8737L26.7011 27.2444L26.6262 27.1353L25.7039 27.7646ZM25.8287 27.9472L25.9049 28.0589L26.8272 27.4296L26.751 27.3179L25.8287 27.9472ZM25.9549 28.1325L26.0297 28.2415L26.952 27.6122L26.8771 27.5032L25.9549 28.1325ZM26.0797 28.3151L26.1559 28.4268L27.0781 27.7975L27.0019 27.6858L26.0797 28.3151ZM26.2058 28.5003L26.2807 28.6094L27.203 27.9801L27.1281 27.871L26.2058 28.5003ZM26.3306 28.683L26.4068 28.7946L27.3291 28.1653L27.2529 28.0537L26.3306 28.683ZM26.4567 28.8682L26.5316 28.9773L27.4539 28.3479L27.379 28.2389L26.4567 28.8682ZM26.5815 29.0508L26.6577 29.1625L27.58 28.5332L27.5038 28.4215L26.5815 29.0508ZM26.7077 29.2361L26.7825 29.3451L27.7048 28.7158L27.6299 28.6068L26.7077 29.2361ZM26.8325 29.4187L26.9087 29.5304L27.8309 28.9011L27.7547 28.7894L26.8325 29.4187ZM26.9586 29.6039L27.0335 29.713L27.9558 29.0837L27.8809 28.9746L26.9586 29.6039ZM27.0834 29.7865L27.1596 29.8982L28.0819 29.2689L28.0057 29.1572L27.0834 29.7865ZM27.2095 29.9718L27.2844 30.0808L28.2067 29.4515L28.1318 29.3425L27.2095 29.9718ZM27.3343 30.1544L27.4105 30.2661L28.3328 29.6368L28.2566 29.5251L27.3343 30.1544ZM27.4605 30.3397L27.5353 30.4487L28.4576 29.8194L28.3827 29.7103L27.4605 30.3397ZM27.5853 30.5223L27.6615 30.6339L28.5837 30.0046L28.5075 29.893L27.5853 30.5223ZM27.7114 30.7075L27.7863 30.8166L28.7086 30.1873L28.6337 30.0782L27.7114 30.7075ZM27.8362 30.8901L27.9124 31.0018L28.8347 30.3725L28.7585 30.2608L27.8362 30.8901ZM27.9623 31.0754L28.0372 31.1844L28.9595 30.5551L28.8846 30.4461L27.9623 31.0754ZM28.0871 31.258L28.1633 31.3697L29.0856 30.7404L29.0094 30.6287L28.0871 31.258ZM28.2133 31.4432L28.2881 31.5523L29.2104 30.923L29.1355 30.8139L28.2133 31.4432ZM28.3381 31.6259L28.4143 31.7375L29.3365 31.1082L29.2603 30.9965L28.3381 31.6259ZM28.4655 31.8111L28.5404 31.9201L29.4627 31.2908L29.3878 31.1818L28.4655 31.8111ZM28.5903 31.9937L28.6665 32.1054L29.5888 31.4761L29.5126 31.3644L28.5903 31.9937ZM28.7164 32.179L28.7913 32.288L29.7136 31.6587L29.6387 31.5497L28.7164 32.179ZM28.8412 32.3616L28.9174 32.4732L29.8397 31.8439L29.7635 31.7323L28.8412 32.3616ZM28.9674 32.5468L29.0423 32.6559L29.9645 32.0266L29.8897 31.9175L28.9674 32.5468ZM29.0922 32.7294L29.1684 32.8411L30.0907 32.2118L30.0145 32.1001L29.0922 32.7294ZM29.2183 32.9147L29.2932 33.0237L30.2155 32.3944L30.1406 32.2854L29.2183 32.9147ZM29.3431 33.0973L29.4193 33.209L30.3416 32.5797L30.2654 32.468L29.3431 33.0973ZM29.4692 33.2825L29.5441 33.3916L30.4664 32.7623L30.3915 32.6532L29.4692 33.2825ZM29.594 33.4652L29.6702 33.5768L30.5925 32.9475L30.5163 32.8359L29.594 33.4652ZM29.7202 33.6504L29.7951 33.7594L30.7173 33.1301L30.6425 33.0211L29.7202 33.6504ZM29.845 33.833L29.9212 33.9447L30.8435 33.3154L30.7673 33.2037L29.845 33.833ZM29.9711 34.0183L30.046 34.1273L30.9683 33.498L30.8934 33.389L29.9711 34.0183ZM30.0959 34.2009L30.1721 34.3125L31.0944 33.6832L31.0182 33.5716L30.0959 34.2009ZM30.222 34.3861L30.2969 34.4952L31.2192 33.8659L31.1443 33.7568L30.222 34.3861ZM30.3468 34.5687L30.423 34.6804L31.3453 34.0511L31.2691 33.9394L30.3468 34.5687ZM30.473 34.754L30.5479 34.863L31.4701 34.2337L31.3953 34.1247L30.473 34.754ZM30.5978 34.9366L30.674 35.0483L31.5963 34.419L31.5201 34.3073L30.5978 34.9366ZM30.7239 35.1218L30.7988 35.2309L31.7211 34.6016L31.6462 34.4925L30.7239 35.1218ZM30.8487 35.3045L30.9249 35.4161L31.8472 34.7868L31.771 34.6752L30.8487 35.3045ZM30.9748 35.4897L31.0497 35.5987L31.972 34.9694L31.8971 34.8604L30.9748 35.4897ZM31.0997 35.6723L31.1759 35.784L32.0981 35.1547L32.0219 35.043L31.0997 35.6723ZM31.2258 35.8576L31.3007 35.9666L32.2229 35.3373L32.1481 35.2283L31.2258 35.8576ZM31.3506 36.0402L31.4268 36.1519L32.3491 35.5225L32.2729 35.4109L31.3506 36.0402ZM31.4767 36.2254L31.5516 36.3345L32.4739 35.7052L32.399 35.5961L31.4767 36.2254ZM31.6015 36.408L31.6777 36.5197L32.6 35.8904L32.5238 35.7787L31.6015 36.408ZM31.7276 36.5933L31.8025 36.7023L32.7248 36.073L32.6499 35.964L31.7276 36.5933ZM31.8525 36.7759L31.9287 36.8876L32.8509 36.2583L32.7747 36.1466L31.8525 36.7759ZM31.9786 36.9611L32.0535 37.0702L32.9757 36.4409L32.9009 36.3318L31.9786 36.9611ZM32.1034 37.1438L32.1796 37.2554L33.1019 36.6261L33.0257 36.5145L32.1034 37.1438ZM32.2295 37.329L32.3044 37.4381L33.2267 36.8087L33.1518 36.6997L32.2295 37.329ZM32.3543 37.5116L32.4305 37.6233L33.3528 36.994L33.2766 36.8823L32.3543 37.5116ZM32.4804 37.6969L32.5553 37.8059L33.4776 37.1766L33.4027 37.0676L32.4804 37.6969ZM32.6053 37.8795L32.6815 37.9912L33.6037 37.3619L33.5275 37.2502L32.6053 37.8795ZM32.7314 38.0647L32.8063 38.1738L33.7285 37.5445L33.6537 37.4354L32.7314 38.0647ZM32.8562 38.2473L32.9324 38.359L33.8547 37.7297L33.7785 37.618L32.8562 38.2473ZM32.9823 38.4326L33.0572 38.5416L33.9795 37.9123L33.9046 37.8033L32.9823 38.4326ZM33.1071 38.6152L33.1833 38.7269L34.1056 38.0976L34.0294 37.9859L33.1071 38.6152ZM33.2254 38.7873L33.3002 38.8977L34.2225 38.2684L34.1476 38.158L33.2254 38.7873ZM33.3515 38.9712L33.4264 39.0816L34.3486 38.4523L34.2738 38.3419L33.3515 38.9712ZM33.4697 39.1434L33.5446 39.2537L34.4669 38.6244L34.392 38.514L33.4697 39.1434ZM33.5958 39.3273L33.6707 39.4376L34.593 38.8083L34.5181 38.698L33.5958 39.3273ZM33.7128 39.4981L33.789 39.6097L34.7113 38.9804L34.6351 38.8688L33.7128 39.4981ZM33.8389 39.6833L33.9138 39.7924L34.8361 39.1631L34.7612 39.054L33.8389 39.6833ZM33.9558 39.8541L34.0307 39.9645L34.953 39.3352L34.8781 39.2248L33.9558 39.8541ZM34.082 40.038L34.1568 40.1484L35.0791 39.5191L35.0042 39.4087L34.082 40.038ZM34.2002 40.2101L34.2751 40.3205L35.1974 39.6912L35.1225 39.5808L34.2002 40.2101ZM34.3263 40.3941L34.4012 40.5044L35.3235 39.8751L35.2486 39.7648L34.3263 40.3941ZM34.4446 40.5662L34.5194 40.6752L35.4417 40.0459L35.3668 39.9369L34.4446 40.5662ZM34.5694 40.7488L34.6456 40.8605L35.5678 40.2312L35.4916 40.1195L34.5694 40.7488ZM34.6876 40.9209L34.7625 41.0313L35.6848 40.402L35.6099 40.2916L34.6876 40.9209ZM34.8137 41.1048L34.8886 41.2152L35.8109 40.5859L35.736 40.4755L34.8137 41.1048ZM34.932 41.2769L35.0069 41.3873L35.9291 40.758L35.8543 40.6476L34.932 41.2769ZM35.0581 41.4609L35.133 41.5712L36.0553 40.9419L35.9804 40.8316L35.0581 41.4609ZM35.175 41.6317L35.2512 41.7433L36.1735 41.114L36.0973 41.0024L35.175 41.6317ZM35.3011 41.8169L35.376 41.926L36.2983 41.2967L36.2234 41.1876L35.3011 41.8169ZM35.4181 41.9877L35.493 42.0981L36.4152 41.4688L36.3404 41.3584L35.4181 41.9877ZM35.5442 42.1716L35.6191 42.282L36.5414 41.6527L36.4665 41.5423L35.5442 42.1716ZM35.6624 42.3437L35.7373 42.4541L36.6596 41.8248L36.5847 41.7144L35.6624 42.3437Z" fill="#0054E4"/>
<path opacity="0.3" d="M44.809 38.6858L53.6587 24.5349C53.7191 24.577 53.7704 24.6256 53.8137 24.6781C53.9214 24.8082 53.9267 24.9961 53.8374 25.1393L51.8417 28.3305C51.8259 28.3121 51.8089 28.2963 51.7865 28.2819C51.6565 28.2004 51.4817 28.2543 51.4239 28.4054C51.3898 28.4947 51.4147 28.6024 51.4844 28.6681C51.6 28.7772 51.7747 28.7509 51.8588 28.6287L51.864 28.6313L54.0331 25.1629L54.2381 24.8345L54.2486 24.8174L54.2446 24.8148C54.2959 24.3392 53.9661 24.0712 53.9543 24.062L54.2433 23.6008C54.3143 23.4879 54.2893 23.3433 54.1934 23.2579L54.3747 22.9689C54.4535 22.8428 54.4154 22.6772 54.2893 22.5984L54.1566 22.5156C54.0305 22.4368 53.8649 22.4749 53.7861 22.601L53.6022 22.894C53.4879 22.8585 53.3591 22.9006 53.2934 23.007L53.0084 23.4629L52.986 23.497L43.8591 38.0893L44.8103 38.6844L44.809 38.6858Z" fill="#00004A"/>
<path d="M53.3037 23.233L52.6968 22.894L53.1894 22.0125C53.2617 21.8824 53.4259 21.8364 53.556 21.9087L53.6926 21.9849C53.8227 22.0571 53.8687 22.2214 53.7964 22.3514L53.3037 23.233Z" fill="#0022B0"/>
<path d="M45.0191 38.5203L44.0403 37.9738L52.7179 22.4422C52.7901 22.3121 52.9543 22.2661 53.0844 22.3384L53.5942 22.6235C53.7242 22.6957 53.7702 22.8599 53.6979 22.99L45.0204 38.5216L45.0191 38.5203Z" fill="#CFE2FF"/>
<path d="M53.7583 24.2024C53.7859 23.7242 53.443 23.4732 53.4312 23.4654L53.4338 23.4601L52.4551 22.9136L52.1818 23.4036L53.1566 23.9475C53.221 23.9869 53.2762 24.0355 53.3222 24.0855C53.4365 24.2103 53.4509 24.3982 53.3681 24.5453L51.5328 27.8311C51.5157 27.814 51.4973 27.7982 51.4763 27.7851C51.3423 27.7102 51.1702 27.7733 51.1203 27.927C51.09 28.019 51.1203 28.1241 51.1938 28.1871C51.3147 28.2896 51.4881 28.2554 51.5656 28.1293L51.5709 28.1319L53.5665 24.5611L53.7557 24.2234L53.7649 24.2063L53.7597 24.2037L53.7583 24.2024Z" fill="#0054E4"/>
<g opacity="0.3">
<path d="M31.1174 24.0615L30.1995 24.4087L37.0509 42.5214L37.9688 42.1742L31.1174 24.0615Z" fill="#00004A"/>
<path d="M30.301 22.9665C30.2865 22.9284 30.2037 22.7169 30.0947 22.709C30.0237 22.7812 30.0855 22.9691 30.1065 23.0282H30.1039L30.1985 24.4117L31.1168 24.0648L30.2996 22.9678L30.301 22.9665Z" fill="#00004A"/>
</g>
<path d="M30.0782 24.2974L29.188 24.7104L37.3384 42.277L38.2286 41.864L30.0782 24.2974Z" fill="#257CFD"/>
<path d="M28.9595 23.0189C28.882 23.1109 29.0029 23.3539 29.0029 23.3539L29.1527 23.434L29.1881 23.2672C29.1881 23.2672 29.0804 23.0176 28.9595 23.0176V23.0189Z" fill="#0022B0"/>
<path d="M28.9924 23.3369L29.1882 24.7098L30.0789 24.2959L29.1764 23.2515L28.9924 23.3369Z" fill="#E7F0FF"/>
<path opacity="0.3" d="M44.5491 32.1142L42.1265 21.3477C42.1068 21.261 42.0464 21.1953 41.9715 21.1638C41.911 21.0823 41.8072 21.0403 41.7021 21.0626L33.0285 23.0136C32.8866 23.0451 32.7986 23.1857 32.8301 23.3276L35.2528 34.0941C35.2725 34.1808 35.3329 34.2465 35.4078 34.278C35.4682 34.3594 35.572 34.4028 35.6771 34.3792L44.3507 32.4282C44.4926 32.3966 44.5807 32.2561 44.5491 32.1142Z" fill="black"/>
<path d="M41.2437 21.3997L32.6578 23.7067C32.5177 23.7444 32.4346 23.8885 32.4722 24.0287L35.336 34.6865C35.3736 34.8266 35.5178 34.9097 35.6579 34.872L44.2438 32.565C44.3839 32.5274 44.467 32.3832 44.4293 32.2431L41.5656 21.5853C41.528 21.4451 41.3838 21.3621 41.2437 21.3997Z" fill="#2A2A2A"/>
<path d="M41.1292 21.3177L32.5433 23.6247C32.4032 23.6623 32.3201 23.8065 32.3577 23.9466L35.2215 34.6044C35.2591 34.7446 35.4033 34.8277 35.5434 34.79L44.1293 32.483C44.2694 32.4453 44.3525 32.3012 44.3148 32.1611L41.4511 21.5033C41.4135 21.3631 41.2693 21.28 41.1292 21.3177Z" fill="#E7F0FF"/>
<path d="M41.0779 22.3424L41.543 24.0753C41.5811 24.2145 41.497 24.359 41.3577 24.3971L33.9007 26.4007C33.764 26.4296 33.6274 26.3468 33.5919 26.2115L33.1269 24.4786C33.0888 24.3393 33.1728 24.1935 33.3121 24.1567L40.756 22.1571C40.8953 22.119 41.0398 22.2031 41.0779 22.3424Z" fill="#86B7FE"/>
<path d="M33.8468 26.4715C33.6983 26.4715 33.567 26.3717 33.5289 26.2285L33.0638 24.4956C33.0414 24.4115 33.0533 24.3222 33.0966 24.246C33.14 24.1698 33.2109 24.1159 33.2963 24.0923L40.7403 22.0927C40.9124 22.0467 41.0963 22.1544 41.1423 22.3252L41.6074 24.0581C41.6297 24.1422 41.6179 24.2315 41.5745 24.3077C41.5312 24.3839 41.4602 24.4378 41.3761 24.4614L33.9191 26.465C33.8928 26.4702 33.8704 26.4728 33.8481 26.4728L33.8468 26.4715ZM40.8243 22.2122C40.8073 22.2122 40.7902 22.2149 40.7731 22.2188L33.3292 24.2184C33.2779 24.2315 33.2359 24.2644 33.2096 24.3103C33.1833 24.3563 33.1768 24.4089 33.1899 24.4601L33.655 26.193C33.6813 26.2915 33.7851 26.3559 33.8875 26.3349L41.3407 24.3327C41.3906 24.3195 41.4339 24.2867 41.4602 24.2407C41.4865 24.1947 41.4931 24.1422 41.4799 24.0909L41.0148 22.3581C40.9912 22.2727 40.9137 22.2122 40.8243 22.2122Z" fill="#0022B0"/>
<path d="M36.7387 23.3135L36.0095 25.7624L33.9797 26.3076L34.7089 23.86L36.7387 23.3135Z" fill="#CFE2FF"/>
<path d="M35.3054 26.8896L34.2269 27.1794C34.0868 27.217 34.0037 27.3612 34.0413 27.5013L34.1607 27.9454C34.1983 28.0855 34.3424 28.1686 34.4826 28.131L35.5611 27.8412C35.7012 27.8035 35.7843 27.6594 35.7466 27.5192L35.6273 27.0752C35.5897 26.935 35.4455 26.8519 35.3054 26.8896Z" fill="#0022B0"/>
<path d="M37.3664 26.3354L36.2879 26.6252C36.1478 26.6628 36.0647 26.807 36.1024 26.9471L36.2217 27.3912C36.2593 27.5313 36.4035 27.6144 36.5436 27.5768L37.6221 27.287C37.7622 27.2493 37.8453 27.1052 37.8077 26.965L37.6883 26.521C37.6507 26.3808 37.5066 26.2977 37.3664 26.3354Z" fill="#0022B0"/>
<path d="M39.4753 25.7695L38.3968 26.0593C38.2567 26.0969 38.1736 26.2411 38.2113 26.3812L38.3306 26.8253C38.3682 26.9654 38.5124 27.0485 38.6525 27.0108L39.731 26.7211C39.8711 26.6834 39.9542 26.5393 39.9166 26.3991L39.7972 25.955C39.7596 25.8149 39.6154 25.7318 39.4753 25.7695Z" fill="#0022B0"/>
<path d="M41.5854 25.2036L40.5069 25.4933C40.3668 25.531 40.2837 25.6751 40.3214 25.8153L40.4407 26.2594C40.4783 26.3995 40.6225 26.4826 40.7626 26.4449L41.8411 26.1551C41.9812 26.1175 42.0643 25.9734 42.0267 25.8332L41.9073 25.3891C41.8697 25.249 41.7255 25.1659 41.5854 25.2036Z" fill="#86B7FE"/>
<path d="M35.2326 26.8481L34.1541 27.1379C34.014 27.1755 33.9309 27.3197 33.9686 27.4598L34.0879 27.9039C34.1256 28.044 34.2697 28.1271 34.4098 28.0895L35.4883 27.7997C35.6285 27.762 35.7115 27.6179 35.6739 27.4777L35.5546 27.0337C35.5169 26.8935 35.3728 26.8104 35.2326 26.8481Z" fill="#0054E4"/>
<path d="M37.2954 26.2939L36.2169 26.5837C36.0767 26.6213 35.9937 26.7655 36.0313 26.9056L36.1506 27.3497C36.1883 27.4898 36.3324 27.5729 36.4726 27.5353L37.551 27.2455C37.6912 27.2078 37.7743 27.0637 37.7366 26.9235L37.6173 26.4795C37.5796 26.3393 37.4355 26.2562 37.2954 26.2939Z" fill="#0054E4"/>
<path d="M39.4038 25.7265L38.3253 26.0163C38.1851 26.0539 38.1021 26.1981 38.1397 26.3382L38.259 26.7823C38.2967 26.9225 38.4408 27.0055 38.581 26.9679L39.6594 26.6781C39.7996 26.6404 39.8827 26.4963 39.845 26.3562L39.7257 25.9121C39.688 25.7719 39.5439 25.6889 39.4038 25.7265Z" fill="#0054E4"/>
<path d="M41.5126 25.1606L40.4342 25.4504C40.294 25.488 40.2109 25.6322 40.2486 25.7723L40.3679 26.2164C40.4056 26.3565 40.5497 26.4396 40.6899 26.402L41.7683 26.1122C41.9085 26.0745 41.9916 25.9304 41.9539 25.7902L41.8346 25.3462C41.7969 25.206 41.6528 25.1229 41.5126 25.1606Z" fill="#00004A"/>
<path d="M35.52 28.453L34.6737 28.6804C34.5335 28.718 34.4504 28.8621 34.4881 29.0023L34.7155 29.8486C34.7532 29.9887 34.8973 30.0718 35.0374 30.0341L35.8837 29.8068C36.0239 29.7691 36.1069 29.625 36.0693 29.4848L35.8419 28.6385C35.8042 28.4984 35.6601 28.4153 35.52 28.453Z" fill="#86B7FE"/>
<path d="M37.1313 28.0194L36.285 28.2468C36.1449 28.2844 36.0618 28.4286 36.0994 28.5687L36.3268 29.415C36.3645 29.5551 36.5086 29.6382 36.6488 29.6006L37.495 29.3732C37.6352 29.3355 37.7183 29.1914 37.6806 29.0512L37.4532 28.2049C37.4156 28.0648 37.2714 27.9817 37.1313 28.0194Z" fill="#86B7FE"/>
<path d="M38.7536 27.5848L37.9073 27.8122C37.7672 27.8498 37.6841 27.994 37.7217 28.1341L37.9491 28.9804C37.9868 29.1206 38.1309 29.2036 38.2711 29.166L39.1174 28.9386C39.2575 28.9009 39.3406 28.7568 39.3029 28.6166L39.0755 27.7704C39.0379 27.6302 38.8937 27.5471 38.7536 27.5848Z" fill="#86B7FE"/>
<path d="M40.3659 27.1507L39.5196 27.3781C39.3795 27.4158 39.2964 27.5599 39.3341 27.7L39.5614 28.5463C39.5991 28.6865 39.7432 28.7696 39.8834 28.7319L40.7297 28.5045C40.8698 28.4668 40.9529 28.3227 40.9152 28.1826L40.6878 27.3363C40.6502 27.1961 40.5061 27.1131 40.3659 27.1507Z" fill="#0022B0"/>
<path d="M41.9687 26.7205L41.1224 26.9479C40.9823 26.9856 40.8992 27.1297 40.9368 27.2699L41.1642 28.1161C41.2019 28.2563 41.346 28.3394 41.4862 28.3017L42.3324 28.0743C42.4726 28.0367 42.5557 27.8925 42.518 27.7524L42.2906 26.9061C42.253 26.766 42.1088 26.6829 41.9687 26.7205Z" fill="#0022B0"/>
<path d="M36.0065 30.2718L35.1603 30.4992C35.0201 30.5369 34.937 30.681 34.9747 30.8211L35.2021 31.6674C35.2397 31.8076 35.3839 31.8906 35.524 31.853L36.3703 31.6256C36.5104 31.5879 36.5935 31.4438 36.5559 31.3037L36.3285 30.4574C36.2908 30.3172 36.1467 30.2341 36.0065 30.2718Z" fill="black"/>
<path d="M37.6208 29.8392L36.7745 30.0666C36.6344 30.1042 36.5513 30.2484 36.5889 30.3885L36.8163 31.2348C36.854 31.3749 36.9981 31.458 37.1383 31.4204L37.9845 31.193C38.1247 31.1553 38.2078 31.0112 38.1701 30.871L37.9427 30.0248C37.9051 29.8846 37.7609 29.8015 37.6208 29.8392Z" fill="black"/>
<path d="M40.8552 28.9691L40.0089 29.1965C39.8687 29.2341 39.7857 29.3783 39.8233 29.5184L40.0507 30.3647C40.0884 30.5048 40.2325 30.5879 40.3726 30.5503L41.2189 30.3229C41.3591 30.2852 41.4422 30.1411 41.4045 30.0009L41.1771 29.1546C41.1394 29.0145 40.9953 28.9314 40.8552 28.9691Z" fill="black"/>
<path d="M42.4582 28.5389L41.6119 28.7663C41.4718 28.8039 41.3887 28.9481 41.4263 29.0882L41.6537 29.9345C41.6914 30.0747 41.8355 30.1577 41.9757 30.1201L42.822 29.8927C42.9621 29.855 43.0452 29.7109 43.0075 29.5707L42.7801 28.7245C42.7425 28.5843 42.5983 28.5012 42.4582 28.5389Z" fill="#0022B0"/>
<path d="M36.4963 32.0916L35.65 32.319C35.5099 32.3567 35.4268 32.5008 35.4644 32.641L35.6918 33.4872C35.7295 33.6274 35.8736 33.7105 36.0138 33.6728L36.86 33.4454C37.0002 33.4078 37.0833 33.2636 37.0456 33.1235L36.8182 32.2772C36.7806 32.1371 36.6364 32.054 36.4963 32.0916Z" fill="black"/>
<path d="M38.1086 31.6575L37.2623 31.8849C37.1222 31.9226 37.0391 32.0667 37.0767 32.2069L37.3041 33.0532C37.3418 33.1933 37.4859 33.2764 37.6261 33.2387L38.4723 33.0113C38.6125 32.9737 38.6956 32.8295 38.6579 32.6894L38.4305 31.8431C38.3929 31.703 38.2487 31.6199 38.1086 31.6575Z" fill="black"/>
<path d="M39.7307 31.2215L38.8844 31.4489C38.7442 31.4866 38.6611 31.6307 38.6988 31.7708L38.9262 32.6171C38.9638 32.7573 39.108 32.8404 39.2481 32.8027L40.0944 32.5753C40.2346 32.5376 40.3176 32.3935 40.28 32.2534L40.0526 31.4071C40.0149 31.2669 39.8708 31.1839 39.7307 31.2215Z" fill="black"/>
<path d="M41.3444 30.7874L40.4981 31.0148C40.358 31.0525 40.2749 31.1966 40.3126 31.3368L40.54 32.183C40.5776 32.3232 40.7218 32.4063 40.8619 32.3686L41.7082 32.1412C41.8483 32.1036 41.9314 31.9594 41.8938 31.8193L41.6664 30.973C41.6287 30.8329 41.4846 30.7498 41.3444 30.7874Z" fill="black"/>
<path d="M42.9462 30.3573L42.0999 30.5846C41.9598 30.6223 41.8767 30.7664 41.9144 30.9066L42.1418 31.7529C42.1794 31.893 42.3236 31.9761 42.4637 31.9384L43.31 31.711C43.4501 31.6734 43.5332 31.5293 43.4956 31.3891L43.2682 30.5428C43.2305 30.4027 43.0864 30.3196 42.9462 30.3573Z" fill="black"/>
<path d="M35.4282 28.4163L34.5819 28.6437C34.4417 28.6814 34.3587 28.8255 34.3963 28.9657L34.6237 29.812C34.6614 29.9521 34.8055 30.0352 34.9456 29.9975L35.7919 29.7701C35.9321 29.7325 36.0152 29.5883 35.9775 29.4482L35.7501 28.6019C35.7124 28.4618 35.5683 28.3787 35.4282 28.4163Z" fill="#0D6EFD"/>
<path d="M37.0395 27.9827L36.1932 28.2101C36.0531 28.2478 35.97 28.3919 36.0076 28.5321L36.235 29.3784C36.2727 29.5185 36.4168 29.6016 36.557 29.5639L37.4033 29.3365C37.5434 29.2989 37.6265 29.1547 37.5888 29.0146L37.3614 28.1683C37.3238 28.0282 37.1796 27.9451 37.0395 27.9827Z" fill="#0D6EFD"/>
<path d="M38.663 27.5477L37.8167 27.7751C37.6766 27.8127 37.5935 27.9569 37.6312 28.097L37.8586 28.9433C37.8962 29.0834 38.0404 29.1665 38.1805 29.1289L39.0268 28.9015C39.1669 28.8638 39.25 28.7197 39.2124 28.5795L38.985 27.7333C38.9473 27.5931 38.8032 27.51 38.663 27.5477Z" fill="#0D6EFD"/>
<path d="M40.2741 27.1156L39.4278 27.3429C39.2877 27.3806 39.2046 27.5247 39.2423 27.6649L39.4696 28.5112C39.5073 28.6513 39.6514 28.7344 39.7916 28.6967L40.6379 28.4693C40.778 28.4317 40.8611 28.2876 40.8234 28.1474L40.596 27.3011C40.5584 27.161 40.4143 27.0779 40.2741 27.1156Z" fill="#86B7FE"/>
<path d="M41.8769 26.6839L41.0306 26.9113C40.8905 26.949 40.8074 27.0931 40.845 27.2332L41.0724 28.0795C41.1101 28.2197 41.2542 28.3028 41.3944 28.2651L42.2407 28.0377C42.3808 28.0001 42.4639 27.8559 42.4262 27.7158L42.1988 26.8695C42.1612 26.7293 42.017 26.6463 41.8769 26.6839Z" fill="#86B7FE"/>
<path d="M35.9162 30.2347L35.0699 30.4621C34.9298 30.4997 34.8467 30.6439 34.8843 30.784L35.1117 31.6303C35.1494 31.7705 35.2935 31.8535 35.4337 31.8159L36.28 31.5885C36.4201 31.5508 36.5032 31.4067 36.4655 31.2665L36.2381 30.4203C36.2005 30.2801 36.0563 30.197 35.9162 30.2347Z" fill="#181818"/>
<path d="M37.529 29.8026L36.6827 30.03C36.5426 30.0676 36.4595 30.2118 36.4971 30.3519L36.7245 31.1982C36.7622 31.3383 36.9063 31.4214 37.0465 31.3838L37.8928 31.1564C38.0329 31.1187 38.116 30.9746 38.0783 30.8344L37.8509 29.9881C37.8133 29.848 37.6691 29.7649 37.529 29.8026Z" fill="#181818"/>
<path d="M39.2414 29.4032L38.3951 29.6305C38.255 29.6682 38.1719 29.8123 38.2095 29.9525L38.4369 30.7988C38.4746 30.9389 38.6187 31.022 38.7589 30.9843L39.6052 30.7569C39.7453 30.7193 39.8284 30.5752 39.7907 30.435L39.5633 29.5887C39.5257 29.4486 39.3815 29.3655 39.2414 29.4032Z" fill="black"/>
<path d="M39.1508 29.366L38.3045 29.5934C38.1644 29.6311 38.0813 29.7752 38.119 29.9154L38.3464 30.7617C38.384 30.9018 38.5282 30.9849 38.6683 30.9472L39.5146 30.7198C39.6547 30.6822 39.7378 30.538 39.7002 30.3979L39.4728 29.5516C39.4351 29.4115 39.291 29.3284 39.1508 29.366Z" fill="#181818"/>
<path d="M40.7634 28.9325L39.9171 29.1598C39.7769 29.1975 39.6939 29.3416 39.7315 29.4818L39.9589 30.3281C39.9966 30.4682 40.1407 30.5513 40.2808 30.5136L41.1271 30.2862C41.2673 30.2486 41.3504 30.1044 41.3127 29.9643L41.0853 29.118C41.0477 28.9779 40.9035 28.8948 40.7634 28.9325Z" fill="#86B7FE"/>
<path d="M42.3664 28.5023L41.5201 28.7297C41.38 28.7673 41.2969 28.9115 41.3345 29.0516L41.5619 29.8979C41.5996 30.038 41.7437 30.1211 41.8839 30.0835L42.7302 29.8561C42.8703 29.8184 42.9534 29.6743 42.9157 29.5341L42.6883 28.6878C42.6507 28.5477 42.5065 28.4646 42.3664 28.5023Z" fill="#86B7FE"/>
<path d="M36.4057 32.0545L35.5594 32.2819C35.4193 32.3196 35.3362 32.4637 35.3738 32.6039L35.6012 33.4501C35.6389 33.5903 35.783 33.6734 35.9232 33.6357L36.7695 33.4083C36.9096 33.3707 36.9927 33.2265 36.955 33.0864L36.7276 32.2401C36.69 32.0999 36.5458 32.0169 36.4057 32.0545Z" fill="#181818"/>
<path d="M38.0168 31.6209L37.1705 31.8483C37.0304 31.886 36.9473 32.0301 36.9849 32.1703L37.2123 33.0165C37.25 33.1567 37.3941 33.2398 37.5343 33.2021L38.3805 32.9747C38.5207 32.9371 38.6038 32.7929 38.5661 32.6528L38.3387 31.8065C38.3011 31.6664 38.1569 31.5833 38.0168 31.6209Z" fill="#181818"/>
<path d="M39.6401 31.1844L38.7938 31.4118C38.6536 31.4495 38.5706 31.5936 38.6082 31.7337L38.8356 32.58C38.8733 32.7202 39.0174 32.8032 39.1576 32.7656L40.0038 32.5382C40.144 32.5005 40.2271 32.3564 40.1894 32.2163L39.962 31.37C39.9244 31.2298 39.7802 31.1467 39.6401 31.1844Z" fill="#181818"/>
<path d="M41.2514 30.7508L40.4051 30.9782C40.265 31.0159 40.1819 31.16 40.2196 31.3001L40.4469 32.1464C40.4846 32.2866 40.6287 32.3697 40.7689 32.332L41.6152 32.1046C41.7553 32.0669 41.8384 31.9228 41.8007 31.7827L41.5733 30.9364C41.5357 30.7962 41.3915 30.7132 41.2514 30.7508Z" fill="#717171"/>
<path d="M42.8547 30.3206L42.0084 30.548C41.8682 30.5857 41.7852 30.7298 41.8228 30.87L42.0502 31.7162C42.0879 31.8564 42.232 31.9395 42.3722 31.9018L43.2184 31.6744C43.3586 31.6368 43.4417 31.4926 43.404 31.3525L43.1766 30.5062C43.139 30.3661 42.9948 30.283 42.8547 30.3206Z" fill="#717171"/>
<path d="M52.8087 48.9413H28.5903V35.9519C28.5903 32.1327 31.6869 29.0361 35.5061 29.0361H45.8916C49.7108 29.0361 52.8074 32.1327 52.8074 35.9519V48.9413H52.8087Z" fill="#00007E"/>
<path d="M52.2005 48.4709H29.1987V36.1344C29.1987 32.507 32.1403 29.5654 35.7677 29.5654H45.6316C49.259 29.5654 52.2005 32.507 52.2005 36.1344V48.4709Z" fill="#86B7FE"/>
<path d="M56.624 43.4826V52.8105C56.624 53.9798 56.3126 55.0808 55.7621 56.0319C54.6428 57.9908 52.5263 59.319 50.1168 59.319H31.5792C29.3786 59.319 27.4237 58.2102 26.2452 56.5246C25.5069 55.4696 25.072 54.1887 25.072 52.8105V43.4826C25.072 42.1321 25.4911 40.8695 26.2032 39.8264C26.2728 39.7226 26.3451 39.6227 26.4226 39.5268C26.5422 39.3731 26.6683 39.2233 26.8036 39.0801C26.8575 39.0144 26.9153 38.9566 26.977 38.8949C26.977 38.8949 26.9796 38.8923 26.9849 38.887C27.1807 38.6873 27.3922 38.5021 27.6155 38.3326C28.7125 37.4826 30.0894 36.9741 31.5792 36.9741H50.1168C51.7827 36.9741 53.3067 37.6047 54.4575 38.6479C54.715 38.8791 54.9542 39.1287 55.1696 39.3981C55.2235 39.4559 55.2695 39.5176 55.3154 39.5794C55.481 39.7988 55.6308 40.03 55.7661 40.2678C55.7818 40.2875 55.7937 40.3059 55.8042 40.3295C56.3271 41.265 56.624 42.3383 56.624 43.4813V43.4826Z" fill="#CFE2FF"/>
<path d="M49.0159 39.9312H32.7959C30.9957 39.9312 29.5364 41.3905 29.5364 43.1907V51.5056C29.5364 53.3058 30.9957 54.7651 32.7959 54.7651H49.0159C50.8161 54.7651 52.2754 53.3058 52.2754 51.5056V43.1907C52.2754 41.3905 50.8161 39.9312 49.0159 39.9312Z" fill="black"/>
<path d="M49.0158 39.4478H32.7971C30.9972 39.4478 29.5376 40.9087 29.5376 42.7073V42.9937C29.5376 41.1938 30.9985 39.7342 32.7971 39.7342H49.0158C50.8157 39.7342 52.2753 41.1951 52.2753 42.9937V42.7073C52.2753 40.9074 50.8144 39.4478 49.0158 39.4478Z" fill="black"/>
<path d="M49.0158 39.7432H32.7971C30.9972 39.7432 29.5376 41.2041 29.5376 43.0027V43.2891C29.5376 41.4892 30.9985 40.0296 32.7971 40.0296H49.0158C50.8157 40.0296 52.2753 41.4905 52.2753 43.2891V43.0027C52.2753 41.2028 50.8144 39.7432 49.0158 39.7432Z" fill="#370400"/>
<path d="M41.2711 32.6492L37.5845 48.2085L47.9088 50.6548L51.5954 35.0954L41.2711 32.6492Z" fill="#0022B0"/>
<path d="M41.1815 34.3855L38.0613 47.5542L47.7783 49.8566L50.8986 36.6879L41.1815 34.3855Z" fill="white"/>
<path opacity="0.3" d="M40.006 31.8635L30.548 34.3019C30.4048 34.3387 30.3194 34.4845 30.3562 34.6264L33.8417 48.1427C33.8785 48.2859 34.0243 48.3713 34.1662 48.3345L43.6242 45.8961C43.7674 45.8593 43.8527 45.7135 43.816 45.5716L40.3305 32.0553C40.2937 31.9121 40.1479 31.8267 40.006 31.8635ZM34.3527 47.8642C34.2398 47.8931 34.1241 47.8247 34.0939 47.7118C34.065 47.5988 34.1333 47.4832 34.2463 47.4529C34.3593 47.4227 34.4749 47.4924 34.5051 47.6053C34.534 47.7183 34.4657 47.8339 34.3527 47.8642ZM34.1688 47.1521C34.0558 47.181 33.9402 47.1127 33.91 46.9997C33.8811 46.8867 33.9494 46.7711 34.0624 46.7409C34.1754 46.712 34.291 46.7803 34.3212 46.8933C34.3501 47.0063 34.2818 47.1219 34.1688 47.1521ZM33.9849 46.44C33.8719 46.4689 33.7563 46.4006 33.7261 46.2876C33.6972 46.1746 33.7655 46.059 33.8785 46.0288C33.9915 45.9999 34.1071 46.0682 34.1373 46.1812C34.1662 46.2942 34.0979 46.4098 33.9849 46.44ZM33.801 45.7279C33.688 45.7568 33.5724 45.6885 33.5421 45.5755C33.5132 45.4626 33.5815 45.3469 33.6945 45.3167C33.8075 45.2878 33.9231 45.3561 33.9534 45.4691C33.9823 45.5821 33.9139 45.6977 33.801 45.7279ZM33.617 45.0159C33.504 45.0448 33.3884 44.9764 33.3582 44.8635C33.3293 44.7505 33.3976 44.6349 33.5106 44.6046C33.6236 44.5757 33.7392 44.6441 33.7694 44.757C33.7983 44.87 33.73 44.9856 33.617 45.0159ZM33.4331 44.3038C33.3201 44.3327 33.2045 44.2644 33.1743 44.1514C33.1454 44.0384 33.2137 43.9228 33.3267 43.8926C33.4397 43.8637 33.5553 43.932 33.5855 44.045C33.6144 44.158 33.5461 44.2736 33.4331 44.3038ZM33.2492 43.5917C33.1362 43.6206 33.0206 43.5523 32.9903 43.4393C32.9601 43.3263 33.0298 43.2107 33.1427 43.1805C33.2557 43.1516 33.3713 43.2199 33.4016 43.3329C33.4305 43.4459 33.3621 43.5615 33.2492 43.5917ZM33.0652 42.8796C32.9522 42.9085 32.8366 42.8402 32.8064 42.7272C32.7775 42.6143 32.8458 42.4986 32.9588 42.4684C33.0718 42.4395 33.1874 42.5078 33.2176 42.6208C33.2465 42.7338 33.1782 42.8494 33.0652 42.8796ZM32.8813 42.1676C32.7683 42.1965 32.6527 42.1282 32.6225 42.0152C32.5936 41.9022 32.6619 41.7866 32.7749 41.7564C32.8879 41.7274 33.0035 41.7958 33.0337 41.9088C33.0626 42.0217 32.9943 42.1374 32.8813 42.1676ZM32.6974 41.4555C32.5844 41.4844 32.4688 41.4161 32.4386 41.3031C32.4096 41.1901 32.478 41.0745 32.591 41.0443C32.7039 41.0154 32.8196 41.0837 32.8498 41.1967C32.8787 41.3097 32.8104 41.4253 32.6974 41.4555ZM32.5134 40.7434C32.4005 40.7723 32.2848 40.704 32.2546 40.591C32.2257 40.478 32.294 40.3624 32.407 40.3322C32.52 40.3033 32.6356 40.3716 32.6658 40.4846C32.6947 40.5976 32.6264 40.7132 32.5134 40.7434ZM32.3295 40.0313C32.2165 40.0603 32.1009 39.9919 32.0707 39.8789C32.0418 39.766 32.1101 39.6503 32.2231 39.6201C32.3361 39.5912 32.4517 39.6595 32.4819 39.7725C32.5108 39.8855 32.4425 40.0011 32.3295 40.0313ZM32.1456 39.3193C32.0326 39.3482 31.917 39.2799 31.8868 39.1669C31.8579 39.0539 31.9262 38.9383 32.0392 38.9081C32.1521 38.8792 32.2678 38.9475 32.298 39.0605C32.3269 39.1734 32.2586 39.2891 32.1456 39.3193ZM31.9616 38.6072C31.8487 38.6361 31.733 38.5678 31.7028 38.4548C31.6739 38.3418 31.7422 38.2262 31.8552 38.196C31.9682 38.1671 32.0838 38.2354 32.114 38.3484C32.143 38.4614 32.0746 38.577 31.9616 38.6072ZM31.7777 37.8951C31.6647 37.924 31.5491 37.8557 31.5189 37.7427C31.49 37.6297 31.5583 37.5141 31.6713 37.4839C31.7843 37.455 31.8999 37.5233 31.9301 37.6363C31.9603 37.7493 31.8907 37.8649 31.7777 37.8951ZM31.5938 37.1831C31.4808 37.212 31.3652 37.1436 31.335 37.0307C31.3061 36.9177 31.3744 36.8021 31.4874 36.7718C31.6004 36.7429 31.716 36.8113 31.7462 36.9242C31.7751 37.0372 31.7068 37.1528 31.5938 37.1831ZM31.4099 36.471C31.2969 36.4999 31.1813 36.4316 31.151 36.3186C31.1221 36.2056 31.1905 36.09 31.3034 36.0598C31.4164 36.0309 31.532 36.0992 31.5623 36.2122C31.5912 36.3251 31.5228 36.4408 31.4099 36.471ZM31.2259 35.7589C31.1129 35.7878 30.9973 35.7195 30.9671 35.6065C30.9382 35.4935 31.0065 35.3779 31.1195 35.3477C31.2325 35.3188 31.3481 35.3871 31.3783 35.5001C31.4072 35.6131 31.3389 35.7287 31.2259 35.7589ZM31.042 35.0468C30.929 35.0757 30.8134 35.0074 30.7832 34.8944C30.7543 34.7814 30.8226 34.6658 30.9356 34.6356C31.0486 34.6067 31.1642 34.675 31.1944 34.788C31.2233 34.901 31.155 35.0166 31.042 35.0468Z" fill="#0022B0"/>
<path d="M38.3125 31.4719L29.1081 34.7406C28.9688 34.7905 28.8965 34.9429 28.9465 35.0808L33.617 48.2345C33.6669 48.3738 33.8193 48.446 33.9573 48.3961L43.1617 45.1274C43.3009 45.0775 43.3732 44.9251 43.3233 44.7871L38.6527 31.6335C38.6028 31.4942 38.4504 31.4219 38.3125 31.4719ZM34.1018 47.91C33.9914 47.9494 33.8706 47.8916 33.8311 47.7812C33.7917 47.6709 33.8495 47.55 33.9599 47.5106C34.0702 47.4712 34.1911 47.529 34.2305 47.6393C34.2699 47.7497 34.2121 47.8706 34.1018 47.91ZM33.8561 47.2176C33.7457 47.257 33.6249 47.1992 33.5855 47.0889C33.546 46.9785 33.6039 46.8576 33.7142 46.8182C33.8246 46.7788 33.9454 46.8366 33.9849 46.947C34.0243 47.0573 33.9665 47.1782 33.8561 47.2176ZM33.6104 46.5253C33.5001 46.5647 33.3792 46.5069 33.3398 46.3965C33.3004 46.2861 33.3582 46.1653 33.4685 46.1259C33.5789 46.0865 33.6998 46.1443 33.7392 46.2546C33.7786 46.365 33.7208 46.4858 33.6104 46.5253ZM33.3647 45.8329C33.2544 45.8723 33.1335 45.8145 33.0941 45.7041C33.0547 45.5938 33.1125 45.4729 33.2229 45.4335C33.3332 45.3941 33.4541 45.4519 33.4935 45.5622C33.5329 45.6726 33.4751 45.7935 33.3647 45.8329ZM33.1191 45.1405C33.0087 45.1799 32.8878 45.1221 32.8484 45.0118C32.809 44.9014 32.8668 44.7805 32.9772 44.7411C33.0875 44.7017 33.2084 44.7595 33.2478 44.8699C33.2872 44.9802 33.2294 45.1011 33.1191 45.1405ZM32.8734 44.4482C32.763 44.4876 32.6422 44.4298 32.6027 44.3194C32.5633 44.209 32.6211 44.0882 32.7315 44.0488C32.8419 44.0094 32.9627 44.0672 33.0021 44.1775C33.0416 44.2879 32.9837 44.4087 32.8734 44.4482ZM32.6277 43.7558C32.5173 43.7952 32.3965 43.7374 32.3571 43.627C32.3177 43.5167 32.3755 43.3958 32.4858 43.3564C32.5962 43.317 32.717 43.3748 32.7565 43.4851C32.7959 43.5955 32.7381 43.7164 32.6277 43.7558ZM32.382 43.0634C32.2717 43.1028 32.1508 43.045 32.1114 42.9347C32.072 42.8243 32.1298 42.7034 32.2401 42.664C32.3505 42.6246 32.4714 42.6824 32.5108 42.7928C32.5502 42.9031 32.4924 43.024 32.382 43.0634ZM32.1363 42.3711C32.026 42.4105 31.9051 42.3527 31.8657 42.2423C31.8263 42.1319 31.8841 42.0111 31.9945 41.9717C32.1048 41.9322 32.2257 41.9901 32.2651 42.1004C32.3045 42.2108 32.2467 42.3316 32.1363 42.3711ZM31.8907 41.6787C31.7803 41.7181 31.6594 41.6603 31.62 41.5499C31.5806 41.4396 31.6384 41.3187 31.7488 41.2793C31.8591 41.2399 31.98 41.2977 32.0194 41.408C32.0588 41.5184 32.001 41.6393 31.8907 41.6787ZM31.645 40.9863C31.5346 41.0257 31.4138 40.9679 31.3744 40.8576C31.3349 40.7472 31.3927 40.6263 31.5031 40.5869C31.6135 40.5475 31.7343 40.6053 31.7737 40.7157C31.8132 40.826 31.7554 40.9469 31.645 40.9863ZM31.3993 40.294C31.289 40.3334 31.1681 40.2756 31.1287 40.1652C31.0893 40.0548 31.1471 39.934 31.2574 39.8946C31.3678 39.8551 31.4887 39.913 31.5281 40.0233C31.5675 40.1337 31.5097 40.2545 31.3993 40.294ZM31.1536 39.6016C31.0433 39.641 30.9224 39.5832 30.883 39.4728C30.8436 39.3625 30.9014 39.2416 31.0117 39.2022C31.1221 39.1628 31.243 39.2206 31.2824 39.3309C31.3218 39.4413 31.264 39.5622 31.1536 39.6016ZM30.908 38.9092C30.7976 38.9486 30.6767 38.8908 30.6373 38.7805C30.5979 38.6701 30.6557 38.5492 30.7661 38.5098C30.8764 38.4704 30.9973 38.5282 31.0367 38.6386C31.0761 38.7489 31.0183 38.8698 30.908 38.9092ZM30.6623 38.2169C30.5519 38.2563 30.4311 38.1985 30.3916 38.0881C30.3522 37.9777 30.41 37.8569 30.5204 37.8175C30.6307 37.778 30.7516 37.8359 30.791 37.9462C30.8304 38.0566 30.7726 38.1774 30.6623 38.2169ZM30.4166 37.5245C30.3062 37.5639 30.1854 37.5061 30.146 37.3957C30.1065 37.2854 30.1644 37.1645 30.2747 37.1251C30.3851 37.0857 30.5059 37.1435 30.5454 37.2538C30.5848 37.3642 30.527 37.4851 30.4166 37.5245ZM30.1709 36.8321C30.0606 36.8715 29.9397 36.8137 29.9003 36.7034C29.8609 36.593 29.9187 36.4721 30.029 36.4327C30.1394 36.3933 30.2603 36.4511 30.2997 36.5615C30.3391 36.6718 30.2813 36.7927 30.1709 36.8321ZM29.9252 36.1398C29.8149 36.1792 29.694 36.1214 29.6546 36.011C29.6152 35.9006 29.673 35.7798 29.7834 35.7404C29.8937 35.7009 30.0146 35.7588 30.054 35.8691C30.0934 35.9795 30.0356 36.1003 29.9252 36.1398ZM29.6796 35.4474C29.5692 35.4868 29.4483 35.429 29.4089 35.3186C29.3695 35.2083 29.4273 35.0874 29.5377 35.048C29.648 35.0086 29.7689 35.0664 29.8083 35.1767C29.8477 35.2871 29.7899 35.408 29.6796 35.4474Z" fill="#569AFE"/>
<path d="M29.5507 35.2518C29.5665 35.2965 29.5349 35.3491 29.4798 35.3688L29.0935 35.5067C29.0383 35.5264 28.9805 35.5067 28.9648 35.4607C28.949 35.4161 28.9805 35.3635 29.0357 35.3438L29.422 35.2059C29.4771 35.1861 29.5349 35.2059 29.5507 35.2518Z" fill="#0022B0"/>
<path d="M29.7987 35.9511C29.8145 35.9957 29.783 36.0483 29.7278 36.068L29.3416 36.2059C29.2864 36.2256 29.2286 36.2059 29.2128 36.1599C29.197 36.1153 29.2286 36.0627 29.2837 36.043L29.67 35.9051C29.7252 35.8854 29.783 35.9051 29.7987 35.9511Z" fill="#0022B0"/>
<path d="M30.0434 36.642C30.0591 36.6866 30.0276 36.7392 29.9724 36.7589L29.5862 36.8968C29.531 36.9166 29.4732 36.8968 29.4574 36.8509C29.4417 36.8062 29.4732 36.7536 29.5284 36.7339L29.9146 36.596C29.9698 36.5763 30.0276 36.596 30.0434 36.642Z" fill="#0022B0"/>
<path d="M30.289 37.3314C30.3047 37.3761 30.2732 37.4286 30.218 37.4484L29.8318 37.5863C29.7766 37.606 29.7188 37.5863 29.703 37.5403C29.6873 37.4956 29.7188 37.4431 29.774 37.4234L30.1602 37.2854C30.2154 37.2657 30.2732 37.2854 30.289 37.3314Z" fill="#0022B0"/>
<path d="M30.5307 38.0136C30.5464 38.0582 30.5149 38.1108 30.4597 38.1305L30.0735 38.2684C30.0183 38.2881 29.9605 38.2684 29.9447 38.2224C29.929 38.1778 29.9605 38.1252 30.0157 38.1055L30.4019 37.9676C30.4571 37.9479 30.5149 37.9676 30.5307 38.0136Z" fill="#0022B0"/>
<path d="M30.779 38.7137C30.7947 38.7584 30.7632 38.811 30.708 38.8307L30.3218 38.9686C30.2666 38.9883 30.2088 38.9686 30.193 38.9226C30.1773 38.878 30.2088 38.8254 30.264 38.8057L30.6502 38.6678C30.7054 38.6481 30.7632 38.6678 30.779 38.7137Z" fill="#0022B0"/>
<path d="M31.0246 39.4037C31.0403 39.4484 31.0088 39.5009 30.9536 39.5206L30.5674 39.6586C30.5122 39.6783 30.4544 39.6586 30.4386 39.6126C30.4229 39.5679 30.4544 39.5154 30.5096 39.4957L30.8958 39.3577C30.951 39.338 31.0088 39.3577 31.0246 39.4037Z" fill="#0022B0"/>
<path d="M31.269 40.0931C31.2847 40.1378 31.2532 40.1904 31.198 40.2101L30.8118 40.348C30.7566 40.3677 30.6988 40.348 30.683 40.302C30.6672 40.2574 30.6988 40.2048 30.754 40.1851L31.1402 40.0472C31.1954 40.0275 31.2532 40.0472 31.269 40.0931Z" fill="#0022B0"/>
<path d="M31.516 40.788C31.5318 40.8326 31.5003 40.8852 31.4451 40.9049L31.0588 41.0428C31.0037 41.0625 30.9458 41.0428 30.9301 40.9969C30.9143 40.9522 30.9458 40.8996 31.001 40.8799L31.3873 40.742C31.4425 40.7223 31.5003 40.742 31.516 40.788Z" fill="#0022B0"/>
<path d="M31.7643 41.4872C31.7801 41.5319 31.7486 41.5844 31.6934 41.6041L31.3071 41.7421C31.2519 41.7618 31.1941 41.7421 31.1784 41.6961C31.1626 41.6514 31.1941 41.5989 31.2493 41.5792L31.6356 41.4412C31.6908 41.4215 31.7486 41.4412 31.7643 41.4872Z" fill="#0022B0"/>
<path d="M32.0099 42.1781C32.0257 42.2228 31.9942 42.2753 31.939 42.295L31.5527 42.433C31.4976 42.4527 31.4397 42.433 31.424 42.387C31.4082 42.3423 31.4397 42.2898 31.4949 42.2701L31.8812 42.1321C31.9364 42.1124 31.9942 42.1321 32.0099 42.1781Z" fill="#0022B0"/>
<path d="M32.2546 42.8676C32.2703 42.9122 32.2388 42.9648 32.1836 42.9845L31.7974 43.1224C31.7422 43.1421 31.6844 43.1224 31.6686 43.0764C31.6528 43.0318 31.6844 42.9792 31.7396 42.9595L32.1258 42.8216C32.181 42.8019 32.2388 42.8216 32.2546 42.8676Z" fill="#0022B0"/>
<path d="M32.5131 43.5956C32.5289 43.6403 32.4973 43.6928 32.4422 43.7125L32.0559 43.8505C32.0007 43.8702 31.9429 43.8505 31.9272 43.8045C31.9114 43.7598 31.9429 43.7073 31.9981 43.6875L32.3844 43.5496C32.4395 43.5299 32.4973 43.5496 32.5131 43.5956Z" fill="#0022B0"/>
<path d="M32.7602 44.2894C32.7759 44.3341 32.7444 44.3867 32.6892 44.4064L32.303 44.5443C32.2478 44.564 32.19 44.5443 32.1742 44.4983C32.1585 44.4537 32.19 44.4011 32.2452 44.3814L32.6314 44.2434C32.6866 44.2237 32.7444 44.2434 32.7602 44.2894Z" fill="#0022B0"/>
<path d="M33.0085 44.9896C33.0242 45.0343 32.9927 45.0868 32.9375 45.1066L32.5513 45.2445C32.4961 45.2642 32.4383 45.2445 32.4225 45.1985C32.4067 45.1539 32.4383 45.1013 32.4935 45.0816L32.8797 44.9436C32.9349 44.9239 32.9927 44.9436 33.0085 44.9896Z" fill="#0022B0"/>
<path d="M33.2528 45.6796C33.2686 45.7242 33.2371 45.7768 33.1819 45.7965L32.7957 45.9344C32.7405 45.9542 32.6827 45.9344 32.6669 45.8885C32.6511 45.8438 32.6827 45.7912 32.7378 45.7715L33.1241 45.6336C33.1793 45.6139 33.2371 45.6336 33.2528 45.6796Z" fill="#0022B0"/>
<path d="M33.4985 46.369C33.5142 46.4137 33.4827 46.4662 33.4275 46.4859L33.0413 46.6239C32.9861 46.6436 32.9283 46.6239 32.9125 46.5779C32.8967 46.5332 32.9283 46.4807 32.9834 46.461L33.3697 46.323C33.4249 46.3033 33.4827 46.323 33.4985 46.369Z" fill="#0022B0"/>
<path d="M33.7428 47.0604C33.7586 47.1051 33.7271 47.1577 33.6719 47.1774L33.2856 47.3153C33.2305 47.335 33.1727 47.3153 33.1569 47.2693C33.1411 47.2247 33.1727 47.1721 33.2278 47.1524L33.6141 47.0144C33.6693 46.9947 33.7271 47.0144 33.7428 47.0604Z" fill="#0022B0"/>
<path d="M33.9884 47.7499C34.0042 47.7946 33.9727 47.8471 33.9175 47.8668L33.5312 48.0048C33.4761 48.0245 33.4183 48.0048 33.4025 47.9588C33.3867 47.9141 33.4183 47.8616 33.4734 47.8418L33.8597 47.7039C33.9149 47.6842 33.9727 47.7039 33.9884 47.7499Z" fill="#0022B0"/>
<path d="M33.0414 41.0415H48.7714C50.5161 41.0415 51.9337 42.4578 51.9337 44.2038V52.2665C51.9337 54.0112 50.5175 55.4288 48.7714 55.4288H33.0414C31.2967 55.4288 29.8792 54.0125 29.8792 52.2665V44.2038C29.8792 42.4591 31.2954 41.0415 33.0414 41.0415Z" fill="#0054E4"/>
<path d="M48.7715 55.7428H33.0415C31.1247 55.7428 29.5652 54.1834 29.5652 52.2665V44.2038C29.5652 42.287 31.1247 40.7275 33.0415 40.7275H48.7715C50.6883 40.7275 52.2478 42.287 52.2478 44.2038V52.2665C52.2478 54.1834 50.6883 55.7428 48.7715 55.7428ZM33.0415 41.3568C31.4715 41.3568 30.1945 42.6338 30.1945 44.2038V52.2665C30.1945 53.8365 31.4715 55.1135 33.0415 55.1135H48.7715C50.3414 55.1135 51.6184 53.8365 51.6184 52.2665V44.2038C51.6184 42.6338 50.3414 41.3568 48.7715 41.3568H33.0415Z" fill="#86B7FE"/>
<path d="M51.5712 45.5122H30.2129V46.1349H51.5712V45.5122Z" fill="#E7F0FF"/>
<path d="M50.8209 45.896H50.6541V46.6475H50.8209V45.896Z" fill="#569AFE"/>
<path d="M50.9588 46.415H50.5082C50.3348 46.415 50.1929 46.5569 50.1929 46.7343V48.5158C50.1929 48.8127 50.432 49.0505 50.7276 49.0505H50.7394C51.0363 49.0505 51.2741 48.8114 51.2741 48.5158V46.7343C51.2741 46.5569 51.1322 46.415 50.9588 46.415ZM50.7355 48.8745C50.5239 48.8745 50.3505 48.705 50.3505 48.4935C50.3505 48.2819 50.5239 48.1125 50.7355 48.1125C50.947 48.1125 51.1165 48.2819 51.1165 48.4935C51.1165 48.705 50.943 48.8745 50.7355 48.8745Z" fill="#569AFE"/>
<path opacity="0.15" d="M55.8041 40.3305C53.9057 37.5637 51.6079 37.0763 50.93 36.9922V37.0263L49.8382 41.1438H41.2434V60.6325H51.0219C53.597 60.6325 55.6872 58.5896 55.7608 56.0303C56.3113 55.0804 56.6226 53.9795 56.6226 52.8102V43.4823C56.6226 42.3393 56.3257 41.2673 55.8028 40.3305H55.8041Z" fill="#000031"/>
</svg>
