<svg width="204" height="70" viewBox="0 0 204 70" fill="none" xmlns="http://www.w3.org/2000/svg">
<path d="M12 2.25C10.0716 2.25 8.18657 2.82183 6.58319 3.89317C4.97982 4.96451 3.73013 6.48726 2.99218 8.26884C2.25422 10.0504 2.06114 12.0108 2.43735 13.9021C2.81355 15.7934 3.74215 17.5307 5.10571 18.8943C6.46928 20.2579 8.20656 21.1865 10.0979 21.5627C11.9892 21.9389 13.9496 21.7458 15.7312 21.0078C17.5127 20.2699 19.0355 19.0202 20.1068 17.4168C21.1782 15.8134 21.75 13.9284 21.75 12C21.7473 9.41498 20.7192 6.93661 18.8913 5.10872C17.0634 3.28084 14.585 2.25273 12 2.25ZM20.25 12C20.2508 13.0584 20.0471 14.107 19.65 15.0881L15.4594 12.5109C15.2812 12.401 15.0819 12.3298 14.8744 12.3019L12.735 12.0131C12.4402 11.9747 12.1406 12.0241 11.8738 12.1552C11.607 12.2863 11.3848 12.4932 11.235 12.75H10.4175L10.0613 12.0131C9.96277 11.8079 9.81863 11.628 9.63988 11.4871C9.46114 11.3462 9.25252 11.2481 9.03 11.2003L8.28 11.0381L9.01313 9.75H10.5797C10.8332 9.7495 11.0825 9.68501 11.3044 9.5625L12.4528 8.92875C12.5537 8.87251 12.648 8.80522 12.7341 8.72812L15.2569 6.44625C15.5098 6.21957 15.6779 5.91345 15.7335 5.57838C15.7891 5.24331 15.7287 4.89931 15.5625 4.60312L15.5288 4.54219C16.9404 5.21156 18.1333 6.26756 18.969 7.58761C19.8047 8.90767 20.2489 10.4377 20.25 12ZM13.4353 3.87563L14.25 5.33438L11.7272 7.61625L10.5797 8.25H9.01313C8.74945 8.24961 8.49033 8.31874 8.26188 8.45041C8.03342 8.58208 7.84372 8.77165 7.71188 9L6.89344 10.4278L5.94188 7.89281L6.9675 5.4675C7.87532 4.76606 8.91965 4.26197 10.0336 3.98752C11.1475 3.71307 12.3065 3.67432 13.4363 3.87375L13.4353 3.87563ZM3.75 12C3.74875 10.7738 4.02233 9.56284 4.55063 8.45625L5.61375 11.2941C5.70235 11.529 5.84852 11.738 6.03885 11.9018C6.22918 12.0656 6.45759 12.179 6.70313 12.2316L8.71219 12.6637L9.06938 13.4062C9.19334 13.6588 9.38545 13.8716 9.62401 14.0207C9.86256 14.1698 10.1381 14.2492 10.4194 14.25H10.5581L9.88032 15.7716C9.76089 16.0395 9.72264 16.3365 9.77029 16.626C9.81795 16.9154 9.94942 17.1845 10.1484 17.4L10.1616 17.4131L12 19.3069L11.8181 20.2444C9.66359 20.1942 7.61396 19.3041 6.10662 17.7638C4.59927 16.2235 3.75358 14.1551 3.75 12ZM13.3669 20.1356L13.4728 19.5909C13.5164 19.3595 13.5051 19.1211 13.44 18.8949C13.3749 18.6686 13.2577 18.4607 13.0978 18.2878C13.0932 18.2837 13.0888 18.2793 13.0847 18.2747L11.25 16.3819L12.5344 13.5L14.6738 13.7887L18.96 16.425C18.339 17.4002 17.5204 18.2343 16.557 18.8735C15.5936 19.5127 14.5068 19.9426 13.3669 20.1356Z" fill="#344054"/>
<path d="M40.976 10.192C40.976 10.7573 40.8427 11.2907 40.576 11.792C40.3093 12.2933 39.8827 12.704 39.296 13.024C38.7093 13.3333 37.9573 13.488 37.04 13.488H35.024V18H33.2V6.88H37.04C37.8933 6.88 38.6133 7.02933 39.2 7.328C39.7973 7.616 40.24 8.01067 40.528 8.512C40.8267 9.01333 40.976 9.57333 40.976 10.192ZM37.04 12C37.7333 12 38.2507 11.8453 38.592 11.536C38.9333 11.216 39.104 10.768 39.104 10.192C39.104 8.976 38.416 8.368 37.04 8.368H35.024V12H37.04ZM50.0596 9.184V18H48.2356V16.96C47.9476 17.3227 47.569 17.6107 47.0996 17.824C46.641 18.0267 46.1503 18.128 45.6276 18.128C44.9343 18.128 44.3103 17.984 43.7556 17.696C43.2116 17.408 42.7796 16.9813 42.4596 16.416C42.1503 15.8507 41.9956 15.168 41.9956 14.368V9.184H43.8036V14.096C43.8036 14.8853 44.001 15.4933 44.3956 15.92C44.7903 16.336 45.329 16.544 46.0116 16.544C46.6943 16.544 47.233 16.336 47.6276 15.92C48.033 15.4933 48.2356 14.8853 48.2356 14.096V9.184H50.0596ZM53.6502 10.496C53.9596 10.0693 54.3809 9.72267 54.9142 9.456C55.4582 9.17867 56.0609 9.04 56.7222 9.04C57.5009 9.04 58.2049 9.22667 58.8342 9.6C59.4636 9.97333 59.9596 10.5067 60.3222 11.2C60.6849 11.8827 60.8663 12.6667 60.8663 13.552C60.8663 14.4373 60.6849 15.232 60.3222 15.936C59.9596 16.6293 59.4582 17.1733 58.8182 17.568C58.1889 17.952 57.4902 18.144 56.7222 18.144C56.0396 18.144 55.4316 18.0107 54.8982 17.744C54.3756 17.4773 53.9596 17.136 53.6502 16.72V18H51.8262V6.16H53.6502V10.496ZM59.0103 13.552C59.0103 12.944 58.8822 12.4213 58.6262 11.984C58.3809 11.536 58.0502 11.2 57.6342 10.976C57.2289 10.7413 56.7916 10.624 56.3222 10.624C55.8636 10.624 55.4262 10.7413 55.0102 10.976C54.6049 11.2107 54.2742 11.552 54.0182 12C53.7729 12.448 53.6502 12.976 53.6502 13.584C53.6502 14.192 53.7729 14.7253 54.0182 15.184C54.2742 15.632 54.6049 15.9733 55.0102 16.208C55.4262 16.4427 55.8636 16.56 56.3222 16.56C56.7916 16.56 57.2289 16.4427 57.6342 16.208C58.0502 15.9627 58.3809 15.6107 58.6262 15.152C58.8822 14.6933 59.0103 14.16 59.0103 13.552ZM63.854 6.16V18H62.03V6.16H63.854ZM66.5367 8.016C66.2061 8.016 65.9287 7.904 65.7047 7.68C65.4807 7.456 65.3687 7.17867 65.3687 6.848C65.3687 6.51733 65.4807 6.24 65.7047 6.016C65.9287 5.792 66.2061 5.68 66.5367 5.68C66.8567 5.68 67.1287 5.792 67.3527 6.016C67.5767 6.24 67.6887 6.51733 67.6887 6.848C67.6887 7.17867 67.5767 7.456 67.3527 7.68C67.1287 7.904 66.8567 8.016 66.5367 8.016ZM67.4327 9.184V18H65.6087V9.184H67.4327ZM68.5795 13.584C68.5795 12.6773 68.7608 11.8827 69.1235 11.2C69.4968 10.5067 70.0088 9.97333 70.6595 9.6C71.3102 9.22667 72.0568 9.04 72.8995 9.04C73.9662 9.04 74.8462 9.296 75.5395 9.808C76.2435 10.3093 76.7182 11.0293 76.9635 11.968H74.9955C74.8355 11.5307 74.5795 11.1893 74.2275 10.944C73.8755 10.6987 73.4328 10.576 72.8995 10.576C72.1528 10.576 71.5555 10.8427 71.1075 11.376C70.6702 11.8987 70.4515 12.6347 70.4515 13.584C70.4515 14.5333 70.6702 15.2747 71.1075 15.808C71.5555 16.3413 72.1528 16.608 72.8995 16.608C73.9555 16.608 74.6542 16.144 74.9955 15.216H76.9635C76.7075 16.112 76.2275 16.8267 75.5235 17.36C74.8195 17.8827 73.9448 18.144 72.8995 18.144C72.0568 18.144 71.3102 17.9573 70.6595 17.584C70.0088 17.2 69.4968 16.6667 69.1235 15.984C68.7608 15.2907 68.5795 14.4907 68.5795 13.584Z" fill="#1D2433"/>
<path d="M34.352 33.278V36.54H37.908V37.59H34.352V40.95H38.328V42H33.078V32.228H38.328V33.278H34.352ZM42.5517 40.824L44.9317 34.328H46.2897L43.2797 42H41.7957L38.7857 34.328H40.1577L42.5517 40.824ZM53.9834 37.87C53.9834 38.1127 53.9694 38.3693 53.9414 38.64H47.8094C47.8561 39.396 48.1127 39.9887 48.5794 40.418C49.0554 40.838 49.6294 41.048 50.3014 41.048C50.8521 41.048 51.3094 40.922 51.6734 40.67C52.0467 40.4087 52.3081 40.0633 52.4574 39.634H53.8294C53.6241 40.3713 53.2134 40.9733 52.5974 41.44C51.9814 41.8973 51.2161 42.126 50.3014 42.126C49.5734 42.126 48.9201 41.9627 48.3414 41.636C47.7721 41.3093 47.3241 40.8473 46.9974 40.25C46.6707 39.6433 46.5074 38.9433 46.5074 38.15C46.5074 37.3567 46.6661 36.6613 46.9834 36.064C47.3007 35.4667 47.7441 35.0093 48.3134 34.692C48.8921 34.3653 49.5547 34.202 50.3014 34.202C51.0294 34.202 51.6734 34.3607 52.2334 34.678C52.7934 34.9953 53.2227 35.434 53.5214 35.994C53.8294 36.5447 53.9834 37.17 53.9834 37.87ZM52.6674 37.604C52.6674 37.1187 52.5601 36.7033 52.3454 36.358C52.1307 36.0033 51.8367 35.7373 51.4634 35.56C51.0994 35.3733 50.6934 35.28 50.2454 35.28C49.6014 35.28 49.0507 35.4853 48.5934 35.896C48.1454 36.3067 47.8887 36.876 47.8234 37.604H52.6674ZM56.379 35.574C56.603 35.1353 56.9204 34.7947 57.331 34.552C57.751 34.3093 58.2597 34.188 58.857 34.188V35.504H58.521C57.093 35.504 56.379 36.2787 56.379 37.828V42H55.105V34.328H56.379V35.574ZM66.3757 34.328L61.7557 45.612H60.4397L61.9517 41.916L58.8577 34.328H60.2717L62.6797 40.544L65.0597 34.328H66.3757ZM70.4424 42.126C69.7237 42.126 69.0704 41.9627 68.4824 41.636C67.9037 41.3093 67.4464 40.8473 67.1104 40.25C66.7837 39.6433 66.6204 38.9433 66.6204 38.15C66.6204 37.366 66.7884 36.6753 67.1244 36.078C67.4697 35.4713 67.9364 35.0093 68.5244 34.692C69.1124 34.3653 69.7704 34.202 70.4984 34.202C71.2264 34.202 71.8844 34.3653 72.4724 34.692C73.0604 35.0093 73.5224 35.4667 73.8584 36.064C74.2037 36.6613 74.3764 37.3567 74.3764 38.15C74.3764 38.9433 74.199 39.6433 73.8444 40.25C73.499 40.8473 73.0277 41.3093 72.4304 41.636C71.833 41.9627 71.1704 42.126 70.4424 42.126ZM70.4424 41.006C70.8997 41.006 71.329 40.8987 71.7304 40.684C72.1317 40.4693 72.4537 40.1473 72.6964 39.718C72.9484 39.2887 73.0744 38.766 73.0744 38.15C73.0744 37.534 72.953 37.0113 72.7104 36.582C72.4677 36.1527 72.1504 35.8353 71.7584 35.63C71.3664 35.4153 70.9417 35.308 70.4844 35.308C70.0177 35.308 69.5884 35.4153 69.1964 35.63C68.8137 35.8353 68.5057 36.1527 68.2724 36.582C68.039 37.0113 67.9224 37.534 67.9224 38.15C67.9224 38.7753 68.0344 39.3027 68.2584 39.732C68.4917 40.1613 68.7997 40.4833 69.1824 40.698C69.565 40.9033 69.985 41.006 70.4424 41.006ZM79.2294 34.188C80.1628 34.188 80.9188 34.4727 81.4974 35.042C82.0761 35.602 82.3654 36.414 82.3654 37.478V42H81.1054V37.66C81.1054 36.8947 80.9141 36.3113 80.5314 35.91C80.1488 35.4993 79.6261 35.294 78.9634 35.294C78.2914 35.294 77.7548 35.504 77.3534 35.924C76.9614 36.344 76.7654 36.9553 76.7654 37.758V42H75.4914V34.328H76.7654V35.42C77.0174 35.028 77.3581 34.7247 77.7874 34.51C78.2261 34.2953 78.7068 34.188 79.2294 34.188ZM90.8865 37.87C90.8865 38.1127 90.8725 38.3693 90.8445 38.64H84.7125C84.7592 39.396 85.0159 39.9887 85.4825 40.418C85.9585 40.838 86.5325 41.048 87.2045 41.048C87.7552 41.048 88.2125 40.922 88.5765 40.67C88.9499 40.4087 89.2112 40.0633 89.3605 39.634H90.7325C90.5272 40.3713 90.1165 40.9733 89.5005 41.44C88.8845 41.8973 88.1192 42.126 87.2045 42.126C86.4765 42.126 85.8232 41.9627 85.2445 41.636C84.6752 41.3093 84.2272 40.8473 83.9005 40.25C83.5739 39.6433 83.4105 38.9433 83.4105 38.15C83.4105 37.3567 83.5692 36.6613 83.8865 36.064C84.2039 35.4667 84.6472 35.0093 85.2165 34.692C85.7952 34.3653 86.4579 34.202 87.2045 34.202C87.9325 34.202 88.5765 34.3607 89.1365 34.678C89.6965 34.9953 90.1259 35.434 90.4245 35.994C90.7325 36.5447 90.8865 37.17 90.8865 37.87ZM89.5705 37.604C89.5705 37.1187 89.4632 36.7033 89.2485 36.358C89.0339 36.0033 88.7399 35.7373 88.3665 35.56C88.0025 35.3733 87.5965 35.28 87.1485 35.28C86.5045 35.28 85.9539 35.4853 85.4965 35.896C85.0485 36.3067 84.7919 36.876 84.7265 37.604H89.5705ZM98.5266 42.126C97.8079 42.126 97.1546 41.9627 96.5666 41.636C95.9879 41.3093 95.5306 40.8473 95.1946 40.25C94.8679 39.6433 94.7046 38.9433 94.7046 38.15C94.7046 37.366 94.8726 36.6753 95.2086 36.078C95.5539 35.4713 96.0206 35.0093 96.6086 34.692C97.1966 34.3653 97.8546 34.202 98.5826 34.202C99.3106 34.202 99.9686 34.3653 100.557 34.692C101.145 35.0093 101.607 35.4667 101.943 36.064C102.288 36.6613 102.461 37.3567 102.461 38.15C102.461 38.9433 102.283 39.6433 101.929 40.25C101.583 40.8473 101.112 41.3093 100.515 41.636C99.9172 41.9627 99.2546 42.126 98.5266 42.126ZM98.5266 41.006C98.9839 41.006 99.4132 40.8987 99.8146 40.684C100.216 40.4693 100.538 40.1473 100.781 39.718C101.033 39.2887 101.159 38.766 101.159 38.15C101.159 37.534 101.037 37.0113 100.795 36.582C100.552 36.1527 100.235 35.8353 99.8426 35.63C99.4506 35.4153 99.0259 35.308 98.5686 35.308C98.1019 35.308 97.6726 35.4153 97.2806 35.63C96.8979 35.8353 96.5899 36.1527 96.3566 36.582C96.1232 37.0113 96.0066 37.534 96.0066 38.15C96.0066 38.7753 96.1186 39.3027 96.3426 39.732C96.5759 40.1613 96.8839 40.4833 97.2666 40.698C97.6492 40.9033 98.0692 41.006 98.5266 41.006ZM107.314 34.188C108.247 34.188 109.003 34.4727 109.582 35.042C110.16 35.602 110.45 36.414 110.45 37.478V42H109.19V37.66C109.19 36.8947 108.998 36.3113 108.616 35.91C108.233 35.4993 107.71 35.294 107.048 35.294C106.376 35.294 105.839 35.504 105.438 35.924C105.046 36.344 104.85 36.9553 104.85 37.758V42H103.576V34.328H104.85V35.42C105.102 35.028 105.442 34.7247 105.872 34.51C106.31 34.2953 106.791 34.188 107.314 34.188ZM116.697 35.378V39.9C116.697 40.2733 116.776 40.5393 116.935 40.698C117.094 40.8473 117.369 40.922 117.761 40.922H118.699V42H117.551C116.842 42 116.31 41.8367 115.955 41.51C115.6 41.1833 115.423 40.6467 115.423 39.9V35.378H114.429V34.328H115.423V32.396H116.697V34.328H118.699V35.378H116.697ZM123.491 34.188C124.069 34.188 124.592 34.314 125.059 34.566C125.525 34.8087 125.889 35.1773 126.151 35.672C126.421 36.1667 126.557 36.7687 126.557 37.478V42H125.297V37.66C125.297 36.8947 125.105 36.3113 124.723 35.91C124.34 35.4993 123.817 35.294 123.155 35.294C122.483 35.294 121.946 35.504 121.545 35.924C121.153 36.344 120.957 36.9553 120.957 37.758V42H119.683V31.64H120.957V35.42C121.209 35.028 121.554 34.7247 121.993 34.51C122.441 34.2953 122.94 34.188 123.491 34.188ZM135.078 37.87C135.078 38.1127 135.064 38.3693 135.036 38.64H128.904C128.951 39.396 129.207 39.9887 129.674 40.418C130.15 40.838 130.724 41.048 131.396 41.048C131.947 41.048 132.404 40.922 132.768 40.67C133.141 40.4087 133.403 40.0633 133.552 39.634H134.924C134.719 40.3713 134.308 40.9733 133.692 41.44C133.076 41.8973 132.311 42.126 131.396 42.126C130.668 42.126 130.015 41.9627 129.436 41.636C128.867 41.3093 128.419 40.8473 128.092 40.25C127.765 39.6433 127.602 38.9433 127.602 38.15C127.602 37.3567 127.761 36.6613 128.078 36.064C128.395 35.4667 128.839 35.0093 129.408 34.692C129.987 34.3653 130.649 34.202 131.396 34.202C132.124 34.202 132.768 34.3607 133.328 34.678C133.888 34.9953 134.317 35.434 134.616 35.994C134.924 36.5447 135.078 37.17 135.078 37.87ZM133.762 37.604C133.762 37.1187 133.655 36.7033 133.44 36.358C133.225 36.0033 132.931 35.7373 132.558 35.56C132.194 35.3733 131.788 35.28 131.34 35.28C130.696 35.28 130.145 35.4853 129.688 35.896C129.24 36.3067 128.983 36.876 128.918 37.604H133.762ZM140.646 35.742C140.898 35.3033 141.271 34.9393 141.766 34.65C142.27 34.3513 142.853 34.202 143.516 34.202C144.197 34.202 144.813 34.3653 145.364 34.692C145.924 35.0187 146.363 35.4807 146.68 36.078C146.997 36.666 147.156 37.352 147.156 38.136C147.156 38.9107 146.997 39.6013 146.68 40.208C146.363 40.8147 145.924 41.286 145.364 41.622C144.813 41.958 144.197 42.126 143.516 42.126C142.863 42.126 142.284 41.9813 141.78 41.692C141.285 41.3933 140.907 41.0247 140.646 40.586V45.64H139.372V34.328H140.646V35.742ZM145.854 38.136C145.854 37.5573 145.737 37.0533 145.504 36.624C145.271 36.1947 144.953 35.868 144.552 35.644C144.16 35.42 143.726 35.308 143.25 35.308C142.783 35.308 142.349 35.4247 141.948 35.658C141.556 35.882 141.239 36.2133 140.996 36.652C140.763 37.0813 140.646 37.5807 140.646 38.15C140.646 38.7287 140.763 39.2373 140.996 39.676C141.239 40.1053 141.556 40.4367 141.948 40.67C142.349 40.894 142.783 41.006 143.25 41.006C143.726 41.006 144.16 40.894 144.552 40.67C144.953 40.4367 145.271 40.1053 145.504 39.676C145.737 39.2373 145.854 38.724 145.854 38.136ZM149.547 31.64V42H148.273V31.64H149.547ZM150.682 38.136C150.682 37.352 150.841 36.666 151.158 36.078C151.475 35.4807 151.909 35.0187 152.46 34.692C153.02 34.3653 153.641 34.202 154.322 34.202C154.994 34.202 155.577 34.3467 156.072 34.636C156.567 34.9253 156.935 35.2893 157.178 35.728V34.328H158.466V42H157.178V40.572C156.926 41.02 156.548 41.3933 156.044 41.692C155.549 41.9813 154.971 42.126 154.308 42.126C153.627 42.126 153.011 41.958 152.46 41.622C151.909 41.286 151.475 40.8147 151.158 40.208C150.841 39.6013 150.682 38.9107 150.682 38.136ZM157.178 38.15C157.178 37.5713 157.061 37.0673 156.828 36.638C156.595 36.2087 156.277 35.882 155.876 35.658C155.484 35.4247 155.05 35.308 154.574 35.308C154.098 35.308 153.664 35.42 153.272 35.644C152.88 35.868 152.567 36.1947 152.334 36.624C152.101 37.0533 151.984 37.5573 151.984 38.136C151.984 38.724 152.101 39.2373 152.334 39.676C152.567 40.1053 152.88 40.4367 153.272 40.67C153.664 40.894 154.098 41.006 154.574 41.006C155.05 41.006 155.484 40.894 155.876 40.67C156.277 40.4367 156.595 40.1053 156.828 39.676C157.061 39.2373 157.178 38.7287 157.178 38.15ZM161.613 35.378V39.9C161.613 40.2733 161.692 40.5393 161.851 40.698C162.01 40.8473 162.285 40.922 162.677 40.922H163.615V42H162.467C161.758 42 161.226 41.8367 160.871 41.51C160.516 41.1833 160.339 40.6467 160.339 39.9V35.378H159.345V34.328H160.339V32.396H161.613V34.328H163.615V35.378H161.613ZM167.721 35.378H166.111V42H164.837V35.378H163.843V34.328H164.837V33.782C164.837 32.9233 165.056 32.298 165.495 31.906C165.943 31.5047 166.657 31.304 167.637 31.304V32.368C167.077 32.368 166.68 32.48 166.447 32.704C166.223 32.9187 166.111 33.278 166.111 33.782V34.328H167.721V35.378ZM171.992 42.126C171.273 42.126 170.62 41.9627 170.032 41.636C169.453 41.3093 168.996 40.8473 168.66 40.25C168.333 39.6433 168.17 38.9433 168.17 38.15C168.17 37.366 168.338 36.6753 168.674 36.078C169.019 35.4713 169.486 35.0093 170.074 34.692C170.662 34.3653 171.32 34.202 172.048 34.202C172.776 34.202 173.434 34.3653 174.022 34.692C174.61 35.0093 175.072 35.4667 175.408 36.064C175.753 36.6613 175.926 37.3567 175.926 38.15C175.926 38.9433 175.749 39.6433 175.394 40.25C175.049 40.8473 174.577 41.3093 173.98 41.636C173.383 41.9627 172.72 42.126 171.992 42.126ZM171.992 41.006C172.449 41.006 172.879 40.8987 173.28 40.684C173.681 40.4693 174.003 40.1473 174.246 39.718C174.498 39.2887 174.624 38.766 174.624 38.15C174.624 37.534 174.503 37.0113 174.26 36.582C174.017 36.1527 173.7 35.8353 173.308 35.63C172.916 35.4153 172.491 35.308 172.034 35.308C171.567 35.308 171.138 35.4153 170.746 35.63C170.363 35.8353 170.055 36.1527 169.822 36.582C169.589 37.0113 169.472 37.534 169.472 38.15C169.472 38.7753 169.584 39.3027 169.808 39.732C170.041 40.1613 170.349 40.4833 170.732 40.698C171.115 40.9033 171.535 41.006 171.992 41.006ZM178.315 35.574C178.539 35.1353 178.857 34.7947 179.267 34.552C179.687 34.3093 180.196 34.188 180.793 34.188V35.504H180.457C179.029 35.504 178.315 36.2787 178.315 37.828V42H177.041V34.328H178.315V35.574ZM190.93 34.188C191.527 34.188 192.059 34.314 192.526 34.566C192.993 34.8087 193.361 35.1773 193.632 35.672C193.903 36.1667 194.038 36.7687 194.038 37.478V42H192.778V37.66C192.778 36.8947 192.587 36.3113 192.204 35.91C191.831 35.4993 191.322 35.294 190.678 35.294C190.015 35.294 189.488 35.5087 189.096 35.938C188.704 36.358 188.508 36.9693 188.508 37.772V42H187.248V37.66C187.248 36.8947 187.057 36.3113 186.674 35.91C186.301 35.4993 185.792 35.294 185.148 35.294C184.485 35.294 183.958 35.5087 183.566 35.938C183.174 36.358 182.978 36.9693 182.978 37.772V42H181.704V34.328H182.978V35.434C183.23 35.0327 183.566 34.7247 183.986 34.51C184.415 34.2953 184.887 34.188 185.4 34.188C186.044 34.188 186.613 34.3327 187.108 34.622C187.603 34.9113 187.971 35.336 188.214 35.896C188.429 35.3547 188.783 34.9347 189.278 34.636C189.773 34.3373 190.323 34.188 190.93 34.188ZM32.602 60.15C32.602 59.3567 32.7607 58.666 33.078 58.078C33.3953 57.4807 33.834 57.0187 34.394 56.692C34.9633 56.3653 35.612 56.202 36.34 56.202C37.2827 56.202 38.0573 56.4307 38.664 56.888C39.28 57.3453 39.686 57.98 39.882 58.792H38.51C38.3793 58.3253 38.1227 57.9567 37.74 57.686C37.3667 57.4153 36.9 57.28 36.34 57.28C35.612 57.28 35.024 57.532 34.576 58.036C34.128 58.5307 33.904 59.2353 33.904 60.15C33.904 61.074 34.128 61.788 34.576 62.292C35.024 62.796 35.612 63.048 36.34 63.048C36.9 63.048 37.3667 62.9173 37.74 62.656C38.1133 62.3947 38.37 62.0213 38.51 61.536H39.882C39.6767 62.32 39.266 62.95 38.65 63.426C38.034 63.8927 37.264 64.126 36.34 64.126C35.612 64.126 34.9633 63.9627 34.394 63.636C33.834 63.3093 33.3953 62.8473 33.078 62.25C32.7607 61.6527 32.602 60.9527 32.602 60.15ZM40.5459 60.136C40.5459 59.352 40.7046 58.666 41.0219 58.078C41.3392 57.4807 41.7732 57.0187 42.3239 56.692C42.8839 56.3653 43.5046 56.202 44.1859 56.202C44.8579 56.202 45.4412 56.3467 45.9359 56.636C46.4306 56.9253 46.7992 57.2893 47.0419 57.728V56.328H48.3299V64H47.0419V62.572C46.7899 63.02 46.4119 63.3933 45.9079 63.692C45.4132 63.9813 44.8346 64.126 44.1719 64.126C43.4906 64.126 42.8746 63.958 42.3239 63.622C41.7732 63.286 41.3392 62.8147 41.0219 62.208C40.7046 61.6013 40.5459 60.9107 40.5459 60.136ZM47.0419 60.15C47.0419 59.5713 46.9252 59.0673 46.6919 58.638C46.4586 58.2087 46.1412 57.882 45.7399 57.658C45.3479 57.4247 44.9139 57.308 44.4379 57.308C43.9619 57.308 43.5279 57.42 43.1359 57.644C42.7439 57.868 42.4312 58.1947 42.1979 58.624C41.9646 59.0533 41.8479 59.5573 41.8479 60.136C41.8479 60.724 41.9646 61.2373 42.1979 61.676C42.4312 62.1053 42.7439 62.4367 43.1359 62.67C43.5279 62.894 43.9619 63.006 44.4379 63.006C44.9139 63.006 45.3479 62.894 45.7399 62.67C46.1412 62.4367 46.4586 62.1053 46.6919 61.676C46.9252 61.2373 47.0419 60.7287 47.0419 60.15ZM53.6608 56.188C54.5942 56.188 55.3502 56.4727 55.9288 57.042C56.5075 57.602 56.7968 58.414 56.7968 59.478V64H55.5368V59.66C55.5368 58.8947 55.3455 58.3113 54.9628 57.91C54.5802 57.4993 54.0575 57.294 53.3948 57.294C52.7228 57.294 52.1862 57.504 51.7848 57.924C51.3928 58.344 51.1968 58.9553 51.1968 59.758V64H49.9228V56.328H51.1968V57.42C51.4488 57.028 51.7895 56.7247 52.2188 56.51C52.6575 56.2953 53.1382 56.188 53.6608 56.188ZM64.2063 64.126C63.6183 64.126 63.091 64.028 62.6243 63.832C62.1577 63.6267 61.789 63.3467 61.5183 62.992C61.2477 62.628 61.0983 62.2127 61.0703 61.746H62.3863C62.4237 62.1287 62.601 62.4413 62.9183 62.684C63.245 62.9267 63.6697 63.048 64.1923 63.048C64.6777 63.048 65.0603 62.9407 65.3403 62.726C65.6203 62.5113 65.7603 62.2407 65.7603 61.914C65.7603 61.578 65.611 61.3307 65.3123 61.172C65.0137 61.004 64.5517 60.8407 63.9263 60.682C63.357 60.5327 62.8903 60.3833 62.5263 60.234C62.1717 60.0753 61.8637 59.8467 61.6023 59.548C61.3503 59.24 61.2243 58.8387 61.2243 58.344C61.2243 57.952 61.341 57.5927 61.5743 57.266C61.8077 56.9393 62.139 56.6827 62.5683 56.496C62.9977 56.3 63.4877 56.202 64.0383 56.202C64.8877 56.202 65.5737 56.4167 66.0963 56.846C66.619 57.2753 66.899 57.8633 66.9363 58.61H65.6623C65.6343 58.2087 65.471 57.8867 65.1723 57.644C64.883 57.4013 64.491 57.28 63.9963 57.28C63.539 57.28 63.175 57.378 62.9043 57.574C62.6337 57.77 62.4983 58.0267 62.4983 58.344C62.4983 58.596 62.5777 58.806 62.7363 58.974C62.9043 59.1327 63.1097 59.2633 63.3523 59.366C63.6043 59.4593 63.9497 59.5667 64.3883 59.688C64.939 59.8373 65.387 59.9867 65.7323 60.136C66.0777 60.276 66.3717 60.4907 66.6143 60.78C66.8663 61.0693 66.997 61.4473 67.0063 61.914C67.0063 62.334 66.8897 62.712 66.6563 63.048C66.423 63.384 66.0917 63.65 65.6623 63.846C65.2423 64.0327 64.757 64.126 64.2063 64.126ZM75.2448 59.87C75.2448 60.1127 75.2308 60.3693 75.2028 60.64H69.0708C69.1175 61.396 69.3741 61.9887 69.8408 62.418C70.3168 62.838 70.8908 63.048 71.5628 63.048C72.1135 63.048 72.5708 62.922 72.9348 62.67C73.3081 62.4087 73.5695 62.0633 73.7188 61.634H75.0908C74.8855 62.3713 74.4748 62.9733 73.8588 63.44C73.2428 63.8973 72.4775 64.126 71.5628 64.126C70.8348 64.126 70.1815 63.9627 69.6028 63.636C69.0335 63.3093 68.5855 62.8473 68.2588 62.25C67.9321 61.6433 67.7688 60.9433 67.7688 60.15C67.7688 59.3567 67.9275 58.6613 68.2448 58.064C68.5621 57.4667 69.0055 57.0093 69.5748 56.692C70.1535 56.3653 70.8161 56.202 71.5628 56.202C72.2908 56.202 72.9348 56.3607 73.4948 56.678C74.0548 56.9953 74.4841 57.434 74.7828 57.994C75.0908 58.5447 75.2448 59.17 75.2448 59.87ZM73.9288 59.604C73.9288 59.1187 73.8215 58.7033 73.6068 58.358C73.3921 58.0033 73.0981 57.7373 72.7248 57.56C72.3608 57.3733 71.9548 57.28 71.5068 57.28C70.8628 57.28 70.3121 57.4853 69.8548 57.896C69.4068 58.3067 69.1501 58.876 69.0848 59.604H73.9288ZM83.3664 59.87C83.3664 60.1127 83.3524 60.3693 83.3244 60.64H77.1924C77.2391 61.396 77.4958 61.9887 77.9624 62.418C78.4384 62.838 79.0124 63.048 79.6844 63.048C80.2351 63.048 80.6924 62.922 81.0564 62.67C81.4298 62.4087 81.6911 62.0633 81.8404 61.634H83.2124C83.0071 62.3713 82.5964 62.9733 81.9804 63.44C81.3644 63.8973 80.5991 64.126 79.6844 64.126C78.9564 64.126 78.3031 63.9627 77.7244 63.636C77.1551 63.3093 76.7071 62.8473 76.3804 62.25C76.0538 61.6433 75.8904 60.9433 75.8904 60.15C75.8904 59.3567 76.0491 58.6613 76.3664 58.064C76.6838 57.4667 77.1271 57.0093 77.6964 56.692C78.2751 56.3653 78.9378 56.202 79.6844 56.202C80.4124 56.202 81.0564 56.3607 81.6164 56.678C82.1764 56.9953 82.6058 57.434 82.9044 57.994C83.2124 58.5447 83.3664 59.17 83.3664 59.87ZM82.0504 59.604C82.0504 59.1187 81.9431 58.7033 81.7284 58.358C81.5138 58.0033 81.2198 57.7373 80.8464 57.56C80.4824 57.3733 80.0764 57.28 79.6284 57.28C78.9844 57.28 78.4338 57.4853 77.9764 57.896C77.5284 58.3067 77.2718 58.876 77.2064 59.604H82.0504ZM94.2685 56.328L89.6485 67.612H88.3325L89.8445 63.916L86.7505 56.328H88.1645L90.5725 62.544L92.9525 56.328H94.2685ZM98.3352 64.126C97.6165 64.126 96.9632 63.9627 96.3752 63.636C95.7965 63.3093 95.3392 62.8473 95.0032 62.25C94.6765 61.6433 94.5132 60.9433 94.5132 60.15C94.5132 59.366 94.6812 58.6753 95.0172 58.078C95.3625 57.4713 95.8292 57.0093 96.4172 56.692C97.0052 56.3653 97.6632 56.202 98.3912 56.202C99.1192 56.202 99.7772 56.3653 100.365 56.692C100.953 57.0093 101.415 57.4667 101.751 58.064C102.097 58.6613 102.269 59.3567 102.269 60.15C102.269 60.9433 102.092 61.6433 101.737 62.25C101.392 62.8473 100.921 63.3093 100.323 63.636C99.7258 63.9627 99.0632 64.126 98.3352 64.126ZM98.3352 63.006C98.7925 63.006 99.2218 62.8987 99.6232 62.684C100.025 62.4693 100.347 62.1473 100.589 61.718C100.841 61.2887 100.967 60.766 100.967 60.15C100.967 59.534 100.846 59.0113 100.603 58.582C100.361 58.1527 100.043 57.8353 99.6512 57.63C99.2592 57.4153 98.8345 57.308 98.3772 57.308C97.9105 57.308 97.4812 57.4153 97.0892 57.63C96.7065 57.8353 96.3985 58.1527 96.1652 58.582C95.9318 59.0113 95.8152 59.534 95.8152 60.15C95.8152 60.7753 95.9272 61.3027 96.1512 61.732C96.3845 62.1613 96.6925 62.4833 97.0752 62.698C97.4578 62.9033 97.8778 63.006 98.3352 63.006ZM110.188 56.328V64H108.914V62.866C108.672 63.258 108.331 63.566 107.892 63.79C107.463 64.0047 106.987 64.112 106.464 64.112C105.867 64.112 105.33 63.9907 104.854 63.748C104.378 63.496 104 63.1227 103.72 62.628C103.45 62.1333 103.314 61.5313 103.314 60.822V56.328H104.574V60.654C104.574 61.41 104.766 61.9933 105.148 62.404C105.531 62.8053 106.054 63.006 106.716 63.006C107.398 63.006 107.934 62.796 108.326 62.376C108.718 61.956 108.914 61.3447 108.914 60.542V56.328H110.188ZM113.053 57.574C113.277 57.1353 113.595 56.7947 114.005 56.552C114.425 56.3093 114.934 56.188 115.531 56.188V57.504H115.195C113.767 57.504 113.053 58.2787 113.053 59.828V64H111.779V56.328H113.053V57.574ZM120.888 57.742C121.14 57.3033 121.514 56.9393 122.008 56.65C122.512 56.3513 123.096 56.202 123.758 56.202C124.44 56.202 125.056 56.3653 125.606 56.692C126.166 57.0187 126.605 57.4807 126.922 58.078C127.24 58.666 127.398 59.352 127.398 60.136C127.398 60.9107 127.24 61.6013 126.922 62.208C126.605 62.8147 126.166 63.286 125.606 63.622C125.056 63.958 124.44 64.126 123.758 64.126C123.105 64.126 122.526 63.9813 122.022 63.692C121.528 63.3933 121.15 63.0247 120.888 62.586V67.64H119.614V56.328H120.888V57.742ZM126.096 60.136C126.096 59.5573 125.98 59.0533 125.746 58.624C125.513 58.1947 125.196 57.868 124.794 57.644C124.402 57.42 123.968 57.308 123.492 57.308C123.026 57.308 122.592 57.4247 122.19 57.658C121.798 57.882 121.481 58.2133 121.238 58.652C121.005 59.0813 120.888 59.5807 120.888 60.15C120.888 60.7287 121.005 61.2373 121.238 61.676C121.481 62.1053 121.798 62.4367 122.19 62.67C122.592 62.894 123.026 63.006 123.492 63.006C123.968 63.006 124.402 62.894 124.794 62.67C125.196 62.4367 125.513 62.1053 125.746 61.676C125.98 61.2373 126.096 60.724 126.096 60.136ZM131.861 64.126C131.143 64.126 130.489 63.9627 129.901 63.636C129.323 63.3093 128.865 62.8473 128.529 62.25C128.203 61.6433 128.039 60.9433 128.039 60.15C128.039 59.366 128.207 58.6753 128.543 58.078C128.889 57.4713 129.355 57.0093 129.943 56.692C130.531 56.3653 131.189 56.202 131.917 56.202C132.645 56.202 133.303 56.3653 133.891 56.692C134.479 57.0093 134.941 57.4667 135.277 58.064C135.623 58.6613 135.795 59.3567 135.795 60.15C135.795 60.9433 135.618 61.6433 135.263 62.25C134.918 62.8473 134.447 63.3093 133.849 63.636C133.252 63.9627 132.589 64.126 131.861 64.126ZM131.861 63.006C132.319 63.006 132.748 62.8987 133.149 62.684C133.551 62.4693 133.873 62.1473 134.115 61.718C134.367 61.2887 134.493 60.766 134.493 60.15C134.493 59.534 134.372 59.0113 134.129 58.582C133.887 58.1527 133.569 57.8353 133.177 57.63C132.785 57.4153 132.361 57.308 131.903 57.308C131.437 57.308 131.007 57.4153 130.615 57.63C130.233 57.8353 129.925 58.1527 129.691 58.582C129.458 59.0113 129.341 59.534 129.341 60.15C129.341 60.7753 129.453 61.3027 129.677 61.732C129.911 62.1613 130.219 62.4833 130.601 62.698C130.984 62.9033 131.404 63.006 131.861 63.006ZM139.626 64.126C139.038 64.126 138.511 64.028 138.044 63.832C137.578 63.6267 137.209 63.3467 136.938 62.992C136.668 62.628 136.518 62.2127 136.49 61.746H137.806C137.844 62.1287 138.021 62.4413 138.338 62.684C138.665 62.9267 139.09 63.048 139.612 63.048C140.098 63.048 140.48 62.9407 140.76 62.726C141.04 62.5113 141.18 62.2407 141.18 61.914C141.18 61.578 141.031 61.3307 140.732 61.172C140.434 61.004 139.972 60.8407 139.346 60.682C138.777 60.5327 138.31 60.3833 137.946 60.234C137.592 60.0753 137.284 59.8467 137.022 59.548C136.77 59.24 136.644 58.8387 136.644 58.344C136.644 57.952 136.761 57.5927 136.994 57.266C137.228 56.9393 137.559 56.6827 137.988 56.496C138.418 56.3 138.908 56.202 139.458 56.202C140.308 56.202 140.994 56.4167 141.516 56.846C142.039 57.2753 142.319 57.8633 142.356 58.61H141.082C141.054 58.2087 140.891 57.8867 140.592 57.644C140.303 57.4013 139.911 57.28 139.416 57.28C138.959 57.28 138.595 57.378 138.324 57.574C138.054 57.77 137.918 58.0267 137.918 58.344C137.918 58.596 137.998 58.806 138.156 58.974C138.324 59.1327 138.53 59.2633 138.772 59.366C139.024 59.4593 139.37 59.5667 139.808 59.688C140.359 59.8373 140.807 59.9867 141.152 60.136C141.498 60.276 141.792 60.4907 142.034 60.78C142.286 61.0693 142.417 61.4473 142.426 61.914C142.426 62.334 142.31 62.712 142.076 63.048C141.843 63.384 141.512 63.65 141.082 63.846C140.662 64.0327 140.177 64.126 139.626 64.126ZM145.219 57.378V61.9C145.219 62.2733 145.298 62.5393 145.457 62.698C145.616 62.8473 145.891 62.922 146.283 62.922H147.221V64H146.073C145.364 64 144.832 63.8367 144.477 63.51C144.122 63.1833 143.945 62.6467 143.945 61.9V57.378H142.951V56.328H143.945V54.396H145.219V56.328H147.221V57.378H145.219Z" fill="#676E7E"/>
</svg>
