<svg width="84" height="72" viewBox="0 0 84 72" fill="none" xmlns="http://www.w3.org/2000/svg">
<rect width="83.3684" height="72" rx="2.52632" fill="#0D6EFD"/>
<g style="mix-blend-mode:multiply" opacity="0.3">
<path d="M61.7235 54.9686C61.7235 56.3308 52.893 57.4358 41.9999 57.4358C31.1069 57.4358 22.2764 56.3308 22.2764 54.9686C22.2764 53.6065 31.1069 52.5015 41.9999 52.5015C52.893 52.5015 61.7235 53.6065 61.7235 54.9686Z" fill="#257CFD"/>
</g>
<path d="M39.0028 53.3972C38.8596 53.3972 38.6003 53.3658 38.5857 53.4432C38.4602 53.8007 39.7189 53.7014 39.9342 53.6836C40.2029 53.6659 40.4716 53.6836 40.7225 53.6303C41.0445 53.577 41.1699 53.3261 41.4563 53.254C41.4563 53.3794 41.4386 53.4871 41.4563 53.6115C41.7783 53.6115 42.1902 53.7725 42.2258 53.3428C42.2613 53.0031 42.1536 52.6445 41.7606 52.7877L39.0038 53.3962L39.0028 53.3972Z" fill="#000031"/>
<path d="M38.6924 53.4028C38.8001 53.6537 40.1089 53.4968 40.341 53.4791C40.7529 53.4435 40.7748 53.2899 41.1512 53.1644C41.3299 53.0933 41.5087 53.1111 41.7063 53.1111C41.7962 53.1111 42.1913 53.1132 42.2457 53.0776L42.2258 53.1466C42.2969 52.8069 42.1537 52.4128 42.1359 52.0542C42.1182 51.7322 42.1004 51.3925 42.1359 51.0694C41.8495 51.0517 41.5453 51.0339 41.2588 51.0161C41.2588 51.7144 40.2918 52.1263 39.7556 52.2873C39.4513 52.3772 39.2161 52.4933 38.9496 52.717C38.753 52.8832 38.6924 53.4028 38.6924 53.4028Z" fill="#0022B0"/>
<path d="M47.297 53.3972C47.4403 53.3972 47.6995 53.3658 47.7141 53.4432C47.8396 53.8007 46.5809 53.7014 46.3656 53.6836C46.0969 53.6659 45.8282 53.6836 45.5773 53.6303C45.2554 53.577 45.1299 53.3261 44.8435 53.254C44.8435 53.3794 44.8613 53.4871 44.8435 53.6115C44.5215 53.6115 44.1096 53.7725 44.073 53.3428C44.0375 53.0031 44.1452 52.6445 44.5382 52.7877L47.2949 53.3962L47.297 53.3972Z" fill="#000031"/>
<path d="M47.6075 53.4028C47.4998 53.6537 46.191 53.4968 45.9589 53.4791C45.547 53.4435 45.5251 53.2899 45.1487 53.1644C44.97 53.0933 44.7912 53.1111 44.5936 53.1111C44.5037 53.1111 44.1086 53.1132 44.0542 53.0776L44.0741 53.1466C44.003 52.8069 44.1462 52.4128 44.164 52.0542C44.1817 51.7322 44.1995 51.3925 44.164 51.0694C44.4504 51.0517 44.7546 51.0339 45.0411 51.0161C45.0411 51.7144 46.0081 52.1263 46.5443 52.2873C46.8486 52.3772 47.0838 52.4933 47.3503 52.717C47.5469 52.8832 47.6075 53.4028 47.6075 53.4028Z" fill="#0022B0"/>
<path d="M40.7391 51.0701C40.9179 48.4922 40.7747 45.8431 40.668 43.2296C40.5604 40.4018 40.5604 37.6085 40.4537 34.7797C40.4537 34.4577 40.3816 34.1712 40.3816 33.8848C41.7417 33.706 43.1383 33.7771 44.4984 33.7771C45.1789 33.7771 46.0017 33.9204 46.6111 33.7771C46.6111 37.1789 45.8595 40.4719 45.7518 43.8381C45.7163 45.1626 45.7874 46.4516 45.6797 47.7761C45.6075 48.42 45.6441 48.8863 45.7152 49.5303C45.7508 50.031 45.6075 50.676 45.8229 51.2134C45.3932 51.321 43.9433 51.4099 43.6213 51.0168C43.6213 51.0168 43.5314 48.9584 43.5314 48.4211C43.4958 46.8101 43.4958 45.1992 43.5314 43.5882C43.5669 42.4069 43.5669 41.2612 43.5669 40.0798V38.7553C43.5669 38.3257 43.6276 37.5364 43.4958 36.929C43.1017 38.6121 43.2815 40.5451 43.1739 42.2637C43.0662 43.9468 43.0662 45.6288 42.9951 47.3119C42.9595 48.3145 42.8163 50.0686 42.8874 51.0712C42.8874 51.0712 42.3375 51.1956 41.6925 51.2311C41.2629 51.2311 40.7391 51.0712 40.7391 51.0712V51.0701Z" fill="#0022B0"/>
<path d="M42.5729 17.8514C42.4349 17.6946 42.2185 17.2806 42.0021 17.5368C41.6477 17.91 42.5133 19.0118 42.7893 18.4808L42.5729 17.8514Z" fill="#86B7FE"/>
<path d="M45.0516 18.1861C45.1896 18.0282 45.5827 17.655 45.7395 17.8913C45.9758 18.2258 45.0903 19.4061 44.7756 18.8154L45.0506 18.1861H45.0516Z" fill="#86B7FE"/>
<path d="M39.2881 26.1908C39.4261 25.4831 39.4847 24.7158 39.5244 23.9882C39.5829 22.9846 39.446 21.7855 40.5666 21.3914C41.2158 21.1551 41.9832 20.8603 42.671 20.7819C43.0254 20.7422 43.2606 20.8603 43.5952 20.9199C43.9098 20.9785 44.2245 20.8614 44.559 20.8802C45.3264 21.2733 46.1919 21.5879 46.9979 21.9225C47.4893 22.119 47.4893 22.5716 47.5489 23.0431C47.6273 23.6327 47.6869 24.1837 47.6869 24.7544C47.6869 26.0131 47.7851 27.2519 47.7067 28.4917C47.667 29.0427 47.5301 33.8432 47.5102 34.3941C47.5102 34.5321 47.5301 34.9251 47.4318 35.0433C47.2938 35.2011 46.861 35.1415 46.6446 35.1614C44.9134 35.2795 43.2617 35.3182 41.5106 35.1813C40.6649 35.1227 39.7209 34.8666 39.0132 34.3951L39.2881 26.1919V26.1908Z" fill="#569AFE"/>
<path d="M45.248 17.9898C45.248 17.7933 45.3463 17.6166 45.3661 17.419C45.386 17.1441 45.248 17.1441 45.1895 16.9078C45.0912 16.5148 45.3076 16.0621 45.3076 15.669C44.8163 15.8457 44.5204 15.9252 43.9893 15.8457C43.5963 15.7872 43.1436 15.6889 42.8091 15.4526C42.7505 15.7673 42.9073 16.7698 42.4944 16.8493C42.5383 17.0552 42.6042 17.5894 42.4296 17.7818C42.4777 18.0055 42.5341 18.2209 42.5916 18.4237C42.6899 18.7969 42.7882 19.191 42.808 19.5841C42.808 19.8203 42.808 20.0169 42.7495 20.2333C42.6711 20.4496 42.4348 20.6075 42.3752 20.804C42.1787 21.3748 43.3255 21.5714 43.7384 21.5515C44.2496 21.5316 44.4796 21.4532 44.9511 21.3152L45.0295 20.9807C44.4106 20.1977 44.8298 19.1554 45.2658 18.1822C45.2501 18.1383 45.2428 18.0755 45.2459 17.9919L45.248 17.9898Z" fill="#86B7FE"/>
<path d="M44.4618 14.6068C43.498 14.4301 42.8038 14.8106 42.4704 15.6762C42.2174 16.3296 42.2822 17.0917 42.4306 17.7816C42.6052 17.5893 42.5393 17.0551 42.4954 16.8491C42.9084 16.7707 42.7516 15.7672 42.8101 15.4525C43.1446 15.6887 43.5962 15.787 43.9904 15.8456C44.5214 15.924 44.8162 15.8456 45.3086 15.6689C45.3086 16.062 45.0922 16.5146 45.1905 16.9077C45.249 17.1439 45.387 17.1439 45.3672 17.4189C45.3473 17.6154 45.249 17.7921 45.249 17.9897C45.2469 18.0743 45.2543 18.136 45.2689 18.1799C45.5125 17.6374 45.7613 17.1147 45.8386 16.6714C45.9965 15.8058 45.3672 14.7636 44.4618 14.6057V14.6068Z" fill="#0054E4"/>
<g style="mix-blend-mode:multiply" opacity="0.5">
<path d="M42.7705 19.0522C43.0653 20.0161 44.2456 19.9764 44.7965 19.2885C44.8362 19.9178 44.1274 20.7834 43.4594 20.4886C43.0266 20.2921 42.8301 19.5645 42.7705 19.1317V19.0533V19.0522Z" fill="#0054E4"/>
</g>
<path d="M43.5807 22.1776C43.5473 22.8937 42.9148 28.452 42.9148 28.452C43.0308 28.6684 43.3978 29.118 43.5807 29.2685C43.7469 29.1514 44.1316 28.4625 44.1316 28.4625C44.048 27.9795 43.9309 22.3783 43.9309 22.1284L43.5807 22.1786V22.1776Z" fill="#E7F0FF"/>
<path d="M43.3601 21.6246C43.4197 21.7814 43.3894 21.9591 43.449 22.1159C43.4887 22.2341 43.518 22.3031 43.6361 22.3418C43.6852 22.3616 43.911 22.3815 43.9602 22.3512C44.0982 22.2623 44.0877 21.8891 44.1076 21.7417C44.1368 21.4762 44.1368 21.4072 43.842 21.3873C43.6946 21.3779 43.5368 21.3873 43.3894 21.4166L43.3601 21.6236V21.6246Z" fill="#E7F0FF"/>
<path d="M43.6308 21.3624L42.8927 22.3513L42.0376 20.9045L42.5979 20.2563L43.6308 21.3624Z" fill="#CFE2FF"/>
<path d="M43.8074 21.3625L44.5454 22.3514L45.2782 21.2182L44.9134 20.4185L43.8074 21.3625Z" fill="#CFE2FF"/>
<path d="M46.6814 26.0761C46.8152 25.5021 46.7776 24.7934 46.7201 24.1996C46.6438 23.2618 46.5288 22.3231 46.395 21.3854C46.2988 20.6964 46.05 19.4325 46.8926 19.1461C47.4665 18.936 47.869 18.9548 48.1753 19.5099C48.4816 20.065 48.5203 20.7738 48.6154 21.3864C48.7304 22.1903 48.7879 23.013 48.9029 23.818C48.9416 24.1055 49.1517 25.407 48.9792 25.5408L46.6825 26.0771L46.6814 26.0761Z" fill="#0054E4"/>
<path d="M52.6643 25.5687C52.2911 24.3341 48.5297 24.5923 48.5297 24.5923C48.0373 24.8557 47.3955 25.0449 46.9052 25.3753C47.0222 26.3099 46.5832 27.8707 46.6354 28.6693C46.6637 29.3583 46.9804 29.9907 47.0369 30.6796C47.0944 31.2536 47.0087 31.8285 47.0087 32.4317C47.0087 32.6962 47.0087 36.6269 46.9595 37.5239C49.2625 37.3012 51.0951 34.9302 53.5225 34.671C53.5225 34.671 52.8953 26.3151 52.6653 25.5687H52.6643Z" fill="#00007D"/>
<path d="M47.0357 30.6798C46.9782 29.9909 46.6625 29.3585 46.6343 28.6695C46.5831 27.8709 47.0211 26.3101 46.904 25.3755C46.5935 25.5846 46.3437 25.8501 46.2318 26.2285C45.8011 27.7214 46.0886 29.6742 46.0886 31.2245C46.0886 32.4884 46.1179 33.7512 46.0886 35.0151C46.3573 34.9775 46.6186 34.9482 46.8768 34.9231C46.9249 34.0262 47.0075 32.6954 47.0075 32.4298C47.0075 31.8267 47.0932 31.2527 47.0357 30.6778V30.6798Z" fill="#0054E4"/>
<path d="M50.1657 24.5065C50.3194 24.6215 50.1658 24.8891 50.0508 25.0041C49.6106 25.4829 49.228 24.9853 49.0744 24.5253C48.9405 24.1229 48.9405 23.6639 49.1507 23.2813C49.3807 22.8788 49.9546 22.5924 50.0696 23.2625L50.1657 24.5065Z" fill="#0022B0"/>
<path d="M47.7027 25.045C48.124 24.6623 48.2515 24.3142 48.1564 23.7403C47.3138 23.6065 47.0075 22.4963 46.7974 21.8063C46.5486 21.0024 46.5099 20.0072 47.2563 19.4322C48.1564 18.7621 49.1516 19.1646 49.5729 20.141C49.898 20.8299 49.9555 21.9401 49.783 22.6677C49.7443 22.859 49.6868 23.0503 49.5917 23.2228C49.5154 23.3755 49.2854 23.5479 49.2467 23.6818C49.1317 24.1407 50.0757 24.9645 50.0757 24.9645C50.3381 25.3743 49.0941 26.1897 48.4815 25.9597C48.1177 25.8447 47.8689 25.5384 47.6776 25.2321L47.7027 25.0439V25.045Z" fill="#86B7FE"/>
<path d="M47.8114 24.8316C47.9264 25.3104 48.309 25.8655 48.8265 25.9993C47.8501 27.6458 46.5674 24.7553 47.8114 24.8316Z" fill="white"/>
<path d="M48.8254 25.9993C49.4955 25.9418 49.9545 25.0992 49.9743 24.4866C50.6821 24.3904 50.6058 25.6731 50.242 25.9993C49.9743 26.2293 48.9592 26.6506 48.8443 26.038L48.8254 25.9993Z" fill="white"/>
<path d="M47.0065 18.9746C46.7389 19.7022 47.3515 19.8549 47.9442 19.6061C48.4607 19.3761 48.6332 19.3761 48.9206 19.9312C49.1695 20.4675 49.227 21.0801 49.3419 21.654C49.6096 22.9942 49.8782 24.2957 49.9357 25.6547C50.2232 25.5397 50.3382 25.1571 50.4333 24.8696C50.4522 25.0996 50.2797 26.0374 50.4908 26.0948C50.8735 26.2287 51.1421 25.1948 51.1798 24.9658C51.3522 24.1232 50.9121 23.1855 50.6821 22.4004C50.4145 21.5003 50.2608 20.5626 49.9932 19.6625C49.7256 18.7248 49.3608 18.5492 48.3729 18.5126C47.4153 18.477 47.0065 18.9736 47.0065 18.9736V18.9746Z" fill="#0054E4"/>
<g style="mix-blend-mode:multiply" opacity="0.5">
<path d="M48.1492 23.732C48.2088 23.7759 48.3708 23.7686 48.4597 23.7759C48.6896 23.8051 48.8966 23.7759 49.1183 23.6943C49.0817 23.9463 48.8966 24.1606 48.6301 24.1679C48.4084 24.1752 48.2307 23.9233 48.1492 23.7309V23.732Z" fill="#0054E4"/>
</g>
<path d="M47.5071 53.1663C47.8971 52.9196 47.6922 51.525 47.6922 51.1351C47.6922 50.6636 47.6514 50.1702 47.6713 49.7196C47.6922 49.4321 47.6305 49.5147 47.8354 49.4123C47.9786 49.3506 48.2253 49.3506 48.3686 49.3506C48.4093 50.1712 48.286 50.9919 48.286 51.7926C48.286 52.2035 48.2651 52.5934 48.2452 52.9834V53.5583C48.2452 53.6817 48.2661 53.9483 48.2243 53.9273L47.5061 53.1684L47.5071 53.1663Z" fill="#AD7968"/>
<path d="M50.9539 53.1663C50.564 52.9196 50.7689 51.525 50.7689 51.1351C50.7689 50.6636 50.8096 50.1702 50.7898 49.7196C50.7689 49.4321 50.8305 49.5147 50.6256 49.4123C50.4824 49.3506 50.2357 49.3506 50.0925 49.3506C50.0517 50.1712 50.1751 50.9919 50.1751 51.7926C50.1751 52.2035 50.196 52.5934 50.2158 52.9834V53.5583C50.2158 53.6817 50.1949 53.9483 50.2368 53.9273L50.9549 53.1684L50.9539 53.1663Z" fill="#AD7968"/>
<path d="M51.5299 54.8007C51.0313 54.7892 50.542 54.7098 50.0465 54.6544C50.0109 54.4045 49.9608 54.0397 49.9482 53.885C49.9075 53.4135 50.0716 53.5567 50.4406 53.5975C50.4615 53.31 50.3172 52.7967 50.748 52.7769C51.0563 52.7769 51.2403 53.2901 51.5278 53.4741C52.1446 53.8787 52.8868 53.885 52.9077 54.7338C52.7708 54.7474 52.6265 54.7485 52.5021 54.7485C52.1739 54.7621 51.8582 54.8143 51.5299 54.8007Z" fill="#663A5F"/>
<path d="M51.5298 54.8007C51.8581 54.8142 52.1738 54.7609 52.502 54.7484C52.6275 54.7484 52.7707 54.7484 52.9076 54.7337C52.9087 54.7892 52.9076 54.8477 52.9024 54.9104C52.4508 55.0745 50.3496 55.0745 50.083 54.9104C50.083 54.9104 50.0673 54.8027 50.0464 54.6543C50.5419 54.7097 51.0312 54.7892 51.5298 54.8007Z" fill="#795287"/>
<path d="M46.7335 44.4667C46.7335 43.944 46.8035 43.4213 46.8725 42.9164C46.907 42.585 46.8903 41.9233 47.1161 41.6797C47.482 41.9233 48.0914 41.8543 48.5096 41.871C48.9455 41.8888 49.3982 41.9233 49.8341 41.9578C50.5837 42.01 51.3155 42.0968 52.064 42.1323C51.9249 44.2576 51.2977 49.5892 51.2977 49.5892C50.9663 49.746 50.3746 49.5892 50.0432 49.4846C49.9042 49.4324 49.625 49.3623 49.555 49.2233C49.4682 49.0665 49.5205 48.6138 49.5027 48.4215C49.4505 47.8465 49.485 47.2538 49.4682 46.6621C49.4337 45.9826 49.3815 44.5368 49.3815 44.5368C49.2424 44.5023 49.1023 44.5713 48.9455 44.5545C48.8755 45.5477 48.8755 46.5408 48.7542 47.5339C48.702 47.9699 48.6497 48.4225 48.5974 48.8585C48.5451 49.3467 48.5629 49.5902 48.0047 49.6948C47.8134 49.7293 47.0345 49.861 46.907 49.7993C46.907 49.7993 46.7324 46.2272 46.7324 44.4678L46.7335 44.4667Z" fill="#00007D"/>
<path d="M46.9302 54.8007C47.4288 54.7892 47.9181 54.7098 48.4136 54.6544C48.4491 54.4045 48.4993 54.0397 48.5118 53.885C48.5526 53.4135 48.3885 53.5567 48.0195 53.5975C47.9985 53.31 48.1428 52.7967 47.7111 52.7769C47.4037 52.7769 47.2187 53.2901 46.9312 53.4741C46.3144 53.8787 45.5711 53.885 45.5513 54.7338C45.6882 54.7474 45.8325 54.7485 45.9569 54.7485C46.2851 54.7621 46.6009 54.8143 46.9291 54.8007H46.9302Z" fill="#0022B0"/>
<path d="M46.9302 54.8007C46.6019 54.8142 46.2862 54.7609 45.958 54.7484C45.8325 54.7484 45.6893 54.7484 45.5524 54.7337C45.5513 54.7892 45.5524 54.8477 45.5576 54.9104C46.0092 55.0745 48.1105 55.0745 48.377 54.9104C48.377 54.9104 48.3927 54.8027 48.4136 54.6543C47.9181 54.7097 47.4289 54.7892 46.9302 54.8007Z" fill="#000031"/>
<path d="M53.4284 28.7502C53.3657 28.4073 53.1461 28.3456 52.9276 28.4292C53.0406 27.8344 53.0897 27.341 52.8681 26.765C52.6726 26.2475 52.2095 26.0363 51.6857 26.0102L51.4108 26.0039C51.1546 26.2067 50.7825 26.3165 50.5671 26.5705C50.288 26.8915 50.1667 27.2992 50.0601 27.7079C50.0392 27.7957 50.0214 27.8877 50.0068 27.9839C49.6022 27.9964 49.4506 28.0748 49.4371 28.5505C49.4308 28.8254 49.4904 29.0983 49.7925 29.1558C49.8751 29.1756 49.9702 29.1662 50.057 29.1349C50.0946 29.4182 50.1699 29.6879 50.2953 29.9147C50.3277 29.9722 50.3654 30.0214 50.4041 30.0674C50.3915 30.0935 50.3779 30.1165 50.3664 30.1353C50.2525 30.2817 50.1375 30.4029 49.9838 30.4981C49.6754 30.7019 49.3242 30.7626 48.9729 30.8242L49.0001 30.8629C49.2039 31.1713 49.2897 31.4703 49.6095 31.7107C50.0361 32.0265 50.4866 32.2899 51.0365 32.3024C51.4683 32.3181 51.8582 32.2429 52.2189 31.9982C52.3213 31.9303 52.6308 31.7526 52.6276 31.6093C52.6255 31.5309 52.3851 31.3281 52.3318 31.2769C52.0767 31.0218 51.9011 30.7908 51.8268 30.4395C51.8112 30.3643 51.8059 30.289 51.8007 30.2137C51.8164 30.2064 51.8321 30.1991 51.8467 30.1907C52.1227 30.0465 52.3537 29.782 52.5335 29.4799C52.6851 29.5928 52.8973 29.6482 53.0468 29.5854C53.3312 29.461 53.4775 29.0387 53.4315 28.7523L53.4284 28.7502Z" fill="#86B7FE"/>
<g style="mix-blend-mode:multiply" opacity="0.5">
<path d="M50.4645 30.1104C50.5638 30.2389 50.8001 30.2933 50.9579 30.333C51.2119 30.3968 51.5162 30.3717 51.7493 30.2609C51.5026 30.494 51.3803 30.8275 50.9506 30.7428C50.6704 30.6885 50.4457 30.4072 50.4645 30.1104Z" fill="#0054E4"/>
</g>
<path d="M51.5821 26.0393C51.3678 26.1846 51.0521 26.4532 51.0772 26.7491C51.1138 27.1578 51.9741 26.3602 52.109 26.218C52.5418 26.4428 52.6954 27.0136 52.7759 27.4558C52.8073 27.6471 52.846 27.8374 52.8606 28.037C52.8742 28.2283 52.8523 28.4029 52.8481 28.5953C52.8418 28.6914 52.8345 28.7615 52.9735 28.7228C53.0519 28.7029 53.1617 28.5963 53.2129 28.5336C53.3666 28.3904 53.492 28.2043 53.5652 28.0015C53.7367 27.5352 53.9604 27.0763 53.8423 26.5567C53.7921 26.3142 53.6719 26.0382 53.4335 25.9138C53.3279 25.8553 53.1878 25.85 53.0666 25.8615C52.9537 25.873 52.8596 25.9274 52.7791 25.8866C52.6819 25.8281 52.616 25.6378 52.5439 25.5532C52.4623 25.4423 52.3641 25.3483 52.2491 25.273C52.0274 25.1308 51.7556 25.0503 51.5016 25.0127C51.0814 24.9447 50.6475 25.0169 50.2879 25.2521C50.0819 25.388 49.9377 25.5396 49.8122 25.7434C49.7788 25.7967 49.6868 25.9379 49.7485 25.9891C49.8112 26.0393 49.9398 25.9577 49.991 25.9389C49.6397 26.1658 49.3815 26.6686 49.3136 27.0805C49.2383 27.5614 49.3951 27.8886 49.76 28.2022C49.8394 28.2607 49.9189 28.2942 49.9994 28.3444C50.0119 28.1614 50.0015 28.0517 50.0401 27.8677C50.0872 27.6659 50.1666 27.391 50.2492 27.2059C50.4133 26.8097 50.7604 26.3822 51.1566 26.2076C51.2685 26.1522 51.3897 26.1229 51.5204 26.103L51.58 26.0403L51.5821 26.0393Z" fill="#0054E4"/>
<path d="M47.0252 34.1602C46.7493 35.4763 44.556 38.462 44.1912 40.0489C44.4849 40.2036 44.856 40.2182 45.0913 40.4043C45.5314 39.5722 46.7231 37.5922 47.0367 36.7203C47.3295 35.9551 47.7058 35.0895 47.9786 34.432L47.0252 34.1602Z" fill="#86B7FE"/>
<path d="M52.7624 43.1055C52.9035 42.1584 53.1022 41.0315 53.1314 40.0624C53.1513 39.408 53.1931 38.7525 53.2569 38.096C53.2883 37.7552 53.5548 36.6471 53.4137 36.3899C53.3196 36.2101 52.7938 36.2038 52.6359 36.1045C52.591 37.2565 52.2387 38.4201 52.2366 39.571C52.2345 40.722 52.0829 41.9263 52.1247 43.0752C52.1268 43.1275 52.1226 43.0229 52.1216 42.9968L52.7614 43.1045L52.7624 43.1055Z" fill="#86B7FE"/>
<path d="M46.8234 41.5833C46.8432 41.321 46.9164 41.1108 46.9885 40.8735C47.0857 40.5839 47.0816 40.401 47.0993 40.0863C47.1171 39.7727 47.2426 39.5333 47.3126 39.2187C47.4527 38.535 47.46 37.8032 47.5478 37.1216C47.5928 36.8331 48.0078 35.6465 47.8708 35.4144V35.3883C47.3231 35.4542 46.3404 34.852 45.9912 34.4684C45.9912 34.4684 46.1438 34.3074 46.3435 33.9362C46.494 33.6707 46.6435 33.4062 46.7941 33.1407C47.2938 32.2134 47.5405 30.6119 48.8765 30.7091C48.9288 30.7081 49.0061 30.6798 49.0845 30.6777C49.7588 31.4973 51.7221 32.6504 52.5511 31.3227C53.0038 31.651 53.5265 31.6385 53.8254 32.0754C54.0983 32.5135 54.0126 33.2996 54.0251 33.7962C54.0492 34.737 53.9498 35.9936 54.2331 36.8498C53.792 36.9658 53.2118 36.7714 52.7894 36.625C52.779 37.2523 52.665 37.9359 52.5501 38.5391C52.48 38.881 52.3347 39.3284 52.3953 39.6671C52.4591 40.1365 52.5636 40.1334 52.3922 40.5819C52.2469 41.0303 52.4225 42.1019 52.3587 42.3862C52.2176 43.0176 52.2908 42.8065 51.9531 42.8932C51.6406 42.9539 51.4304 42.9068 51.1168 42.888C50.3045 42.8044 49.4651 42.7207 48.6768 42.5315C48.2294 42.4123 47.0512 42.3371 46.8077 42.0036L46.8234 41.5854V41.5833Z" fill="#0022B0"/>
<path d="M31.0117 22.5445C30.788 21.9769 30.4953 21.3068 30.6678 20.6701C30.9082 19.7585 32.0268 19.999 32.7147 20.0167C33.3858 20.0512 34.5546 19.8108 34.8818 20.5844C35.14 21.1688 35.0198 22.4933 34.4689 22.8884C34.2629 23.0432 33.9869 23.0609 33.7632 23.0087L31.0117 22.5445Z" fill="#0D6EFD"/>
<path d="M27.9342 54.722C27.7962 54.722 27.5474 54.6917 27.5328 54.767C27.4126 55.1109 28.6221 55.0148 28.828 54.998C29.0863 54.9813 29.3445 54.998 29.5849 54.9468C29.8944 54.8956 30.0146 54.6541 30.2895 54.5851C30.2895 54.7053 30.2728 54.8088 30.2895 54.929C30.599 54.929 30.9952 55.0838 31.0286 54.6708C31.0631 54.3447 30.9596 53.9997 30.5812 54.1377L27.9332 54.722H27.9342Z" fill="#000031"/>
<path d="M27.6353 54.7262C27.7387 54.9667 28.9964 54.8172 29.2201 54.7994C29.6152 54.7649 29.6372 54.6175 29.9979 54.4973C30.1693 54.4283 30.3418 54.4461 30.531 54.4461C30.6167 54.4461 30.9973 54.4481 31.0485 54.4137L31.0297 54.4795C31.0987 54.1523 30.9607 53.7749 30.9439 53.4299C30.9262 53.1205 30.9094 52.7933 30.9439 52.4838C30.669 52.4661 30.3763 52.4493 30.1014 52.4326C30.1014 53.1038 29.173 53.4989 28.6566 53.6536C28.3639 53.7394 28.1381 53.8512 27.883 54.0666C27.6938 54.2255 27.6363 54.7252 27.6363 54.7252L27.6353 54.7262Z" fill="#0022B0"/>
<path d="M35.901 54.722C36.039 54.722 36.2878 54.6917 36.3024 54.767C36.4226 55.1109 35.2131 55.0148 35.0072 54.998C34.7489 54.9813 34.4907 54.998 34.2503 54.9468C33.9408 54.8956 33.8206 54.6541 33.5446 54.5851C33.5446 54.7053 33.5614 54.8088 33.5446 54.929C33.2352 54.929 32.839 55.0838 32.8055 54.6708C32.771 54.3447 32.8745 53.9997 33.253 54.1377L35.901 54.722Z" fill="#000031"/>
<path d="M36.2002 54.7262C36.0967 54.9667 34.839 54.8172 34.6164 54.7994C34.2212 54.7649 34.1993 54.6175 33.8386 54.4973C33.6661 54.4283 33.4947 54.4461 33.3054 54.4461C33.2197 54.4461 32.8392 54.4481 32.788 54.4137L32.8068 54.4795C32.7378 54.1523 32.8758 53.7749 32.8925 53.4299C32.9092 53.1205 32.927 52.7933 32.8925 52.4838C33.1674 52.4661 33.4602 52.4493 33.7351 52.4326C33.7351 53.1038 34.6634 53.4989 35.1798 53.6536C35.4726 53.7394 35.6984 53.8512 35.9534 54.0666C36.1427 54.2255 36.2002 54.7252 36.2002 54.7252V54.7262Z" fill="#0022B0"/>
<path d="M29.6015 52.4861C29.7729 50.0095 29.636 47.464 29.5325 44.9529C29.429 42.2359 29.429 39.5524 29.3266 36.8354C29.3266 36.526 29.2576 36.251 29.2576 35.975C30.5643 35.8025 31.9056 35.8715 33.2134 35.8715C33.8667 35.8715 34.6581 36.0095 35.2425 35.8715C35.2425 39.1395 34.5201 42.3039 34.4166 45.5373C34.3821 46.8096 34.4511 48.0484 34.3476 49.3206C34.2786 49.9395 34.3131 50.3869 34.3821 51.0058C34.4166 51.4877 34.2786 52.1066 34.4856 52.622C34.0727 52.7255 32.6802 52.8112 32.3708 52.4328C32.3708 52.4328 32.285 50.4549 32.285 49.9395C32.2505 48.3912 32.2505 46.8441 32.285 45.2958C32.3195 44.1605 32.3195 43.0597 32.3195 41.9254V40.6532C32.3195 40.2403 32.3781 39.4824 32.2505 38.899C31.8721 40.5152 32.0446 42.3729 31.9411 44.0236C31.8376 45.6398 31.8376 47.257 31.7697 48.8732C31.7352 49.836 31.5972 51.5212 31.6662 52.485C31.6662 52.485 31.1372 52.6042 30.5183 52.6387C30.1054 52.6387 29.6026 52.485 29.6026 52.485L29.6015 52.4861Z" fill="#00007E"/>
<path d="M29.0339 36.1391C29.1374 35.5453 29.0851 34.8752 29.0851 34.2814C29.0851 33.1461 29.266 32.0882 29.1625 30.9539C29.0851 30.2315 29.1363 29.5092 29.1112 28.7868C29.06 28.2453 28.9565 27.6776 28.9304 27.1361C28.9043 26.3625 29.4207 26.4399 30.0134 26.1555C30.5299 25.9234 31.0714 25.5879 31.6129 25.4332C32.8768 25.0976 33.7277 25.5879 34.7083 26.259C35.2498 26.6197 35.8687 26.8267 35.8436 27.549C35.8175 28.1679 35.6889 28.8129 35.6628 29.4579C35.6366 30.7218 35.3272 31.9606 35.3795 33.1722C35.3795 33.4817 35.276 33.7911 35.3021 34.1006C35.3533 34.41 35.4056 34.5909 35.3795 34.9264C35.3533 35.2359 35.4307 35.4679 35.4307 35.7523C35.4307 36.114 35.3533 36.114 35.3533 36.114C34.3215 36.3973 32.9029 36.7851 31.8188 36.7067C30.9156 36.6555 29.9361 36.3461 29.1363 36.1391H29.0328H29.0339Z" fill="#0022B0"/>
<path d="M31.6485 25.434C32.1127 25.1758 32.0437 24.4022 31.8032 24.0238C31.5628 23.6798 31.3391 23.4216 31.2188 23.0087C31.1153 22.6647 31.1331 22.372 31.0986 22.0281C31.0474 21.1165 31.0986 20.2739 31.9412 19.8443C32.7493 19.4313 33.8156 19.5515 34.263 20.4119C34.5558 21.0141 34.607 21.9424 34.4868 22.579C34.4178 23.0087 34.2808 23.3359 34.0048 23.6966C33.7811 24.006 33.5062 24.2987 33.5229 24.7284C33.5396 25.1235 33.9703 25.4162 33.9358 25.7602C33.8668 26.1731 33.4884 26.7575 33.11 26.8955C32.3019 27.1704 31.5105 26.2076 31.5617 25.4685L31.6475 25.434H31.6485Z" fill="#86B7FE"/>
<path d="M34.0705 20.1265C33.9503 20.2645 33.8322 20.2739 33.6607 20.3596C33.4715 20.4631 32.7146 20.4976 33.1276 20.1704C32.9729 20.3084 32.7836 20.4286 32.5777 20.4631C32.3885 20.4976 32.0958 20.4286 32.3195 20.2049C32.147 20.3429 31.4769 20.876 31.2364 20.6868C30.8925 20.3941 31.5804 19.793 31.7696 19.655C32.3373 19.2254 33.4893 18.8814 33.9879 19.6205C34.0569 19.7407 34.0716 19.9895 34.0716 20.1265H34.0705Z" fill="#0D6EFD"/>
<path d="M33.2655 21.7773H32.7292V21.9247H33.2655V21.7773Z" fill="#4E647A"/>
<path d="M32.7617 22.2015C32.7617 22.3228 32.6519 22.4221 32.516 22.4221L31.5992 22.466C31.4633 22.466 31.3535 22.3678 31.3535 22.2465V21.4154C31.3535 21.2941 31.4633 21.1948 31.5992 21.1948H32.516C32.6519 21.1948 32.7617 21.2931 32.7617 21.4154V22.2026V22.2015Z" fill="#CFE2FF" stroke="#0022B0" stroke-width="0.10454" stroke-miterlimit="10"/>
<path d="M33.1067 22.2015C33.1067 22.3228 33.2165 22.4221 33.3524 22.4221L34.2692 22.466C34.4051 22.466 34.5148 22.3678 34.5148 22.2465V21.4154C34.5148 21.2941 34.4051 21.1948 34.2692 21.1948H33.3524C33.2165 21.1948 33.1067 21.2931 33.1067 21.4154V22.2026V22.2015Z" fill="#CFE2FF" stroke="#0022B0" stroke-width="0.10454" stroke-miterlimit="10"/>
<path d="M31.3046 22.3898C31.1885 22.1839 30.7244 22.2476 30.6209 22.4546C30.4149 22.8801 31.0725 23.5126 31.4332 23.1122L31.3046 22.3898Z" fill="#86B7FE"/>
<path d="M34.2576 22.6732C34.5159 22.4411 34.8765 22.4798 34.8514 22.8927C34.8253 23.3569 34.2838 23.7698 33.8708 23.4081L34.2576 22.6732Z" fill="#86B7FE"/>
<g style="mix-blend-mode:multiply" opacity="0.5">
<path d="M31.824 24.0581C31.9891 24.2776 32.3969 24.3477 32.6383 24.3864C32.8035 24.425 32.9457 24.425 33.1109 24.3864C33.3858 24.3351 33.5238 24.2985 33.7109 24.1051C33.3931 24.6174 33.1548 24.8641 32.8255 24.8767C32.4512 24.9028 32.1773 24.6184 31.9682 24.2703L31.824 24.0581Z" fill="#0054E4"/>
</g>
<path d="M32.9051 27.3944C32.0792 26.7577 30.7997 25.7688 31.866 25.2241C31.8148 25.843 32.096 26.4316 32.7316 26.4148C32.7316 26.6898 32.7243 26.7253 32.8727 26.8863C32.9114 26.8811 33.0243 26.7243 33.0421 26.3803C33.2825 26.3458 33.6484 25.9245 33.7132 25.6747C33.777 25.428 33.7686 25.4855 33.7383 25.245C33.893 25.4342 34.1105 25.6465 34.1293 25.8921C34.147 26.1179 33.9359 26.3845 33.7467 26.6082C33.4027 27.0034 33.2501 27.0839 32.9239 27.3933H32.9072L32.9051 27.3944Z" fill="#569AFE"/>
<path d="M29.175 34.1132C28.8457 33.3385 28.1463 32.7573 27.7344 32.0255C28.1871 31.9607 27.9404 31.7453 27.9404 31.4871C27.9404 31.2509 28.1463 31.1212 28.2906 30.8839C28.5582 30.4532 28.8875 30.0236 29.1133 29.55C29.2576 29.227 29.6046 26.5173 29.1311 26.5382C28.8227 26.5602 28.2906 27.6986 28.1662 27.9349C27.8986 28.4084 27.7135 28.9039 27.4867 29.3984C27.0748 30.2598 26.0869 31.0554 26.067 32.0673C26.0461 32.9068 26.9316 33.4452 27.4668 33.9616C27.9404 34.4571 28.5572 35.2746 29.2367 35.3823L29.175 34.1121V34.1132Z" fill="#569AFE"/>
<path d="M35.3616 24.3302C34.8661 24.416 35.0376 25.1666 35.532 24.877C35.1055 25.0986 35.6345 25.6286 36.0275 25.3892C35.6177 25.7133 36.2492 26.2266 36.6422 25.8158C36.4886 26.789 37.5476 26.5496 38.1455 26.6186C38.1623 26.4305 38.6745 26.1921 38.8459 26.2601C38.8459 26.8235 39.9217 26.4305 39.4439 25.8158C39.6143 26.0719 40.0419 25.8503 40.0074 25.5596C40.1778 25.9015 40.759 25.8158 40.5196 25.4917C40.9639 25.6966 41.3047 25.2188 40.9639 24.877C41.5274 25.0139 41.9372 24.1086 41.2545 24.1086C41.4082 23.7155 41.3225 23.4594 40.8615 23.4772C41.0664 23.2211 40.896 22.9482 40.5886 22.9817C40.8792 22.6398 40.5541 22.4182 40.2301 22.367C40.6399 22.1966 40.435 21.906 40.1276 21.769C40.5207 21.5641 40.3158 20.9661 39.8715 21.1198C40.0084 20.71 39.6321 20.5908 39.3592 20.847C39.5129 20.318 38.9662 20.0608 38.6254 20.4717C38.5229 19.9762 37.8737 19.857 37.8058 20.4204C37.6866 20.2323 37.4639 19.9939 37.2078 20.0619C36.9862 20.1131 36.8147 20.3859 36.8837 20.6086C36.7468 20.5574 36.5419 20.4204 36.4049 20.5574C36.2513 20.6766 36.3192 20.9505 36.4394 21.0529C36.269 21.0184 36.1154 20.985 36.0296 21.1721C35.9617 21.3425 36.0809 21.5307 36.2345 21.5986C35.9617 21.6331 35.7735 21.8202 35.8415 22.1109C35.3459 21.906 34.817 22.1621 35.3292 22.6576C35.1923 22.6231 34.9706 22.5897 34.8515 22.6921C34.6633 22.8625 34.7835 23.0852 34.9706 23.1531C34.6288 23.1531 34.6288 23.6141 34.9874 23.5629C34.748 23.6999 34.4406 23.9215 34.7313 24.2121C34.8682 24.3491 35.1243 24.3146 35.3114 24.3146L35.3627 24.3313L35.3616 24.3302Z" fill="#0D6EFD"/>
<path d="M36.4895 26.4305C37.1387 26.2768 37.3603 25.2523 37.3781 24.7056C37.7534 24.6711 38.2155 24.876 38.6075 24.8937C38.6754 25.269 38.6242 25.6454 38.7267 26.0207C38.7779 26.2256 38.8291 26.396 38.9661 26.5841C39.103 26.7545 39.3079 26.8235 39.2567 27.0284C39.0685 27.7289 37.5663 27.6944 37.0875 27.455C36.7456 27.2846 36.4895 26.926 36.4561 26.5664L36.4906 26.4294L36.4895 26.4305Z" fill="#86B7FE"/>
<g style="mix-blend-mode:multiply" opacity="0.5">
<path d="M38.6245 25.5599C38.522 25.7648 38.4363 26.0889 38.1802 26.1746C37.7024 26.3283 37.394 25.3372 37.394 24.9619L38.6234 25.5599H38.6245Z" fill="#0054E4"/>
</g>
<path d="M36.8649 24.0543C36.8649 24.2592 36.6965 24.4254 36.4896 24.4254C36.2826 24.4254 36.1143 24.2592 36.1143 24.0543C36.1143 23.8494 36.2826 23.6821 36.4896 23.6821C36.6965 23.6821 36.8649 23.8483 36.8649 24.0543Z" fill="#0054E4"/>
<path d="M40.0104 24.19C40.0104 24.3949 39.8421 24.5611 39.6351 24.5611C39.4281 24.5611 39.2598 24.3949 39.2598 24.19C39.2598 23.9851 39.4281 23.8188 39.6351 23.8188C39.8421 23.8188 40.0104 23.9851 40.0104 24.19Z" fill="#0054E4"/>
<path d="M36.6601 23.2538C36.6601 23.766 36.8482 24.2448 37.1044 24.6881C37.326 25.0634 37.6166 25.4742 38.0097 25.6791C38.454 25.884 38.7101 25.6112 38.9662 25.2526C39.3081 24.7236 39.5977 24.0567 39.6154 23.4252C39.6321 23.1346 39.6499 22.7938 39.6154 22.5032C39.5987 22.384 39.5642 22.1614 39.4617 22.0934C39.4617 22.0934 39.1544 22.1614 39.052 21.9397C38.9328 22.2126 38.5397 22.1614 38.454 21.9052C38.2491 22.1781 37.8738 22.1269 37.7023 21.854C37.6344 22.0422 37.2413 22.0934 37.0709 22.0077C37.0364 22.315 36.7803 22.452 36.5074 22.5199C36.7636 22.6056 36.8148 23.1691 36.4907 23.1513L36.6611 23.2538H36.6601Z" fill="#86B7FE"/>
<path d="M38.7173 23.4429H38.1528V23.4993H38.7173V23.4429Z" fill="#4E647A"/>
<path d="M38.1871 23.6037C38.1871 23.6497 38.071 23.6874 37.9289 23.6874L36.965 23.7041C36.8218 23.7041 36.7068 23.6665 36.7068 23.6205V23.3058C36.7068 23.2598 36.8228 23.2222 36.965 23.2222H37.9289C38.0721 23.2222 38.1871 23.2598 38.1871 23.3058V23.6037Z" fill="#CFE2FF" stroke="#0022B0" stroke-width="0.10454" stroke-miterlimit="10"/>
<path d="M38.55 23.6037C38.55 23.6497 38.6661 23.6874 38.8083 23.6874L39.7721 23.7041C39.9153 23.7041 40.0303 23.6665 40.0303 23.6205V23.3058C40.0303 23.2598 39.9143 23.2222 39.7721 23.2222H38.8083C38.665 23.2222 38.55 23.2598 38.55 23.3058V23.6037Z" fill="#CFE2FF" stroke="#0022B0" stroke-width="0.10454" stroke-miterlimit="10"/>
<path d="M36.3776 26.8237C37.1586 27.4646 38.3242 27.3872 39.196 26.9899C39.2724 27.3234 39.1835 27.7196 39.1835 28.0531C39.1835 28.2068 39.2096 28.373 39.1448 28.5016C39.0549 28.6553 38.8249 28.8215 38.6838 28.9114C37.9917 29.3986 36.7498 29.2062 36.4038 28.3354C36.3139 28.1305 36.3776 27.8869 36.3264 27.6945L36.3776 26.8237Z" fill="white"/>
<path d="M35.6009 52.2029C35.259 52.1861 35.396 53.1082 35.396 53.3298C35.396 53.6539 35.3793 53.9957 35.396 54.3376C35.396 54.6104 35.3103 55.1059 35.7201 55.0213C35.7368 54.577 35.7201 54.1327 35.7201 53.6894C35.9082 54.2696 36.8805 55.5502 37.4628 55.314C37.8725 55.1467 37.2234 53.5535 37.053 53.1427C36.916 52.8521 36.7801 52.5792 36.5574 52.3398L35.6009 52.2029Z" fill="#0022B0"/>
<path d="M36.5921 52.2875C36.8649 52.6973 37.2235 53.1928 37.19 53.7218C37.1555 54.3365 36.6098 53.8755 36.4049 53.6026C36.2 53.3298 36.0119 53.0047 35.8415 52.7151C35.6021 52.322 35.3459 48.223 35.3459 47.3354C35.7557 47.3699 36.4049 47.694 36.7468 47.5236L36.5931 52.2886L36.5921 52.2875Z" fill="#86B7FE"/>
<path d="M38.0609 52.2029C37.719 52.1861 37.856 53.1082 37.856 53.3298C37.856 53.6539 37.8392 53.9957 37.856 54.3376C37.856 54.6104 37.7702 55.1059 38.18 55.0213C38.1968 54.577 38.18 54.1327 38.18 53.6894C38.3682 54.2696 39.3404 55.5502 39.9227 55.314C40.3325 55.1467 39.6833 53.5535 39.5129 53.1427C39.376 52.8521 39.2401 52.5792 39.0174 52.3398L38.0609 52.2029Z" fill="#0022B0"/>
<path d="M39.0506 52.2875C39.3235 52.6973 39.682 53.1928 39.6486 53.7218C39.6141 54.3365 39.0684 53.8755 38.8625 53.6026C38.6576 53.3298 38.4694 53.0047 38.299 52.7151C38.0596 52.322 37.8035 48.223 37.8035 47.3354C38.2133 47.3699 38.8625 47.694 39.2043 47.5236L39.0506 52.2886V52.2875Z" fill="#86B7FE"/>
<path d="M40.2467 47.3174C39.1532 47.8474 36.4833 48.4789 34.5085 47.2829C34.5085 47.2829 34.2012 39.6996 34.474 36.4547C34.611 34.713 35.8403 33.4826 37.6844 33.5516C38.4361 33.5861 39.3581 33.8589 39.8359 34.4402C40.3826 35.0894 40.2457 36.1818 40.2457 36.968V47.3174H40.2467Z" fill="#0022B0"/>
<path d="M36.019 34.2272C36.5825 34.637 37.3258 34.7655 37.9917 34.7906C38.3764 34.8168 39.2211 34.7645 39.4521 34.3808C39.5807 34.201 39.4521 33.7149 39.4521 33.51C39.4521 33.1002 39.426 32.7155 39.4009 32.3057C39.3497 30.7178 39.3236 29.1037 39.3497 27.5146C38.965 28.0269 38.4276 28.4367 37.9666 28.8726C37.9666 28.8726 37.3007 28.4116 37.0184 28.2067C36.7111 27.9757 36.4288 27.7708 36.1476 27.5146L36.019 34.2272Z" fill="#CFE2FF"/>
<path d="M39.0851 26.6187C38.9482 27.4037 39.1019 28.3268 39.1019 29.1297C39.1019 30.0517 39.1186 30.9738 39.1186 31.8969C39.1186 32.3412 39.1353 32.8022 39.1531 33.2632C39.1698 33.6563 39.0339 34.2365 39.4772 34.3902C39.6476 34.4247 39.8525 34.4581 40.0061 34.3734C40.2455 34.2543 40.1598 34.1173 40.1253 33.8957C40.0741 33.4179 40.0908 32.9391 40.0574 32.4614C40.0061 31.6585 40.0574 30.8044 39.9204 30.0361C39.9204 30.4459 40.0908 30.9581 40.211 31.3512C40.3302 31.8122 40.4839 32.2732 40.6721 32.7008C40.7912 32.9736 41.0139 33.6741 41.2867 33.8455C41.5596 33.9992 42.0551 33.7431 42.2945 33.5894C41.8335 32.5649 41.4749 31.4892 41.1676 30.4124C40.9114 29.5416 40.8435 28.653 40.6553 27.7822C40.5184 27.133 39.8985 27.1079 39.0841 26.6207L39.0851 26.6187Z" fill="#00007D"/>
<path d="M35.857 34.5598C36.5741 34.3036 36.6933 33.5865 36.7111 32.9028C36.7456 31.8438 36.6599 30.7681 36.6431 29.7091C36.6264 28.5822 36.5574 27.3862 36.6944 26.2593C36.0797 26.345 34.9182 26.7203 34.6454 27.3528C34.4917 27.7113 34.5596 28.3093 34.5596 28.7024V30.1712C34.5596 30.974 34.6109 31.7936 34.7645 32.5798C34.8325 32.9383 34.867 33.3136 34.9015 33.69C34.9182 33.8949 34.9015 34.219 34.9694 34.3392L35.858 34.5608L35.857 34.5598Z" fill="#00007D"/>
<path d="M37.2068 36.6774C37.2068 36.6774 38.6986 37.4405 39.2275 37.6966C39.2788 37.543 39.4324 37.406 39.5349 37.2701C39.0394 36.9115 38.1121 36.4212 37.6333 36.0972L37.2068 36.6774Z" fill="#86B7FE"/>
<path d="M35.5664 33.4159C35.6344 33.3646 35.6856 33.2967 35.6689 33.1942C35.6177 33.1942 35.5664 33.1597 35.5152 33.1775C35.3783 32.3747 35.4807 31.4181 35.4807 30.5985C35.4807 29.7789 35.5664 28.9416 35.5487 28.122C35.5487 27.7634 35.5654 27.3358 35.2246 27.1487C34.8148 26.9093 34.6099 27.3024 34.4729 27.6442C34.0976 28.5663 34.3025 32.9381 34.405 34.0316C34.4562 34.6808 36.0954 35.9447 36.4885 36.3033C36.7101 36.5082 37.0174 36.918 37.2913 36.987C37.3258 36.7308 37.8381 36.3555 38.043 36.2008C37.9573 36.0126 37.8036 36.0984 37.6844 35.9959C37.5987 35.928 37.6165 35.8255 37.5652 35.7743C37.514 35.7231 37.4283 35.7231 37.3771 35.6718C37.1042 35.4502 36.8303 35.1763 36.592 34.9035C36.1989 34.4592 35.8403 33.9469 35.5675 33.418L35.5664 33.4159Z" fill="#0054E4"/>
<path d="M46.0437 37.2922C46.2904 37.6821 46.4336 38.1338 46.6385 38.5436C46.9051 39.0767 47.2752 39.59 47.6034 40.1033C47.7676 40.0008 47.9526 40.0008 48.1366 39.9601C48.0341 39.4677 47.6442 38.8927 47.4393 38.4212C47.2344 37.9498 47.0494 37.3957 46.742 36.9849L46.0447 37.2922H46.0437Z" fill="#86B7FE"/>
<path d="M39.9897 45.0494C38.7791 43.613 39.2318 41.6434 39.4775 39.9604C39.56 39.4063 39.6207 38.8522 39.6824 38.2982C39.7033 38.0933 39.6824 37.7441 39.7848 37.5591C39.8674 37.374 39.8057 37.4357 40.0315 37.3949C40.134 37.374 40.4215 37.3949 40.4831 37.4357C40.7497 37.5998 40.504 38.8104 40.4622 39.1596C40.3796 39.837 40.3399 42.4014 40.2573 43.0171C40.1956 43.3244 39.9887 45.0483 39.9887 45.0483L39.9897 45.0494Z" fill="#86B7FE"/>
<path d="M40.6304 54.2005C41.0204 53.9538 40.8155 52.5592 40.8155 52.1693C40.8155 51.6978 40.7747 51.2044 40.7946 50.7538C40.8155 50.4663 40.7538 50.5489 40.9587 50.4464C41.1019 50.3848 41.3486 50.3848 41.4918 50.3848C41.5326 51.2054 41.4093 52.026 41.4093 52.8268C41.4093 53.2377 41.3884 53.6276 41.3685 54.0175V54.5925C41.3685 54.7159 41.3894 54.9824 41.3476 54.9615L40.6294 54.2026L40.6304 54.2005Z" fill="#86B7FE"/>
<path d="M44.0772 54.2005C43.6873 53.9538 43.8922 52.5592 43.8922 52.1693C43.8922 51.6978 43.9329 51.2044 43.9131 50.7538C43.8922 50.4663 43.9538 50.5489 43.7489 50.4464C43.6057 50.3848 43.359 50.3848 43.2158 50.3848C43.175 51.2054 43.2984 52.026 43.2984 52.8268C43.2984 53.2377 43.3193 53.6276 43.3391 54.0175V54.5925C43.3391 54.7159 43.3182 54.9824 43.36 54.9615L44.0782 54.2026L44.0772 54.2005Z" fill="#86B7FE"/>
<path d="M44.6532 55.8359C44.1545 55.8244 43.6653 55.745 43.1698 55.6895C43.1342 55.4397 43.0841 55.0749 43.0715 54.9201C43.0307 54.4487 43.1949 54.5919 43.5639 54.6327C43.5848 54.3452 43.4405 53.8319 43.8712 53.812C44.1796 53.812 44.3636 54.3253 44.6511 54.5093C45.2679 54.9139 46.0101 54.9201 46.031 55.769C45.8941 55.7826 45.7498 55.7836 45.6254 55.7836C45.2972 55.7972 44.9815 55.8495 44.6532 55.8359Z" fill="#0022B0"/>
<path d="M44.6533 55.8358C44.9816 55.8494 45.2973 55.7961 45.6256 55.7835C45.751 55.7835 45.8942 55.7835 46.0312 55.7689C46.0322 55.8243 46.0312 55.8829 46.026 55.9456C45.5743 56.1097 43.4731 56.1097 43.2065 55.9456C43.2065 55.9456 43.1908 55.8379 43.1699 55.6895C43.6654 55.7449 44.1547 55.8243 44.6533 55.8358Z" fill="#000031"/>
<path d="M39.857 45.5009C39.857 44.9782 39.927 44.4555 39.996 43.9506C40.0305 43.6192 40.0138 42.9574 40.2396 42.7139C40.6055 42.9574 41.215 42.8884 41.6331 42.9052C42.0691 42.9229 42.5217 42.9574 42.9577 42.9919C43.7072 43.0442 44.439 43.131 45.1875 43.1665C45.0485 45.2918 44.4212 50.6234 44.4212 50.6234C44.0898 50.7802 43.4981 50.6234 43.1667 50.5188C43.0277 50.4666 42.7486 50.3965 42.6785 50.2575C42.5918 50.1007 42.644 49.648 42.6263 49.4557C42.574 48.8807 42.6085 48.2879 42.5918 47.6962C42.5573 47.0167 42.505 45.5709 42.505 45.5709C42.366 45.5364 42.2259 45.6054 42.0691 45.5887C41.999 46.5818 41.999 47.575 41.8778 48.5681C41.8255 49.004 41.7732 49.4567 41.721 49.8926C41.6687 50.3808 41.6865 50.6244 41.1282 50.729C40.9369 50.7634 40.1581 50.8952 40.0305 50.8335C40.0305 50.8335 39.856 47.2614 39.856 45.502L39.857 45.5009Z" fill="#00007D"/>
<path d="M38.8501 37.6434C38.8501 37.6434 39.7241 37.9748 40.2468 37.8075C40.184 39.1048 39.6833 42.7125 39.6833 42.7125C40.0596 42.9634 40.666 43.2258 41.0841 43.3512C41.9424 43.644 42.6742 43.6858 43.5743 43.6858C44.2642 43.6858 45.1152 43.6847 45.7424 43.3293C45.4947 42.3832 45.3305 41.3064 45.2939 40.3604C45.2605 39.4822 45.2762 38.6605 45.2762 37.7814C45.8825 37.865 46.4083 37.7113 47.1725 37.3674C46.6979 36.5007 46.285 35.4292 46.0215 34.71C45.8752 34.3127 45.7288 33.7262 45.3316 33.4754C44.9761 33.2663 44.3479 33.2872 43.9506 33.2663C43.0923 33.2454 42.0678 33.1199 41.2514 33.3499C40.7496 33.4754 40.3722 33.4754 40.1004 33.9771C39.8913 34.4162 39.6969 35.0476 39.5505 35.5076C39.3623 36.0303 38.8501 37.6423 38.8501 37.6423V37.6434Z" fill="#0054E4"/>
<path d="M42.1223 30.8024C41.8871 30.6654 41.5087 30.8024 41.4951 31.1798C41.469 31.8321 42.1746 31.9523 42.344 31.3857L42.1223 30.8013V30.8024Z" fill="#86B7FE"/>
<path d="M44.4087 30.956C44.6178 30.6988 44.9711 30.8013 45.0485 31.1797C45.1927 31.9355 44.5519 32.1592 44.2122 31.6439L44.4087 30.957V30.956Z" fill="#86B7FE"/>
<path d="M44.5656 28.5225C44.2123 28.6793 43.8213 28.7441 43.4282 28.7577C42.9578 28.7702 42.5522 28.627 42.1215 28.5361C42.0974 28.8371 42.1507 29.8282 41.697 29.9076C41.7158 30.1083 41.7503 30.3101 41.7942 30.5098C41.9249 31.1234 42.2772 31.6461 42.434 32.2472C42.526 32.5995 42.4863 33.1881 42.0807 33.3188L42.3023 33.9324C42.433 34.154 42.7602 34.821 43.0341 34.8597C43.308 34.8984 43.7784 34.2586 43.9101 34.0756C43.9885 33.9711 44.1453 33.7495 44.1589 33.6188C44.1725 33.4881 44.0669 33.3313 44.0544 33.2006C44.0283 32.9006 44.1192 32.587 44.1987 32.312C44.2907 32.0246 44.3011 31.8542 44.4579 31.5803C44.6147 31.2802 44.8656 30.7053 44.944 30.3655C44.9744 30.2495 44.9942 30.1376 45.0088 30.0257C44.6409 30.0759 44.6043 28.9668 44.5656 28.5225Z" fill="#86B7FE"/>
<path d="M44.5656 28.5225C44.2123 28.6793 43.8213 28.7441 43.4282 28.7577C42.9578 28.7702 42.5522 28.627 42.1215 28.5361C42.0974 28.8371 42.1507 29.8282 41.697 29.9076C41.7158 30.1083 41.7503 30.3101 41.7942 30.5098C41.9249 31.1234 42.2772 31.6461 42.434 32.2472C42.526 32.5995 42.4863 33.1881 42.0807 33.3188L42.3023 33.9324C42.433 34.154 42.7602 34.821 43.0341 34.8597C43.308 34.8984 43.7784 34.2586 43.9101 34.0756C43.9885 33.9711 44.1453 33.7495 44.1589 33.6188C44.1725 33.4881 44.0669 33.3313 44.0544 33.2006C44.0283 32.9006 44.1192 32.587 44.1987 32.312C44.2907 32.0246 44.3011 31.8542 44.4579 31.5803C44.6147 31.2802 44.8656 30.7053 44.944 30.3655C44.9744 30.2495 44.9942 30.1376 45.0088 30.0257C44.6409 30.0759 44.6043 28.9668 44.5656 28.5225Z" fill="#86B7FE"/>
<path d="M44.9315 28.7837C44.8667 28.4178 44.7747 28.2223 44.4736 28.0132C44.2384 27.8438 43.9384 27.7257 43.6373 27.7132C43.0362 27.687 42.2783 27.8438 41.9647 28.4188C41.7023 28.8872 41.649 29.3973 41.697 29.9075C42.1507 29.828 42.0974 28.837 42.1215 28.5359C42.5522 28.6268 42.9578 28.7711 43.4282 28.7575C43.8202 28.745 44.2123 28.6791 44.5656 28.5223C44.6053 28.9666 44.6409 30.0758 45.0089 30.0256C45.0622 29.6095 45.0141 29.2175 44.9315 28.7837Z" fill="#86B7FE"/>
<path d="M44.9315 28.7837C44.8667 28.4178 44.7747 28.2223 44.4736 28.0132C44.2384 27.8438 43.9384 27.7257 43.6373 27.7132C43.0362 27.687 42.2783 27.8438 41.9647 28.4188C41.7023 28.8872 41.649 29.3973 41.697 29.9075C42.1507 29.828 42.0974 28.837 42.1215 28.5359C42.5522 28.6268 42.9578 28.7711 43.4282 28.7575C43.8202 28.745 44.2123 28.6791 44.5656 28.5223C44.6053 28.9666 44.6409 30.0758 45.0089 30.0256C45.0622 29.6095 45.0141 29.2175 44.9315 28.7837Z" fill="#86B7FE"/>
<path d="M44.5656 28.5225C44.2123 28.6793 43.8213 28.7441 43.4282 28.7577C42.9578 28.7702 42.5522 28.627 42.1215 28.5361C42.0974 28.8371 42.1507 29.8282 41.697 29.9076C41.7158 30.1083 41.7503 30.3101 41.7942 30.5098C41.9249 31.1234 42.2772 31.6461 42.434 32.2472C42.526 32.5995 42.4863 33.1881 42.0807 33.3188L42.3023 33.9324C42.433 34.154 42.7602 34.821 43.0341 34.8597C43.308 34.8984 43.7784 34.2586 43.9101 34.0756C43.9885 33.9711 44.1453 33.7495 44.1589 33.6188C44.1725 33.4881 44.0669 33.3313 44.0544 33.2006C44.0283 32.9006 44.1192 32.587 44.1987 32.312C44.2907 32.0246 44.3011 31.8542 44.4579 31.5803C44.6147 31.2802 44.8656 30.7053 44.944 30.3655C44.9744 30.2495 44.9942 30.1376 45.0088 30.0257C44.6409 30.0759 44.6043 28.9668 44.5656 28.5225Z" fill="#86B7FE"/>
<path d="M44.9315 28.7837C44.8667 28.4178 44.7747 28.2223 44.4736 28.0132C44.2384 27.8438 43.9384 27.7257 43.6373 27.7132C43.0362 27.687 42.2783 27.8438 41.9647 28.4188C41.7023 28.8872 41.649 29.3973 41.697 29.9075C42.1507 29.828 42.0974 28.837 42.1215 28.5359C42.5522 28.6268 42.9578 28.7711 43.4282 28.7575C43.8202 28.745 44.2123 28.6791 44.5656 28.5223C44.6053 28.9666 44.6409 30.0758 45.0089 30.0256C45.0622 29.6095 45.0141 29.2175 44.9315 28.7837Z" fill="#0054E4"/>
<g style="mix-blend-mode:multiply" opacity="0.5">
<path d="M42.4004 32.0065C42.5656 32.2417 42.7485 32.503 43.0715 32.5469C43.4897 32.6076 43.8472 32.4602 44.1347 32.1549C44.1786 32.1026 44.2309 32.042 44.2737 31.9897C44.2392 32.1811 44.0563 32.4424 43.9424 32.5992C43.8117 32.7822 43.6632 32.9473 43.4374 32.9912C42.9848 33.0874 42.6711 32.7215 42.5049 32.3462C42.4704 32.2595 42.4349 32.1811 42.4004 32.0932V32.0065Z" fill="#0054E4"/>
</g>
<path d="M43.037 34.7026C42.8404 34.4412 42.4223 33.422 42.3177 33.2265C42.1871 32.9787 42.2529 33.0655 42.0438 33.0655C41.7563 33.5621 41.4103 34.089 41.3967 34.6514C41.5661 34.6775 42.231 34.4423 42.4003 34.39C42.5446 34.6117 42.8132 34.8625 42.8143 34.8991C42.8195 35.1751 42.762 36.3627 42.762 36.3627C42.8143 36.4411 43.2669 36.4139 43.3851 36.4003C43.3851 36.4003 43.3004 35.4093 43.2868 34.9002L43.6537 34.4726C43.6537 34.4726 44.259 34.7967 44.4807 34.8615C44.6375 34.5217 44.5528 32.9651 44.1022 33.0697L43.037 34.7026Z" fill="#E7F0FF"/>
<path d="M40.0546 55.8359C40.5532 55.8244 41.0425 55.745 41.538 55.6895C41.5736 55.4397 41.6237 55.0749 41.6363 54.9201C41.6771 54.4487 41.5129 54.5919 41.1439 54.6327C41.123 54.3452 41.2673 53.8319 40.8366 53.812C40.5282 53.812 40.3442 54.3253 40.0567 54.5093C39.4399 54.9139 38.6977 54.9201 38.6768 55.769C38.8137 55.7826 38.958 55.7836 39.0824 55.7836C39.4106 55.7972 39.7263 55.8495 40.0546 55.8359Z" fill="#0022B0"/>
<path d="M40.0545 55.8358C39.7262 55.8494 39.4105 55.7961 39.0822 55.7835C38.9568 55.7835 38.8136 55.7835 38.6766 55.7689C38.6756 55.8243 38.6766 55.8829 38.6819 55.9456C39.1335 56.1097 41.2347 56.1097 41.5013 55.9456C41.5013 55.9456 41.517 55.8379 41.5379 55.6895C41.0424 55.7449 40.5531 55.8243 40.0545 55.8358Z" fill="#000031"/>
<path d="M55.7752 54.4963C56.3784 54.3541 56.4139 53.361 56.4139 52.8634C56.4139 52.4024 56.3073 52.0114 56.2006 51.5504C56.0229 50.6273 56.4494 51.0182 56.8038 51.5859C56.7327 50.6628 55.9163 49.7763 56.0229 48.8177C56.4129 48.711 56.7683 49.492 56.9105 49.8119C56.5205 48.8532 56.0229 47.8956 55.7752 46.8659C55.6685 46.2983 55.7041 45.9784 56.2362 46.4404C56.6617 46.8304 56.8749 47.4691 57.1237 47.9667C57.0171 47.6123 56.7693 47.0436 56.8749 46.6892C57.7269 46.9025 57.9747 48.9609 58.1169 49.6707C58.1169 49.2452 58.0102 48.6776 58.1879 48.3222C58.7201 48.6765 58.649 50.0607 58.6134 50.6649C58.5423 51.4103 58.2235 52.4034 57.7259 52.971C57.9036 52.6877 58.1514 52.2968 58.4357 52.1191C58.8612 53.1488 56.5195 55.5971 55.6675 54.8873L55.7741 54.4973L55.7752 54.4963Z" fill="#86B7FE"/>
<path d="M47.4003 43.53C46.4417 43.5655 46.3361 41.9682 46.4072 41.2583C46.4783 40.3708 47.0815 39.9453 47.5425 39.271C48.1102 38.4546 48.1813 37.8514 49.2099 37.6737C49.9908 37.5315 50.7718 37.4249 51.1617 38.1702C51.5161 38.8801 51.6582 39.7321 51.8715 40.4774C52.297 41.9326 52.5103 43.4589 52.8657 44.9486C53.2556 46.5815 53.7888 48.1423 54.4275 49.7041C55.0307 51.1238 56.3793 52.6501 56.3437 54.2819C56.3082 55.8082 53.5755 55.9504 52.4047 55.9504C51.6238 55.9504 50.8073 55.9149 50.0274 55.8082C49.4953 55.7371 48.1468 55.8082 47.8624 55.3472C47.6847 55.0639 47.8269 54.3541 47.7913 54.0342C47.7558 53.5021 47.6847 53.0045 47.5781 52.4724C47.4359 51.6559 47.2592 50.875 47.117 50.024C46.7982 48.3211 46.8327 47.008 47.117 45.304C47.2237 44.7009 47.4014 44.0977 47.4714 43.53H47.4003Z" fill="#86B7FE"/>
<path d="M51.3531 38.6176C52.8438 38.4398 53.0424 40.7617 52.9713 41.8269C52.9358 42.3946 52.9003 43.7432 52.2615 43.8853C51.3029 44.0631 51.3029 42.9978 51.3384 42.4301C51.4095 41.7559 51.5141 39.8626 51.3531 38.6176Z" fill="#CFE2FF"/>
<path d="M54.99 50.7978C54.3868 49.9813 52.7936 49.8831 52.1194 50.734C51.2695 51.8212 51.2015 54.1765 52.3504 55.1226C51.995 55.1101 51.6447 55.1205 51.3384 55.339C51.1346 55.4812 50.9036 55.8272 50.9663 56.0928C51.0102 56.2966 51.4095 56.2433 51.5873 56.2527C52.1016 56.2788 52.6515 56.2705 53.1574 56.2088C53.4063 56.1732 53.6456 56.1732 53.8934 56.1649C54.1422 56.1565 54.3722 56.1116 54.621 56.1116C55.0381 56.1116 55.4908 56.0938 55.8368 55.8272C56.0312 55.6788 56.1462 55.4843 56.2226 55.2721C57.1498 53.6706 54.99 50.7978 54.99 50.7978Z" fill="#CFE2FF"/>
<path d="M49.2925 48.6652C49.3459 50.8208 49.3992 53.0297 49.2664 55.1864C49.2664 55.3725 49.1598 55.7718 49.2403 55.9318C49.3469 56.145 49.7462 56.1712 49.9856 56.1984C50.1989 56.2517 50.5449 56.3583 50.6244 56.1189C50.731 55.8523 50.3055 55.6129 50.2522 55.4268C50.1456 55.0547 50.385 54.2821 50.4122 53.8567C50.4383 53.3507 50.4383 52.8458 50.4383 52.3398C50.4383 52.6325 50.5177 53.0852 50.7049 53.2984C51.0237 52.6597 50.7582 51.7282 50.731 51.0362C50.731 51.2222 50.7843 51.4355 50.9443 51.5683C51.2108 50.8762 51.2642 49.5454 51.077 48.8272C50.891 48.0819 49.6135 47.9752 49.2936 48.6673L49.2925 48.6652Z" fill="#CFE2FF"/>
<path d="M48.7949 48.6974C48.6674 50.8498 48.5377 53.0567 48.5963 55.2154C48.59 55.4015 48.682 55.804 48.5963 55.9608C48.4823 56.1699 48.083 56.1824 47.8425 56.2012C47.6282 56.2472 47.278 56.3413 47.2069 56.0998C47.1097 55.8301 47.5436 55.6054 47.6031 55.4214C47.7223 55.0523 47.5101 54.2735 47.4976 53.8459C47.4881 53.34 47.5059 52.834 47.5237 52.3291C47.5132 52.6218 47.4181 53.0713 47.2247 53.2772C46.9278 52.6281 47.2247 51.706 47.2759 51.015C47.2697 51.2011 47.209 51.4123 47.0449 51.5398C46.8024 50.8394 46.795 49.5075 47.0062 48.7956C47.2184 48.0576 48.499 47.9948 48.7938 48.6974H48.7949Z" fill="#CFE2FF"/>
<path d="M50.9128 41.827C50.7884 42.3414 50.2741 43.1223 49.8486 43.4244C48.961 44.0631 48.6777 42.4135 48.6777 41.8448V41.6138L50.9138 41.827H50.9128Z" fill="#CFE2FF"/>
<path d="M49.4944 42.0937C49.4944 42.6614 49.6188 43.9566 48.8734 43.9922C48.288 44.0277 48.2169 43.389 48.1636 42.9457C48.128 42.6436 47.9859 41.9348 48.3235 41.7926C48.6256 41.686 49.1578 41.8282 49.4411 41.9348L49.4944 42.0948V42.0937Z" fill="#00007E"/>
<path d="M47.762 39.6256C48.245 39.3287 48.1154 38.6962 48.338 38.2321C48.6538 37.5442 49.8068 37.3581 50.4937 37.563C51.4042 37.8233 51.4607 39.106 51.5161 39.8859C51.5903 40.8341 51.4418 41.6892 50.6421 42.3018C50.1957 42.6363 49.7316 42.5067 49.5643 41.9861L47.761 39.6256H47.762Z" fill="#CFE2FF"/>
<path d="M48.358 39.0059C48.1981 39.1836 48.0569 39.3603 47.8615 39.5202C47.4893 39.8223 47.436 40.0523 47.4182 40.5311C47.4004 40.9743 47.4004 41.5953 47.6137 42.0041C47.8447 42.4295 48.3768 42.2351 48.6256 41.8974C48.9623 42.2874 49.4243 42.4295 49.8676 42.164C50.1875 41.9685 50.6663 41.4009 50.6307 40.9932" fill="#CFE2FF"/>
<path d="M47.1871 47.5579C47.0627 47.9479 47.045 48.4277 47.116 48.8354C47.1516 49.0665 47.2404 49.7407 47.5415 49.4564C47.737 49.2787 47.7548 48.8177 47.8259 48.5688C47.8436 49.0299 47.9147 49.7042 48.2513 50.0774C48.6057 50.4851 48.6057 49.3675 48.6413 49.101C48.6413 49.4031 48.5702 50.2896 48.8545 50.5028C49.28 50.805 49.5111 49.4919 49.5466 49.2254C49.5466 49.4564 49.4577 50.6628 49.9188 50.2185C50.2031 49.9697 50.2031 49.2599 50.2376 48.9232C50.2198 49.2065 50.4331 49.6686 50.7697 49.4909C51.0541 49.3487 51.1419 48.7455 51.1596 48.4622C51.1952 47.6813 51.0352 47.1137 50.4498 46.5815L47.185 47.5569L47.1871 47.5579Z" fill="#86B7FE"/>
<path d="M48.5901 40.5625C48.4595 40.5521 48.2274 40.55 48.1772 40.4141C48.1072 40.6127 48.2535 40.9378 48.3246 41.0842C48.4114 41.2608 48.5692 41.3831 48.7365 41.3779C48.8347 41.3748 48.9362 41.3267 49.0281 41.2201C49.1515 41.0779 49.2947 40.7653 49.2696 40.5353C49.2602 40.5406 49.2508 40.5458 49.2404 40.5489C49.0616 40.6252 48.7804 40.574 48.5891 40.5615L48.5901 40.5625Z" fill="#00004A"/>
<path d="M49.1484 40.3147C48.9759 40.2081 48.3768 40.1819 48.2305 40.3283C48.2064 40.3523 48.1897 40.3826 48.1782 40.4151C48.2284 40.5499 48.4605 40.552 48.5912 40.5635C48.7825 40.576 49.0637 40.6273 49.2424 40.551C49.2529 40.5468 49.2623 40.5415 49.2717 40.5374C49.2623 40.4454 49.2257 40.3659 49.1494 40.3168L49.1484 40.3147Z" fill="#000031"/>
</svg>
