<svg width="12" height="16" viewBox="0 0 12 16" fill="none" xmlns="http://www.w3.org/2000/svg">
<path d="M5.60583 15.0632L5.60578 15.0631C5.49927 14.9888 4.17402 14.0474 2.87603 12.5228C1.5772 10.9973 0.312512 8.89582 0.3125 6.50003C0.314145 4.99211 0.913894 3.54642 1.98016 2.48016C3.04641 1.4139 4.49209 0.814154 6 0.8125C7.50791 0.814154 8.95359 1.4139 10.0198 2.48016C11.0861 3.54643 11.6859 4.99213 11.6875 6.50007C11.6875 8.50381 10.768 10.6273 9.01911 12.6358L9.01899 12.636C8.23655 13.54 7.35599 14.3542 6.39354 15.0636C6.27813 15.1442 6.14077 15.1874 6 15.1874C5.85898 15.1874 5.72137 15.144 5.60583 15.0632ZM8.00339 11.7104L8.00355 11.7102C9.0498 10.4986 10.3125 8.60517 10.3125 6.5C10.3125 5.35625 9.85815 4.25935 9.0494 3.4506C8.24065 2.64185 7.14375 2.1875 6 2.1875C4.85625 2.1875 3.75935 2.64185 2.9506 3.4506C2.14185 4.25935 1.6875 5.35625 1.6875 6.5C1.6875 8.60517 2.9502 10.4986 3.99644 11.7102L3.99661 11.7104C4.59492 12.3977 5.25211 13.0313 5.96071 13.6042L6 13.636L6.03929 13.6042C6.74789 13.0313 7.40508 12.3977 8.00339 11.7104ZM4.5069 4.26543C4.94884 3.97013 5.46842 3.81251 5.99993 3.8125C6.71247 3.81331 7.39559 4.09672 7.89944 4.60056C8.40328 5.10441 8.68669 5.78753 8.6875 6.50007C8.68748 7.03158 8.52987 7.55116 8.23457 7.99309C7.93927 8.43505 7.51954 8.77952 7.02846 8.98293C6.53738 9.18634 5.99702 9.23956 5.47569 9.13586C4.95437 9.03216 4.4755 8.7762 4.09965 8.40035C3.7238 8.0245 3.46784 7.54563 3.36414 7.0243C3.26044 6.50298 3.31366 5.96261 3.51707 5.47154C3.72048 4.98046 4.06495 4.56073 4.5069 4.26543ZM5.27081 7.5913C5.48665 7.73552 5.74041 7.8125 6 7.8125C6.3481 7.8125 6.68194 7.67422 6.92808 7.42808C7.17422 7.18194 7.3125 6.8481 7.3125 6.5C7.3125 6.24041 7.23552 5.98665 7.0913 5.77081C6.94708 5.55497 6.7421 5.38675 6.50227 5.28741C6.26244 5.18807 5.99854 5.16208 5.74394 5.21272C5.48934 5.26336 5.25548 5.38837 5.07192 5.57192C4.88837 5.75548 4.76336 5.98934 4.71272 6.24394C4.66208 6.49854 4.68807 6.76244 4.78741 7.00227C4.88675 7.2421 5.05497 7.44708 5.27081 7.5913Z" fill="#344054" stroke="#98A2B3" stroke-width="0.125"/>
</svg>
