<svg width="20" height="20" viewBox="0 0 20 20" fill="none" xmlns="http://www.w3.org/2000/svg">
<path d="M16.25 17.5002H3.75C3.41848 17.5002 3.10054 17.3685 2.86612 17.134C2.6317 16.8996 2.5 16.5817 2.5 16.2502L2.5 3.75015C2.5 3.41863 2.6317 3.10069 2.86612 2.86627C3.10054 2.63185 3.41848 2.50015 3.75 2.50015H16.25C16.5815 2.50015 16.8995 2.63185 17.1339 2.86627C17.3683 3.10069 17.5 3.41863 17.5 3.75015V16.2502C17.5 16.5817 17.3683 16.8996 17.1339 17.134C16.8995 17.3685 16.5815 17.5002 16.25 17.5002ZM6.25 3.75015H3.75L3.75 16.2502H6.25L6.25 3.75015ZM13.75 8.12515H8.75C8.58424 8.12515 8.42527 8.191 8.30806 8.30821C8.19085 8.42542 8.125 8.58439 8.125 8.75015C8.125 8.91591 8.19085 9.07488 8.30806 9.19209C8.42527 9.30931 8.58424 9.37515 8.75 9.37515H13.75C13.9158 9.37515 14.0747 9.30931 14.1919 9.19209C14.3092 9.07488 14.375 8.91591 14.375 8.75015C14.375 8.58439 14.3092 8.42542 14.1919 8.30821C14.0747 8.191 13.9158 8.12515 13.75 8.12515ZM13.75 10.6252H8.75C8.58424 10.6252 8.42527 10.691 8.30806 10.8082C8.19085 10.9254 8.125 11.0844 8.125 11.2502C8.125 11.4159 8.19085 11.5749 8.30806 11.6921C8.42527 11.8093 8.58424 11.8752 8.75 11.8752H13.75C13.9158 11.8752 14.0747 11.8093 14.1919 11.6921C14.3092 11.5749 14.375 11.4159 14.375 11.2502C14.375 11.0844 14.3092 10.9254 14.1919 10.8082C14.0747 10.691 13.9158 10.6252 13.75 10.6252Z" fill="#0D6EFD"/>
</svg>
