<svg width="44" height="46" viewBox="0 0 44 46" fill="none" xmlns="http://www.w3.org/2000/svg">
<rect width="44" height="46" rx="4" fill="#FFFEE3"/>
<rect x="9.42666" y="6.42666" width="24.3196" height="33.2795" rx="1.27998" fill="#EDE40A" stroke="#706C02" stroke-width="0.85332"/>
<rect x="9" y="20.5078" width="25.1729" height="4.69326" fill="#9A9316"/>
<rect x="12.8398" y="27.7578" width="8.5332" height="7.67988" rx="0.85332" fill="#F4F4F4"/>
<rect x="12.8398" y="10.2656" width="6.82656" height="2.1333" rx="1.06665" fill="#FFFDD9"/>
<rect x="21.373" y="10.2656" width="6.82656" height="2.1333" rx="1.06665" fill="#FFFDD9"/>
<rect x="12.8398" y="14.1094" width="6.82656" height="2.1333" rx="1.06665" fill="#FFFDD9"/>
<rect x="21.373" y="14.1094" width="6.82656" height="2.1333" rx="1.06665" fill="#FFFDD9"/>
<rect x="24.7866" y="29.0391" width="6.82656" height="0.85332" rx="0.42666" fill="#FFFDD9"/>
<rect x="24.7866" y="31.1719" width="6.82656" height="0.85332" rx="0.42666" fill="#FFFDD9"/>
<rect x="24.7866" y="33.3047" width="6.82656" height="0.85332" rx="0.42666" fill="#FFFDD9"/>
<path d="M19.165 33.439C19.1509 33.4634 19.1307 33.4836 19.1064 33.4976C19.0821 33.5117 19.0545 33.519 19.0264 33.519H15.1864C15.1584 33.519 15.1308 33.5116 15.1065 33.4975C15.0822 33.4835 15.062 33.4633 15.048 33.439C15.034 33.4146 15.0266 33.3871 15.0266 33.359C15.0266 33.3309 15.034 33.3034 15.048 33.279C15.3526 32.7524 15.822 32.3749 16.3698 32.1959C16.0989 32.0346 15.8883 31.7888 15.7706 31.4962C15.6528 31.2037 15.6344 30.8806 15.718 30.5766C15.8017 30.2725 15.9828 30.0043 16.2336 29.8132C16.4845 29.6221 16.7911 29.5186 17.1064 29.5186C17.4218 29.5186 17.7284 29.6221 17.9792 29.8132C18.23 30.0043 18.4112 30.2725 18.4948 30.5766C18.5785 30.8806 18.56 31.2037 18.4422 31.4962C18.3245 31.7888 18.114 32.0346 17.843 32.1959C18.3908 32.3749 18.8602 32.7524 19.1648 33.279C19.1789 33.3033 19.1863 33.3309 19.1863 33.359C19.1864 33.3871 19.179 33.4147 19.165 33.439Z" fill="#DAD205"/>
</svg>
