<svg width="40" height="20" viewBox="0 0 40 20" fill="none" xmlns="http://www.w3.org/2000/svg">
<rect x="0.5" y="0.5" width="39" height="19" rx="9.5" stroke="#8F8F8F"/>
<path d="M12 5.125C11.0358 5.125 10.0933 5.41091 9.2916 5.94659C8.48991 6.48226 7.86507 7.24363 7.49609 8.13442C7.12711 9.02521 7.03057 10.0054 7.21867 10.9511C7.40678 11.8967 7.87108 12.7654 8.55286 13.4471C9.23464 14.1289 10.1033 14.5932 11.0489 14.7813C11.9946 14.9694 12.9748 14.8729 13.8656 14.5039C14.7564 14.1349 15.5177 13.5101 16.0534 12.7084C16.5891 11.9067 16.875 10.9642 16.875 10C16.8736 8.70749 16.3596 7.46831 15.4456 6.55436C14.5317 5.64042 13.2925 5.12636 12 5.125ZM12 14.125C11.1842 14.125 10.3866 13.8831 9.70827 13.4298C9.02992 12.9766 8.50121 12.3323 8.189 11.5786C7.87679 10.8248 7.7951 9.99542 7.95426 9.19525C8.11343 8.39508 8.5063 7.66008 9.08319 7.08318C9.66008 6.50629 10.3951 6.11342 11.1953 5.95426C11.9954 5.7951 12.8248 5.87679 13.5786 6.189C14.3323 6.50121 14.9766 7.02992 15.4298 7.70827C15.8831 8.38663 16.125 9.18415 16.125 10C16.1238 11.0936 15.6888 12.1421 14.9154 12.9154C14.1421 13.6888 13.0936 14.1238 12 14.125ZM9.75 9.0625C9.75 8.95125 9.78299 8.84249 9.8448 8.74999C9.90661 8.65749 9.99446 8.58539 10.0972 8.54282C10.2 8.50024 10.3131 8.4891 10.4222 8.51081C10.5314 8.53251 10.6316 8.58609 10.7102 8.66475C10.7889 8.74342 10.8425 8.84365 10.8642 8.95276C10.8859 9.06188 10.8748 9.17498 10.8322 9.27776C10.7896 9.38054 10.7175 9.46839 10.625 9.5302C10.5325 9.59201 10.4238 9.625 10.3125 9.625C10.1633 9.625 10.0202 9.56574 9.91475 9.46025C9.80927 9.35476 9.75 9.21168 9.75 9.0625ZM14.25 9.0625C14.25 9.17375 14.217 9.28251 14.1552 9.37501C14.0934 9.46751 14.0055 9.53961 13.9028 9.58218C13.8 9.62476 13.6869 9.6359 13.5778 9.61419C13.4686 9.59249 13.3684 9.53891 13.2898 9.46025C13.2111 9.38158 13.1575 9.28135 13.1358 9.17224C13.1141 9.06312 13.1252 8.95002 13.1678 8.84724C13.2104 8.74446 13.2825 8.65661 13.375 8.5948C13.4675 8.53299 13.5763 8.5 13.6875 8.5C13.8367 8.5 13.9798 8.55926 14.0852 8.66475C14.1907 8.77024 14.25 8.91332 14.25 9.0625ZM14.1998 11.3125C13.7175 12.1464 12.9155 12.625 12 12.625C11.0845 12.625 10.283 12.1469 9.80063 11.3125C9.77349 11.2698 9.75528 11.2221 9.74707 11.1722C9.73886 11.1223 9.74083 11.0712 9.75286 11.0221C9.7649 10.973 9.78674 10.9268 9.81708 10.8863C9.84743 10.8459 9.88564 10.812 9.92943 10.7867C9.97322 10.7613 10.0217 10.7452 10.0719 10.7391C10.1221 10.733 10.173 10.7371 10.2216 10.7512C10.2702 10.7653 10.3154 10.789 10.3545 10.8211C10.3937 10.8531 10.4259 10.8927 10.4494 10.9375C10.7995 11.5427 11.3498 11.875 12 11.875C12.6502 11.875 13.2005 11.5422 13.5502 10.9375C13.5999 10.8513 13.6818 10.7885 13.7779 10.7627C13.874 10.737 13.9763 10.7504 14.0625 10.8002C14.1487 10.8499 14.2115 10.9318 14.2373 11.0279C14.263 11.124 14.2496 11.2263 14.1998 11.3125Z" fill="black"/>
<path d="M32.5 10C32.5 10.0995 32.4605 10.1948 32.3902 10.2652C32.3198 10.3355 32.2245 10.375 32.125 10.375H28.375V14.125C28.375 14.2245 28.3355 14.3198 28.2652 14.3902C28.1948 14.4605 28.0995 14.5 28 14.5C27.9005 14.5 27.8052 14.4605 27.7348 14.3902C27.6645 14.3198 27.625 14.2245 27.625 14.125V10.375H23.875C23.7755 10.375 23.6802 10.3355 23.6098 10.2652C23.5395 10.1948 23.5 10.0995 23.5 10C23.5 9.90054 23.5395 9.80516 23.6098 9.73484C23.6802 9.66451 23.7755 9.625 23.875 9.625H27.625V5.875C27.625 5.77554 27.6645 5.68016 27.7348 5.60984C27.8052 5.53951 27.9005 5.5 28 5.5C28.0995 5.5 28.1948 5.53951 28.2652 5.60984C28.3355 5.68016 28.375 5.77554 28.375 5.875V9.625H32.125C32.2245 9.625 32.3198 9.66451 32.3902 9.73484C32.4605 9.80516 32.5 9.90054 32.5 10Z" fill="black"/>
</svg>
