<svg width="44" height="46" viewBox="0 0 44 46" fill="none" xmlns="http://www.w3.org/2000/svg">
<rect width="44" height="46" rx="4" fill="#F6F4FF"/>
<g clip-path="url(#clip0_2_25356)">
<rect x="7" y="6" width="30.0059" height="34.0066" rx="2.00039" fill="#3B0CCB"/>
<rect x="17.0017" y="8.00024" width="10.002" height="2.00039" rx="1.0002" fill="#0E0331"/>
<rect x="9.00049" y="12" width="26.0051" height="31.0061" rx="1.0002" fill="#DACFFD"/>
<path d="M16.3869 17.1548H14.9266L14.6366 18H14.0315L15.3467 14.4243H15.9718L17.2821 18H16.677L16.3869 17.1548ZM15.0917 16.6597H16.2269L15.6668 14.9694H15.6568L15.0917 16.6597ZM19.1156 16.3797C19.0956 16.1196 18.9306 15.8046 18.4805 15.8046C17.9654 15.8046 17.7453 16.2447 17.7453 16.7248C17.7453 17.2048 17.9604 17.6449 18.4805 17.6449C18.9306 17.6449 19.0956 17.3349 19.1156 17.0498H19.6407C19.6007 17.6399 19.1456 18.075 18.4805 18.075C17.7153 18.075 17.2202 17.5249 17.2202 16.7248C17.2202 15.9246 17.7153 15.3745 18.4755 15.3745C19.1406 15.3745 19.5757 15.7996 19.6407 16.3797H19.1156ZM21.1078 15.8746H20.6277V17.2599C20.6277 17.5499 20.7677 17.5849 21.1078 17.5649V17.995C21.0028 18.02 20.8878 18.035 20.7477 18.035C20.3277 18.035 20.0976 17.845 20.0976 17.3049V15.8746H19.7275V15.4445H20.0976V14.6393H20.6277V15.4445H21.1078V15.8746ZM21.6845 15.0144C21.5395 15.0144 21.3894 14.9144 21.3894 14.7344C21.3894 14.5543 21.5395 14.4593 21.6845 14.4593C21.8395 14.4593 21.9845 14.5543 21.9845 14.7344C21.9845 14.9144 21.8395 15.0144 21.6845 15.0144ZM21.4244 15.4445H21.9495V18H21.4244V15.4445ZM22.1333 15.4445H22.6884L23.3336 17.4449H23.3386L23.9837 15.4445H24.5388L23.6336 18H23.0385L22.1333 15.4445ZM24.9861 15.0144C24.8411 15.0144 24.6911 14.9144 24.6911 14.7344C24.6911 14.5543 24.8411 14.4593 24.9861 14.4593C25.1411 14.4593 25.2862 14.5543 25.2862 14.7344C25.2862 14.9144 25.1411 15.0144 24.9861 15.0144ZM24.7261 15.4445H25.2512V18H24.7261V15.4445ZM26.9052 15.8746H26.4251V17.2599C26.4251 17.5499 26.5652 17.5849 26.9052 17.5649V17.995C26.8002 18.02 26.6852 18.035 26.5452 18.035C26.1251 18.035 25.895 17.845 25.895 17.3049V15.8746H25.525V15.4445H25.895V14.6393H26.4251V15.4445H26.9052V15.8746ZM29.4667 15.4445L28.4465 18.16C28.3015 18.5551 28.1365 18.8702 27.6464 18.8702C27.4963 18.8702 27.3713 18.8452 27.2713 18.8202V18.4201H27.3163C27.5363 18.4501 27.7014 18.4351 27.8164 18.2951C27.9114 18.18 27.9814 17.98 27.8864 17.7399L26.9612 15.4445H27.5263L28.2415 17.3999H28.2515L28.9066 15.4445H29.4667Z" fill="#470FF4"/>
<circle cx="22.0029" cy="29.0054" r="7.50146" fill="#F5F2FF"/>
<circle cx="22.0031" cy="29.0046" r="3.50068" fill="#6637F6"/>
</g>
<defs>
<clipPath id="clip0_2_25356">
<rect width="30.0059" height="34.0066" fill="white" transform="translate(7 6)"/>
</clipPath>
</defs>
</svg>
