<svg width="44" height="46" viewBox="0 0 44 46" fill="none" xmlns="http://www.w3.org/2000/svg">
<rect width="44" height="46" rx="4" fill="#ED217C" fill-opacity="0.06"/>
<path fill-rule="evenodd" clip-rule="evenodd" d="M21.994 7C30.8347 7 38 14.1604 38 22.996C38 31.8316 30.8387 39 21.994 39C13.1493 39 6 31.8396 6 22.996C6 14.1524 13.1613 7 21.994 7ZM37.8561 20.8771C37.948 21.5727 38 22.2764 38 22.992C38 23.7076 37.948 24.4193 37.8561 25.1149H33.9135V20.8771H37.8561ZM6.16793 25.3188C6.05997 24.5552 6 23.7836 6 22.992C6 22.2004 6.05997 21.4288 6.16793 20.6732H12.7415V19.2539H15.8323C16.7759 19.2539 17.6316 19.6857 18.1954 20.3653H22.1939C22.4418 20.3653 22.6697 20.4653 22.8337 20.6292H22.8257C22.9896 20.7931 23.0976 21.021 23.0976 21.2649V24.7231C23.0976 24.971 22.9896 25.1989 22.8337 25.3668H22.8257C22.6657 25.5347 22.4418 25.6307 22.1939 25.6307H18.1954C17.6316 26.3103 16.7759 26.7421 15.8323 26.7421H12.7415V25.3228H6.16793V25.3188ZM25.8606 18.898H32.614C33.1898 18.898 33.6656 19.3658 33.6656 19.9415V26.0465C33.6656 26.6302 33.1898 27.098 32.614 27.098H25.8606C25.2848 27.098 24.8169 26.6302 24.8169 26.0465V19.9415C24.8169 19.3658 25.2848 18.898 25.8606 18.898ZM27.8718 21.3608H30.6148C30.7587 21.3608 30.8867 21.4208 30.9866 21.5207C31.0866 21.6207 31.1466 21.7486 31.1466 21.8926V24.0995C31.1466 24.2514 31.0866 24.3793 30.9866 24.4753C30.8867 24.5672 30.7587 24.6272 30.6148 24.6272H27.8718C27.7198 24.6272 27.5919 24.5672 27.4959 24.4753C27.404 24.3753 27.344 24.2474 27.344 24.0995V21.8926C27.344 21.7486 27.404 21.6207 27.4959 21.5207C27.5919 21.4208 27.7198 21.3608 27.8718 21.3608ZM30.6148 21.5567H27.8718C27.7758 21.5567 27.6919 21.5927 27.6319 21.6567C27.5719 21.7166 27.5319 21.8006 27.5319 21.8926V24.0995C27.5319 24.1914 27.5679 24.2794 27.6319 24.3393C27.6919 24.3993 27.7758 24.4393 27.8718 24.4393H30.6148C30.7067 24.4393 30.7867 24.3993 30.8467 24.3393C30.9107 24.2794 30.9466 24.1874 30.9466 24.0995V21.8926C30.9466 21.8006 30.9107 21.7206 30.8467 21.6567C30.7867 21.5967 30.7027 21.5567 30.6148 21.5567ZM18.7672 21.3968C18.8632 21.6927 18.9192 22.0085 18.9192 22.3323V23.6557C18.9192 23.9795 18.8672 24.2994 18.7672 24.5912H22.07V21.3968H18.7672ZM13.4332 20.6692V25.4588H14.033V20.5252H13.4332V20.6692Z" fill="#ED217C"/>
</svg>
