<svg width="24" height="24" viewBox="0 0 24 24" fill="none" xmlns="http://www.w3.org/2000/svg">
<path d="M20.8256 5.51906C20.7552 5.43481 20.6672 5.36705 20.5677 5.32056C20.4683 5.27407 20.3598 5.24998 20.25 5.25H5.12625L4.66781 2.73187C4.60502 2.38625 4.42292 2.07363 4.15325 1.84851C3.88359 1.62339 3.54347 1.50005 3.19219 1.5H1.5C1.30109 1.5 1.11032 1.57902 0.96967 1.71967C0.829018 1.86032 0.75 2.05109 0.75 2.25C0.75 2.44891 0.829018 2.63968 0.96967 2.78033C1.11032 2.92098 1.30109 3 1.5 3H3.1875L5.58375 16.1522C5.65434 16.5422 5.82671 16.9067 6.08344 17.2087C5.72911 17.5397 5.47336 17.9623 5.34455 18.4298C5.21575 18.8972 5.21892 19.3912 5.35371 19.8569C5.48851 20.3226 5.74966 20.7419 6.10821 21.0683C6.46676 21.3947 6.9087 21.6154 7.38502 21.7059C7.86134 21.7965 8.35344 21.7533 8.80673 21.5813C9.26003 21.4092 9.65682 21.115 9.9531 20.7312C10.2494 20.3474 10.4336 19.889 10.4853 19.407C10.537 18.9249 10.4541 18.4379 10.2459 18H14.5041C14.3363 18.3513 14.2495 18.7357 14.25 19.125C14.25 19.6442 14.404 20.1517 14.6924 20.5834C14.9808 21.0151 15.3908 21.3515 15.8705 21.5502C16.3501 21.7489 16.8779 21.8008 17.3871 21.6996C17.8963 21.5983 18.364 21.3483 18.7312 20.9812C19.0983 20.614 19.3483 20.1463 19.4496 19.6371C19.5508 19.1279 19.4989 18.6001 19.3002 18.1205C19.1015 17.6408 18.7651 17.2308 18.3334 16.9424C17.9017 16.654 17.3942 16.5 16.875 16.5H7.79719C7.62155 16.5 7.45149 16.4383 7.31665 16.3257C7.18182 16.2132 7.09077 16.0569 7.05938 15.8841L6.76219 14.25H17.6372C18.1641 14.2499 18.6743 14.0649 19.0788 13.7272C19.4833 13.3896 19.7564 12.9206 19.8506 12.4022L20.9906 6.13406C21.0099 6.02572 21.0051 5.91447 20.9766 5.80818C20.9481 5.7019 20.8966 5.60319 20.8256 5.51906ZM16.875 18C17.0975 18 17.315 18.066 17.5 18.1896C17.685 18.3132 17.8292 18.4889 17.9144 18.6945C17.9995 18.9 18.0218 19.1262 17.9784 19.3445C17.935 19.5627 17.8278 19.7632 17.6705 19.9205C17.5132 20.0778 17.3127 20.185 17.0945 20.2284C16.8762 20.2718 16.65 20.2495 16.4445 20.1644C16.2389 20.0792 16.0632 19.935 15.9396 19.75C15.816 19.565 15.75 19.3475 15.75 19.125C15.75 18.8266 15.8685 18.5405 16.0795 18.3295C16.2905 18.1185 16.5766 18 16.875 18ZM7.875 18C8.0975 18 8.31501 18.066 8.50002 18.1896C8.68502 18.3132 8.82922 18.4889 8.91436 18.6945C8.99951 18.9 9.02179 19.1262 8.97838 19.3445C8.93498 19.5627 8.82783 19.7632 8.6705 19.9205C8.51316 20.0778 8.31271 20.185 8.09448 20.2284C7.87625 20.2718 7.65005 20.2495 7.44448 20.1644C7.23891 20.0792 7.06321 19.935 6.9396 19.75C6.81598 19.565 6.75 19.3475 6.75 19.125C6.75 18.8266 6.86853 18.5405 7.0795 18.3295C7.29048 18.1185 7.57663 18 7.875 18Z" fill="#0D6EFD"/>
</svg>
